<?xml version="1.0" encoding="UTF-8" standalone="no"?>
<!-- Created with Inkscape (http://www.inkscape.org/) -->

<svg
   xmlns:dc="http://purl.org/dc/elements/1.1/"
   xmlns:cc="http://creativecommons.org/ns#"
   xmlns:rdf="http://www.w3.org/1999/02/22-rdf-syntax-ns#"
   xmlns:svg="http://www.w3.org/2000/svg"
   xmlns="http://www.w3.org/2000/svg"
   xmlns:sodipodi="http://sodipodi.sourceforge.net/DTD/sodipodi-0.dtd"
   xmlns:inkscape="http://www.inkscape.org/namespaces/inkscape"
   width="177.40421mm"
   height="96.857605mm"
   viewBox="0 0 628.59758 343.19624"
   id="svg6111"
   version="1.1"
   inkscape:version="0.91 r13725"
   sodipodi:docname="v5_0.svg">
  <defs
     id="defs6113">
    <marker
       inkscape:stockid="Arrow1Lend"
       orient="auto"
       refY="0"
       refX="0"
       id="Arrow1Lend"
       style="overflow:visible"
       inkscape:isstock="true">
      <path
         id="path4230"
         d="M 0,0 5,-5 -12.5,0 5,5 0,0 Z"
         style="fill:#000000;fill-opacity:1;fill-rule:evenodd;stroke:#000000;stroke-width:1pt;stroke-opacity:1"
         transform="matrix(-0.8,0,0,-0.8,-10,0)"
         inkscape:connector-curvature="0" />
    </marker>
    <marker
       inkscape:stockid="Arrow1Lstart"
       orient="auto"
       refY="0"
       refX="0"
       id="Arrow1Lstart"
       style="overflow:visible"
       inkscape:isstock="true">
      <path
         id="path4227"
         d="M 0,0 5,-5 -12.5,0 5,5 0,0 Z"
         style="fill:#000000;fill-opacity:1;fill-rule:evenodd;stroke:#000000;stroke-width:1pt;stroke-opacity:1"
         transform="matrix(0.8,0,0,0.8,10,0)"
         inkscape:connector-curvature="0" />
    </marker>
  </defs>
  <sodipodi:namedview
     id="base"
     pagecolor="#ffffff"
     bordercolor="#666666"
     borderopacity="1.0"
     inkscape:pageopacity="0.0"
     inkscape:pageshadow="2"
     inkscape:zoom="1.979899"
     inkscape:cx="247.72279"
     inkscape:cy="178.76776"
     inkscape:document-units="px"
     inkscape:current-layer="layer1"
     showgrid="true"
     inkscape:window-width="959"
     inkscape:window-height="1027"
     inkscape:window-x="0"
     inkscape:window-y="0"
     inkscape:window-maximized="0"
     showguides="true"
     inkscape:guide-bbox="true"
     fit-margin-top="0"
     fit-margin-left="0"
     fit-margin-right="0"
     fit-margin-bottom="0">
    <inkscape:grid
       type="xygrid"
       id="grid6659"
       originx="-337.15121"
       originy="-451.96148" />
  </sodipodi:namedview>
  <metadata
     id="metadata6116">
    <rdf:RDF>
      <cc:Work
         rdf:about="">
        <dc:format>image/svg+xml</dc:format>
        <dc:type
           rdf:resource="http://purl.org/dc/dcmitype/StillImage" />
        <dc:title></dc:title>
      </cc:Work>
    </rdf:RDF>
  </metadata>
  <g
     inkscape:label="Layer 1"
     inkscape:groupmode="layer"
     id="layer1"
     transform="translate(-337.15123,-257.20451)">
    <path
       style="fill:none;fill-rule:evenodd;stroke:#000000;stroke-width:1.1520251;stroke-linecap:butt;stroke-linejoin:miter;stroke-miterlimit:4;stroke-dasharray:none;stroke-opacity:1;marker-start:url(#Arrow1Lstart);marker-end:url(#Arrow1Lend)"
       d="m 367.56392,259.30123 0,317.82212 596.08819,0"
       id="path6663"
       inkscape:connector-curvature="0"
       sodipodi:nodetypes="ccc" />
    <path
       style="fill:none;fill-rule:evenodd;stroke:#000000;stroke-width:1.16743529;stroke-linecap:butt;stroke-linejoin:miter;stroke-miterlimit:4;stroke-dasharray:none;stroke-opacity:1"
       d="m 374.43302,534.0927 -7.38556,0"
       id="path6721"
       inkscape:connector-curvature="0" />
    <path
       style="fill:none;fill-rule:evenodd;stroke:#000000;stroke-width:1.16743529;stroke-linecap:butt;stroke-linejoin:miter;stroke-miterlimit:4;stroke-dasharray:none;stroke-opacity:1"
       d="m 374.43302,494.42839 -7.38556,0"
       id="path6723"
       inkscape:connector-curvature="0" />
    <path
       style="fill:none;fill-rule:evenodd;stroke:#000000;stroke-width:1.16743529;stroke-linecap:butt;stroke-linejoin:miter;stroke-miterlimit:4;stroke-dasharray:none;stroke-opacity:1"
       d="m 374.43302,454.76407 -7.38556,0"
       id="path6725"
       inkscape:connector-curvature="0" />
    <path
       style="fill:none;fill-rule:evenodd;stroke:#000000;stroke-width:1.16743529;stroke-linecap:butt;stroke-linejoin:miter;stroke-miterlimit:4;stroke-dasharray:none;stroke-opacity:1"
       d="m 374.43302,415.09973 -7.38556,0"
       id="path6727"
       inkscape:connector-curvature="0" />
    <path
       style="fill:none;fill-rule:evenodd;stroke:#000000;stroke-width:1.16743529;stroke-linecap:butt;stroke-linejoin:miter;stroke-miterlimit:4;stroke-dasharray:none;stroke-opacity:1"
       d="m 374.43302,375.4354 -7.38556,0"
       id="path6729"
       inkscape:connector-curvature="0" />
    <path
       style="fill:none;fill-rule:evenodd;stroke:#000000;stroke-width:1.16743529;stroke-linecap:butt;stroke-linejoin:miter;stroke-miterlimit:4;stroke-dasharray:none;stroke-opacity:1"
       d="m 374.43302,335.77107 -7.38556,0"
       id="path6731"
       inkscape:connector-curvature="0" />
    <path
       style="fill:none;fill-rule:evenodd;stroke:#000000;stroke-width:1.16743529;stroke-linecap:butt;stroke-linejoin:miter;stroke-miterlimit:4;stroke-dasharray:none;stroke-opacity:1"
       d="m 374.43302,296.10674 -7.38556,0"
       id="path6733"
       inkscape:connector-curvature="0" />
    <path
       style="fill:none;fill-rule:evenodd;stroke:#000000;stroke-width:1;stroke-linecap:butt;stroke-linejoin:miter;stroke-miterlimit:4;stroke-dasharray:none;stroke-opacity:1"
       d="m 512.56135,573.16436 0,7.20182"
       id="path6735"
       inkscape:connector-curvature="0" />
    <path
       style="fill:none;fill-rule:evenodd;stroke:#000000;stroke-width:1;stroke-linecap:butt;stroke-linejoin:miter;stroke-miterlimit:4;stroke-dasharray:none;stroke-opacity:1"
       d="m 658.07525,573.16436 0,7.20182"
       id="path6737"
       inkscape:connector-curvature="0" />
    <path
       style="fill:none;fill-rule:evenodd;stroke:#000000;stroke-width:1;stroke-linecap:butt;stroke-linejoin:miter;stroke-miterlimit:4;stroke-dasharray:none;stroke-opacity:1"
       d="m 803.58915,573.16436 0,7.20182"
       id="path7195"
       inkscape:connector-curvature="0" />
    <path
       style="fill:none;fill-rule:evenodd;stroke:#000000;stroke-width:1.1520251;stroke-linecap:butt;stroke-linejoin:miter;stroke-miterlimit:4;stroke-dasharray:none;stroke-opacity:1"
       d="m 409.26597,538.91058 c -4.88887,2.49012 2.4478,6.59759 1.23059,7.92699 -4.34571,4.74628 0.41737,4.47166 -0.24157,7.06146 1.91236,6.11545 6.70988,4.296 8.10228,6.60886 -1.02313,5.4884 11.11609,2.80256 18.18869,3.26322 7.04835,-1.59121 17.4466,-8.59142 18.1887,0 4.62269,0.13731 8.06187,6.64481 14.55095,-3.26322 2.65227,-4.23562 1.95466,-11.77676 10.91321,-9.78968 3.09046,-1.05245 4.69684,-2.99243 3.63775,-6.52645 -0.9996,-5.28927 -10.09164,-9.36864 0,-16.31613 0.0125,-4.14759 -0.71425,-7.45529 -10.91322,0 -4.77125,0.85121 -9.15647,5.85776 -14.55096,0 1.08304,-6.95127 -2.99295,-7.49468 -10.91321,-3.26323 -4.0254,5.27374 -7.46253,11.12796 -18.18869,9.78967 -7.84072,-3.23164 -17.12059,-7.56986 -10.91322,0 0.7105,2.14515 3.10195,1.81218 -9.0913,4.50851 z"
       id="path7205"
       inkscape:connector-curvature="0"
       sodipodi:nodetypes="cscccccccccccccc" />
    <text
       xml:space="preserve"
       style="font-style:normal;font-weight:normal;font-size:9.0946188px;line-height:125%;font-family:sans-serif;letter-spacing:0px;word-spacing:0px;fill:#000000;fill-opacity:1;stroke:none;stroke-width:1;stroke-linecap:butt;stroke-linejoin:miter;stroke-miterlimit:4;stroke-dasharray:none;stroke-opacity:1"
       x="415.14465"
       y="552.98389"
       id="text7207"
       sodipodi:linespacing="125%"><tspan
         sodipodi:role="line"
         id="tspan7209"
         x="415.14465"
         y="552.98389">$\text{Ионосфера}$</tspan></text>
    <text
       xml:space="preserve"
       style="font-style:normal;font-weight:normal;font-size:9.0946188px;line-height:125%;font-family:sans-serif;letter-spacing:0px;word-spacing:0px;fill:#000000;fill-opacity:1;stroke:none;stroke-width:1;stroke-linecap:butt;stroke-linejoin:miter;stroke-miterlimit:4;stroke-dasharray:none;stroke-opacity:1"
       x="367.47101"
       y="595.27972"
       id="text7230"
       sodipodi:linespacing="125%"><tspan
         sodipodi:role="line"
         id="tspan7232"
         x="367.47101"
         y="595.27972">$1$</tspan></text>
    <text
       xml:space="preserve"
       style="font-style:normal;font-weight:normal;font-size:9.0946188px;line-height:125%;font-family:sans-serif;letter-spacing:0px;word-spacing:0px;fill:#000000;fill-opacity:1;stroke:none;stroke-width:1;stroke-linecap:butt;stroke-linejoin:miter;stroke-miterlimit:4;stroke-dasharray:none;stroke-opacity:1"
       x="496.78064"
       y="598.91754"
       id="text7234"
       sodipodi:linespacing="125%"><tspan
         sodipodi:role="line"
         id="tspan7236"
         x="496.78064"
         y="598.91754">$10^{10}$</tspan></text>
    <text
       xml:space="preserve"
       style="font-style:normal;font-weight:normal;font-size:9.0946188px;line-height:125%;font-family:sans-serif;letter-spacing:0px;word-spacing:0px;fill:#000000;fill-opacity:1;stroke:none;stroke-width:1;stroke-linecap:butt;stroke-linejoin:miter;stroke-miterlimit:4;stroke-dasharray:none;stroke-opacity:1"
       x="647.11542"
       y="598.91754"
       id="text7234-4"
       sodipodi:linespacing="125%"><tspan
         sodipodi:role="line"
         id="tspan7236-7"
         x="647.11542"
         y="598.91754">$10^{20}$</tspan></text>
    <text
       xml:space="preserve"
       style="font-style:normal;font-weight:normal;font-size:9.0946188px;line-height:125%;font-family:sans-serif;letter-spacing:0px;word-spacing:0px;fill:#000000;fill-opacity:1;stroke:none;stroke-width:1;stroke-linecap:butt;stroke-linejoin:miter;stroke-miterlimit:4;stroke-dasharray:none;stroke-opacity:1"
       x="792.31134"
       y="598.91754"
       id="text7234-8"
       sodipodi:linespacing="125%"><tspan
         sodipodi:role="line"
         id="tspan7236-4"
         x="792.31134"
         y="598.91754">$10^{30}$</tspan></text>
    <text
       xml:space="preserve"
       style="font-style:normal;font-weight:normal;font-size:10.61737919px;line-height:125%;font-family:sans-serif;letter-spacing:0px;word-spacing:0px;fill:#000000;fill-opacity:1;stroke:none;stroke-width:1;stroke-linecap:butt;stroke-linejoin:miter;stroke-miterlimit:4;stroke-dasharray:none;stroke-opacity:1"
       x="388.58389"
       y="494.1781"
       id="text7234-5"
       sodipodi:linespacing="125%"
       transform="scale(0.85657852,1.1674353)"><tspan
         sodipodi:role="line"
         id="tspan7236-0"
         x="388.58389"
         y="494.1781">$10^{-2}$</tspan></text>
    <text
       xml:space="preserve"
       style="font-style:normal;font-weight:normal;font-size:10.61737919px;line-height:125%;font-family:sans-serif;letter-spacing:0px;word-spacing:0px;fill:#000000;fill-opacity:1;stroke:none;stroke-width:1;stroke-linecap:butt;stroke-linejoin:miter;stroke-miterlimit:4;stroke-dasharray:none;stroke-opacity:1"
       x="388.71478"
       y="460.6969"
       id="text7234-1"
       sodipodi:linespacing="125%"
       transform="scale(0.85657852,1.1674353)"><tspan
         sodipodi:role="line"
         id="tspan7236-06"
         x="388.71478"
         y="460.6969">$10^{-1}$</tspan></text>
    <text
       xml:space="preserve"
       style="font-style:normal;font-weight:normal;font-size:10.61737919px;line-height:125%;font-family:sans-serif;letter-spacing:0px;word-spacing:0px;fill:#000000;fill-opacity:1;stroke:none;stroke-width:1;stroke-linecap:butt;stroke-linejoin:miter;stroke-miterlimit:4;stroke-dasharray:none;stroke-opacity:1"
       x="388.05118"
       y="394.07407"
       id="text7234-0"
       sodipodi:linespacing="125%"
       transform="scale(0.85657852,1.1674353)"><tspan
         sodipodi:role="line"
         id="tspan7236-6"
         x="388.05118"
         y="394.07407">$10$</tspan></text>
    <text
       xml:space="preserve"
       style="font-style:normal;font-weight:normal;font-size:10.61737919px;line-height:125%;font-family:sans-serif;letter-spacing:0px;word-spacing:0px;fill:#000000;fill-opacity:1;stroke:none;stroke-width:1;stroke-linecap:butt;stroke-linejoin:miter;stroke-miterlimit:4;stroke-dasharray:none;stroke-opacity:1"
       x="389.00079"
       y="358.90103"
       id="text7234-15"
       sodipodi:linespacing="125%"
       transform="scale(0.85657852,1.1674353)"><tspan
         sodipodi:role="line"
         id="tspan7236-5"
         x="389.00079"
         y="358.90103">$10^{2}$</tspan></text>
    <text
       xml:space="preserve"
       style="font-style:normal;font-weight:normal;font-size:10.61737919px;line-height:125%;font-family:sans-serif;letter-spacing:0px;word-spacing:0px;fill:#000000;fill-opacity:1;stroke:none;stroke-width:1;stroke-linecap:butt;stroke-linejoin:miter;stroke-miterlimit:4;stroke-dasharray:none;stroke-opacity:1"
       x="396.14868"
       y="428.38904"
       id="text7234-47"
       sodipodi:linespacing="125%"
       transform="scale(0.85657852,1.1674353)"><tspan
         sodipodi:role="line"
         id="tspan7236-65"
         x="396.14868"
         y="428.38904">$1$</tspan></text>
    <text
       xml:space="preserve"
       style="font-style:normal;font-weight:normal;font-size:10.61737919px;line-height:125%;font-family:sans-serif;letter-spacing:0px;word-spacing:0px;fill:#000000;fill-opacity:1;stroke:none;stroke-width:1;stroke-linecap:butt;stroke-linejoin:miter;stroke-miterlimit:4;stroke-dasharray:none;stroke-opacity:1"
       x="388.8457"
       y="325.00293"
       id="text7234-6"
       sodipodi:linespacing="125%"
       transform="scale(0.85657852,1.1674353)"><tspan
         sodipodi:role="line"
         id="tspan7236-9"
         x="388.8457"
         y="325.00293">$10^{3}$</tspan></text>
    <text
       xml:space="preserve"
       style="font-style:normal;font-weight:normal;font-size:10.61737919px;line-height:125%;font-family:sans-serif;letter-spacing:0px;word-spacing:0px;fill:#000000;fill-opacity:1;stroke:none;stroke-width:1;stroke-linecap:butt;stroke-linejoin:miter;stroke-miterlimit:4;stroke-dasharray:none;stroke-opacity:1"
       x="389.13168"
       y="290.74133"
       id="text7234-3"
       sodipodi:linespacing="125%"
       transform="scale(0.85657852,1.1674353)"><tspan
         sodipodi:role="line"
         id="tspan7236-74"
         x="389.13168"
         y="290.74133">$10^{4}$</tspan></text>
    <text
       xml:space="preserve"
       style="font-style:normal;font-weight:normal;font-size:10.61737919px;line-height:125%;font-family:sans-serif;letter-spacing:0px;word-spacing:0px;fill:#000000;fill-opacity:1;stroke:none;stroke-width:1;stroke-linecap:butt;stroke-linejoin:miter;stroke-miterlimit:4;stroke-dasharray:none;stroke-opacity:1"
       x="389.48831"
       y="257.00864"
       id="text7234-52"
       sodipodi:linespacing="125%"
       transform="scale(0.85657852,1.1674353)"><tspan
         sodipodi:role="line"
         id="tspan7236-54"
         x="389.48831"
         y="257.00864">$10^{5}$</tspan></text>
    <path
       style="fill:none;fill-rule:evenodd;stroke:#000000;stroke-width:1.1520251;stroke-linecap:butt;stroke-linejoin:miter;stroke-miterlimit:4;stroke-dasharray:none;stroke-opacity:1"
       d="m 452.88623,522.09061 c -3.2676,-1.11995 -5.33611,-3.46832 -5.42886,-7.84077 -0.0121,-5.17828 1.1981,-8.40298 3.63153,-9.67284 6.97663,0.16998 8.92948,-4.75765 10.89456,-9.67286 3.74359,-8.33163 7.92893,-15.37772 18.1576,-4.83642 2.92499,7.56454 9.39936,7.09315 14.52608,9.67285 9.515,-0.20871 14.19329,-2.37787 18.1576,-4.83643 5.51471,-5.25476 5.00438,2.86396 7.26305,4.83643 3.13476,7.55059 7.26285,13.46118 10.89457,14.50927 10.4034,0.38916 -5.37265,13.54097 -10.89457,14.50927 -5.30441,5.119 -0.17014,9.68192 0,14.50926 -2.613,6.63594 -8.88301,5.02967 -14.52608,4.83643 -5.95344,-9.12523 -12.67623,-13.83681 -21.78912,-4.83643"
       id="path7344"
       inkscape:connector-curvature="0"
       sodipodi:nodetypes="ccccccccccccc" />
    <text
       xml:space="preserve"
       style="font-style:normal;font-weight:normal;font-size:9.0946188px;line-height:125%;font-family:sans-serif;letter-spacing:0px;word-spacing:0px;fill:#000000;fill-opacity:1;stroke:none;stroke-width:1;stroke-linecap:butt;stroke-linejoin:miter;stroke-miterlimit:4;stroke-dasharray:none;stroke-opacity:1"
       x="460.01633"
       y="516.18451"
       id="text7346"
       sodipodi:linespacing="125%"><tspan
         sodipodi:role="line"
         id="tspan7348"
         x="460.01633"
         y="516.18451">$\text{Пламёна}$</tspan></text>
    <path
       style="fill:none;fill-rule:evenodd;stroke:#000000;stroke-width:1.1520251;stroke-linecap:butt;stroke-linejoin:miter;stroke-miterlimit:4;stroke-dasharray:none;stroke-opacity:1"
       d="m 541.87692,432.03064 c 8.91328,16.79259 -8.72517,1.17063 -14.52608,0 -4.68866,-3.02002 -5.02871,-0.24861 -7.26305,0 -10.82089,6.44856 -5.11254,12.89712 -7.26305,19.3457 -9.05345,9.12795 -6.41357,14.79524 0,19.34568 5.55582,1.83265 6.84059,5.56136 7.26305,9.67285 1.82758,15.57693 8.34539,11.93413 14.52608,9.67285 7.54047,-9.67431 28.94873,-11.80308 21.78913,0 -3.27345,23.72244 8.8802,8.47896 14.52609,9.67285 16.3706,6.61819 19.3705,-6.44502 29.05216,-9.67285 6.2217,-4.43643 12.73812,-6.9525 14.52608,0 16.26899,29.23544 15.3492,2.67204 21.78913,0 3.53402,0.33325 5.42119,-4.59738 7.26304,-9.67285 7.55189,-11.76817 0.095,-19.37207 0,-29.01853 3.04239,-15.43671 -4.79934,-12.96736 -7.26304,-19.3457 -4.09158,-14.02497 -13.37314,-22.18734 -21.78913,-9.67285 -7.26304,6.86508 -14.52608,0.0505 -21.78913,0 -10.36704,-8.63657 -21.44225,0.65994 -21.78911,9.67285 1.5056,8.89094 -2.76867,19.85014 -7.26305,9.67284 -0.28226,-10.6366 -4.23064,-17.90595 -14.52608,-19.34569 -7.78114,0.62844 -6.71955,5.53932 -7.26304,9.67285 z"
       id="path7358"
       inkscape:connector-curvature="0"
       sodipodi:nodetypes="ccccccccccccccccccccc" />
    <text
       xml:space="preserve"
       style="font-style:normal;font-weight:normal;font-size:9.0946188px;line-height:125%;font-family:sans-serif;letter-spacing:0px;word-spacing:0px;fill:#000000;fill-opacity:1;stroke:none;stroke-width:1;stroke-linecap:butt;stroke-linejoin:miter;stroke-miterlimit:4;stroke-dasharray:none;stroke-opacity:1"
       x="576.02228"
       y="444.48871"
       id="text7360"
       sodipodi:linespacing="125%"><tspan
         sodipodi:role="line"
         id="tspan7362"
         x="576.02228"
         y="444.48871">$\text{Плазма}$</tspan></text>
    <text
       xml:space="preserve"
       style="font-style:normal;font-weight:normal;font-size:9.0946188px;line-height:125%;font-family:sans-serif;letter-spacing:0px;word-spacing:0px;fill:#000000;fill-opacity:1;stroke:none;stroke-width:1;stroke-linecap:butt;stroke-linejoin:miter;stroke-miterlimit:4;stroke-dasharray:none;stroke-opacity:1"
       x="523.7818"
       y="458.13947"
       id="text7364"
       sodipodi:linespacing="125%"><tspan
         sodipodi:role="line"
         id="tspan7366"
         x="523.7818"
         y="458.13947">$\text{в лабораторных }$</tspan></text>
    <text
       xml:space="preserve"
       style="font-style:normal;font-weight:normal;font-size:9.0946188px;line-height:125%;font-family:sans-serif;letter-spacing:0px;word-spacing:0px;fill:#000000;fill-opacity:1;stroke:none;stroke-width:1;stroke-linecap:butt;stroke-linejoin:miter;stroke-miterlimit:4;stroke-dasharray:none;stroke-opacity:1"
       x="559.34833"
       y="471.97391"
       id="text7368"
       sodipodi:linespacing="125%"><tspan
         sodipodi:role="line"
         id="tspan7370"
         x="559.34833"
         y="471.97391">$\text{условиях}$</tspan></text>
    <path
       style="fill:none;fill-rule:evenodd;stroke:#000000;stroke-width:1.1520251;stroke-linecap:butt;stroke-linejoin:miter;stroke-miterlimit:4;stroke-dasharray:none;stroke-opacity:1"
       d="m 549.13996,422.35779 c -7.86306,1.75706 -11.76115,-3.02368 -14.52609,-9.67286 0.005,-6.72389 -2.3352,-9.80616 -3.63151,-14.50925 -7.01309,-20.07856 -4.07238,-33.99378 3.63151,-29.01855 11.85911,9.52462 2.74001,-15.59461 3.63153,-24.18212 -0.5546,-0.26644 -4.19285,-21.09138 10.89456,0 8.84892,5.70722 5.035,-7.04756 21.78913,-4.83643 7.73515,-19.0775 12.61224,-14.4571 18.15761,-4.83641 7.26302,10.93905 14.52607,9.71194 21.78911,14.50926 13.14455,6.66995 18.67841,1.60037 22.69701,-7.08189 23.81794,-2.75966 33.46684,21.87733 20.88124,26.42759 -8.3773,6.68345 1.40822,28.09308 -10.89456,33.85496 -10.93894,8.91768 0,16.12142 0,24.18212 -1.78856,7.71476 -6.85666,-1.16763 -10.89456,-4.83642"
       id="path7372"
       inkscape:connector-curvature="0"
       sodipodi:nodetypes="cccccccccccccc" />
    <text
       xml:space="preserve"
       style="font-style:normal;font-weight:normal;font-size:9.0946188px;line-height:125%;font-family:sans-serif;letter-spacing:0px;word-spacing:0px;fill:#000000;fill-opacity:1;stroke:none;stroke-width:1;stroke-linecap:butt;stroke-linejoin:miter;stroke-miterlimit:4;stroke-dasharray:none;stroke-opacity:1"
       x="543.2868"
       y="374.36594"
       id="text7378"
       sodipodi:linespacing="125%"><tspan
         sodipodi:role="line"
         id="tspan7380"
         x="543.2868"
         y="374.36594">$\text{Эксперименты по}$</tspan></text>
    <text
       xml:space="preserve"
       style="font-style:normal;font-weight:normal;font-size:9.0946188px;line-height:125%;font-family:sans-serif;letter-spacing:0px;word-spacing:0px;fill:#000000;fill-opacity:1;stroke:none;stroke-width:1;stroke-linecap:butt;stroke-linejoin:miter;stroke-miterlimit:4;stroke-dasharray:none;stroke-opacity:1"
       x="541.56757"
       y="387.27948"
       id="text7382"
       sodipodi:linespacing="125%"><tspan
         sodipodi:role="line"
         id="tspan7384"
         x="541.56757"
         y="387.27948">$\text{управляемому}$</tspan></text>
    <text
       xml:space="preserve"
       style="font-style:normal;font-weight:normal;font-size:9.0946188px;line-height:125%;font-family:sans-serif;letter-spacing:0px;word-spacing:0px;fill:#000000;fill-opacity:1;stroke:none;stroke-width:1;stroke-linecap:butt;stroke-linejoin:miter;stroke-miterlimit:4;stroke-dasharray:none;stroke-opacity:1"
       x="541.46606"
       y="399.58563"
       id="text7386"
       sodipodi:linespacing="125%"><tspan
         sodipodi:role="line"
         id="tspan7388"
         x="541.46606"
         y="399.58563">$\text{термоядерному }$</tspan></text>
    <text
       xml:space="preserve"
       style="font-style:normal;font-weight:normal;font-size:9.0946188px;line-height:125%;font-family:sans-serif;letter-spacing:0px;word-spacing:0px;fill:#000000;fill-opacity:1;stroke:none;stroke-width:1;stroke-linecap:butt;stroke-linejoin:miter;stroke-miterlimit:4;stroke-dasharray:none;stroke-opacity:1"
       x="543.20538"
       y="412.49918"
       id="text7390"
       sodipodi:linespacing="125%"><tspan
         sodipodi:role="line"
         id="tspan7392"
         x="543.20538"
         y="412.49918">$\text{синтезу}$</tspan></text>
    <path
       style="fill:none;fill-rule:evenodd;stroke:#000000;stroke-width:1.1520251;stroke-linecap:butt;stroke-linejoin:miter;stroke-miterlimit:4;stroke-dasharray:none;stroke-opacity:1"
       d="m 570.92909,340.13858 c -5.34233,-1.56014 -8.47571,-5.59766 -7.26305,-14.50926 8.80951,-9.43506 12.11275,-19.12299 10.89456,-29.01855 -2.47694,-13.95084 6.1317,0.34188 10.89457,4.83643 17.19128,16.21276 21.78912,0 32.68368,0 23.59979,7.45658 29.18258,4.33915 32.68368,0 12.12793,-9.40215 14.5261,3.22428 21.78913,4.83642 l 18.1576,4.83642 c 16.41057,4.7082 -2.19929,16.07925 -3.63151,24.18213 2.89388,18.43584 -9.54616,9.91524 -14.52609,14.50926 -5.44362,9.61451 -9.70249,0.29488 -14.52608,0 -3.08255,-2.80481 -3.22021,-1.19741 -3.63152,0"
       id="path7394"
       inkscape:connector-curvature="0"
       sodipodi:nodetypes="cccccccccccc" />
    <text
       xml:space="preserve"
       style="font-style:normal;font-weight:normal;font-size:9.0946188px;line-height:125%;font-family:sans-serif;letter-spacing:0px;word-spacing:0px;fill:#000000;fill-opacity:1;stroke:none;stroke-width:1;stroke-linecap:butt;stroke-linejoin:miter;stroke-miterlimit:4;stroke-dasharray:none;stroke-opacity:1"
       x="570.69507"
       y="319.16809"
       id="text7396"
       sodipodi:linespacing="125%"><tspan
         sodipodi:role="line"
         id="tspan7398"
         x="570.69507"
         y="319.16809">$\text{Термоядерный}$</tspan></text>
    <text
       xml:space="preserve"
       style="font-style:normal;font-weight:normal;font-size:9.0946188px;line-height:125%;font-family:sans-serif;letter-spacing:0px;word-spacing:0px;fill:#000000;fill-opacity:1;stroke:none;stroke-width:1;stroke-linecap:butt;stroke-linejoin:miter;stroke-miterlimit:4;stroke-dasharray:none;stroke-opacity:1"
       x="590.71991"
       y="331.38086"
       id="text7400"
       sodipodi:linespacing="125%"><tspan
         sodipodi:role="line"
         id="tspan7402"
         x="590.71991"
         y="331.38086">$\text{реактор}$</tspan></text>
    <path
       style="fill:none;fill-rule:evenodd;stroke:#000000;stroke-width:1.1520251;stroke-linecap:butt;stroke-linejoin:miter;stroke-miterlimit:4;stroke-dasharray:none;stroke-opacity:1"
       d="m 668.98015,577.12335 c -3.29564,-1.14158 -4.2452,-4.62648 -3.63152,-9.67285 5.08669,-5.92441 -1.74786,-12.8411 -3.63153,-19.3457 -4.08581,-17.72484 9.65383,-11.59102 15.76267,-16.35585 l 6.02646,-2.98984 c 8.47355,-11.97192 16.94709,3.22428 25.42064,4.83642 l 14.52609,4.83644 c 19.28829,9.49043 14.67463,0.11713 21.78912,0 4.67825,-1.02593 7.37486,0.26412 7.26304,4.8364 2.39875,11.13337 -7.2618,12.8981 -10.89456,19.34571 2.53518,10.33262 -4.05736,7.57396 -7.26305,9.67284 -0.58306,1.61215 -4.66713,3.22428 0,4.83643"
       id="path7406"
       inkscape:connector-curvature="0"
       sodipodi:nodetypes="cccccccccccc" />
    <text
       xml:space="preserve"
       style="font-style:normal;font-weight:normal;font-size:9.0946188px;line-height:125%;font-family:sans-serif;letter-spacing:0px;word-spacing:0px;fill:#000000;fill-opacity:1;stroke:none;stroke-width:1;stroke-linecap:butt;stroke-linejoin:miter;stroke-miterlimit:4;stroke-dasharray:none;stroke-opacity:1"
       x="665.08099"
       y="550.80566"
       id="text7408"
       sodipodi:linespacing="125%"><tspan
         sodipodi:role="line"
         id="tspan7410"
         x="665.08099"
         y="550.80566">$\text{Плазма}$</tspan></text>
    <text
       xml:space="preserve"
       style="font-style:normal;font-weight:normal;font-size:9.0946188px;line-height:125%;font-family:sans-serif;letter-spacing:0px;word-spacing:0px;fill:#000000;fill-opacity:1;stroke:none;stroke-width:1;stroke-linecap:butt;stroke-linejoin:miter;stroke-miterlimit:4;stroke-dasharray:none;stroke-opacity:1"
       x="667.00262"
       y="564.828"
       id="text7412"
       sodipodi:linespacing="125%"><tspan
         sodipodi:role="line"
         id="tspan7414"
         x="667.00262"
         y="564.828">$\text{в тв. телах}$</tspan></text>
    <path
       style="fill:none;fill-rule:evenodd;stroke:#000000;stroke-width:1.1520251;stroke-linecap:butt;stroke-linejoin:miter;stroke-miterlimit:4;stroke-dasharray:none;stroke-opacity:1"
       d="m 487.42682,461.06065 c 0.1746,-7.56012 -9.79911,-26.81804 3.41036,-19.35306 4.60809,1.67228 15.63706,12.94415 13.88658,-2.8238 6.10988,-4.07629 15.68558,-15.18891 18.19876,-30.57208 -0.80717,-7.53828 -8.54029,-21.99632 -10.23113,-14.51477 2.05125,14.81193 -28.22361,-6.14866 -28.67495,4.36632 -1.11098,2.71233 0.63453,8.12632 -6.82075,4.83825 -6.5226,-0.55527 -12.25267,1.70033 -20.46227,-4.83825 -5.59197,-1.21191 -5.54864,2.37305 -6.82075,4.83825 -3.28916,6.50159 7.64815,18.93934 -10.23113,19.35305 -6.07123,-1.1971 -12.05225,11.71464 -3.41038,14.51477 6.59484,7.77878 28.48717,9.45782 20.46226,19.35306 2.36185,-1.39472 -1.4328,27.72171 10.23114,4.83826 3.36035,-10.93242 17.83273,13.31265 20.46226,0 z"
       id="path7416"
       inkscape:connector-curvature="0"
       sodipodi:nodetypes="cccccccccccccc" />
    <text
       xml:space="preserve"
       style="font-style:normal;font-weight:normal;font-size:9.0946188px;line-height:125%;font-family:sans-serif;letter-spacing:0px;word-spacing:0px;fill:#000000;fill-opacity:1;stroke:none;stroke-width:1;stroke-linecap:butt;stroke-linejoin:miter;stroke-miterlimit:4;stroke-dasharray:none;stroke-opacity:1"
       x="452.31155"
       y="421.12247"
       id="text7418"
       sodipodi:linespacing="125%"><tspan
         sodipodi:role="line"
         id="tspan7420"
         x="452.31155"
         y="421.12247">$\text{Солнечная}$</tspan></text>
    <text
       xml:space="preserve"
       style="font-style:normal;font-weight:normal;font-size:9.0946188px;line-height:125%;font-family:sans-serif;letter-spacing:0px;word-spacing:0px;fill:#000000;fill-opacity:1;stroke:none;stroke-width:1;stroke-linecap:butt;stroke-linejoin:miter;stroke-miterlimit:4;stroke-dasharray:none;stroke-opacity:1"
       x="452.00464"
       y="432.8959"
       id="text7422"
       sodipodi:linespacing="125%"><tspan
         sodipodi:role="line"
         id="tspan7424"
         x="452.00464"
         y="432.8959">$\text{корона}$</tspan></text>
    <path
       style="fill:none;fill-rule:evenodd;stroke:#000000;stroke-width:1.1520251;stroke-linecap:butt;stroke-linejoin:miter;stroke-miterlimit:4;stroke-dasharray:none;stroke-opacity:1"
       d="m 803.34642,373.99356 c -5.51756,-3.07331 -9.94636,4.00327 -14.5261,9.67284 -14.13821,19.44734 -16.96495,4.24628 -21.78911,-4.83642 -6.05253,-12.19521 -12.10508,-4.21571 -18.15761,-4.83642 -20.93987,1.71314 -11.0815,-14.34766 -3.63152,-29.01855 10.23301,-14.06874 -1.72274,-13.36211 -3.63152,-19.34569 -7.13025,-16.87949 9.03336,-9.63035 18.15761,-9.67285 12.33583,10.28751 19.40668,6.55133 29.05215,9.67285 41.93634,-6.50611 16.38084,2.25695 18.15762,4.83643 -3.46578,11.7974 2.40345,16.13542 3.63151,24.18211 5.7615,12.28096 0.76267,16.8921 -7.26303,19.3457 z"
       id="path7426"
       inkscape:connector-curvature="0"
       sodipodi:nodetypes="ccccccccccc" />
    <text
       xml:space="preserve"
       style="font-style:normal;font-weight:normal;font-size:9.0946188px;line-height:125%;font-family:sans-serif;letter-spacing:0px;word-spacing:0px;fill:#000000;fill-opacity:1;stroke:none;stroke-width:1;stroke-linecap:butt;stroke-linejoin:miter;stroke-miterlimit:4;stroke-dasharray:none;stroke-opacity:1"
       x="750.8653"
       y="348.27859"
       id="text7428"
       sodipodi:linespacing="125%"><tspan
         sodipodi:role="line"
         id="tspan7430"
         x="750.8653"
         y="348.27859">$\text{Ядра}$</tspan></text>
    <text
       xml:space="preserve"
       style="font-style:normal;font-weight:normal;font-size:9.0946188px;line-height:125%;font-family:sans-serif;letter-spacing:0px;word-spacing:0px;fill:#000000;fill-opacity:1;stroke:none;stroke-width:1;stroke-linecap:butt;stroke-linejoin:miter;stroke-miterlimit:4;stroke-dasharray:none;stroke-opacity:1"
       x="751.05994"
       y="363.49625"
       id="text7432"
       sodipodi:linespacing="125%"><tspan
         sodipodi:role="line"
         id="tspan7434"
         x="751.05994"
         y="363.49625">$\text{звезд}$</tspan></text>
    <path
       style="fill:none;fill-rule:evenodd;stroke:#000000;stroke-width:1.1520251;stroke-linecap:butt;stroke-linejoin:miter;stroke-miterlimit:4;stroke-dasharray:none;stroke-opacity:1"
       d="m 828.76705,325.62932 3.63152,-4.83642 c 10.40891,-13.2612 14.46607,-7.18709 18.15761,0 14.50106,11.25165 14.71652,3.4779 18.15761,0 -3.88201,-16.92098 28.89913,-2.22142 21.78912,9.67285 3.90653,26.38275 9.68057,12.97137 14.52609,19.34568 15.83157,13.10072 22.10937,44.25914 -3.63152,33.85497 -8.01829,-3.12088 -14.27807,-2.72881 -14.5261,9.67285 0.56537,21.15273 -9.27827,9.03525 -18.15759,0 -9.10083,-11.84931 -14.53711,3.14356 -21.78913,4.83643 -13.91878,17.61629 -31.8236,1.93242 -21.78911,-4.83643 6.35675,-12.03037 -1.42611,-12.47242 -7.26305,-14.50927 -2.23561,-4.94536 -1.93627,-8.62469 3.63152,-9.67285 15.38572,2.75975 11.30516,-9.7305 10.89455,-19.3457 l -3.63152,-9.67285 c -0.4028,-4.6576 -2.2624,-8.66849 0,-14.50926 z"
       id="path7436"
       inkscape:connector-curvature="0"
       sodipodi:nodetypes="cccccccccccccccc" />
    <text
       xml:space="preserve"
       style="font-style:normal;font-weight:normal;font-size:9.0946188px;line-height:125%;font-family:sans-serif;letter-spacing:0px;word-spacing:0px;fill:#000000;fill-opacity:1;stroke:none;stroke-width:1;stroke-linecap:butt;stroke-linejoin:miter;stroke-miterlimit:4;stroke-dasharray:none;stroke-opacity:1"
       x="836.94757"
       y="350.62088"
       id="text7438"
       sodipodi:linespacing="125%"><tspan
         sodipodi:role="line"
         id="tspan7440"
         x="836.94757"
         y="350.62088">$\text{Белые}$</tspan></text>
    <text
       xml:space="preserve"
       style="font-style:normal;font-weight:normal;font-size:9.0946188px;line-height:125%;font-family:sans-serif;letter-spacing:0px;word-spacing:0px;fill:#000000;fill-opacity:1;stroke:none;stroke-width:1;stroke-linecap:butt;stroke-linejoin:miter;stroke-miterlimit:4;stroke-dasharray:none;stroke-opacity:1"
       x="837.19257"
       y="368.81012"
       id="text7442"
       sodipodi:linespacing="125%"><tspan
         sodipodi:role="line"
         id="tspan7444"
         x="837.19257"
         y="368.81012">$\text{карлики}$</tspan></text>
    <text
       xml:space="preserve"
       style="font-style:normal;font-weight:normal;font-size:9.0946188px;line-height:125%;font-family:sans-serif;letter-spacing:0px;word-spacing:0px;fill:#000000;fill-opacity:1;stroke:none;stroke-width:1;stroke-linecap:butt;stroke-linejoin:miter;stroke-miterlimit:4;stroke-dasharray:none;stroke-opacity:1"
       x="924.65479"
       y="564.8316"
       id="text7722"
       sodipodi:linespacing="125%"><tspan
         sodipodi:role="line"
         id="tspan7724"
         x="924.65479"
         y="564.8316">$n,~\text{см}^{-3}$</tspan></text>
    <text
       xml:space="preserve"
       style="font-style:normal;font-weight:normal;font-size:9.0946188px;line-height:125%;font-family:sans-serif;letter-spacing:0px;word-spacing:0px;fill:#000000;fill-opacity:1;stroke:none;stroke-width:1;stroke-linecap:butt;stroke-linejoin:miter;stroke-miterlimit:4;stroke-dasharray:none;stroke-opacity:1"
       x="381.34631"
       y="278.21878"
       id="text7726"
       sodipodi:linespacing="125%"><tspan
         sodipodi:role="line"
         id="tspan7728"
         x="381.34631"
         y="278.21878">$T,~\text{эВ}$</tspan></text>
  </g>
</svg>
