<?xml version="1.0" encoding="UTF-8" standalone="no"?>
<!-- Created with Inkscape (http://www.inkscape.org/) -->

<svg
   xmlns:dc="http://purl.org/dc/elements/1.1/"
   xmlns:cc="http://creativecommons.org/ns#"
   xmlns:rdf="http://www.w3.org/1999/02/22-rdf-syntax-ns#"
   xmlns:svg="http://www.w3.org/2000/svg"
   xmlns="http://www.w3.org/2000/svg"
   xmlns:sodipodi="http://sodipodi.sourceforge.net/DTD/sodipodi-0.dtd"
   xmlns:inkscape="http://www.inkscape.org/namespaces/inkscape"
   sodipodi:docname="10.svg"
   inkscape:version="0.91 r13725"
   id="svg12340"
   version="1.1"
   viewBox="0 0 78.270297 59.240706"
   height="5.9240708cm"
   width="7.8270297cm">
  <sodipodi:namedview
     inkscape:window-maximized="1"
     inkscape:window-y="-9"
     inkscape:window-x="-9"
     inkscape:window-height="1003"
     inkscape:window-width="1920"
     units="cm"
     showgrid="true"
     inkscape:current-layer="layer5"
     inkscape:document-units="mm"
     inkscape:cy="118.29079"
     inkscape:cx="128.4236"
     inkscape:zoom="3.52"
     inkscape:pageshadow="2"
     inkscape:pageopacity="0.0"
     borderopacity="1.0"
     bordercolor="#666666"
     pagecolor="#ffffff"
     id="base"
     inkscape:snap-text-baseline="true"
     fit-margin-top="0"
     fit-margin-left="0"
     fit-margin-right="0"
     fit-margin-bottom="0">
    <inkscape:grid
       id="grid12885"
       type="xygrid"
       units="mm"
       spacingx="0.99999999"
       spacingy="0.99999999"
       originx="5.1789011"
       originy="-1.7850119" />
  </sodipodi:namedview>
  <defs
     id="defs12334" />
  <metadata
     id="metadata12337">
    <rdf:RDF>
      <cc:Work
         rdf:about="">
        <dc:format>image/svg+xml</dc:format>
        <dc:type
           rdf:resource="http://purl.org/dc/dcmitype/StillImage" />
        <dc:title></dc:title>
      </cc:Work>
    </rdf:RDF>
  </metadata>
  <g
     transform="translate(5.178901,-235.9743)"
     id="layer1"
     inkscape:groupmode="layer"
     inkscape:label="Layer 1">
    <path
       inkscape:connector-curvature="0"
       id="path11421"
       d="m 69.999996,237.00002 -59.999997,0"
       style="fill:none;stroke:#000000;stroke-width:0.17638887;stroke-linecap:round;stroke-linejoin:miter;stroke-miterlimit:4;stroke-dasharray:none;stroke-opacity:1" />
    <path
       inkscape:connector-curvature="0"
       id="path11423"
       d="m 10,237.00002 0,50"
       style="fill:none;stroke:#000000;stroke-width:0.17638887;stroke-linecap:round;stroke-linejoin:miter;stroke-miterlimit:4;stroke-dasharray:none;stroke-opacity:1" />
    <path
       inkscape:connector-curvature="0"
       id="path11425"
       d="m 10.000001,287.00002 60,0"
       style="fill:none;stroke:#000000;stroke-width:0.17638887;stroke-linecap:round;stroke-linejoin:miter;stroke-miterlimit:4;stroke-dasharray:none;stroke-opacity:1" />
    <path
       inkscape:connector-curvature="0"
       id="path11427"
       d="m 69.999998,237.00002 0,50"
       style="fill:none;stroke:#000000;stroke-width:0.17638887;stroke-linecap:round;stroke-linejoin:miter;stroke-miterlimit:4;stroke-dasharray:none;stroke-opacity:1" />
    <path
       inkscape:connector-curvature="0"
       id="path11429"
       d="m 25,237.00002 0,50"
       style="fill:none;stroke:#000000;stroke-width:0.176;stroke-linecap:round;stroke-linejoin:miter;stroke-miterlimit:4;stroke-dasharray:0.176, 0.352;stroke-dashoffset:0;stroke-opacity:1" />
    <path
       inkscape:connector-curvature="0"
       id="path11431"
       d="m 40,237.00002 0,50"
       style="fill:none;stroke:#000000;stroke-width:0.176;stroke-linecap:round;stroke-linejoin:miter;stroke-miterlimit:4;stroke-dasharray:0.176, 0.352;stroke-dashoffset:0;stroke-opacity:1" />
    <path
       inkscape:connector-curvature="0"
       id="path11433"
       d="m 54.999999,237.00002 0,50"
       style="fill:none;stroke:#000000;stroke-width:0.176;stroke-linecap:round;stroke-linejoin:miter;stroke-miterlimit:4;stroke-dasharray:0.176, 0.352;stroke-dashoffset:0;stroke-opacity:1" />
    <path
       inkscape:connector-curvature="0"
       id="path11435"
       d="m 9.999999,247.00002 59.999997,0"
       style="fill:none;stroke:#000000;stroke-width:0.176;stroke-linecap:round;stroke-linejoin:miter;stroke-miterlimit:4;stroke-dasharray:0.176, 0.352;stroke-dashoffset:0;stroke-opacity:1" />
    <path
       inkscape:connector-curvature="0"
       id="path11437"
       d="m 9.999999,257.00002 59.999997,0"
       style="fill:none;stroke:#000000;stroke-width:0.176;stroke-linecap:round;stroke-linejoin:miter;stroke-miterlimit:4;stroke-dasharray:0.176, 0.352;stroke-dashoffset:0;stroke-opacity:1" />
    <path
       inkscape:connector-curvature="0"
       id="path11439"
       d="m 9.999999,267.00002 59.999997,0"
       style="fill:none;stroke:#000000;stroke-width:0.176;stroke-linecap:round;stroke-linejoin:miter;stroke-miterlimit:4;stroke-dasharray:0.176, 0.352;stroke-dashoffset:0;stroke-opacity:1" />
    <path
       inkscape:connector-curvature="0"
       id="path11441"
       d="m 9.999999,277.00002 59.999997,0"
       style="fill:none;stroke:#000000;stroke-width:0.176;stroke-linecap:round;stroke-linejoin:miter;stroke-miterlimit:4;stroke-dasharray:0.176, 0.352;stroke-dashoffset:0;stroke-opacity:1" />
    <g
       inkscape:label="Надписи"
       id="layer5"
       inkscape:groupmode="layer">
      <text
         id="text12274"
         y="290.00003"
         x="7"
         style="font-style:normal;font-variant:normal;font-weight:normal;font-stretch:normal;font-size:2.82222223px;line-height:1.25;font-family:'Times New Roman';-inkscape-font-specification:'Times New Roman, Normal';text-align:start;letter-spacing:0px;word-spacing:0px;writing-mode:lr-tb;text-anchor:start;fill:#000000;fill-opacity:1;stroke:none;stroke-width:0.26458332"
         xml:space="preserve"><tspan
           style="stroke-width:0.26458332"
           y="290.00003"
           x="7"
           id="tspan12272"
           sodipodi:role="line">$0$</tspan></text>
      <text
         id="text12278"
         y="291.00003"
         x="23.000002"
         style="font-style:normal;font-variant:normal;font-weight:normal;font-stretch:normal;font-size:2.82222223px;line-height:1.25;font-family:'Times New Roman';-inkscape-font-specification:'Times New Roman, Normal';text-align:start;letter-spacing:0px;word-spacing:0px;writing-mode:lr-tb;text-anchor:start;fill:#000000;fill-opacity:1;stroke:none;stroke-width:0.26458332"
         xml:space="preserve"><tspan
           style="stroke-width:0.26458332"
           y="291.00003"
           x="23.000002"
           id="tspan12276"
           sodipodi:role="line">$0,5$</tspan></text>
      <text
         id="text12282"
         y="291.00003"
         x="39"
         style="font-style:normal;font-variant:normal;font-weight:normal;font-stretch:normal;font-size:2.82222223px;line-height:1.25;font-family:'Times New Roman';-inkscape-font-specification:'Times New Roman, Normal';text-align:start;letter-spacing:0px;word-spacing:0px;writing-mode:lr-tb;text-anchor:start;fill:#000000;fill-opacity:1;stroke:none;stroke-width:0.26458332"
         xml:space="preserve"><tspan
           style="stroke-width:0.26458332"
           y="291.00003"
           x="39"
           id="tspan12280"
           sodipodi:role="line">$1$</tspan></text>
      <text
         id="text12286"
         y="291.00003"
         x="53"
         style="font-style:normal;font-variant:normal;font-weight:normal;font-stretch:normal;font-size:2.82222223px;line-height:1.25;font-family:'Times New Roman';-inkscape-font-specification:'Times New Roman, Normal';text-align:start;letter-spacing:0px;word-spacing:0px;writing-mode:lr-tb;text-anchor:start;fill:#000000;fill-opacity:1;stroke:none;stroke-width:0.26458332"
         xml:space="preserve"><tspan
           style="stroke-width:0.26458332"
           y="291.00003"
           x="53"
           id="tspan12284"
           sodipodi:role="line">$1,5$</tspan></text>
      <text
         id="text12290"
         y="291.00003"
         x="69"
         style="font-style:normal;font-variant:normal;font-weight:normal;font-stretch:normal;font-size:2.82222223px;line-height:1.25;font-family:'Times New Roman';-inkscape-font-specification:'Times New Roman, Normal';text-align:start;letter-spacing:0px;word-spacing:0px;writing-mode:lr-tb;text-anchor:start;fill:#000000;fill-opacity:1;stroke:none;stroke-width:0.26458332"
         xml:space="preserve"><tspan
           style="stroke-width:0.26458332"
           y="291.00003"
           x="69"
           id="tspan12288"
           sodipodi:role="line">$2$</tspan></text>
      <text
         id="text12294"
         y="278.00003"
         x="6"
         style="font-style:normal;font-variant:normal;font-weight:normal;font-stretch:normal;font-size:2.82222223px;line-height:1.25;font-family:'Times New Roman';-inkscape-font-specification:'Times New Roman, Normal';text-align:start;letter-spacing:0px;word-spacing:0px;writing-mode:lr-tb;text-anchor:start;fill:#000000;fill-opacity:1;stroke:none;stroke-width:0.26458332"
         xml:space="preserve"><tspan
           style="stroke-width:0.26458332"
           y="278.00003"
           x="6"
           id="tspan12292"
           sodipodi:role="line">$2$</tspan></text>
      <text
         id="text12298"
         y="268.00003"
         x="6"
         style="font-style:normal;font-variant:normal;font-weight:normal;font-stretch:normal;font-size:2.82222223px;line-height:1.25;font-family:'Times New Roman';-inkscape-font-specification:'Times New Roman, Normal';text-align:start;letter-spacing:0px;word-spacing:0px;writing-mode:lr-tb;text-anchor:start;fill:#000000;fill-opacity:1;stroke:none;stroke-width:0.26458332"
         xml:space="preserve"><tspan
           style="stroke-width:0.26458332"
           y="268.00003"
           x="6"
           id="tspan12296"
           sodipodi:role="line">$4$</tspan></text>
      <text
         id="text12302"
         y="258.00003"
         x="6"
         style="font-style:normal;font-variant:normal;font-weight:normal;font-stretch:normal;font-size:2.82222223px;line-height:1.25;font-family:'Times New Roman';-inkscape-font-specification:'Times New Roman, Normal';text-align:start;letter-spacing:0px;word-spacing:0px;writing-mode:lr-tb;text-anchor:start;fill:#000000;fill-opacity:1;stroke:none;stroke-width:0.26458332"
         xml:space="preserve"><tspan
           style="stroke-width:0.26458332"
           y="258.00003"
           x="6"
           id="tspan12300"
           sodipodi:role="line">$6$</tspan></text>
      <text
         id="text12306"
         y="248.00002"
         x="6"
         style="font-style:normal;font-variant:normal;font-weight:normal;font-stretch:normal;font-size:2.82222223px;line-height:1.25;font-family:'Times New Roman';-inkscape-font-specification:'Times New Roman, Normal';text-align:start;letter-spacing:0px;word-spacing:0px;writing-mode:lr-tb;text-anchor:start;fill:#000000;fill-opacity:1;stroke:none;stroke-width:0.26458332"
         xml:space="preserve"><tspan
           style="stroke-width:0.26458332"
           y="248.00002"
           x="6"
           id="tspan12304"
           sodipodi:role="line">$8$</tspan></text>
      <text
         id="text12310"
         y="238.00002"
         x="4"
         style="font-style:normal;font-variant:normal;font-weight:normal;font-stretch:normal;font-size:2.82222223px;line-height:1.25;font-family:'Times New Roman';-inkscape-font-specification:'Times New Roman, Normal';text-align:start;letter-spacing:0px;word-spacing:0px;writing-mode:lr-tb;text-anchor:start;fill:#000000;fill-opacity:1;stroke:none;stroke-width:0.26458332"
         xml:space="preserve"><tspan
           style="stroke-width:0.26458332"
           y="238.00002"
           x="4"
           id="tspan12308"
           sodipodi:role="line">$10$</tspan></text>
      <text
         id="text12314"
         y="253.00002"
         x="-5"
         style="font-style:normal;font-variant:normal;font-weight:normal;font-stretch:normal;font-size:2.82222223px;line-height:1.25;font-family:'Times New Roman';-inkscape-font-specification:'Times New Roman, Normal';text-align:start;letter-spacing:0px;word-spacing:0px;writing-mode:lr-tb;text-anchor:start;fill:#000000;fill-opacity:1;stroke:none;stroke-width:0.26458332"
         xml:space="preserve"><tspan
           style="stroke-width:0.26458332"
           y="253.00002"
           x="-5"
           id="tspan12312"
           sodipodi:role="line">$u_2(x)$</tspan></text>
      <text
         id="text12318"
         y="263.00003"
         x="-5"
         style="font-style:normal;font-variant:normal;font-weight:normal;font-stretch:normal;font-size:2.82222223px;line-height:1.25;font-family:'Times New Roman';-inkscape-font-specification:'Times New Roman, Normal';text-align:start;letter-spacing:0px;word-spacing:0px;writing-mode:lr-tb;text-anchor:start;fill:#000000;fill-opacity:1;stroke:none;stroke-width:0.26458332"
         xml:space="preserve"><tspan
           style="stroke-width:0.26458332"
           y="263.00003"
           x="-5"
           id="tspan12316"
           sodipodi:role="line">$u_5(x)$</tspan></text>
      <text
         id="text12322"
         y="273.00003"
         x="-5"
         style="font-style:normal;font-variant:normal;font-weight:normal;font-stretch:normal;font-size:2.82222223px;line-height:1.25;font-family:'Times New Roman';-inkscape-font-specification:'Times New Roman, Normal';text-align:start;letter-spacing:0px;word-spacing:0px;writing-mode:lr-tb;text-anchor:start;fill:#000000;fill-opacity:1;stroke:none;stroke-width:0.26458332"
         xml:space="preserve"><tspan
           style="stroke-width:0.26458332"
           y="273.00003"
           x="-5"
           id="tspan12320"
           sodipodi:role="line">$u_{10}(x)$</tspan></text>
      <text
         id="text12326"
         y="295.00003"
         x="39"
         style="font-style:normal;font-variant:normal;font-weight:normal;font-stretch:normal;font-size:2.82222223px;line-height:1.25;font-family:'Times New Roman';-inkscape-font-specification:'Times New Roman, Normal';text-align:start;letter-spacing:0px;word-spacing:0px;writing-mode:lr-tb;text-anchor:start;fill:#000000;fill-opacity:1;stroke:none;stroke-width:0.26458332"
         xml:space="preserve"><tspan
           style="stroke-width:0.26458332"
           y="295.00003"
           x="39"
           id="tspan12324"
           sodipodi:role="line">$x$</tspan></text>
      <path
         inkscape:connector-curvature="0"
         id="path12328"
         d="m -4.9999999,255.00002 7,0"
         style="fill:none;stroke:#000000;stroke-width:0.35277778;stroke-linecap:round;stroke-linejoin:miter;stroke-miterlimit:4;stroke-dasharray:2.11666661, 0.70555554;stroke-dashoffset:0;stroke-opacity:1" />
      <path
         inkscape:connector-curvature="0"
         id="path12330"
         d="m -4.9999999,265.00002 7,0"
         style="fill:none;stroke:#000000;stroke-width:0.35277778;stroke-linecap:round;stroke-linejoin:miter;stroke-miterlimit:4;stroke-dasharray:none;stroke-opacity:1" />
      <path
         inkscape:connector-curvature="0"
         id="path12332"
         d="m -4.9999999,275.00002 7,0"
         style="fill:none;stroke:#000000;stroke-width:0.35277778;stroke-linecap:round;stroke-linejoin:miter;stroke-miterlimit:4;stroke-dasharray:2.82222214, 0.70555554, 0.35277777, 0.70555554;stroke-dashoffset:0;stroke-opacity:1" />
    </g>
    <path
       id="path13882"
       title="2/(sqrt(x**2+4*(x**2-1)**2))"
       d="m 10,282.00002 c 0.512821,0 1.025641,-0.004 1.538462,-0.0115 0.51282,-0.008 1.025641,-0.0193 1.538461,-0.0349 0.512821,-0.0156 1.025641,-0.0352 1.538462,-0.059 0.51282,-0.0238 1.025641,-0.0519 1.538461,-0.0846 0.512821,-0.0326 1.025641,-0.0699 1.538462,-0.1122 0.51282,-0.0423 1.025641,-0.0897 1.538461,-0.14265 0.512821,-0.053 1.025641,-0.11166 1.538462,-0.17672 0.51282,-0.0651 1.025641,-0.13657 1.538461,-0.2154 0.512821,-0.0788 1.025641,-0.16506 1.538462,-0.25973 0.51282,-0.0947 1.025641,-0.19786 1.538461,-0.31076 0.512821,-0.11289 1.025641,-0.23557 1.538462,-0.36923 0.51282,-0.13366 1.025641,-0.27839 1.538461,-0.43503 0.512821,-0.15664 1.025641,-0.32534 1.538462,-0.50575 0.512821,-0.18041 1.025641,-0.37275 1.538462,-0.57396 0.51282,-0.20121 1.025641,-0.41154 1.538461,-0.62262 0.512821,-0.21107 1.025641,-0.42303 1.538462,-0.61919 0.51282,-0.19616 1.025641,-0.37615 1.538461,-0.51526 0.512821,-0.13912 1.025641,-0.23608 1.538462,-0.26792 0.51282,-0.0318 1.025641,0.003 1.538461,0.1082 0.512821,0.10535 1.025641,0.28134 1.538462,0.50782 0.51282,0.22647 1.025641,0.50239 1.538461,0.79823 0.512821,0.29584 1.025641,0.61103 1.538462,0.92287 0.51282,0.31184 1.025641,0.62039 1.538461,0.91404 0.512821,0.29366 1.025641,0.57262 1.538462,0.83327 0.51282,0.26064 1.025641,0.50309 1.538461,0.72783 0.512821,0.22473 1.025641,0.43177 1.538462,0.62319 0.512821,0.19143 1.025641,0.3672 1.538462,0.52978 0.51282,0.16257 1.025641,0.31188 1.538461,0.45023 0.512821,0.13835 1.025641,0.26567 1.538462,0.38394 0.51282,0.11827 1.025641,0.22744 1.538461,0.32913 0.512821,0.10169 1.025641,0.19586 1.538462,0.28384 0.51282,0.088 1.025641,0.16972 1.538461,0.24631 0.512821,0.0766 1.025641,0.148 1.538462,0.21508 0.51282,0.0671 1.025641,0.12983 1.538461,0.18893 0.512821,0.0591 1.025641,0.11453 1.538462,0.16688 0.51282,0.0523 1.025641,0.10158 1.538461,0.14818 0.512821,0.0466 1.025641,0.0906 1.538462,0.13224 0.51282,0.0417 1.025641,0.0811 1.538461,0.11854 0.512821,0.0374 1.025641,0.0729 1.538462,0.10672"
       style="opacity:1;fill:none;fill-opacity:1;stroke:#000000;stroke-width:0.35277778;stroke-linecap:round;stroke-linejoin:round;stroke-miterlimit:4;stroke-dasharray:2.82222214, 1.41111107;stroke-dashoffset:0;stroke-opacity:1;paint-order:markers fill stroke"
       inkscape:connector-curvature="0" />
    <path
       style="opacity:1;fill:none;fill-opacity:1;stroke:#000000;stroke-width:0.35277778;stroke-linecap:round;stroke-linejoin:round;stroke-miterlimit:4;stroke-dasharray:none;stroke-dashoffset:0;stroke-opacity:1;paint-order:markers fill stroke"
       d="m 10,282.00002 c 0.408163,0 0.816327,-0.003 1.22449,-0.008 0.408163,-0.005 0.816326,-0.0137 1.22449,-0.0247 0.408163,-0.011 0.816326,-0.0249 1.224489,-0.0417 0.408164,-0.0168 0.816327,-0.0366 1.22449,-0.0595 0.408163,-0.0229 0.816327,-0.049 1.22449,-0.0785 0.408163,-0.0295 0.816327,-0.0625 1.22449,-0.0992 0.408163,-0.0367 0.816326,-0.0773 1.22449,-0.12214 0.408163,-0.0448 0.816326,-0.0939 1.224489,-0.1479 0.408164,-0.054 0.816327,-0.11286 1.22449,-0.1774 0.408163,-0.0645 0.816327,-0.13477 1.22449,-0.21168 0.408163,-0.0769 0.816326,-0.16056 1.22449,-0.25223 0.408163,-0.0917 0.816326,-0.19142 1.22449,-0.30098 0.408163,-0.10955 0.816326,-0.22897 1.224489,-0.36059 0.408164,-0.13162 0.816327,-0.27551 1.22449,-0.43488 0.408163,-0.15937 0.816327,-0.33429 1.22449,-0.52926 0.408163,-0.19497 0.816326,-0.41006 1.22449,-0.65171 0.408163,-0.24164 0.816326,-0.50992 1.22449,-0.81418 0.408163,-0.30426 0.816326,-0.6446 1.224489,-1.0348 0.408164,-0.3902 0.816327,-0.83044 1.22449,-1.34094 0.408163,-0.51049 0.816327,-1.09171 1.22449,-1.77141 0.408163,-0.67969 0.816326,-1.45973 1.22449,-2.3673 0.408163,-0.90757 0.816326,-1.94994 1.22449,-3.10136 0.408163,-1.15143 0.816326,-2.42842 1.224489,-3.57877 0.408164,-1.15035 0.816327,-2.14534 1.22449,-2.48562 0.408163,-0.34029 0.816327,0.0388 1.22449,0.98019 0.408163,0.94139 0.816326,2.364 1.22449,3.76598 0.408163,1.40199 0.816326,2.78252 1.224489,3.9913 0.408164,1.20877 0.816327,2.26037 1.22449,3.1699 0.408164,0.90954 0.816327,1.68054 1.22449,2.3519 0.408163,0.67136 0.816327,1.24304 1.22449,1.74599 0.408163,0.50296 0.816326,0.93664 1.22449,1.32221 0.408163,0.38557 0.816326,0.72255 1.224489,1.02505 0.408164,0.3025 0.816327,0.57018 1.22449,0.81254 0.408164,0.24237 0.816327,0.45918 1.22449,0.65696 0.408163,0.19779 0.816327,0.37638 1.22449,0.54038 0.408163,0.164 0.816326,0.31329 1.22449,0.45116 0.408163,0.13788 0.816326,0.26425 1.224489,0.38157 0.408164,0.11731 0.816327,0.22549 1.22449,0.32636 0.408164,0.10087 0.816327,0.19437 1.22449,0.2819 0.408163,0.0875 0.816327,0.16906 1.22449,0.24564 0.408163,0.0766 0.816326,0.14819 1.22449,0.21568 0.408163,0.0675 0.816326,0.13083 1.224489,0.1907 0.408164,0.0599 0.816327,0.11622 1.22449,0.16963 0.408163,0.0534 0.816327,0.10385 1.22449,0.15175 0.408163,0.0479 0.816327,0.0933 1.22449,0.13643 0.408163,0.0432 0.816326,0.0841 1.22449,0.12322 0.408163,0.0391 0.816326,0.0762 1.224489,0.11176 0.408164,0.0355 0.816327,0.0693 1.22449,0.10174 0.408163,0.0324 0.816327,0.0633 1.22449,0.093"
       title="5/(sqrt(x**2+25*(x**2-1)**2))"
       id="path14134"
       inkscape:connector-curvature="0" />
    <path
       id="path14238"
       title="10/(sqrt(x**2+100*(x**2-1)**2))"
       d="m 10,282.00002 c 0.408163,0 0.816327,-0.003 1.22449,-0.008 0.408163,-0.006 0.816326,-0.0139 1.22449,-0.0251 0.408163,-0.0112 0.816326,-0.0253 1.224489,-0.0423 0.408164,-0.0171 0.816327,-0.0372 1.22449,-0.0605 0.408163,-0.0233 0.816327,-0.0498 1.22449,-0.0799 0.408163,-0.0301 0.816327,-0.0636 1.22449,-0.10109 0.408163,-0.0375 0.816326,-0.0788 1.22449,-0.12461 0.408163,-0.0458 0.816326,-0.096 1.224489,-0.15119 0.408164,-0.0552 0.816327,-0.11555 1.22449,-0.18177 0.408163,-0.0662 0.816327,-0.13837 1.22449,-0.21755 0.408163,-0.0792 0.816326,-0.16542 1.22449,-0.26019 0.408163,-0.0948 0.816326,-0.1981 1.22449,-0.31196 0.408163,-0.11386 0.816326,-0.2383 1.224489,-0.37605 0.408164,-0.13774 0.816327,-0.28884 1.22449,-0.45714 0.408163,-0.1683 0.816327,-0.35386 1.22449,-0.56226 0.408163,-0.2084 0.816326,-0.4397 1.22449,-0.70233 0.408163,-0.26262 0.816326,-0.55659 1.22449,-0.89513 0.408163,-0.33854 0.816326,-0.72159 1.224489,-1.17103 0.408164,-0.44944 0.816327,-0.96494 1.22449,-1.58509 0.408163,-0.62016 0.816327,-1.34384 1.22449,-2.24452 0.408163,-0.90067 0.816326,-1.97511 1.22449,-3.37542 0.408163,-1.40032 0.816326,-3.11991 1.22449,-5.48863 0.408163,-2.36871 0.816326,-5.428 1.224489,-9.61683 0.408164,-4.18883 0.816327,-10.17902 1.22449,-14.1474 0.408163,-3.96838 0.816327,-3.0576 1.22449,1.75517 0.408163,4.81276 0.816326,10.88061 1.22449,15.10735 0.408163,4.22675 0.816326,7.24218 1.224489,9.58967 0.408164,2.34749 0.816327,4.04544 1.22449,5.43237 0.408164,1.38692 0.816327,2.45087 1.22449,3.3453 0.408163,0.89442 0.816327,1.61373 1.22449,2.232 0.408163,0.61828 0.816326,1.13306 1.22449,1.58343 0.408163,0.45037 0.816326,0.83515 1.224489,1.17661 0.408164,0.34146 0.816327,0.63897 1.22449,0.90607 0.408164,0.2671 0.816327,0.50342 1.22449,0.71763 0.408163,0.21421 0.816327,0.40608 1.22449,0.5814 0.408163,0.17532 0.816326,0.33393 1.22449,0.47986 0.408163,0.14592 0.816326,0.27905 1.224489,0.40224 0.408164,0.12319 0.816327,0.23636 1.22449,0.34162 0.408164,0.10526 0.816327,0.20254 1.22449,0.29342 0.408163,0.0909 0.816327,0.1753 1.22449,0.25448 0.408163,0.0792 0.816326,0.15306 1.22449,0.22259 0.408163,0.0695 0.816326,0.13467 1.224489,0.19617 0.408164,0.0615 0.816327,0.1193 1.22449,0.17402 0.408163,0.0547 0.816327,0.10634 1.22449,0.15532 0.408163,0.049 0.816327,0.0953 1.22449,0.13935 0.408163,0.0441 0.816326,0.0858 1.22449,0.12564 0.408163,0.0398 0.816326,0.0776 1.224489,0.11377 0.408164,0.0361 0.816327,0.0705 1.22449,0.10345 0.408163,0.0329 0.816327,0.0643 1.22449,0.0944"
       style="opacity:1;fill:none;fill-opacity:1;stroke:#000000;stroke-width:0.35277778;stroke-linecap:round;stroke-linejoin:round;stroke-miterlimit:4;stroke-dasharray:2.82222214, 0.70555554, 0.35277777, 0.70555554;stroke-dashoffset:0;stroke-opacity:1;paint-order:markers fill stroke"
       inkscape:connector-curvature="0" />
  </g>
</svg>
