<?xml version="1.0" encoding="UTF-8" standalone="no"?>
<!-- Created with Inkscape (http://www.inkscape.org/) -->

<svg
   xmlns:dc="http://purl.org/dc/elements/1.1/"
   xmlns:cc="http://creativecommons.org/ns#"
   xmlns:rdf="http://www.w3.org/1999/02/22-rdf-syntax-ns#"
   xmlns:svg="http://www.w3.org/2000/svg"
   xmlns="http://www.w3.org/2000/svg"
   xmlns:sodipodi="http://sodipodi.sourceforge.net/DTD/sodipodi-0.dtd"
   xmlns:inkscape="http://www.inkscape.org/namespaces/inkscape"
   sodipodi:docname="10.svg"
   inkscape:version="0.92.3 (2405546, 2018-03-11)"
   id="svg12340"
   version="1.1"
   viewBox="0 0 70 59.999998"
   height="6cm"
   width="7cm">
  <sodipodi:namedview
     inkscape:window-maximized="1"
     inkscape:window-y="-9"
     inkscape:window-x="-9"
     inkscape:window-height="1003"
     inkscape:window-width="1920"
     units="cm"
     showgrid="true"
     inkscape:current-layer="layer5"
     inkscape:document-units="mm"
     inkscape:cy="124.61564"
     inkscape:cx="153.53907"
     inkscape:zoom="3.52"
     inkscape:pageshadow="2"
     inkscape:pageopacity="0.0"
     borderopacity="1.0"
     bordercolor="#666666"
     pagecolor="#ffffff"
     id="base"
     inkscape:snap-text-baseline="true">
    <inkscape:grid
       id="grid12885"
       type="xygrid"
       units="mm"
       spacingx="0.99999999"
       spacingy="0.99999999" />
  </sodipodi:namedview>
  <defs
     id="defs12334" />
  <metadata
     id="metadata12337">
    <rdf:RDF>
      <cc:Work
         rdf:about="">
        <dc:format>image/svg+xml</dc:format>
        <dc:type
           rdf:resource="http://purl.org/dc/dcmitype/StillImage" />
        <dc:title></dc:title>
      </cc:Work>
    </rdf:RDF>
  </metadata>
  <g
     transform="translate(0,-237.00002)"
     id="layer1"
     inkscape:groupmode="layer"
     inkscape:label="Layer 1">
    <path
       inkscape:connector-curvature="0"
       id="path11421"
       d="M 69.999996,237.00002 H 9.999999"
       style="fill:none;stroke:#000000;stroke-width:0.49999997;stroke-linecap:round;stroke-linejoin:miter;stroke-miterlimit:4;stroke-dasharray:none;stroke-opacity:1" />
    <path
       inkscape:connector-curvature="0"
       id="path11423"
       d="m 10,237.00002 v 50"
       style="fill:none;stroke:#000000;stroke-width:0.5;stroke-linecap:round;stroke-linejoin:miter;stroke-miterlimit:4;stroke-dasharray:none;stroke-opacity:1" />
    <path
       inkscape:connector-curvature="0"
       id="path11425"
       d="m 10.000001,287.00002 h 60"
       style="fill:none;stroke:#000000;stroke-width:0.5;stroke-linecap:round;stroke-linejoin:miter;stroke-miterlimit:4;stroke-dasharray:none;stroke-opacity:1" />
    <path
       inkscape:connector-curvature="0"
       id="path11427"
       d="m 69.999998,237.00002 v 50"
       style="fill:none;stroke:#000000;stroke-width:0.5;stroke-linecap:round;stroke-linejoin:miter;stroke-miterlimit:4;stroke-dasharray:none;stroke-opacity:1" />
    <path
       inkscape:connector-curvature="0"
       id="path11429"
       d="m 25,237.00002 v 50"
       style="fill:none;stroke:#000000;stroke-width:0.5;stroke-linecap:round;stroke-linejoin:miter;stroke-miterlimit:4;stroke-dasharray:none;stroke-opacity:1" />
    <path
       inkscape:connector-curvature="0"
       id="path11431"
       d="m 40,237.00002 v 50"
       style="fill:none;stroke:#000000;stroke-width:0.5;stroke-linecap:round;stroke-linejoin:miter;stroke-miterlimit:4;stroke-dasharray:none;stroke-opacity:1" />
    <path
       inkscape:connector-curvature="0"
       id="path11433"
       d="m 54.999999,237.00002 v 50"
       style="fill:none;stroke:#000000;stroke-width:0.5;stroke-linecap:round;stroke-linejoin:miter;stroke-miterlimit:4;stroke-dasharray:none;stroke-opacity:1" />
    <path
       inkscape:connector-curvature="0"
       id="path11435"
       d="M 9.999999,247.00002 H 69.999996"
       style="fill:none;stroke:#000000;stroke-width:0.49999997;stroke-linecap:round;stroke-linejoin:miter;stroke-miterlimit:4;stroke-dasharray:none;stroke-opacity:1" />
    <path
       inkscape:connector-curvature="0"
       id="path11437"
       d="M 9.999999,257.00002 H 69.999996"
       style="fill:none;stroke:#000000;stroke-width:0.49999997;stroke-linecap:round;stroke-linejoin:miter;stroke-miterlimit:4;stroke-dasharray:none;stroke-opacity:1" />
    <path
       inkscape:connector-curvature="0"
       id="path11439"
       d="M 9.999999,267.00002 H 69.999996"
       style="fill:none;stroke:#000000;stroke-width:0.49999997;stroke-linecap:round;stroke-linejoin:miter;stroke-miterlimit:4;stroke-dasharray:none;stroke-opacity:1" />
    <path
       inkscape:connector-curvature="0"
       id="path11441"
       d="M 9.999999,277.00002 H 69.999996"
       style="fill:none;stroke:#000000;stroke-width:0.49999997;stroke-linecap:round;stroke-linejoin:miter;stroke-miterlimit:4;stroke-dasharray:none;stroke-opacity:1" />
    <g
       inkscape:label="Надписи"
       id="layer5"
       inkscape:groupmode="layer">
      <text
         id="text12274"
         y="290.00003"
         x="7"
         style="font-style:normal;font-variant:normal;font-weight:normal;font-stretch:normal;font-size:2.82222223px;line-height:1.25;font-family:'Times New Roman';-inkscape-font-specification:'Times New Roman, Normal';font-variant-ligatures:normal;font-variant-caps:normal;font-variant-numeric:normal;font-feature-settings:normal;text-align:start;letter-spacing:0px;word-spacing:0px;writing-mode:lr-tb;text-anchor:start;fill:#000000;fill-opacity:1;stroke:none;stroke-width:0.26458332"
         xml:space="preserve"><tspan
           style="stroke-width:0.26458332"
           y="290.00003"
           x="7"
           id="tspan12272"
           sodipodi:role="line">$0$</tspan></text>
      <text
         id="text12278"
         y="291.00003"
         x="23.000002"
         style="font-style:normal;font-variant:normal;font-weight:normal;font-stretch:normal;font-size:2.82222223px;line-height:1.25;font-family:'Times New Roman';-inkscape-font-specification:'Times New Roman, Normal';font-variant-ligatures:normal;font-variant-caps:normal;font-variant-numeric:normal;font-feature-settings:normal;text-align:start;letter-spacing:0px;word-spacing:0px;writing-mode:lr-tb;text-anchor:start;fill:#000000;fill-opacity:1;stroke:none;stroke-width:0.26458332"
         xml:space="preserve"><tspan
           style="stroke-width:0.26458332"
           y="291.00003"
           x="23.000002"
           id="tspan12276"
           sodipodi:role="line">$0.5$</tspan></text>
      <text
         id="text12282"
         y="291.00003"
         x="39"
         style="font-style:normal;font-variant:normal;font-weight:normal;font-stretch:normal;font-size:2.82222223px;line-height:1.25;font-family:'Times New Roman';-inkscape-font-specification:'Times New Roman, Normal';font-variant-ligatures:normal;font-variant-caps:normal;font-variant-numeric:normal;font-feature-settings:normal;text-align:start;letter-spacing:0px;word-spacing:0px;writing-mode:lr-tb;text-anchor:start;fill:#000000;fill-opacity:1;stroke:none;stroke-width:0.26458332"
         xml:space="preserve"><tspan
           style="stroke-width:0.26458332"
           y="291.00003"
           x="39"
           id="tspan12280"
           sodipodi:role="line">$1$</tspan></text>
      <text
         id="text12286"
         y="291.00003"
         x="53"
         style="font-style:normal;font-variant:normal;font-weight:normal;font-stretch:normal;font-size:2.82222223px;line-height:1.25;font-family:'Times New Roman';-inkscape-font-specification:'Times New Roman, Normal';font-variant-ligatures:normal;font-variant-caps:normal;font-variant-numeric:normal;font-feature-settings:normal;text-align:start;letter-spacing:0px;word-spacing:0px;writing-mode:lr-tb;text-anchor:start;fill:#000000;fill-opacity:1;stroke:none;stroke-width:0.26458332"
         xml:space="preserve"><tspan
           style="stroke-width:0.26458332"
           y="291.00003"
           x="53"
           id="tspan12284"
           sodipodi:role="line">$1.5$</tspan></text>
      <text
         id="text12290"
         y="291.00003"
         x="69"
         style="font-style:normal;font-variant:normal;font-weight:normal;font-stretch:normal;font-size:2.82222223px;line-height:1.25;font-family:'Times New Roman';-inkscape-font-specification:'Times New Roman, Normal';font-variant-ligatures:normal;font-variant-caps:normal;font-variant-numeric:normal;font-feature-settings:normal;text-align:start;letter-spacing:0px;word-spacing:0px;writing-mode:lr-tb;text-anchor:start;fill:#000000;fill-opacity:1;stroke:none;stroke-width:0.26458332"
         xml:space="preserve"><tspan
           style="stroke-width:0.26458332"
           y="291.00003"
           x="69"
           id="tspan12288"
           sodipodi:role="line">$2$</tspan></text>
      <text
         id="text12294"
         y="278.00003"
         x="6"
         style="font-style:normal;font-variant:normal;font-weight:normal;font-stretch:normal;font-size:2.82222223px;line-height:1.25;font-family:'Times New Roman';-inkscape-font-specification:'Times New Roman, Normal';font-variant-ligatures:normal;font-variant-caps:normal;font-variant-numeric:normal;font-feature-settings:normal;text-align:start;letter-spacing:0px;word-spacing:0px;writing-mode:lr-tb;text-anchor:start;fill:#000000;fill-opacity:1;stroke:none;stroke-width:0.26458332"
         xml:space="preserve"><tspan
           style="stroke-width:0.26458332"
           y="278.00003"
           x="6"
           id="tspan12292"
           sodipodi:role="line">$2$</tspan></text>
      <text
         id="text12298"
         y="268.00003"
         x="6"
         style="font-style:normal;font-variant:normal;font-weight:normal;font-stretch:normal;font-size:2.82222223px;line-height:1.25;font-family:'Times New Roman';-inkscape-font-specification:'Times New Roman, Normal';font-variant-ligatures:normal;font-variant-caps:normal;font-variant-numeric:normal;font-feature-settings:normal;text-align:start;letter-spacing:0px;word-spacing:0px;writing-mode:lr-tb;text-anchor:start;fill:#000000;fill-opacity:1;stroke:none;stroke-width:0.26458332"
         xml:space="preserve"><tspan
           style="stroke-width:0.26458332"
           y="268.00003"
           x="6"
           id="tspan12296"
           sodipodi:role="line">$4$</tspan></text>
      <text
         id="text12302"
         y="258.00003"
         x="6"
         style="font-style:normal;font-variant:normal;font-weight:normal;font-stretch:normal;font-size:2.82222223px;line-height:1.25;font-family:'Times New Roman';-inkscape-font-specification:'Times New Roman, Normal';font-variant-ligatures:normal;font-variant-caps:normal;font-variant-numeric:normal;font-feature-settings:normal;text-align:start;letter-spacing:0px;word-spacing:0px;writing-mode:lr-tb;text-anchor:start;fill:#000000;fill-opacity:1;stroke:none;stroke-width:0.26458332"
         xml:space="preserve"><tspan
           style="stroke-width:0.26458332"
           y="258.00003"
           x="6"
           id="tspan12300"
           sodipodi:role="line">$6$</tspan></text>
      <text
         id="text12306"
         y="248.00002"
         x="6"
         style="font-style:normal;font-variant:normal;font-weight:normal;font-stretch:normal;font-size:2.82222223px;line-height:1.25;font-family:'Times New Roman';-inkscape-font-specification:'Times New Roman, Normal';font-variant-ligatures:normal;font-variant-caps:normal;font-variant-numeric:normal;font-feature-settings:normal;text-align:start;letter-spacing:0px;word-spacing:0px;writing-mode:lr-tb;text-anchor:start;fill:#000000;fill-opacity:1;stroke:none;stroke-width:0.26458332"
         xml:space="preserve"><tspan
           style="stroke-width:0.26458332"
           y="248.00002"
           x="6"
           id="tspan12304"
           sodipodi:role="line">$8$</tspan></text>
      <text
         id="text12310"
         y="238.00002"
         x="4"
         style="font-style:normal;font-variant:normal;font-weight:normal;font-stretch:normal;font-size:2.82222223px;line-height:1.25;font-family:'Times New Roman';-inkscape-font-specification:'Times New Roman, Normal';font-variant-ligatures:normal;font-variant-caps:normal;font-variant-numeric:normal;font-feature-settings:normal;text-align:start;letter-spacing:0px;word-spacing:0px;writing-mode:lr-tb;text-anchor:start;fill:#000000;fill-opacity:1;stroke:none;stroke-width:0.26458332"
         xml:space="preserve"><tspan
           style="stroke-width:0.26458332"
           y="238.00002"
           x="4"
           id="tspan12308"
           sodipodi:role="line">$10$</tspan></text>
      <text
         id="text12314"
         y="253.00002"
         x="-5"
         style="font-style:normal;font-variant:normal;font-weight:normal;font-stretch:normal;font-size:2.82222223px;line-height:1.25;font-family:'Times New Roman';-inkscape-font-specification:'Times New Roman, Normal';font-variant-ligatures:normal;font-variant-caps:normal;font-variant-numeric:normal;font-feature-settings:normal;text-align:start;letter-spacing:0px;word-spacing:0px;writing-mode:lr-tb;text-anchor:start;fill:#000000;fill-opacity:1;stroke:none;stroke-width:0.26458332"
         xml:space="preserve"><tspan
           style="stroke-width:0.26458332"
           y="253.00002"
           x="-5"
           id="tspan12312"
           sodipodi:role="line">$u_2(x)$</tspan></text>
      <text
         id="text12318"
         y="263.00003"
         x="-5"
         style="font-style:normal;font-variant:normal;font-weight:normal;font-stretch:normal;font-size:2.82222223px;line-height:1.25;font-family:'Times New Roman';-inkscape-font-specification:'Times New Roman, Normal';font-variant-ligatures:normal;font-variant-caps:normal;font-variant-numeric:normal;font-feature-settings:normal;text-align:start;letter-spacing:0px;word-spacing:0px;writing-mode:lr-tb;text-anchor:start;fill:#000000;fill-opacity:1;stroke:none;stroke-width:0.26458332"
         xml:space="preserve"><tspan
           style="stroke-width:0.26458332"
           y="263.00003"
           x="-5"
           id="tspan12316"
           sodipodi:role="line">$u_5(x)$</tspan></text>
      <text
         id="text12322"
         y="273.00003"
         x="-5"
         style="font-style:normal;font-variant:normal;font-weight:normal;font-stretch:normal;font-size:2.82222223px;line-height:1.25;font-family:'Times New Roman';-inkscape-font-specification:'Times New Roman, Normal';font-variant-ligatures:normal;font-variant-caps:normal;font-variant-numeric:normal;font-feature-settings:normal;text-align:start;letter-spacing:0px;word-spacing:0px;writing-mode:lr-tb;text-anchor:start;fill:#000000;fill-opacity:1;stroke:none;stroke-width:0.26458332"
         xml:space="preserve"><tspan
           style="stroke-width:0.26458332"
           y="273.00003"
           x="-5"
           id="tspan12320"
           sodipodi:role="line">$u_{10}(x)$</tspan></text>
      <text
         id="text12326"
         y="295.00003"
         x="39"
         style="font-style:normal;font-variant:normal;font-weight:normal;font-stretch:normal;font-size:2.82222223px;line-height:1.25;font-family:'Times New Roman';-inkscape-font-specification:'Times New Roman, Normal';font-variant-ligatures:normal;font-variant-caps:normal;font-variant-numeric:normal;font-feature-settings:normal;text-align:start;letter-spacing:0px;word-spacing:0px;writing-mode:lr-tb;text-anchor:start;fill:#000000;fill-opacity:1;stroke:none;stroke-width:0.26458332"
         xml:space="preserve"><tspan
           style="stroke-width:0.26458332"
           y="295.00003"
           x="39"
           id="tspan12324"
           sodipodi:role="line">$x$</tspan></text>
      <path
         inkscape:connector-curvature="0"
         id="path12328"
         d="m -4.9999999,255.00002 h 7"
         style="fill:none;stroke:#000000;stroke-width:0.69999999;stroke-linecap:round;stroke-linejoin:miter;stroke-miterlimit:4;stroke-dasharray:1.39999998, 1.39999998;stroke-dashoffset:0;stroke-opacity:1" />
      <path
         inkscape:connector-curvature="0"
         id="path12330"
         d="m -4.9999999,265.00002 h 7"
         style="fill:none;stroke:#000000;stroke-width:0.69999999;stroke-linecap:round;stroke-linejoin:miter;stroke-miterlimit:4;stroke-dasharray:none;stroke-opacity:1" />
      <path
         inkscape:connector-curvature="0"
         id="path12332"
         d="m -4.9999999,275.00002 h 7"
         style="fill:none;stroke:#000000;stroke-width:0.69999999;stroke-linecap:round;stroke-linejoin:miter;stroke-miterlimit:4;stroke-dasharray:2.79999994, 1.39999995, 0.69999999, 1.39999995;stroke-dashoffset:0;stroke-opacity:1" />
    </g>
    <path
       id="path13882"
       title="2/(sqrt(x**2+4*(x**2-1)**2))"
       d=" M 10.0 282.00002 C 10.5128205128 282.000016165 11.0256410256 281.996188431 11.5384615385 281.988491955 C 12.0512820513 281.98079548 12.5641025641 281.969214824 13.0769230769 281.953636761 C 13.5897435897 281.938058697 14.1025641026 281.918459561 14.6153846154 281.894629296 C 15.1282051282 281.870799032 15.641025641 281.842712831 16.1538461538 281.810054318 C 16.6666666667 281.777395805 17.1794871795 281.740138365 17.6923076923 281.697845776 C 18.2051282051 281.655553188 18.7179487179 281.60819623 19.2307692308 281.555201798 C 19.7435897436 281.502207365 20.2564102564 281.443542596 20.7692307692 281.378478764 C 21.2820512821 281.313414932 21.7948717949 281.241914086 22.3076923077 281.163076352 C 22.8205128205 281.084238618 23.3333333333 280.998018764 23.8461538462 280.903345251 C 24.358974359 280.808671738 24.8717948718 280.705488482 25.3846153846 280.592593381 C 25.8974358974 280.47969828 26.4102564103 280.357018289 26.9230769231 280.223360733 C 27.4358974359 280.089703177 27.9487179487 279.944967562 28.4615384615 279.788326572 C 28.9743589744 279.631685581 29.4871794872 279.462994794 30.0 279.282583669 C 30.5128205128 279.102172543 31.0256410256 278.909834836 31.5384615385 278.708624231 C 32.0512820513 278.507413626 32.5641025641 278.297075289 33.0769230769 278.086002101 C 33.5897435897 277.874928912 34.1025641026 277.662966128 34.6153846154 277.466807997 C 35.1282051282 277.270649865 35.641025641 277.090664514 36.1538461538 276.951548887 C 36.6666666667 276.812433261 37.1794871795 276.715471843 37.6923076923 276.683628546 C 38.2051282051 276.65178525 38.7179487179 276.686475631 39.2307692308 276.791828365 C 39.7435897436 276.8971811 40.2564102564 277.073168882 40.7692307692 277.299646534 C 41.2820512821 277.526124186 41.7948717949 277.802042688 42.3076923077 278.097882183 C 42.8205128205 278.393721678 43.3333333333 278.708908114 43.8461538462 279.020747717 C 44.358974359 279.33258732 44.8717948718 279.641139477 45.3846153846 279.934793584 C 45.8974358974 280.228447691 46.4102564103 280.507408461 46.9230769231 280.768056632 C 47.4358974359 281.028704803 47.9487179487 281.271153808 48.4615384615 281.495889188 C 48.9743589744 281.720624568 49.4871794872 281.927659871 50.0 282.119084699 C 50.5128205128 282.310509527 51.0256410256 282.486283133 51.5384615385 282.648856421 C 52.0512820513 282.811429709 52.5641025641 282.960742478 53.0769230769 283.09909095 C 53.5897435897 283.237439422 54.1025641026 283.364761796 54.6153846154 283.483032776 C 55.1282051282 283.601303756 55.641025641 283.710467176 56.1538461538 283.81215776 C 56.6666666667 283.913848343 57.1794871795 284.008017608 57.6923076923 284.095996267 C 58.2051282051 284.183974925 58.7179487179 284.265722046 59.2307692308 284.342314346 C 59.7435897436 284.418906646 60.2564102564 284.49030985 60.7692307692 284.557394957 C 61.2820512821 284.624480064 61.7948717949 284.687218398 62.3076923077 284.746316646 C 62.8205128205 284.805414893 63.3333333333 284.860848995 63.8461538462 284.913195048 C 64.358974359 284.965541101 64.8717948718 285.014778821 65.3846153846 285.061380522 C 65.8974358974 285.107982223 66.4102564103 285.151930705 66.9230769231 285.193615565 C 67.4358974359 285.235300425 67.9487179487 285.274706993 68.4615384615 285.312158645 C 68.9743589744 285.349610297 69.4871794872 285.385094446 70.0 285.41888117"
       style="opacity:1;fill:none;fill-opacity:1;stroke:#000000;stroke-width:0.69999998;stroke-linecap:round;stroke-linejoin:round;stroke-miterlimit:4;stroke-dasharray:1.39999996,1.39999996;stroke-dashoffset:0;stroke-opacity:1;paint-order:markers fill stroke" />
    <path
       style="opacity:1;fill:none;fill-opacity:1;stroke:#000000;stroke-width:0.69999998;stroke-linecap:round;stroke-linejoin:round;stroke-miterlimit:4;stroke-dasharray:none;stroke-dashoffset:0;stroke-opacity:1;paint-order:markers fill stroke"
       d=" M 10.0 282.00002 C 10.4081632653 282.000017279 10.8163265306 281.997300536 11.2244897959 281.991843661 C 11.6326530612 281.986386787 12.0408163265 281.978178852 12.4489795918 281.967156776 C 12.8571428571 281.9561347 13.2653061224 281.94228181 13.6734693878 281.92547823 C 14.0816326531 281.908674649 14.4897959184 281.888903087 14.8979591837 281.865980478 C 15.306122449 281.84305787 15.7142857143 281.816965968 16.1224489796 281.787448633 C 16.5306122449 281.757931298 16.9387755102 281.724968955 17.3469387755 281.688218048 C 17.7551020408 281.651467141 18.1632653061 281.610906346 18.5714285714 281.56608442 C 18.9795918367 281.521262494 19.387755102 281.472155879 19.7959183673 281.418177224 C 20.2040816327 281.364198568 20.612244898 281.305321509 21.0204081633 281.24078265 C 21.4285714286 281.17624379 21.8367346939 281.106013288 22.2448979592 281.029095103 C 22.6530612245 280.952176918 23.0612244898 280.868536941 23.4693877551 280.776865251 C 23.8775510204 280.685193561 24.2857142857 280.585450872 24.693877551 280.475894956 C 25.1020408163 280.36633904 25.5102040816 280.246924423 25.9183673469 280.115300835 C 26.3265306122 279.983677247 26.7346938776 279.839791981 27.1428571429 279.680421037 C 27.5510204082 279.521050094 27.9591836735 279.346132567 28.3673469388 279.151161724 C 28.7755102041 278.956190882 29.1836734694 278.741096759 29.5918367347 278.499451348 C 30.0 278.257805937 30.4081632653 277.989528513 30.8163265306 277.685270662 C 31.2244897959 277.381012811 31.6326530612 277.040674133 32.0408163265 276.650469955 C 32.4489795918 276.260265778 32.8571428571 275.820027386 33.2653061224 275.309534752 C 33.6734693878 274.799042118 34.0816326531 274.217817558 34.4897959184 273.538124043 C 34.8979591837 272.858430527 35.306122449 272.078392167 35.7142857143 271.170821248 C 36.1224489796 270.263250328 36.5306122449 269.220880918 36.9387755102 268.069455238 C 37.3469387755 266.918029558 37.7551020408 265.641044283 38.1632653061 264.490692305 C 38.5714285714 263.340340327 38.9795918367 262.345353958 39.387755102 262.005066348 C 39.7959183673 261.664778737 40.2040816327 262.043878557 40.612244898 262.985264608 C 41.0204081633 263.926650659 41.4285714286 265.349255922 41.8367346939 266.751243672 C 42.2448979592 268.153231423 42.6530612245 269.533760428 43.0612244898 270.742536577 C 43.4693877551 271.951312726 43.8775510204 273.002908998 44.2857142857 273.912443039 C 44.693877551 274.821977081 45.1020408163 275.592983597 45.5102040816 276.264343344 C 45.9183673469 276.935703091 46.3265306122 277.507375608 46.7346938776 278.010334878 C 47.1428571429 278.513294148 47.5510204082 278.946969464 47.9591836735 279.332539095 C 48.3673469388 279.718108725 48.7755102041 280.055085152 49.1836734694 280.357587357 C 49.5918367347 280.660089562 50.0 280.927769676 50.4081632653 281.170134578 C 50.8163265306 281.41249948 51.2244897959 281.629307224 51.6326530612 281.827093243 C 52.0408163265 282.024879263 52.4489795918 282.203472964 52.8571428571 282.367472819 C 53.2653061224 282.531472673 53.6734693878 282.680755399 54.0816326531 282.818631132 C 54.4897959184 282.956506864 54.8979591837 283.082884144 55.306122449 283.20019682 C 55.7142857143 283.317509495 56.1224489796 283.425688022 56.5306122449 283.526556915 C 56.9387755102 283.627425807 57.3469387755 283.720931005 57.7551020408 283.808464387 C 58.1632653061 283.895997769 58.5714285714 283.977516491 58.9795918367 284.05409927 C 59.387755102 284.130682048 59.7959183673 284.20229435 60.2040816327 284.269784168 C 60.612244898 284.337273986 61.0204081633 284.400613072 61.4285714286 284.460476666 C 61.8367346939 284.52034026 62.2448979592 284.576704955 62.6530612245 284.630114724 C 63.0612244898 284.683524492 63.4693877551 284.733959718 63.8775510204 284.781863279 C 64.2857142857 284.82976684 64.693877551 284.875122132 65.1020408163 284.918293213 C 65.5102040816 284.961464293 65.9183673469 285.002436984 66.3265306122 285.04151319 C 66.7346938776 285.080589396 67.1428571429 285.117756915 67.5510204082 285.153268137 C 67.9591836735 285.18877936 68.3673469388 285.222623707 68.7755102041 285.255013746 C 69.1836734694 285.287403785 69.5918367347 285.318330285 70.0 285.347973499"
       title="5/(sqrt(x**2+25*(x**2-1)**2))"
       id="path14134" />
    <path
       id="path14238"
       title="10/(sqrt(x**2+100*(x**2-1)**2))"
       d=" M 10.0 282.00002 C 10.4081632653 282.000017237 10.8163265306 281.997259051 11.2244897959 281.991718095 C 11.6326530612 281.986177138 12.0408163265 281.977842322 12.4489795918 281.966646987 C 12.8571428571 281.955451652 13.2653061224 281.941378877 13.6734693878 281.924302241 C 14.0816326531 281.907225606 14.4897959184 281.887127554 14.8979591837 281.863814813 C 15.306122449 281.840502072 15.7142857143 281.8139561 16.1224489796 281.783905742 C 16.5306122449 281.753855385 16.9387755102 281.720280731 17.3469387755 281.682816612 C 17.7551020408 281.645352492 18.1632653061 281.603977195 18.5714285714 281.558208487 C 18.9795918367 281.512439778 19.387755102 281.46225365 19.7959183673 281.407018033 C 20.2040816327 281.351782415 20.612244898 281.291470434 21.0204081633 281.225253315 C 21.4285714286 281.159036197 21.8367346939 281.086883556 22.2448979592 281.007702035 C 22.6530612245 280.928520515 23.0612244898 280.842275516 23.4693877551 280.747508983 C 23.8775510204 280.652742449 24.2857142857 280.549414896 24.693877551 280.435552515 C 25.1020408163 280.321690133 25.5102040816 280.197248128 25.9183673469 280.059502743 C 26.3265306122 279.921757358 26.7346938776 279.770658885 27.1428571429 279.602358684 C 27.5510204082 279.434058483 27.9591836735 279.248504569 28.3673469388 279.040100195 C 28.7755102041 278.83169582 29.1836734694 278.600395163 29.5918367347 278.337770807 C 30.0 278.075146451 30.4081632653 277.781182262 30.8163265306 277.442639776 C 31.2244897959 277.104097291 31.6326530612 276.721053879 32.0408163265 276.271609568 C 32.4489795918 275.822165257 32.8571428571 275.306666971 33.2653061224 274.686515806 C 33.6734693878 274.06636464 34.0816326531 273.342675317 34.4897959184 272.442001081 C 34.8979591837 271.541326846 35.306122449 270.46689359 35.7142857143 269.066575153 C 36.1224489796 267.666256717 36.5306122449 265.946668845 36.9387755102 263.577953065 C 37.3469387755 261.209237285 37.7551020408 258.149949434 38.1632653061 253.961119228 C 38.5714285714 249.772289021 38.9795918367 243.782102278 39.387755102 239.81371874 C 39.7959183673 235.845335201 40.2040816327 236.756121085 40.612244898 241.568885473 C 41.0204081633 246.381649861 41.4285714286 252.44950399 41.8367346939 256.676244604 C 42.2448979592 260.902985218 42.6530612245 263.918419917 43.0612244898 266.265907995 C 43.4693877551 268.613396074 43.8775510204 270.311350066 44.2857142857 271.698275259 C 44.693877551 273.085200453 45.1020408163 274.149154226 45.5102040816 275.043576002 C 45.9183673469 275.937997778 46.3265306122 276.657313427 46.7346938776 277.2755843 C 47.1428571429 277.893855174 47.5510204082 278.408643582 47.9591836735 278.859013144 C 48.3673469388 279.309382707 48.7755102041 279.694160706 49.1836734694 280.035618503 C 49.5918367347 280.3770763 50.0 280.674587175 50.4081632653 280.941687031 C 50.8163265306 281.208786887 51.2244897959 281.445108608 51.6326530612 281.659319724 C 52.0408163265 281.87353084 52.4489795918 282.065399446 52.8571428571 282.240719274 C 53.2653061224 282.416039103 53.6734693878 282.574654471 54.0816326531 282.720579168 C 54.4897959184 282.866503866 54.8979591837 282.999628152 55.306122449 283.1228178 C 55.7142857143 283.246007447 56.1224489796 283.359182002 56.5306122449 283.464440826 C 56.9387755102 283.56969965 57.3469387755 283.666981852 57.7551020408 283.757859764 C 58.1632653061 283.848737675 58.5714285714 283.933163993 58.9795918367 284.012339203 C 59.387755102 284.091514412 59.7959183673 284.165400962 60.2040816327 284.234931023 C 60.612244898 284.304461084 61.0204081633 284.369604303 61.4285714286 284.431095369 C 61.8367346939 284.492586435 62.2448979592 284.550400435 62.6530612245 284.605124137 C 63.0612244898 284.659847839 63.4693877551 284.711460524 63.8775510204 284.760436412 C 64.2857142857 284.8094123 64.693877551 284.855733961 65.1020408163 284.899788765 C 65.5102040816 284.94384357 65.9183673469 284.985616709 66.3265306122 285.025427677 C 66.7346938776 285.065238645 67.1428571429 285.10307475 67.5510204082 285.13920182 C 67.9591836735 285.175328891 68.3673469388 285.209735966 68.7755102041 285.242645998 C 69.1836734694 285.275556031 69.5918367347 285.306959488 70.0 285.337044737"
       style="opacity:1;fill:none;fill-opacity:1;stroke:#000000;stroke-width:0.69999998;stroke-linecap:round;stroke-linejoin:round;stroke-miterlimit:4;stroke-dasharray:2.79999993,1.39999996,0.69999998,1.39999996;stroke-dashoffset:0;stroke-opacity:1;paint-order:markers fill stroke" />
  </g>
</svg>
