<?xml version="1.0" encoding="UTF-8" standalone="no"?>
<!-- Created with Inkscape (http://www.inkscape.org/) -->

<svg
   xmlns:dc="http://purl.org/dc/elements/1.1/"
   xmlns:cc="http://creativecommons.org/ns#"
   xmlns:rdf="http://www.w3.org/1999/02/22-rdf-syntax-ns#"
   xmlns:svg="http://www.w3.org/2000/svg"
   xmlns="http://www.w3.org/2000/svg"
   xmlns:sodipodi="http://sodipodi.sourceforge.net/DTD/sodipodi-0.dtd"
   xmlns:inkscape="http://www.inkscape.org/namespaces/inkscape"
   width="255.76521pt"
   height="139.57996pt"
   viewBox="0 0 90.22828 49.240707"
   version="1.1"
   id="svg4952"
   inkscape:version="0.91 r13725"
   sodipodi:docname="14.svg">
  <sodipodi:namedview
     id="base"
     pagecolor="#ffffff"
     bordercolor="#666666"
     borderopacity="1.0"
     inkscape:pageopacity="0.0"
     inkscape:pageshadow="2"
     inkscape:zoom="3.0883392"
     inkscape:cx="156.24531"
     inkscape:cy="96.327022"
     inkscape:document-units="mm"
     inkscape:current-layer="layer2"
     showgrid="true"
     units="pt"
     inkscape:window-width="1920"
     inkscape:window-height="1003"
     inkscape:window-x="-9"
     inkscape:window-y="-9"
     inkscape:window-maximized="1"
     inkscape:snap-text-baseline="true"
     fit-margin-top="0"
     fit-margin-left="0"
     fit-margin-right="0"
     fit-margin-bottom="0">
    <inkscape:grid
       spacingy="1"
       spacingx="1"
       units="mm"
       id="grid5497"
       type="xygrid"
       originx="-0.74644334"
       originy="-1.7850126" />
  </sodipodi:namedview>
  <defs
     id="defs4946" />
  <metadata
     id="metadata4949">
    <rdf:RDF>
      <cc:Work
         rdf:about="">
        <dc:format>image/svg+xml</dc:format>
        <dc:type
           rdf:resource="http://purl.org/dc/dcmitype/StillImage" />
        <dc:title></dc:title>
      </cc:Work>
    </rdf:RDF>
  </metadata>
  <g
     transform="translate(-0.74644338,-245.97428)"
     id="layer1"
     inkscape:groupmode="layer"
     inkscape:label="Layer 1">
    <path
       style="fill:none;stroke:#000000;stroke-width:0.088;stroke-linecap:butt;stroke-linejoin:miter;stroke-miterlimit:4;stroke-dasharray:0.70399999, 0.352;stroke-dashoffset:0;stroke-opacity:1"
       d="m 65,247.00002 0,40"
       id="path4522"
       inkscape:connector-curvature="0" />
    <path
       style="fill:none;stroke:#000000;stroke-width:0.088;stroke-linecap:butt;stroke-linejoin:miter;stroke-miterlimit:4;stroke-dasharray:0.70399999, 0.352;stroke-dashoffset:0;stroke-opacity:1"
       d="m 40,247.00002 0,40"
       id="path4522-9"
       inkscape:connector-curvature="0" />
    <path
       style="fill:none;stroke:#000000;stroke-width:0.088;stroke-linecap:butt;stroke-linejoin:miter;stroke-miterlimit:4;stroke-dasharray:0.70399999, 0.352;stroke-dashoffset:0;stroke-opacity:1"
       d="m 15,257.00002 75,0"
       id="path4522-5"
       inkscape:connector-curvature="0" />
    <path
       style="fill:none;stroke:#000000;stroke-width:0.088;stroke-linecap:butt;stroke-linejoin:miter;stroke-miterlimit:4;stroke-dasharray:0.70399999, 0.352;stroke-dashoffset:0;stroke-opacity:1"
       d="m 14.999999,267.00002 75.000001,0"
       id="path4522-5-4"
       inkscape:connector-curvature="0" />
    <path
       style="fill:none;stroke:#000000;stroke-width:0.088;stroke-linecap:butt;stroke-linejoin:miter;stroke-miterlimit:4;stroke-dasharray:0.70399999, 0.352;stroke-dashoffset:0;stroke-opacity:1"
       d="m 15,277.00002 75.000001,0"
       id="path4522-5-5"
       inkscape:connector-curvature="0" />
    <path
       style="fill:none;stroke:#000000;stroke-width:0.17638887;stroke-linecap:round;stroke-linejoin:miter;stroke-miterlimit:4;stroke-dasharray:none;stroke-opacity:1"
       d="m 90,247.00002 0,40"
       id="path4528"
       inkscape:connector-curvature="0" />
    <path
       style="fill:none;stroke:#000000;stroke-width:0.17638887;stroke-linecap:round;stroke-linejoin:miter;stroke-miterlimit:4;stroke-dasharray:none;stroke-opacity:1"
       d="m 15,247.00002 0,40"
       id="path4528-7"
       inkscape:connector-curvature="0" />
    <path
       style="fill:none;stroke:#000000;stroke-width:0.17638887;stroke-linecap:round;stroke-linejoin:miter;stroke-miterlimit:4;stroke-dasharray:none;stroke-opacity:1"
       d="m 15,247.00002 75,0"
       id="path4528-9"
       inkscape:connector-curvature="0" />
    <path
       style="fill:none;stroke:#000000;stroke-width:0.17638887;stroke-linecap:round;stroke-linejoin:miter;stroke-miterlimit:4;stroke-dasharray:none;stroke-opacity:1"
       d="m 15,287.00002 75.000001,0"
       id="path4528-9-8"
       inkscape:connector-curvature="0" />
    <path
       id="path4076"
       title="(sin((1+0.15)*x)-exp(-0.05*x)*sin(x))*0.65"
       d="m 15,267.00002 c 0.252525,-0.61899 0.505051,-1.40454 0.757576,-1.45762 0.252525,-0.0531 0.50505,0.69015 0.757576,2.03756 0.252525,1.34741 0.50505,3.23065 0.757575,4.4453 0.252526,1.21465 0.505051,1.63908 0.757576,0.61693 0.252525,-1.02216 0.505051,-3.5123 0.757576,-6.46866 0.252525,-2.95636 0.50505,-6.25699 0.757576,-8.11827 0.252525,-1.86129 0.50505,-2.14773 0.757575,-0.35785 0.252526,1.78989 0.505051,5.64277 0.757576,9.89924 0.252525,4.25647 0.505051,8.74947 0.757576,11.20509 0.252525,2.45562 0.50505,2.72688 0.757576,0.41584 0.252525,-2.31104 0.50505,-7.16246 0.757575,-12.38682 0.252526,-5.22437 0.505051,-10.61912 0.757576,-13.53852 0.252525,-2.9194 0.505051,-3.20944 0.757576,-0.55843 0.252525,2.65101 0.50505,8.17743 0.757576,14.04171 0.252525,5.86428 0.50505,11.83823 0.757575,15.03876 0.252526,3.20054 0.505051,3.47251 0.757576,0.6007 0.252525,-2.8718 0.505051,-8.80155 0.757576,-15.00221 0.252525,-6.20067 0.50505,-12.42797 0.757576,-15.70007 0.252525,-3.2721 0.50505,-3.43928 0.757575,-0.41281 0.252526,3.02648 0.505051,9.14297 0.757576,15.41399 0.252525,6.27102 0.505051,12.44506 0.757576,15.57444 0.252525,3.12938 0.50505,3.07657 0.757576,-0.0792 0.252525,-3.15576 0.50505,-9.29463 0.757575,-15.41418 0.252526,-6.11955 0.505051,-11.96891 0.757576,-14.75475 0.252525,-2.78585 0.505051,-2.38914 0.757576,0.89773 0.252525,3.28688 0.50505,9.3289 0.757576,15.12081 0.252525,5.79192 0.50505,11.09024 0.757575,13.35871 0.252526,2.26847 0.505051,1.41207 0.757576,-2.02167 0.252525,-3.43375 0.505051,-9.29541 0.757576,-14.62673 0.252525,-5.33133 0.50505,-9.90182 0.757576,-11.51493 0.252525,-1.61311 0.50505,-0.20227 0.757575,3.3963 0.252526,3.59857 0.505051,9.22197 0.757576,13.9979 0.252525,4.77593 0.505051,8.4915 0.757576,9.35171 0.252525,0.86021 0.505051,-1.16984 0.757576,-4.94405 0.252525,-3.7742 0.50505,-9.11732 0.757576,-13.27479 0.252525,-4.15747 0.50505,-6.93764 0.757575,-6.98879 0.252526,-0.0512 0.505051,2.62804 0.757576,6.57483 0.252525,3.9468 0.505051,8.9753 0.757576,12.47617 0.252525,3.50088 0.50505,5.30656 0.757576,4.53197 0.252525,-0.7746 0.50505,-4.09665 0.757575,-8.1953 0.252526,-4.09864 0.505051,-8.77946 0.757576,-11.60417 0.252525,-2.82471 0.505051,-3.65196 0.757576,-2.07038 0.252525,1.58158 0.50505,5.50561 0.757576,9.71635 0.252525,4.21074 0.50505,8.50801 0.757575,10.65009 0.252526,2.14208 0.505051,2.01547 0.757576,-0.32416 0.252525,-2.33962 0.505051,-6.79395 0.757576,-11.05896 0.252525,-4.265 0.50505,-8.13795 0.757576,-9.59987 0.252525,-1.46192 0.50505,-0.42824 0.757575,2.59618 0.252526,3.02442 0.505051,7.91195 0.757576,12.15795 0.252525,4.24599 0.505051,7.64888 0.757576,8.43916 0.252525,0.79028 0.50505,-1.08697 0.757576,-4.7046 0.252525,-3.61763 0.50505,-8.82198 0.757575,-12.96412 0.252526,-4.14215 0.505051,-7.02563 0.757576,-7.15725 0.252525,-0.13161 0.505051,2.5136 0.757576,6.6201 0.252525,4.1065 0.50505,9.49848 0.757576,13.44492 0.252525,3.94645 0.50505,6.26011 0.757575,5.74995 0.252526,-0.51015 0.505051,-3.83919 0.757576,-8.32246 0.252525,-4.48327 0.505051,-9.92713 0.757576,-13.5838 0.252525,-3.65667 0.50505,-5.35221 0.757576,-4.2214 0.252525,1.13082 0.50505,5.0536 0.757575,9.79803 0.252526,4.74442 0.505051,10.1036 0.757576,13.37887 0.252525,3.27527 0.505051,4.30997 0.757576,2.58464 0.252525,-1.72532 0.50505,-6.14767 0.757576,-11.03758 0.252525,-4.88991 0.50505,-10.03199 0.757575,-12.84092 0.252526,-2.80894 0.505051,-3.14896 0.757576,-0.86139 0.252525,2.28757 0.505051,7.11238 0.757576,12.03478 0.252525,4.9224 0.505051,9.72326 0.757576,11.9912 0.252525,2.26794 0.50505,1.89131 0.757576,-0.91904 0.252525,-2.81034 0.50505,-7.93839 0.757575,-12.78504 0.252526,-4.84666 0.505051,-9.19376 0.757576,-10.85919 0.252525,-1.66544 0.505051,-0.56434 0.757576,2.72123 0.252525,3.28558 0.50505,8.61611 0.757576,13.2851 0.252525,4.66899 0.50505,8.4638 0.757575,9.48044 0.252526,1.01664 0.505051,-0.80091 0.757576,-4.50558 0.252525,-3.70467 0.505051,-9.13599 0.757576,-13.53289 0.252525,-4.3969 0.50505,-7.55662 0.757576,-7.89468 0.252525,-0.33807 0.50505,2.17129 0.757575,6.23024 0.252526,4.05896 0.505051,9.48911 0.757576,13.5279 0.252525,4.03878 0.505051,6.49737 0.757576,6.14418 0.252525,-0.35318 0.50505,-3.51298 0.757576,-7.85317 0.252525,-4.34019 0.50505,-9.66782 0.757575,-13.2716 0.252526,-3.60377 0.505051,-5.31252 0.757576,-4.27245 0.252525,1.04006 0.505051,4.79284 0.757576,9.33388 0.252525,4.54103 0.50505,9.66651 0.757576,12.76816 0.252525,3.10164 0.50505,4.02927 0.757575,2.32317 0.252526,-1.70611 0.505051,-5.97963 0.757576,-10.6351 0.252525,-4.65547 0.505051,-9.48224 0.757576,-12.02499 0.252525,-2.54275 0.50505,-2.67522 0.757576,-0.33937 0.252525,2.33585 0.50505,7.04483 0.757575,11.72403 0.252526,4.67921 0.505051,9.11531 0.757576,11.05333 0.252525,1.93802 0.505051,1.27802 0.757576,-1.63716 0.252525,-2.91518 0.50505,-7.96352 0.757576,-12.57343 0.252525,-4.60992 0.50505,-8.56967 0.757575,-9.86857 0.252526,-1.2989 0.505051,0.13477 0.757576,3.56637 0.252525,3.4316 0.505051,8.71481 0.757576,13.16224 0.252525,4.44744 0.50505,7.85321 0.757576,8.49052 0.252525,0.6373 0.50505,-1.53601 0.757575,-5.41037 0.252526,-3.87437 0.505051,-9.28225 0.757576,-13.47607 0.252525,-4.19382 0.505051,-6.97775 0.757576,-6.94329"
       style="opacity:1;fill:none;fill-opacity:1;stroke:#000000;stroke-width:0.35277778;stroke-linecap:round;stroke-linejoin:round;stroke-miterlimit:4;stroke-dasharray:none;stroke-dashoffset:0;stroke-opacity:1;paint-order:markers fill stroke"
       inkscape:connector-curvature="0" />
    <g
       inkscape:groupmode="layer"
       id="layer2"
       inkscape:label="Надписи">
      <text
         xml:space="preserve"
         style="font-style:normal;font-variant:normal;font-weight:normal;font-stretch:normal;font-size:2.82222223px;line-height:1.25;font-family:'Times New Roman';-inkscape-font-specification:'Times New Roman, Normal';text-align:start;letter-spacing:0px;word-spacing:0px;writing-mode:lr-tb;text-anchor:start;fill:#000000;fill-opacity:1;stroke:none;stroke-width:0.26458332"
         x="14"
         y="291.00003"
         id="text4906"><tspan
           sodipodi:role="line"
           id="tspan4904"
           x="14"
           y="291.00003"
           style="stroke-width:0.26458332">$0$</tspan></text>
      <text
         xml:space="preserve"
         style="font-style:normal;font-variant:normal;font-weight:normal;font-stretch:normal;font-size:2.82222223px;line-height:1.25;font-family:'Times New Roman';-inkscape-font-specification:'Times New Roman, Normal';text-align:start;letter-spacing:0px;word-spacing:0px;writing-mode:lr-tb;text-anchor:start;fill:#000000;fill-opacity:1;stroke:none;stroke-width:0.26458332"
         x="39"
         y="291.00003"
         id="text4914"><tspan
           sodipodi:role="line"
           id="tspan4912"
           x="39"
           y="291.00003"
           style="stroke-width:0.26458332">$5$</tspan></text>
      <text
         xml:space="preserve"
         style="font-style:normal;font-variant:normal;font-weight:normal;font-stretch:normal;font-size:2.82222223px;line-height:1.25;font-family:'Times New Roman';-inkscape-font-specification:'Times New Roman, Normal';text-align:start;letter-spacing:0px;word-spacing:0px;writing-mode:lr-tb;text-anchor:start;fill:#000000;fill-opacity:1;stroke:none;stroke-width:0.26458332"
         x="64"
         y="291.00003"
         id="text4918"><tspan
           sodipodi:role="line"
           id="tspan4916"
           x="64"
           y="291.00003"
           style="stroke-width:0.26458332">$10$</tspan></text>
      <text
         xml:space="preserve"
         style="font-style:normal;font-variant:normal;font-weight:normal;font-stretch:normal;font-size:2.82222223px;line-height:1.25;font-family:'Times New Roman';-inkscape-font-specification:'Times New Roman, Normal';text-align:start;letter-spacing:0px;word-spacing:0px;writing-mode:lr-tb;text-anchor:start;fill:#000000;fill-opacity:1;stroke:none;stroke-width:0.26458332"
         x="89"
         y="291.00003"
         id="text4922"><tspan
           sodipodi:role="line"
           id="tspan4920"
           x="89"
           y="291.00003"
           style="stroke-width:0.26458332">$15$</tspan></text>
      <text
         xml:space="preserve"
         style="font-style:normal;font-variant:normal;font-weight:normal;font-stretch:normal;font-size:2.82222223px;line-height:1.25;font-family:'Times New Roman';-inkscape-font-specification:'Times New Roman, Normal';text-align:start;letter-spacing:0px;word-spacing:0px;writing-mode:lr-tb;text-anchor:start;fill:#000000;fill-opacity:1;stroke:none;stroke-width:0.26458332"
         x="6"
         y="287.00003"
         id="text4926"><tspan
           sodipodi:role="line"
           id="tspan4924"
           x="6"
           y="287.00003"
           style="stroke-width:0.26458332">$-0,4$</tspan></text>
      <text
         xml:space="preserve"
         style="font-style:normal;font-variant:normal;font-weight:normal;font-stretch:normal;font-size:2.82222223px;line-height:1.25;font-family:'Times New Roman';-inkscape-font-specification:'Times New Roman, Normal';text-align:start;letter-spacing:0px;word-spacing:0px;writing-mode:lr-tb;text-anchor:start;fill:#000000;fill-opacity:1;stroke:none;stroke-width:0.26458332"
         x="11"
         y="268.00003"
         id="text4930"><tspan
           sodipodi:role="line"
           id="tspan4928"
           x="11"
           y="268.00003"
           style="stroke-width:0.26458332">$0$</tspan></text>
      <text
         xml:space="preserve"
         style="font-style:normal;font-variant:normal;font-weight:normal;font-stretch:normal;font-size:2.82222223px;line-height:1.25;font-family:'Times New Roman';-inkscape-font-specification:'Times New Roman, Normal';text-align:start;letter-spacing:0px;word-spacing:0px;writing-mode:lr-tb;text-anchor:start;fill:#000000;fill-opacity:1;stroke:none;stroke-width:0.26458332"
         x="9"
         y="248.00002"
         id="text4934"><tspan
           sodipodi:role="line"
           id="tspan4932"
           x="9"
           y="248.00002"
           style="stroke-width:0.26458332">$0.4$</tspan></text>
      <text
         xml:space="preserve"
         style="font-style:normal;font-variant:normal;font-weight:normal;font-stretch:normal;font-size:2.82222223px;line-height:1.25;font-family:'Times New Roman';-inkscape-font-specification:'Times New Roman, Normal';text-align:start;letter-spacing:0px;word-spacing:0px;writing-mode:lr-tb;text-anchor:start;fill:#000000;fill-opacity:1;stroke:none;stroke-width:0.26458332"
         x="1.0000039"
         y="267.00003"
         id="text4938"><tspan
           sodipodi:role="line"
           id="tspan4936"
           x="1.0000039"
           y="267.00003"
           style="stroke-width:0.26458332">$u(x)$</tspan></text>
      <path
         style="fill:none;stroke:#000000;stroke-width:0.35277777;stroke-linecap:round;stroke-linejoin:miter;stroke-miterlimit:4;stroke-dasharray:none;stroke-opacity:1"
         d="m 1.000004,269.00004 5.9999998,0"
         id="path4940"
         inkscape:connector-curvature="0" />
      <text
         xml:space="preserve"
         style="font-style:normal;font-variant:normal;font-weight:normal;font-stretch:normal;font-size:2.82222223px;line-height:1.25;font-family:'Times New Roman';-inkscape-font-specification:'Times New Roman, Normal';text-align:start;letter-spacing:0px;word-spacing:0px;writing-mode:lr-tb;text-anchor:start;fill:#000000;fill-opacity:1;stroke:none;stroke-width:0.26458332"
         x="52"
         y="295.00003"
         id="text4944"><tspan
           sodipodi:role="line"
           id="tspan4942"
           x="52"
           y="295.00003"
           style="stroke-width:0.26458332">$x$</tspan></text>
      <text
         xml:space="preserve"
         style="font-style:normal;font-variant:normal;font-weight:normal;font-stretch:normal;font-size:2.82222223px;line-height:1.25;font-family:'Times New Roman';-inkscape-font-specification:'Times New Roman, Normal';text-align:start;letter-spacing:0px;word-spacing:0px;writing-mode:lr-tb;text-anchor:start;fill:#000000;fill-opacity:1;stroke:none;stroke-width:0.26458332"
         x="6"
         y="278.00003"
         id="text4926-7"><tspan
           sodipodi:role="line"
           id="tspan4924-5"
           x="6"
           y="278.00003"
           style="stroke-width:0.26458332">$-0,2$</tspan></text>
      <text
         xml:space="preserve"
         style="font-style:normal;font-variant:normal;font-weight:normal;font-stretch:normal;font-size:2.82222223px;line-height:1.25;font-family:'Times New Roman';-inkscape-font-specification:'Times New Roman, Normal';text-align:start;letter-spacing:0px;word-spacing:0px;writing-mode:lr-tb;text-anchor:start;fill:#000000;fill-opacity:1;stroke:none;stroke-width:0.26458332"
         x="9"
         y="258.00003"
         id="text4926-4"><tspan
           sodipodi:role="line"
           id="tspan4924-2"
           x="9"
           y="258.00003"
           style="stroke-width:0.26458332">$0,2$</tspan></text>
    </g>
  </g>
</svg>
