<?xml version="1.0" encoding="UTF-8" standalone="no"?>
<!-- Created with Inkscape (http://www.inkscape.org/) -->

<svg
   xmlns:dc="http://purl.org/dc/elements/1.1/"
   xmlns:cc="http://creativecommons.org/ns#"
   xmlns:rdf="http://www.w3.org/1999/02/22-rdf-syntax-ns#"
   xmlns:svg="http://www.w3.org/2000/svg"
   xmlns="http://www.w3.org/2000/svg"
   xmlns:sodipodi="http://sodipodi.sourceforge.net/DTD/sodipodi-0.dtd"
   xmlns:inkscape="http://www.inkscape.org/namespaces/inkscape"
   sodipodi:docname="2_5_3.svg"
   inkscape:version="0.91 r13725"
   id="svg1996"
   version="1.1"
   viewBox="0 0 72.151232 44.573"
   height="4.4573002cm"
   width="7.2151232cm">
  <sodipodi:namedview
     inkscape:window-maximized="1"
     inkscape:window-y="-9"
     inkscape:window-x="-9"
     inkscape:window-height="1003"
     inkscape:window-width="1920"
     units="cm"
     showgrid="true"
     inkscape:current-layer="layer2"
     inkscape:document-units="mm"
     inkscape:cy="53.500139"
     inkscape:cx="1.5943501"
     inkscape:zoom="3.108143"
     inkscape:pageshadow="2"
     inkscape:pageopacity="0.0"
     borderopacity="1.0"
     bordercolor="#666666"
     pagecolor="#ffffff"
     id="base"
     inkscape:snap-text-baseline="true"
     fit-margin-top="0"
     fit-margin-left="0"
     fit-margin-right="0"
     fit-margin-bottom="0">
    <inkscape:grid
       spacingy="0.99999999"
       spacingx="0.99999999"
       units="mm"
       id="grid2541"
       type="xygrid"
       originx="-3.111621"
       originy="1.8909241e-06" />
  </sodipodi:namedview>
  <defs
     id="defs1990">
    <marker
       inkscape:stockid="Arrow1Mend"
       orient="auto"
       refY="0"
       refX="0"
       id="marker2879"
       style="overflow:visible"
       inkscape:isstock="true">
      <path
         id="path2877"
         d="M 0,0 5,-5 -12.5,0 5,5 Z"
         style="fill:#000000;fill-opacity:1;fill-rule:evenodd;stroke:#000000;stroke-width:1pt;stroke-opacity:1"
         transform="matrix(-0.4,0,0,-0.4,-4,0)"
         inkscape:connector-curvature="0" />
    </marker>
    <marker
       inkscape:collect="always"
       inkscape:isstock="true"
       style="overflow:visible"
       id="Arrow1Mend"
       refX="0"
       refY="0"
       orient="auto"
       inkscape:stockid="Arrow1Mend">
      <path
         transform="matrix(-0.4,0,0,-0.4,-4,0)"
         style="fill:#000000;fill-opacity:1;fill-rule:evenodd;stroke:#000000;stroke-width:1pt;stroke-opacity:1"
         d="M 0,0 5,-5 -12.5,0 5,5 Z"
         id="path2556"
         inkscape:connector-curvature="0" />
    </marker>
    <clipPath
       id="clipPath4191"
       clipPathUnits="userSpaceOnUse">
      <path
         inkscape:connector-curvature="0"
         id="path4193"
         d="m 390.098,121.531 5009.01,0 0,3320.08 -5009.01,0 0,-3320.08 z" />
    </clipPath>
    <clipPath
       id="clipPath4207"
       clipPathUnits="userSpaceOnUse">
      <path
         inkscape:connector-curvature="0"
         id="path4209"
         d="m 44.3281,46.168 5461.34,0 0,3457.67 -5461.34,0 0,-3457.67 z" />
    </clipPath>
    <clipPath
       id="clipPath4217"
       clipPathUnits="userSpaceOnUse">
      <path
         inkscape:connector-curvature="0"
         id="path4219"
         d="m 2828.2,1402.64 106.391,0 0,132.988 -106.391,0 0,-132.988 z" />
    </clipPath>
    <clipPath
       id="clipPath4227"
       clipPathUnits="userSpaceOnUse">
      <path
         inkscape:connector-curvature="0"
         id="path4229"
         d="m 44.3281,46.168 5461.34,0 0,3457.67 -5461.34,0 0,-3457.67 z" />
    </clipPath>
    <clipPath
       id="clipPath4311"
       clipPathUnits="userSpaceOnUse">
      <path
         inkscape:connector-curvature="0"
         id="path4313"
         d="m 168.449,55.0313 79.793,0 0,141.855 -79.793,0 0,-141.855 z" />
    </clipPath>
    <clipPath
       id="clipPath4321"
       clipPathUnits="userSpaceOnUse">
      <path
         inkscape:connector-curvature="0"
         id="path4323"
         d="m 44.3281,46.168 5461.34,0 0,3457.67 -5461.34,0 0,-3457.67 z" />
    </clipPath>
    <clipPath
       id="clipPath4333"
       clipPathUnits="userSpaceOnUse">
      <path
         inkscape:connector-curvature="0"
         id="path4335"
         d="m 168.449,462.859 79.793,0 0,141.852 -79.793,0 0,-141.852 z" />
    </clipPath>
    <clipPath
       id="clipPath4343"
       clipPathUnits="userSpaceOnUse">
      <path
         inkscape:connector-curvature="0"
         id="path4345"
         d="m 44.3281,46.168 5461.34,0 0,3457.67 -5461.34,0 0,-3457.67 z" />
    </clipPath>
    <clipPath
       id="clipPath4355"
       clipPathUnits="userSpaceOnUse">
      <path
         inkscape:connector-curvature="0"
         id="path4357"
         d="m 168.449,879.555 79.793,0 0,141.852 -79.793,0 0,-141.852 z" />
    </clipPath>
    <clipPath
       id="clipPath4365"
       clipPathUnits="userSpaceOnUse">
      <path
         inkscape:connector-curvature="0"
         id="path4367"
         d="m 44.3281,46.168 5461.34,0 0,3457.67 -5461.34,0 0,-3457.67 z" />
    </clipPath>
    <clipPath
       id="clipPath4377"
       clipPathUnits="userSpaceOnUse">
      <path
         inkscape:connector-curvature="0"
         id="path4379"
         d="m 168.449,1287.38 79.793,0 0,141.855 -79.793,0 0,-141.855 z" />
    </clipPath>
    <clipPath
       id="clipPath4387"
       clipPathUnits="userSpaceOnUse">
      <path
         inkscape:connector-curvature="0"
         id="path4389"
         d="m 44.3281,46.168 5461.34,0 0,3457.67 -5461.34,0 0,-3457.67 z" />
    </clipPath>
  </defs>
  <metadata
     id="metadata1993">
    <rdf:RDF>
      <cc:Work
         rdf:about="">
        <dc:format>image/svg+xml</dc:format>
        <dc:type
           rdf:resource="http://purl.org/dc/dcmitype/StillImage" />
        <dc:title></dc:title>
      </cc:Work>
    </rdf:RDF>
  </metadata>
  <g
     transform="translate(-3.1116211,-252.42702)"
     id="layer1"
     inkscape:groupmode="layer"
     inkscape:label="Layer 1">
    <path
       inkscape:connector-curvature="0"
       id="path2543"
       d="m 8.9999999,277.00002 65.6898501,0"
       style="fill:none;stroke:#000000;stroke-width:0.26458333;stroke-linecap:butt;stroke-linejoin:miter;stroke-miterlimit:4;stroke-dasharray:none;stroke-opacity:1;marker-end:url(#Arrow1Mend)" />
    <path
       inkscape:connector-curvature="0"
       id="path2545"
       d="m 8.9999999,297.00002 0,-44"
       style="fill:none;stroke:#000000;stroke-width:0.26458333;stroke-linecap:butt;stroke-linejoin:miter;stroke-miterlimit:4;stroke-dasharray:none;stroke-opacity:1;marker-end:url(#marker2879)" />
    <path
       style="fill:none;stroke:#000000;stroke-width:0.17638889;stroke-linecap:butt;stroke-linejoin:miter;stroke-miterlimit:4;stroke-dasharray:1.05833334, 0.35277778;stroke-dashoffset:0;stroke-opacity:1"
       d="m 9.3210294,258.02731 34.4205936,0"
       id="path3959"
       inkscape:connector-curvature="0" />
    <path
       style="fill:none;stroke:#000000;stroke-width:0.17638889;stroke-linecap:butt;stroke-linejoin:miter;stroke-miterlimit:4;stroke-dasharray:1.05833335, 0.35277778;stroke-dashoffset:0;stroke-opacity:1"
       d="m 8.743176,261.7432 10.431763,0"
       id="path3961"
       inkscape:connector-curvature="0" />
    <g
       inkscape:groupmode="layer"
       id="layer2"
       inkscape:label="Надписи">
      <text
         xml:space="preserve"
         style="font-style:normal;font-variant:normal;font-weight:normal;font-stretch:normal;font-size:2.11666656px;line-height:1.25;font-family:'Times New Roman';-inkscape-font-specification:'Times New Roman, Normal';text-align:start;letter-spacing:0px;word-spacing:0px;writing-mode:lr-tb;text-anchor:start;fill:#000000;fill-opacity:1;stroke:none;stroke-width:0.26458332"
         x="10"
         y="255.00002"
         id="text3972"><tspan
           sodipodi:role="line"
           id="tspan3970"
           x="10"
           y="255.00002"
           style="stroke-width:0.26458332">$U_C$</tspan></text>
      <text
         xml:space="preserve"
         style="font-style:normal;font-variant:normal;font-weight:normal;font-stretch:normal;font-size:2.11666656px;line-height:1.25;font-family:'Times New Roman';-inkscape-font-specification:'Times New Roman, Normal';text-align:start;letter-spacing:0px;word-spacing:0px;writing-mode:lr-tb;text-anchor:start;fill:#000000;fill-opacity:1;stroke:none;stroke-width:0.26458332"
         x="71"
         y="280.00003"
         id="text3976"><tspan
           sodipodi:role="line"
           id="tspan3974"
           x="71"
           y="280.00003"
           style="stroke-width:0.26458332">$t$</tspan></text>
      <text
         xml:space="preserve"
         style="font-style:normal;font-variant:normal;font-weight:normal;font-stretch:normal;font-size:2.11666656px;line-height:1.25;font-family:'Times New Roman';-inkscape-font-specification:'Times New Roman, Normal';text-align:start;letter-spacing:0px;word-spacing:0px;writing-mode:lr-tb;text-anchor:start;fill:#000000;fill-opacity:1;stroke:none;stroke-width:0.26458332"
         x="3"
         y="258.48636"
         id="text3980"><tspan
           sodipodi:role="line"
           id="tspan3978"
           x="3"
           y="258.48636"
           style="stroke-width:0.26458332">$U_{\infty}$</tspan></text>
      <text
         xml:space="preserve"
         style="font-style:normal;font-variant:normal;font-weight:normal;font-stretch:normal;font-size:2.11666656px;line-height:1.25;font-family:'Times New Roman';-inkscape-font-specification:'Times New Roman, Normal';text-align:start;letter-spacing:0px;word-spacing:0px;writing-mode:lr-tb;text-anchor:start;fill:#000000;fill-opacity:1;stroke:none;stroke-width:0.26458332"
         x="3"
         y="271.00003"
         id="text3984"><tspan
           sodipodi:role="line"
           id="tspan3982"
           x="3"
           y="271.00003"
           style="stroke-width:0.26458332">$U_k$</tspan></text>
      <text
         xml:space="preserve"
         style="font-style:normal;font-variant:normal;font-weight:normal;font-stretch:normal;font-size:2.11666656px;line-height:1.25;font-family:'Times New Roman';-inkscape-font-specification:'Times New Roman, Normal';text-align:start;letter-spacing:0px;word-spacing:0px;writing-mode:lr-tb;text-anchor:start;fill:#000000;fill-opacity:1;stroke:none;stroke-width:0.26458332"
         x="-0.38666639"
         y="263.00003"
         id="text3988"><tspan
           sodipodi:role="line"
           id="tspan3986"
           x="-0.38666639"
           y="263.00003"
           style="stroke-width:0.26458332">$U_{k+n}$</tspan></text>
      <text
         xml:space="preserve"
         style="font-style:normal;font-variant:normal;font-weight:normal;font-stretch:normal;font-size:2.11666656px;line-height:1.25;font-family:'Times New Roman';-inkscape-font-specification:'Times New Roman, Normal';text-align:start;letter-spacing:0px;word-spacing:0px;writing-mode:lr-tb;text-anchor:start;fill:#000000;fill-opacity:1;stroke:none;stroke-width:0.26458332"
         x="63.999996"
         y="266.00003"
         id="text3992"><tspan
           sodipodi:role="line"
           id="tspan3990"
           x="63.999996"
           y="266.00003"
           style="stroke-width:0.26458332">$U_m$</tspan></text>
      <text
         xml:space="preserve"
         style="font-style:normal;font-variant:normal;font-weight:normal;font-stretch:normal;font-size:2.11666656px;line-height:1.25;font-family:'Times New Roman';-inkscape-font-specification:'Times New Roman, Normal';text-align:start;letter-spacing:0px;word-spacing:0px;writing-mode:lr-tb;text-anchor:start;fill:#000000;fill-opacity:1;stroke:none;stroke-width:0.26458332"
         x="63.999996"
         y="274.00003"
         id="text3996"><tspan
           sodipodi:role="line"
           id="tspan3994"
           x="63.999996"
           y="274.00003"
           style="stroke-width:0.26458332">$U_{m+n}$</tspan></text>
    </g>
    <path
       inkscape:connector-curvature="0"
       id="path4195"
       style="fill:none;stroke:#000000;stroke-width:0.17638889;stroke-linecap:butt;stroke-linejoin:round;stroke-miterlimit:10;stroke-dasharray:1.41111112, 0.70555556;stroke-dashoffset:0;stroke-opacity:1"
       d="m 9.0601812,277.09212 0.299439,-0.91003 0.26055,-0.75594 0.293014,-0.81207 0.2949808,-0.77869 0.29354,-0.73811 0.272164,-0.65306 0.2818,-0.64586 0.291449,-0.63705 0.290476,-0.60517 0.298856,-0.59293 0.263191,-0.4984 0.296306,-0.53578 0.29753,-0.51223 0.286716,-0.47027 0.260367,-0.4081 0.309578,-0.46296 0.262299,-0.37414 0.305063,-0.41518 0.270061,-0.35036 0.296318,-0.36694 0.28212,-0.33299 0.294386,-0.33127 0.27029,-0.29036 0.291585,-0.29892 0.302948,-0.29561 0.263602,-0.24554 0.28475,-0.25354 0.294237,-0.24954 0.287722,-0.23263 0.278463,-0.2149 0.309212,-0.22714 0.277777,-0.19456 0.296638,-0.19799 0.26886,-0.17123 0.293781,-0.17867 0.276519,-0.16038 0.289093,-0.16004 0.282464,-0.14906 0.295838,-0.14895 0.284978,-0.1366 0.29138,-0.13329 0.288979,-0.12597 0.265546,-0.11054 0.304182,-0.12094 0.27229,-0.10299 0.290237,-0.10494 0.277662,-0.0958 0.308526,-0.10128 0.267032,-0.0837 0.303154,-0.0907 0.276176,-0.0786 0.302125,-0.082 0.260859,-0.0677 0.296866,-0.0734 0.286922,-0.0677 0.286579,-0.0645 0.285664,-0.0613 0.274347,-0.0562 0.296638,-0.0578 0.282578,-0.0527 0.297667,-0.0528 0.269203,-0.0455 0.297667,-0.0481 0.285093,-0.0439 0.284521,-0.0418 0.296981,-0.0415 0.273547,-0.0366 0.280177,-0.0358 0.309441,-0.0375 0.280181,-0.0325 0.28646,-0.0316 0.29127,-0.0308 0.26783,-0.0269 0.28543,-0.0274 0.28338,-0.0259 0.30304,-0.0264 0.26738,-0.0223 0.30852,-0.0245 0.27846,-0.021 0.27538,-0.0199 0.2963,-0.0204 0.29743,-0.0195 0.27069,-0.0169 0.28738,-0.0171 0.28052,-0.016 0.30396,-0.0165 0.26303,-0.0137 0.30224,-0.0149 0.28395,-0.0134 0.28132,-0.0127 0.28155,-0.012 0.28715,-0.0118 0.30429,-0.0119 0.27904,-0.0104 0.27549,-0.01 0.29446,-0.01 0.29378,-0.009 0.26383,-0.008 0.3123,-0.009 0.26143,-0.007 0.30579,-0.008 0.29172,-0.007 0.26063,-0.006 0.29298,-0.007 0.29492,-0.007 0.29355,-0.006 0.27229,-0.005 0.28167,-0.005 0.29149,-0.005 0.29058,-0.005 0.29881,-0.005 0.26315,-0.004 0.29629,-0.004 0.29755,-0.004 0.2867,-0.004 0.2604,-0.003 0.30955,-0.004 0.26235,-0.003 0.30509,-0.003"
       sodipodi:nodetypes="cccccccccccccccccccccccccccccccccccccccccccccccccccccccccccccccccccccccccccccccccccccccccccccccccccccccccccccccccccccccc" />
    <path
       inkscape:connector-curvature="0"
       id="path4197"
       style="fill:none;stroke:#000000;stroke-width:0.26458332;stroke-linecap:butt;stroke-linejoin:round;stroke-miterlimit:10;stroke-dasharray:none;stroke-opacity:1"
       d="m 9.2293694,277.04336 0.299439,-0.64277 0.130303,-0.51531 0.130247,-0.47245 0.07327,-0.19285 0.07324,-0.11157 0.03661,-0.0193 0.03666,0.008 0.03661,0.0361 0.03661,0.0659 0.147485,0.5735 0.147496,1.03372 0.29354,2.80223 0.136065,1.19113 0.136099,0.81572 0.03518,0.12609 0.03523,0.0855 0.01764,0.0271 0.01759,0.016 0.01764,0.005 0.01759,-0.006 0.07046,-0.14049 0.07046,-0.32807 0.145702,-1.25525 0.145747,-1.91426 0.145221,-2.31172 0.145255,-2.37036 0.149451,-2.09442 0.149405,-1.3579 0.03287,-0.16815 0.03291,-0.11546 0.01647,-0.0371 0.01644,-0.0236 0.01647,-0.009 0.01644,0.005 0.06578,0.16232 0.06582,0.39209 0.148159,1.68449 0.148147,2.61282 0.148742,3.18974 0.148788,3.27137 0.143335,2.73581 0.143381,1.88591 0.0651,0.48167 0.06507,0.2164 0.01629,0.011 0.01626,-0.006 0.0163,-0.0241 0.01626,-0.0418 0.03256,-0.13652 0.03254,-0.20674 0.154766,-1.90422 0.154812,-3.19901 0.13115,-3.36212 0.131149,-3.54537 0.07626,-1.9753 0.07627,-1.80646 0.07627,-1.5591 0.07627,-1.24176 0.06751,-0.78772 0.06752,-0.46308 0.01687,-0.0625 0.01688,-0.0406 0.01687,-0.0186 0.01688,0.004 0.03376,0.0735 0.03376,0.16243 0.148159,1.73159 0.148159,3.19409 0.07051,1.91094 0.07055,2.07841 0.07055,2.17409 0.07051,2.19455 0.07358,2.22782 0.07355,2.07898 0.07358,1.84796 0.07367,1.54277 0.135082,1.83625 0.135208,0.33428 0.145838,-1.40862 0.145747,-3.07697 0.0757,-2.12516 0.07567,-2.38214 0.07579,-2.54537 0.07579,-2.60733 0.06584,-2.23833 0.06596,-2.13637 0.06584,-1.96798 0.06596,-1.73753 0.142318,-2.7157 0.142432,-0.98079 0.147119,0.98925 0.147118,2.91059 0.0719,2.01063 0.07202,2.30612 0.0719,2.52011 0.0719,2.6439 0.06973,2.58596 0.06962,2.52411 0.0695,2.37584 0.06962,2.14508 0.154663,3.57692 0.154549,1.46368 0.139003,-0.72454 0.138774,-2.58871 0.07419,-2.04193 0.07419,-2.40834 0.07419,-2.68392 0.07407,-2.85755 0.06722,-2.64803 0.06722,-2.61681 0.06733,-2.50262 0.0671,-2.30829 0.07339,-2.21341 0.0735,-1.80647 0.0735,-1.32864 0.07339,-0.79732 0.03464,-0.18118 0.03452,-0.054 0.03452,0.0739 0.03464,0.20141 0.06905,0.77938 0.06916,1.25971 0.07224,1.7868 0.07236,2.20518 0.07224,2.54469 0.07224,2.79285 0.07064,2.87334 0.07064,2.91368 0.07064,2.8523 0.07053,2.69066 0.07407,2.54031 0.07396,2.16012 0.07396,1.69529 0.07385,1.16317 0.03566,0.35553 0.03555,0.2175 0.01795,0.0561 0.01783,0.0209 0.0088,-0.003 0.0089,-0.0116 0.0089,-0.0205 0.0089,-0.0293 0.07122,-0.55022 0.07122,-1.09613 0.07282,-1.64711 0.07293,-2.12035 0.07282,-2.51687 0.07282,-2.8212 0.07213,-2.99633 0.07236,-3.08492 0.07224,-3.06069 0.07224,-2.92454 0.06642,-2.47485 0.0663,-2.1918 0.06641,-1.83996 0.06642,-1.43015 0.07602,-1.07704 0.07602,-0.43336 0.07613,0.23023 0.07602,0.88705 0.06813,1.32282 0.06802,1.78028 0.06813,2.18141 0.06802,2.51279 0.07247,2.95369 0.07259,3.13088 0.07259,3.19317 0.07259,3.13796 0.06939,2.84441 0.06939,2.59116 0.0695,2.24938 0.06939,1.83072 0.07716,1.46618 0.07716,0.80988 0.0192,0.0951 0.0192,0.0514 0.01943,0.008 0.0192,-0.0363 0.03852,-0.20412 0.03864,-0.37732 0.06664,-1.05188 0.06676,-1.52838 0.06687,-1.95821 0.06676,-2.32815 0.07579,-2.99906 0.07567,-3.26313 0.0759,-3.39676 0.07579,-3.39402 0.06904,-2.97564 0.06904,-2.76028 0.06904,-2.45232 0.06904,-2.06161 0.07556,-1.72576 0.07556,-1.10493 0.03772,-0.3043 0.03784,-0.1342 0.01886,-0.003 0.01898,0.0405 0.01886,0.0833 0.01875,0.12609 0.06527,0.75857 0.06516,1.24176 0.06527,1.68884 0.06516,2.08652 0.0743,2.78211 0.07407,3.1119 0.0743,3.32212 0.07419,3.40477 0.07179,3.24404 0.07167,3.08206 0.07179,2.80849 0.07167,2.43363 0.143347,3.40393 0.143232,1.07712 0.142889,-1.40206 0.142775,-3.68301 0.06859,-2.44001 0.06859,-2.77193 0.0687,-3.01313 0.06847,-3.15557 0.07419,-3.4514 0.07419,-3.36407 0.07407,-3.147 0.07419,-2.8084 0.07064,-2.26211 0.07076,-1.77628 0.07064,-1.22771 0.07053,-0.63523 0.148834,0.67513 0.148833,3.27902 0.06721,2.22038 0.06744,2.58699 0.06721,2.87196 0.06733,3.06628 0.07453,3.49805 0.0743,3.48124 0.07442,3.33012 0.07442,3.04938 0.07133,2.54816 0.07133,2.09096 0.07122,1.55892 0.07122,0.9708 0.03555,0.25264 0.03555,0.0949 0.03567,-0.0638 0.03544,-0.22206 0.0711,-0.90979 0.07122,-1.50226 0.07419,-2.14469 0.0743,-2.65161 0.07419,-3.05709 0.0743,-3.34487 0.06847,-3.22472 0.06836,-3.25456 0.06847,-3.17774 0.06824,-2.9969 0.07007,-2.77903 0.07007,-2.39082 0.07007,-1.91998 0.06996,-1.38271 0.03875,-0.51497 0.03864,-0.3307 0.01932,-0.0951 0.01943,-0.0479 0.0096,-0.006 0.0097,0.006 0.0096,0.0175 0.0097,0.0294 0.07739,0.65729 0.07727,1.38443 0.07007,1.83367 0.06996,2.32086 0.0701,2.72885 0.0701,3.04376 0.0717,3.32978 0.0716,3.43106 0.0716,3.40911 0.0717,3.26496 0.0728,3.0516 0.0728,2.66791 0.0729,2.18496 0.0727,1.62041 0.067,0.93928 0.0669,0.38106 0.0671,-0.1895 0.0669,-0.75455 0.0714,-1.40009 0.0713,-1.96602 0.0713,-2.46252 0.0713,-2.87159 0.0709,-3.15362 0.0708,-3.34589 0.0709,-3.42066 0.0709,-3.37573 0.0757,-3.42705 0.0758,-3.10253 0.0758,-2.65339 0.0758,-2.09739 0.0668,-1.32098 0.0669,-0.78018 0.0168,-0.10734 0.0167,-0.0716 0.0167,-0.0359 0.0167,0 0.0334,0.10768 0.0335,0.25023 0.077,1.10905 0.0772,1.81069 0.0772,2.43735 0.0772,2.96306 0.0696,3.02366 0.0695,3.24964 0.0696,3.36579 0.0697,3.36795 0.0688,3.22255 0.0689,3.00601 0.0688,2.68962 0.0688,2.28381 0.14826,3.20237 0.14804,0.50735 0.0744,-0.8033 0.0744,-1.47883 0.0743,-2.09747 0.0743,-2.63542 0.0677,-2.78 0.0677,-3.05257 0.0677,-3.22769 0.0677,-3.29937 0.0718,-3.46455 0.0718,-3.30132 0.0719,-3.01885 0.0719,-2.62756 0.14026,-3.65625 0.14026,-1.31881 0.0759,0.34042 0.0761,1.07304 0.0759,1.76291 0.076,2.38168 0.0658,2.48707 0.0656,2.80372 0.0658,3.03588 0.0657,3.17637 0.0756,3.69683 0.0756,3.6079 0.0754,3.37512 0.0757,3.00756 0.071,2.38455 0.071,1.86943 0.071,1.28802 0.071,0.66118 0.14071,-0.61131 0.14061,-3.05912 0.0703,-2.33079 0.0705,-2.76298 0.0703,-3.09978 0.0704,-3.3291 0.0718,-3.51244 0.0717,-3.50479 0.0718,-3.37093 0.0719,-3.11556 0.0761,-2.89893 0.076,-2.36854 0.076,-1.74233 0.0761,-1.04549 0.0349,-0.23354 0.0349,-0.0757 0.0349,0.0829 0.035,0.24063 0.0697,0.94535 0.0697,1.5352 0.0689,2.04321 0.0688,2.49976 0.0689,2.87333 0.0688,3.15191 0.0736,3.55908 0.0736,3.62322 0.0736,3.55017 0.0736,3.34246 0.0735,3.00217 0.0735,2.55606 0.0734,2.01354 0.0734,1.39486 0.066,0.68123 0.066,0.11909 0.066,-0.44661 0.066,-0.99907 0.0781,-1.8556 0.0781,-2.5085 0.0781,-3.05481 0.0781,-3.47094 0.0654,-3.11715 0.0654,-3.21227 0.0654,-3.21135 0.0653,-3.11475 0.0765,-3.39562 0.0765,-2.99759 0.0764,-2.47702 0.0765,-1.85527 0.0729,-1.12094 0.073,-0.4433 0.0729,0.25069 0.0728,0.93564 0.0652,1.38648 0.0652,1.86419 0.0653,2.28657 0.065,2.64139 0.0733,3.29629 0.0733,3.52216 0.0733,3.6159 0.0732,3.57394 0.0737,3.41974 0.0738,3.11141 0.0736,2.68506 0.0737,2.15648 0.0735,1.54003 0.0733,0.87707 0.0184,0.11128 0.0183,0.0673 0.0184,0.0233 0.0183,-0.0208 0.0367,-0.17374 0.0367,-0.3482 0.0681,-1.09516 0.068,-1.64761 0.068,-2.14668 0.0681,-2.57642 0.0704,-3.03157 0.0704,-3.29776 0.0704,-3.44947 0.0704,-3.48169 0.0729,-3.50605 0.0728,-3.28119 0.0729,-2.93438 0.0728,-2.47895 0.14518,-3.23684 0.1454,-0.607 0.0747,0.7572 0.0748,1.45359 0.0746,2.09349 0.0748,2.6518 0.0657,2.71627 0.0658,2.98741 0.0659,3.16803 0.0657,3.25261 0.0741,3.64025 0.0741,3.4833 0.0741,3.19275 0.0741,2.77964 0.0744,2.26801 0.0744,1.65631 0.0743,0.98044 0.0744,0.26671 0.0717,-0.42827 0.0717,-1.08573 0.0717,-1.70413 0.0717,-2.26144 0.0652,-2.46868 0.065,-2.78843 0.0651,-3.02571 0.065,-3.17317 0.0388,-1.91815 0.0387,-1.917 0.0385,-1.89563 0.0388,-1.8547 0.0774,-3.50844 0.0774,-3.11979 0.0656,-2.24119 0.0656,-1.80086 0.0655,-1.30612 0.0656,-0.77241 0.15249,0.36797 0.1526,3.2916"
       sodipodi:nodetypes="ccccccccccccccccccccccccccccccccccccccccccccccccccccccccccccccccccccccccccccccccccccccccccccccccccccccccccccccccccccccccccccccccccccccccccccccccccccccccccccccccccccccccccccccccccccccccccccccccccccccccccccccccccccccccccccccccccccccccccccccccccccccccccccccccccccccccccccccccccccccccccccccccccccccccccccccccccccccccccccccccccccccccccccccccccccccccccccccccccccccccccccccccccccccccccccccccccccccccccccccccccccccccccccccccccccccccccccccccccccccccccccccccccccccccccccccccccccccccc" />
    <path
       inkscape:connector-curvature="0"
       id="path4199"
       style="fill:none;stroke:#000000;stroke-width:0.176;stroke-linecap:butt;stroke-linejoin:round;stroke-miterlimit:10;stroke-dasharray:1.40800004, 0.70400002;stroke-dashoffset:0;stroke-opacity:1"
       d="m 42.777134,258.41993 0.30579,0.90877 0.29172,0.82545 0.26063,0.70415 0.29298,0.7564 0.29492,0.72519 0.29355,0.68759 0.27229,0.60825 0.28167,0.60162 0.29149,0.59328 0.29058,0.56366 0.29881,0.55224 0.26315,0.46434 0.29629,0.49897 0.29755,0.47702 0.2867,0.43804 0.2604,0.3802 0.30955,0.43118 0.26235,0.34842 0.30509,0.38672 0.27012,0.32636 0.29618,0.34179 0.28212,0.31012 0.29447,0.30853 0.27023,0.27058 0.29161,0.27834 0.30293,0.27538 0.26371,0.22874 0.28464,0.23605 0.29424,0.2324 0.28783,0.21684 0.27846,0.20005 0.3091,0.21159 0.27789,0.18118 0.29664,0.18439 0.26875,0.15946 0.29389,0.16644 0.27652,0.1494 0.28898,0.14907 0.28258,0.139 0.29584,0.13866 0.28497,0.12723 0.29127,0.12414 0.28898,0.11728 0.26554,0.103 0.3043,0.11259 0.27218,0.0959 0.29023,0.0977 0.27778,0.0893 0.30841,0.0943 0.26703,0.078 0.30316,0.0844 0.27629,0.0733 0.30212,0.0764 0.26086,0.063 0.29687,0.0685 0.28681,0.0631 0.28669,0.0599 0.28555,0.0572 0.27446,0.0522 0.29652,0.0541 0.2827,0.0489 0.29755,0.0493 0.26932,0.0424 0.29766,0.0448 0.2851,0.0408 0.2844,0.039 0.29698,0.0387 0.27367,0.034 0.28017,0.0333 0.30944,0.0351 0.28007,0.0302 0.28646,0.0295 0.29138,0.0286 0.26783,0.0249 0.28544,0.0256 0.28326,0.0241 0.30304,0.0246 0.26737,0.0208 0.30853,0.0229 0.27846,0.0196 0.27538,0.0185 0.29641,0.0191 0.29732,0.0181 0.27069,0.0158 0.2875,0.016 0.2804,0.0149 0.30396,0.0154 0.26314,0.0127 0.30213,0.0138 0.28406,0.0125 0.28121,0.0118 0.28154,0.0112 0.28716,0.011 0.30429,0.0111 0.27915,0.01 0.27549,0.009 0.29435,0.009 0.29378,0.009 0.27709,0.008"
       sodipodi:nodetypes="cccccccccccccccccccccccccccccccccccccccccccccccccccccccccccccccccccccccccccccccccccccccccccccccccccc" />
    <path
       inkscape:connector-curvature="0"
       id="path4201"
       style="fill:none;stroke:#000000;stroke-width:0.26458332;stroke-linecap:butt;stroke-linejoin:round;stroke-miterlimit:10;stroke-dasharray:none;stroke-opacity:1"
       d="m 43.230571,260.58732 0.13031,2.42111 0.13032,3.92214 0.29298,11.4963 0.14757,5.46992 0.14735,4.18336 0.14678,2.33744 0.14677,0.26118 0.13615,-1.56492 0.13614,-3.02768 0.28167,-8.87934 0.29149,-8.45116 0.14518,-2.44798 0.1454,-0.82018 0.14941,0.89574 0.1494,2.43952 0.26315,6.61817 0.29629,7.41344 0.29755,3.41633 0.2867,-1.9887 0.2604,-5.07599 0.30955,-6.57599 0.26235,-3.151 0.30509,0.80453 0.27012,3.98763 0.29618,5.31537 0.28212,3.25033 0.29447,-0.12906 0.27023,-2.95895 0.29161,-4.33914 0.30293,-3.19638 0.26371,-0.32796 0.28464,2.18072 0.29424,3.57212 0.28783,2.80188 0.27846,0.70382 0.3091,-1.7181 0.27789,-2.74862 0.29664,-2.50582 0.26875,-0.76257 0.29389,1.0887 0.27652,2.167 0.28898,2.17512 0.28258,0.94993 0.29584,-0.66232 0.28497,-1.75308 0.29127,-1.86728 0.28898,-0.93347 0.26554,0.31802 0.3043,1.42638 0.27218,1.48799 0.29023,0.96627 0.27778,-0.09 0.30841,-1.09202 0.26703,-1.22062 0.30316,-0.93289 0.27629,-0.0266 0.30212,0.80316 0.26086,0.98365 0.29687,0.84933 0.28681,0.14598 0.28669,-0.53647 0.28555,-0.87242 0.27446,-0.70496 0.29652,-0.23468 0.2827,0.35596 0.29755,0.72737 0.26932,0.60528 0.29766,0.26828 0.2851,-0.23445 0.2844,-0.54949 0.29698,-0.57213 0.27367,-0.25103 0.28017,0.12414 0.30944,0.46388 0.28007,0.45964 0.28646,0.25778 0.29138,-0.075 0.26783,-0.30956 0.28544,-0.3978 0.28326,-0.25777 0.30304,0.009 0.26737,0.22782 0.30853,0.3546 0.27846,0.22587 0.27538,0.0278 0.29641,-0.18152 0.29732,-0.28087 0.27069,-0.20038 0.2875,-0.0521 0.2804,0.11968 0.30396,0.23148 0.26314,0.17547 0.30213,0.071 0.28406,-0.0831 0.28121,-0.17089 0.28154,-0.16449 0.28716,-0.0757 0.30429,0.0545 0.27915,0.13408 0.27549,0.13786 0.29435,0.0772 0.29378,-0.0293 0.27709,-0.10242"
       sodipodi:nodetypes="cccccccccccccccccccccccccccccccccccccccccccccccccccccccccccccccccccccccccccccccccccccccccccccccccccccccc" />
    <path
       inkscape:connector-curvature="0"
       id="path4851"
       d="m 9.1926176,269.76894 2.8554624,0"
       style="fill:none;stroke:#000000;stroke-width:0.17638889;stroke-linecap:butt;stroke-linejoin:miter;stroke-miterlimit:4;stroke-dasharray:1.05833335, 0.35277778;stroke-dashoffset:0;stroke-opacity:1" />
    <path
       inkscape:connector-curvature="0"
       id="path4853"
       d="m 45.533183,265.40295 17.366005,0"
       style="fill:none;stroke:#000000;stroke-width:0.17638887;stroke-linecap:butt;stroke-linejoin:miter;stroke-miterlimit:4;stroke-dasharray:1.05833339, 0.35277778;stroke-dashoffset:0;stroke-opacity:1" />
    <path
       style="fill:none;stroke:#000000;stroke-width:0.17638889;stroke-linecap:butt;stroke-linejoin:miter;stroke-miterlimit:4;stroke-dasharray:1.05833335, 0.35277778;stroke-dashoffset:0;stroke-opacity:1"
       d="m 52.788452,273.23606 10.431763,0"
       id="path4855"
       inkscape:connector-curvature="0" />
    <path
       sodipodi:nodetypes="cccccccccccccccccccccccccccccccccccccccccccccccccccccccccccccccccccccccccccccccccccccccccccccccccccccccccccccccccccccccc"
       d="m 9.0601812,276.82722 0.299439,0.91003 0.26055,0.75594 0.293014,0.81207 0.2949808,0.77869 0.29354,0.73811 0.272164,0.65306 0.2818,0.64586 0.291449,0.63705 0.290476,0.60517 0.298856,0.59293 0.263191,0.4984 0.296306,0.53578 0.29753,0.51223 0.286716,0.47027 0.260367,0.4081 0.309578,0.46296 0.262299,0.37414 0.305063,0.41518 0.270061,0.35036 0.296318,0.36694 0.28212,0.33299 0.294386,0.33127 0.27029,0.29036 0.291585,0.29892 0.302948,0.29561 0.263602,0.24554 0.28475,0.25354 0.294237,0.24954 0.287722,0.23263 0.278463,0.2149 0.309212,0.22714 0.277777,0.19456 0.296638,0.19799 0.26886,0.17123 0.293781,0.17867 0.276519,0.16038 0.289093,0.16004 0.282464,0.14906 0.295838,0.14895 0.284978,0.1366 0.29138,0.13329 0.288979,0.12597 0.265546,0.11054 0.304182,0.12094 0.27229,0.10299 0.290237,0.10494 0.277662,0.0958 0.308526,0.10128 0.267032,0.0837 0.303154,0.0907 0.276176,0.0786 0.302125,0.082 0.260859,0.0677 0.296866,0.0734 0.286922,0.0677 0.286579,0.0645 0.285664,0.0613 0.274347,0.0562 0.296638,0.0578 0.282578,0.0527 0.297667,0.0528 0.269203,0.0455 0.297667,0.0481 0.285093,0.0439 0.284521,0.0418 0.296981,0.0415 0.273547,0.0366 0.280177,0.0358 0.309441,0.0375 0.280181,0.0325 0.28646,0.0316 0.29127,0.0308 0.26783,0.0269 0.28543,0.0274 0.28338,0.0259 0.30304,0.0264 0.26738,0.0223 0.30852,0.0245 0.27846,0.021 0.27538,0.0199 0.2963,0.0204 0.29743,0.0195 0.27069,0.0169 0.28738,0.0171 0.28052,0.016 0.30396,0.0165 0.26303,0.0137 0.30224,0.0149 0.28395,0.0134 0.28132,0.0127 0.28155,0.012 0.28715,0.0118 0.30429,0.0119 0.27904,0.0104 0.27549,0.01 0.29446,0.01 0.29378,0.009 0.26383,0.008 0.3123,0.009 0.26143,0.007 0.30579,0.008 0.29172,0.007 0.26063,0.006 0.29298,0.007 0.29492,0.007 0.29355,0.006 0.27229,0.005 0.28167,0.005 0.29149,0.005 0.29058,0.005 0.29881,0.005 0.26315,0.004 0.29629,0.004 0.29755,0.004 0.2867,0.004 0.2604,0.003 0.30955,0.004 0.26235,0.003 0.30509,0.003"
       style="fill:none;stroke:#000000;stroke-width:0.17638889;stroke-linecap:butt;stroke-linejoin:round;stroke-miterlimit:10;stroke-dasharray:1.41111112, 0.70555556;stroke-dashoffset:0;stroke-opacity:1"
       id="path5061"
       inkscape:connector-curvature="0" />
    <path
       sodipodi:nodetypes="cccccccccccccccccccccccccccccccccccccccccccccccccccccccccccccccccccccccccccccccccccccccccccccccccccc"
       d="m 42.777134,295.49941 0.30579,-0.90877 0.29172,-0.82545 0.26063,-0.70415 0.29298,-0.7564 0.29492,-0.72519 0.29355,-0.68759 0.27229,-0.60825 0.28167,-0.60162 0.29149,-0.59328 0.29058,-0.56366 0.29881,-0.55224 0.26315,-0.46434 0.29629,-0.49897 0.29755,-0.47702 0.2867,-0.43804 0.2604,-0.3802 0.30955,-0.43118 0.26235,-0.34842 0.30509,-0.38672 0.27012,-0.32636 0.29618,-0.34179 0.28212,-0.31012 0.29447,-0.30853 0.27023,-0.27058 0.29161,-0.27834 0.30293,-0.27538 0.26371,-0.22874 0.28464,-0.23605 0.29424,-0.2324 0.28783,-0.21684 0.27846,-0.20005 0.3091,-0.21159 0.27789,-0.18118 0.29664,-0.18439 0.26875,-0.15946 0.29389,-0.16644 0.27652,-0.1494 0.28898,-0.14907 0.28258,-0.139 0.29584,-0.13866 0.28497,-0.12723 0.29127,-0.12414 0.28898,-0.11728 0.26554,-0.103 0.3043,-0.11259 0.27218,-0.0959 0.29023,-0.0977 0.27778,-0.0893 0.30841,-0.0943 0.26703,-0.078 0.30316,-0.0844 0.27629,-0.0733 0.30212,-0.0764 0.26086,-0.063 0.29687,-0.0685 0.28681,-0.0631 0.28669,-0.0599 0.28555,-0.0572 0.27446,-0.0522 0.29652,-0.0541 0.2827,-0.0489 0.29755,-0.0493 0.26932,-0.0424 0.29766,-0.0448 0.2851,-0.0408 0.2844,-0.039 0.29698,-0.0387 0.27367,-0.034 0.28017,-0.0333 0.30944,-0.0351 0.28007,-0.0302 0.28646,-0.0295 0.29138,-0.0286 0.26783,-0.0249 0.28544,-0.0256 0.28326,-0.0241 0.30304,-0.0246 0.26737,-0.0208 0.30853,-0.0229 0.27846,-0.0196 0.27538,-0.0185 0.29641,-0.0191 0.29732,-0.0181 0.27069,-0.0158 0.2875,-0.016 0.2804,-0.0149 0.30396,-0.0154 0.26314,-0.0127 0.30213,-0.0138 0.28406,-0.0125 0.28121,-0.0118 0.28154,-0.0112 0.28716,-0.011 0.30429,-0.0111 0.27915,-0.01 0.27549,-0.009 0.29435,-0.009 0.29378,-0.009 0.27709,-0.008"
       style="fill:none;stroke:#000000;stroke-width:0.176;stroke-linecap:butt;stroke-linejoin:round;stroke-miterlimit:10;stroke-dasharray:1.40800004, 0.70400002;stroke-dashoffset:0;stroke-opacity:1"
       id="path5063"
       inkscape:connector-curvature="0" />
  </g>
</svg>
