<?xml version="1.0" encoding="UTF-8" standalone="no"?>
<!-- Created with Inkscape (http://www.inkscape.org/) -->

<svg
   xmlns:dc="http://purl.org/dc/elements/1.1/"
   xmlns:cc="http://creativecommons.org/ns#"
   xmlns:rdf="http://www.w3.org/1999/02/22-rdf-syntax-ns#"
   xmlns:svg="http://www.w3.org/2000/svg"
   xmlns="http://www.w3.org/2000/svg"
   xmlns:sodipodi="http://sodipodi.sourceforge.net/DTD/sodipodi-0.dtd"
   xmlns:inkscape="http://www.inkscape.org/namespaces/inkscape"
   width="7.6485639cm"
   height="4.6976123cm"
   viewBox="0 0 76.485639 46.976122"
   version="1.1"
   id="svg1656"
   inkscape:version="0.91 r13725"
   sodipodi:docname="5_1_4.svg">
  <sodipodi:namedview
     id="base"
     pagecolor="#ffffff"
     bordercolor="#666666"
     borderopacity="1.0"
     inkscape:pageopacity="0.0"
     inkscape:pageshadow="2"
     inkscape:zoom="3.2819436"
     inkscape:cx="113.85853"
     inkscape:cy="50.182829"
     inkscape:document-units="mm"
     inkscape:current-layer="layer2"
     showgrid="true"
     units="cm"
     inkscape:window-width="1920"
     inkscape:window-height="1003"
     inkscape:window-x="-9"
     inkscape:window-y="-9"
     inkscape:window-maximized="1"
     inkscape:snap-text-baseline="true"
     fit-margin-top="0"
     fit-margin-left="0"
     fit-margin-right="0"
     fit-margin-bottom="0">
    <inkscape:grid
       type="xygrid"
       id="grid2201"
       units="mm"
       spacingx="0.99999998"
       spacingy="0.99999998"
       originy="0.45683323"
       originx="-0.11162109" />
  </sodipodi:namedview>
  <defs
     id="defs1650">
    <marker
       inkscape:stockid="Arrow1Mend"
       orient="auto"
       refY="0"
       refX="0"
       id="marker3825"
       style="overflow:visible"
       inkscape:isstock="true">
      <path
         id="path3823"
         d="M 0,0 5,-5 -12.5,0 5,5 0,0 Z"
         style="fill:#000000;fill-opacity:1;fill-rule:evenodd;stroke:#000000;stroke-width:1pt;stroke-opacity:1"
         transform="matrix(-0.4,0,0,-0.4,-4,0)"
         inkscape:connector-curvature="0" />
    </marker>
    <marker
       inkscape:stockid="Arrow1Mstart"
       orient="auto"
       refY="0"
       refX="0"
       id="Arrow1Mstart"
       style="overflow:visible"
       inkscape:isstock="true">
      <path
         id="path2213"
         d="M 0,0 5,-5 -12.5,0 5,5 0,0 Z"
         style="fill:#000000;fill-opacity:1;fill-rule:evenodd;stroke:#000000;stroke-width:1pt;stroke-opacity:1"
         transform="matrix(0.4,0,0,0.4,4,0)"
         inkscape:connector-curvature="0" />
    </marker>
    <marker
       inkscape:stockid="Arrow1Mend"
       orient="auto"
       refY="0"
       refX="0"
       id="marker2493"
       style="overflow:visible"
       inkscape:isstock="true"
       inkscape:collect="always">
      <path
         id="path2491"
         d="M 0,0 5,-5 -12.5,0 5,5 0,0 Z"
         style="fill:#000000;fill-opacity:1;fill-rule:evenodd;stroke:#000000;stroke-width:1pt;stroke-opacity:1"
         transform="matrix(-0.4,0,0,-0.4,-4,0)"
         inkscape:connector-curvature="0" />
    </marker>
    <marker
       inkscape:stockid="Arrow1Mend"
       orient="auto"
       refY="0"
       refX="0"
       id="Arrow1Mend"
       style="overflow:visible"
       inkscape:isstock="true">
      <path
         id="path2216"
         d="M 0,0 5,-5 -12.5,0 5,5 0,0 Z"
         style="fill:#000000;fill-opacity:1;fill-rule:evenodd;stroke:#000000;stroke-width:1pt;stroke-opacity:1"
         transform="matrix(-0.4,0,0,-0.4,-4,0)"
         inkscape:connector-curvature="0" />
    </marker>
    <marker
       inkscape:isstock="true"
       style="overflow:visible"
       id="marker2588-2"
       refX="0"
       refY="0"
       orient="auto"
       inkscape:stockid="Arrow1Mend">
      <path
         inkscape:connector-curvature="0"
         transform="matrix(-0.4,0,0,-0.4,-4,0)"
         style="fill:#000000;fill-opacity:1;fill-rule:evenodd;stroke:#000000;stroke-width:1pt;stroke-opacity:1"
         d="M 0,0 5,-5 -12.5,0 5,5 Z"
         id="path2586-2" />
    </marker>
    <marker
       inkscape:stockid="Arrow1Mend"
       orient="auto"
       refY="0"
       refX="0"
       id="marker3825-7"
       style="overflow:visible"
       inkscape:isstock="true">
      <path
         inkscape:connector-curvature="0"
         id="path3823-4"
         d="M 0,0 5,-5 -12.5,0 5,5 Z"
         style="fill:#000000;fill-opacity:1;fill-rule:evenodd;stroke:#000000;stroke-width:1pt;stroke-opacity:1"
         transform="matrix(-0.4,0,0,-0.4,-4,0)" />
    </marker>
    <marker
       inkscape:stockid="Arrow1Mend"
       orient="auto"
       refY="0"
       refX="0"
       id="marker3825-9"
       style="overflow:visible"
       inkscape:isstock="true">
      <path
         inkscape:connector-curvature="0"
         id="path3823-49"
         d="M 0,0 5,-5 -12.5,0 5,5 Z"
         style="fill:#000000;fill-opacity:1;fill-rule:evenodd;stroke:#000000;stroke-width:1pt;stroke-opacity:1"
         transform="matrix(-0.4,0,0,-0.4,-4,0)" />
    </marker>
    <marker
       inkscape:stockid="Arrow1Mend"
       orient="auto"
       refY="0"
       refX="0"
       id="marker3825-96"
       style="overflow:visible"
       inkscape:isstock="true">
      <path
         inkscape:connector-curvature="0"
         id="path3823-1"
         d="M 0,0 5,-5 -12.5,0 5,5 Z"
         style="fill:#000000;fill-opacity:1;fill-rule:evenodd;stroke:#000000;stroke-width:1pt;stroke-opacity:1"
         transform="matrix(-0.4,0,0,-0.4,-4,0)" />
    </marker>
  </defs>
  <metadata
     id="metadata1653">
    <rdf:RDF>
      <cc:Work
         rdf:about="">
        <dc:format>image/svg+xml</dc:format>
        <dc:type
           rdf:resource="http://purl.org/dc/dcmitype/StillImage" />
        <dc:title></dc:title>
      </cc:Work>
    </rdf:RDF>
  </metadata>
  <g
     inkscape:label="Layer 1"
     inkscape:groupmode="layer"
     id="layer1"
     transform="translate(-0.11162109,-250.48073)">
    <path
       style="fill:none;stroke:#000000;stroke-width:0.17638887;stroke-linecap:round;stroke-linejoin:miter;stroke-opacity:1;marker-end:url(#marker2493)"
       d="m 4.9999997,292.00002 68.9999963,0"
       id="path2203"
       inkscape:connector-curvature="0" />
    <path
       style="fill:none;stroke:#000000;stroke-width:0.17638887;stroke-linecap:round;stroke-linejoin:miter;stroke-miterlimit:4;stroke-dasharray:none;stroke-opacity:1;marker-start:url(#Arrow1Mstart)"
       d="m 4.9999999,252.00002 0,40"
       id="path2205"
       inkscape:connector-curvature="0" />
    <path
       style="fill:none;stroke:#000000;stroke-width:0.17599998;stroke-linecap:round;stroke-linejoin:miter;stroke-miterlimit:4;stroke-dasharray:1.40799981, 0.7039999;stroke-dashoffset:1.45200002;stroke-opacity:1"
       d="m 4.9999997,277.00002 59.9999983,0"
       id="path2551"
       inkscape:connector-curvature="0" />
    <path
       style="fill:none;stroke:#000000;stroke-width:0.17599998;stroke-linecap:round;stroke-linejoin:miter;stroke-miterlimit:4;stroke-dasharray:1.40799981, 0.7039999;stroke-dashoffset:1.45200002;stroke-opacity:1"
       d="m 4.9999996,264.00002 49.9999994,0"
       id="path2557"
       inkscape:connector-curvature="0" />
    <g
       inkscape:groupmode="layer"
       id="layer2"
       inkscape:label="Надписи"
       style="display:inline">
      <text
         xml:space="preserve"
         style="font-style:normal;font-variant:normal;font-weight:normal;font-stretch:normal;font-size:2.11666656px;line-height:1.25;font-family:'Times New Roman';-inkscape-font-specification:'Times New Roman, Normal';text-align:start;letter-spacing:0px;word-spacing:0px;writing-mode:lr-tb;text-anchor:start;fill:#000000;fill-opacity:1;stroke:none;stroke-width:0.26458332"
         x="2"
         y="252.00002"
         id="text4973"><tspan
           sodipodi:role="line"
           id="tspan4971"
           x="2"
           y="252.00002"
           style="stroke-width:0.26458332">$U$</tspan></text>
      <text
         xml:space="preserve"
         style="font-style:normal;font-variant:normal;font-weight:normal;font-stretch:normal;font-size:2.11666656px;line-height:1.25;font-family:'Times New Roman';-inkscape-font-specification:'Times New Roman, Normal';text-align:start;letter-spacing:0px;word-spacing:0px;writing-mode:lr-tb;text-anchor:start;fill:#000000;fill-opacity:1;stroke:none;stroke-width:0.26458332"
         x="0"
         y="265.00003"
         id="text4981"><tspan
           sodipodi:role="line"
           id="tspan4979"
           x="0"
           y="265.00003"
           style="stroke-width:0.26458332">$U_1$</tspan></text>
      <text
         xml:space="preserve"
         style="font-style:normal;font-variant:normal;font-weight:normal;font-stretch:normal;font-size:2.11666656px;line-height:1.25;font-family:'Times New Roman';-inkscape-font-specification:'Times New Roman, Normal';text-align:start;letter-spacing:0px;word-spacing:0px;writing-mode:lr-tb;text-anchor:start;fill:#000000;fill-opacity:1;stroke:none;stroke-width:0.26458332"
         x="0"
         y="278.00003"
         id="text4985"><tspan
           sodipodi:role="line"
           id="tspan4983"
           x="0"
           y="278.00003"
           style="stroke-width:0.26458332">$U_2$</tspan></text>
      <text
         xml:space="preserve"
         style="font-style:normal;font-variant:normal;font-weight:normal;font-stretch:normal;font-size:2.11666656px;line-height:1.25;font-family:'Times New Roman';-inkscape-font-specification:'Times New Roman, Normal';text-align:start;letter-spacing:0px;word-spacing:0px;writing-mode:lr-tb;text-anchor:start;fill:#000000;fill-opacity:1;stroke:none;stroke-width:0.26458332"
         x="74"
         y="296.00003"
         id="text14756"><tspan
           sodipodi:role="line"
           id="tspan14754"
           x="74"
           y="296.00003"
           style="stroke-width:0.26458332">$t$</tspan></text>
      <path
         style="fill:none;stroke:#000000;stroke-width:0.17638887;stroke-linecap:round;stroke-linejoin:miter;stroke-opacity:1"
         d="m 34.999998,292.00002 0,5"
         id="path14758"
         inkscape:connector-curvature="0" />
      <path
         style="fill:none;stroke:#000000;stroke-width:0.17638887;stroke-linecap:round;stroke-linejoin:miter;stroke-miterlimit:4;stroke-dasharray:none;stroke-opacity:1"
         d="m 54.999998,292.00002 0,5"
         id="path14760"
         inkscape:connector-curvature="0" />
      <path
         style="display:inline;fill:none;stroke:#000000;stroke-width:0.17638887;stroke-linecap:round;stroke-linejoin:miter;stroke-miterlimit:4;stroke-dasharray:none;stroke-opacity:1"
         d="m 64.999998,292.00002 0,5"
         id="path14760-4"
         inkscape:connector-curvature="0" />
      <text
         xml:space="preserve"
         style="font-style:normal;font-variant:normal;font-weight:normal;font-stretch:normal;font-size:2.11666656px;line-height:1.25;font-family:'Times New Roman';-inkscape-font-specification:'Times New Roman, Normal';text-align:start;letter-spacing:0px;word-spacing:0px;writing-mode:lr-tb;text-anchor:start;fill:#000000;fill-opacity:1;stroke:none;stroke-width:0.26458332"
         x="42.999996"
         y="297.00003"
         id="text14809"><tspan
           sodipodi:role="line"
           id="tspan14807"
           x="42.999996"
           y="297.00003"
           style="stroke-width:0.26458332">$\tau_\text{з}$</tspan></text>
      <text
         xml:space="preserve"
         style="font-style:normal;font-variant:normal;font-weight:normal;font-stretch:normal;font-size:2.11666656px;line-height:1.25;font-family:'Times New Roman';-inkscape-font-specification:'Times New Roman, Normal';text-align:start;letter-spacing:0px;word-spacing:0px;writing-mode:lr-tb;text-anchor:start;display:inline;fill:#000000;fill-opacity:1;stroke:none;stroke-width:0.26458332"
         x="58.999996"
         y="297.00003"
         id="text14809-1"><tspan
           sodipodi:role="line"
           id="tspan14807-9"
           x="58.999996"
           y="297.00003"
           style="stroke-width:0.26458332">$\tau_\text{р}$</tspan></text>
      <path
         style="fill:none;stroke:#000000;stroke-width:0.17638887;stroke-linecap:round;stroke-linejoin:miter;stroke-opacity:1;marker-end:url(#marker3825)"
         d="m 40.361536,296.03042 -5,0"
         id="path14829"
         inkscape:connector-curvature="0" />
      <path
         style="display:inline;fill:none;stroke:#000000;stroke-width:0.17638887;stroke-linecap:round;stroke-linejoin:miter;stroke-opacity:1;marker-end:url(#marker3825-9)"
         d="m 49.638461,296.00002 5,0"
         id="path14829-9"
         inkscape:connector-curvature="0" />
      <path
         style="display:inline;fill:none;stroke:#000000;stroke-width:0.17638887;stroke-linecap:round;stroke-linejoin:miter;stroke-opacity:1;marker-end:url(#marker3825-96)"
         d="m 70.422344,296.03042 -5,0"
         id="path14829-7"
         inkscape:connector-curvature="0" />
    </g>
    <path
       style="fill:none;stroke:#000000;stroke-width:0.17599998;stroke-linecap:round;stroke-linejoin:miter;stroke-miterlimit:4;stroke-dasharray:1.40799981, 0.7039999;stroke-dashoffset:1.45200002;stroke-opacity:1"
       d="m 54.999999,292.00002 0,-28"
       id="path1243"
       inkscape:connector-curvature="0" />
    <path
       style="fill:none;stroke:#000000;stroke-width:0.17599998;stroke-linecap:round;stroke-linejoin:miter;stroke-miterlimit:4;stroke-dasharray:1.40799981, 0.7039999;stroke-dashoffset:1.45200002;stroke-opacity:1"
       d="m 34.999998,292.00002 0,-15"
       id="path1245"
       inkscape:connector-curvature="0" />
    <path
       style="opacity:1;fill:none;fill-opacity:1;fill-rule:nonzero;stroke:#000000;stroke-width:0.35277775;stroke-linecap:round;stroke-linejoin:round;stroke-miterlimit:4;stroke-dasharray:none;stroke-dashoffset:2.6500001;stroke-opacity:1;paint-order:stroke markers fill"
       d="m 5,291.92522 c 0.06734,-0.30872 0.1346801,-0.61255 0.2020202,-0.91164 0.06734,-0.29908 0.1346801,-0.59341 0.2020202,-0.88316 0.06734,-0.28975 0.1346801,-0.57488 0.2020202,-0.85558 0.06734,-0.2807 0.1346801,-0.55693 0.2020202,-0.82886 0.06734,-0.27192 0.1346801,-0.53953 0.2020202,-0.80296 0.06734,-0.26344 0.1346801,-0.52268 0.2020202,-0.77789 0.06734,-0.2552 0.1346801,-0.50635 0.2020202,-0.75358 0.06734,-0.24724 0.1346801,-0.49054 0.2020202,-0.73005 0.06734,-0.23952 0.1346802,-0.47522 0.2020202,-0.70725 0.06734,-0.23203 0.1346802,-0.46037 0.2020202,-0.68516 0.06734,-0.22478 0.1346802,-0.44599 0.2020202,-0.66375 0.06734,-0.21776 0.1346802,-0.43206 0.2020202,-0.64302 0.06734,-0.21096 0.1346802,-0.41857 0.2020202,-0.62294 0.06734,-0.20437 0.1346802,-0.40549 0.2020202,-0.60348 0.06734,-0.19799 0.1346802,-0.39283 0.2020202,-0.58463 0.06734,-0.19181 0.1346802,-0.38056 0.2020202,-0.56637 0.06734,-0.18581 0.1346802,-0.36867 0.2020202,-0.54868 0.06734,-0.18001 0.1346802,-0.35715 0.2020202,-0.53154 0.06734,-0.17439 0.1346802,-0.346 0.2020202,-0.51494 0.06734,-0.16894 0.1346802,-0.33519 0.2020202,-0.49885 0.06734,-0.16367 0.1346802,-0.32472 0.2020202,-0.48328 0.06734,-0.15855 0.1346802,-0.31457 0.2020202,-0.46817 0.06734,-0.1536 0.1346802,-0.30476 0.2020202,-0.45356 0.06734,-0.1488 0.1346802,-0.29523 0.2020202,-0.43938 0.06734,-0.14416 0.1346802,-0.28602 0.2020202,-0.42567 0.06734,-0.13965 0.13468,-0.27707 0.20202,-0.41236 0.06734,-0.13529 0.13468,-0.26843 0.20202,-0.39949 0.06734,-0.13106 0.134681,-0.26004 0.202021,-0.38701 0.06734,-0.12697 0.13468,-0.25192 0.20202,-0.37492 0.06734,-0.123 0.13468,-0.24405 0.20202,-0.36321 0.06734,-0.11916 0.13468,-0.23642 0.20202,-0.35186 0.06734,-0.11544 0.13468,-0.22905 0.20202,-0.34088 0.06734,-0.11183 0.134681,-0.22189 0.202021,-0.33023 0.06734,-0.10834 0.13468,-0.21495 0.20202,-0.31991 0.06734,-0.10495 0.13468,-0.20824 0.20202,-0.30992 0.06734,-0.10168 0.13468,-0.20174 0.20202,-0.30024 0.06734,-0.0985 0.13468,-0.19543 0.20202,-0.29086 0.06734,-0.0954 0.134681,-0.18933 0.202021,-0.28178 0.06734,-0.0924 0.13468,-0.18341 0.20202,-0.27297 0.06734,-0.0896 0.13468,-0.17769 0.20202,-0.26445 0.06734,-0.0868 0.13468,-0.17214 0.20202,-0.25619 0.06734,-0.084 0.13468,-0.16676 0.20202,-0.24819 0.06734,-0.0814 0.134681,-0.16155 0.202021,-0.24043 0.06734,-0.0789 0.13468,-0.15651 0.20202,-0.23293 0.06734,-0.0764 0.13468,-0.15161 0.20202,-0.22565 0.06734,-0.074 0.13468,-0.14688 0.20202,-0.2186 0.06734,-0.0717 0.13468,-0.14229 0.20202,-0.21177 0.06734,-0.0695 0.134681,-0.13785 0.202021,-0.20516 0.06734,-0.0673 0.13468,-0.13354 0.20202,-0.19875 0.06734,-0.0652 0.13468,-0.12937 0.20202,-0.19254 0.06734,-0.0632 0.13468,-0.12533 0.20202,-0.18653 0.06734,-0.0612 0.13468,-0.12142 0.202021,-0.1807 0.06734,-0.0593 0.13468,-0.11763 0.20202,-0.17506 0.06734,-0.0574 0.13468,-0.11395 0.20202,-0.16959 0.06734,-0.0556 0.13468,-0.11039 0.20202,-0.16429 0.06734,-0.0539 0.13468,-0.10694 0.20202,-0.15916 0.06734,-0.0522 0.13468,-0.10361 0.202021,-0.15419 0.06734,-0.0506 0.13468,-0.10037 0.20202,-0.14937 0.06734,-0.049 0.13468,-0.0972 0.20202,-0.14471 0.06734,-0.0475 0.13468,-0.0942 0.20202,-0.14019 0.06734,-0.046 0.13468,-0.0913 0.20202,-0.13581 0.06734,-0.0446 0.13468,-0.0884 0.202021,-0.13157 0.06734,-0.0432 0.13468,-0.0856 0.20202,-0.12745 0.06734,-0.0418 0.13468,-0.083 0.20202,-0.12348 0.06734,-0.0405 0.13468,-0.0804 0.20202,-0.11962 0.06734,-0.0392 0.13468,-0.0779 0.20202,-0.11588 0.06734,-0.038 0.13468,-0.0754 0.202021,-0.11227 0.06734,-0.0368 0.13468,-0.0731 0.20202,-0.10875 0.06734,-0.0357 0.13468,-0.0708 0.20202,-0.10536 0.06734,-0.0346 0.13468,-0.0686 0.20202,-0.10207 0.06734,-0.0335 0.13468,-0.0664 0.20202,-0.0989 0.06734,-0.0325 0.13468,-0.0644 0.202021,-0.0958 0.06734,-0.0314 0.13468,-0.0623 0.20202,-0.0928 0.06734,-0.0304 0.13468,-0.0604 0.20202,-0.0899 0.06734,-0.0295 0.13468,-0.0585 0.20202,-0.0871 0.06734,-0.0286 0.13468,-0.0567 0.20202,-0.0844 0.06734,-0.0277 0.13468,-0.0549 0.202021,-0.0817 0.06734,-0.0268 0.13468,-0.0532 0.20202,-0.0792 0.06734,-0.026 0.13468,-0.0515 0.20202,-0.0767 0.06734,-0.0252 0.13468,-0.0499 0.20202,-0.0743 0.06734,-0.0244 0.13468,-0.0484 0.20202,-0.072 0.06734,-0.0236 0.13468,-0.0469 0.202021,-0.0697 0.06734,-0.0229 0.13468,-0.0454 0.20202,-0.0676 0.06734,-0.0222 0.13468,-0.044 0.20202,-0.0655 0.06734,-0.0215 0.13468,-0.0426 0.20202,-0.0634 0.06734,-0.0208 0.13468,-0.0413 0.20202,-0.0614 0.06734,-0.0202 0.134681,-0.04 0.202021,-0.0595 0.06734,-0.0195 0.13468,-0.0387 0.20202,-0.0577 0.06734,-0.0189 0.13468,-0.0375 0.20202,-0.0558 0.06734,-0.0183 0.13468,-0.0364 0.20202,-0.0541 0.06734,-0.0177 0.13468,-0.0352 0.20202,-0.0524 0.06734,-0.0172 0.134681,-0.0341 0.202021,-0.0508 0.06734,-0.0167 0.13468,-0.0331 0.20202,-0.0492 0.06734,-0.0161 0.13468,-0.032 0.20202,-0.0477 0.06734,-0.0156 0.13468,-0.031 0.20202,-0.0462 0.06734,-0.0152 0.13468,-0.0301 0.20202,-0.0447 0.06734,-0.0147 0.134681,-0.0291 0.202021,-0.0433 0.06734,-0.0142 0.13468,-0.0282 0.20202,-0.042 0.06734,-0.0138 0.13468,-0.0273 0.20202,-0.0407"
       title="-exp(-x)"
       id="path5159"
       inkscape:connector-curvature="0" />
    <path
       id="path14578"
       title="exp(-x)"
       d="m 25,264.00003 c 0.03367,0.0786 0.06734,0.15666 0.10101,0.23424 0.03367,0.0776 0.06734,0.15468 0.10101,0.23129 0.03367,0.0766 0.06734,0.15273 0.10101,0.22837 0.03367,0.0756 0.06734,0.15081 0.10101,0.22549 0.03367,0.0747 0.06734,0.1489 0.101011,0.22265 0.03367,0.0738 0.06734,0.14702 0.10101,0.21984 0.03367,0.0728 0.06734,0.14517 0.10101,0.21706 0.03367,0.0719 0.06734,0.14334 0.10101,0.21433 0.03367,0.071 0.06734,0.14153 0.10101,0.21163 0.03367,0.0701 0.06734,0.13974 0.10101,0.20895 0.03367,0.0692 0.06734,0.13798 0.10101,0.20632 0.03367,0.0683 0.06734,0.13624 0.10101,0.20372 0.03367,0.0675 0.06734,0.13452 0.10101,0.20115 0.03367,0.0666 0.06734,0.13282 0.10101,0.19861 0.03367,0.0658 0.06734,0.13115 0.101011,0.1961 0.03367,0.065 0.06734,0.1295 0.10101,0.19363 0.03367,0.0641 0.06734,0.12787 0.10101,0.19119 0.03367,0.0633 0.06734,0.12625 0.10101,0.18878 0.03367,0.0625 0.06734,0.12466 0.10101,0.1864 0.03367,0.0617 0.06734,0.12308 0.10101,0.18404 0.03367,0.061 0.06734,0.12154 0.10101,0.18173 0.03367,0.0602 0.06734,0.12 0.10101,0.17943 0.03367,0.0594 0.06734,0.11849 0.10101,0.17717 0.03367,0.0587 0.06734,0.11699 0.10101,0.17494 0.03367,0.0579 0.06734,0.11551 0.101011,0.17272 0.03367,0.0572 0.06734,0.11406 0.10101,0.17055 0.03367,0.0565 0.06734,0.11262 0.10101,0.1684 0.03367,0.0558 0.06734,0.1112 0.10101,0.16628 0.03367,0.0551 0.06734,0.10979 0.10101,0.16417 0.03367,0.0544 0.06734,0.10842 0.10101,0.16211 0.03367,0.0537 0.06734,0.10705 0.10101,0.16006 0.03367,0.053 0.06734,0.1057 0.10101,0.15804 0.03367,0.0524 0.06734,0.10437 0.10101,0.15605 0.03367,0.0517 0.06734,0.10305 0.10101,0.15409 0.03367,0.051 0.06734,0.10174 0.101011,0.15213 0.03367,0.0504 0.06734,0.10047 0.10101,0.15022 0.03367,0.0498 0.06734,0.0992 0.10101,0.14833 0.03367,0.0491 0.06734,0.0979 0.10101,0.14645 0.03367,0.0485 0.06734,0.0967 0.10101,0.14461 0.03367,0.0479 0.06734,0.0955 0.10101,0.14278 0.03367,0.0473 0.06734,0.0943 0.10101,0.14098 0.03367,0.0467 0.06734,0.0931 0.10101,0.1392 0.03367,0.0461 0.06734,0.0919 0.10101,0.13745 0.03367,0.0455 0.06734,0.0908 0.10101,0.13571 0.03367,0.0449 0.06734,0.0896 0.101011,0.13401 0.03367,0.0444 0.06734,0.0885 0.10101,0.13231 0.03367,0.0438 0.06734,0.0874 0.10101,0.13064 0.03367,0.0433 0.06734,0.0863 0.10101,0.12899 0.03367,0.0427 0.06734,0.0852 0.10101,0.12737 0.03367,0.0422 0.06734,0.0841 0.10101,0.12576 0.03367,0.0417 0.06734,0.0831 0.10101,0.12418 0.03367,0.0411 0.06734,0.082 0.10101,0.12261 0.03367,0.0406 0.06734,0.081 0.10101,0.12106 0.03367,0.0401 0.06734,0.0799 0.10101,0.11954 0.03367,0.0396 0.06734,0.0789 0.101011,0.11802 0.03367,0.0391 0.06734,0.0779 0.10101,0.11654 0.03367,0.0386 0.06734,0.077 0.10101,0.11507 0.03367,0.0381 0.06734,0.076 0.10101,0.11362 0.03367,0.0376 0.06734,0.075 0.10101,0.11219 0.03367,0.0371 0.06734,0.0741 0.10101,0.11077 0.03367,0.0367 0.06734,0.0731 0.10101,0.10937 0.03367,0.0362 0.06734,0.0722 0.10101,0.10799 0.03367,0.0358 0.06734,0.0713 0.10101,0.10663 0.03367,0.0353 0.06734,0.0704 0.10101,0.10529 0.03367,0.0349 0.06734,0.0695 0.101011,0.10396 0.03367,0.0344 0.06734,0.0686 0.10101,0.10264 0.03367,0.034 0.06734,0.0678 0.10101,0.10135 0.03367,0.0336 0.06734,0.0669 0.10101,0.10008 0.03367,0.0331 0.06734,0.0661 0.10101,0.0988 0.03367,0.0327 0.06734,0.0652 0.10101,0.0976 0.03367,0.0323 0.06734,0.0644 0.10101,0.0963 0.03367,0.0319 0.06734,0.0636 0.10101,0.0951 0.03367,0.0315 0.06734,0.0628 0.10101,0.0939 0.03367,0.0311 0.06734,0.062 0.10101,0.0927 0.03367,0.0307 0.06734,0.0612 0.101011,0.0916 0.03367,0.0303 0.06734,0.0605 0.10101,0.0904 0.03367,0.0299 0.06734,0.0597 0.10101,0.0893 0.03367,0.0296 0.06734,0.0589 0.10101,0.0881 0.03367,0.0292 0.06734,0.0582 0.10101,0.087 0.03367,0.0288 0.06734,0.0575 0.10101,0.0859 0.03367,0.0285 0.06734,0.0568 0.10101,0.0849 0.03367,0.0281 0.06734,0.056 0.10101,0.0838 0.03367,0.0278 0.06734,0.0553 0.10101,0.0827 0.03367,0.0274 0.06734,0.0546 0.10101,0.0817 0.03367,0.027 0.06734,0.0539 0.101011,0.0806 0.03367,0.0267 0.06734,0.0532 0.10101,0.0796 0.03367,0.0264 0.06734,0.0526 0.10101,0.0786 0.03367,0.026 0.06734,0.0519 0.10101,0.0776 0.03367,0.0257 0.06734,0.0513 0.10101,0.0767 0.03367,0.0254 0.06734,0.0506 0.10101,0.0757 0.03367,0.0251 0.06734,0.05 0.10101,0.0747 0.03367,0.0248 0.06734,0.0494 0.10101,0.0738 0.03367,0.0245 0.06734,0.0487 0.10101,0.0729 0.03367,0.0241 0.06734,0.0481 0.10101,0.0719 0.03367,0.0238 0.06734,0.0475 0.101011,0.071 0.03367,0.0235 0.06734,0.0469 0.10101,0.0701 0.03367,0.0232 0.06734,0.0463 0.10101,0.0693 0.03367,0.0229 0.06734,0.0457 0.10101,0.0684 0.03367,0.0226 0.06734,0.0452 0.10101,0.0675"
       style="opacity:1;fill:none;fill-opacity:1;fill-rule:nonzero;stroke:#000000;stroke-width:0.35277775;stroke-linecap:round;stroke-linejoin:round;stroke-miterlimit:4;stroke-dasharray:none;stroke-dashoffset:10.01574802;stroke-opacity:1;paint-order:stroke markers fill"
       inkscape:connector-curvature="0" />
    <path
       inkscape:connector-curvature="0"
       style="opacity:1;fill:none;fill-opacity:1;fill-rule:nonzero;stroke:#000000;stroke-width:0.35277775;stroke-linecap:round;stroke-linejoin:round;stroke-miterlimit:4;stroke-dasharray:none;stroke-dashoffset:2.6500001;stroke-opacity:1;paint-order:stroke markers fill"
       d="m 34.999999,277.00002 c 0.06734,-0.14372 0.13468,-0.28516 0.20202,-0.42439 0.06734,-0.13923 0.13468,-0.27625 0.20202,-0.41114 0.06734,-0.13489 0.13468,-0.26762 0.20202,-0.3983 0.06734,-0.13067 0.13468,-0.25926 0.20202,-0.38585 0.06734,-0.12659 0.13468,-0.25117 0.202021,-0.3738 0.06734,-0.12264 0.13468,-0.24333 0.20202,-0.36213 0.06734,-0.11881 0.13468,-0.23572 0.20202,-0.35082 0.06734,-0.11509 0.13468,-0.22836 0.20202,-0.33986 0.06734,-0.1115 0.13468,-0.22123 0.20202,-0.32924 0.06734,-0.10802 0.134681,-0.21432 0.202021,-0.31896 0.06734,-0.10464 0.13468,-0.20762 0.20202,-0.309 0.06734,-0.10137 0.13468,-0.20113 0.20202,-0.29934 0.06734,-0.0982 0.13468,-0.19486 0.20202,-0.29 0.06734,-0.0951 0.13468,-0.18877 0.20202,-0.28094 0.06734,-0.0922 0.134681,-0.18287 0.202021,-0.27216 0.06734,-0.0893 0.13468,-0.17716 0.20202,-0.26366 0.06734,-0.0865 0.13468,-0.17163 0.20202,-0.25543 0.06734,-0.0838 0.13468,-0.16626 0.20202,-0.24744 0.06734,-0.0812 0.13468,-0.16108 0.20202,-0.23972 0.06734,-0.0787 0.134681,-0.15604 0.202021,-0.23223 0.06734,-0.0762 0.13468,-0.15117 0.20202,-0.22498 0.06734,-0.0738 0.13468,-0.14644 0.20202,-0.21795 0.06734,-0.0715 0.13468,-0.14187 0.20202,-0.21114 0.06734,-0.0693 0.134681,-0.13744 0.20202,-0.20455 0.06734,-0.0671 0.13468,-0.13315 0.202021,-0.19816 0.06734,-0.065 0.13468,-0.12898 0.20202,-0.19196 0.06734,-0.063 0.13468,-0.12497 0.20202,-0.18598 0.06734,-0.061 0.134681,-0.12105 0.202021,-0.18016 0.06734,-0.0591 0.13468,-0.11728 0.20202,-0.17454 0.06734,-0.0573 0.13468,-0.11361 0.202019,-0.16908 0.06734,-0.0555 0.134681,-0.11006 0.202021,-0.1638 0.06734,-0.0537 0.13468,-0.10663 0.20202,-0.15869 0.06734,-0.0521 0.134681,-0.1033 0.202021,-0.15373 0.06734,-0.0504 0.13468,-0.10007 0.20202,-0.14893 0.06734,-0.0489 0.13468,-0.0969 0.20202,-0.14428 0.06734,-0.0473 0.13468,-0.0939 0.20202,-0.13977 0.06734,-0.0458 0.13468,-0.091 0.20202,-0.1354 0.06734,-0.0444 0.134681,-0.0881 0.202021,-0.13118 0.06734,-0.043 0.13468,-0.0854 0.20202,-0.12707 0.06734,-0.0417 0.13468,-0.0827 0.20202,-0.12311 0.06734,-0.0404 0.13468,-0.0801 0.20202,-0.11927 0.06734,-0.0391 0.13468,-0.0776 0.20202,-0.11554 0.06734,-0.0379 0.134681,-0.0752 0.202021,-0.11192 0.06734,-0.0367 0.13468,-0.0729 0.20202,-0.10844 0.06734,-0.0356 0.13468,-0.0706 0.20202,-0.10505 0.06734,-0.0344 0.13468,-0.0684 0.20202,-0.10176 0.06734,-0.0334 0.13468,-0.0662 0.20202,-0.0986 0.06734,-0.0324 0.134681,-0.0642 0.202021,-0.0955 0.06734,-0.0313 0.13468,-0.0622 0.20202,-0.0925 0.06734,-0.0303 0.13468,-0.0602 0.20202,-0.0896 0.06734,-0.0294 0.13468,-0.0584 0.20202,-0.0868 0.06734,-0.0285 0.13468,-0.0565 0.202021,-0.0841 0.06734,-0.0276 0.13468,-0.0548 0.20202,-0.0815 0.06734,-0.0267 0.13468,-0.053 0.20202,-0.079 0.06734,-0.0259 0.13468,-0.0514 0.20202,-0.0765 0.06734,-0.0251 0.13468,-0.0498 0.20202,-0.0741 0.06734,-0.0243 0.13468,-0.0482 0.202021,-0.0718 0.06734,-0.0236 0.13468,-0.0467 0.20202,-0.0695 0.06734,-0.0228 0.13468,-0.0453 0.20202,-0.0674 0.06734,-0.0221 0.13468,-0.0438 0.20202,-0.0653 0.06734,-0.0214 0.13468,-0.0425 0.20202,-0.0632 0.06734,-0.0208 0.13468,-0.0412 0.202021,-0.0613 0.06734,-0.0201 0.13468,-0.0399 0.20202,-0.0593 0.06734,-0.0195 0.13468,-0.0386 0.20202,-0.0575 0.06734,-0.0189 0.13468,-0.0374 0.20202,-0.0557 0.06734,-0.0182 0.13468,-0.0363 0.20202,-0.0539 0.06734,-0.0177 0.13468,-0.0351 0.202021,-0.0523 0.06734,-0.0171 0.13468,-0.034 0.20202,-0.0506 0.06734,-0.0166 0.13468,-0.033 0.20202,-0.049 0.06734,-0.0161 0.13468,-0.0319 0.20202,-0.0475 0.06734,-0.0156 0.13468,-0.0309 0.20202,-0.046 0.06734,-0.0151 0.13468,-0.03 0.202021,-0.0446 0.06734,-0.0146 0.13468,-0.029 0.20202,-0.0432 0.06734,-0.0141 0.13468,-0.0281 0.20202,-0.0418 0.06734,-0.0137 0.13468,-0.0272 0.20202,-0.0405 0.06734,-0.0133 0.13468,-0.0264 0.20202,-0.0393 0.06734,-0.0129 0.13468,-0.0255 0.202021,-0.038 0.06734,-0.0125 0.13468,-0.0248 0.20202,-0.0369 0.06734,-0.0121 0.13468,-0.024 0.20202,-0.0357 0.06734,-0.0117 0.13468,-0.0232 0.20202,-0.0346 0.06734,-0.0114 0.13468,-0.0225 0.20202,-0.0335 0.06734,-0.011 0.13468,-0.0218 0.202021,-0.0324 0.06734,-0.0107 0.13468,-0.0211 0.20202,-0.0315 0.06734,-0.0103 0.13468,-0.0205 0.20202,-0.0305 0.06734,-0.01 0.13468,-0.0198 0.20202,-0.0295 0.06734,-0.01 0.13468,-0.0192 0.20202,-0.0286 0.06734,-0.009 0.134681,-0.0186 0.202021,-0.0277 0.06734,-0.009 0.13468,-0.018 0.20202,-0.0269 0.06734,-0.009 0.13468,-0.0175 0.20202,-0.026 0.06734,-0.009 0.13468,-0.0169 0.20202,-0.0252 0.06734,-0.008 0.13468,-0.0164 0.20202,-0.0244 0.06734,-0.008 0.134681,-0.0159 0.202021,-0.0236 0.06734,-0.008 0.13468,-0.0154 0.20202,-0.0229 0.06734,-0.007 0.13468,-0.0149 0.20202,-0.0222 0.06734,-0.007 0.13468,-0.0144 0.20202,-0.0215 0.06734,-0.007 0.13468,-0.014 0.20202,-0.0208 0.06734,-0.007 0.134681,-0.0136 0.202021,-0.0202 0.06734,-0.007 0.13468,-0.0131 0.20202,-0.0195 0.06734,-0.006 0.13468,-0.0127 0.20202,-0.019"
       title="-exp(-x)"
       id="path5159-9" />
    <path
       inkscape:connector-curvature="0"
       id="path14578-3"
       title="exp(-x)"
       d="m 54.999999,264.00001 c 0.03367,0.0769 0.06734,0.15329 0.10101,0.22921 0.03367,0.0759 0.06734,0.15136 0.10101,0.22632 0.03367,0.075 0.06734,0.14945 0.10101,0.22346 0.03367,0.074 0.06734,0.14757 0.10101,0.22064 0.03367,0.0731 0.06734,0.14571 0.101011,0.21787 0.03367,0.0722 0.06734,0.14386 0.10101,0.21511 0.03367,0.0712 0.06734,0.14206 0.10101,0.2124 0.03367,0.0703 0.06734,0.14026 0.10101,0.20972 0.03367,0.0695 0.06734,0.13849 0.10101,0.20709 0.03367,0.0686 0.06734,0.13673 0.10101,0.20446 0.03367,0.0677 0.06734,0.13501 0.10101,0.20188 0.03367,0.0669 0.06734,0.13332 0.10101,0.19934 0.03367,0.0661 0.06734,0.13163 0.10101,0.19683 0.03367,0.0652 0.06734,0.12997 0.10101,0.19434 0.03367,0.0643 0.06734,0.12834 0.101011,0.19189 0.03367,0.0636 0.06734,0.12671 0.10101,0.18946 0.03367,0.0627 0.06734,0.12513 0.10101,0.18709 0.03367,0.0619 0.06734,0.12353 0.10101,0.18472 0.03367,0.0611 0.06734,0.12198 0.10101,0.18239 0.03367,0.0604 0.06734,0.12044 0.10101,0.18009 0.03367,0.0597 0.06734,0.11893 0.10101,0.17782 0.03367,0.0589 0.06734,0.11743 0.10101,0.17558 0.03367,0.0582 0.06734,0.11594 0.10101,0.17336 0.03367,0.0574 0.06734,0.11448 0.10101,0.17118 0.03367,0.0566 0.06734,0.11302 0.101011,0.16901 0.03367,0.0559 0.06734,0.11161 0.10101,0.16689 0.03367,0.0553 0.06734,0.11019 0.10101,0.16478 0.03367,0.0546 0.06734,0.10881 0.10101,0.1627 0.03367,0.0539 0.06734,0.10743 0.10101,0.16064 0.03367,0.0532 0.06734,0.10609 0.10101,0.15863 0.03367,0.0526 0.06734,0.10474 0.10101,0.15661 0.03367,0.0519 0.06734,0.10344 0.10101,0.15465 0.03367,0.0513 0.06734,0.10213 0.10101,0.1527 0.03367,0.0506 0.06734,0.10082 0.10101,0.15077 0.03367,0.05 0.06734,0.0996 0.101011,0.14887 0.03367,0.0493 0.06734,0.0983 0.10101,0.14699 0.03367,0.0487 0.06734,0.0971 0.10101,0.14514 0.03367,0.048 0.06734,0.0958 0.10101,0.14331 0.03367,0.0474 0.06734,0.0946 0.10101,0.14149 0.03367,0.0469 0.06734,0.0934 0.10101,0.13972 0.03367,0.0463 0.06734,0.0923 0.10101,0.13795 0.03367,0.0457 0.06734,0.0911 0.10101,0.1362 0.03367,0.0451 0.06734,0.09 0.10101,0.13451 0.03367,0.0445 0.06734,0.0889 0.10101,0.13279 0.03367,0.044 0.06734,0.0876 0.101011,0.13113 0.03367,0.0435 0.06734,0.0866 0.10101,0.12947 0.03367,0.0429 0.06734,0.0855 0.10101,0.12782 0.03367,0.0424 0.06734,0.0844 0.10101,0.12622 0.03367,0.0418 0.06734,0.0834 0.10101,0.12463 0.03367,0.0413 0.06734,0.0823 0.10101,0.12307 0.03367,0.0408 0.06734,0.0813 0.10101,0.1215 0.03367,0.0402 0.06734,0.0802 0.10101,0.11998 0.03367,0.0397 0.06734,0.0792 0.10101,0.11846 0.03367,0.0392 0.06734,0.0782 0.10101,0.11697 0.03367,0.0387 0.06734,0.0772 0.101011,0.11548 0.03367,0.0383 0.06734,0.0762 0.10101,0.11403 0.03367,0.0378 0.06734,0.0754 0.10101,0.1126 0.03367,0.0373 0.06734,0.0744 0.10101,0.11118 0.03367,0.0368 0.06734,0.0734 0.10101,0.10978 0.03367,0.0363 0.06734,0.0725 0.10101,0.10839 0.03367,0.0359 0.06734,0.0715 0.10101,0.10703 0.03367,0.0355 0.06734,0.0706 0.10101,0.10566 0.03367,0.0351 0.06734,0.0697 0.10101,0.10434 0.03367,0.0346 0.06734,0.0689 0.10101,0.10303 0.03367,0.0342 0.06734,0.068 0.101011,0.10173 0.03367,0.0336 0.06734,0.0671 0.10101,0.10041 0.03367,0.0332 0.06734,0.0664 0.10101,0.0992 0.03367,0.0328 0.06734,0.0655 0.10101,0.0979 0.03367,0.0324 0.06734,0.0646 0.10101,0.0967 0.03367,0.032 0.06734,0.0638 0.10101,0.0956 0.03367,0.0316 0.06734,0.063 0.10101,0.0942 0.03367,0.0312 0.06734,0.0622 0.10101,0.093 0.03367,0.0308 0.06734,0.0614 0.10101,0.0919 0.03367,0.0304 0.06734,0.0607 0.10101,0.0907 0.03367,0.0301 0.06734,0.0599 0.101011,0.0897 0.03367,0.0297 0.06734,0.0592 0.10101,0.0885 0.03367,0.0293 0.06734,0.0584 0.10101,0.0873 0.03367,0.029 0.06734,0.0577 0.10101,0.0862 0.03367,0.0286 0.06734,0.057 0.10101,0.0851 0.03367,0.0282 0.06734,0.0562 0.10101,0.084 0.03367,0.0279 0.06734,0.0556 0.10101,0.0831 0.03367,0.0275 0.06734,0.0548 0.10101,0.082 0.03367,0.0273 0.06734,0.0541 0.10101,0.081 0.03367,0.0269 0.06734,0.0534 0.10101,0.0799 0.03367,0.0265 0.06734,0.0528 0.101011,0.0788 0.03367,0.0261 0.06734,0.0521 0.10101,0.0779 0.03367,0.0258 0.06734,0.0515 0.10101,0.0769 0.03367,0.0254 0.06734,0.0508 0.10101,0.0759 0.03367,0.0251 0.06734,0.0502 0.10101,0.0751 0.03367,0.0248 0.06734,0.0495 0.10101,0.0741 0.03367,0.0245 0.06734,0.0489 0.10101,0.0731 0.03367,0.0243 0.06734,0.0483 0.10101,0.0722 0.03367,0.024 0.06734,0.0476 0.10101,0.0713 0.03367,0.0236 0.06734,0.0471 0.10101,0.0703 0.03367,0.0233 0.06734,0.0465 0.101011,0.0695 0.03367,0.023 0.06734,0.0459 0.10101,0.0686 0.03367,0.0227 0.06734,0.0453 0.10101,0.0678 0.03367,0.0224 0.06734,0.0447 0.10101,0.0669 0.03367,0.0221 0.06734,0.0443 0.10101,0.0661"
       style="opacity:1;fill:none;fill-opacity:1;fill-rule:nonzero;stroke:#000000;stroke-width:0.35277775;stroke-linecap:round;stroke-linejoin:round;stroke-miterlimit:4;stroke-dasharray:none;stroke-dashoffset:10.01574802;stroke-opacity:1;paint-order:stroke markers fill" />
    <path
       inkscape:connector-curvature="0"
       id="path14578-9"
       title="exp(-x)"
       d="m 68.999999,273.00002 c -0.02366,0.0134 -0.04717,0.0269 -0.07053,0.0404 -0.02336,0.0134 -0.04657,0.0269 -0.06963,0.0404 -0.02306,0.0135 -0.04598,0.027 -0.06876,0.0404 -0.02276,0.0135 -0.04541,0.027 -0.06789,0.0404 -0.02249,0.0134 -0.04483,0.0269 -0.06703,0.0404 -0.02222,0.0134 -0.04426,0.0269 -0.06619,0.0404 -0.02192,0.0135 -0.04371,0.0269 -0.06535,0.0404 -0.02165,0.0135 -0.04315,0.027 -0.06453,0.0404 -0.02138,0.0134 -0.04261,0.0269 -0.06372,0.0404 -0.0211,0.0134 -0.04207,0.0269 -0.06291,0.0404 -0.02083,0.0135 -0.04154,0.027 -0.06212,0.0404 -0.02056,0.0135 -0.04102,0.027 -0.06134,0.0404 -0.02032,0.0134 -0.0405,0.0269 -0.06056,0.0404 -0.02005,0.0134 -0.03999,0.0269 -0.0598,0.0404 -0.01981,0.0135 -0.03949,0.027 -0.05904,0.0404 -0.01957,0.0135 -0.03899,0.027 -0.0583,0.0404 -0.0193,0.0134 -0.0385,0.0269 -0.05756,0.0404 -0.01906,0.0134 -0.03801,0.0269 -0.05684,0.0404 -0.01882,0.0134 -0.03754,0.027 -0.05612,0.0404 -0.01858,0.0134 -0.03706,0.027 -0.05541,0.0404 -0.01837,0.0135 -0.03659,0.027 -0.05471,0.0404 -0.01813,0.0135 -0.03613,0.027 -0.05402,0.0404 -0.01789,0.0134 -0.03567,0.027 -0.05334,0.0404 -0.01767,0.0134 -0.03522,0.027 -0.05267,0.0404 -0.01743,0.0135 -0.03478,0.027 -0.052,0.0404 -0.01722,0.0135 -0.03434,0.027 -0.05135,0.0404 -0.01701,0.0134 -0.0339,0.0269 -0.0507,0.0404 -0.0168,0.0134 -0.03348,0.0269 -0.05006,0.0404 -0.01659,0.0135 -0.03306,0.027 -0.04943,0.0404 -0.01638,0.0135 -0.03264,0.027 -0.04881,0.0404 -0.01617,0.0134 -0.03223,0.0269 -0.04819,0.0404 -0.01596,0.0134 -0.03182,0.0269 -0.04758,0.0404 -0.01578,0.0135 -0.03142,0.027 -0.04698,0.0404 -0.01557,0.0135 -0.03102,0.027 -0.04639,0.0404 -0.01535,0.0134 -0.03063,0.0269 -0.0458,0.0404 -0.01518,0.0134 -0.03025,0.0269 -0.04522,0.0404 -0.01499,0.0135 -0.02986,0.0269 -0.04466,0.0404 -0.01478,0.0135 -0.02947,0.027 -0.0441,0.0404 -0.0146,0.0134 -0.02911,0.0269 -0.04354,0.0404 -0.01442,0.0134 -0.02875,0.0269 -0.04299,0.0404 -0.01424,0.0135 -0.02839,0.027 -0.04245,0.0404 -0.01406,0.0135 -0.02803,0.027 -0.04191,0.0404 -0.01388,0.0134 -0.02767,0.0269 -0.04138,0.0404 -0.0137,0.0134 -0.02734,0.0269 -0.04086,0.0404 -0.01352,0.0134 -0.02698,0.027 -0.04034,0.0404 -0.01337,0.0135 -0.02665,0.027 -0.03983,0.0404 -0.01318,0.0135 -0.02631,0.027 -0.03934,0.0404 -0.01304,0.0134 -0.02598,0.027 -0.03884,0.0404 -0.01286,0.0134 -0.02566,0.027 -0.03835,0.0404 -0.0127,0.0135 -0.02532,0.027 -0.03786,0.0404 -0.01255,0.0135 -0.02502,0.027 -0.03738,0.0404 -0.01238,0.0134 -0.02469,0.0269 -0.03691,0.0404 -0.01222,0.0134 -0.02438,0.0269 -0.03645,0.0404 -0.01207,0.0135 -0.02406,0.027 -0.03599,0.0404 -0.01192,0.0135 -0.02375,0.027 -0.03554,0.0404 -0.01178,0.0134 -0.02346,0.0269 -0.03509,0.0404 -0.01162,0.0134 -0.02318,0.0269 -0.03465,0.0404 -0.01147,0.0135 -0.02288,0.027 -0.03421,0.0404 -0.01132,0.0135 -0.02258,0.027 -0.03378,0.0404 -0.01117,0.0134 -0.02231,0.0269 -0.03335,0.0404 -0.01105,0.0134 -0.02201,0.0269 -0.03293,0.0404 -0.0109,0.0135 -0.02174,0.027 -0.03251,0.0404 -0.01078,0.0135 -0.02146,0.027 -0.0321,0.0404 -0.01063,0.0134 -0.0212,0.0269 -0.0317,0.0404 -0.0105,0.0134 -0.02093,0.0269 -0.0313,0.0404 -0.01036,0.0134 -0.02066,0.0269 -0.0309,0.0404 -0.01024,0.0134 -0.02042,0.027 -0.03051,0.0404 -0.01012,0.0134 -0.02014,0.0269 -0.03014,0.0404 -0.01,0.0134 -0.0199,0.0269 -0.02974,0.0404 -0.0098,0.0134 -0.01963,0.027 -0.02938,0.0404 -0.0097,0.0134 -0.01939,0.027 -0.02899,0.0404 -0.0096,0.0135 -0.01915,0.027 -0.02863,0.0404 -0.0095,0.0135 -0.0189,0.027 -0.02827,0.0404 -0.0094,0.0134 -0.01866,0.027 -0.02791,0.0404 -0.0092,0.0134 -0.01842,0.027 -0.02758,0.0404 -0.0091,0.0135 -0.01822,0.0269 -0.02722,0.0404 -0.009,0.0135 -0.01798,0.027 -0.02689,0.0404 -0.0089,0.0134 -0.01774,0.0269 -0.02653,0.0404 -0.0088,0.0134 -0.01752,0.0269 -0.02619,0.0404 -0.0087,0.0135 -0.01731,0.027 -0.02586,0.0404 -0.0086,0.0135 -0.0171,0.027 -0.02556,0.0404 -0.0085,0.0134 -0.01686,0.0269 -0.02523,0.0404 -0.0084,0.0134 -0.01665,0.0269 -0.0249,0.0404 -0.0082,0.0135 -0.01644,0.027 -0.0246,0.0404 -0.0081,0.0135 -0.01623,0.027 -0.02426,0.0404 -0.008,0.0134 -0.01602,0.0269 -0.02397,0.0404 -0.0079,0.0134 -0.01584,0.0269 -0.02366,0.0404 -0.0078,0.0135 -0.01562,0.027 -0.02336,0.0404 -0.0078,0.0135 -0.01545,0.027 -0.0231,0.0404 -0.0077,0.0134 -0.01523,0.0269 -0.02279,0.0404 -0.0075,0.0134 -0.01506,0.0269 -0.02249,0.0404 -0.0074,0.0134 -0.01487,0.027 -0.02222,0.0404 -0.0074,0.0134 -0.01466,0.027 -0.02195,0.0404 -0.0073,0.0134 -0.01448,0.0269 -0.02165,0.0404 -0.0072,0.0134 -0.0143,0.0269 -0.02138,0.0404 -0.007,0.0134 -0.01412,0.027 -0.0211,0.0404 -0.007,0.0134 -0.01394,0.027 -0.02086,0.0404 -0.0069,0.0135 -0.01376,0.027 -0.02059,0.0404 -0.0068,0.0135 -0.01361,0.027 -0.02032,0.0404"
       style="opacity:1;fill:none;fill-opacity:1;fill-rule:nonzero;stroke:#000000;stroke-width:0.35277775;stroke-linecap:round;stroke-linejoin:round;stroke-miterlimit:4;stroke-dasharray:none;stroke-dashoffset:10.01574802;stroke-opacity:1;paint-order:stroke markers fill" />
    <path
       style="fill:none;stroke:#000000;stroke-width:0.17599998;stroke-linecap:round;stroke-linejoin:miter;stroke-miterlimit:4;stroke-dasharray:1.40799981, 0.7039999;stroke-dashoffset:1.45200002;stroke-opacity:1"
       d="m 64.999999,292.00002 0,-15"
       id="path1245-3"
       inkscape:connector-curvature="0" />
  </g>
</svg>
