<?xml version="1.0" encoding="UTF-8" standalone="no"?>
<!-- Created with Inkscape (http://www.inkscape.org/) -->

<svg
   xmlns:dc="http://purl.org/dc/elements/1.1/"
   xmlns:cc="http://creativecommons.org/ns#"
   xmlns:rdf="http://www.w3.org/1999/02/22-rdf-syntax-ns#"
   xmlns:svg="http://www.w3.org/2000/svg"
   xmlns="http://www.w3.org/2000/svg"
   xmlns:sodipodi="http://sodipodi.sourceforge.net/DTD/sodipodi-0.dtd"
   xmlns:inkscape="http://www.inkscape.org/namespaces/inkscape"
   width="11.699036cm"
   height="4.5869184cm"
   viewBox="0 0 116.99036 45.869183"
   version="1.1"
   id="svg8"
   inkscape:version="0.91 r13725"
   sodipodi:docname="2_9_1.svg">
  <sodipodi:namedview
     id="base"
     pagecolor="#ffffff"
     bordercolor="#666666"
     borderopacity="1.0"
     inkscape:pageopacity="0.0"
     inkscape:pageshadow="2"
     inkscape:zoom="2.1447389"
     inkscape:cx="71.591894"
     inkscape:cy="-28.036022"
     inkscape:document-units="mm"
     inkscape:current-layer="layer1"
     showgrid="false"
     units="cm"
     inkscape:window-width="1920"
     inkscape:window-height="1003"
     inkscape:window-x="-9"
     inkscape:window-y="-9"
     inkscape:window-maximized="1"
     inkscape:snap-text-baseline="true"
     fit-margin-top="0"
     fit-margin-left="0"
     fit-margin-right="0"
     fit-margin-bottom="0"
     showguides="true">
    <inkscape:grid
       type="xygrid"
       id="grid815"
       units="mm"
       spacingx="0.99999999"
       spacingy="0.99999999"
       originx="-2.1860352"
       originy="-0.66296619" />
  </sodipodi:namedview>
  <defs
     id="defs2">
    <marker
       inkscape:stockid="Arrow1Mend"
       orient="auto"
       refY="0"
       refX="0"
       id="marker4943"
       style="overflow:visible"
       inkscape:isstock="true">
      <path
         id="path4945"
         d="M 0,0 5,-5 -12.5,0 5,5 0,0 Z"
         style="fill:#000000;fill-opacity:1;fill-rule:evenodd;stroke:#000000;stroke-width:1pt;stroke-opacity:1"
         transform="matrix(-0.4,0,0,-0.4,-4,0)"
         inkscape:connector-curvature="0" />
    </marker>
    <marker
       inkscape:stockid="Arrow1Mend"
       orient="auto"
       refY="0"
       refX="0"
       id="marker4831"
       style="overflow:visible"
       inkscape:isstock="true">
      <path
         id="path4833"
         d="M 0,0 5,-5 -12.5,0 5,5 0,0 Z"
         style="fill:#000000;fill-opacity:1;fill-rule:evenodd;stroke:#000000;stroke-width:1pt;stroke-opacity:1"
         transform="matrix(-0.4,0,0,-0.4,-4,0)"
         inkscape:connector-curvature="0" />
    </marker>
    <marker
       inkscape:stockid="Arrow1Mend"
       orient="auto"
       refY="0"
       refX="0"
       id="marker4749"
       style="overflow:visible"
       inkscape:isstock="true">
      <path
         id="path4751"
         d="M 0,0 5,-5 -12.5,0 5,5 0,0 Z"
         style="fill:#000000;fill-opacity:1;fill-rule:evenodd;stroke:#000000;stroke-width:1pt;stroke-opacity:1"
         transform="matrix(-0.4,0,0,-0.4,-4,0)"
         inkscape:connector-curvature="0" />
    </marker>
    <marker
       inkscape:stockid="Arrow1Mend"
       orient="auto"
       refY="0"
       refX="0"
       id="marker4673"
       style="overflow:visible"
       inkscape:isstock="true">
      <path
         id="path4675"
         d="M 0,0 5,-5 -12.5,0 5,5 0,0 Z"
         style="fill:#000000;fill-opacity:1;fill-rule:evenodd;stroke:#000000;stroke-width:1pt;stroke-opacity:1"
         transform="matrix(-0.4,0,0,-0.4,-4,0)"
         inkscape:connector-curvature="0" />
    </marker>
    <marker
       inkscape:stockid="Arrow1Mend"
       orient="auto"
       refY="0"
       refX="0"
       id="marker4603"
       style="overflow:visible"
       inkscape:isstock="true">
      <path
         id="path4605"
         d="M 0,0 5,-5 -12.5,0 5,5 0,0 Z"
         style="fill:#000000;fill-opacity:1;fill-rule:evenodd;stroke:#000000;stroke-width:1pt;stroke-opacity:1"
         transform="matrix(-0.4,0,0,-0.4,-4,0)"
         inkscape:connector-curvature="0" />
    </marker>
    <marker
       inkscape:stockid="Arrow1Mend"
       orient="auto"
       refY="0"
       refX="0"
       id="marker4539"
       style="overflow:visible"
       inkscape:isstock="true">
      <path
         id="path4541"
         d="M 0,0 5,-5 -12.5,0 5,5 0,0 Z"
         style="fill:#000000;fill-opacity:1;fill-rule:evenodd;stroke:#000000;stroke-width:1pt;stroke-opacity:1"
         transform="matrix(-0.4,0,0,-0.4,-4,0)"
         inkscape:connector-curvature="0" />
    </marker>
    <marker
       inkscape:isstock="true"
       style="overflow:visible"
       id="marker4433"
       refX="0"
       refY="0"
       orient="auto"
       inkscape:stockid="Arrow1Mend"
       inkscape:collect="always">
      <path
         transform="matrix(-0.4,0,0,-0.4,-4,0)"
         style="fill:#000000;fill-opacity:1;fill-rule:evenodd;stroke:#000000;stroke-width:1pt;stroke-opacity:1"
         d="M 0,0 5,-5 -12.5,0 5,5 0,0 Z"
         id="path4435"
         inkscape:connector-curvature="0" />
    </marker>
    <marker
       inkscape:isstock="true"
       style="overflow:visible"
       id="marker4381"
       refX="0"
       refY="0"
       orient="auto"
       inkscape:stockid="Arrow1Mend">
      <path
         transform="matrix(-0.4,0,0,-0.4,-4,0)"
         style="fill:#000000;fill-opacity:1;fill-rule:evenodd;stroke:#000000;stroke-width:1pt;stroke-opacity:1"
         d="M 0,0 5,-5 -12.5,0 5,5 0,0 Z"
         id="path4383"
         inkscape:connector-curvature="0" />
    </marker>
    <marker
       inkscape:isstock="true"
       style="overflow:visible"
       id="marker4335"
       refX="0"
       refY="0"
       orient="auto"
       inkscape:stockid="Arrow1Mend">
      <path
         transform="matrix(-0.4,0,0,-0.4,-4,0)"
         style="fill:#000000;fill-opacity:1;fill-rule:evenodd;stroke:#000000;stroke-width:1pt;stroke-opacity:1"
         d="M 0,0 5,-5 -12.5,0 5,5 0,0 Z"
         id="path4337"
         inkscape:connector-curvature="0" />
    </marker>
    <marker
       inkscape:isstock="true"
       style="overflow:visible"
       id="marker4295"
       refX="0"
       refY="0"
       orient="auto"
       inkscape:stockid="Arrow1Mend">
      <path
         transform="matrix(-0.4,0,0,-0.4,-4,0)"
         style="fill:#000000;fill-opacity:1;fill-rule:evenodd;stroke:#000000;stroke-width:1pt;stroke-opacity:1"
         d="M 0,0 5,-5 -12.5,0 5,5 0,0 Z"
         id="path4297"
         inkscape:connector-curvature="0" />
    </marker>
    <marker
       inkscape:isstock="true"
       style="overflow:visible"
       id="marker4261"
       refX="0"
       refY="0"
       orient="auto"
       inkscape:stockid="Arrow1Mend">
      <path
         transform="matrix(-0.4,0,0,-0.4,-4,0)"
         style="fill:#000000;fill-opacity:1;fill-rule:evenodd;stroke:#000000;stroke-width:1pt;stroke-opacity:1"
         d="M 0,0 5,-5 -12.5,0 5,5 0,0 Z"
         id="path4263"
         inkscape:connector-curvature="0" />
    </marker>
    <marker
       inkscape:stockid="Arrow1Mend"
       orient="auto"
       refY="0"
       refX="0"
       id="Arrow1Mend"
       style="overflow:visible"
       inkscape:isstock="true"
       inkscape:collect="always">
      <path
         id="path1054"
         d="M 0,0 5,-5 -12.5,0 5,5 0,0 Z"
         style="fill:#000000;fill-opacity:1;fill-rule:evenodd;stroke:#000000;stroke-width:1pt;stroke-opacity:1"
         transform="matrix(-0.4,0,0,-0.4,-4,0)"
         inkscape:connector-curvature="0" />
    </marker>
    <marker
       inkscape:stockid="Arrow1Mend"
       orient="auto"
       refY="0"
       refX="0"
       id="Arrow1Mend-4"
       style="overflow:visible"
       inkscape:isstock="true">
      <path
         inkscape:connector-curvature="0"
         id="path1054-0"
         d="M 0,0 5,-5 -12.5,0 5,5 Z"
         style="fill:#000000;fill-opacity:1;fill-rule:evenodd;stroke:#000000;stroke-width:1pt;stroke-opacity:1"
         transform="matrix(-0.4,0,0,-0.4,-4,0)" />
    </marker>
    <marker
       inkscape:stockid="Arrow1Mend"
       orient="auto"
       refY="0"
       refX="0"
       id="Arrow1Mend-7"
       style="overflow:visible"
       inkscape:isstock="true">
      <path
         inkscape:connector-curvature="0"
         id="path1054-1"
         d="M 0,0 5,-5 -12.5,0 5,5 Z"
         style="fill:#000000;fill-opacity:1;fill-rule:evenodd;stroke:#000000;stroke-width:1pt;stroke-opacity:1"
         transform="matrix(-0.4,0,0,-0.4,-4,0)" />
    </marker>
  </defs>
  <metadata
     id="metadata5">
    <rdf:RDF>
      <cc:Work
         rdf:about="">
        <dc:format>image/svg+xml</dc:format>
        <dc:type
           rdf:resource="http://purl.org/dc/dcmitype/StillImage" />
        <dc:title></dc:title>
      </cc:Work>
    </rdf:RDF>
  </metadata>
  <g
     inkscape:label="Layer 1"
     inkscape:groupmode="layer"
     id="layer1"
     transform="translate(-2.186035,-250.46787)">
    <path
       style="opacity:1;fill:#e6e6e6;fill-opacity:1;fill-rule:nonzero;stroke:none;stroke-width:0.62500006;stroke-linecap:round;stroke-linejoin:bevel;stroke-miterlimit:4;stroke-dasharray:3.75000036, 1.25000012;stroke-dashoffset:0;stroke-opacity:1"
       d="m 5.7468053,270.79172 c 6.3620127,-3.69724 16.9219497,-9.7756 16.9219497,-9.7756 0,0 18.641961,0.12248 27.126851,0.13573 l -9.26793,5.31287 -7.470776,4.32596 c -9.459634,0.0321 -18.221003,-0.0233 -27.3100947,0.001 z"
       id="path5743"
       inkscape:connector-curvature="0"
       sodipodi:nodetypes="cccccc" />
    <path
       style="opacity:1;fill:#e6e6e6;fill-opacity:1;fill-rule:nonzero;stroke:none;stroke-width:0.62500006;stroke-linecap:round;stroke-linejoin:bevel;stroke-miterlimit:4;stroke-dasharray:3.75000036, 1.25000012;stroke-dashoffset:0;stroke-opacity:1"
       d="m 109.88496,98.908457 0.003,-25.761548 28.96836,-16.675064 c 15.93261,-9.171284 30.38973,-17.644863 30.41436,-17.621299 0.14887,26.814547 0.15832,51.665453 0.15832,51.665453 0,0 -5.37436,2.960159 -29.38804,16.802751 -16.0893,9.27462 -29.45726,16.97281 -29.7066,17.10709 l -0.45332,0.24417 0.003,-25.761553 z"
       id="path5759"
       inkscape:connector-curvature="0"
       transform="matrix(0.28222222,0,0,0.28222222,2.186035,250.46787)"
       sodipodi:nodetypes="ccsccscccc" />
    <rect
       style="opacity:1;fill:none;fill-opacity:1;fill-rule:nonzero;stroke:#000000;stroke-width:0.35277778;stroke-linecap:round;stroke-linejoin:bevel;stroke-miterlimit:4;stroke-dasharray:none;stroke-dashoffset:0;stroke-opacity:1;paint-order:stroke markers fill"
       id="rect821"
       width="28.000004"
       height="15.000172"
       x="91"
       y="271.00003" />
    <path
       inkscape:connector-curvature="0"
       style="opacity:1;fill:none;fill-opacity:1;fill-rule:nonzero;stroke:#000000;stroke-width:0.1763889;stroke-linecap:round;stroke-linejoin:bevel;stroke-miterlimit:4;stroke-dasharray:1.05833348, 0.35277783;stroke-dashoffset:0;stroke-opacity:1;paint-order:stroke markers fill"
       d="m 91.000003,286.00016 c 0.09428,-0.21156 0.188552,-0.42311 0.282828,-0.63424 0.09428,-0.21113 0.188553,-0.42183 0.282829,-0.63168 0.09428,-0.20986 0.188552,-0.41886 0.282828,-0.62659 0.09428,-0.20774 0.188552,-0.41419 0.282828,-0.61897 0.09428,-0.20478 0.188552,-0.40786 0.282829,-0.60885 0.09428,-0.201 0.188552,-0.39989 0.282828,-0.59629 0.09428,-0.19641 0.188551,-0.39031 0.282827,-0.58133 0.09428,-0.19102 0.188552,-0.37915 0.282828,-0.56402 0.09428,-0.18487 0.188554,-0.36646 0.28283,-0.54444 0.09428,-0.17797 0.188552,-0.35231 0.282828,-0.52267 0.09428,-0.17036 0.188552,-0.33673 0.282828,-0.4988 0.09428,-0.16206 0.188552,-0.3198 0.282827,-0.47291 0.09428,-0.15311 0.188553,-0.30158 0.282829,-0.44513 0.09428,-0.14354 0.188552,-0.28214 0.282828,-0.41554 0.09428,-0.13341 0.188552,-0.26158 0.282828,-0.3843 0.09428,-0.12272 0.188552,-0.23995 0.282828,-0.35149 0.09428,-0.11155 0.188553,-0.21737 0.282829,-0.31728 0.09428,-0.0999 0.188552,-0.1939 0.282828,-0.28179 0.09428,-0.0879 0.188552,-0.16965 0.282828,-0.24516 0.09428,-0.0755 0.188552,-0.14472 0.282829,-0.20754 0.09428,-0.0628 0.188552,-0.11921 0.282828,-0.1691 0.09428,-0.0499 0.188551,-0.0932 0.282827,-0.12996 0.09428,-0.0367 0.188552,-0.0668 0.282828,-0.0903 0.09428,-0.0235 0.188554,-0.0402 0.28283,-0.0503 0.09428,-0.0101 0.188552,-0.0134 0.282828,-0.0101 0.09428,0.003 0.188552,0.0134 0.282828,0.0302 0.09428,0.0168 0.188551,0.0402 0.282827,0.0703 0.09428,0.0301 0.188553,0.0669 0.282829,0.11019 0.09428,0.0433 0.188552,0.0932 0.282828,0.1496 0.09428,0.0564 0.188552,0.11923 0.282828,0.18841 0.09428,0.0692 0.188552,0.14474 0.282828,0.22647 0.09428,0.0817 0.188553,0.16966 0.282833,0.2636 0.0943,0.0939 0.18855,0.19391 0.28282,0.29969 0.0943,0.10577 0.18856,0.21737 0.28283,0.33455 0.0943,0.11718 0.18855,0.23997 0.28283,0.36808 0.0943,0.12812 0.18855,0.26159 0.28283,0.40012 0.0943,0.13854 0.18855,0.28216 0.28283,0.43056 0.0943,0.14839 0.18855,0.30159 0.28282,0.45925 0.0943,0.15766 0.18856,0.31981 0.28283,0.4861 0.0943,0.16629 0.18855,0.33674 0.28283,0.51099 0.0943,0.17425 0.18856,0.35232 0.28283,0.53383 0.0943,0.1815 0.18856,0.36647 0.28283,0.5545 0.0943,0.18804 0.18855,0.37916 0.28282,0.57296 0.0943,0.19381 0.18856,0.39031 0.28283,0.58911 0.0943,0.19879 0.18855,0.39989 0.28283,0.60287 0.0943,0.20299 0.18856,0.40787 0.28284,0.61422 0.0943,0.20636 0.18855,0.4142 0.28283,0.6231 0.0943,0.20889 0.18854,0.41885 0.28282,0.62945 0.0943,0.2106 0.18855,0.42183 0.28284,0.63328 0.0943,0.21145 0.18854,0.42311 0.28282,0.63456 0.0943,0.21145 0.18855,0.42268 0.28283,0.63328 0.0943,0.2106 0.18855,0.42056 0.28282,0.62945 0.0943,0.2089 0.18855,0.41674 0.28283,0.6231 0.0943,0.20635 0.18856,0.41123 0.28283,0.61422 0.0943,0.20298 0.18855,0.40407 0.28283,0.60287 0.0943,0.1988 0.18855,0.3953 0.28283,0.58911 0.0943,0.19381 0.18855,0.38491 0.28282,0.57296 0.0943,0.18804 0.18856,0.37299 0.28283,0.5545 0.0943,0.18152 0.18855,0.35957 0.28284,0.53383 0.0943,0.17426 0.18854,0.34469 0.28283,0.51099 0.0943,0.1663 0.18854,0.32843 0.28281,0.4861 0.0943,0.15767 0.18857,0.31085 0.28283,0.45925 0.0943,0.14841 0.18856,0.29201 0.28282,0.43056 0.0943,0.13854 0.18856,0.27199 0.28284,0.40012 0.0943,0.12812 0.18855,0.25089 0.28283,0.36808 0.0943,0.11719 0.18855,0.22877 0.28282,0.33455 0.0943,0.10579 0.18856,0.20574 0.28285,0.29969 0.0943,0.094 0.18853,0.18186 0.28281,0.2636 0.0943,0.0817 0.18856,0.15727 0.28283,0.22647 0.0943,0.0692 0.18854,0.13203 0.28283,0.18841 0.0943,0.0564 0.18854,0.10627 0.28283,0.1496 0.0943,0.0433 0.18855,0.0801 0.28283,0.11019 0.0943,0.0301 0.18855,0.0536 0.28282,0.0703 0.0943,0.0168 0.18857,0.0268 0.28284,0.0302 0.0943,0.003 0.18854,-1e-5 0.28282,-0.0101 0.0943,-0.0101 0.18857,-0.0268 0.28284,-0.0503 0.0943,-0.0234 0.18854,-0.0536 0.28282,-0.0903 0.0943,-0.0367 0.18856,-0.0801 0.28282,-0.12996 0.0943,-0.0499 0.18856,-0.10629 0.28284,-0.1691 0.0943,-0.0628 0.18854,-0.13205 0.28282,-0.20754 0.0943,-0.0755 0.18856,-0.15728 0.28283,-0.24516 0.0943,-0.0879 0.18855,-0.18188 0.28283,-0.28179 0.0943,-0.0999 0.18855,-0.20574 0.28281,-0.31728 0.0943,-0.11153 0.18857,-0.22878 0.28285,-0.35149 0.0943,-0.12271 0.18854,-0.2509 0.28281,-0.3843 0.0943,-0.13339 0.18857,-0.27201 0.28284,-0.41554 0.0943,-0.14354 0.18855,-0.29202 0.28283,-0.44513 0.0943,-0.1531 0.18855,-0.31086 0.28284,-0.47291 0.0943,-0.16206 0.18854,-0.32845 0.28283,-0.4988 0.0943,-0.17036 0.18854,-0.3447 0.28281,-0.52267 0.0943,-0.17797 0.18856,-0.35958 0.28284,-0.54444 0.0943,-0.18487 0.18853,-0.37301 0.28282,-0.56402 0.0943,-0.19102 0.18855,-0.38493 0.28284,-0.58133 0.0943,-0.19639 0.18854,-0.3953 0.28282,-0.59629 0.0943,-0.20099 0.18856,-0.40408 0.28282,-0.60885 0.0943,-0.20477 0.18857,-0.41124 0.28284,-0.61897 0.0943,-0.20773 0.18855,-0.41673 0.28281,-0.62659 0.0943,-0.20985 0.18857,-0.42055 0.28285,-0.63168 0.0943,-0.21113 0.18853,-0.42268 0.28282,-0.63424"
       title="sin(x)"
       id="path859" />
    <path
       inkscape:connector-curvature="0"
       id="path871"
       d="m 98.000004,285.97085 0,-9.73227"
       style="fill:none;stroke:#000000;stroke-width:0.1763889;stroke-linecap:round;stroke-linejoin:miter;stroke-opacity:1;marker-end:url(#marker4749)" />
    <path
       inkscape:connector-curvature="0"
       id="path873"
       d="m 102,286.00016 0,-6"
       style="fill:none;stroke:#000000;stroke-width:0.1763889;stroke-linecap:round;stroke-linejoin:miter;stroke-opacity:1;marker-end:url(#marker4673)" />
    <path
       inkscape:connector-curvature="0"
       id="path875"
       d="m 93.999998,286.00016 0,-6"
       style="fill:none;stroke:#000000;stroke-width:0.1763889;stroke-linecap:round;stroke-linejoin:miter;stroke-opacity:1;marker-end:url(#marker4831)" />
    <path
       inkscape:connector-curvature="0"
       id="path871-5"
       d="m 112.00001,285.99815 0,9.7769"
       style="fill:none;stroke:#000000;stroke-width:0.1763889;stroke-linecap:round;stroke-linejoin:miter;stroke-opacity:1;marker-end:url(#marker4539)" />
    <path
       inkscape:connector-curvature="0"
       id="path873-1"
       d="m 116,286.11972 0,5.6525"
       style="fill:none;stroke:#000000;stroke-width:0.1763889;stroke-linecap:round;stroke-linejoin:miter;stroke-opacity:1;marker-end:url(#marker4943)" />
    <path
       inkscape:connector-curvature="0"
       id="path873-3"
       d="m 108,286.11972 0,5.6525"
       style="fill:none;stroke:#000000;stroke-width:0.1763889;stroke-linecap:round;stroke-linejoin:miter;stroke-opacity:1;marker-end:url(#marker4603)" />
    <rect
       style="opacity:1;fill:none;fill-opacity:1;fill-rule:nonzero;stroke:#000000;stroke-width:0.35277778;stroke-linecap:round;stroke-linejoin:bevel;stroke-miterlimit:4;stroke-dasharray:none;stroke-dashoffset:0;stroke-opacity:1;paint-order:stroke markers fill"
       id="rect821-1"
       width="27.832813"
       height="15.000031"
       x="55.167191"
       y="271.00003" />
    <path
       inkscape:connector-curvature="0"
       id="path871-6"
       d="m 69.217244,285.84933 0,-9.49517"
       style="fill:none;stroke:#000000;stroke-width:0.1763889;stroke-linecap:round;stroke-linejoin:miter;stroke-opacity:1;marker-end:url(#marker4295)" />
    <path
       inkscape:connector-curvature="0"
       id="path873-37"
       d="m 65.16719,286.00001 0,-8.70857"
       style="fill:none;stroke:#000000;stroke-width:0.1763889;stroke-linecap:butt;stroke-linejoin:miter;stroke-opacity:1;marker-end:url(#marker4335)" />
    <path
       inkscape:connector-curvature="0"
       id="path875-8"
       d="m 61.16719,286.0013 0,-5.91312"
       style="fill:none;stroke:#000000;stroke-width:0.1763889;stroke-linecap:round;stroke-linejoin:miter;stroke-opacity:1;marker-end:url(#marker4381)" />
    <path
       id="path972"
       title="sin(x)"
       d="m 55.167189,285.99995 c 0.09428,-0.10578 0.188554,-0.21156 0.28283,-0.31728 0.09428,-0.10572 0.188552,-0.21139 0.282828,-0.31695 0.09428,-0.10557 0.188553,-0.21102 0.282828,-0.31632 0.09428,-0.1053 0.188552,-0.21043 0.282827,-0.31536 0.09428,-0.10492 0.188553,-0.20964 0.282828,-0.31408 0.09428,-0.10445 0.188554,-0.20863 0.282829,-0.31249 0.09428,-0.10387 0.188552,-0.20741 0.282829,-0.31059 0.09428,-0.10318 0.188551,-0.20598 0.282828,-0.30837 0.09428,-0.10239 0.188551,-0.20435 0.282829,-0.30584 0.09428,-0.10149 0.188551,-0.20251 0.282828,-0.30301 0.09428,-0.10049 0.188552,-0.20046 0.282828,-0.29986 0.09428,-0.0994 0.188553,-0.19821 0.282828,-0.29642 0.09428,-0.0982 0.188553,-0.19577 0.282828,-0.29267 0.09428,-0.0969 0.188553,-0.19313 0.282828,-0.28864 0.09428,-0.0955 0.188552,-0.1903 0.282829,-0.28431 0.09428,-0.094 0.188553,-0.18727 0.282829,-0.2797 0.09428,-0.0924 0.188552,-0.18405 0.282827,-0.2748 0.09428,-0.0908 0.188552,-0.18065 0.282829,-0.26963 0.09428,-0.089 0.188551,-0.17706 0.282827,-0.26419 0.09428,-0.0871 0.188553,-0.17329 0.282829,-0.25847 0.09428,-0.0852 0.188553,-0.16936 0.28283,-0.25251 0.09428,-0.0831 0.18855,-0.16525 0.282827,-0.24628 0.09428,-0.081 0.188553,-0.16098 0.282828,-0.23981 0.09428,-0.0788 0.188553,-0.15654 0.282828,-0.2331 0.09428,-0.0765 0.188553,-0.15194 0.282827,-0.22615 0.09428,-0.0742 0.188554,-0.14719 0.28283,-0.21897 0.09428,-0.0718 0.188552,-0.1423 0.282829,-0.21157 0.09428,-0.0693 0.188551,-0.13727 0.282827,-0.20397 0.09428,-0.0667 0.188552,-0.13209 0.28283,-0.19615 0.09428,-0.0641 0.18855,-0.12678 0.282826,-0.18814 0.09428,-0.0614 0.188554,-0.12134 0.282828,-0.17993 0.09428,-0.0586 0.188554,-0.11579 0.282829,-0.17155 0.09428,-0.0558 0.188552,-0.11011 0.282828,-0.163 0.09428,-0.0529 0.188552,-0.10432 0.282829,-0.15428 0.09428,-0.05 0.188552,-0.0984 0.282828,-0.1454 0.09428,-0.0469 0.188553,-0.0924 0.282828,-0.13638 0.09428,-0.0439 0.188553,-0.0863 0.282829,-0.12722 0.09428,-0.0409 0.188552,-0.0802 0.282828,-0.11794 0.09428,-0.0377 0.188552,-0.0739 0.282828,-0.10852 0.09428,-0.0346 0.188551,-0.0676 0.282829,-0.099 0.09428,-0.0314 0.188552,-0.0612 0.282829,-0.0894 0.09428,-0.0282 0.188552,-0.0548 0.282826,-0.0797 0.09428,-0.0249 0.188553,-0.0482 0.282829,-0.0699 0.09428,-0.0216 0.188552,-0.0417 0.282827,-0.0601 0.09428,-0.0183 0.188553,-0.0351 0.282829,-0.0501 0.09428,-0.015 0.188553,-0.0285 0.282829,-0.0401 0.09428,-0.0118 0.188552,-0.0218 0.282828,-0.0301 0.09428,-0.008 0.188552,-0.0151 0.282829,-0.0202 0.09428,-0.005 0.188551,-0.008 0.282828,-0.0101 0.09428,-10e-4 0.188551,-10e-4 0.282828,0 0.09428,0.002 0.188552,0.005 0.28283,0.0101 0.09428,0.005 0.188551,0.0118 0.282827,0.0202 0.09428,0.008 0.188553,0.0184 0.282827,0.0301 0.09428,0.0117 0.188554,0.0251 0.282829,0.0401 0.09428,0.0151 0.188551,0.0317 0.282827,0.0501 0.09428,0.0183 0.188553,0.0384 0.28283,0.0601 0.09428,0.0217 0.188551,0.045 0.282828,0.0699 0.09428,0.025 0.188551,0.0515 0.282828,0.0797 0.09428,0.0282 0.188552,0.058 0.282828,0.0894 0.09428,0.0314 0.188552,0.0644 0.282828,0.099 0.09428,0.0346 0.188553,0.0708 0.282827,0.10852 0.09428,0.0378 0.188553,0.0771 0.28283,0.11794 0.09428,0.0408 0.188551,0.0833 0.282828,0.12722 0.09428,0.0439 0.188551,0.0894 0.282827,0.13638 0.09428,0.047 0.188554,0.0954 0.282829,0.1454 0.09428,0.05 0.188553,0.10139 0.282828,0.15428 0.09428,0.0529 0.188554,0.10723 0.28283,0.163 0.09428,0.0558 0.188551,0.11296 0.282827,0.17155 0.09428,0.0586 0.188551,0.11858 0.282829,0.17993 0.09428,0.0614 0.188551,0.12408 0.282828,0.18814 0.09428,0.0641 0.188553,0.12945 0.282829,0.19615 0.09428,0.0667 0.188553,0.1347 0.282827,0.20397 0.09428,0.0693 0.188553,0.1398 0.282829,0.21157 0.09428,0.0718 0.188552,0.14478 0.282827,0.21897 0.09428,0.0742 0.188553,0.1496 0.282828,0.22615 0.09428,0.0765 0.188554,0.15427 0.282831,0.2331 0.09428,0.0788 0.188551,0.15878 0.282827,0.23981 0.09428,0.081 0.188554,0.16314 0.28283,0.24628 0.09428,0.0831 0.188552,0.16733 0.282828,0.25251 0.09428,0.0852 0.188551,0.17135 0.282827,0.25847 0.09428,0.0871 0.188553,0.17521 0.282829,0.26419 0.09428,0.089 0.188552,0.17888 0.282828,0.26963 0.09428,0.0907 0.188553,0.18237 0.282828,0.2748 0.09428,0.0924 0.188552,0.18568 0.282829,0.2797 0.09428,0.094 0.188552,0.1888 0.282827,0.28431 0.09428,0.0955 0.188554,0.19174 0.282829,0.28864 0.09428,0.0969 0.188553,0.19448 0.282829,0.29267 0.09428,0.0982 0.188551,0.19703 0.282827,0.29642 0.09428,0.0994 0.188553,0.19937 0.282829,0.29986 0.09428,0.1005 0.188552,0.20152 0.282829,0.30301 0.09428,0.10149 0.188551,0.20345 0.282828,0.30584 0.09428,0.10239 0.188552,0.20519 0.282829,0.30837 0.09428,0.10318 0.188551,0.20672 0.282827,0.31059 0.09428,0.10386 0.188551,0.20804 0.282827,0.31249 0.09428,0.10444 0.188553,0.20916 0.282829,0.31408 0.09428,0.10493 0.188553,0.21006 0.282829,0.31536 0.09428,0.1053 0.188552,0.21075 0.282827,0.31632 0.09428,0.10556 0.188553,0.21123 0.282829,0.31695 0.09428,0.10572 0.188552,0.2115 0.282829,0.31728"
       style="opacity:1;fill:none;fill-opacity:1;fill-rule:nonzero;stroke:#000000;stroke-width:0.1763889;stroke-linecap:round;stroke-linejoin:bevel;stroke-miterlimit:4;stroke-dasharray:1.05833348, 0.35277783;stroke-dashoffset:0;stroke-opacity:1;paint-order:stroke markers fill"
       inkscape:connector-curvature="0" />
    <path
       inkscape:connector-curvature="0"
       id="path875-8-5"
       d="m 77.16719,286.00098 0,-5.93484"
       style="fill:none;stroke:#000000;stroke-width:0.17638892;stroke-linecap:round;stroke-linejoin:miter;stroke-opacity:1;marker-end:url(#marker4433)" />
    <path
       inkscape:connector-curvature="0"
       id="path873-37-9"
       d="m 73.16719,286.00001 0,-8.70851"
       style="fill:none;stroke:#000000;stroke-width:0.1763889;stroke-linecap:butt;stroke-linejoin:miter;stroke-opacity:1;marker-end:url(#marker4261)" />
    <rect
       style="opacity:1;fill:none;fill-opacity:1;fill-rule:nonzero;stroke:#000000;stroke-width:0.35277778;stroke-linecap:round;stroke-linejoin:bevel;stroke-miterlimit:4;stroke-dasharray:none;stroke-dashoffset:0;stroke-opacity:1;paint-order:stroke markers fill"
       id="rect821-1-4"
       width="28.000004"
       height="15.000023"
       x="4.9999962"
       y="271.00003" />
    <path
       style="fill:none;stroke:#000000;stroke-width:0.1763889;stroke-linecap:round;stroke-linejoin:miter;stroke-opacity:1;marker-end:url(#Arrow1Mend)"
       d="m 4.8684117,286.00002 0,-35"
       id="path1043"
       inkscape:connector-curvature="0" />
    <path
       style="fill:none;stroke:#000000;stroke-width:0.1763889;stroke-linecap:round;stroke-linejoin:miter;stroke-opacity:1;marker-end:url(#Arrow1Mend-4)"
       d="m 4.8644203,286.18278 39.0000007,0"
       id="path1043-8"
       inkscape:connector-curvature="0" />
    <path
       style="fill:none;stroke:#000000;stroke-width:0.1763889;stroke-linecap:round;stroke-linejoin:miter;stroke-opacity:1;marker-end:url(#Arrow1Mend-7)"
       d="M 4.9999995,286.00002 27.221748,273.09131"
       id="path1043-7"
       inkscape:connector-curvature="0"
       sodipodi:nodetypes="cc" />
    <path
       style="fill:none;stroke:#000000;stroke-width:0.35277778;stroke-linecap:round;stroke-linejoin:miter;stroke-opacity:1"
       d="M 22.35763,261.0005 4.9999999,271.00002"
       id="path2352"
       inkscape:connector-curvature="0" />
    <path
       style="fill:none;stroke:#000000;stroke-width:0.35277778;stroke-linecap:round;stroke-linejoin:miter;stroke-opacity:1"
       d="M 49.842541,261.30049 33,271.00002"
       id="path2352-4"
       inkscape:connector-curvature="0" />
    <path
       style="fill:none;stroke:#000000;stroke-width:0.35277778;stroke-linecap:round;stroke-linejoin:miter;stroke-opacity:1"
       d="M 50.014239,276.2005 33,286.00002"
       id="path2352-1"
       inkscape:connector-curvature="0" />
    <g
       inkscape:groupmode="layer"
       id="layer2"
       inkscape:label="Надписи">
      <text
         xml:space="preserve"
         style="font-style:normal;font-variant:normal;font-weight:normal;font-stretch:normal;font-size:2.11666656px;line-height:1.25;font-family:'Times New Roman';-inkscape-font-specification:'Times New Roman, Normal';text-align:start;letter-spacing:0px;word-spacing:0px;writing-mode:lr-tb;text-anchor:start;fill:#000000;fill-opacity:1;stroke:none;stroke-width:0.26458332"
         x="74"
         y="276.00003"
         id="text2398"><tspan
           sodipodi:role="line"
           id="tspan2396"
           x="74"
           y="276.00003"
           style="stroke-width:0.26458332">$E_y$</tspan></text>
      <text
         xml:space="preserve"
         style="font-style:normal;font-variant:normal;font-weight:normal;font-stretch:normal;font-size:2.11666656px;line-height:1.25;font-family:'Times New Roman';-inkscape-font-specification:'Times New Roman, Normal';text-align:start;letter-spacing:0px;word-spacing:0px;writing-mode:lr-tb;text-anchor:start;fill:#000000;fill-opacity:1;stroke:none;stroke-width:0.26458332"
         x="102"
         y="276.00003"
         id="text2398-6"><tspan
           sodipodi:role="line"
           id="tspan2396-0"
           x="102"
           y="276.00003"
           style="stroke-width:0.26458332">$E_y$</tspan></text>
      <text
         xml:space="preserve"
         style="font-style:normal;font-variant:normal;font-weight:normal;font-stretch:normal;font-size:2.11666656px;line-height:1.25;font-family:'Times New Roman';-inkscape-font-specification:'Times New Roman, Normal';text-align:start;letter-spacing:0px;word-spacing:0px;writing-mode:lr-tb;text-anchor:start;fill:#000000;fill-opacity:1;stroke:none;stroke-width:0.26458332"
         x="67"
         y="290.00003"
         id="text2420"><tspan
           sodipodi:role="line"
           id="tspan2418"
           x="67"
           y="290.00003"
           style="stroke-width:0.26458332">$n = 1$</tspan></text>
      <text
         xml:space="preserve"
         style="font-style:normal;font-variant:normal;font-weight:normal;font-stretch:normal;font-size:2.11666656px;line-height:1.25;font-family:'Times New Roman';-inkscape-font-specification:'Times New Roman, Normal';text-align:start;letter-spacing:0px;word-spacing:0px;writing-mode:lr-tb;text-anchor:start;fill:#000000;fill-opacity:1;stroke:none;stroke-width:0.1763889"
         x="94"
         y="290.00003"
         id="text2424"><tspan
           sodipodi:role="line"
           id="tspan2422"
           x="94"
           y="290.00003"
           style="stroke-width:0.1763889">$n = 2$</tspan></text>
      <text
         xml:space="preserve"
         style="color:#000000;font-style:normal;font-variant:normal;font-weight:normal;font-stretch:normal;font-size:3.52777791px;line-height:125%;font-family:'Times New Roman';-inkscape-font-specification:'Times New Roman, ';text-indent:0;text-align:start;text-decoration:none;text-decoration-line:none;text-decoration-style:solid;text-decoration-color:#000000;letter-spacing:0px;word-spacing:0px;text-transform:none;direction:ltr;block-progression:tb;writing-mode:lr-tb;baseline-shift:baseline;text-anchor:start;white-space:normal;clip-rule:nonzero;display:inline;overflow:visible;visibility:visible;opacity:1;isolation:auto;mix-blend-mode:normal;color-interpolation:sRGB;color-interpolation-filters:linearRGB;solid-color:#000000;solid-opacity:1;fill:#000000;fill-opacity:1;fill-rule:nonzero;stroke:none;stroke-width:0.5;stroke-linecap:butt;stroke-linejoin:miter;stroke-miterlimit:4;stroke-dasharray:none;stroke-dashoffset:0;stroke-opacity:1;color-rendering:auto;image-rendering:auto;shape-rendering:auto;text-rendering:auto;enable-background:accumulate"
         x="42"
         y="290.00003"
         id="text4199"
         sodipodi:linespacing="125%"><tspan
           sodipodi:role="line"
           id="tspan4201"
           x="42"
           y="290.00003">$x$</tspan></text>
      <text
         sodipodi:linespacing="125%"
         id="text4239"
         y="277.00003"
         x="24.999998"
         style="color:#000000;font-style:normal;font-variant:normal;font-weight:normal;font-stretch:normal;font-size:3.52777791px;line-height:125%;font-family:'Times New Roman';-inkscape-font-specification:'Times New Roman, ';text-indent:0;text-align:start;text-decoration:none;text-decoration-line:none;text-decoration-style:solid;text-decoration-color:#000000;letter-spacing:0px;word-spacing:0px;text-transform:none;direction:ltr;block-progression:tb;writing-mode:lr-tb;baseline-shift:baseline;text-anchor:start;white-space:normal;clip-rule:nonzero;display:inline;overflow:visible;visibility:visible;opacity:1;isolation:auto;mix-blend-mode:normal;color-interpolation:sRGB;color-interpolation-filters:linearRGB;solid-color:#000000;solid-opacity:1;fill:#000000;fill-opacity:1;fill-rule:nonzero;stroke:none;stroke-width:0.5;stroke-linecap:butt;stroke-linejoin:miter;stroke-miterlimit:4;stroke-dasharray:none;stroke-dashoffset:0;stroke-opacity:1;color-rendering:auto;image-rendering:auto;shape-rendering:auto;text-rendering:auto;enable-background:accumulate"
         xml:space="preserve"><tspan
           y="277.00003"
           x="24.999998"
           id="tspan4241"
           sodipodi:role="line">$z$</tspan></text>
      <text
         xml:space="preserve"
         style="color:#000000;font-style:normal;font-variant:normal;font-weight:normal;font-stretch:normal;font-size:3.52777791px;line-height:125%;font-family:'Times New Roman';-inkscape-font-specification:'Times New Roman, ';text-indent:0;text-align:start;text-decoration:none;text-decoration-line:none;text-decoration-style:solid;text-decoration-color:#000000;letter-spacing:0px;word-spacing:0px;text-transform:none;direction:ltr;block-progression:tb;writing-mode:lr-tb;baseline-shift:baseline;text-anchor:start;white-space:normal;clip-rule:nonzero;display:inline;overflow:visible;visibility:visible;opacity:1;isolation:auto;mix-blend-mode:normal;color-interpolation:sRGB;color-interpolation-filters:linearRGB;solid-color:#000000;solid-opacity:1;fill:#000000;fill-opacity:1;fill-rule:nonzero;stroke:none;stroke-width:0.5;stroke-linecap:butt;stroke-linejoin:miter;stroke-miterlimit:4;stroke-dasharray:none;stroke-dashoffset:0;stroke-opacity:1;color-rendering:auto;image-rendering:auto;shape-rendering:auto;text-rendering:auto;enable-background:accumulate"
         x="6"
         y="253.00002"
         id="text4243"
         sodipodi:linespacing="125%"><tspan
           sodipodi:role="line"
           id="tspan4245"
           x="6"
           y="253.00002">$y$</tspan></text>
      <text
         xml:space="preserve"
         style="color:#000000;font-style:normal;font-variant:normal;font-weight:normal;font-stretch:normal;font-size:3.52777791px;line-height:125%;font-family:'Times New Roman';-inkscape-font-specification:'Times New Roman, ';text-indent:0;text-align:start;text-decoration:none;text-decoration-line:none;text-decoration-style:solid;text-decoration-color:#000000;letter-spacing:0px;word-spacing:0px;text-transform:none;direction:ltr;block-progression:tb;writing-mode:lr-tb;baseline-shift:baseline;text-anchor:start;white-space:normal;clip-rule:nonzero;display:inline;overflow:visible;visibility:visible;opacity:1;isolation:auto;mix-blend-mode:normal;color-interpolation:sRGB;color-interpolation-filters:linearRGB;solid-color:#000000;solid-opacity:1;fill:#000000;fill-opacity:1;fill-rule:nonzero;stroke:none;stroke-width:0.5;stroke-linecap:butt;stroke-linejoin:miter;stroke-miterlimit:4;stroke-dasharray:none;stroke-dashoffset:0;stroke-opacity:1;color-rendering:auto;image-rendering:auto;shape-rendering:auto;text-rendering:auto;enable-background:accumulate"
         x="18"
         y="289.00003"
         id="text4247"
         sodipodi:linespacing="125%"><tspan
           sodipodi:role="line"
           id="tspan4249"
           x="18"
           y="289.00003">$a$</tspan></text>
      <text
         sodipodi:linespacing="125%"
         id="text4251"
         y="279.00003"
         x="1.9999999"
         style="color:#000000;font-style:normal;font-variant:normal;font-weight:normal;font-stretch:normal;font-size:3.52777791px;line-height:125%;font-family:'Times New Roman';-inkscape-font-specification:'Times New Roman, ';text-indent:0;text-align:start;text-decoration:none;text-decoration-line:none;text-decoration-style:solid;text-decoration-color:#000000;letter-spacing:0px;word-spacing:0px;text-transform:none;direction:ltr;block-progression:tb;writing-mode:lr-tb;baseline-shift:baseline;text-anchor:start;white-space:normal;clip-rule:nonzero;display:inline;overflow:visible;visibility:visible;opacity:1;isolation:auto;mix-blend-mode:normal;color-interpolation:sRGB;color-interpolation-filters:linearRGB;solid-color:#000000;solid-opacity:1;fill:#000000;fill-opacity:1;fill-rule:nonzero;stroke:none;stroke-width:0.5;stroke-linecap:butt;stroke-linejoin:miter;stroke-miterlimit:4;stroke-dasharray:none;stroke-dashoffset:0;stroke-opacity:1;color-rendering:auto;image-rendering:auto;shape-rendering:auto;text-rendering:auto;enable-background:accumulate"
         xml:space="preserve"><tspan
           y="279.00003"
           x="1.9999999"
           id="tspan4253"
           sodipodi:role="line">$b$</tspan></text>
    </g>
    <path
       inkscape:connector-curvature="0"
       id="path5761"
       d="M 22.620806,275.60678 5.2631762,285.6063"
       style="fill:none;stroke:#000000;stroke-width:0.35277778;stroke-linecap:round;stroke-linejoin:miter;stroke-opacity:1" />
  </g>
</svg>
