<?xml version="1.0" encoding="UTF-8" standalone="no"?>
<!-- Created with Inkscape (http://www.inkscape.org/) -->

<svg
   xmlns:dc="http://purl.org/dc/elements/1.1/"
   xmlns:cc="http://creativecommons.org/ns#"
   xmlns:rdf="http://www.w3.org/1999/02/22-rdf-syntax-ns#"
   xmlns:svg="http://www.w3.org/2000/svg"
   xmlns="http://www.w3.org/2000/svg"
   xmlns:sodipodi="http://sodipodi.sourceforge.net/DTD/sodipodi-0.dtd"
   xmlns:inkscape="http://www.inkscape.org/namespaces/inkscape"
   inkscape:version="0.91 r13725"
   sodipodi:docname="17.svg"
   viewBox="0 0 498.66666 142.66667"
   height="142.66667"
   width="498.66666"
   xml:space="preserve"
   id="svg2"
   version="1.1"><sodipodi:namedview
     inkscape:current-layer="g12"
     inkscape:window-maximized="1"
     inkscape:window-y="-9"
     inkscape:window-x="-9"
     inkscape:cy="42.487922"
     inkscape:cx="343.34019"
     inkscape:zoom="1.6597097"
     showgrid="true"
     id="namedview4"
     inkscape:window-height="1003"
     inkscape:window-width="1920"
     inkscape:pageshadow="2"
     inkscape:pageopacity="0"
     guidetolerance="10"
     gridtolerance="10"
     objecttolerance="10"
     borderopacity="1"
     bordercolor="#666666"
     pagecolor="#ffffff"
     inkscape:snap-text-baseline="true"><inkscape:grid
       spacingy="0.75590551"
       spacingx="0.75590551"
       units="mm"
       id="grid1043"
       type="xygrid" /></sodipodi:namedview><metadata
     id="metadata8"><rdf:RDF><cc:Work
         rdf:about=""><dc:format>image/svg+xml</dc:format><dc:type
           rdf:resource="http://purl.org/dc/dcmitype/StillImage" /><dc:title /></cc:Work></rdf:RDF></metadata><defs
     id="defs6"><marker
       inkscape:isstock="true"
       style="overflow:visible"
       id="marker5037"
       refX="0"
       refY="0"
       orient="auto"
       inkscape:stockid="Arrow1Mend"><path
         transform="matrix(-0.4,0,0,-0.4,-4,0)"
         style="fill:#000000;fill-opacity:1;fill-rule:evenodd;stroke:#000000;stroke-width:1.00000003pt;stroke-opacity:1"
         d="M 0,0 5,-5 -12.5,0 5,5 Z"
         id="path5035"
         inkscape:connector-curvature="0" /></marker><marker
       inkscape:stockid="Arrow1Mend"
       orient="auto"
       refY="0.0"
       refX="0.0"
       id="Arrow1Mend"
       style="overflow:visible;"
       inkscape:isstock="true"><path
         id="path4375"
         d="M 0.0,0.0 L 5.0,-5.0 L -12.5,0.0 L 5.0,5.0 L 0.0,0.0 z "
         style="fill-rule:evenodd;stroke:#000000;stroke-width:1pt;stroke-opacity:1;fill:#000000;fill-opacity:1"
         transform="scale(0.4) rotate(180) translate(10,0)" /></marker><marker
       inkscape:stockid="Arrow1Mend"
       orient="auto"
       refY="0"
       refX="0"
       id="Arrow1Mend-0"
       style="overflow:visible"
       inkscape:isstock="true"
       inkscape:collect="always"><path
         inkscape:connector-curvature="0"
         id="path4375-7"
         d="M 0,0 5,-5 -12.5,0 5,5 Z"
         style="fill:#000000;fill-opacity:1;fill-rule:evenodd;stroke:#000000;stroke-width:1.00000003pt;stroke-opacity:1"
         transform="matrix(-0.4,0,0,-0.4,-4,0)" /></marker><marker
       inkscape:isstock="true"
       style="overflow:visible"
       id="marker5037-0"
       refX="0"
       refY="0"
       orient="auto"
       inkscape:stockid="Arrow1Mend"><path
         transform="matrix(-0.4,0,0,-0.4,-4,0)"
         style="fill:#000000;fill-opacity:1;fill-rule:evenodd;stroke:#000000;stroke-width:1.00000003pt;stroke-opacity:1"
         d="M 0,0 5,-5 -12.5,0 5,5 Z"
         id="path5035-3"
         inkscape:connector-curvature="0" /></marker></defs><g
     transform="matrix(1.3333333,0,0,-1.3333333,0,142.66667)"
     inkscape:label="17-eps-converted-to"
     inkscape:groupmode="layer"
     id="g10"><g
       transform="scale(0.1)"
       id="g12"><path
         inkscape:connector-curvature="0"
         id="path428"
         style="fill:none;stroke:#000000;stroke-width:4.68750012;stroke-linecap:round;stroke-linejoin:round;stroke-miterlimit:10;stroke-dasharray:none;stroke-opacity:1;marker-end:url(#marker5037)"
         d="M 28.346456,453.5433 H 1190.5512" /><path
         inkscape:connector-curvature="0"
         id="path430"
         style="fill:none;stroke:#000000;stroke-width:4.68750012;stroke-linecap:round;stroke-linejoin:round;stroke-miterlimit:10;stroke-dasharray:none;stroke-opacity:1;marker-end:url(#Arrow1Mend)"
         d="m 1417.3195,453.5433 h 2267.72" /><path
         inkscape:connector-curvature="0"
         id="path460"
         style="fill:none;stroke:#000000;stroke-width:4.68750012;stroke-linecap:butt;stroke-linejoin:miter;stroke-miterlimit:4;stroke-dasharray:none;stroke-opacity:1"
         d="M 2012.5985,453.54332 V 425.19686" /><path
         id="path4125"
         title="sin(x)/x"
         d="m 2721.2598,453.5433 c 14.9192,-7.95773 29.8384,-12.42612 44.7576,-4.79968 14.9191,7.62644 29.8383,19.44318 44.7575,14.36772 14.9192,-5.07545 29.8384,-22.9814 44.7576,-22.7104 14.9192,0.271 29.8384,21.01352 44.7576,27.41479 14.9191,6.40128 29.8383,-11.83919 44.7575,-25.97224 14.9192,-14.13305 29.8384,-5.95426 44.7576,15.73088 14.9192,21.68514 29.8384,34.19167 44.7576,7.10198 14.9192,-27.08968 29.8383,-77.89851 44.7575,-53.17629 14.9192,24.72222 29.8384,134.50634 44.7576,208.23355 14.9192,73.72721 29.8384,73.63422 44.7576,0 14.9192,-73.63422 29.8383,-183.38019 44.7575,-208.23355 14.9192,-24.85335 29.8384,26.03895 44.7576,53.17629 14.9192,27.13735 29.8384,14.58615 44.7576,-7.10198 14.9192,-21.68813 29.8383,-29.84291 44.7576,-15.73088 14.9191,14.11203 29.8383,32.34254 44.7575,25.97224 14.9192,-6.3703 29.8384,-27.11304 44.7576,-27.41479 14.9192,-0.30175 29.8384,17.61127 44.7576,22.7104 14.9191,5.09914 29.8383,-6.72829 44.7575,-14.36772 14.9192,-7.63943 29.8384,-3.15805 44.7576,4.79968"
         style="opacity:1;fill:none;fill-opacity:1;stroke:#000000;stroke-width:9.37500023;stroke-linecap:square;stroke-linejoin:miter;stroke-miterlimit:10;stroke-dasharray:none;stroke-opacity:1;paint-order:markers stroke fill"
         inkscape:connector-curvature="0" /><path
         inkscape:connector-curvature="0"
         id="path430-4"
         style="fill:none;stroke:#000000;stroke-width:4.68750012;stroke-linecap:round;stroke-linejoin:round;stroke-miterlimit:10;stroke-dasharray:none;stroke-opacity:1;marker-end:url(#Arrow1Mend-0)"
         d="M 2579.5276,28.346444 V 1020.4725" /><path
         id="path4125-7"
         title="sin(x)/x"
         d="m 1587.4016,453.5433 c 14.9192,-7.95773 29.8384,-12.42612 44.7576,-4.79968 14.9191,7.62644 29.8383,19.44318 44.7575,14.36772 14.9192,-5.07545 29.8384,-22.9814 44.7576,-22.7104 14.9192,0.27098 29.8384,21.01352 44.7576,27.41479 14.9191,6.40128 29.8383,-11.83919 44.7575,-25.97224 14.9192,-14.13305 29.8384,-5.95426 44.7576,15.73088 14.9192,21.68514 29.8384,34.19167 44.7576,7.10198 14.9192,-27.08968 29.8383,-77.8985 44.7575,-53.17628 14.9192,24.72221 29.8384,134.50633 44.7576,208.23353 14.9192,73.7272 29.8384,73.6342 44.7576,0 14.9192,-73.63421 29.8383,-183.38018 44.7575,-208.23353 14.9192,-24.85335 29.8384,26.03894 44.7576,53.17628 14.9192,27.13735 29.8384,14.58615 44.7576,-7.10198 14.9192,-21.68813 29.8383,-29.84291 44.7576,-15.73088 14.9191,14.11203 29.8383,32.34254 44.7575,25.97224 14.9192,-6.3703 29.8384,-27.11304 44.7576,-27.41479 14.9192,-0.30172 29.8384,17.61127 44.7576,22.7104 14.9191,5.09914 29.8383,-6.72829 44.7576,-14.36772 14.9191,-7.63943 29.8383,-3.15805 44.7576,4.79968"
         style="opacity:1;fill:none;fill-opacity:1;stroke:#000000;stroke-width:9.37500023;stroke-linecap:square;stroke-linejoin:miter;stroke-miterlimit:10;stroke-dasharray:none;stroke-opacity:1;paint-order:markers stroke fill"
         inkscape:connector-curvature="0" /><path
         inkscape:connector-curvature="0"
         id="path460-5"
         style="fill:none;stroke:#000000;stroke-width:4.68750012;stroke-linecap:butt;stroke-linejoin:miter;stroke-miterlimit:4;stroke-dasharray:none;stroke-opacity:1"
         d="M 3146.4568,453.5433 V 425.19685" /><path
         inkscape:connector-curvature="0"
         id="path428-9"
         style="fill:none;stroke:#000000;stroke-width:4.68750012;stroke-linecap:round;stroke-linejoin:round;stroke-miterlimit:10;stroke-dasharray:none;stroke-opacity:1;marker-end:url(#marker5037-0)"
         d="M 566.92915,28.346444 V 1020.4725" /><path
         id="path4125-7-6"
         title="sin(x)/x"
         d="m 141.73214,453.5433 c 14.9192,-17.22336 29.8384,-26.89455 44.7576,-10.38822 14.9191,16.50634 29.8383,42.08196 44.7575,31.09686 14.9192,-10.98507 29.8384,-49.73993 44.7576,-49.15339 14.9192,0.5865 29.8384,45.48075 44.7576,59.33537 14.9191,13.85465 29.8383,-25.62422 44.7575,-56.21317 14.9192,-30.58896 29.8384,-12.88714 44.7576,34.04722 14.9192,46.93436 29.83841,74.00295 44.7576,15.37122 14.9192,-58.63172 29.8383,-168.60009 44.7575,-115.09241 14.9192,53.50766 29.8384,291.11958 44.7576,450.69146 14.9192,159.57189 29.8384,159.37059 44.7576,0 14.9192,-159.37061 29.8383,-396.89996 44.7575,-450.69146 14.9192,-53.7915 29.8384,56.35754 44.7576,115.09241 14.9192,58.73489 29.8384,31.56961 44.7576,-15.37122 14.9192,-46.94083 29.8383,-64.59068 44.7576,-34.04722 14.9191,30.54345 29.8383,70.00076 44.7575,56.21317 14.9192,-13.78759 29.8384,-58.68227 44.7576,-59.33537 14.9192,-0.65303 29.83838,38.11706 44.7576,49.15339 14.91907,11.03636 29.83827,-14.56241 44.75757,-31.09686 14.9191,-16.53444 29.8383,-6.83514 44.7576,10.38822"
         style="opacity:1;fill:none;fill-opacity:1;stroke:#000000;stroke-width:9.37500023;stroke-linecap:square;stroke-linejoin:miter;stroke-miterlimit:10;stroke-dasharray:none;stroke-opacity:1;paint-order:markers stroke fill"
         inkscape:connector-curvature="0" /><text
         xml:space="preserve"
         style="font-style:normal;font-variant:normal;font-weight:normal;font-stretch:normal;font-size:60px;line-height:1.25;font-family:'Times New Roman';-inkscape-font-specification:'Times New Roman, Normal';text-align:start;letter-spacing:0px;word-spacing:0px;writing-mode:lr-tb;text-anchor:start;fill:#000000;fill-opacity:1;stroke:none;stroke-width:7.5"
         x="651.96851"
         y="-992.12598"
         id="text5439"
         transform="scale(1,-1)"><tspan
           sodipodi:role="line"
           id="tspan5437"
           x="651.96851"
           y="-992.12598"
           style="stroke-width:7.5">$F_0(\omega)$</tspan></text>
<text
         xml:space="preserve"
         style="font-style:normal;font-variant:normal;font-weight:normal;font-stretch:normal;font-size:60px;line-height:1.25;font-family:'Times New Roman';-inkscape-font-specification:'Times New Roman, Normal';font-variant-ligatures:normal;font-variant-caps:normal;font-variant-numeric:normal;text-align:start;letter-spacing:0px;word-spacing:0px;writing-mode:lr-tb;text-anchor:start;fill:#000000;fill-opacity:1;stroke:none;stroke-width:7.5"
         x="453.5433"
         y="-935.43311"
         id="text5443"
         transform="scale(1,-1)"><tspan
           sodipodi:role="line"
           id="tspan5441"
           x="453.5433"
           y="-935.43311"
           style="stroke-width:7.5">$\tau$</tspan></text>
<text
         xml:space="preserve"
         style="font-style:normal;font-variant:normal;font-weight:normal;font-stretch:normal;font-size:60px;line-height:1.25;font-family:'Times New Roman';-inkscape-font-specification:'Times New Roman, Normal';font-variant-ligatures:normal;font-variant-caps:normal;font-variant-numeric:normal;text-align:start;letter-spacing:0px;word-spacing:0px;writing-mode:lr-tb;text-anchor:start;fill:#000000;fill-opacity:1;stroke:none;stroke-width:7.5"
         x="1162.2047"
         y="-510.23621"
         id="text5447"
         transform="scale(1,-1)"><tspan
           sodipodi:role="line"
           id="tspan5445"
           x="1162.2047"
           y="-510.23621"
           style="stroke-width:7.5">$\omega$</tspan></text>
<text
         xml:space="preserve"
         style="font-style:normal;font-variant:normal;font-weight:normal;font-stretch:normal;font-size:60px;line-height:1.25;font-family:'Times New Roman';-inkscape-font-specification:'Times New Roman, Normal';text-align:start;letter-spacing:0px;word-spacing:0px;writing-mode:lr-tb;text-anchor:start;fill:#000000;fill-opacity:1;stroke:none;stroke-width:7.5"
         x="2636.2205"
         y="-992.12598"
         id="text5451"
         transform="scale(1,-1)"><tspan
           sodipodi:role="line"
           id="tspan5449"
           x="2636.2205"
           y="-992.12598"
           style="stroke-width:7.5">$F(\omega)$</tspan></text>
<text
         xml:space="preserve"
         style="font-style:normal;font-variant:normal;font-weight:normal;font-stretch:normal;font-size:60px;line-height:1.25;font-family:'Times New Roman';-inkscape-font-specification:'Times New Roman, Normal';text-align:start;letter-spacing:0px;word-spacing:0px;writing-mode:lr-tb;text-anchor:start;fill:#000000;fill-opacity:1;stroke:none;stroke-width:7.5"
         x="2437.7954"
         y="-651.96851"
         id="text5455"
         transform="scale(1,-1)"><tspan
           sodipodi:role="line"
           id="tspan5453"
           x="2437.7954"
           y="-651.96851"
           style="stroke-width:7.5">$\frac{\tau}{2}$</tspan></text>
<text
         xml:space="preserve"
         style="font-style:normal;font-variant:normal;font-weight:normal;font-stretch:normal;font-size:60px;line-height:1.25;font-family:'Times New Roman';-inkscape-font-specification:'Times New Roman, Normal';font-variant-ligatures:normal;font-variant-caps:normal;font-variant-numeric:normal;text-align:start;letter-spacing:0px;word-spacing:0px;writing-mode:lr-tb;text-anchor:start;fill:#000000;fill-opacity:1;stroke:none;stroke-width:7.5"
         x="1927.5591"
         y="-311.811"
         id="text5459"
         transform="scale(1,-1)"><tspan
           sodipodi:role="line"
           id="tspan5457"
           x="1927.5591"
           y="-311.811"
           style="stroke-width:7.5">$-\omega_0$</tspan></text>
<text
         xml:space="preserve"
         style="font-style:normal;font-variant:normal;font-weight:normal;font-stretch:normal;font-size:60px;line-height:1.25;font-family:'Times New Roman';-inkscape-font-specification:'Times New Roman, Normal';font-variant-ligatures:normal;font-variant-caps:normal;font-variant-numeric:normal;text-align:start;letter-spacing:0px;word-spacing:0px;writing-mode:lr-tb;text-anchor:start;fill:#000000;fill-opacity:1;stroke:none;stroke-width:7.5"
         x="3118.1104"
         y="-311.811"
         id="text5463"
         transform="scale(1,-1)"><tspan
           sodipodi:role="line"
           id="tspan5461"
           x="3118.1104"
           y="-311.811"
           style="stroke-width:7.5">$\omega_0$</tspan></text>
<text
         xml:space="preserve"
         style="font-style:normal;font-variant:normal;font-weight:normal;font-stretch:normal;font-size:60px;line-height:1.25;font-family:'Times New Roman';-inkscape-font-specification:'Times New Roman, Normal';font-variant-ligatures:normal;font-variant-caps:normal;font-variant-numeric:normal;text-align:start;letter-spacing:0px;word-spacing:0px;writing-mode:lr-tb;text-anchor:start;fill:#000000;fill-opacity:1;stroke:none;stroke-width:7.5"
         x="3656.6931"
         y="-510.23621"
         id="text5467"
         transform="scale(1,-1)"><tspan
           sodipodi:role="line"
           id="tspan5465"
           x="3656.6931"
           y="-510.23621"
           style="stroke-width:7.5">$\omega$</tspan></text>
<path
         style="opacity:1;fill:#ffffff;fill-opacity:1;fill-rule:nonzero;stroke:#000000;stroke-width:4.68750012;stroke-linecap:butt;stroke-linejoin:miter;stroke-miterlimit:4;stroke-dasharray:none;stroke-dashoffset:0;stroke-opacity:1"
         d="m 2551.1812,680.31502 56.6928,0"
         id="path3369"
         inkscape:connector-curvature="0" /></g></g></svg>