<?xml version="1.0" encoding="UTF-8" standalone="no"?>
<!-- Created with Inkscape (http://www.inkscape.org/) -->

<svg
   xmlns:dc="http://purl.org/dc/elements/1.1/"
   xmlns:cc="http://creativecommons.org/ns#"
   xmlns:rdf="http://www.w3.org/1999/02/22-rdf-syntax-ns#"
   xmlns:svg="http://www.w3.org/2000/svg"
   xmlns="http://www.w3.org/2000/svg"
   xmlns:sodipodi="http://sodipodi.sourceforge.net/DTD/sodipodi-0.dtd"
   xmlns:inkscape="http://www.inkscape.org/namespaces/inkscape"
   version="1.1"
   id="svg2"
   xml:space="preserve"
   width="778.66669"
   height="182.66667"
   viewBox="0 0 778.66669 182.66667"
   sodipodi:docname="5-eps-converted-to.svg"
   inkscape:version="0.92.3 (2405546, 2018-03-11)"><metadata
     id="metadata8"><rdf:RDF><cc:Work
         rdf:about=""><dc:format>image/svg+xml</dc:format><dc:type
           rdf:resource="http://purl.org/dc/dcmitype/StillImage" /><dc:title></dc:title></cc:Work></rdf:RDF></metadata><defs
     id="defs6" /><sodipodi:namedview
     pagecolor="#ffffff"
     bordercolor="#666666"
     borderopacity="1"
     objecttolerance="10"
     gridtolerance="10"
     guidetolerance="10"
     inkscape:pageopacity="0"
     inkscape:pageshadow="2"
     inkscape:window-width="1920"
     inkscape:window-height="1003"
     id="namedview4"
     showgrid="true"
     inkscape:zoom="1.61"
     inkscape:cx="328.21355"
     inkscape:cy="91.333336"
     inkscape:window-x="-9"
     inkscape:window-y="-9"
     inkscape:window-maximized="1"
     inkscape:current-layer="g12"
     inkscape:snap-grids="true"><inkscape:grid
       type="xygrid"
       id="grid33"
       units="mm"
       spacingx="3.023622"
       spacingy="3.023622"
       empspacing="5" /></sodipodi:namedview><g
     id="g10"
     inkscape:groupmode="layer"
     inkscape:label="5-eps-converted-to"
     transform="matrix(1.3333333,0,0,-1.3333333,0,182.66667)"><g
       id="g12"
       transform="scale(0.1)"><path
         d="M 4017.56,711.422 H 5823.03"
         style="fill:none;stroke:#000000;stroke-width:15;stroke-linecap:round;stroke-linejoin:round;stroke-miterlimit:10;stroke-dasharray:none;stroke-opacity:1"
         id="path14"
         inkscape:connector-curvature="0" /><path
         d="M 4919.79,149.957 V 1273.45"
         style="fill:none;stroke:#000000;stroke-width:15;stroke-linecap:round;stroke-linejoin:round;stroke-miterlimit:10;stroke-dasharray:none;stroke-opacity:1"
         id="path16"
         inkscape:connector-curvature="0" /><path
         d="m 5820.08,192.645 2.95,-20.504 m -5.88,65.168 2.93,-44.664 m -6.17,117.41 3.24,-72.746 m -6.19,159.531 2.95,-86.785 m -5.88,183.972 2.93,-97.187 m -4.57,148.863 1.64,-51.676 m -2.93,104.489 1.29,-52.813 m -2.93,107.016 1.64,-54.203 m -2.95,108.125 1.31,-53.922 m -2.93,110.945 1.62,-57.023 m -3.24,112.632 1.62,-55.609 m -2.93,102.801 1.31,-47.192 m -2.95,92.696 1.64,-45.504 m -4.57,142.405 2.93,-96.901 m -5.86,174.141 2.93,-77.24 m -6.19,141.84 3.26,-64.6 m -5.88,111.23 2.62,-46.63 m -5.86,81.45 3.24,-34.82 m -4.88,45.5 1.64,-10.68 m -3.27,16.86 1.63,-6.18 m -2.93,8.43 1.3,-2.25 m -2.61,0.84 1.31,1.41 m -2.93,-6.19 1.62,4.78 m -2.93,-13.2 1.31,8.42 m -4.57,-37.91 3.26,29.49 m -6.19,-66.29 2.93,36.8 m -6.2,-89.32 3.27,52.52 m -6.19,-110.1 2.92,57.58 m -5.85,-122.186 2.93,64.606 m -5.88,-129.766 2.95,65.16 m -5.88,-139.027 2.93,73.867 m -5.86,-148.024 2.93,74.157 m -5.88,-146.903 2.95,72.746 m -6.19,-151.39 3.24,78.644 m -6.19,-147.175 2.95,68.531 m -5.88,-132.004 2.93,63.473 m -6.2,-127.797 3.27,64.324 m -6.19,-120.215 2.92,55.891 m -5.85,-106.164 2.93,50.273 m -6.2,-95.789 3.27,45.516 m -5.88,-80.34 2.61,34.824 m -5.88,-65.992 3.27,31.168 m -6.19,-53.36 2.92,22.192 m -6.19,-37.633 3.27,15.441 m -4.56,-19.652 1.29,4.211 m -2.93,-7.031 1.64,2.82 m -2.94,-3.941 1.3,1.121 m -2.93,-0.285 1.63,-0.836 m -2.93,3.652 1.3,-2.816 m -2.95,7.031 1.65,-4.215 m -4.57,18.539 2.92,-14.324 m -6.17,36.234 3.25,-21.91 m -5.88,46.902 2.63,-24.992 m -5.88,60.664 3.25,-35.672 m -6.18,73.872 2.93,-38.2 m -6.19,85.946 3.26,-47.746 m -5.87,94.093 2.61,-46.347 m -5.88,105.05 3.27,-58.703 m -6.18,115.157 2.91,-56.454 m -6.19,118.52 3.28,-62.066 m -5.89,122.457 2.61,-60.391 m -5.86,129.488 3.25,-69.097 m -6.18,130.328 2.93,-61.231 m -5.88,127.52 2.95,-66.289 m -5.88,132.011 2.93,-65.722 m -6.19,127.519 3.26,-61.797 m -6.19,122.744 2.93,-60.947 m -5.86,114.597 2.93,-53.65 m -6.19,102.51 3.26,-48.86 m -6.21,89.31 2.95,-40.45 m -5.88,75.28 2.93,-34.83 m -5.86,58.14 2.93,-23.31 m -4.24,32.3 1.31,-8.99 m -2.93,15.45 1.62,-6.46 m -3.26,9.55 1.64,-3.09 m -2.93,3.66 1.29,-0.57 m -2.91,-2.25 1.62,2.82 m -3.28,-9.28 1.66,6.46 m -4.59,-26.97 2.93,20.51 m -5.86,-54.49 2.93,33.98 m -6.19,-81.72 3.26,47.74 m -6.19,-106.45 2.93,58.71 m -5.86,-122.74 2.93,64.03 m -5.88,-148.3 2.95,84.27 m -6.19,-174.149 3.24,89.879 m -6.19,-178.629 2.95,88.75 m -5.86,-188.746 2.91,99.996 m -5.86,-196.055 2.95,96.059 m -6.21,-193.523 3.26,97.464 m -5.86,-179.48 2.6,82.016 m -5.86,-163.18 3.26,81.164 m -6.21,-137.352 2.95,56.188 m -6.19,-103.09 3.24,46.902 m -4.55,-59.257 1.31,12.355 m -2.62,-19.934 1.31,7.579 m -2.93,-10.672 1.62,3.093 m -2.93,0.282 1.31,-3.375 m -2.95,13.199 1.64,-9.824 m -3.26,26.683 1.62,-16.859 m -4.55,70.496 2.93,-53.637 m -5.86,122.453 2.93,-68.816 m -4.57,116.285 1.64,-47.469 m -3.26,100.278 1.62,-52.809 m -2.93,108.692 1.31,-55.883 m -2.95,115.441 1.64,-59.558 m -3.26,122.464 1.62,-62.906 m -2.91,127.789 1.29,-64.883 m -2.95,128.922 1.66,-64.039 m -2.95,128.364 1.29,-64.325 m -2.91,125.84 1.62,-61.515 m -2.95,121.332 1.33,-59.817 m -2.95,121.895 1.62,-62.078 m -3.26,120.21 1.64,-58.132 m -2.93,111.222 1.29,-53.09 m -2.91,100.27 1.62,-47.18 m -4.9,119.09 3.28,-71.91 m -4.57,93.26 1.29,-21.35 m -2.6,35.39 1.31,-14.04 m -1.95,18.26 0.64,-4.22 m -1.62,6.47 0.98,-2.25 m -1.64,1.68 0.66,0.57 m -1.31,-3.66 0.65,3.09 m -2.27,-17.41 1.62,14.32 m -3.28,-39.88 1.66,25.56 m -3.28,-55.9 1.62,30.34 m -2.93,-68.26 1.31,37.92 m -2.93,-92.41 1.62,54.49 m -3.24,-117.96 1.62,63.47 m -2.93,-123.3 1.31,59.83 m -2.6,-124.151 1.29,64.321 m -2.95,-140.434 1.66,76.113 m -3.28,-154.761 1.62,78.648 m -3.24,-158.691 1.62,80.043 m -2.93,-159.809 1.31,79.766 m -2.93,-151.953 1.62,72.187 m -2.93,-140.734 1.31,68.547 m -2.95,-133.137 1.64,64.59 m -2.93,-122.45 1.29,57.86 m -2.93,-111.785 1.64,53.925 m -3.28,-96.906 1.64,42.981 m -3.26,-71.907 1.62,28.926 m -2.93,-46.336 1.31,17.41 m -2.27,-21.347 0.96,3.937 m -1.62,-4.781 0.66,0.844 m -1.33,1.121 0.67,-1.965 m -1.31,7.309 0.64,-5.344 m -2.26,25 1.62,-19.656 m -2.93,51.109 1.31,-31.453 m -2.95,74.992 1.64,-43.539 m -3.26,98.031 1.62,-54.492 m -2.93,122.469 1.31,-67.977 m -2.93,145.199 1.62,-77.222 m -3.24,150.547 1.62,-73.325 m -2.93,149.997 1.31,-76.672 m -2.95,168.242 1.64,-91.57 m -3.26,183.41 1.62,-91.84 m -2.93,174.422 1.31,-82.582 m -2.95,160.945 1.64,-78.363 m -2.93,152.231 1.29,-73.868 m -2.91,139.308 1.62,-65.44 m -2.95,117.41 1.33,-51.97 m -2.95,93.25 1.62,-41.28 m -2.93,73.3 1.31,-32.02 m -2.95,48.59 1.64,-16.57 m -2.6,19.11 0.96,-2.54 m -1.62,0.85 0.66,1.69 m -1.31,-7.03 0.65,5.34 m -1.62,-14.89 0.97,9.55 m -2.28,-37.64 1.31,28.09 m -2.93,-69.09 1.62,41 m -2.93,-94.37 1.31,53.37 m -2.95,-117.69 1.64,64.32 m -3.26,-146.054 1.62,81.734 m -3.26,-172.457 1.64,90.723 m -2.93,-173.856 1.29,83.133 m -2.6,-168.246 1.31,85.113 m -2.93,-181.722 1.62,96.609 m -3.26,-190.141 1.64,93.532 m -3.28,-175.559 1.64,82.027 m -2.93,-156.171 1.29,74.144 m -2.93,-138.75 1.64,64.606 m -2.93,-117.399 1.29,52.793 m -2.93,-89.879 1.64,37.086 m -2.93,-61.246 1.29,24.16 m -1.96,-31.453 0.67,7.293 m -1.64,-10.668 0.97,3.375 m -1.64,-2.531 0.67,-0.844 m -1.31,5.895 0.64,-5.051 m -2.26,26.683 1.62,-21.632 m -3.26,58.429 1.64,-36.797 m -2.93,86.512 1.29,-49.715 m -2.93,111.782 1.64,-62.067 m -3.28,142.406 1.64,-80.339 m -3.26,170.496 1.62,-90.157 m -2.93,177.789 1.31,-87.632 m -2.95,178.355 1.64,-90.723 m -2.93,179.481 1.29,-88.758 m -2.93,175.828 1.64,-87.07 m -2.93,176.105 1.29,-89.035 m -2.93,170.493 1.64,-81.458"
         style="fill:none;stroke:#4d4d4d;stroke-width:10;stroke-linecap:round;stroke-linejoin:round;stroke-miterlimit:10;stroke-dasharray:none;stroke-opacity:1"
         id="path18"
         inkscape:connector-curvature="0" /><path
         d="m 5427.23,1110.54 1.64,-67.68 m -2.93,123.86 1.29,-56.18 m -2.91,98.87 1.62,-42.69 m -2.95,71.06 1.33,-28.37 m -2.29,37.07 0.96,-8.7 m -1.62,12.92 0.66,-4.22 m -1.64,4.22 h 0.98 m -1.62,-4.22 0.64,4.22 m -1.95,-22.47 1.31,18.25 m -2.93,-50.27 1.62,32.02 m -3.26,-81.45 1.64,49.43 m -2.93,-112.91 1.29,63.48 m -2.93,-134.26 1.64,70.78 m -2.95,-149.984 1.31,79.204 m -2.93,-168.805 1.62,89.601 m -3.24,-183.128 1.62,93.527 m -2.95,-180.883 1.33,87.356 m -2.95,-173.297 1.62,85.941 m -2.93,-171.609 1.31,85.668 m -2.93,-164.59 1.62,78.922 m -3.24,-149.993 1.62,71.071 m -2.93,-131.184 1.31,60.113 m -2.95,-108.414 1.64,48.301 m -3.26,-83.137 1.62,34.836 m -2.93,-55.898 1.31,21.062 m -2.95,-26.398 1.64,5.336 m -2.93,3.098 1.29,-8.434 m -2.93,28.648 1.64,-20.214 m -2.95,57.574 1.31,-37.36 m -2.93,88.758 1.62,-51.398 m -3.24,108.973 1.62,-57.575 m -2.93,123.867 1.31,-66.292 m -2.95,146.898 1.64,-80.606 m -3.26,167.395 1.62,-86.789 m -2.93,166.004 1.31,-79.215 m -2.93,159.258 1.62,-80.043 m -3.25,171.047 1.63,-91.004 m -3.29,178.359 1.66,-87.355 m -2.94,160.66 1.28,-73.305 m -2.93,139.873 1.65,-66.568 m -2.93,127.238 1.28,-60.67 m -2.93,111.22 1.65,-50.55 m -2.93,87.36 1.28,-36.81 m -2.92,63.2 1.64,-26.39 m -2.29,36.22 0.65,-9.83 m -1.65,16.01 1,-6.18 m -1.64,8.99 0.64,-2.81 m -1.28,2.24 0.64,0.57 m -2.27,-9.83 1.63,9.26 m -2.93,-28.93 1.3,19.67 m -2.94,-51.96 1.64,32.29 m -2.93,-75.27 1.29,42.98 m -2.93,-95.78 1.64,52.8 m -3.29,-113.75 1.65,60.95 m -2.93,-126.953 1.28,66.003 m -2.91,-136.784 1.63,70.781 m -3.27,-148.019 1.64,77.238 m -2.94,-156.168 1.3,78.93 m -2.95,-154.489 1.65,75.559 m -3.27,-149.699 1.62,74.14 m -2.92,-146.883 1.3,72.743 m -2.93,-141.563 1.63,68.82 m -2.93,-128.929 1.3,60.109 m -2.95,-114.601 1.65,54.492 m -3.27,-104.481 1.62,49.989 m -2.92,-91.555 1.3,41.566 m -4.22,-93.25 2.92,51.684 m -4.58,-66.016 1.66,14.332 m -3.26,-19.101 1.6,4.769 m -2.92,0 1.32,-4.769 m -2.95,17.976 1.63,-13.207 m -4.56,70.492 2.93,-57.285 m -5.86,137.356 2.93,-80.071 m -4.57,130.055 1.64,-49.984 m -3.28,104.75 1.64,-54.766 m -2.93,114.602 1.29,-59.836 m -2.93,122.465 1.64,-62.629 m -3.26,125.261 1.62,-62.632 m -2.93,125.836 1.31,-63.204 m -2.93,121.621 1.62,-58.417 m -2.93,116 1.31,-57.583 m -2.95,122.176 1.64,-64.593 m -3.26,126.109 1.62,-61.516 m -2.93,117.41 1.31,-55.894 m -2.93,107.853 1.62,-51.959 m -4.55,135.669 2.93,-83.71 m -5.86,153.64 2.93,-69.93 m -5.88,114.31 2.95,-44.38 m -4.57,58.42 1.62,-14.04 m -3.26,21.91 1.64,-7.87 m -2.95,9.56 1.31,-1.69 m -2.93,-1.69 1.62,3.38 m -3.24,-12.93 1.62,9.55 m -3.26,-25 1.64,15.45 m -4.26,-54.77 2.62,39.32 m -5.86,-103.64 3.24,64.32 m -5.86,-130.88 2.62,66.56 m -5.88,-149.422 3.26,82.862 m -6.19,-176.112 2.93,93.25 m -6.19,-189.867 3.26,96.617 m -5.86,-182.57 2.6,85.953 m -5.88,-180.891 3.28,94.938 m -6.19,-182.289 2.91,87.351 m -6.19,-167.394 3.28,80.043 m -6.21,-148.574 2.93,68.531 m -5.86,-125.836 2.93,57.305 M 5245.33,255 l 2.93,50.84 m -5.86,-89.883 2.93,39.043 m -6.21,-65.43 3.28,26.387 m -5.88,-40.172 2.6,13.785 m -4.24,-17.429 1.64,3.644 m -3.26,-4.203 1.62,0.559 m -3.24,1.406 1.62,-1.965 m -3.26,7.023 1.64,-5.058 m -4.26,20.226 2.62,-15.168 m -5.86,43.254 3.24,-28.086 m -6.17,58.985 2.93,-30.899 m -5.88,73.024 2.95,-42.125 m -6.21,90.445 3.26,-48.32 m -5.86,98.871 2.6,-50.551 m -5.55,105.606 2.95,-55.055 m -6.21,118.531 3.26,-63.476 m -6.5,125.55 3.24,-62.074 m -6.17,124.43 2.93,-62.356 m -5.88,125.262 2.95,-62.906 m -5.88,125.836 2.93,-62.93 m -6.17,128.656 3.24,-65.726 m -5.86,121.328 2.62,-55.602 m -5.88,117.114 3.26,-61.512 m -6.19,114.883 2.93,-53.371 m -5.88,104.199 2.95,-50.828 m -5.88,94.648 2.93,-43.82 m -6.19,86.52 3.26,-42.7 m -6.19,79.49 2.93,-36.79 m -5.86,65.16 2.93,-28.37 m -5.86,50.83 2.93,-22.46 m -6.21,39.88 3.28,-17.42 m -4.57,22.19 1.29,-4.77 m -2.93,8.15 1.64,-3.38 m -2.95,5.35 1.31,-1.97 m -2.93,1.4 1.62,0.57 m -3.26,-2.82 1.64,2.25 m -2.93,-6.46 1.29,4.21 m -4.55,-18.53 3.26,14.32 m -5.86,-35.11 2.6,20.79 m -5.88,-51.4 3.28,30.61 m -6.21,-68.53 2.93,37.92 m -5.86,-82.3 2.93,44.38 m -6.19,-101.4 3.26,57.02 m -6.19,-115.157 2.93,58.137 m -5.88,-120.489 2.95,62.352 m -5.88,-135.383 2.93,73.031 m -6.19,-146.898 3.26,73.867 m -6.19,-150.266 2.93,76.399 m -5.86,-157.571 2.93,81.172 m -5.86,-154.203 2.93,73.031 m -6.19,-151.113 3.26,78.082 m -6.19,-148.023 2.93,69.941 m -5.86,-136.492 2.93,66.551 m -5.88,-120.208 2.95,53.657 m -5.9,-99.446 2.95,45.789 m -6.19,-78.925 3.24,33.136 m -4.55,-44.375 1.31,11.239 m -2.95,-18.809 1.64,7.57 m -3.24,-11.234 1.6,3.664 m -2.91,-2.82 1.31,-0.844 m -2.95,5.336 1.64,-4.492 m -2.95,12.64 1.31,-8.148 m -4.55,41.012 3.24,-32.864 m -6.19,80.047 2.95,-47.183 m -5.88,117.133 2.93,-69.95 m -5.88,146.055 2.95,-76.105 m -6.19,178.339 3.24,-102.234 m -4.55,152.246 1.31,-50.012 m -2.95,101.969 1.64,-51.957 m -3.26,107.848 1.62,-55.891 m -2.91,112.633 1.29,-56.742 m -2.93,110.386 1.64,-53.644 m -2.95,107 1.31,-53.356 m -2.93,112.34 1.62,-58.984 m -3.26,116.004 1.64,-57.02 m -2.95,104.774 1.31,-47.754 m -2.6,92.692 1.29,-44.938 m -4.55,131.718 3.26,-86.78 m -6.21,153.64 2.95,-66.86 m -5.88,107.86 2.93,-41 m -4.57,51.39 1.64,-10.39 m -3.26,12.93 1.62,-2.54 m -2.91,-2.81 1.29,5.35 m -2.93,-18.27 1.64,12.92 m -4.57,-62.91 2.93,49.99 m -5.86,-126.11 2.93,76.12 m -4.57,-126.67 1.64,50.55 m -3.27,-107.57 1.63,57.02 m -2.93,-113.758 1.3,56.738 m -2.61,-117.406 1.31,60.668 m -2.95,-130.887 1.64,70.219 m -3.26,-142.965 1.62,72.746 m -2.91,-141.84 1.29,69.094 m -2.93,-137.914 1.64,68.82"
         style="fill:none;stroke:#4d4d4d;stroke-width:10;stroke-linecap:round;stroke-linejoin:round;stroke-miterlimit:10;stroke-dasharray:none;stroke-opacity:1"
         id="path20"
         inkscape:connector-curvature="0" /><path
         d="m 5021.02,525.77 1.64,75.265 m -3.27,-146.89 1.63,71.625 m -2.91,-132.016 1.28,60.391 m -2.93,-115.723 1.65,55.332 m -2.95,-105.606 1.3,50.274 m -2.92,-92.961 1.62,42.687 m -4.89,-101.117 3.27,58.43 m -4.58,-71.352 1.31,12.922 m -2.95,-15.172 1.64,2.25 m -2.92,5.348 1.28,-7.598 m -2.59,24.723 1.31,-17.125 m -2.95,48.313 1.64,-31.188 m -3.27,74.145 1.63,-42.957 m -3.25,94.363 1.62,-51.406 m -2.92,112.07 1.3,-60.664 m -2.95,124.152 1.65,-63.488 m -2.93,132.305 1.28,-68.817 m -2.93,148.856 1.65,-80.039 m -3.27,163.179 1.62,-83.14 m -2.92,164.316 1.3,-81.176 m -2.95,161.492 1.65,-80.316 m -2.93,161.777 1.28,-81.461 m -2.91,158.141 1.63,-76.68 m -3.29,140.436 1.66,-63.756 m -2.94,120.216 1.28,-56.46 m -2.91,109.83 1.63,-53.37 m -3.27,94.09 1.64,-40.72 m -2.95,64.59 1.31,-23.87 m -2.59,36.8 1.28,-12.93 m -2.26,15.18 0.98,-2.25 m -1.63,0.56 0.65,1.69 m -1.64,-7.59 0.99,5.9 m -1.66,-15.73 0.67,9.83 m -1.95,-35.11 1.28,25.28 m -2.91,-61.51 1.63,36.23 m -2.93,-87.91 1.3,51.68 m -2.94,-114.32 1.64,62.64 m -3.29,-137.633 1.65,74.993 m -2.93,-157.848 1.28,82.855 m -2.91,-171.332 1.63,88.477 m -3.27,-180.324 1.64,91.847 m -2.94,-173.863 1.3,82.016 m -2.93,-162.348 1.63,80.332 m -2.93,-167.672 1.3,87.34 m -2.95,-167.402 1.65,80.062 m -3.27,-148.859 1.62,68.797 m -3.24,-126.391 1.62,57.594 m -2.93,-102.535 1.31,44.941 m -2.95,-75.555 1.64,30.614 m -2.28,-39.875 0.64,9.261 m -1.31,-14.886 0.67,5.625 m -1.62,-7.586 0.95,1.961 m -1.62,0 0.67,-1.961 m -1.96,16.293 1.29,-14.332 m -2.93,42.14 1.64,-27.808 m -3.28,72.457 1.64,-44.649 m -2.95,103.356 1.31,-58.707 m -2.93,129.773 1.62,-71.066 m -3.24,151.957 1.62,-80.891 m -3.26,169.082 1.64,-88.191 m -2.93,181.168 1.29,-92.977 m -2.6,177.235 1.31,-84.258 m -2.95,168.234 1.64,-83.976 m -2.93,174.418 1.29,-90.442 m -2.93,175.266 1.64,-84.824 m -3.26,164.027 1.62,-79.203 m -3.26,146.333 1.64,-67.13 m -2.95,112.91 1.31,-45.78 m -2.61,79.76 1.3,-33.98 m -2.93,58.15 1.63,-24.17 m -3.25,29.22 1.62,-5.05 m -3.26,-5.34 1.64,10.39 m -2.95,-34.55 1.31,24.16 m -2.93,-65.72 1.62,41.56 m -2.93,-97.74 1.31,56.18 m -2.93,-125 1.62,68.82 m -3.24,-148.582 1.62,79.762 m -2.93,-161.492 1.31,81.73 m -2.95,-168.25 1.64,86.52 m -2.95,-176.676 1.31,90.156 m -2.95,-180.312 1.64,90.156 m -3.24,-185.371 1.6,95.215 m -3.24,-183.965 1.64,88.75 m -2.95,-164.313 1.31,75.563 m -2.93,-140.723 1.62,65.16 m -2.93,-117.133 1.31,51.973 m -2.93,-90.723 1.62,38.75 m -2.95,-63.183 1.33,24.433 m -2.95,-34.273 1.62,9.84 m -3.24,-4.504 1.62,-5.336 m -2.93,25.566 1.31,-20.23 m -2.93,57.574 1.62,-37.344 m -3.26,89.582 1.64,-52.238 m -2.93,108.711 1.29,-56.473 m -2.6,121.356 1.31,-64.883 m -2.95,148.574 1.64,-83.691 m -3.26,173.848 1.62,-90.157 m -3.26,176.664 1.64,-86.507 m -2.93,174.152 1.29,-87.645 m -2.95,175.836 1.66,-88.191 m -3.28,172.449 1.62,-84.258 m -2.91,157.853 1.29,-73.595 m -2.6,140.155 1.31,-66.56 m -2.93,129.76 1.62,-63.2 m -3.26,114.04 1.64,-50.84 m -3.28,88.19 1.64,-37.35 m -2.93,60.11 1.29,-22.76 m -2.26,28.65 0.97,-5.89 m -1.64,8.43 0.67,-2.54 m -1.31,1.68 0.64,0.86 m -1.29,-4.79 0.65,3.93 m -2.29,-21.05 1.64,17.12 m -2.93,-46.9 1.29,29.78 m -2.95,-75.84 1.66,46.06 m -3.28,-104.2 1.62,58.14 m -3.24,-117.41 1.62,59.27 m -2.93,-125.267 1.31,65.997 m -2.95,-146.614 1.64,80.617 m -3.26,-165.718 1.62,85.101 m -2.91,-166.273 1.29,81.172 m -2.93,-162.348 1.64,81.176 m -2.95,-160.942 1.31,79.766 m -2.93,-155.879 1.62,76.113 m -2.93,-142.394 1.31,66.281 m -2.93,-126.672 1.62,60.391 m -2.93,-117.699 1.31,57.308 m -2.95,-105.34 1.64,48.032 m -4.57,-111.504 2.93,63.472 m -4.57,-78.371 1.64,14.899 m -2.93,-19.102 1.29,4.203 m -2.91,3.106 1.62,-7.309 m -3.26,27.527 1.64,-20.218 m -4.57,85.664 2.93,-65.446 m -4.57,109.262 1.64,-43.816 m -2.95,94.656 1.31,-50.84 m -2.93,112.348 1.62,-61.508 m -3.26,128.641 1.64,-67.133 m -2.93,134.82 1.29,-67.687 m -2.91,137.628 1.62,-69.941 m -2.95,141 1.33,-71.059 m -2.93,142.118 1.6,-71.059 m -3.24,143.234 1.64,-72.175 m -3.26,141.84 1.62,-69.665 m -2.95,128.926 1.33,-59.261 m -2.62,114.312 1.29,-55.051 m -2.91,110.391 1.62,-55.34 m -3.26,103.65 1.64,-48.31 m -4.57,119.65 2.93,-71.34 m -6.19,114.03 3.26,-42.69 m -3.91,47.74 0.65,-5.05 m -1.31,8.15 0.66,-3.1 m -1.31,4.79 0.65,-1.69 m -1.29,1.4 0.64,0.29 m -2.28,-6.47 1.64,6.18 m -3.26,-19.66 1.62,13.48 m -4.57,-61.23 2.95,47.75 m -5.88,-119.09 2.93,71.34 m -6.19,-164.87 3.26,93.53 m -4.55,-139.597 1.29,46.067 m -2.62,-94.38 1.33,48.313 m -2.95,-106.168 1.62,57.855 m -3.26,-117.117 1.64,59.262 m -2.93,-114.027 1.29,54.765 m -2.93,-109.258 1.64,54.493 m -3.28,-113.762 1.64,59.269 m -3.26,-116.84 1.62,57.571 m -2.91,-106.738 1.29,49.167 m -2.6,-96.07 1.31,46.903 m -4.57,-145.766 3.26,98.863 m -6.21,-174.152 2.95,75.289 m -5.86,-137.348 2.91,62.059 m -5.86,-103.91 2.95,41.851 m -6.21,-69.652 3.26,27.801 m -4.57,-33.426 1.31,5.625 m -2.93,-7.867 1.62,2.242 m -2.93,-0.281 1.31,-1.961 m -2.95,8.152 1.64,-6.191 m -4.57,30.058 2.93,-23.867 m -6.17,61.5 3.24,-37.633 m -6.19,89.317 2.95,-51.684 m -5.88,110.664 2.93,-58.98 m -6.19,127.511 3.26,-68.531 m -5.86,139.32 2.6,-70.789 m -5.86,149.715 3.26,-78.926 m -6.21,152.516 2.95,-73.59 m -5.88,154.762 2.93,-81.172 m -5.86,155.606 2.93,-74.434 m -6.19,153.633 3.26,-79.199 m -6.19,146.05 2.93,-66.851 m -5.86,130.608 2.93,-63.757 m -6.19,122.177 3.26,-58.42 m -6.19,107.85 2.93,-49.43 m -5.88,88.76 2.95,-39.33 m -5.88,76.12 2.93,-36.79 m -6.19,63.75 3.26,-26.96 m -5.86,44.66 2.6,-17.7 m -4.24,24.16 1.64,-6.46 m -3.24,10.95 1.6,-4.49 m -2.93,6.74 1.33,-2.25 m -2.95,2.82 1.62,-0.57"
         style="fill:none;stroke:#4d4d4d;stroke-width:10;stroke-linecap:round;stroke-linejoin:round;stroke-miterlimit:10;stroke-dasharray:none;stroke-opacity:1"
         id="path22"
         inkscape:connector-curvature="0" /><path
         d="m 4683.93,1249.58 1.64,1.69 m -3.27,-5.35 1.63,3.66 m -4.24,-15.45 2.61,11.79 m -5.87,-32.58 3.26,20.79 m -6.19,-44.94 2.93,24.15 m -6.2,-59.26 3.27,35.11 m -5.86,-69.94 2.59,34.83 m -5.54,-78.37 2.95,43.54 m -6.21,-93.8 3.26,50.26 m -6.19,-104.765 2.93,54.505 m -5.88,-106.177 2.95,51.672 m -5.86,-113.187 2.91,61.515 m -6.17,-123.585 3.26,62.07 m -6.21,-126.11 2.95,64.04 m -5.88,-126.68 2.93,62.64 m -5.86,-122.742 2.93,60.102 m -6.2,-124.418 3.27,64.316 m -6.19,-126.957 2.92,62.641 m -6.19,-121.91 3.27,59.269 m -5.86,-108.976 2.59,49.707 m -5.54,-100.547 2.95,50.84 m -6.22,-98.032 3.27,47.192 m -6.19,-81.735 2.92,34.543 m -6.19,-67.402 3.27,32.859 m -5.88,-53.089 2.61,20.23 m -4.23,-27.812 1.62,7.582 m -3.25,-12.911 1.63,5.329 m -2.93,-8.145 1.3,2.816 m -2.95,-2.539 1.65,-0.277 m -3.27,2.816 1.62,-2.539 m -2.92,7.868 1.3,-5.329 m -4.23,23.582 2.93,-18.253 m -6.2,50.562 3.27,-32.309 m -6.2,74.711 2.93,-42.402 m -5.86,94.367 2.93,-51.965 m -5.87,114.321 2.94,-62.356 m -5.86,134.262 2.92,-71.906 m -6.2,157.289 3.28,-85.383 m -6.21,165.715 2.93,-80.332 m -6.19,177.238 3.26,-96.906 m -6.19,188.195 2.93,-91.289 m -5.88,183.688 2.95,-92.399 m -5.86,175.258 2.91,-82.859 m -5.86,166.273 2.95,-83.414 m -6.21,154.754 3.26,-71.34 m -6.19,123.58 2.93,-52.24 m -5.86,89.05 2.93,-36.81 m -4.55,49.16 1.62,-12.35 m -3.26,18.52 1.64,-6.17 m -2.95,6.46 1.31,-0.29 m -2.62,-4.49 1.31,4.78 m -4.57,-34.26 3.26,29.48 m -6.17,-80.6 2.91,51.12 m -5.86,-124.72 2.95,73.6 m -4.57,-114.88 1.62,41.28 m -2.93,-86.78 1.31,45.5 m -2.95,-99.151 1.64,53.651 m -2.93,-110.952 1.29,57.301 m -2.93,-116.566 1.64,59.265 m -3.26,-120.769 1.62,61.504 m -2.93,-122.735 1.31,61.231 m -2.95,-123.305 1.64,62.074 m -3.26,-130.328 1.62,68.254 m -3.24,-134.812 1.62,66.558 m -2.93,-124.43 1.31,57.872 m -2.95,-112.93 1.64,55.058 m -2.93,-104.765 1.29,49.707 m -2.6,-94.938 1.31,45.231 m -4.57,-123.86 3.26,78.629 m -6.19,-123.851 2.93,45.222 m -3.59,-51.398 0.66,6.176 m -1.64,-10.117 0.98,3.941 m -1.62,-5.625 0.64,1.684 m -1.31,-1.407 0.67,-0.277 m -2.29,8.984 1.62,-8.707 m -3.26,26.973 1.64,-18.266 m -4.57,76.973 2.93,-58.707 m -4.24,103.922 1.31,-45.215 m -2.93,99.141 1.62,-53.926 m -3.26,112.066 1.64,-58.14 m -2.93,122.465 1.29,-64.325 m -2.91,136.512 1.62,-72.187 m -3.28,148.585 1.66,-76.398 m -2.95,149.141 1.29,-72.743 m -2.93,146.043 1.64,-73.3 m -2.95,148.863 1.31,-75.563 m -2.91,148.586 1.6,-73.023 m -3.24,142.68 1.64,-69.657 m -2.95,133.691 1.31,-64.034 m -2.95,121.054 1.64,-57.02 m -2.93,105.61 1.29,-48.59 m -4.55,117.97 3.26,-69.38 m -4.57,84.54 1.31,-15.16 m -2.6,20.23 1.29,-5.07 m -2.93,-1.68 1.64,6.75 m -3.28,-27.25 1.64,20.5 m -3.26,-51.12 1.62,30.62 m -2.91,-71.91 1.29,41.29 m -2.93,-98.02 1.64,56.73 m -3.28,-124.14 1.64,67.41 m -2.93,-134.263 1.29,66.853 m -2.93,-139.318 1.64,72.465 m -2.95,-161.222 1.31,88.757 m -2.93,-180.601 1.62,91.844 m -3.26,-174.981 1.64,83.137 m -2.95,-164.313 1.31,81.176 m -2.93,-162.07 1.62,80.894 m -3.24,-155.601 1.62,74.707 m -2.93,-137.063 1.31,62.356 m -2.93,-116.004 1.62,53.648 m -2.93,-101.109 1.31,47.461 m -2.93,-80.617 1.62,33.156 m -3.26,-49.16 1.64,16.004 m -2.95,-19.934 1.31,3.93 m -2.93,6.465 1.62,-10.395 m -2.95,35.391 1.33,-24.996 m -2.95,64.589 1.62,-39.593 m -3.24,92.691 1.62,-53.098 m -2.93,116.579 1.31,-63.481 m -2.95,136.781 1.64,-73.3 m -3.26,157.57 1.62,-84.27 m -2.91,174.703 1.29,-90.433 m -2.93,179.758 1.64,-89.325 m -2.95,179.207 1.31,-89.882 m -2.93,179.757 1.62,-89.875 m -3.24,174.981 1.62,-85.106 m -2.93,159.53 1.31,-74.424 m -2.95,140.434 1.64,-66.01 m -2.93,124.15 1.29,-58.14 m -2.93,102.52 1.64,-44.38 m -3.26,71.91 1.62,-27.53 m -2.95,41.29 1.33,-13.76 m -1.97,15.45 0.64,-1.69 m -1.62,-0.85 0.98,2.54 m -1.63,-9.56 0.65,7.02 m -1.29,-17.97 0.64,10.95 m -2.28,-42.69 1.64,31.74 m -2.95,-77.24 1.31,45.5 m -2.95,-110.38 1.64,64.88 m -3.24,-142.97 1.6,78.09 m -3.24,-157.292 1.64,79.202 m -2.95,-164.87 1.31,85.668 m -2.95,-177.793 1.64,92.125 m -3.26,-185.946 1.62,93.821 m -2.91,-187.903 1.29,94.082 m -2.95,-183.683 1.66,89.601 m -3.28,-169.089 1.62,79.488 m -2.91,-149.992 1.29,70.504 m -2.93,-125.551 1.64,55.047 m -2.95,-98.868 1.31,43.821 m -2.93,-79.211 1.62,35.39 m -3.26,-53.367 1.64,17.977 m -2.29,-20.496 0.65,2.519 m -1.31,-0.558 0.66,-1.961 m -1.62,7.867 0.96,-5.906 m -1.62,15.73 0.66,-9.824 m -1.95,39.035 1.29,-29.211 m -2.93,71.059 1.64,-41.848 m -2.95,100.84 1.31,-58.992 m -2.95,130.043 1.64,-71.051 m -3.24,148.297 1.6,-77.246 m -2.93,161.511 1.33,-84.265 m -2.95,177.23 1.62,-92.965 m -3.24,187.621 1.62,-94.656 m -2.93,180.321 1.31,-85.665 m -2.95,168.247 1.64,-82.582 m -2.95,169.652 1.31,-87.07 m -2.93,164.593 1.62,-77.523 m -3.24,135.093 1.62,-57.57 m -2.93,104.76 1.31,-47.19 m -2.95,89.04 1.64,-41.85 m -3.26,66.85 1.62,-25 m -2.27,30.34 0.65,-5.34 m -1.31,7.59 0.66,-2.25 m -1.33,1.39 0.67,0.86 m -1.31,-4.79 0.64,3.93 m -2.26,-23.02 1.62,19.09 m -2.91,-52.23 1.29,33.14 m -2.95,-81.46 1.66,48.32 m -3.28,-108.98 1.62,60.66 m -3.24,-131.44 1.62,70.78 m -3.26,-149.993 1.64,79.213 m -2.93,-154.767 1.29,75.554 m -2.6,-153.914 1.31,78.36 m -2.95,-168.809 1.64,90.449 m -3.26,-180.039 1.62,89.59 m -2.91,-173.297 1.29,83.707 m -2.95,-162.347 1.66,78.64 m -3.28,-149.711 1.62,71.071 m -3.24,-133.137 1.62,62.066 m -2.93,-112.054 1.31,49.988 m -2.93,-89.039 1.62,39.051 m -2.93,-65.446 1.31,26.395 m -2.64,-41.555 1.33,15.16 m -2.29,-18.547 0.96,3.387 m -1.6,-3.387 h 0.64 m -1.62,3.387 0.98,-3.387 m -1.64,9.84 0.66,-6.453 m -3.59,64.602 2.93,-58.149 m -4.57,104.199 1.64,-46.05"
         style="fill:none;stroke:#4d4d4d;stroke-width:10;stroke-linecap:round;stroke-linejoin:round;stroke-miterlimit:10;stroke-dasharray:none;stroke-opacity:1"
         id="path24"
         inkscape:connector-curvature="0" /><path
         d="m 4327.29,341.508 1.6,-55.61 m -2.93,112.071 1.33,-56.461 m -2.64,118.262 1.31,-61.801 m -2.93,135.933 1.62,-74.132 m -3.24,151.945 1.62,-77.813 m -3.26,161.239 1.64,-83.426 m -3.27,166.273 1.63,-82.847 m -2.93,152.511 1.3,-69.664 m -2.61,136.227 1.31,-66.563 m -2.95,141.274 1.64,-74.711 m -3.26,142.125 1.62,-67.414 m -2.93,117.964 1.31,-50.55 m -2.93,94.09 1.62,-43.54 m -4.55,113.76 2.93,-70.22 m -4.57,90.16 1.64,-19.94 m -3.28,29.76 1.64,-9.82 m -2.29,10.68 0.65,-0.86 m -1.29,-0.27 0.64,1.13 m -1.29,-4.79 0.65,3.66 m -1.31,-9.27 0.66,5.61 m -3.59,-49.43 2.93,43.82 m -6.19,-126.39 3.26,82.57 m -4.89,-131.72 1.63,49.15 m -2.93,-103.64 1.3,54.49 m -2.94,-112.076 1.64,57.586 m -3.27,-118.535 1.63,60.949 m -2.93,-123.867 1.3,62.918 m -2.93,-127.239 1.63,64.321 m -2.93,-129.199 1.3,64.878 m -2.94,-129.207 1.64,64.329 m -3.27,-131.165 1.63,66.836 m -3.25,-130.593 1.62,63.757 m -2.93,-116.273 1.31,52.516 m -2.61,-101.68 1.3,49.164 m -4.57,-146.91 3.27,97.746 m -6.2,-165.996 2.93,68.25 m -5.85,-113.75 2.92,45.5 m -4.23,-57.863 1.31,12.363 m -2.93,-19.098 1.62,6.735 m -2.29,-8.145 0.67,1.41 m -1.65,-1.133 0.98,-0.277 m -1.62,2.242 0.64,-1.965 m -1.3,5.348 0.66,-3.383 m -2.28,15.172 1.62,-11.789 m -3.27,29.477 1.65,-17.688 m -4.58,64.891 2.93,-47.203 m -5.85,111.519 2.92,-64.316 m -6.19,150.539 3.27,-86.223 m -5.88,170.488 2.61,-84.265 m -5.86,185.941 3.25,-101.676 m -6.2,199.141 2.95,-97.465 m -6.19,194.363 3.24,-96.898 m -5.85,183.969 2.61,-87.071 m -5.88,174.981 3.27,-87.91 m -6.2,165.159 2.93,-77.249 m -5.86,142.689 2.93,-65.44 m -6.19,124.42 3.26,-58.98 m -6.21,99.71 2.95,-40.73 m -5.88,68.82 2.93,-28.09 m -4.23,38.2 1.3,-10.11 m -2.93,17.13 1.63,-7.02 m -3.27,10.39 1.64,-3.37 m -2.93,3.65 1.29,-0.28 m -2.93,-1.97 1.64,2.25 m -3.28,-7.58 1.64,5.33 m -4.55,-25 2.91,19.67 m -5.86,-46.9 2.95,27.23 m -6.21,-66.28 3.26,39.05 m -6.19,-83.71 2.93,44.66 m -5.86,-98.31 2.93,53.65 m -5.86,-108.14 2.93,54.49 m -5.88,-115.156 2.95,60.666 m -6.19,-124.705 3.24,64.039 m -6.19,-129.472 2.95,65.433 m -5.88,-134.254 2.93,68.821 m -5.86,-128.93 2.93,60.109 m -6.19,-128.64 3.26,68.531 m -5.88,-129.199 2.62,60.668 m -5.86,-124.141 3.24,63.473 m -6.19,-116.281 2.95,52.808 m -6.21,-109.277 3.26,56.469 m -6.19,-102.52 2.93,46.051 m -5.86,-89.309 2.93,43.258 m -5.88,-78.078 2.95,34.82 m -6.19,-67.687 3.24,32.867 m -5.86,-55.332 2.62,22.465 m -5.88,-40.715 3.26,18.25 m -6.19,-29.215 2.93,10.965 m -5.86,-14.617 2.93,3.652 m -6.19,0.289 3.26,-3.941 m -6.19,15.175 2.93,-11.234 m -5.88,30.051 2.95,-18.817 m -5.88,43.809 2.93,-24.992 m -6.17,58.984 3.24,-33.992 m -5.86,71.336 2.62,-37.344 m -5.88,85.375 3.26,-48.031 m -6.19,99.438 2.93,-51.407 m -6.19,114.594 3.26,-63.187 m -6.19,124.988 2.93,-61.801 m -5.88,130.051 2.95,-68.25 m -5.88,140.996 2.93,-72.746 m -6.19,145.488 3.26,-72.742 m -5.86,140.723 2.6,-67.981 m -5.86,145.492 3.26,-77.511 m -6.21,149.695 2.95,-72.184 m -5.88,135.949 2.93,-63.765 m -6.19,127.515 3.26,-63.75 m -6.19,117.69 2.93,-53.94 m -5.86,101.12 2.93,-47.18 m -5.86,80.04 2.93,-32.86 m -6.19,57.02 3.26,-24.16 m -4.57,29.49 1.31,-5.33 m -2.62,7.86 1.31,-2.53 m -2.29,2.82 0.98,-0.29 m -1.62,-0.84 0.64,1.13 m -1.62,-3.38 0.98,2.25 m -1.64,-5.62 0.66,3.37 m -3.59,-23.03 2.93,19.66 m -5.88,-56.73 2.95,37.07 m -5.88,-92.4 2.93,55.33 m -6.17,-126.68 3.24,71.35 m -5.86,-146.901 2.62,75.551 m -5.88,-173.012 3.26,97.461 m -4.88,-148.579 1.62,51.118 m -2.93,-103.657 1.31,52.539 m -2.95,-107.015 1.64,54.476 m -3.26,-109.253 1.62,54.777 m -2.93,-108.145 1.31,53.368 m -2.95,-106.454 1.64,53.086 m -4.55,-152.234 2.91,99.148 m -5.86,-197.449 2.95,98.301 m -6.19,-182.281 3.24,83.98 m -6.19,-147.738 2.95,63.758 m -5.88,-100.551 2.93,36.793 m -5.86,-52.242 2.93,15.449"
         style="fill:none;stroke:#4d4d4d;stroke-width:10;stroke-linecap:round;stroke-linejoin:round;stroke-miterlimit:10;stroke-dasharray:none;stroke-opacity:1"
         id="path26"
         inkscape:connector-curvature="0" /><path
         d="M 2830.04,149.781 V 1291.21"
         style="fill:none;stroke:#000000;stroke-width:6.55200005;stroke-linecap:round;stroke-linejoin:round;stroke-miterlimit:10;stroke-dasharray:none;stroke-opacity:1"
         id="path28"
         inkscape:connector-curvature="0" /><path
         d="M 1839.23,718.777 H 3820.82"
         style="fill:none;stroke:#000000;stroke-width:6.55200005;stroke-linecap:round;stroke-linejoin:round;stroke-miterlimit:10;stroke-dasharray:none;stroke-opacity:1"
         id="path30"
         inkscape:connector-curvature="0" /><path
         d="m 3819.4,1256.96 1.42,11.7 m -3.2,-46.22 1.78,34.52 m -3.23,-89.88 1.45,55.36 m -3.23,-129.27 1.78,73.91 m -2.5,-120.71 0.72,46.8 m -1.78,-98.166 1.06,51.366 m -1.79,-105.862 0.73,54.496 m -1.8,-111.57 1.07,57.074 m -1.76,-113.004 0.69,55.93 m -1.43,-113.004 0.74,57.074 m -1.81,-114.711 1.07,57.637 m -1.79,-115.278 0.72,57.641 m -1.43,-113.289 0.71,55.648 M 3805.81,545 l 1.07,54.504 m -1.79,-107.008 0.72,52.504 m -1.45,-102.727 0.73,50.223 m -2.51,-140.965 1.78,90.742 m -3.21,-166.082 1.43,75.34 m -3.2,-132.41 1.77,57.07 m -3.21,-92.457 1.44,35.387 m -2.52,-44.789 1.08,9.402 m -1.81,-12.257 0.73,2.855 m -1.78,1.129 1.05,-3.984 m -1.77,14.539 0.72,-10.555 m -2.16,44.23 1.44,-33.675 m -3.23,85.902 1.79,-52.227 m -3.22,132.696 1.43,-80.469 m -3.22,178.918 1.79,-98.449 m -2.85,148.664 1.06,-50.215 m -1.8,102.723 0.74,-52.508 m -1.44,106.445 0.7,-53.937 m -1.4,109.289 0.7,-55.352 m -1.8,112.43 1.1,-57.078 m -1.81,114.144 0.71,-57.066 m -1.42,113.57 0.71,-56.504 m -1.77,111.582 1.06,-55.078 m -2.5,153.238 1.44,-98.16 m -2.87,185.476 1.43,-87.316 m -3.23,166.936 1.8,-79.62 m -3.59,138.68 1.79,-59.06 m -3.57,94.73 1.78,-35.67 m -3.58,46.23 1.8,-10.56 m -3.24,-1.99 1.44,12.55 m -2.86,-46.8 1.42,34.25 m -3.2,-89.03 1.78,54.78 m -3.22,-127.27 1.44,72.49 m -2.5,-119.57 1.06,47.08 m -1.79,-97.87 0.73,50.79 m -1.8,-105.005 1.07,54.215 m -1.77,-111.293 0.7,57.078 m -2.5,-159.805 1.8,102.727 M 3758.2,668.563 3759.65,773 m -2.15,-162.941 0.7,58.504 m -1.77,-115.571 1.07,57.067 m -1.8,-112.133 0.73,55.066 m -1.79,-107.293 1.06,52.227 m -2.5,-140.121 1.44,87.894 m -3.22,-160.086 1.78,72.192 m -3.22,-125.848 1.44,53.656 m -3.22,-86.183 1.78,32.527 m -2.5,-39.941 0.72,7.414 m -1.44,-9.696 0.72,2.282 m -1.8,0.285 1.08,-2.567 m -1.78,10.559 0.7,-7.992 m -2.14,41.664 1.44,-33.672 m -3.24,89.312 1.8,-55.64 m -3.57,129.258 1.77,-73.618 m -3.22,162.372 1.45,-88.754 m -3.22,186.632 1.77,-97.878 m -3.21,202.324 1.44,-104.446 m -2.51,163.508 1.07,-59.062 m -1.77,118.133 0.7,-59.071 m -1.8,117.282 1.1,-58.211 m -1.8,114.992 0.7,-56.781 m -2.5,152.953 1.8,-96.172 m -3.22,181.214 1.42,-85.042 m -3.2,153.522 1.78,-68.48 m -3.23,120.12 1.45,-51.64 m -3.22,86.18 1.77,-34.54 m -3.58,45.38 1.81,-10.84 m -3.23,-1.72 1.42,12.56 m -3.21,-46.51 1.79,33.95 m -3.59,-88.46 1.8,54.51 m -3.23,-126.42 1.43,71.91 m -3.22,-162.651 1.79,90.741 m -3.57,-192.897 1.78,102.156 m -3.21,-200.317 1.43,98.161 m -2.85,-198.04 1.42,99.879 m -3.23,-207.457 1.81,107.578 m -3.6,-207.453 1.79,99.875 m -3.57,-182.922 1.78,83.047 m -3.22,-151.527 1.44,68.48 m -3.22,-121.265 1.78,52.785 m -3.57,-83.887 1.79,31.102 m -2.5,-37.668 0.71,6.566 m -1.43,-8.285 0.72,1.719 m -1.44,1.711 0.72,-3.43 m -1.78,11.988 1.06,-8.558 m -2.5,41.66 1.44,-33.102 m -3.24,85.887 1.8,-52.785 m -3.22,122.98 1.42,-70.195 m -3.22,154.953 1.8,-84.758 m -3.57,179.782 1.77,-95.024 m -3.22,196.035 1.45,-101.011 m -3.23,207.746 1.78,-106.735 m -3.56,210.317 1.78,-103.582 m -3.22,188.34 1.44,-84.758 m -2.87,160.079 1.43,-75.321 m -3.23,147.801 1.8,-72.48 m -3.58,125.57 1.78,-53.09 m -3.22,82.48 1.44,-29.39 m -3.22,39.37 1.78,-9.98 m -3.57,-1.72 1.79,11.7 m -3.58,-46.51 1.79,34.81 m -3.21,-83.04 1.42,48.23 m -2.86,-111.29 1.44,63.06 m -3.24,-150.67 1.8,87.61 m -3.58,-186.915 1.78,99.305 m -3.57,-194.613 1.79,95.308 m -3.21,-192.039 1.42,96.731 m -3.23,-195.184 1.81,98.453 m -3.6,-189.765 1.79,91.312 m -3.21,-166.644 1.42,75.332 m -2.85,-138.113 1.43,62.781 m -3.22,-114.727 1.79,51.946 m -3.58,-82.18 1.79,30.234 m -2.51,-36.512 0.72,6.278 m -1.44,-7.992 0.72,1.714 m -1.79,0.86 1.07,-2.574 m -1.78,9.703 0.71,-7.129 m -2.14,37.66 1.43,-30.531 m -3.22,79.625 1.79,-49.094 m -3.59,115.859 1.8,-66.765 m -3.23,147.511 1.43,-80.746 m -3.2,169.496 1.77,-88.75 m -3.57,183.493 1.8,-94.743 m -3.23,195.188 1.43,-100.445 m -3.21,198.031 1.78,-97.586 m -3.57,184.34 1.79,-86.754 m -3.23,162.941 1.44,-76.187 m -3.24,140.397 1.8,-64.21 m -3.58,111.57 1.78,-47.36 m -3.21,75.05 1.43,-27.69 m -3.22,36.82 1.79,-9.13 m -3.22,-1.43 1.43,10.56 m -3.22,-41.96 1.79,31.4 m -3.22,-77.04 1.43,45.64 m -3.21,-105.29 1.78,59.65 m -3.22,-138.973 1.44,79.323 m -3.24,-169.784 1.8,90.461 m -3.58,-180.629 1.78,90.168 m -3.2,-182.625 1.42,92.457 m -3.22,-192.899 1.8,100.442 m -3.6,-193.754 1.8,93.312 m -3.59,-166.933 1.79,73.621 m -3.21,-134.406 1.42,60.785 m -3.21,-107.59 1.79,46.805 m -3.22,-75.047 1.43,28.242 m -2.5,-35.094 1.07,6.852 m -1.79,-8.563 0.72,1.711 m -1.79,1.715 1.07,-3.426 m -1.78,11.985 0.71,-8.559 m -2.49,39.66 1.78,-31.101 m -3.23,79.902 1.45,-48.801 m -2.89,107.86 1.44,-59.059 m -3.23,129.266 1.79,-70.207 m -3.57,160.945 1.78,-90.738 m -3.21,188.332 1.43,-97.594 m -3.2,193.473 1.77,-95.879 m -3.57,189.476 1.8,-93.597 m -3.24,174.351 1.44,-80.754 m -3.21,152.378 1.77,-71.624 m -3.22,136.684 1.45,-65.06 m -3.25,113 1.8,-47.94 m -3.58,76.2 1.78,-28.26 m -3.21,37.67 1.43,-9.41 m -3.21,-1.15 1.78,10.56 m -3.57,-41.66 1.79,31.1 m -3.23,-76.19 1.44,45.09 m -2.87,-104.44 1.43,59.35 m -3.21,-140.11 1.78,80.76 m -3.58,-172.928 1.8,92.168 m -3.24,-176.633 1.44,84.465 m -3.22,-170.922 1.78,86.457 m -3.56,-186.34 1.78,99.883 m -3.57,-192.613 1.79,92.73 m -3.22,-161.801 1.43,69.071 m -2.86,-127.278 1.43,58.207 m -3.21,-107.289 1.78,49.082 m -3.23,-80.183 1.45,31.101 m -2.52,-39.945 1.07,8.844 m -1.8,-11.985 0.73,3.141 m -1.78,-1.145 1.05,-1.996 m -1.77,9.125 0.72,-7.129 m -2.53,37.387 1.81,-30.258 m -3.23,79.617 1.42,-49.359 m -3.2,107.856 1.78,-58.497 m -3.21,128.125 1.43,-69.628 m -3.23,159.515 1.8,-89.887 m -3.59,186.625 1.79,-96.738"
         style="fill:none;stroke:#4d4d4d;stroke-width:6.55200005;stroke-linecap:round;stroke-linejoin:round;stroke-miterlimit:10;stroke-dasharray:none;stroke-opacity:1"
         id="path32"
         inkscape:connector-curvature="0" /><path
         d="m 3535.29,767.008 1.43,-96.735 m -3.22,191.188 1.79,-94.453 m -3.58,183.199 1.79,-88.746 m -3.21,167.219 1.42,-78.473 m -3.21,141.253 1.79,-62.78 m -3.22,109.87 1.43,-47.09 m -3.23,75.62 1.8,-28.53 m -3.23,39.66 1.43,-11.13 m -3.21,2.57 1.78,8.56 m -3.59,-37.67 1.81,29.11 m -3.23,-77.91 1.42,48.8 m -3.21,-115.28 1.79,66.48 m -3.58,-146.674 1.79,80.194 m -3.57,-171.217 1.78,91.023 m -3.22,-177.488 1.44,86.465 m -2.86,-174.645 1.42,88.18 m -3.22,-185.762 1.8,97.582 m -3.22,-189.187 1.42,91.605 m -3.22,-176.64 1.8,85.035 m -3.58,-154.664 1.78,69.629 m -3.59,-114.43 1.81,44.801 m -3.22,-73.902 1.41,29.101 m -2.14,-38.808 0.73,9.707 m -1.8,-13.129 1.07,3.422 m -1.77,-0.848 0.7,-2.574 m -1.78,11.418 1.08,-8.844 m -2.52,37.09 1.44,-28.246 m -2.85,72.765 1.41,-44.519 m -3.21,111.004 1.8,-66.485 m -3.59,147.809 1.79,-81.324 m -3.58,174.351 1.79,-93.027 m -3.23,193.187 1.44,-100.16 m -3.22,196.328 1.78,-96.168 m -3.22,190.332 1.44,-94.164 m -3.24,184.047 1.8,-89.883 m -3.22,170.363 1.42,-80.48 m -3.2,153.53 1.78,-73.05 m -3.56,127.26 1.78,-54.21 m -3.57,85.33 1.79,-31.12 m -3.24,41.67 1.45,-10.55 m -3.23,0 1.78,10.55 m -3.21,-41.09 1.43,30.54 m -3.22,-79.9 1.79,49.36 m -3.23,-115.57 1.44,66.21 m -3.23,-147.538 1.79,81.328 m -3.57,-173.5 1.78,92.172 m -3.21,-198.031 1.43,105.859 m -3.22,-214.305 1.79,108.446 m -3.59,-201.176 1.8,92.73 m -3.21,-180.343 1.41,87.613 m -3.21,-177.785 1.8,90.172 m -3.58,-164.364 1.78,74.192 m -3.22,-125.27 1.44,51.078 m -3.24,-83.316 1.8,32.238 m -2.5,-40.804 0.7,8.566 m -1.43,-11.711 0.73,3.145 m -1.8,-0.86 1.07,-2.285 m -1.77,10.274 0.7,-7.989 m -2.15,37.383 1.45,-29.394 m -3.25,77.046 1.8,-47.652 m -3.21,118.711 1.41,-71.059 m -3.2,158.657 1.79,-87.598 m -3.58,187.191 1.79,-99.593 m -3.59,206.605 1.8,-107.012 m -3.23,209.161 1.43,-102.149 m -3.21,202.598 1.78,-100.449 m -3.2,195.761 1.42,-95.312 m -3.23,180.639 1.81,-85.327 m -3.59,164.087 1.78,-78.76 m -3.56,136.4 1.78,-57.64 m -3.23,88.74 1.45,-31.1 m -2.87,42.8 1.42,-11.7 m -3.22,1.15 1.8,10.55 m -3.6,-45.66 1.8,35.11 m -3.55,-89.04 1.75,53.93 m -3.2,-126.12 1.45,72.19 m -3.25,-159.804 1.8,87.614 m -3.22,-186.922 1.42,99.308 m -3.21,-198.891 1.79,99.583 m -3.23,-201.743 1.44,102.16 m -2.16,-157.519 0.72,55.359 m -1.78,-109.586 1.06,54.227 m -1.76,-106.719 0.7,52.492 m -1.44,-102.718 0.74,50.226 m -2.52,-140.402 1.78,90.176 m -3.57,-165.223 1.79,75.047 m -3.22,-130.981 1.43,55.934 m -3.23,-91.887 1.8,35.953 m -2.5,-46.504 0.7,10.551 m -1.79,-14.547 1.09,3.996 m -1.8,-1.148 0.71,-2.848 m -1.78,12.274 1.07,-9.426 m -2.5,43.664 1.43,-34.238 m -3.22,88.738 1.79,-54.5 m -3.24,125.27 1.45,-70.77 m -3.22,155.801 1.77,-85.031 m -2.5,136.41 0.73,-51.379 m -1.43,105.016 0.7,-53.637 m -1.77,109.57 1.07,-55.933 m -1.8,113.292 0.73,-57.359 m -1.44,112.996 0.71,-55.637 m -1.77,111.29 1.06,-55.653 m -1.78,110.719 0.72,-55.066 m -1.44,109.007 0.72,-53.941 m -2.49,156.379 1.77,-102.438 m -3.21,193.188 1.44,-90.75 m -3.25,169.22 1.81,-78.47 m -3.59,136.39 1.78,-57.92 m -3.21,90.45 1.43,-32.53 m -3.21,44.23 1.78,-11.7 m -3.58,0.58 1.8,11.12 m -3.24,-47.08 1.44,35.96 m -3.22,-92.17 1.78,56.21 m -3.21,-130.98 1.43,74.77 m -3.22,-170.08 1.79,95.31 m -3.57,-203.462 1.78,108.152 m -2.5,-160.942 0.72,52.79 m -1.44,-106.715 0.72,53.925 m -1.8,-108.425 1.08,54.5 m -1.78,-109.008 0.7,54.508 m -1.42,-110.723 0.72,56.215 m -1.45,-111.281 0.73,55.066 m -1.8,-108.437 1.07,53.371 m -1.77,-104.168 0.7,50.797 m -2.5,-143.532 1.8,92.735 m -3.25,-169.496 1.45,76.761 m -3.22,-134.121 1.77,57.36 m -3.56,-93.036 1.79,35.676 m -2.51,-45.078 0.72,9.402 m -1.42,-12.257 0.7,2.855 m -1.77,0.848 1.07,-3.703 m -1.79,13.691 0.72,-9.988 m -2.15,42.8 1.43,-32.812 m -3.23,83.891 1.8,-51.079 m -3.24,130.415 1.44,-79.336 m -3.22,176.921 1.78,-97.585 m -3.56,198.894 1.78,-101.309 m -3.21,209.454 1.43,-108.145 m -2.52,168.934 1.09,-60.789 m -1.81,121.558 0.72,-60.769 m -1.79,120.707 1.07,-59.938 m -1.78,118.711 0.71,-58.773 m -2.13,156.363 1.42,-97.59 m -3.21,184.917 1.79,-87.327 m -3.6,170.937 1.81,-83.61 m -3.58,144.38 1.77,-60.77 m -3.21,93.88 1.44,-33.11 m -3.21,43.66 1.77,-10.55 m -3.22,-2.57 1.45,13.12 m -3.24,-50.21 1.79,37.09 m -3.21,-92.46 1.42,55.37 m -3.23,-128.13 1.81,72.76 m -2.5,-120.13 0.69,47.37 m -1.77,-98.734 1.08,51.364 m -1.8,-106.157 0.72,54.793 m -1.44,-112.148 0.72,57.355 m -2.52,-161.797 1.8,104.442 m -3.23,-210.875 1.43,106.433 m -2.14,-163.789 0.71,57.356 m -1.77,-113.579 1.06,56.223 m -1.77,-110.723 0.71,54.5 m -1.44,-106.144 0.73,51.644 m -2.52,-146.386 1.79,94.742 m -3.58,-172.934 1.79,78.192 m -3.23,-135.254 1.44,57.062 m -3.21,-92.449 1.77,35.387 m -2.47,-44.512 0.7,9.125 m -1.79,-11.98 1.09,2.855 m -1.8,0.848 0.71,-3.703 m -1.43,13.691 0.72,-9.988 m -2.5,46.226 1.78,-36.238 m -3.57,93.598 1.79,-57.36 m -3.24,135.266 1.45,-77.906 m -3.23,172.07 1.78,-94.164 m -3.22,195.18 1.44,-101.016 m -3.21,208.887 1.77,-107.871 m -2.5,166.078 0.73,-58.207 m -1.81,116.703 1.08,-58.496 m -1.8,116.14 0.72,-57.644 m -1.44,113.855 0.72,-56.211 m -2.5,153.52 1.78,-97.309 m -3.2,184.059 1.42,-86.75 m -3.2,166.37 1.78,-79.62 m -3.58,138.39 1.8,-58.77 m -3.24,93.02 1.44,-34.25 m -3.22,46.53 1.78,-12.28 m -3.21,-0.29 1.43,12.57 m -3.22,-51.95 1.79,39.38 m -3.58,-96.16 1.79,56.78 m -3.23,-131.26 1.44,74.48 m -3.23,-166.647 1.79,92.167 m -3.57,-196.038 1.78,103.871 m -2.51,-159.805 0.73,55.934 m -1.43,-113.004 0.7,57.07 m -1.77,-114.707 1.07,57.637 m -1.79,-114.996 0.72,57.359 m -2.52,-165.223 1.8,107.864 m -3.23,-208.313 1.43,100.449 m -3.2,-182.339 1.77,81.89 m -3.21,-150.386 1.44,68.496"
         style="fill:none;stroke:#4d4d4d;stroke-width:6.55200005;stroke-linecap:round;stroke-linejoin:round;stroke-miterlimit:10;stroke-dasharray:none;stroke-opacity:1"
         id="path34"
         inkscape:connector-curvature="0" /><path
         d="m 3254.39,234.535 1.81,58.778 m -3.58,-93.883 1.77,35.105 m -2.5,-42.801 0.73,7.696 m -1.43,-9.696 0.7,2 m -1.77,2.274 1.07,-4.274 m -1.8,14.547 0.73,-10.273 m -2.16,44.515 1.43,-34.242 m -3.2,87.032 1.77,-52.79 m -3.57,128.989 1.8,-76.199 m -3.22,168.082 1.42,-91.883 m -3.23,191.179 1.81,-99.296 m -3.24,205.168 1.43,-105.872 m -2.49,162.383 1.06,-56.511 m -1.78,113.011 0.72,-56.5 m -1.79,112.141 1.07,-55.641 m -1.8,109.852 0.73,-54.211 m -2.15,147.246 1.42,-93.035 m -3.22,175.784 1.8,-82.749 m -3.6,159.219 1.8,-76.47 m -3.57,132.12 1.77,-55.65 m -3.2,84.47 1.43,-28.82 m -2.86,38.81 1.43,-9.99 m -3.24,-2.27 1.81,12.26 m -3.57,-50.51 1.76,38.25 m -3.21,-88.47 1.45,50.22 m -2.87,-115.29 1.42,65.07 m -3.2,-150.953 1.78,85.883 m -3.58,-183.188 1.8,97.305 m -2.53,-150.676 0.73,53.371 m -1.44,-107.871 0.71,54.5 m -1.79,-109.863 1.08,55.363 m -1.78,-110.429 0.7,55.066 m -2.5,-162.078 1.8,107.012 m -3.57,-206.028 1.77,99.016 m -3.22,-176.641 1.45,77.625 m -2.87,-142.679 1.42,65.054 m -3.21,-120.422 1.79,55.368 m -3.6,-89.028 1.81,33.66 m -2.5,-41.371 0.69,7.711 m -1.77,-9.996 1.08,2.285 m -1.81,1.145 0.73,-3.43 m -1.43,12.27 0.7,-8.84 m -2.49,43.367 1.79,-34.527 m -3.57,89.316 1.78,-54.789 m -3.21,124.418 1.43,-69.629 m -3.23,153.25 1.8,-83.621 m -3.24,173.773 1.44,-90.152 M 3190,660 l 1.78,-95.891 M 3188.55,765.297 3190,660 m -3.22,208.313 1.77,-103.016 m -3.55,199.18 1.78,-96.164 m -3.23,180.337 1.45,-84.173 m -3.22,152.383 1.77,-68.21 m -3.58,118.14 1.81,-49.93 m -3.23,76.76 1.42,-26.83 m -2.85,36.53 1.43,-9.7 m -3.24,-0.28 1.81,9.98 m -3.58,-41.67 1.77,31.69 m -3.55,-85.9 1.78,54.21 m -3.58,-127.55 1.8,73.34 m -3.22,-148.385 1.42,75.045 m -2.87,-158.662 1.45,83.617 m -2.52,-136.403 1.07,52.786 m -1.78,-106.715 0.71,53.929 m -1.78,-108.429 1.07,54.5 M 3163.52,660 l 0.72,54.223 m -2.15,-143.543 1.43,89.32 m -3.23,-172.926 1.8,83.606 m -3.24,-166.071 1.44,82.465 m -3.2,-150.101 1.76,67.636 m -3.56,-117.867 1.8,50.231 m -3.59,-79.903 1.79,29.672 m -2.49,-36.234 0.7,6.562 m -1.43,-8.554 0.73,1.992 m -1.44,0.863 0.71,-2.855 m -1.43,10.55 0.72,-7.695 m -2.5,37.102 1.78,-29.407 m -3.23,76.766 1.45,-47.359 m -3.23,116.703 1.78,-69.344 m -3.57,154.094 1.79,-84.75 m -3.58,174.644 1.79,-89.894 m -3.59,185.765 1.8,-95.871 m -3.22,191.469 1.42,-95.598 m -3.22,188.336 1.8,-92.738 m -3.22,179.492 1.42,-86.754 m -3.21,163.233 1.79,-76.479 m -3.23,140.109 1.44,-63.63 m -3.21,111.29 1.77,-47.66 m -3.57,78.47 1.8,-30.81 m -3.58,39.66 1.78,-8.85 m -3.22,-1.71 1.44,10.56 m -2.87,-37.67 1.43,27.11 m -3.23,-77.62 1.8,50.51 m -3.57,-119.27 1.77,68.76 m -3.21,-145.245 1.44,76.485 m -3.25,-162.086 1.81,85.601 m -3.58,-179.199 1.77,93.598 m -3.2,-189.188 1.43,95.59 m -3.21,-183.484 1.78,87.894 m -3.22,-170.363 1.44,82.469 m -3.24,-162.946 1.8,80.477 m -3.58,-146.684 1.78,66.207 m -3.2,-114.715 1.42,48.508 m -3.23,-77.89 1.81,29.382 m -2.52,-35.949 0.71,6.567 m -1.77,-8.278 1.06,1.711 m -1.78,0.848 0.72,-2.559 m -1.44,9.707 0.72,-7.148 m -2.15,35.101 1.43,-27.953 m -3.21,73.055 1.78,-45.102 m -3.57,113 1.79,-67.898 m -3.59,150.656 1.8,-82.758 m -3.24,163.805 1.44,-81.047 m -3.21,166.942 1.77,-85.895 m -3.22,185.762 1.45,-99.867 m -3.22,196.886 1.77,-97.019 m -3.57,181.769 1.8,-84.75 m -3.24,159.233 1.44,-74.483 m -3.21,136.693 1.77,-62.21 m -3.57,108.15 1.8,-45.94 m -3.23,73.05 1.43,-27.11 m -2.85,37.38 1.42,-10.27 m -3.22,1.71 1.8,8.56 m -3.58,-37.09 1.78,28.53 m -3.22,-74.76 1.44,46.23 m -3.24,-108.44 1.8,62.21 m -3.22,-135.829 1.42,73.619 m -3.2,-157.229 1.78,83.61 m -3.58,-182.633 1.8,99.023 m -3.6,-200.89 1.8,101.867 m -3.21,-191.754 1.41,89.887 m -3.2,-174.067 1.79,84.18 m -3.21,-157.231 1.42,73.051 m -3.23,-134.121 1.81,61.07 m -3.6,-111.003 1.79,49.933 m -3.21,-80.465 1.42,30.532 m -2.5,-37.961 1.08,7.429 m -1.8,-9.707 0.72,2.278 m -1.44,0 0.72,-2.278 m -1.79,9.41 1.07,-7.132 m -2.49,35.957 1.42,-28.825 m -3.23,75.911 1.81,-47.086 m -3.58,113.007 1.77,-65.921 m -3.21,146.105 1.44,-80.184 m -3.24,162.079 1.8,-81.895 m -3.2,169.211 1.4,-87.316 m -3.21,186.336 1.81,-99.02 m -3.59,195.758 1.78,-96.738 m -3.21,182.921 1.43,-86.183 m -3.24,162.644 1.81,-76.461 m -3.57,142.671 1.76,-66.21 m -3.21,115 1.45,-48.79 m -3.25,76.47 1.8,-27.68 m -3.23,37.39 1.43,-9.71 m -3.2,0.29 1.77,9.42 m -3.21,-38.53 1.44,29.11 m -3.22,-76.76 1.78,47.65 m -3.58,-111.85 1.8,64.2 m -3.24,-142.108 1.44,77.908 m -3.21,-166.369 1.77,88.461 m -3.56,-186.91 1.79,98.449 m -3.23,-199.176 1.44,100.727 m -3.21,-187.196 1.77,86.469 m -3.21,-168.363 1.44,81.894 M 3010,409.18 l 1.81,84.742 m -3.58,-154.371 1.77,69.629 m -3.21,-117.578 1.44,47.949 m -3.21,-78.77 1.77,30.821 m -2.5,-39.946 0.73,9.125 m -1.44,-12.265 0.71,3.14 m -1.79,-0.566 1.08,-2.574 m -1.8,10.839 0.72,-8.265 m -2.5,36.523 1.78,-28.258 m -3.21,73.051 1.43,-44.793 m -3.22,114.707 1.79,-69.914 m -3.57,156.379 1.78,-86.465 m -3.23,174.922 1.45,-88.457 m -3.24,182.918 1.79,-94.461 m -3.57,195.758 1.78,-101.297 m -3.21,200.317 1.43,-99.02 m -3.22,186.055 1.79,-87.035 m -3.22,165.22 1.43,-78.185 m -3.23,150.385 1.8,-72.2 m -3.57,125.84 1.77,-53.64 m -3.21,82.46 1.44,-28.82 m -2.88,39.96 1.44,-11.14 m -3.24,2.86 1.8,8.28 m -3.56,-38.24 1.76,29.96 m -3.21,-80.19 1.45,50.23 m -3.23,-118.71 1.78,68.48 m -3.56,-150.093 1.78,81.613 m -3.23,-174.07 1.45,92.457 m -3.22,-196.047 1.77,103.59 m -3.57,-210.024 1.8,106.434 m -3.24,-206.028 1.44,99.594 m -3.21,-192.894 1.77,93.3 m -3.57,-178.054 1.8,84.754 m -3.24,-154.954 1.44,70.2 m -3.23,-120.711 1.79,50.511 m -3.21,-82.468 1.42,31.957"
         style="fill:none;stroke:#4d4d4d;stroke-width:6.55200005;stroke-linecap:round;stroke-linejoin:round;stroke-miterlimit:10;stroke-dasharray:none;stroke-opacity:1"
         id="path36"
         inkscape:connector-curvature="0" /><path
         d="m 2954.56,222.551 1.07,9.129 m -1.78,-12.559 0.71,3.43 m -1.45,-1.145 0.74,-2.285 m -1.8,10.563 1.06,-8.278 m -2.5,37.949 1.44,-29.671 m -2.88,77.039 1.44,-47.368 m -3.2,118.145 1.76,-70.777 m -3.56,158.097 1.8,-87.32 m -3.23,180.344 1.43,-93.024 m -3.22,193.188 1.79,-100.164 m -2.5,157.23 0.71,-57.066 m -1.8,114.711 1.09,-57.645 m -1.79,114.422 0.7,-56.777 m -1.78,112.144 1.08,-55.367 m -2.51,149.817 1.43,-94.45 m -3.23,178.637 1.8,-84.187 m -3.22,156.377 1.42,-72.19 m -3.21,126.13 1.79,-53.94 m -3.58,87.9 1.79,-33.96 m -3.58,44.51 1.79,-10.55 m -3.23,-1.71 1.44,12.26 m -3.22,-46.51 1.78,34.25 m -3.21,-84.48 1.43,50.23 m -2.86,-115.86 1.43,65.63 m -3.23,-157.517 1.8,91.887 m -3.58,-196.614 1.78,104.727 m -2.49,-158.653 0.71,53.926 m -1.79,-109.004 1.08,55.078 m -1.8,-110.722 0.72,55.644 m -1.43,-111.285 0.71,55.641 m -2.49,-156.653 1.78,101.012 m -3.23,-195.758 1.45,94.746 m -3.23,-186.914 1.78,92.168 m -3.56,-168.363 1.78,76.195 m -3.23,-130.695 1.45,54.5 m -3.23,-88.738 1.78,34.238 m -2.5,-43.379 0.72,9.141 m -1.43,-12.274 0.71,3.133 m -1.79,0 1.08,-3.133 m -1.8,12.551 0.72,-9.418 m -2.49,41.946 1.77,-32.528 m -3.22,83.899 1.45,-51.371 m -3.22,130.125 1.77,-78.754 m -3.57,175.207 1.8,-96.453 m -3.22,189.769 1.42,-93.316 m -2.87,193.179 1.45,-99.863 m -2.51,160.367 1.06,-60.504 m -1.79,121 0.73,-60.496 m -1.8,120.426 1.07,-59.93 m -1.78,118.418 0.71,-58.488 m -2.15,151.809 1.44,-93.321 m -3.22,176.922 1.78,-83.601 m -3.22,160.941 1.44,-77.34 m -3.21,136.12 1.77,-58.78 m -3.57,97.3 1.8,-38.52 m -3.23,52.23 1.43,-13.71 m -3.21,1.71 1.78,12 m -3.58,-48.52 1.8,36.52 m -3.23,-88.74 1.43,52.22 m -3.21,-120.42 1.78,68.2 m -3.23,-162.657 1.45,94.457 m -3.23,-202.312 1.78,107.855 m -2.85,-163.504 1.07,55.649 m -1.78,-112.731 0.71,57.082 m -1.43,-114.714 0.72,57.632 m -1.8,-115.554 1.08,57.922 m -1.79,-115.286 0.71,57.364 m -1.42,-113.293 0.71,55.929 m -1.8,-110.152 1.09,54.223 m -1.8,-105.867 0.71,51.644 m -2.14,-142.105 1.43,90.461 m -3.22,-165.219 1.79,74.758 m -3.21,-129.543 1.42,54.785 m -3.22,-89.614 1.8,34.829 m -2.51,-45.098 0.71,10.269 m -1.79,-13.976 1.08,3.707 m -1.8,-1.43 0.72,-2.277 m -1.43,10.851 0.71,-8.574 m -2.5,44.813 1.79,-36.239 m -3.58,95.594 1.79,-59.355 m -3.57,138.39 1.78,-79.035 m -3.23,174.914 1.45,-95.879 m -2.86,191.77 1.41,-95.891 m -3.21,197.75 1.8,-101.859 m -2.52,160.367 0.72,-58.508 m -1.43,117.004 0.71,-58.496 m -1.77,116.703 1.06,-58.207 m -1.78,114.992 0.72,-56.785 m -1.8,114.141 1.08,-57.356 m -1.79,112.145 0.71,-54.789 m -1.43,106.155 0.72,-51.366 m -1.79,98.746 1.07,-47.38 m -2.51,117 1.44,-69.62 m -2.87,122.98 1.43,-53.36 m -3.23,93.31 1.8,-39.95 m -3.57,51.93 1.77,-11.98 m -3.57,-0.29 1.8,12.27 m -3.22,-44.51 1.42,32.24 m -3.21,-90.16 1.79,57.92 m -3.23,-136.68 1.44,78.76 m -3.22,-174.359 1.78,95.599 m -3.57,-204.036 1.79,108.437 m -2.51,-161.797 0.72,53.36 m -1.45,-108.157 0.73,54.797 m -1.79,-110.148 1.06,55.351 m -1.77,-110.422 0.71,55.071 m -1.44,-110.715 0.73,55.644 m -1.43,-109.871 0.7,54.227 m -1.78,-106.731 1.08,52.504 m -1.81,-102.722 0.73,50.218 m -2.5,-149.234 1.77,99.016 m -3.57,-180.067 1.8,81.051 m -3.22,-137.262 1.42,56.211 m -3.22,-90.168 1.8,33.957 m -2.5,-41.953 0.7,7.996 m -1.43,-10.273 0.73,2.277 m -1.8,1.149 1.07,-3.426 m -1.78,12.555 0.71,-9.129 m -2.14,44.511 1.43,-35.382 m -3.23,91.882 1.8,-56.5 m -3.58,132.411 1.78,-75.911 m -3.21,167.231 1.43,-91.32 m -2.51,145.242 1.08,-53.922 m -1.8,110.137 0.72,-56.215 m -1.41,114.722 0.69,-58.507 m -1.79,118.144 1.1,-59.637 m -2.53,164.079 1.43,-104.442 m -2.87,206.883 1.44,-102.441 m -2.5,158.937 1.06,-56.496 m -1.77,110.434 0.71,-53.938 m -1.79,104.438 1.08,-50.5 m -1.8,97.02 0.72,-46.52 m -2.49,119.57 1.77,-73.05 m -3.21,127.84 1.44,-54.79 m -3.24,89.03 1.8,-34.24 m -3.57,45.38 1.77,-11.14 m -3.22,-0.57 1.45,11.71 m -2.88,-43.67 1.43,31.96 m -3.21,-89.6 1.78,57.64 m -3.58,-135.83 1.8,78.19 m -3.57,-172.637 1.77,94.447 m -3.21,-201.174 1.44,106.727 M 2768.84,773 l 1.8,105.586 m -3.23,-213.445 1.43,107.859 m -3.21,-214.02 1.78,106.161 m -3.22,-205.746 1.44,99.585 m -3.24,-196.605 1.8,97.02 m -3.56,-175.778 1.76,78.758 m -3.56,-129.27 1.8,50.512 m -3.25,-81.898 1.45,31.386 m -2.15,-40.804 0.7,9.418 m -1.77,-11.985 1.07,2.567 m -1.78,1.14 0.71,-3.707 m -1.8,13.981 1.09,-10.274 m -2.5,46.227 1.41,-35.953 m -3.21,92.453 1.8,-56.5 m -3.24,131.27 1.44,-74.77 m -3.22,164.371 1.78,-89.601 m -3.21,183.769 1.43,-94.168 m -3.22,194.328 1.79,-100.16 m -2.5,155.801 0.71,-55.641 m -1.42,111.285 0.71,-55.644 m -1.81,110.433 1.1,-54.789 m -1.8,108.727 0.7,-53.938 m -2.5,153.524 1.8,-99.586 m -3.23,187.481 1.43,-87.895 m -3.21,159.235 1.78,-71.34 m -3.23,124.98 1.45,-53.64 m -3.22,89.89 1.77,-36.25 m -3.57,46.8 1.8,-10.55 m -3.58,-2.86 1.78,13.41 m -3.21,-47.66 1.43,34.25 m -3.23,-86.47 1.8,52.22 m -3.21,-120.7 1.41,68.48 m -3.21,-158.369 1.8,89.889 m -3.6,-191.19 1.8,101.301 m -3.22,-204.883 1.42,103.582 m -3.2,-209.168 1.78,105.586 m -3.22,-208.606 1.44,103.02 m -3.23,-198.613 1.79,95.593 m -3.59,-183.476 1.8,87.883 m -3.57,-159.508 1.77,71.625 m -3.21,-119.278 1.44,47.653 m -2.87,-77.336 1.43,29.683 m -2.51,-38.242 1.08,8.559 m -1.8,-10.844 0.72,2.285 m -1.78,1.145 1.06,-3.43 m -1.79,12.836 0.73,-9.406 m -2.16,42.804 1.43,-33.398 m -3.2,85.902 1.77,-52.504 m -3.57,125.84 1.8,-73.336 m -3.58,161.516 1.78,-88.18 m -3.22,179.485 1.44,-91.305 m -2.86,188.332 1.42,-97.027 m -3.23,199.75 1.81,-102.723 m -3.59,202.602 1.78,-99.879 m -3.21,193.187 1.43,-93.308 m -3.24,175.491 1.81,-82.183 m -3.57,149.813 1.76,-67.63 m -3.2,117.57 1.44,-49.94"
         style="fill:none;stroke:#4d4d4d;stroke-width:6.55200005;stroke-linecap:round;stroke-linejoin:round;stroke-miterlimit:10;stroke-dasharray:none;stroke-opacity:1"
         id="path38"
         inkscape:connector-curvature="0" /><path
         d="m 2682.98,1194.47 1.78,-31.1 m -3.58,39.67 1.8,-8.57 m -3.23,-2.57 1.43,11.14 m -2.86,-39.39 1.43,28.25 m -3.22,-81.04 1.79,52.79 m -3.59,-124.41 1.8,71.62 m -3.23,-150.665 1.43,79.045 m -3.21,-167.22 1.78,88.175 m -3.57,-191.765 1.79,103.59 m -3.57,-209.457 1.78,105.867 m -3.22,-196.321 1.44,90.454 m -2.87,-175.2 1.43,84.746 m -3.22,-170.925 1.79,86.179 m -3.58,-156.09 1.79,69.911 m -3.58,-115.852 1.79,45.941 m -3.21,-73.914 1.42,27.973 m -2.15,-35.102 0.73,7.129 m -1.79,-8.843 1.06,1.714 m -1.79,1.708 0.73,-3.422 m -1.44,12.265 0.71,-8.843 m -2.5,39.097 1.79,-30.254 m -3.22,77.063 1.43,-46.809 m -3.21,116.715 1.78,-69.906 m -3.57,154.945 1.79,-85.039 m -3.24,168.363 1.45,-83.324 m -3.22,171.492 1.77,-88.168 m -3.21,186.332 1.44,-98.164 m -3.23,194.039 1.79,-95.875 m -3.57,185.77 1.78,-89.895 m -3.21,169.22 1.43,-79.325 m -3.24,143.245 1.81,-63.92 m -3.58,111.58 1.77,-47.66 m -3.21,77.62 1.44,-29.96 m -3.24,39.09 1.8,-9.13 m -3.57,-2.29 1.77,11.42 m -3.2,-41.96 1.43,30.54 m -3.22,-79.9 1.79,49.36 m -3.59,-114.98 1.8,65.62 m -3.24,-140.675 1.44,75.055 m -2.86,-159.52 1.42,84.465 m -3.2,-180.344 1.78,95.879 m -3.59,-193.473 1.81,97.594 m -3.23,-184.918 1.42,87.324 m -3.21,-168.941 1.79,81.617 m -3.21,-161.797 1.42,80.18 m -3.21,-146.387 1.79,66.207 m -3.59,-112.136 1.8,45.929 m -3.24,-75.332 1.44,29.403 m -2.5,-37.68 1.06,8.277 m -1.77,-10.836 0.71,2.559 m -1.79,0.301 1.08,-2.86 m -1.8,11.699 0.72,-8.839 m -2.49,39.089 1.77,-30.25 m -3.21,77.043 1.44,-46.793 m -3.24,111 1.8,-64.207 m -3.23,141.54 1.43,-77.333 m -3.22,166.36 1.79,-89.027 m -3.58,184.05 1.79,-95.023 m -3.21,188.629 1.42,-93.606 m -3.21,184.918 1.79,-91.312 m -3.23,170.066 1.44,-78.754 m -3.23,149.239 1.79,-70.485 m -3.22,137.545 1.43,-67.06 m -3.22,116.43 1.79,-49.37 m -3.56,77.9 1.77,-28.53 m -3.57,37.09 1.8,-8.56 m -3.25,-2 1.45,10.56 m -2.86,-37.95 1.41,27.39 m -3.21,-75.61 1.8,48.22 m -3.57,-113 1.77,64.78 m -3.22,-140.116 1.45,75.336 m -3.25,-160.086 1.8,84.75 m -3.56,-180.059 1.76,95.309 m -3.56,-192.899 1.8,97.59 m -3.23,-184.336 1.43,86.746 m -2.87,-168.078 1.44,81.332 m -3.22,-162.941 1.78,81.609 m -3.58,-148.101 1.8,66.492 m -3.24,-109.293 1.44,42.801 m -3.22,-70.196 1.78,27.395 m -2.48,-36.234 0.7,8.839 m -1.79,-11.699 1.09,2.86 m -1.8,-0.301 0.71,-2.559 m -1.78,11.125 1.07,-8.566 m -2.5,35.676 1.43,-27.11 m -2.88,69.34 1.45,-42.23 m -3.22,104.164 1.77,-61.934 m -3.2,137.262 1.43,-75.328 m -3.23,164.925 1.8,-89.597 m -3.58,186.055 1.78,-96.458 m -3.58,194.903 1.8,-98.445 m -3.21,194.89 1.41,-96.445 m -3.21,176.633 1.8,-80.188 m -3.23,152.107 1.43,-71.919 m -3.22,140.399 1.79,-68.48 m -3.22,119.56 1.43,-51.08 m -3.23,81.61 1.8,-30.53 m -3.58,41.09 1.78,-10.56 m -3.58,0.57 1.8,9.99 m -3.23,-40.81 1.43,30.82 m -3.2,-78.47 1.77,47.65 m -3.21,-111.28 1.44,63.63 m -3.24,-137.547 1.8,73.917 m -3.22,-157.241 1.42,83.324 m -3.22,-180.058 1.8,96.734 m -3.58,-196.32 1.78,99.586 m -3.21,-198.04 1.43,98.454 m -3.23,-190.043 1.8,91.589 m -3.57,-172.355 1.77,80.766 m -3.58,-147.25 1.81,66.484 m -3.24,-111.004 1.43,44.52 m -2.86,-73.621 1.43,29.101 m -2.14,-38.242 0.71,9.141 m -1.79,-13.129 1.08,3.988 m -1.79,-2.274 0.71,-1.714 m -1.43,8.277 0.72,-6.563 m -2.49,37.95 1.77,-31.387 m -3.58,84.176 1.81,-52.789 m -3.24,113.289 1.43,-60.5 m -3.21,132.988 1.78,-72.488 m -3.57,170.64 1.79,-98.152 m -3.57,204.313 1.78,-106.161 m -3.22,198.043 1.44,-91.882 m -2.88,182.335 1.44,-90.453 m -3.23,185.192 1.79,-94.739 m -3.56,178.915 1.77,-84.176 m -3.21,154.096 1.44,-69.92 m -3.22,122.13 1.78,-52.21 m -3.58,82.46 1.8,-30.25 m -3.24,41.67 1.44,-11.42 m -3.21,2.86 1.77,8.56 m -3.21,-37.09 1.44,28.53 m -3.24,-80.76 1.8,52.23 m -3.57,-124.14 1.77,71.91 m -3.58,-154.945 1.81,83.035 m -3.23,-176.918 1.42,93.883 m -3.21,-192.617 1.79,98.734 m -3.22,-200.031 1.43,101.297 m -3.21,-200.606 1.78,99.309 m -3.22,-192.332 1.44,93.023 m -3.23,-176.93 1.79,83.907 m -3.22,-154.098 1.43,70.191 m -3.21,-125.832 1.78,55.641 m -3.58,-89.594 1.8,33.953 m -2.51,-41.097 0.71,7.144 m -1.44,-9.996 0.73,2.852 m -1.8,-0.856 1.07,-1.996 m -1.78,8.285 0.71,-6.289 m -2.51,38.817 1.8,-32.528 m -3.57,87.594 1.77,-55.066 m -3.21,123.836 1.44,-68.77 m -3.21,152.094 1.77,-83.324 m -3.21,179.781 1.44,-96.457 m -3.25,200.324 1.81,-103.867 m -3.23,204.316 1.42,-100.449 m -3.21,199.184 1.79,-98.735 m -3.23,201.172 1.44,-102.437 m -3.21,193.188 1.77,-90.751 m -3.56,165.511 1.79,-74.76 m -3.59,130.41 1.8,-55.65 m -3.24,87.89 1.44,-32.24 m -3.21,43.94 1.77,-11.7 m -3.22,2.28 1.45,9.42 m -3.22,-39.67 1.77,30.25 m -3.58,-86.75 1.81,56.5 m -3.58,-134.68 1.77,78.18 m -3.2,-160.657 1.43,82.477 m -2.86,-174.638 1.43,92.161 m -2.51,-147.817 1.08,55.656 m -1.81,-112.718 0.73,57.062 m -1.43,-114.988 0.7,57.926 m -1.78,-115.571 1.08,57.645 m -2.52,-163.512 1.44,105.867 m -3.22,-204.886 1.78,99.019 m -3.57,-187.476 1.79,88.457 m -3.22,-161.789 1.43,73.332 m -3.21,-125.559 1.78,52.227 m -3.21,-85.907 1.43,33.68 m -2.16,-43.953 0.73,10.273 m -1.8,-14.547 1.07,4.274 m -1.77,-2.274 0.7,-2 m -1.43,9.696 0.73,-7.696 m -2.52,39.946 1.79,-32.25 m -3.59,86.183 1.8,-53.933 m -3.22,125.273 1.42,-71.34 m -3.21,158.086 1.79,-86.746 m -2.51,139.824 0.72,-53.078 m -1.79,109.293 1.07,-56.215 m -1.78,114.43 0.71,-58.215 m -1.79,117.852 1.08,-59.637 m -1.8,114.418 0.72,-54.781 m -1.43,109.57 0.71,-54.789 m -1.42,109.008 0.71,-54.219 m -1.77,107.301 1.06,-53.082 m -2.51,151.246 1.45,-98.164 m -2.89,186.055 1.44,-87.891 m -3.22,167.221 1.78,-79.33 m -3.57,138.39 1.79,-59.06 m -3.57,93.88 1.78,-34.82 m -3.22,47.1 1.44,-12.28"
         style="fill:none;stroke:#4d4d4d;stroke-width:6.55200005;stroke-linecap:round;stroke-linejoin:round;stroke-miterlimit:10;stroke-dasharray:none;stroke-opacity:1"
         id="path40"
         inkscape:connector-curvature="0" /><path
         d="m 2382.4,1247.84 1.79,11.42 m -3.22,-45.66 1.43,34.24 m -3.2,-93.04 1.77,58.8 m -3.57,-138.11 1.8,79.31 m -3.25,-166.066 1.45,86.756 m -3.21,-184.064 1.76,97.308 m -2.5,-154.382 0.74,57.074 m -1.45,-115.571 0.71,58.497 m -1.79,-117.563 1.08,59.066 m -1.79,-118.14 0.71,59.074 m -1.77,-114.707 1.06,55.633 m -1.79,-110.149 0.73,54.516 m -1.45,-107.019 0.72,52.503 m -1.43,-102.726 0.71,50.223 m -2.49,-145.52 1.78,95.297 m -3.57,-173.492 1.79,78.195 m -3.22,-132.129 1.43,53.934 m -3.23,-87.614 1.8,33.68 m -2.52,-42.805 0.72,9.125 m -1.42,-12.257 0.7,3.132 m -1.8,-0.277 1.1,-2.855 m -1.8,11.691 0.7,-8.836 m -2.48,43.93 1.78,-35.094 m -3.21,92.453 1.43,-57.359 m -3.23,134.125 1.8,-76.766 m -3.23,169.512 1.43,-92.746 m -2.5,146.097 1.07,-53.351 m -1.78,109.004 0.71,-55.653 m -1.8,113.286 1.09,-57.633 m -1.8,116.707 0.71,-59.074 m -2.15,163.8 1.44,-104.726 m -2.85,207.168 1.41,-102.442 m -2.5,159.512 1.09,-57.07 m -1.8,111.574 0.71,-54.504 m -1.78,105.578 1.07,-51.074 m -1.78,98.454 0.71,-47.38 m -2.51,121.57 1.8,-74.19 m -3.22,130.41 1.42,-56.22 m -3.21,94.45 1.79,-38.23 m -3.59,50.21 1.8,-11.98 m -3.23,0 1.43,11.98 m -3.22,-44.23 1.79,32.25 m -3.21,-93.6 1.42,61.35 m -3.22,-145.24 1.8,83.89 m -3.59,-174.916 1.79,91.026 m -3.22,-193.475 1.43,102.449 m -2.49,-158.945 1.06,56.496 m -1.78,-114.145 0.72,57.649 m -1.45,-115.856 0.73,58.207 m -1.8,-116.418 1.07,58.211 m -2.5,-164.656 1.43,106.445 m -3.22,-206.312 1.79,99.867 m -3.22,-198.605 1.43,98.738 m -3.22,-178.918 1.79,80.18 m -3.56,-132.407 1.77,52.227 m -3.22,-85.336 1.45,33.109 m -2.16,-42.515 0.71,9.406 m -1.78,-13.109 1.07,3.703 m -1.8,-0.848 0.73,-2.855 m -1.43,11.398 0.7,-8.543 m -2.5,44.219 1.8,-35.676 m -3.6,93.613 1.8,-57.937 m -3.22,134.117 1.42,-76.18 m -3.21,168.352 1.79,-92.172 m -2.5,144.676 0.71,-52.504 m -1.77,107.574 1.06,-55.07 m -1.8,112.148 0.74,-57.078 m -1.44,115.57 0.7,-58.492 m -1.79,114.707 1.09,-56.215 m -1.79,112.43 0.7,-56.215 m -1.41,111.582 0.71,-55.367 m -1.44,109.297 0.73,-53.93 m -2.52,158.375 1.79,-104.445 m -3.59,196.039 1.8,-91.594 m -3.23,164.074 1.43,-72.48 m -3.21,126.7 1.78,-54.22 m -3.21,89.89 1.43,-35.67 m -3.2,46.81 1.77,-11.14 m -3.57,-0.86 1.8,12 m -3.23,-43.95 1.43,31.95 m -3.22,-89.31 1.79,57.36 m -3.22,-135.27 1.43,77.91 m -3.23,-166.079 1.8,88.169 m -3.23,-187.477 1.43,99.308 m -2.5,-157.801 1.07,58.493 m -1.8,-118.133 0.73,59.64 m -1.79,-120.129 1.06,60.489 m -1.76,-120.992 0.7,60.503 m -2.5,-166.375 1.8,105.872 m -3.23,-204.313 1.43,98.441 m -3.22,-188.05 1.79,89.609 m -3.59,-162.941 1.8,73.332 m -3.23,-128.684 1.43,55.352 m -3.21,-87.887 1.78,32.535 m -2.5,-39.68 0.72,7.145 m -1.8,-8.277 1.08,1.132 m -1.79,3.145 0.71,-4.277 m -1.41,14.261 0.7,-9.984 m -2.49,43.098 1.79,-33.114 m -3.23,84.192 1.44,-51.078 m -3.23,128.972 1.79,-77.894 m -3.59,172.636 1.8,-94.742 m -2.5,144.973 0.7,-50.231 m -1.43,102.723 0.73,-52.492 m -1.79,106.996 1.06,-54.504 m -1.77,109.586 0.71,-55.082 m -2.16,158.367 1.45,-103.285 m -3.24,203.734 1.79,-100.449 m -3.21,202.61 1.42,-102.161 m -3.21,191.768 1.79,-89.607 m -3.58,159.807 1.79,-70.2 m -3.23,122.7 1.44,-52.5 m -3.22,85.6 1.78,-33.1 m -3.56,42.52 1.78,-9.42 m -3.21,-3.14 1.43,12.56 m -3.24,-44.51 1.81,31.95 m -3.23,-89.88 1.42,57.93 m -3.2,-136.12 1.78,78.19 m -3.58,-158.376 1.8,80.186 m -3.23,-169.787 1.43,89.601 m -2.13,-145.254 0.7,55.653 m -1.79,-112.434 1.09,56.781 m -1.8,-114.129 0.71,57.348 m -1.8,-114.711 1.09,57.363 m -2.52,-151.246 1.43,93.883 m -2.86,-181.773 1.43,87.89 m -3.21,-174.07 1.78,86.18 m -3.21,-157.231 1.43,71.051 m -3.21,-126.137 1.78,55.086 m -3.58,-88.457 1.8,33.371 m -2.5,-41.371 0.7,8 m -1.79,-9.996 1.09,1.996 m -1.8,1.715 0.71,-3.711 m -1.8,13.418 1.09,-9.707 m -2.5,40.527 1.41,-30.82 m -2.85,78.473 1.44,-47.653 m -3.23,119.563 1.79,-71.91 m -3.58,159.519 1.79,-87.609 m -3.21,183.766 1.42,-96.157 m -3.22,198.883 1.8,-102.726 m -3.6,207.457 1.8,-104.731 m -3.57,206.313 1.77,-101.582 m -3.22,192.898 1.45,-91.316 m -3.23,171.793 1.78,-80.477 m -3.2,144.677 1.42,-64.2 m -2.86,112.71 1.44,-48.51 m -3.23,81.05 1.79,-32.54 m -3.58,43.09 1.79,-10.55 m -3.57,-1.15 1.78,11.7 m -3.23,-45.37 1.45,33.67 m -3.24,-87.03 1.79,53.36 m -3.57,-124.14 1.78,70.78 m -3.21,-145.824 1.43,75.044 m -2.86,-158.083 1.43,83.039 m -3.22,-182.621 1.79,99.582 m -3.57,-201.457 1.78,101.875 m -3.58,-205.747 1.8,103.872 m -3.57,-199.75 1.77,95.878 m -3.22,-168.367 1.45,72.489 m -2.89,-132.977 1.44,60.488 m -3.23,-114.418 1.79,53.93 m -3.56,-85.32 1.77,31.39 m -2.51,-37.383 0.74,5.993 m -1.44,-7.707 0.7,1.714 m -1.4,0.86 0.7,-2.574 m -1.78,9.703 1.08,-7.129 m -2.51,37.949 1.43,-30.82 m -3.22,81.609 1.79,-50.789 m -3.58,118.711 1.79,-67.922 m -3.58,149.82 1.79,-81.898 m -3.23,168.066 1.44,-86.168 m -2.88,178.059 1.44,-91.891 m -3.21,186.34 1.77,-94.449 m -3.2,187.191 1.43,-92.742 m -3.22,186.91 1.79,-94.168 m -3.59,176.642 1.8,-82.474 m -3.58,145.814 1.78,-63.34 m -3.21,110.14 1.43,-46.8 m -3.23,74.77 1.8,-27.97 m -3.58,36.53 1.78,-8.56 m -3.21,-2 1.43,10.56 m -3.23,-40.24 1.8,29.68 m -3.23,-77.33 1.43,47.65 m -3.22,-111.29 1.79,63.64 m -3.58,-145.535 1.79,81.895 m -3.57,-174.633 1.78,92.738 m -3.2,-178.633 1.42,85.895 m -2.87,-173.496 1.45,87.601 m -3.24,-186.332 1.79,98.731 m -3.57,-190.617 1.78,91.886 m -3.21,-166.367 1.43,74.481 m -3.23,-136.118 1.8,61.637 m -3.23,-108.723 1.43,47.086 m -3.21,-75.91 1.78,28.824 m -2.5,-35.671 0.72,6.847 m -1.44,-9.125 0.72,2.278 m -1.79,-0.282 1.07,-1.996 m -1.79,8.278 0.72,-6.282 m -2.5,35.387 1.78,-29.105 m -3.22,77.89 1.44,-48.785"
         style="fill:none;stroke:#4d4d4d;stroke-width:6.55200005;stroke-linecap:round;stroke-linejoin:round;stroke-miterlimit:10;stroke-dasharray:none;stroke-opacity:1"
         id="path42"
         inkscape:connector-curvature="0" /><path
         d="m 2105.09,418.586 1.79,-65.637 m -3.58,144.977 1.79,-79.34 m -3.21,162.66 1.42,-83.32 m -3.21,172.07 1.79,-88.75 m -3.23,180.34 1.44,-91.59 m -3.23,181.481 1.79,-89.891 m -3.57,182.629 1.78,-92.738 m -3.57,174.343 1.79,-81.605 m -3.22,139.535 1.43,-57.93 m -2.86,102.17 1.43,-44.24 m -3.23,75.34 1.8,-31.1 m -3.59,40.8 1.79,-9.7 m -3.58,-1.42 1.79,11.12 m -3.21,-40.8 1.42,29.68 m -3.21,-77.34 1.79,47.66 m -3.59,-111.01 1.8,63.35 m -3.22,-134.689 1.42,71.339 m -2.85,-151.238 1.43,79.899 m -3.22,-173.207 1.79,93.308 m -3.58,-189.183 1.79,95.875 m -3.23,-188.34 1.44,92.465 m -3.23,-179.215 1.79,86.75 m -3.21,-162.078 1.42,75.328 m -3.22,-138.395 1.8,63.067 m -3.58,-115.293 1.78,52.226 m -3.57,-83.605 1.79,31.379 m -2.51,-37.946 0.72,6.567 m -1.44,-8.563 0.72,1.996 m -1.79,0.563 1.07,-2.559 m -1.78,9.989 0.71,-7.43 m -2.14,35.101 1.43,-27.671 m -3.22,72.191 1.79,-44.52 m -3.23,109.297 1.44,-64.777 m -3.22,144.394 1.78,-79.617 m -3.57,165.797 1.79,-86.18 m -3.23,178.348 1.44,-92.168 m -3.22,187.184 1.78,-95.016 m -3.57,187.762 1.79,-92.746 m -3.23,183.488 1.44,-90.742 m -3.22,170.645 1.78,-79.903 m -3.58,139.823 1.8,-59.92 m -3.23,105.58 1.43,-45.66 m -3.2,77.62 1.77,-31.96 m -3.57,42.52 1.8,-10.56 m -3.23,0.57 1.43,9.99 m -3.22,-39.09 1.79,29.1 m -3.22,-79.04 1.43,49.94 m -3.21,-117.29 1.78,67.35 m -3.58,-142.684 1.8,75.334 m -3.23,-160.08 1.43,84.746 m -3.22,-179.195 1.79,94.449 m -3.22,-191.477 1.43,97.028 m -3.22,-192.336 1.79,95.308 m -3.58,-184.628 1.79,89.32 m -3.23,-168.93 1.44,79.61 m -3.23,-145.817 1.79,66.207 m -3.56,-116.996 1.77,50.789 m -3.21,-81.89 1.44,31.101 m -2.17,-37.949 0.73,6.848 m -1.8,-9.422 1.07,2.574 m -1.78,-0.86 0.71,-1.714 m -1.43,7.707 0.72,-5.993 m -2.5,35.665 1.78,-29.672 m -3.57,81.039 1.79,-51.367 m -3.22,114.425 1.43,-63.058 m -2.86,139.539 1.43,-76.481 m -3.21,172.075 1.78,-95.594 m -3.58,198.613 1.8,-103.019 m -3.59,196.328 1.79,-93.309 m -3.22,184.621 1.43,-91.312 m -3.22,190.617 1.79,-99.305 m -3.58,186.905 1.79,-87.6 m -3.23,152.38 1.44,-64.78 m -3.22,113.86 1.78,-49.08 m -3.21,80.76 1.43,-31.68 m -3.21,42.52 1.78,-10.84 m -3.22,1.14 1.44,9.7 m -3.23,-38.24 1.79,28.54 m -3.58,-81.62 1.79,53.08 m -3.59,-125.84 1.8,72.76 m -3.21,-149.234 1.41,76.474 m -2.85,-162.935 1.44,86.461 m -3.24,-187.196 1.8,100.735 m -3.58,-204.602 1.78,103.867 m -3.21,-206.882 1.43,103.015 m -3.22,-199.461 1.79,96.446 m -3.58,-180.637 1.79,84.191 m -3.22,-154.097 1.43,69.906 m -3.23,-124.692 1.8,54.786 m -3.58,-88.18 1.78,33.394 m -2.5,-41.386 0.72,7.992 m -1.43,-10.844 0.71,2.852 m -1.78,-0.289 1.07,-2.563 m -1.79,10.563 0.72,-8 m -2.15,40.246 1.43,-32.246 m -3.22,85.316 1.79,-53.07 m -3.59,120.703 1.8,-67.633 m -3.22,149.531 1.42,-81.898 m -3.21,180.351 1.79,-98.453 m -3.57,204.883 1.78,-106.43 m -3.22,206.024 1.44,-99.594 m -2.88,197.754 1.44,-98.16 m -3.22,200.031 1.78,-101.871 m -3.57,192.622 1.79,-90.751 m -3.22,161.231 1.43,-70.48 m -3.22,124.7 1.79,-54.22 m -3.58,91.89 1.79,-37.67 m -3.58,49.65 1.79,-11.98 m -3.21,0.28 1.42,11.7 m -3.22,-44.23 1.8,32.53 m -3.23,-86.75 1.43,54.22 m -3.21,-126.99 1.78,72.77 m -3.58,-163.506 1.8,90.736 m -3.24,-193.186 1.44,102.45 m -2.5,-154.954 1.06,52.504 m -1.78,-106.437 0.72,53.933 m -1.44,-108.148 0.72,54.215 m -1.78,-108.727 1.06,54.512 m -2.49,-152.949 1.43,98.437 m -2.87,-191.468 1.44,93.031 m -3.22,-188.059 1.78,95.028 m -3.58,-173.215 1.8,78.187 m -3.59,-134.109 1.79,55.922 m -3.22,-89.594 1.43,33.672 m -2.15,-41.664 0.72,7.992 m -1.79,-10.559 1.07,2.567 m -1.78,0 0.71,-2.567 m -1.42,10.278 0.71,-7.711 m -2.51,41.664 1.8,-33.953 m -3.58,90.734 1.78,-56.781 m -3.22,130.121 1.44,-73.34 m -3.22,161.805 1.78,-88.465 m -2.5,139.82 0.72,-51.355 m -1.44,105.293 0.72,-53.938 m -1.79,109.867 1.07,-55.929 m -1.79,113.281 0.72,-57.352 m -2.5,162.93 1.78,-105.578 m -3.21,209.172 1.43,-103.594 m -2.15,159.805 0.72,-56.211 m -1.79,109.578 1.07,-53.367 m -1.79,103.592 0.72,-50.225 m -1.79,96.445 1.07,-46.22 m -2.5,115 1.43,-68.78 m -2.86,121.28 1.43,-52.5 m -3.23,91.88 1.8,-39.38 m -3.59,51.36 1.79,-11.98 m -3.23,0.86 1.44,11.12 m -3.22,-41.38 1.78,30.26 m -3.21,-84.47 1.43,54.21 m -3.22,-128.4 1.79,74.19 m -3.57,-168.077 1.78,93.887 m -3.22,-201.172 1.44,107.285 m -2.51,-164.363 1.07,57.078 m -1.79,-115.289 0.72,58.211 m -1.79,-116.989 1.07,58.778 m -1.78,-117.567 0.71,58.789 m -2.15,-161.527 1.44,102.738 m -2.88,-199.179 1.44,96.441 m -3.22,-194.035 1.78,97.594 m -3.56,-178.356 1.78,80.762 m -3.58,-138.969 1.8,58.207 m -3.23,-94.16 1.43,35.953 m -2.5,-45.078 1.07,9.125 m -1.78,-11.98 0.71,2.855 m -1.44,0.563 0.73,-3.418 m -1.8,13.109 1.07,-9.691 m -2.49,45.363 1.42,-35.672 m -3.22,92.465 1.8,-56.793 m -3.23,129.566 1.43,-72.773 m -3.21,160.371 1.78,-87.598 m -2.51,139.528 0.73,-51.93 m -1.44,106.726 0.71,-54.796 m -1.78,111.582 1.07,-56.786 m -1.79,114.993 0.72,-58.207 m -1.78,117.281 1.06,-59.074 m -1.79,118.14 0.73,-59.066 m -1.45,117.566 0.72,-58.5 m -1.78,115.567 1.06,-57.067 m -2.49,164.078 1.43,-107.011 m -3.23,201.182 1.8,-94.171 m -3.22,163.511 1.42,-69.34 m -3.21,122.7 1.79,-53.36 m -3.23,92.17 1.44,-38.81 m -3.23,51.93 1.79,-13.12"
         style="fill:none;stroke:#4d4d4d;stroke-width:6.55200005;stroke-linecap:round;stroke-linejoin:round;stroke-miterlimit:10;stroke-dasharray:none;stroke-opacity:1"
         id="path44"
         inkscape:connector-curvature="0" /><path
         d="M 10,151.164 V 1356.89"
         style="fill:none;stroke:#000000;stroke-width:15;stroke-linecap:round;stroke-linejoin:round;stroke-miterlimit:10;stroke-dasharray:none;stroke-opacity:1"
         id="path52"
         inkscape:connector-curvature="0" /><path
         d="M 10,717.25 H 1679.32"
         style="fill:none;stroke:#000000;stroke-width:15;stroke-linecap:round;stroke-linejoin:round;stroke-miterlimit:10;stroke-dasharray:none;stroke-opacity:1"
         id="path54"
         inkscape:connector-curvature="0" /><path
         d="m 700.277,823.355 1.809,-0.304 m -3.922,-1.508 2.113,1.812 m -6.332,-11.457 4.219,9.645 m -8.734,-27.434 4.515,17.789 m -12.961,-71.742 8.446,53.953 m -16.582,-113.339 8.136,59.386 m -16.277,-111.527 8.141,52.141 m -12.66,-72.036 4.519,19.895 m -9.047,-30.145 4.528,10.25 m -6.629,-11.757 2.101,1.507 m -3.918,-0.906 1.817,-0.601 m -3.918,3.316 2.101,-2.715 m -3.922,7.539 1.821,-4.824 m -6.34,22.305 4.519,-17.481 m -9.043,43.707 4.524,-26.226 m -12.66,90.429 8.136,-64.203 m -16.566,132.934 8.43,-68.731 m -16.266,118.77 7.836,-50.039 m -12.059,66.012 4.223,-15.973 m -8.441,21.699 4.218,-5.726 m -6.336,4.824 2.118,0.902 m -4.219,-4.519 2.101,3.617 m -4.222,-9.949 2.121,6.332 m -4.227,-15.071 2.106,8.739 m -10.547,-63.305 8.441,54.566 m -17.484,-137.758 9.043,83.192 m -17.184,-156.742 8.141,73.55 m -12.055,-101.582 3.914,28.032 m -8.133,-48.227 4.219,20.195 m -6.328,-27.128 2.109,6.933 m -4.222,-10.855 2.113,3.922 m -4.223,-4.524 2.11,0.602 m -4.215,1.507 2.105,-2.109 m -6.328,15.676 4.223,-13.567 m -8.441,37.684 4.218,-24.117 m -12.664,97.965 8.446,-73.848 M 529.664,770 538.406,676.555 M 521.824,844.148 529.664,770 m -12.059,102.789 4.219,-28.641 m -8.738,45.223 4.519,-16.582 m -6.625,19.594 2.106,-3.012 m -4.219,2.711 2.113,0.301 m -3.917,-3.922 1.804,3.621 m -3.918,-10.25 2.114,6.629 m -6.633,-30.746 4.519,24.117 m -8.738,-60.594 4.219,36.477 m -12.36,-125.996 8.141,89.519 m -16.582,-190.5 8.441,100.981 m -16.882,-180.86 8.441,79.879 m -12.363,-103.093 3.922,23.214 m -8.141,-32.254 4.219,9.04 m -8.743,-2.707 4.524,-6.333 m -8.738,28.934 4.214,-22.601 m -8.136,54.554 3.922,-31.953 m -7.84,73.254 3.918,-41.301 m -8.141,97.664 4.223,-56.363 m -8.735,117.559 4.512,-61.196 m -8.433,116.953 3.921,-55.757 m -8.14,107.308 4.219,-51.551 m -12.961,131.43 8.742,-79.879 m -10.856,89.223 2.114,-9.344 m -3.922,15.07 1.808,-5.726 m -3.918,7.836 2.11,-2.11 m -3.918,0.305 1.808,1.805 m -6.336,-19.891 4.528,18.086 m -9.043,-54.863 4.515,36.777 m -8.738,-83.801 4.223,47.024 m -8.141,-103.996 3.918,56.972 m -8.141,-122.679 4.223,65.707 m -8.734,-132.625 4.511,66.918 m -8.429,-126.305 3.918,59.387 m -7.836,-111.535 3.918,52.148 m -8.446,-96.453 4.528,44.305 m -9.047,-70.227 4.519,25.922 m -6.332,-31.051 1.813,5.129 m -3.922,-5.73 2.109,0.601 m -3.921,3.012 1.812,-3.613 m -3.613,11.148 1.801,-7.535 m -6.024,38.289 4.223,-30.754 m -8.746,78.98 4.523,-48.226 m -8.742,110.922 4.219,-62.696 m -8.438,135.039 4.219,-72.343 m -8.441,146.797 4.222,-74.454 m -8.441,147.704 4.219,-73.25 m -8.442,141.07 4.223,-67.82 m -8.442,122.082 4.219,-54.262 m -8.433,88.926 4.214,-34.664 m -8.433,49.739 4.219,-15.075 m -8.442,8.433 4.223,6.642 m -8.442,-35.876 4.219,29.234 m -8.14,-76.258 3.921,47.024 m -8.14,-109.723 4.219,62.699 m -8.438,-142.273 4.219,79.574 m -8.438,-166.09 4.219,86.516 m -8.141,-165.793 3.922,79.277 m -8.14,-153.73 4.218,74.453 m -8.441,-144.082 4.223,69.629 m -8.442,-120.57 4.219,50.941 m -6.328,-66.918 2.109,15.977 m -4.222,-26.828 2.113,10.851 m -4.219,-15.68 2.106,4.829 m -3.918,-3.918 1.812,-0.911 m -6.34,24.422 4.528,-23.511 m -9.043,74.75 4.515,-51.239 m -8.734,117.86 4.219,-66.621 m -8.442,148.308 4.223,-81.687 m -8.438,175.738 4.215,-94.051 m -8.437,191.106 4.222,-97.055 m -8.441,191.707 4.219,-94.652 m -8.442,176.644 4.223,-81.992 m -8.441,142.579 4.218,-60.587 m -8.437,98.257 4.219,-37.67 m -5.129,42.5 0.91,-4.83 m -1.809,8.45 0.899,-3.62 m -1.805,5.73 0.906,-2.11 m -2.113,2.41 1.207,-0.3 m -3.008,-3.02 1.801,3.32 m -3.613,-12.96 1.812,9.64 m -6.34,-53.95 4.528,44.31 m -9.047,-116.356 4.519,72.046 m -8.738,-163.378 4.219,91.332 m -8.438,-196.535 4.219,105.203 m -8.137,-208.59 3.918,103.387 m -8.14,-204.672 4.222,101.285 m -8.437,-201.957 4.215,100.672 m -8.438,-182.367 4.223,81.695 m -8.442,-135.949 4.219,54.254 m -8.441,-80.176 4.222,25.922 m -5.132,-27.731 0.91,1.809 m -2.114,-1.504 1.204,-0.305 m -2.106,3.008 0.902,-2.703 m -2.105,7.23 1.203,-4.527 m -3.312,20.504 2.109,-15.977 m -4.227,40.391 2.118,-24.414 m -6.332,88.617 4.214,-64.203 m -8.136,151.317 3.922,-87.114 m -6.028,144.082 2.106,-56.968 m -4.52,118.464 2.414,-61.496 m -4.519,125.699 2.105,-64.203 m -4.222,130.219 2.117,-66.016 m -6.032,179.356 3.915,-113.34 m -7.836,220.043 3.921,-106.703 m -8.437,214.319 4.516,-107.616 m -9.039,186.286 4.523,-78.67 m -8.438,116.65 3.915,-37.98 m -7.54,46.43 3.625,-8.45 m -7.835,-16.88 4.21,25.33 m -8.437,-86.22 4.227,60.89 m -6.34,-105.2 2.113,44.31 m -4.52,-96.46 2.407,52.15 m -4.524,-110.928 2.117,58.778 m -4.222,-123.282 2.105,64.504 m -4.222,-132.934 2.117,68.43 m -4.524,-139.863 2.407,71.433 m -4.516,-144.383 2.109,72.95 m -4.218,-145.899 2.109,72.949 m -3.914,-136.546 1.805,63.597 m -3.9223,-124.789 2.1173,61.192 m -3.922,-119.368 1.8047,58.176 m -3.9179,-111.828 2.1132,53.652 m -6.3281,-155.847 4.2149,102.195 m -8.7422,-168.5 4.5273,66.305 m -6.6328,-83.793 2.1055,17.488 m -4.2188,-24.723 2.1133,7.235 m -4.2227,-3.613 2.1094,-3.622 m -4.2148,18.082 2.1054,-14.46 m -6.3242,74.457 4.2188,-59.997 m -8.4414,158.559 4.2226,-98.562 m -6.3359,157.945 2.1133,-59.383 m -4.2188,125.398 2.1055,-66.015 m -4.2188,136.848 2.1133,-70.833 m -4.2226,145.887 2.1093,-75.054 m -3.9218,149.812 1.8125,-74.758 m -3.918,151.028 2.1055,-76.27 m -3.9141,151.926 1.8086,-75.656 m -3.9219,150.109 2.1133,-74.453 m -4.2266,151.614 2.1133,-77.161 m -4.2148,149.211 2.1015,-72.05 m -4.2187,138.06 2.1172,-66.01 m -4.5235,124.19 2.4063,-58.18 m -6.625,146.49 4.2187,-88.31 m -8.4414,132.63 4.2227,-44.32 m -5.4258,47.93 1.2031,-3.61 m -2.1054,3.92 0.9023,-0.31 m -2.1133,-2.41 1.211,2.72 m -2.1133,-8.45 0.9023,5.73 m -3.3164,-26.52 2.4141,20.79 m -4.5274,-53.34 2.1133,32.55 m -3.914,-71.45 1.8007,38.9 m -3.6132,-86.22 1.8125,47.32 m -3.9219,-102.78 2.1094,55.46 m -3.9219,-117.86 1.8125,62.4 m -3.9141,-141.676 2.1016,79.276 m -4.5156,-165.183 2.414,85.907 m -4.5273,-176.641 2.1133,90.734 M 10,717.25 l 2.1055,94.043"
         style="fill:none;stroke:#4d4d4d;stroke-width:10;stroke-linecap:round;stroke-linejoin:round;stroke-miterlimit:10;stroke-dasharray:none;stroke-opacity:1"
         id="path56"
         inkscape:connector-curvature="0" /><path
         d="m 1671.19,721.469 8.13,-4.219 m -12.35,6.027 4.22,-1.808 m -8.45,3.316 4.23,-1.508 m -8.75,2.411 4.52,-0.903 m -8.74,1.207 4.22,-0.304 m -8.14,-0.297 3.92,0.601 m -8.14,-1.512 4.22,0.911 m -12.36,-4.528 8.14,3.617 m -16.88,-9.042 8.74,5.425 m -17.17,-9.945 8.43,4.52 m -12.65,-6.329 4.22,1.809 m -8.44,-2.711 4.22,0.902 m -8.14,-1.504 3.92,0.602 m -8.14,-0.301 4.22,-0.301 m -8.44,1.204 4.22,-0.903 m -8.44,2.41 4.22,-1.507 m -12.97,6.629 8.75,-5.122 m -16.58,10.247 7.83,-5.125 m -16.58,10.25 8.75,-5.125 m -12.97,6.937 4.22,-1.812 m -8.44,2.414 4.22,-0.602 m -8.44,0.902 4.22,-0.3 m -8.14,-0.602 3.92,0.902 m -8.14,-2.41 4.22,1.508 m -8.12,-3.617 3.9,2.109 m -12.65,-8.14 8.75,6.031 m -17.49,-12.66 8.74,6.629 m -12.66,-9.344 3.92,2.715 m -7.84,-4.524 3.92,1.809 m -8.14,-3.317 4.22,1.508 m -8.14,-1.812 3.92,0.304 m -8.45,0 4.53,-0.304 m -9.05,2.117 4.52,-1.813 m -8.44,3.918 3.92,-2.105 m -7.84,4.816 3.92,-2.711 m -12.96,10.25 9.04,-7.539 m -17.18,14.473 8.14,-6.934 m -12.35,9.34 4.21,-2.406 m -8.43,4.215 4.22,-1.809 m -8.14,2.719 3.92,-0.91 m -7.83,0.91 h 3.91 m -8.13,-1.207 4.22,1.207 m -8.75,-3.621 4.53,2.414 m -8.45,-5.426 3.92,3.012 m -8.14,-6.934 4.22,3.922 m -12.66,-11.758 8.44,7.836 m -12.96,-12.054 4.52,4.218 m -9.05,-7.836 4.53,3.618 m -8.45,-6.032 3.92,2.414 m -8.14,-3.613 4.22,1.199 m -8.13,-1.504 3.91,0.305 m -8.13,0.602 4.22,-0.907 m -8.45,3.016 4.23,-2.109 m -8.45,5.425 4.22,-3.316 m -12.64,12.059 8.42,-8.743 m -16.87,17.786 8.45,-9.043 m -12.66,13.257 4.21,-4.214 m -8.74,7.535 4.53,-3.321 m -8.45,5.125 3.92,-1.804 m -7.84,2.711 3.92,-0.907 m -8.14,0.305 4.22,0.602 m -8.74,-2.711 4.52,2.109 m -8.74,-5.43 4.22,3.321 m -8.14,-7.535 3.92,4.214 m -12.67,-15.07 8.75,10.856 m -16.88,-20.504 8.13,9.648 m -12.36,-13.562 4.23,3.914 m -8.45,-6.625 4.22,2.711 m -8.44,-4.223 4.22,1.512 m -8.44,-1.512 h 4.22 m -8.44,1.809 4.22,-1.809 m -8.14,4.828 3.92,-3.019 m -8.42,7.836 4.5,-4.817 m -8.73,10.547 4.23,-5.73 m -12.07,16.585 7.84,-10.855 m -16.58,22.008 8.74,-11.153 m -12.96,15.067 4.22,-3.914 m -8.14,6.023 3.92,-2.109 m -8.44,2.715 4.52,-0.606 m -8.74,-0.902 4.22,1.508 m -8.14,-4.223 3.92,2.715 m -7.84,-6.93 3.92,4.215 m -12.96,-17.48 9.04,13.265 m -17.17,-26.527 8.13,13.262 m -12.65,-19.289 4.52,6.027 m -8.75,-10.856 4.23,4.829 m -8.14,-7.84 3.91,3.011 m -7.83,-4.218 3.92,1.207 m -8.45,-0.602 4.53,-0.605 m -9.05,3.613 4.52,-3.008 m -8.44,7.231 3.92,-4.223 m -7.53,9.953 3.61,-5.73 m -12.36,20.8 8.75,-15.07 m -17.19,30.145 8.44,-15.075 m -12.66,21.102 4.22,-6.027 m -8.45,10.246 4.23,-4.219 m -8.45,6.629 4.22,-2.41 m -8.43,2.41 h 4.21 m -8.42,-2.11 4.21,2.11 m -8.43,-6.629 4.22,4.519 m -8.44,-10.847 4.22,6.328 m -8.44,-14.168 4.22,7.84 m -12.36,-24.719 8.14,16.879 m -16.58,-33.156 8.44,16.277 m -12.66,-21.703 4.22,5.426 m -8.14,-8.746 3.92,3.32 m -8.14,-4.523 4.22,1.203 m -8.45,0.3 4.23,-1.503 m -8.44,5.117 4.21,-3.614 m -8.14,9.95 3.93,-6.336 m -13.28,25.328 9.35,-18.992 m -17.48,38.285 8.13,-19.293 m -12.35,28.031 4.22,-8.738 m -8.43,15.976 4.21,-7.238 m -6.33,10.25 2.12,-3.012 m -4.22,5.121 2.1,-2.109 m -4.22,3.316 2.12,-1.207 m -4.22,2.11 2.1,-0.903 m -6.32,0 4.22,0.903 m -8.44,-4.824 4.22,3.921 m -8.14,-9.953 3.92,6.032 m -7.84,-13.868 3.92,7.836 m -12.66,-30.437 8.74,22.601 m -17.19,-44.914 8.45,22.313 m -12.36,-30.746 3.91,8.433 m -8.14,-14.464 4.23,6.031 m -8.45,-9.949 4.22,3.918 m -8.44,-4.524 4.22,0.606 m -6.32,0.304 2.1,-0.91 m -4.22,2.715 2.12,-1.805 m -4.22,4.516 2.1,-2.711 m -4.22,6.031 2.12,-3.32 m -10.57,24.117 8.45,-20.797 m -16.59,44.91 8.14,-24.113 m -16.858,48.832 8.718,-24.719 m -12.64,32.555 3.922,-7.836 m -7.84,12.961 3.918,-5.125 m -8.446,7.535 4.528,-2.41 m -9.047,0.301 4.519,2.109 m -8.441,-7.535 3.922,5.426 m -7.535,-13.262 3.613,7.836 m -12.055,-32.855 8.442,25.019 m -17.188,-55.164 8.746,30.145 m -17.492,-54.864 8.746,24.719 m -12.66,-31.652 3.914,6.933 m -7.836,-10.847 3.922,3.914 m -8.141,-3.614 4.219,-0.3 m -8.722,4.824 4.503,-4.524 m -8.722,13.567 4.219,-9.043 m -8.446,21.398 4.227,-12.355 m -12.668,44.008 8.441,-31.653 m -16.879,63.301 8.438,-31.648 m -12.36,44.609 3.922,-12.961 m -7.836,22.609 3.914,-9.648 m -6.035,13.562 2.121,-3.914 m -4.222,6.629 2.101,-2.715 m -4.222,3.922 2.121,-1.207 m -4.524,1.512 2.403,-0.305 m -4.508,-0.906 2.105,1.211 m -4.222,-3.621 2.117,2.41 m -4.219,-6.324 2.102,3.914 m -4.219,-8.738 2.117,4.824 m -10.863,-34.367 8.746,29.543 m -16.281,-63.004 7.535,33.461 m -16.266,-69.028 8.731,35.567 m -12.95,-49.434 4.219,13.867 m -8.742,-22.91 4.523,9.043 m -8.441,-12.055 3.918,3.012 m -7.84,-1.508 3.922,-1.504 m -8.441,9.34 4.519,-7.836 m -9.047,21.704 4.528,-13.868 m -12.364,47.633 7.836,-33.765 m -16.273,77.167 8.437,-43.402 m -17.179,80.18 8.742,-36.778 m -12.656,47.926 3.914,-11.148 m -8.137,17.18 4.223,-6.032 m -6.032,6.938 1.809,-0.906 m -3.918,0.3 2.109,0.606 m -4.218,-2.715 2.109,2.109 m -4.223,-5.726 2.114,3.617 m -6.637,-16.277 4.523,12.66 m -8.746,-31.051 4.223,18.391 m -12.656,-63.602 8.433,45.211 m -16.875,-91.637 8.442,46.426 m -16.582,-81.086 8.14,34.66 m -10.25,-40.086 2.11,5.426 m -4.219,-9.344 2.109,3.918 m -4.219,-6.328 2.11,2.41 m -4.223,-3.015 2.113,0.605 m -4.222,0.606 2.109,-1.211 m -4.219,4.519 2.11,-3.308 m -4.524,8.734 2.414,-5.426 m -4.527,12.36 2.113,-6.934 m -9.949,44.008 7.836,-37.074 m -16.57,93.75 8.734,-56.676 m -16.875,106.406 8.141,-49.73 m -12.36,69.328 4.219,-19.598 m -8.441,33.16 4.222,-13.562 m -6.332,17.176 2.11,-3.614 m -4.219,5.727 2.109,-2.113"
         style="fill:none;stroke:#4d4d4d;stroke-width:10;stroke-linecap:round;stroke-linejoin:round;stroke-miterlimit:10;stroke-dasharray:none;stroke-opacity:1"
         id="path58"
         inkscape:connector-curvature="0" /><text
         xml:space="preserve"
         style="font-style:italic;font-variant:normal;font-weight:bold;font-stretch:normal;font-size:100px;line-height:1.25;font-family:'Times New Roman';-inkscape-font-specification:'Times New Roman, Bold Italic';font-variant-ligatures:normal;font-variant-caps:normal;font-variant-numeric:normal;font-feature-settings:normal;text-align:start;letter-spacing:0px;word-spacing:0px;writing-mode:lr-tb;text-anchor:start;fill:#000000;fill-opacity:1;stroke:none;stroke-width:7.5"
         x="566.92914"
         y="-113.38592"
         id="text37"
         transform="scale(1,-1)"><tspan
           sodipodi:role="line"
           id="tspan35"
           x="566.92914"
           y="-25.052128"
           style="stroke-width:7.5" /></text>
<text
         xml:space="preserve"
         style="font-style:normal;font-variant:normal;font-weight:normal;font-stretch:normal;font-size:140px;line-height:1.25;font-family:'Times New Roman';-inkscape-font-specification:'Times New Roman, Normal';font-variant-ligatures:normal;font-variant-caps:normal;font-variant-numeric:normal;font-feature-settings:normal;text-align:start;letter-spacing:0px;word-spacing:0px;writing-mode:lr-tb;text-anchor:start;fill:#000000;fill-opacity:1;stroke:none;stroke-width:7.5"
         x="801.43292"
         y="-37.267117"
         id="text41"
         transform="scale(1,-1)"><tspan
           sodipodi:role="line"
           id="tspan39"
           x="801.43292"
           y="-37.267117"
           style="font-style:normal;font-variant:normal;font-weight:normal;font-stretch:normal;font-size:140px;font-family:'Times New Roman';-inkscape-font-specification:'Times New Roman, Normal';font-variant-ligatures:normal;font-variant-caps:normal;font-variant-numeric:normal;font-feature-settings:normal;text-align:start;writing-mode:lr-tb;text-anchor:start;stroke-width:7.5">)</tspan></text>
<text
         xml:space="preserve"
         style="font-style:normal;font-variant:normal;font-weight:normal;font-stretch:normal;font-size:140px;line-height:1.25;font-family:'Times New Roman';-inkscape-font-specification:'Times New Roman, Normal';font-variant-ligatures:normal;font-variant-caps:normal;font-variant-numeric:normal;font-feature-settings:normal;text-align:start;letter-spacing:0px;word-spacing:0px;writing-mode:lr-tb;text-anchor:start;fill:#000000;fill-opacity:1;stroke:none;stroke-width:7.5"
         x="2790.3728"
         y="-41.925529"
         id="text45"
         transform="scale(1,-1)"><tspan
           sodipodi:role="line"
           id="tspan43"
           x="2790.3728"
           y="-41.925529"
           style="stroke-width:7.5">)</tspan></text>
<text
         xml:space="preserve"
         style="font-style:normal;font-variant:normal;font-weight:normal;font-stretch:normal;font-size:140px;line-height:1.25;font-family:'Times New Roman';-inkscape-font-specification:'Times New Roman, Normal';font-variant-ligatures:normal;font-variant-caps:normal;font-variant-numeric:normal;font-feature-settings:normal;text-align:start;letter-spacing:0px;word-spacing:0px;writing-mode:lr-tb;text-anchor:start;fill:#000000;fill-opacity:1;stroke:none;stroke-width:7.5"
         x="4877.3296"
         y="-41.925552"
         id="text49"
         transform="scale(1,-1)"><tspan
           sodipodi:role="line"
           id="tspan47"
           x="4877.3296"
           y="-41.925552"
           style="stroke-width:7.5">)</tspan></text>
</g></g></svg>