<?xml version="1.0" encoding="UTF-8" standalone="no"?>
<!-- Created with Inkscape (http://www.inkscape.org/) -->

<svg
   xmlns:dc="http://purl.org/dc/elements/1.1/"
   xmlns:cc="http://creativecommons.org/ns#"
   xmlns:rdf="http://www.w3.org/1999/02/22-rdf-syntax-ns#"
   xmlns:svg="http://www.w3.org/2000/svg"
   xmlns="http://www.w3.org/2000/svg"
   xmlns:sodipodi="http://sodipodi.sourceforge.net/DTD/sodipodi-0.dtd"
   xmlns:inkscape="http://www.inkscape.org/namespaces/inkscape"
   version="1.1"
   id="svg2"
   xml:space="preserve"
   width="303.15329"
   height="165.85733"
   viewBox="0 0 303.15329 165.85733"
   sodipodi:docname="6_1_mod.svg"
   inkscape:version="0.91 r13725"><metadata
     id="metadata8"><rdf:RDF><cc:Work
         rdf:about=""><dc:format>image/svg+xml</dc:format><dc:type
           rdf:resource="http://purl.org/dc/dcmitype/StillImage" /><dc:title></dc:title></cc:Work></rdf:RDF></metadata><defs
     id="defs6"><marker
       inkscape:stockid="Arrow1Mend"
       orient="auto"
       refY="0"
       refX="0"
       id="marker5998"
       style="overflow:visible"
       inkscape:isstock="true"><path
         inkscape:connector-curvature="0"
         id="path6000"
         d="M 0,0 5,-5 -12.5,0 5,5 0,0 Z"
         style="fill:#000000;fill-opacity:1;fill-rule:evenodd;stroke:#000000;stroke-width:1pt;stroke-opacity:1"
         transform="matrix(-0.4,0,0,-0.4,-4,0)" /></marker><marker
       inkscape:isstock="true"
       style="overflow:visible"
       id="marker5916"
       refX="0"
       refY="0"
       orient="auto"
       inkscape:stockid="Arrow1Mstart"><path
         inkscape:connector-curvature="0"
         transform="matrix(0.4,0,0,0.4,4,0)"
         style="fill:#000000;fill-opacity:1;fill-rule:evenodd;stroke:#000000;stroke-width:1pt;stroke-opacity:1"
         d="M 0,0 5,-5 -12.5,0 5,5 0,0 Z"
         id="path5918" /></marker><marker
       inkscape:isstock="true"
       style="overflow:visible"
       id="marker5734"
       refX="0"
       refY="0"
       orient="auto"
       inkscape:stockid="Arrow1Mend"
       inkscape:collect="always"><path
         transform="matrix(-0.4,0,0,-0.4,-4,0)"
         style="fill:#000000;fill-opacity:1;fill-rule:evenodd;stroke:#000000;stroke-width:1pt;stroke-opacity:1"
         d="M 0,0 5,-5 -12.5,0 5,5 0,0 Z"
         id="path5736"
         inkscape:connector-curvature="0" /></marker><marker
       inkscape:stockid="Arrow1Mend"
       orient="auto"
       refY="0"
       refX="0"
       id="marker5670"
       style="overflow:visible"
       inkscape:isstock="true"
       inkscape:collect="always"><path
         id="path5672"
         d="M 0,0 5,-5 -12.5,0 5,5 0,0 Z"
         style="fill:#000000;fill-opacity:1;fill-rule:evenodd;stroke:#000000;stroke-width:1pt;stroke-opacity:1"
         transform="matrix(-0.4,0,0,-0.4,-4,0)"
         inkscape:connector-curvature="0" /></marker><marker
       inkscape:isstock="true"
       style="overflow:visible"
       id="marker5640"
       refX="0"
       refY="0"
       orient="auto"
       inkscape:stockid="Arrow1Mend"><path
         transform="matrix(-0.4,0,0,-0.4,-4,0)"
         style="fill:#000000;fill-opacity:1;fill-rule:evenodd;stroke:#000000;stroke-width:1pt;stroke-opacity:1"
         d="M 0,0 5,-5 -12.5,0 5,5 0,0 Z"
         id="path5642"
         inkscape:connector-curvature="0" /></marker><marker
       inkscape:stockid="Arrow1Mend"
       orient="auto"
       refY="0"
       refX="0"
       id="marker4926"
       style="overflow:visible"
       inkscape:isstock="true"><path
         id="path4928"
         d="M 0,0 5,-5 -12.5,0 5,5 0,0 Z"
         style="fill:#000000;fill-opacity:1;fill-rule:evenodd;stroke:#000000;stroke-width:1pt;stroke-opacity:1"
         transform="matrix(-0.4,0,0,-0.4,-4,0)"
         inkscape:connector-curvature="0" /></marker><marker
       inkscape:stockid="Arrow1Mend"
       orient="auto"
       refY="0"
       refX="0"
       id="marker4690"
       style="overflow:visible"
       inkscape:isstock="true"
       inkscape:collect="always"><path
         id="path4692"
         d="M 0,0 5,-5 -12.5,0 5,5 0,0 Z"
         style="fill:#000000;fill-opacity:1;fill-rule:evenodd;stroke:#000000;stroke-width:1pt;stroke-opacity:1"
         transform="matrix(-0.4,0,0,-0.4,-4,0)"
         inkscape:connector-curvature="0" /></marker><marker
       inkscape:stockid="Arrow1Mstart"
       orient="auto"
       refY="0"
       refX="0"
       id="Arrow1Mstart"
       style="overflow:visible"
       inkscape:isstock="true"
       inkscape:collect="always"><path
         id="path4192"
         d="M 0,0 5,-5 -12.5,0 5,5 0,0 Z"
         style="fill:#000000;fill-opacity:1;fill-rule:evenodd;stroke:#000000;stroke-width:1pt;stroke-opacity:1"
         transform="matrix(0.4,0,0,0.4,4,0)"
         inkscape:connector-curvature="0" /></marker><marker
       inkscape:isstock="true"
       style="overflow:visible"
       id="marker4494"
       refX="0"
       refY="0"
       orient="auto"
       inkscape:stockid="Arrow1Lend"><path
         transform="matrix(-0.8,0,0,-0.8,-10,0)"
         style="fill:#000000;fill-opacity:1;fill-rule:evenodd;stroke:#000000;stroke-width:1pt;stroke-opacity:1"
         d="M 0,0 5,-5 -12.5,0 5,5 0,0 Z"
         id="path4496"
         inkscape:connector-curvature="0" /></marker><marker
       inkscape:stockid="Arrow1Lend"
       orient="auto"
       refY="0"
       refX="0"
       id="Arrow1Lend"
       style="overflow:visible"
       inkscape:isstock="true"
       inkscape:collect="always"><path
         id="path4189"
         d="M 0,0 5,-5 -12.5,0 5,5 0,0 Z"
         style="fill:#000000;fill-opacity:1;fill-rule:evenodd;stroke:#000000;stroke-width:1pt;stroke-opacity:1"
         transform="matrix(-0.8,0,0,-0.8,-10,0)"
         inkscape:connector-curvature="0" /></marker></defs><sodipodi:namedview
     pagecolor="#ffffff"
     bordercolor="#666666"
     borderopacity="1"
     objecttolerance="10"
     gridtolerance="10"
     guidetolerance="10"
     inkscape:pageopacity="0"
     inkscape:pageshadow="2"
     inkscape:window-width="1920"
     inkscape:window-height="1003"
     id="namedview4"
     showgrid="true"
     inkscape:zoom="4.5537677"
     inkscape:cx="162.22945"
     inkscape:cy="98.508579"
     inkscape:window-x="-9"
     inkscape:window-y="-9"
     inkscape:window-maximized="1"
     inkscape:current-layer="g12"
     inkscape:snap-grids="true"
     fit-margin-top="0"
     fit-margin-left="0"
     fit-margin-right="0"
     fit-margin-bottom="0"><inkscape:grid
       type="xygrid"
       id="grid33"
       units="mm"
       spacingx="3.023622"
       spacingy="3.023622"
       empspacing="5"
       originx="-22.331096"
       originy="-16.54826" /></sodipodi:namedview><g
     id="g10"
     inkscape:groupmode="layer"
     inkscape:label="5-eps-converted-to"
     transform="matrix(1.3333333,0,0,-1.3333333,-22.331096,182.40559)"><g
       id="g12"
       transform="scale(0.1,0.1)"><path
         d="m 2170.3316,1233.6681 1.42,11.7 m -3.2,-46.22 1.78,34.52 m -3.23,-89.88 1.45,55.36 m -3.23,-129.27 1.78,73.91 m -2.5,-120.71 0.72,46.8 m -1.78,-98.16603 1.06,51.36603 m -1.79,-105.86203 0.73,54.496 m -1.8,-111.57 1.07,57.074 m -1.76,-113.004 0.69,55.93 m -1.43,-113.004 0.74,57.074 m -1.81,-114.711 1.07,57.637 m -1.79,-115.278 0.72,57.641 m -1.43,-113.289 0.71,55.648 m -1.78,-110.152 1.07,54.504 m -1.79,-107.008 0.72,52.504 m -1.45,-102.727 0.73,50.223 m -2.51,-140.965 1.78,90.742 m -3.21,-166.082 1.43,75.34 m -3.2,-132.41 1.77,57.07 m -3.21,-92.457 1.44,35.387 m -2.52,-44.789 1.08,9.402 m -1.81,-12.257 0.73,2.855 m -1.78,1.129 1.05,-3.984 m -1.77,14.539 0.72,-10.555 m -2.16,44.23 1.44,-33.675 m -3.23,85.902 1.79,-52.227 m -3.22,132.696 1.43,-80.469 m -3.22,178.918 1.79,-98.449 m -2.85,148.664 1.06,-50.215 m -1.8,102.723 0.74,-52.508 m -1.44,106.445 0.7,-53.937 m -1.4,109.289 0.7,-55.352 m -1.8,112.43 1.1,-57.078 m -1.81,114.144 0.71,-57.066 m -1.42,113.57 0.71,-56.504 m -1.77,111.582 1.06,-55.078 m -2.5,153.238 1.44,-98.16 m -2.87,185.47603 1.43,-87.31603 m -3.23,166.93603 1.8,-79.62 m -3.59,138.68 1.79,-59.06 m -3.57,94.73 1.78,-35.67 m -3.58,46.23 1.8,-10.56 m -3.24,-1.99 1.44,12.55 m -2.86,-46.8 1.42,34.25 m -3.2,-89.03 1.78,54.78 m -3.22,-127.27 1.44,72.49 m -2.5,-119.57 1.06,47.08 m -1.79,-97.87003 0.73,50.79003 m -1.8,-105.00503 1.07,54.215 m -1.77,-111.293 0.7,57.078 m -2.5,-159.805 1.8,102.727 m -3.25,-207.164 1.45,104.437 m -2.15,-162.941 0.7,58.504 m -1.77,-115.571 1.07,57.067 m -1.8,-112.133 0.73,55.066 m -1.79,-107.293 1.06,52.227 m -2.5,-140.121 1.44,87.894 m -3.22,-160.086 1.78,72.192 m -3.22,-125.848 1.44,53.656 m -3.22,-86.183 1.78,32.527 m -2.5,-39.941 0.72,7.414 m -1.44,-9.696 0.72,2.282 m -1.8,0.285 1.08,-2.567 m -1.78,10.559 0.7,-7.992 m -2.14,41.664 1.44,-33.672 m -3.24,89.312 1.8,-55.64 m -3.57,129.258 1.77,-73.618 m -3.22,162.372 1.45,-88.754 m -3.22,186.632 1.77,-97.878 m -3.21,202.324 1.44,-104.446 m -2.51,163.508 1.07,-59.062 m -1.77,118.133 0.7,-59.071 m -1.8,117.282 1.1,-58.211 m -1.8,114.992 0.7,-56.781 m -2.5,152.953 1.8,-96.172 m -3.22,181.21403 1.42,-85.04203 m -3.2,153.52203 1.78,-68.48 m -3.23,120.12 1.45,-51.64 m -3.22,86.18 1.77,-34.54 m -3.58,45.38 1.81,-10.84 m -3.23,-1.72 1.42,12.56 m -3.21,-46.51 1.79,33.95 m -3.59,-88.46 1.8,54.51 m -3.23,-126.42 1.43,71.91 m -3.22,-162.65103 1.79,90.74103 m -3.57,-192.89703 1.78,102.156 m -3.21,-200.317 1.43,98.161 m -2.85,-198.04 1.42,99.879 m -3.23,-207.457 1.81,107.578 m -3.6,-207.453 1.79,99.875 m -3.57,-182.922 1.78,83.047 m -3.22,-151.527 1.44,68.48 m -3.22,-121.265 1.78,52.785 m -3.57,-83.887 1.79,31.102 m -2.5,-37.668 0.71,6.566 m -1.43,-8.285 0.72,1.719 m -1.44,1.711 0.72,-3.43 m -1.78,11.988 1.06,-8.558 m -2.5,41.66 1.44,-33.102 m -3.24,85.887 1.8,-52.785 m -3.22,122.98 1.42,-70.195 m -3.22,154.953 1.8,-84.758 m -3.57,179.782 1.77,-95.024 m -3.22,196.035 1.45,-101.011 m -3.23,207.746 1.78,-106.735 m -3.56,210.317 1.78,-103.582 m -3.22,188.34 1.44,-84.758 m -2.87,160.07903 1.43,-75.32103 m -3.23,147.80103 1.8,-72.48 m -3.58,125.57 1.78,-53.09 m -3.22,82.48 1.44,-29.39 m -3.22,39.37 1.78,-9.98 m -3.57,-1.72 1.79,11.7 m -3.58,-46.51 1.79,34.81 m -3.21,-83.04 1.42,48.23 m -2.86,-111.29 1.44,63.06 m -3.24,-150.67003 1.8,87.61003 m -3.58,-186.91503 1.78,99.305 m -3.57,-194.613 1.79,95.308 m -3.21,-192.039 1.42,96.731 m -3.23,-195.184 1.81,98.453 m -3.6,-189.765 1.79,91.312 m -3.21,-166.644 1.42,75.332 m -2.85,-138.113 1.43,62.781 m -3.22,-114.727 1.79,51.946 m -3.58,-82.18 1.79,30.234 m -2.51,-36.512 0.72,6.278 m -1.44,-7.992 0.72,1.714 m -1.79,0.86 1.07,-2.574 m -1.78,9.703 0.71,-7.129 m -2.14,37.66 1.43,-30.531 m -3.22,79.625 1.79,-49.094 m -3.59,115.859 1.8,-66.765 m -3.23,147.511 1.43,-80.746 m -3.2,169.496 1.77,-88.75 m -3.57,183.493 1.8,-94.743 m -3.23,195.188 1.43,-100.445 m -3.21,198.031 1.78,-97.586 m -3.57,184.34 1.79,-86.754 m -3.23,162.94103 1.44,-76.18703 m -3.24,140.39703 1.8,-64.21 m -3.58,111.57 1.78,-47.36 m -3.21,75.05 1.43,-27.69 m -3.22,36.82 1.79,-9.13 m -3.22,-1.43 1.43,10.56 m -3.22,-41.96 1.79,31.4 m -3.22,-77.04 1.43,45.64 m -3.21,-105.29 1.78,59.65 m -3.22,-138.97303 1.44,79.32303 m -3.24,-169.78403 1.8,90.461 m -3.58,-180.629 1.78,90.168 m -3.2,-182.625 1.42,92.457 m -3.22,-192.899 1.8,100.442 m -3.6,-193.754 1.8,93.312 m -3.59,-166.933 1.79,73.621 m -3.21,-134.406 1.42,60.785 m -3.21,-107.59 1.79,46.805 m -3.22,-75.047 1.43,28.242 m -2.5,-35.094 1.07,6.852 m -1.79,-8.563 0.72,1.711 m -1.79,1.715 1.07,-3.426 m -1.78,11.985 0.71,-8.559 m -2.49,39.66 1.78,-31.101 m -3.23,79.902 1.45,-48.801 m -2.89,107.86 1.44,-59.059 m -3.23,129.266 1.79,-70.207 m -3.57,160.945 1.78,-90.738 m -3.21,188.332 1.43,-97.594 m -3.2,193.473 1.77,-95.879 m -3.57,189.476 1.8,-93.597 m -3.24,174.351 1.44,-80.754 m -3.21,152.378 1.77,-71.624 m -3.22,136.68403 1.45,-65.06003 m -3.25,113.00003 1.8,-47.94 m -3.58,76.2 1.78,-28.26 m -3.21,37.67 1.43,-9.41 m -3.21,-1.15 1.78,10.56 m -3.57,-41.66 1.79,31.1 m -3.23,-76.19 1.44,45.09 m -2.87,-104.44003 1.43,59.35003 m -3.21,-140.11003 1.78,80.76 m -3.58,-172.928 1.8,92.168 m -3.24,-176.633 1.44,84.465 m -3.22,-170.922 1.78,86.457 m -3.56,-186.34 1.78,99.883 m -3.57,-192.613 1.79,92.73 m -3.22,-161.801 1.43,69.071 m -2.86,-127.278 1.43,58.207 m -3.21,-107.289 1.78,49.082 m -3.23,-80.183 1.45,31.101 m -2.52,-39.945 1.07,8.844 m -1.8,-11.985 0.73,3.141 m -1.78,-1.145 1.05,-1.996 m -1.77,9.125 0.72,-7.129 m -2.53,37.387 1.81,-30.258 m -3.23,79.617 1.42,-49.359 m -3.2,107.856 1.78,-58.497 m -3.21,128.125 1.43,-69.628 m -3.23,159.515 1.8,-89.887 m -3.59,186.625 1.79,-96.738"
         style="fill:#b3b3b3;stroke:#808080;stroke-width:7.03125;stroke-linecap:round;stroke-linejoin:round;stroke-miterlimit:10;stroke-dasharray:none;stroke-opacity:1"
         id="path32"
         inkscape:connector-curvature="0" /><rect
         style="opacity:1;fill:#ffffff;fill-opacity:1;fill-rule:nonzero;stroke:#ffffff;stroke-width:7.03125;stroke-linecap:butt;stroke-linejoin:miter;stroke-miterlimit:4;stroke-dasharray:none;stroke-dashoffset:0;stroke-opacity:1"
         id="rect6099"
         width="204.0945"
         height="128.20872"
         x="2018.2677"
         y="-1148.6813"
         transform="scale(1,-1)"
         rx="7.8455247e-07"
         ry="12.229012" /><path
         d="m 1886.2216,743.71607 1.43,-96.735 m -3.22,191.188 1.79,-94.453 m -3.58,183.199 1.79,-88.746 m -3.21,167.21903 1.42,-78.47303 m -3.21,141.25303 1.79,-62.78 m -3.22,109.87 1.43,-47.09 m -3.23,75.62 1.8,-28.53 m -3.23,39.66 1.43,-11.13 m -3.21,2.57 1.78,8.56 m -3.59,-37.67 1.81,29.11 m -3.23,-77.91 1.42,48.8 m -3.21,-115.28 1.79,66.48 m -3.58,-146.67403 1.79,80.19403 m -3.57,-171.21703 1.78,91.023 m -3.22,-177.488 1.44,86.465 m -2.86,-174.645 1.42,88.18 m -3.22,-185.762 1.8,97.582 m -3.22,-189.187 1.42,91.605 m -3.22,-176.64 1.8,85.035 m -3.58,-154.664 1.78,69.629 m -3.59,-114.43 1.81,44.801 m -3.22,-73.902 1.41,29.101 m -2.14,-38.808 0.73,9.707 m -1.8,-13.129 1.07,3.422 m -1.77,-0.848 0.7,-2.574 m -1.78,11.418 1.08,-8.844 m -2.52,37.09 1.44,-28.246 m -2.85,72.765 1.41,-44.519 m -3.21,111.004 1.8,-66.485 m -3.59,147.809 1.79,-81.324 m -3.58,174.351 1.79,-93.027 m -3.23,193.187 1.44,-100.16 m -3.22,196.328 1.78,-96.168 m -3.22,190.332 1.44,-94.164 m -3.24,184.047 1.8,-89.883 m -3.22,170.36303 1.42,-80.48003 m -3.2,153.53003 1.78,-73.05 m -3.56,127.26 1.78,-54.21 m -3.57,85.33 1.79,-31.12 m -3.24,41.67 1.45,-10.55 m -3.23,0 1.78,10.55 m -3.21,-41.09 1.43,30.54 m -3.22,-79.9 1.79,49.36 m -3.23,-115.57 1.44,66.21 m -3.23,-147.53803 1.79,81.32803 m -3.57,-173.50003 1.78,92.172 m -3.21,-198.031 1.43,105.859 m -3.22,-214.305 1.79,108.446 m -3.59,-201.176 1.8,92.73 m -3.21,-180.343 1.41,87.613 m -3.21,-177.785 1.8,90.172 m -3.58,-164.364 1.78,74.192 m -3.22,-125.27 1.44,51.078 m -3.24,-83.316 1.8,32.238 m -2.5,-40.804 0.7,8.566 m -1.43,-11.711 0.73,3.145 m -1.8,-0.86 1.07,-2.285 m -1.77,10.274 0.7,-7.989 m -2.15,37.383 1.45,-29.394 m -3.25,77.046 1.8,-47.652 m -3.21,118.711 1.41,-71.059 m -3.2,158.657 1.79,-87.598 m -3.58,187.191 1.79,-99.593 m -3.59,206.605 1.8,-107.012 m -3.23,209.161 1.43,-102.149 m -3.21,202.598 1.78,-100.449 m -3.2,195.761 1.42,-95.312 m -3.23,180.63903 1.81,-85.32703 m -3.59,164.08703 1.78,-78.76 m -3.56,136.4 1.78,-57.64 m -3.23,88.74 1.45,-31.1 m -2.87,42.8 1.42,-11.7 m -3.22,1.15 1.8,10.55 m -3.6,-45.66 1.8,35.11 m -3.55,-89.04 1.75,53.93 m -3.2,-126.12 1.45,72.19 m -3.25,-159.80403 1.8,87.61403 m -3.22,-186.92203 1.42,99.308 m -3.21,-198.891 1.79,99.583 m -3.23,-201.743 1.44,102.16 m -2.16,-157.519 0.72,55.359 m -1.78,-109.586 1.06,54.227 m -1.76,-106.719 0.7,52.492 m -1.44,-102.718 0.74,50.226 m -2.52,-140.402 1.78,90.176 m -3.57,-165.223 1.79,75.047 m -3.22,-130.981 1.43,55.934 m -3.23,-91.887 1.8,35.953 m -2.5,-46.504 0.7,10.551 m -1.79,-14.547 1.09,3.996 m -1.8,-1.148 0.71,-2.848 m -1.78,12.274 1.07,-9.426 m -2.5,43.664 1.43,-34.238 m -3.22,88.738 1.79,-54.5 m -3.24,125.27 1.45,-70.77 m -3.22,155.801 1.77,-85.031 m -2.5,136.41 0.73,-51.379 m -1.43,105.016 0.7,-53.637 m -1.77,109.57 1.07,-55.933 m -1.8,113.292 0.73,-57.359 m -1.44,112.996 0.71,-55.637 m -1.77,111.29 1.06,-55.653 m -1.78,110.719 0.72,-55.066 m -1.44,109.007 0.72,-53.941 m -2.49,156.379 1.77,-102.438 m -3.21,193.18803 1.44,-90.75003 m -3.25,169.22003 1.81,-78.47 m -3.59,136.39 1.78,-57.92 m -3.21,90.45 1.43,-32.53 m -3.21,44.23 1.78,-11.7 m -3.58,0.58 1.8,11.12 m -3.24,-47.08 1.44,35.96 m -3.22,-92.17 1.78,56.21 m -3.21,-130.98 1.43,74.77 m -3.22,-170.08003 1.79,95.31003 m -3.57,-203.46203 1.78,108.152 m -2.5,-160.942 0.72,52.79 m -1.44,-106.715 0.72,53.925 m -1.8,-108.425 1.08,54.5 m -1.78,-109.008 0.7,54.508 m -1.42,-110.723 0.72,56.215 m -1.45,-111.281 0.73,55.066 m -1.8,-108.437 1.07,53.371 m -1.77,-104.168 0.7,50.797 m -2.5,-143.532 1.8,92.735 m -3.25,-169.496 1.45,76.761 m -3.22,-134.121 1.77,57.36 m -3.56,-93.036 1.79,35.676 m -2.51,-45.078 0.72,9.402 m -1.42,-12.257 0.7,2.855 m -1.77,0.848 1.07,-3.703 m -1.79,13.691 0.72,-9.988 m -2.15,42.8 1.43,-32.812 m -3.23,83.891 1.8,-51.079 m -3.24,130.415 1.44,-79.336 m -3.22,176.921 1.78,-97.585 m -3.56,198.894 1.78,-101.309 m -3.21,209.454 1.43,-108.145 m -2.52,168.934 1.09,-60.789 m -1.81,121.558 0.72,-60.769 m -1.79,120.707 1.07,-59.938 m -1.78,118.711 0.71,-58.773 m -2.13,156.363 1.42,-97.59 m -3.21,184.91703 1.79,-87.32703 m -3.6,170.93703 1.81,-83.61 m -3.58,144.38 1.77,-60.77 m -3.21,93.88 1.44,-33.11 m -3.21,43.66 1.77,-10.55 m -3.22,-2.57 1.45,13.12 m -3.24,-50.21 1.79,37.09 m -3.21,-92.46 1.42,55.37 m -3.23,-128.13 1.81,72.76 m -2.5,-120.13 0.69,47.37 m -1.77,-98.73403 1.08,51.36403 m -1.8,-106.15703 0.72,54.793 m -1.44,-112.148 0.72,57.355 m -2.52,-161.797 1.8,104.442 m -3.23,-210.875 1.43,106.433 m -2.14,-163.789 0.71,57.356 m -1.77,-113.579 1.06,56.223 m -1.77,-110.723 0.71,54.5 m -1.44,-106.144 0.73,51.644 m -2.52,-146.386 1.79,94.742 m -3.58,-172.934 1.79,78.192 m -3.23,-135.254 1.44,57.062 m -3.21,-92.449 1.77,35.387 m -2.47,-44.512 0.7,9.125 m -1.79,-11.98 1.09,2.855 m -1.8,0.848 0.71,-3.703 m -1.43,13.691 0.72,-9.988 m -2.5,46.226 1.78,-36.238 m -3.57,93.598 1.79,-57.36 m -3.24,135.266 1.45,-77.906 m -3.23,172.07 1.78,-94.164 m -3.22,195.18 1.44,-101.016 m -3.21,208.887 1.77,-107.871 m -2.5,166.078 0.73,-58.207 m -1.81,116.703 1.08,-58.496 m -1.8,116.14 0.72,-57.644 m -1.44,113.855 0.72,-56.211 m -2.5,153.52 1.78,-97.309 m -3.2,184.05903 1.42,-86.75003 m -3.2,166.37003 1.78,-79.62 m -3.58,138.39 1.8,-58.77 m -3.24,93.02 1.44,-34.25 m -3.22,46.53 1.78,-12.28 m -3.21,-0.29 1.43,12.57 m -3.22,-51.95 1.79,39.38 m -3.58,-96.16 1.79,56.78 m -3.23,-131.26 1.44,74.48 m -3.23,-166.64703 1.79,92.16703 m -3.57,-196.03803 1.78,103.871 m -2.51,-159.805 0.73,55.934 m -1.43,-113.004 0.7,57.07 m -1.77,-114.707 1.07,57.637 m -1.79,-114.996 0.72,57.359 m -2.52,-165.223 1.8,107.864 m -3.23,-208.313 1.43,100.449 m -3.2,-182.339 1.77,81.89 m -3.21,-150.386 1.44,68.496"
         style="fill:#b3b3b3;stroke:#808080;stroke-width:7.03125;stroke-linecap:round;stroke-linejoin:round;stroke-miterlimit:10;stroke-dasharray:none;stroke-opacity:1"
         id="path34"
         inkscape:connector-curvature="0" /><path
         d="m 1605.3216,211.24307 1.81,58.778 m -3.58,-93.883 1.77,35.105 m -2.5,-42.801 0.73,7.696 m -1.43,-9.696 0.7,2 m -1.77,2.274 1.07,-4.274 m -1.8,14.547 0.73,-10.273 m -2.16,44.515 1.43,-34.242 m -3.2,87.032 1.77,-52.79 m -3.57,128.989 1.8,-76.199 m -3.22,168.082 1.42,-91.883 m -3.23,191.179 1.81,-99.296 m -3.24,205.168 1.43,-105.872 m -2.49,162.383 1.06,-56.511 m -1.78,113.011 0.72,-56.5 m -1.79,112.141 1.07,-55.641 m -1.8,109.852 0.73,-54.211 m -2.15,147.246 1.42,-93.035 m -3.22,175.78403 1.8,-82.74903 m -3.6,159.21903 1.8,-76.47 m -3.57,132.12 1.77,-55.65 m -3.2,84.47 1.43,-28.82 m -2.86,38.81 1.43,-9.99 m -3.24,-2.27 1.81,12.26 m -3.57,-50.51 1.76,38.25 m -3.21,-88.47 1.45,50.22 m -2.87,-115.29 1.42,65.07 m -3.2,-150.95303 1.78,85.88303 m -3.58,-183.18803 1.8,97.305 m -2.53,-150.676 0.73,53.371 m -1.44,-107.871 0.71,54.5 m -1.79,-109.863 1.08,55.363 m -1.78,-110.429 0.7,55.066 m -2.5,-162.078 1.8,107.012 m -3.57,-206.028 1.77,99.016 m -3.22,-176.641 1.45,77.625 m -2.87,-142.679 1.42,65.054 m -3.21,-120.422 1.79,55.368 m -3.6,-89.028 1.81,33.66 m -2.5,-41.371 0.69,7.711 m -1.77,-9.996 1.08,2.285 m -1.81,1.145 0.73,-3.43 m -1.43,12.27 0.7,-8.84 m -2.49,43.367 1.79,-34.527 m -3.57,89.316 1.78,-54.789 m -3.21,124.418 1.43,-69.629 m -3.23,153.25 1.8,-83.621 m -3.24,173.773 1.44,-90.152 m -3.22,186.043 1.78,-95.891 m -3.23,201.188 1.45,-105.297 m -3.22,208.313 1.77,-103.016 m -3.55,199.18 1.78,-96.164 m -3.23,180.33703 1.45,-84.17303 m -3.22,152.38303 1.77,-68.21 m -3.58,118.14 1.81,-49.93 m -3.23,76.76 1.42,-26.83 m -2.85,36.53 1.43,-9.7 m -3.24,-0.28 1.81,9.98 m -3.58,-41.67 1.77,31.69 m -3.55,-85.9 1.78,54.21 m -3.58,-127.55 1.8,73.34 m -3.22,-148.38503 1.42,75.04503 m -2.87,-158.66203 1.45,83.617 m -2.52,-136.403 1.07,52.786 m -1.78,-106.715 0.71,53.929 m -1.78,-108.429 1.07,54.5 m -1.79,-108.723 0.72,54.223 m -2.15,-143.543 1.43,89.32 m -3.23,-172.926 1.8,83.606 m -3.24,-166.071 1.44,82.465 m -3.2,-150.101 1.76,67.636 m -3.56,-117.867 1.8,50.231 m -3.59,-79.903 1.79,29.672 m -2.49,-36.234 0.7,6.562 m -1.43,-8.554 0.73,1.992 m -1.44,0.863 0.71,-2.855 m -1.43,10.55 0.72,-7.695 m -2.5,37.102 1.78,-29.407 m -3.23,76.766 1.45,-47.359 m -3.23,116.703 1.78,-69.344 m -3.57,154.094 1.79,-84.75 m -3.58,174.644 1.79,-89.894 m -3.59,185.765 1.8,-95.871 m -3.22,191.469 1.42,-95.598 m -3.22,188.336 1.8,-92.738 m -3.22,179.492 1.42,-86.754 m -3.21,163.23303 1.79,-76.47903 m -3.23,140.10903 1.44,-63.63 m -3.21,111.29 1.77,-47.66 m -3.57,78.47 1.8,-30.81 m -3.58,39.66 1.78,-8.85 m -3.22,-1.71 1.44,10.56 m -2.87,-37.67 1.43,27.11 m -3.23,-77.62 1.8,50.51 m -3.57,-119.27003 1.77,68.76003 m -3.21,-145.24503 1.44,76.485 m -3.25,-162.086 1.81,85.601 m -3.58,-179.199 1.77,93.598 m -3.2,-189.188 1.43,95.59 m -3.21,-183.484 1.78,87.894 m -3.22,-170.363 1.44,82.469 m -3.24,-162.946 1.8,80.477 m -3.58,-146.684 1.78,66.207 m -3.2,-114.715 1.42,48.508 m -3.23,-77.89 1.81,29.382 m -2.52,-35.949 0.71,6.567 m -1.77,-8.278 1.06,1.711 m -1.78,0.848 0.72,-2.559 m -1.44,9.707 0.72,-7.148 m -2.15,35.101 1.43,-27.953 m -3.21,73.055 1.78,-45.102 m -3.57,113 1.79,-67.898 m -3.59,150.656 1.8,-82.758 m -3.24,163.805 1.44,-81.047 m -3.21,166.942 1.77,-85.895 m -3.22,185.762 1.45,-99.867 m -3.22,196.886 1.77,-97.019 m -3.57,181.769 1.8,-84.75 m -3.24,159.233 1.44,-74.483 m -3.21,136.69303 1.77,-62.21003 m -3.57,108.15003 1.8,-45.94 m -3.23,73.05 1.43,-27.11 m -2.85,37.38 1.42,-10.27 m -3.22,1.71 1.8,8.56 m -3.58,-37.09 1.78,28.53 m -3.22,-74.76 1.44,46.23 m -3.24,-108.44003 1.8,62.21003 m -3.22,-135.82903 1.42,73.619 m -3.2,-157.229 1.78,83.61 m -3.58,-182.633 1.8,99.023 m -3.6,-200.89 1.8,101.867 m -3.21,-191.754 1.41,89.887 m -3.2,-174.067 1.79,84.18 m -3.21,-157.231 1.42,73.051 m -3.23,-134.121 1.81,61.07 m -3.6,-111.003 1.79,49.933 m -3.21,-80.465 1.42,30.532 m -2.5,-37.961 1.08,7.429 m -1.8,-9.707 0.72,2.278 m -1.44,0 0.72,-2.278 m -1.79,9.41 1.07,-7.132 m -2.49,35.957 1.42,-28.825 m -3.23,75.911 1.81,-47.086 m -3.58,113.007 1.77,-65.921 m -3.21,146.105 1.44,-80.184 m -3.24,162.079 1.8,-81.895 m -3.2,169.211 1.4,-87.316 m -3.21,186.336 1.81,-99.02 m -3.59,195.758 1.78,-96.738 m -3.21,182.921 1.43,-86.183 m -3.24,162.64403 1.81,-76.46103 m -3.57,142.67103 1.76,-66.21 m -3.21,115 1.45,-48.79 m -3.25,76.47 1.8,-27.68 m -3.23,37.39 1.43,-9.71 m -3.2,0.29 1.77,9.42 m -3.21,-38.53 1.44,29.11 m -3.22,-76.76 1.78,47.65 m -3.58,-111.85 1.8,64.2 m -3.24,-142.10803 1.44,77.90803 m -3.21,-166.36903 1.77,88.461 m -3.56,-186.91 1.79,98.449 m -3.23,-199.176 1.44,100.727 m -3.21,-187.196 1.77,86.469 m -3.21,-168.363 1.44,81.894 m -3.25,-166.636 1.81,84.742 m -3.58,-154.371 1.77,69.629 m -3.21,-117.578 1.44,47.949 m -3.21,-78.77 1.77,30.821 m -2.5,-39.946 0.73,9.125 m -1.44,-12.265 0.71,3.14 m -1.79,-0.566 1.08,-2.574 m -1.8,10.839 0.72,-8.265 m -2.5,36.523 1.78,-28.258 m -3.21,73.051 1.43,-44.793 m -3.22,114.707 1.79,-69.914 m -3.57,156.379 1.78,-86.465 m -3.23,174.922 1.45,-88.457 m -3.24,182.918 1.79,-94.461 m -3.57,195.758 1.78,-101.297 m -3.21,200.317 1.43,-99.02 m -3.22,186.055 1.79,-87.035 m -3.22,165.22003 1.43,-78.18503 m -3.23,150.38503 1.8,-72.2 m -3.57,125.84 1.77,-53.64 m -3.21,82.46 1.44,-28.82 m -2.88,39.96 1.44,-11.14 m -3.24,2.86 1.8,8.28 m -3.56,-38.24 1.76,29.96 m -3.21,-80.19 1.45,50.23 m -3.23,-118.71 1.78,68.48 m -3.56,-150.09303 1.78,81.61303 m -3.23,-174.07003 1.45,92.457 m -3.22,-196.047 1.77,103.59 m -3.57,-210.024 1.8,106.434 m -3.24,-206.028 1.44,99.594 m -3.21,-192.894 1.77,93.3 m -3.57,-178.054 1.8,84.754 m -3.24,-154.954 1.44,70.2 m -3.23,-120.711 1.79,50.511 m -3.21,-82.468 1.42,31.957"
         style="fill:none;stroke:#808080;stroke-width:7.03125;stroke-linecap:round;stroke-linejoin:round;stroke-miterlimit:10;stroke-dasharray:none;stroke-opacity:1"
         id="path36"
         inkscape:connector-curvature="0" /><path
         d="m 1305.4916,199.25907 1.07,9.129 m -1.78,-12.559 0.71,3.43 m -1.45,-1.145 0.74,-2.285 m -1.8,10.563 1.06,-8.278 m -2.5,37.949 1.44,-29.671 m -2.88,77.039 1.44,-47.368 m -3.2,118.145 1.76,-70.777 m -3.56,158.097 1.8,-87.32 m -3.23,180.344 1.43,-93.024 m -3.22,193.188 1.79,-100.164 m -2.5,157.23 0.71,-57.066 m -1.8,114.711 1.09,-57.645 m -1.79,114.422 0.7,-56.777 m -1.78,112.144 1.08,-55.367 m -2.51,149.817 1.43,-94.45 m -3.23,178.63703 1.8,-84.18703 m -3.22,156.37703 1.42,-72.19 m -3.21,126.13 1.79,-53.94 m -3.58,87.9 1.79,-33.96 m -3.58,44.51 1.79,-10.55 m -3.23,-1.71 1.44,12.26 m -3.22,-46.51 1.78,34.25 m -3.21,-84.48 1.43,50.23 m -2.86,-115.86 1.43,65.63 m -3.23,-157.51703 1.8,91.88703 m -3.58,-196.61403 1.78,104.727 m -2.49,-158.653 0.71,53.926 m -1.79,-109.004 1.08,55.078 m -1.8,-110.722 0.72,55.644 m -1.43,-111.285 0.71,55.641 m -2.49,-156.653 1.78,101.012 m -3.23,-195.758 1.45,94.746 m -3.23,-186.914 1.78,92.168 m -3.56,-168.363 1.78,76.195 m -3.23,-130.695 1.45,54.5 m -3.23,-88.738 1.78,34.238 m -2.5,-43.379 0.72,9.141 m -1.43,-12.274 0.71,3.133 m -1.79,0 1.08,-3.133 m -1.8,12.551 0.72,-9.418 m -2.49,41.946 1.77,-32.528 m -3.22,83.899 1.45,-51.371 m -3.22,130.125 1.77,-78.754 m -3.57,175.207 1.8,-96.453 m -3.22,189.769 1.42,-93.316 m -2.87,193.179 1.45,-99.863 m -2.51,160.367 1.06,-60.504 m -1.79,121 0.73,-60.496 m -1.8,120.426 1.07,-59.93 m -1.78,118.418 0.71,-58.488 m -2.15,151.809 1.44,-93.321 m -3.22,176.92203 1.78,-83.60103 m -3.22,160.94103 1.44,-77.34 m -3.21,136.12 1.77,-58.78 m -3.57,97.3 1.8,-38.52 m -3.23,52.23 1.43,-13.71 m -3.21,1.71 1.78,12 m -3.58,-48.52 1.8,36.52 m -3.23,-88.74 1.43,52.22 m -3.21,-120.42 1.78,68.2 m -3.23,-162.65703 1.45,94.45703 m -3.23,-202.31203 1.78,107.855 m -2.85,-163.504 1.07,55.649 m -1.78,-112.731 0.71,57.082 m -1.43,-114.714 0.72,57.632 m -1.8,-115.554 1.08,57.922 m -1.79,-115.286 0.71,57.364 m -1.42,-113.293 0.71,55.929 m -1.8,-110.152 1.09,54.223 m -1.8,-105.867 0.71,51.644 m -2.14,-142.105 1.43,90.461 m -3.22,-165.219 1.79,74.758 m -3.21,-129.543 1.42,54.785 m -3.22,-89.614 1.8,34.829 m -2.51,-45.098 0.71,10.269 m -1.79,-13.976 1.08,3.707 m -1.8,-1.43 0.72,-2.277 m -1.43,10.851 0.71,-8.574 m -2.5,44.813 1.79,-36.239 m -3.58,95.594 1.79,-59.355 m -3.57,138.39 1.78,-79.035 m -3.23,174.914 1.45,-95.879 m -2.86,191.77 1.41,-95.891 m -3.21,197.75 1.8,-101.859 m -2.52,160.367 0.72,-58.508 m -1.43,117.004 0.71,-58.496 m -1.77,116.703 1.06,-58.207 m -1.78,114.992 0.72,-56.785 m -1.8,114.141 1.08,-57.356 m -1.79,112.145 0.71,-54.789 m -1.43,106.15503 0.72,-51.36603 m -1.79,98.74603 1.07,-47.38 m -2.51,117 1.44,-69.62 m -2.87,122.98 1.43,-53.36 m -3.23,93.31 1.8,-39.95 m -3.57,51.93 1.77,-11.98 m -3.57,-0.29 1.8,12.27 m -3.22,-44.51 1.42,32.24 m -3.21,-90.16 1.79,57.92 m -3.23,-136.68 1.44,78.76 m -3.22,-174.35903 1.78,95.59903 m -3.57,-204.03603 1.79,108.437 m -2.51,-161.797 0.72,53.36 m -1.45,-108.157 0.73,54.797 m -1.79,-110.148 1.06,55.351 m -1.77,-110.422 0.71,55.071 m -1.44,-110.715 0.73,55.644 m -1.43,-109.871 0.7,54.227 m -1.78,-106.731 1.08,52.504 m -1.81,-102.722 0.73,50.218 m -2.5,-149.234 1.77,99.016 m -3.57,-180.067 1.8,81.051 m -3.22,-137.262 1.42,56.211 m -3.22,-90.168 1.8,33.957 m -2.5,-41.953 0.7,7.996 m -1.43,-10.273 0.73,2.277 m -1.8,1.149 1.07,-3.426 m -1.78,12.555 0.71,-9.129 m -2.14,44.511 1.43,-35.382 m -3.23,91.882 1.8,-56.5 m -3.58,132.411 1.78,-75.911 m -3.21,167.231 1.43,-91.32 m -2.51,145.242 1.08,-53.922 m -1.8,110.137 0.72,-56.215 m -1.41,114.722 0.69,-58.507 m -1.79,118.144 1.1,-59.637 m -2.53,164.079 1.43,-104.442 m -2.87,206.883 1.44,-102.441 m -2.5,158.937 1.06,-56.496 m -1.77,110.434 0.71,-53.938 m -1.79,104.43803 1.08,-50.50003 m -1.8,97.02003 0.72,-46.52 m -2.49,119.57 1.77,-73.05 m -3.21,127.84 1.44,-54.79 m -3.24,89.03 1.8,-34.24 m -3.57,45.38 1.77,-11.14 m -3.22,-0.57 1.45,11.71 m -2.88,-43.67 1.43,31.96 m -3.21,-89.6 1.78,57.64 m -3.58,-135.83 1.8,78.19 m -3.57,-172.63703 1.77,94.44703 m -3.21,-201.17403 1.44,106.727 m -3.24,-212.313 1.8,105.586 m -3.23,-213.445 1.43,107.859 m -3.21,-214.02 1.78,106.161 m -3.22,-205.746 1.44,99.585 m -3.24,-196.605 1.8,97.02 m -3.56,-175.778 1.76,78.758 m -3.56,-129.27 1.8,50.512 m -3.25,-81.898 1.45,31.386 m -2.15,-40.804 0.7,9.418 m -1.77,-11.985 1.07,2.567 m -1.78,1.14 0.71,-3.707 m -1.8,13.981 1.09,-10.274 m -2.5,46.227 1.41,-35.953 m -3.21,92.453 1.8,-56.5 m -3.24,131.27 1.44,-74.77 m -3.22,164.371 1.78,-89.601 m -3.21,183.769 1.43,-94.168 m -3.22,194.328 1.79,-100.16 m -2.5,155.801 0.71,-55.641 m -1.42,111.285 0.71,-55.644 m -1.81,110.433 1.1,-54.789 m -1.8,108.727 0.7,-53.938 m -2.5,153.524 1.8,-99.586 m -3.23,187.48103 1.43,-87.89503 m -3.21,159.23503 1.78,-71.34 m -3.23,124.98 1.45,-53.64 m -3.22,89.89 1.77,-36.25 m -3.57,46.8 1.8,-10.55 m -3.58,-2.86 1.78,13.41 m -3.21,-47.66 1.43,34.25 m -3.23,-86.47 1.8,52.22 m -3.21,-120.7 1.41,68.48 m -3.21,-158.36903 1.8,89.88903 m -3.6,-191.19003 1.8,101.301 m -3.22,-204.883 1.42,103.582 m -3.2,-209.168 1.78,105.586 m -3.22,-208.606 1.44,103.02 m -3.23,-198.613 1.79,95.593 m -3.59,-183.476 1.8,87.883 m -3.57,-159.508 1.77,71.625 m -3.21,-119.278 1.44,47.653 m -2.87,-77.336 1.43,29.683 m -2.51,-38.242 1.08,8.559 m -1.8,-10.844 0.72,2.285 m -1.78,1.145 1.06,-3.43 m -1.79,12.836 0.73,-9.406 m -2.16,42.804 1.43,-33.398 m -3.2,85.902 1.77,-52.504 m -3.57,125.84 1.8,-73.336 m -3.58,161.516 1.78,-88.18 m -3.22,179.485 1.44,-91.305 m -2.86,188.332 1.42,-97.027 m -3.23,199.75 1.81,-102.723 m -3.59,202.602 1.78,-99.879 m -3.21,193.187 1.43,-93.308 m -3.24,175.49103 1.81,-82.18303 m -3.57,149.81303 1.76,-67.63 m -3.2,117.57 1.44,-49.94"
         style="fill:none;stroke:#808080;stroke-width:7.03125;stroke-linecap:round;stroke-linejoin:round;stroke-miterlimit:10;stroke-dasharray:none;stroke-opacity:1"
         id="path38"
         inkscape:connector-curvature="0" /><path
         d="m 1033.9116,1171.1781 1.78,-31.1 m -3.58,39.67 1.8,-8.57 m -3.23,-2.57 1.43,11.14 m -2.86,-39.39 1.43,28.25 m -3.22,-81.04 1.79,52.79 m -3.59,-124.41 1.8,71.62 m -3.23,-150.66503 1.43,79.04503 m -3.21,-167.22003 1.78,88.175 m -3.57,-191.765 1.79,103.59 m -3.57,-209.457 1.78,105.867 m -3.22,-196.321 1.44,90.454 m -2.87,-175.2 1.43,84.746 m -3.22,-170.925 1.79,86.179 m -3.58,-156.09 1.79,69.911 m -3.58,-115.852 1.79,45.941 m -3.21,-73.914 1.42,27.973 m -2.15,-35.102 0.73,7.129 m -1.79,-8.843 1.06,1.714 m -1.79,1.708 0.73,-3.422 m -1.44,12.265 0.71,-8.843 m -2.5,39.097 1.79,-30.254 m -3.22,77.063 1.43,-46.809 m -3.21,116.715 1.78,-69.906 m -3.56996,154.945 1.78996,-85.039 m -3.23996,168.363 1.45,-83.324 m -3.22,171.492 1.77,-88.168 m -3.21,186.332 1.44,-98.164 m -3.23,194.039 1.79,-95.875 m -3.57,185.77 1.78,-89.895 m -3.21,169.22003 1.43,-79.32503 m -3.24,143.24503 1.81,-63.92 m -3.58,111.58 1.77,-47.66 m -3.21,77.62 1.44,-29.96 m -3.24,39.09 1.8,-9.13 m -3.57,-2.29 1.77,11.42 m -3.2,-41.96 1.43,30.54 m -3.22,-79.9 1.79,49.36 m -3.59,-114.98003 1.8,65.62003 m -3.24,-140.67503 1.44,75.055 m -2.86,-159.52 1.42,84.465 m -3.2,-180.344 1.78,95.879 m -3.59,-193.473 1.81,97.594 m -3.23,-184.918 1.42,87.324 m -3.21,-168.941 1.79,81.617 m -3.21,-161.797 1.42,80.18 m -3.21,-146.387 1.79,66.207 m -3.59,-112.136 1.8,45.929 m -3.24,-75.332 1.44,29.403 m -2.5,-37.68 1.06,8.277 m -1.77,-10.836 0.71,2.559 m -1.79,0.301 1.08,-2.86 m -1.8,11.699 0.72,-8.839 m -2.49,39.089 1.77,-30.25 m -3.21,77.043 1.44,-46.793 m -3.24,111 1.8,-64.207 m -3.23,141.54 1.43,-77.333 m -3.22,166.36 1.79,-89.027 m -3.58,184.05 1.79,-95.023 m -3.21,188.629 1.42,-93.606 m -3.21,184.918 1.79,-91.312 m -3.23,170.066 1.44,-78.754 m -3.23,149.239 1.79,-70.485 m -3.22,137.54503 1.43,-67.06003 m -3.22,116.43003 1.79,-49.37 m -3.56,77.9 1.77,-28.53 m -3.57,37.09 1.8,-8.56 m -3.25,-2 1.45,10.56 m -2.86,-37.95 1.41,27.39 m -3.21,-75.61 1.8,48.22 m -3.57,-113.00003 1.77,64.78003 m -3.22,-140.11603 1.45,75.336 m -3.25,-160.086 1.8,84.75 m -3.56,-180.059 1.76,95.309 m -3.56,-192.899 1.8,97.59 m -3.23,-184.336 1.43,86.746 m -2.87,-168.078 1.44,81.332 m -3.22,-162.941 1.78,81.609 m -3.58,-148.101 1.8,66.492 m -3.24,-109.293 1.44,42.801 m -3.22,-70.196 1.78,27.395 m -2.48,-36.234 0.7,8.839 m -1.79,-11.699 1.09,2.86 m -1.8,-0.301 0.71,-2.559 m -1.78,11.125 1.07,-8.566 m -2.5,35.676 1.43,-27.11 m -2.88,69.34 1.45,-42.23 m -3.22,104.164 1.77,-61.934 m -3.2,137.262 1.43,-75.328 m -3.23,164.925 1.8,-89.597 m -3.58,186.055 1.78,-96.458 m -3.58,194.903 1.8,-98.445 m -3.21,194.89 1.41,-96.445 m -3.21,176.633 1.8,-80.188 m -3.23,152.107 1.43,-71.919 m -3.22,140.39903 1.79,-68.48003 m -3.22,119.56003 1.43,-51.08 m -3.23,81.61 1.8,-30.53 m -3.58,41.09 1.78,-10.56 m -3.58,0.57 1.8,9.99 m -3.23,-40.81 1.43,30.82 m -3.2,-78.47 1.77,47.65 m -3.21,-111.28 1.44,63.63 m -3.24,-137.54703 1.8,73.91703 m -3.22,-157.24103 1.42,83.324 m -3.22,-180.058 1.8,96.734 m -3.58,-196.32 1.78,99.586 m -3.21,-198.04 1.43,98.454 m -3.23,-190.043 1.8,91.589 m -3.57,-172.355 1.77,80.766 m -3.58,-147.25 1.81,66.484 m -3.24,-111.004 1.43,44.52 m -2.86,-73.621 1.43,29.101 m -2.14,-38.242 0.71,9.141 m -1.79,-13.129 1.08,3.988 m -1.79,-2.274 0.71,-1.714 m -1.43,8.277 0.72,-6.563 m -2.49,37.95 1.77,-31.387 m -3.58,84.176 1.81,-52.789 m -3.24,113.289 1.43,-60.5 m -3.21,132.988 1.78,-72.488 m -3.57,170.64 1.79,-98.152 m -3.57,204.313 1.78,-106.161 m -3.22,198.043 1.44,-91.882 m -2.88,182.335 1.44,-90.453 m -3.23,185.192 1.79,-94.739 m -3.56,178.91503 1.77,-84.17603 m -3.21,154.09603 1.44,-69.92 m -3.22,122.13 1.78,-52.21 m -3.58,82.46 1.8,-30.25 m -3.24,41.67 1.44,-11.42 m -3.21,2.86 1.77,8.56 m -3.21,-37.09 1.44,28.53 m -3.24,-80.76 1.8,52.23 m -3.57,-124.14 1.77,71.91 m -3.58,-154.94503 1.81,83.03503 m -3.23,-176.91803 1.42,93.883 m -3.21,-192.617 1.79,98.734 m -3.22,-200.031 1.43,101.297 m -3.21,-200.606 1.78,99.309 m -3.22,-192.332 1.44,93.023 m -3.23,-176.93 1.79,83.907 m -3.22,-154.098 1.43,70.191 m -3.21,-125.832 1.78,55.641 m -3.58,-89.594 1.8,33.953 m -2.51,-41.097 0.71,7.144 m -1.44,-9.996 0.73,2.852 m -1.8,-0.856 1.07,-1.996 m -1.78,8.285 0.71,-6.289 m -2.51,38.817 1.8,-32.528 m -3.57,87.594 1.77,-55.066 m -3.21,123.836 1.44,-68.77 m -3.21,152.094 1.77,-83.324 m -3.21,179.781 1.44,-96.457 m -3.25,200.324 1.81,-103.867 m -3.23,204.316 1.42,-100.449 m -3.21,199.184 1.79,-98.735 m -3.23,201.172 1.44,-102.437 m -3.21,193.18803 1.77,-90.75103 m -3.56,165.51103 1.79,-74.76 m -3.59,130.41 1.8,-55.65 m -3.24,87.89 1.44,-32.24 m -3.21,43.94 1.77,-11.7 m -3.22,2.28 1.45,9.42 m -3.22,-39.67 1.77,30.25 m -3.58,-86.75 1.81,56.5 m -3.58,-134.68 1.77,78.18 m -3.2,-160.65703 1.43,82.47703 m -2.86,-174.63803 1.43,92.161 m -2.51,-147.817 1.08,55.656 m -1.81,-112.718 0.73,57.062 m -1.43,-114.988 0.7,57.926 m -1.78,-115.571 1.08,57.645 m -2.52,-163.512 1.44,105.867 m -3.22,-204.886 1.78,99.019 m -3.57,-187.476 1.79,88.457 m -3.22,-161.789 1.43,73.332 m -3.21,-125.559 1.78,52.227 m -3.21,-85.907 1.43,33.68 m -2.16,-43.953 0.73,10.273 m -1.8,-14.547 1.07,4.274 m -1.77,-2.274 0.7,-2 m -1.43,9.696 0.73,-7.696 m -2.52,39.946 1.79,-32.25 m -3.59,86.183 1.8,-53.933 m -3.22,125.273 1.42,-71.34 m -3.21,158.086 1.79,-86.746 m -2.51,139.824 0.72,-53.078 m -1.79,109.293 1.07,-56.215 m -1.78,114.43 0.71,-58.215 m -1.79,117.852 1.08,-59.637 m -1.8,114.418 0.72,-54.781 m -1.43,109.57 0.71,-54.789 m -1.42,109.008 0.71,-54.219 m -1.77,107.301 1.06,-53.082 m -2.51,151.246 1.45,-98.164 m -2.89,186.05503 1.44,-87.89103 m -3.22,167.22103 1.78,-79.33 m -3.57,138.39 1.79,-59.06 m -3.57,93.88 1.78,-34.82 m -3.22,47.1 1.44,-12.28"
         style="fill:none;stroke:#808080;stroke-width:7.03125;stroke-linecap:round;stroke-linejoin:round;stroke-miterlimit:10;stroke-dasharray:none;stroke-opacity:1"
         id="path40"
         inkscape:connector-curvature="0" /><path
         d="m 733.33164,1224.5481 1.79,11.42 m -3.22,-45.66 1.43,34.24 m -3.2,-93.04 1.77,58.8 m -3.57,-138.11 1.8,79.31 m -3.25,-166.06603 1.45,86.75603 m -3.21,-184.06403 1.76,97.308 m -2.5,-154.382 0.74,57.074 m -1.45,-115.571 0.71,58.497 m -1.79,-117.563 1.08,59.066 m -1.79,-118.14 0.71,59.074 m -1.77,-114.707 1.06,55.633 m -1.79,-110.149 0.73,54.516 m -1.45,-107.019 0.72,52.503 m -1.43,-102.726 0.71,50.223 m -2.49,-145.52 1.78,95.297 m -3.57,-173.492 1.79,78.195 m -3.22,-132.129 1.43,53.934 m -3.23,-87.614 1.8,33.68 m -2.52,-42.805 0.72,9.125 m -1.42,-12.257 0.7,3.132 m -1.8,-0.277 1.1,-2.855 m -1.8,11.691 0.7,-8.836 m -2.48,43.93 1.78,-35.094 m -3.21,92.453 1.43,-57.359 m -3.23,134.125 1.8,-76.766 m -3.23,169.512 1.43,-92.746 m -2.5,146.097 1.07,-53.351 m -1.78,109.004 0.71,-55.653 m -1.8,113.286 1.09,-57.633 m -1.8,116.707 0.71,-59.074 m -2.15,163.8 1.44,-104.726 m -2.85,207.168 1.41,-102.442 m -2.5,159.512 1.09,-57.07 m -1.8,111.574 0.71,-54.504 m -1.78,105.57803 1.07,-51.07403 m -1.78,98.45403 0.71,-47.38 m -2.51,121.57 1.8,-74.19 m -3.22,130.41 1.42,-56.22 m -3.21,94.45 1.79,-38.23 m -3.59,50.21 1.8,-11.98 m -3.23,0 1.43,11.98 m -3.22,-44.23 1.79,32.25 m -3.21,-93.6 1.42,61.35 m -3.22,-145.24 1.8,83.89 m -3.59,-174.91603 1.79,91.02603 m -3.22,-193.47503 1.43,102.449 m -2.49,-158.945 1.06,56.496 m -1.78,-114.145 0.72,57.649 m -1.45,-115.856 0.73,58.207 m -1.8,-116.418 1.07,58.211 m -2.5,-164.656 1.43,106.445 m -3.22,-206.312 1.79,99.867 m -3.22,-198.605 1.43,98.738 m -3.22,-178.918 1.79,80.18 m -3.56,-132.407 1.77,52.227 m -3.22,-85.336 1.45,33.109 m -2.16,-42.515 0.71,9.406 m -1.78,-13.109 1.07,3.703 m -1.8,-0.848 0.73,-2.855 m -1.43,11.398 0.7,-8.543 m -2.5,44.219 1.8,-35.676 m -3.6,93.613 1.8,-57.937 m -3.22,134.117 1.42,-76.18 m -3.21,168.352 1.79,-92.172 m -2.5,144.676 0.71,-52.504 m -1.77,107.574 1.06,-55.07 m -1.8,112.148 0.74,-57.078 m -1.44,115.57 0.7,-58.492 m -1.79,114.707 1.09,-56.215 m -1.79,112.43 0.7,-56.215 m -1.41,111.582 0.71,-55.367 m -1.44,109.297 0.73,-53.93 m -2.52,158.375 1.79,-104.445 m -3.59,196.03903 1.8,-91.59403 m -3.23,164.07403 1.43,-72.48 m -3.21,126.7 1.78,-54.22 m -3.21,89.89 1.43,-35.67 m -3.2,46.81 1.77,-11.14 m -3.57,-0.86 1.8,12 m -3.23,-43.95 1.43,31.95 m -3.22,-89.31 1.79,57.36 m -3.22,-135.27 1.43,77.91 m -3.23,-166.07903 1.8,88.16903 m -3.23,-187.47703 1.43,99.308 m -2.5,-157.801 1.07,58.493 m -1.8,-118.133 0.73,59.64 m -1.79,-120.129 1.06,60.489 m -1.76,-120.992 0.7,60.503 m -2.5,-166.375 1.8,105.872 m -3.23,-204.313 1.43,98.441 m -3.22,-188.05 1.79,89.609 m -3.59,-162.941 1.8,73.332 m -3.23,-128.684 1.43,55.352 m -3.21,-87.887 1.78,32.535 m -2.5,-39.68 0.72,7.145 m -1.8,-8.277 1.08,1.132 m -1.79,3.145 0.71,-4.277 m -1.41,14.261 0.7,-9.984 m -2.49,43.098 1.79,-33.114 m -3.23,84.192 1.44,-51.078 m -3.23,128.972 1.79,-77.894 m -3.59,172.636 1.8,-94.742 m -2.5,144.973 0.7,-50.231 m -1.43,102.723 0.73,-52.492 m -1.79,106.996 1.06,-54.504 m -1.77,109.586 0.71,-55.082 m -2.16,158.367 1.45,-103.285 m -3.24,203.734 1.79,-100.449 m -3.21,202.61 1.42,-102.161 m -3.21,191.76803 1.79,-89.60703 m -3.58,159.80703 1.79,-70.2 m -3.23,122.7 1.44,-52.5 m -3.22,85.6 1.78,-33.1 m -3.56,42.52 1.78,-9.42 m -3.21,-3.14 1.43,12.56 m -3.24,-44.51 1.81,31.95 m -3.23,-89.88 1.42,57.93 m -3.2,-136.12 1.78,78.19 m -3.58,-158.37603 1.8,80.18603 m -3.23,-169.78703 1.43,89.601 m -2.13,-145.254 0.7,55.653 m -1.79,-112.434 1.09,56.781 m -1.8,-114.129 0.71,57.348 m -1.8,-114.711 1.09,57.363 m -2.52,-151.246 1.43,93.883 m -2.86,-181.773 1.43,87.89 m -3.21,-174.07 1.78,86.18 m -3.21,-157.231 1.43,71.051 m -3.21,-126.137 1.78,55.086 m -3.58,-88.457 1.8,33.371 m -2.5,-41.371 0.7,8 m -1.79,-9.996 1.09,1.996 m -1.8,1.715 0.71,-3.711 m -1.8,13.418 1.09,-9.707 m -2.5,40.527 1.41,-30.82 m -2.85,78.473 1.44,-47.653 m -3.23,119.563 1.79,-71.91 m -3.58,159.519 1.79,-87.609 m -3.21,183.766 1.42,-96.157 m -3.22,198.883 1.8,-102.726 m -3.6,207.457 1.8,-104.731 m -3.57,206.313 1.77,-101.582 m -3.22,192.898 1.45,-91.316 m -3.23,171.79303 1.78,-80.47703 m -3.2,144.67703 1.42,-64.2 m -2.86,112.71 1.44,-48.51 m -3.23,81.05 1.79,-32.54 m -3.58,43.09 1.79,-10.55 m -3.57,-1.15 1.78,11.7 m -3.23,-45.37 1.45,33.67 m -3.24,-87.03 1.79,53.36 m -3.57,-124.14 1.78,70.78 m -3.21,-145.82403 1.43,75.04403 m -2.86,-158.08303 1.43,83.039 m -3.22,-182.621 1.79,99.582 m -3.57,-201.457 1.78,101.875 m -3.58,-205.747 1.8,103.872 m -3.57,-199.75 1.77,95.878 m -3.22,-168.367 1.45,72.489 m -2.89,-132.977 1.44,60.488 m -3.23,-114.418 1.79,53.93 m -3.56,-85.32 1.77,31.39 m -2.51,-37.383 0.74,5.993 m -1.44,-7.707 0.7,1.714 m -1.4,0.86 0.7,-2.574 m -1.78,9.703 1.08,-7.129 m -2.51,37.949 1.43,-30.82 m -3.22,81.609 1.79,-50.789 m -3.58,118.711 1.79,-67.922 m -3.58,149.82 1.79,-81.898 m -3.23,168.066 1.44,-86.168 m -2.88,178.059 1.44,-91.891 m -3.21,186.34 1.77,-94.449 m -3.2,187.191 1.43,-92.742 m -3.22,186.91 1.79,-94.168 m -3.59,176.64203 1.8,-82.47403 m -3.58,145.81403 1.78,-63.34 m -3.21,110.14 1.43,-46.8 m -3.23,74.77 1.8,-27.97 m -3.58,36.53 1.78,-8.56 m -3.21,-2 1.43,10.56 m -3.23,-40.24 1.8,29.68 m -3.23,-77.33 1.43,47.65 m -3.22,-111.29 1.79,63.64 m -3.58,-145.53503 1.79,81.89503 m -3.57,-174.63303 1.78,92.738 m -3.2,-178.633 1.42,85.895 m -2.87,-173.496 1.45,87.601 m -3.24,-186.332 1.79,98.731 m -3.57,-190.617 1.78,91.886 m -3.21,-166.367 1.43,74.481 m -3.23,-136.118 1.8,61.637 m -3.23,-108.723 1.43,47.086 m -3.21,-75.91 1.78,28.824 m -2.5,-35.671 0.72,6.847 m -1.44,-9.125 0.72,2.278 m -1.79,-0.282 1.07,-1.996 m -1.79,8.278 0.72,-6.282 m -2.5,35.387 1.78,-29.105 m -3.22,77.89 1.44,-48.785"
         style="fill:none;stroke:#808080;stroke-width:7.03125;stroke-linecap:round;stroke-linejoin:round;stroke-miterlimit:10;stroke-dasharray:none;stroke-opacity:1"
         id="path42"
         inkscape:connector-curvature="0" /><path
         d="m 456.02164,395.29407 1.79,-65.637 m -3.58,144.977 1.79,-79.34 m -3.21,162.66 1.42,-83.32 m -3.21,172.07 1.79,-88.75 m -3.23,180.34 1.44,-91.59 m -3.23,181.481 1.79,-89.891 m -3.57,182.629 1.78,-92.738 m -3.57,174.34303 1.79,-81.60503 m -3.22,139.53503 1.43,-57.93 m -2.86,102.17 1.43,-44.24 m -3.23,75.34 1.8,-31.1 m -3.59,40.8 1.79,-9.7 m -3.58,-1.42 1.79,11.12 m -3.21,-40.8 1.42,29.68 m -3.21,-77.34 1.79,47.66 m -3.59,-111.01003 1.8,63.35003 m -3.22,-134.68903 1.42,71.339 m -2.85,-151.238 1.43,79.899 m -3.22,-173.207 1.79,93.308 m -3.58,-189.183 1.79,95.875 m -3.23,-188.34 1.44,92.465 m -3.23,-179.215 1.79,86.75 m -3.21,-162.078 1.42,75.328 m -3.22,-138.395 1.8,63.067 m -3.58,-115.293 1.78,52.226 m -3.57,-83.605 1.79,31.379 m -2.51,-37.946 0.72,6.567 m -1.44,-8.563 0.72,1.996 m -1.79,0.563 1.07,-2.559 m -1.78,9.989 0.71,-7.43 m -2.14,35.101 1.43,-27.671 m -3.22,72.191 1.79,-44.52 m -3.23,109.297 1.44,-64.777 m -3.22,144.394 1.78,-79.617 m -3.57,165.797 1.79,-86.18 m -3.23,178.348 1.44,-92.168 m -3.22,187.184 1.78,-95.016 m -3.57,187.762 1.79,-92.746 m -3.23,183.488 1.44,-90.742 m -3.22,170.64503 1.78,-79.90303 m -3.58,139.82303 1.8,-59.92 m -3.23,105.58 1.43,-45.66 m -3.2,77.62 1.77,-31.96 m -3.57,42.52 1.8,-10.56 m -3.23,0.57 1.43,9.99 m -3.22,-39.09 1.79,29.1 m -3.22,-79.04 1.43,49.94 m -3.21,-117.29003 1.78,67.35003 m -3.58,-142.68403 1.8,75.334 m -3.23,-160.08 1.43,84.746 m -3.22,-179.195 1.79,94.449 m -3.22,-191.477 1.43,97.028 m -3.22,-192.336 1.79,95.308 m -3.58,-184.628 1.79,89.32 m -3.23,-168.93 1.44,79.61 m -3.23,-145.817 1.79,66.207 m -3.56,-116.996 1.77,50.789 m -3.21,-81.89 1.44,31.101 m -2.17,-37.949 0.73,6.848 m -1.8,-9.422 1.07,2.574 m -1.78,-0.86 0.71,-1.714 m -1.43,7.707 0.72,-5.993 m -2.5,35.665 1.78,-29.672 m -3.57,81.039 1.79,-51.367 m -3.22,114.425 1.43,-63.058 m -2.86,139.539 1.43,-76.481 m -3.21,172.075 1.78,-95.594 m -3.58,198.613 1.8,-103.019 m -3.59,196.328 1.79,-93.309 m -3.22,184.621 1.43,-91.312 m -3.22,190.617 1.79,-99.305 m -3.58,186.90503 1.79,-87.60003 m -3.23,152.38003 1.44,-64.78 m -3.22,113.86 1.78,-49.08 m -3.21,80.76 1.43,-31.68 m -3.21,42.52 1.78,-10.84 m -3.22,1.14 1.44,9.7 m -3.23,-38.24 1.79,28.54 m -3.58,-81.62 1.79,53.08 m -3.59,-125.84 1.8,72.76 m -3.21,-149.23403 1.41,76.47403 m -2.85,-162.93503 1.44,86.461 m -3.24,-187.196 1.8,100.735 m -3.58,-204.602 1.78,103.867 m -3.21,-206.882 1.43,103.015 m -3.22,-199.461 1.79,96.446 m -3.58,-180.637 1.79,84.191 m -3.22,-154.097 1.43,69.906 m -3.23,-124.692 1.8,54.786 m -3.58,-88.18 1.78,33.394 m -2.5,-41.386 0.72,7.992 m -1.43,-10.844 0.71,2.852 m -1.78,-0.289 1.07,-2.563 m -1.79,10.563 0.72,-8 m -2.15,40.246 1.43,-32.246 m -3.22,85.316 1.79,-53.07 m -3.59,120.703 1.8,-67.633 m -3.22,149.531 1.42,-81.898 m -3.21,180.351 1.79,-98.453 m -3.57,204.883 1.78,-106.43 m -3.22,206.024 1.44,-99.594 m -2.88,197.754 1.44,-98.16 m -3.22,200.031 1.78,-101.871 m -3.57,192.62203 1.79,-90.75103 m -3.22,161.23103 1.43,-70.48 m -3.22,124.7 1.79,-54.22 m -3.58,91.89 1.79,-37.67 m -3.58,49.65 1.79,-11.98 m -3.21,0.28 1.42,11.7 m -3.22,-44.23 1.8,32.53 m -3.23,-86.75 1.43,54.22 m -3.21,-126.99 1.78,72.77 m -3.58,-163.50603 1.8,90.73603 m -3.24,-193.18603 1.44,102.45 m -2.5,-154.954 1.06,52.504 m -1.78,-106.437 0.72,53.933 m -1.44,-108.148 0.72,54.215 m -1.78,-108.727 1.06,54.512 m -2.49,-152.949 1.43,98.437 m -2.87,-191.468 1.44,93.031 m -3.22,-188.059 1.78,95.028 m -3.58,-173.215 1.8,78.187 m -3.59,-134.109 1.79,55.922 m -3.22,-89.594 1.43,33.672 m -2.15,-41.664 0.72,7.992 m -1.79,-10.559 1.07,2.567 m -1.78,0 0.71,-2.567 m -1.42,10.278 0.71,-7.711 m -2.51,41.664 1.8,-33.953 m -3.58,90.734 1.78,-56.781 m -3.22,130.121 1.44,-73.34 m -3.22,161.805 1.78,-88.465 m -2.5,139.82 0.72,-51.355 m -1.44,105.293 0.72,-53.938 m -1.79,109.867 1.07,-55.929 m -1.79,113.281 0.72,-57.352 m -2.5,162.93 1.78,-105.578 m -3.21,209.172 1.43,-103.594 m -2.15,159.805 0.72,-56.211 m -1.79,109.578 1.07,-53.367 m -1.79,103.59203 0.72,-50.22503 m -1.79,96.44503 1.07,-46.22 m -2.5,115 1.43,-68.78 m -2.86,121.28 1.43,-52.5 m -3.23,91.88 1.8,-39.38 m -3.59,51.36 1.79,-11.98 m -3.23,0.86 1.44,11.12 m -3.22,-41.38 1.78,30.26 m -3.21,-84.47 1.43,54.21 m -3.22,-128.4 1.79,74.19 m -3.57,-168.07703 1.78,93.88703 m -3.22,-201.17203 1.44,107.285 m -2.51,-164.363 1.07,57.078 m -1.79,-115.289 0.72,58.211 m -1.79,-116.989 1.07,58.778 m -1.78,-117.567 0.71,58.789 m -2.15,-161.527 1.44,102.738 m -2.88,-199.179 1.44,96.441 m -3.22,-194.035 1.78,97.594 m -3.56,-178.356 1.78,80.762 m -3.58,-138.969 1.8,58.207 m -3.23,-94.16 1.43,35.953 m -2.5,-45.078 1.07,9.125 m -1.78,-11.98 0.71,2.855 m -1.44,0.563 0.73,-3.418 m -1.8,13.109 1.07,-9.691 m -2.49,45.363 1.42,-35.672 m -3.22,92.465 1.8,-56.793 m -3.23,129.566 1.43,-72.773 m -3.21,160.371 1.78,-87.598 m -2.51,139.528 0.73,-51.93 m -1.44,106.726 0.71,-54.796 m -1.78,111.582 1.07,-56.786 m -1.79,114.993 0.72,-58.207 m -1.78,117.281 1.06,-59.074 m -1.79,118.14 0.73,-59.066 m -1.45,117.566 0.72,-58.5 m -1.78,115.567 1.06,-57.067 m -2.49,164.078 1.43,-107.011 m -3.23,201.18203 1.8,-94.17103 m -3.22,163.51103 1.42,-69.34 m -3.21,122.7 1.79,-53.36 m -3.23,92.17 1.44,-38.81 m -3.23,51.93 1.79,-13.12"
         style="fill:none;stroke:#808080;stroke-width:7.03125;stroke-linecap:round;stroke-linejoin:round;stroke-miterlimit:10;stroke-dasharray:none;stroke-opacity:1"
         id="path44"
         inkscape:connector-curvature="0" /><path
         style="opacity:1;fill:#000000;fill-opacity:1;fill-rule:nonzero;stroke:#000000;stroke-width:4.6875;stroke-linecap:butt;stroke-linejoin:miter;stroke-miterlimit:4;stroke-dasharray:28.1250007, 9.37500023;stroke-dashoffset:0;stroke-opacity:1"
         d="m 2008.8861,1147.9506 -411.3278,0"
         id="path4914"
         inkscape:connector-curvature="0"
         sodipodi:nodetypes="cc" /><path
         inkscape:connector-curvature="0"
         id="path4924"
         d="m 2018.2029,1249.8493 -421.8091,0"
         style="opacity:1;fill:#000000;fill-opacity:1;fill-rule:nonzero;stroke:#000000;stroke-width:4.6875;stroke-linecap:butt;stroke-linejoin:miter;stroke-miterlimit:4;stroke-dasharray:28.1250007, 9.37500023;stroke-dashoffset:0;stroke-opacity:1"
         sodipodi:nodetypes="cc" /><path
         d="m 190.28988,695.4851 2079.15622,0"
         style="fill:none;stroke:#000000;stroke-width:4.6875;stroke-linecap:round;stroke-linejoin:round;stroke-miterlimit:10;stroke-dasharray:none;stroke-opacity:1;marker-end:url(#Arrow1Lend)"
         id="path30"
         inkscape:connector-curvature="0" /><path
         inkscape:connector-curvature="0"
         id="path4922"
         d="m 1677.1709,693.6754 0,543.6884"
         style="opacity:1;fill:#000000;fill-opacity:1;fill-rule:nonzero;stroke:#000000;stroke-width:7.03125;stroke-linecap:butt;stroke-linejoin:miter;stroke-miterlimit:4;stroke-dasharray:none;stroke-dashoffset:0;stroke-opacity:1;marker-end:url(#marker5734)" /><path
         style="opacity:1;fill:#000000;fill-opacity:1;fill-rule:nonzero;stroke:#000000;stroke-width:7.03125;stroke-linecap:butt;stroke-linejoin:miter;stroke-miterlimit:4;stroke-dasharray:none;stroke-dashoffset:0;stroke-opacity:1;marker-end:url(#marker5670)"
         d="m 1927.5591,697.16918 0,440.79262"
         id="path4770"
         inkscape:connector-curvature="0"
         sodipodi:nodetypes="cc" /><path
         d="m 190.9716,126.48907 0,1141.42903"
         style="fill:none;stroke:#000000;stroke-width:4.6875;stroke-linecap:round;stroke-linejoin:round;stroke-miterlimit:10;stroke-dasharray:none;stroke-opacity:1;marker-end:url(#marker4494)"
         id="path28"
         inkscape:connector-curvature="0"><path
           style="opacity:1;fill:#000000;fill-opacity:1;fill-rule:nonzero;stroke:#000000;stroke-width:4.6875;stroke-linecap:butt;stroke-linejoin:miter;stroke-miterlimit:4;stroke-dasharray:none;stroke-dashoffset:0;stroke-opacity:1;marker-start:url(#Arrow1Mstart);marker-end:url(#marker4690)"
           d="m 680.31497,1269.9213 498.89763,0"
           id="path4650"
           inkscape:connector-curvature="0" /></path><text
         xml:space="preserve"
         style="color:#000000;font-style:normal;font-variant:normal;font-weight:normal;font-stretch:normal;font-size:93.75px;line-height:125%;font-family:'Times New Roman';-inkscape-font-specification:'Times New Roman, ';text-indent:0;text-align:start;text-decoration:none;text-decoration-line:none;text-decoration-style:solid;text-decoration-color:#000000;letter-spacing:0px;word-spacing:0px;text-transform:none;direction:ltr;block-progression:tb;writing-mode:lr-tb;baseline-shift:baseline;text-anchor:start;white-space:normal;clip-rule:nonzero;display:inline;overflow:visible;visibility:visible;opacity:1;isolation:auto;mix-blend-mode:normal;color-interpolation:sRGB;color-interpolation-filters:linearRGB;solid-color:#000000;solid-opacity:1;fill:#000000;fill-opacity:1;fill-rule:nonzero;stroke:none;stroke-width:0.5;stroke-linecap:butt;stroke-linejoin:miter;stroke-miterlimit:4;stroke-dasharray:none;stroke-dashoffset:0;stroke-opacity:1;color-rendering:auto;image-rendering:auto;shape-rendering:auto;text-rendering:auto;enable-background:accumulate"
         x="219.16931"
         y="-1261.2192"
         id="text4564"
         sodipodi:linespacing="125%"
         transform="scale(1,-1)"><tspan
           sodipodi:role="line"
           id="tspan4566"
           x="219.16931"
           y="-1261.2192">$f(t)$</tspan></text>
<text
         transform="scale(1,-1)"
         sodipodi:linespacing="125%"
         id="text4568"
         y="-727.83411"
         x="2247.896"
         style="color:#000000;font-style:normal;font-variant:normal;font-weight:normal;font-stretch:normal;font-size:93.75px;line-height:125%;font-family:'Times New Roman';-inkscape-font-specification:'Times New Roman, ';text-indent:0;text-align:start;text-decoration:none;text-decoration-line:none;text-decoration-style:solid;text-decoration-color:#000000;letter-spacing:0px;word-spacing:0px;text-transform:none;direction:ltr;block-progression:tb;writing-mode:lr-tb;baseline-shift:baseline;text-anchor:start;white-space:normal;clip-rule:nonzero;display:inline;overflow:visible;visibility:visible;opacity:1;isolation:auto;mix-blend-mode:normal;color-interpolation:sRGB;color-interpolation-filters:linearRGB;solid-color:#000000;solid-opacity:1;fill:#000000;fill-opacity:1;fill-rule:nonzero;stroke:none;stroke-width:0.5;stroke-linecap:butt;stroke-linejoin:miter;stroke-miterlimit:4;stroke-dasharray:none;stroke-dashoffset:0;stroke-opacity:1;color-rendering:auto;image-rendering:auto;shape-rendering:auto;text-rendering:auto;enable-background:accumulate"
         xml:space="preserve"><tspan
           y="-727.83411"
           x="2247.896"
           id="tspan4570"
           sodipodi:role="line">$t$</tspan></text>
<text
         xml:space="preserve"
         style="color:#000000;font-style:normal;font-variant:normal;font-weight:normal;font-stretch:normal;font-size:93.75px;line-height:125%;font-family:'Times New Roman';-inkscape-font-specification:'Times New Roman, ';text-indent:0;text-align:start;text-decoration:none;text-decoration-line:none;text-decoration-style:solid;text-decoration-color:#000000;letter-spacing:0px;word-spacing:0px;text-transform:none;direction:ltr;block-progression:tb;writing-mode:lr-tb;baseline-shift:baseline;text-anchor:start;white-space:normal;clip-rule:nonzero;display:inline;overflow:visible;visibility:visible;opacity:1;isolation:auto;mix-blend-mode:normal;color-interpolation:sRGB;color-interpolation-filters:linearRGB;solid-color:#000000;solid-opacity:1;fill:#000000;fill-opacity:1;fill-rule:nonzero;stroke:none;stroke-width:0.5;stroke-linecap:butt;stroke-linejoin:miter;stroke-miterlimit:4;stroke-dasharray:none;stroke-dashoffset:0;stroke-opacity:1;color-rendering:auto;image-rendering:auto;shape-rendering:auto;text-rendering:auto;enable-background:accumulate"
         x="724.43976"
         y="-1300.7507"
         id="text4766"
         sodipodi:linespacing="125%"
         transform="scale(1,-1)"><tspan
           sodipodi:role="line"
           id="tspan4768"
           x="724.43976"
           y="-1300.7507">$2\pi/\Omega$</tspan></text>
<text
         xml:space="preserve"
         style="color:#000000;font-style:normal;font-variant:normal;font-weight:normal;font-stretch:normal;font-size:93.75px;line-height:125%;font-family:'Times New Roman';-inkscape-font-specification:'Times New Roman, ';text-indent:0;text-align:start;text-decoration:none;text-decoration-line:none;text-decoration-style:solid;text-decoration-color:#000000;letter-spacing:0px;word-spacing:0px;text-transform:none;direction:ltr;block-progression:tb;writing-mode:lr-tb;baseline-shift:baseline;text-anchor:start;white-space:normal;clip-rule:nonzero;display:inline;overflow:visible;visibility:visible;opacity:1;isolation:auto;mix-blend-mode:normal;color-interpolation:sRGB;color-interpolation-filters:linearRGB;solid-color:#000000;solid-opacity:1;fill:#000000;fill-opacity:1;fill-rule:nonzero;stroke:none;stroke-width:0.5;stroke-linecap:butt;stroke-linejoin:miter;stroke-miterlimit:4;stroke-dasharray:none;stroke-dashoffset:0;stroke-opacity:1;color-rendering:auto;image-rendering:auto;shape-rendering:auto;text-rendering:auto;enable-background:accumulate"
         x="2027.4447"
         y="-1054.9452"
         id="text5554"
         sodipodi:linespacing="125%"
         transform="scale(1,-1)"><tspan
           sodipodi:role="line"
           id="tspan5556"
           x="2027.4447"
           y="-1054.9452">$A_{\rm min}$</tspan></text>
<text
         transform="scale(1,-1)"
         sodipodi:linespacing="125%"
         id="text5558"
         y="-1264.9452"
         x="2027.4447"
         style="color:#000000;font-style:normal;font-variant:normal;font-weight:normal;font-stretch:normal;font-size:93.75px;line-height:125%;font-family:'Times New Roman';-inkscape-font-specification:'Times New Roman, ';text-indent:0;text-align:start;text-decoration:none;text-decoration-line:none;text-decoration-style:solid;text-decoration-color:#000000;letter-spacing:0px;word-spacing:0px;text-transform:none;direction:ltr;block-progression:tb;writing-mode:lr-tb;baseline-shift:baseline;text-anchor:start;white-space:normal;clip-rule:nonzero;display:inline;overflow:visible;visibility:visible;opacity:1;isolation:auto;mix-blend-mode:normal;color-interpolation:sRGB;color-interpolation-filters:linearRGB;solid-color:#000000;solid-opacity:1;fill:#000000;fill-opacity:1;fill-rule:nonzero;stroke:none;stroke-width:0.5;stroke-linecap:butt;stroke-linejoin:miter;stroke-miterlimit:4;stroke-dasharray:none;stroke-dashoffset:0;stroke-opacity:1;color-rendering:auto;image-rendering:auto;shape-rendering:auto;text-rendering:auto;enable-background:accumulate"
         xml:space="preserve"><tspan
           y="-1264.9452"
           x="2027.4447"
           id="tspan5560"
           sodipodi:role="line">$A_{\rm max}$</tspan></text>
<path
         style="opacity:1;fill:#000000;fill-opacity:1;fill-rule:nonzero;stroke:#000000;stroke-width:7.03125018;stroke-linecap:butt;stroke-linejoin:miter;stroke-miterlimit:4;stroke-dasharray:none;stroke-dashoffset:0;stroke-opacity:1;marker-start:url(#marker5916);marker-end:url(#marker5998)"
         d="m 680.31496,1269.9213 498.41874,0"
         id="path5908"
         inkscape:connector-curvature="0" /></g></g></svg>