<?xml version="1.0" encoding="UTF-8" standalone="no"?>
<!-- Created with Inkscape (http://www.inkscape.org/) -->

<svg
   xmlns:dc="http://purl.org/dc/elements/1.1/"
   xmlns:cc="http://creativecommons.org/ns#"
   xmlns:rdf="http://www.w3.org/1999/02/22-rdf-syntax-ns#"
   xmlns:svg="http://www.w3.org/2000/svg"
   xmlns="http://www.w3.org/2000/svg"
   xmlns:sodipodi="http://sodipodi.sourceforge.net/DTD/sodipodi-0.dtd"
   xmlns:inkscape="http://www.inkscape.org/namespaces/inkscape"
   sodipodi:docname="6_2_4.svg"
   inkscape:version="0.91 r13725"
   id="svg6468"
   version="1.1"
   viewBox="0 0 59.073558 27.976107"
   height="2.7976108cm"
   width="5.9073558cm">
  <sodipodi:namedview
     inkscape:snap-text-baseline="true"
     inkscape:window-maximized="1"
     inkscape:window-y="-9"
     inkscape:window-x="-9"
     inkscape:window-height="1003"
     inkscape:window-width="1920"
     units="cm"
     showgrid="true"
     inkscape:current-layer="layer1"
     inkscape:document-units="mm"
     inkscape:cy="59.056777"
     inkscape:cx="47.128703"
     inkscape:zoom="4.3"
     inkscape:pageshadow="2"
     inkscape:pageopacity="0.0"
     borderopacity="1.0"
     bordercolor="#666666"
     pagecolor="#ffffff"
     id="base"
     fit-margin-top="0"
     fit-margin-left="0"
     fit-margin-right="0"
     fit-margin-bottom="0">
    <inkscape:grid
       spacingy="0.99999999"
       spacingx="0.99999999"
       units="mm"
       id="grid7013"
       type="xygrid"
       originx="-3.1116209"
       originy="-0.54493806" />
  </sodipodi:namedview>
  <defs
     id="defs6462">
    <marker
       inkscape:isstock="true"
       style="overflow:visible"
       id="marker9497"
       refX="0"
       refY="0"
       orient="auto"
       inkscape:stockid="TriangleOutM">
      <path
         transform="scale(0.4,0.4)"
         style="fill:#000000;fill-opacity:1;fill-rule:evenodd;stroke:#000000;stroke-width:1pt;stroke-opacity:1"
         d="m 5.77,0 -8.65,5 0,-10 8.65,5 z"
         id="path9495"
         inkscape:connector-curvature="0" />
    </marker>
    <marker
       inkscape:isstock="true"
       style="overflow:visible"
       id="TriangleOutS"
       refX="0"
       refY="0"
       orient="auto"
       inkscape:stockid="TriangleOutS">
      <path
         transform="scale(0.2,0.2)"
         style="fill:#000000;fill-opacity:1;fill-rule:evenodd;stroke:#000000;stroke-width:1pt;stroke-opacity:1"
         d="m 5.77,0 -8.65,5 0,-10 8.65,5 z"
         id="path4241"
         inkscape:connector-curvature="0" />
    </marker>
    <marker
       inkscape:isstock="true"
       style="overflow:visible"
       id="TriangleOutM"
       refX="0"
       refY="0"
       orient="auto"
       inkscape:stockid="TriangleOutM">
      <path
         transform="scale(0.4,0.4)"
         style="fill:#000000;fill-opacity:1;fill-rule:evenodd;stroke:#000000;stroke-width:1pt;stroke-opacity:1"
         d="m 5.77,0 -8.65,5 0,-10 8.65,5 z"
         id="path4238"
         inkscape:connector-curvature="0" />
    </marker>
    <marker
       inkscape:isstock="true"
       style="overflow:visible"
       id="Arrow1Mend"
       refX="0"
       refY="0"
       orient="auto"
       inkscape:stockid="Arrow1Mend">
      <path
         inkscape:connector-curvature="0"
         transform="matrix(-0.4,0,0,-0.4,-4,0)"
         style="fill:#000000;fill-opacity:1;fill-rule:evenodd;stroke:#000000;stroke-width:1pt;stroke-opacity:1"
         d="M 0,0 5,-5 -12.5,0 5,5 Z"
         id="path4102" />
    </marker>
    <marker
       inkscape:isstock="true"
       style="overflow:visible"
       id="Arrow1Mend-5"
       refX="0"
       refY="0"
       orient="auto"
       inkscape:stockid="Arrow1Mend">
      <path
         inkscape:connector-curvature="0"
         transform="matrix(-0.4,0,0,-0.4,-4,0)"
         style="fill:#000000;fill-opacity:1;fill-rule:evenodd;stroke:#000000;stroke-width:1pt;stroke-opacity:1"
         d="M 0,0 5,-5 -12.5,0 5,5 Z"
         id="path4102-5" />
    </marker>
    <marker
       inkscape:isstock="true"
       style="overflow:visible"
       id="marker9497-7"
       refX="0"
       refY="0"
       orient="auto"
       inkscape:stockid="TriangleOutM">
      <path
         transform="scale(0.4,0.4)"
         style="fill:#000000;fill-opacity:1;fill-rule:evenodd;stroke:#000000;stroke-width:1pt;stroke-opacity:1"
         d="m 5.77,0 -8.65,5 0,-10 z"
         id="path9495-3"
         inkscape:connector-curvature="0" />
    </marker>
    <marker
       inkscape:isstock="true"
       style="overflow:visible"
       id="marker9497-6"
       refX="0"
       refY="0"
       orient="auto"
       inkscape:stockid="TriangleOutM">
      <path
         transform="scale(0.4,0.4)"
         style="fill:#000000;fill-opacity:1;fill-rule:evenodd;stroke:#000000;stroke-width:1pt;stroke-opacity:1"
         d="m 5.77,0 -8.65,5 0,-10 z"
         id="path9495-5"
         inkscape:connector-curvature="0" />
    </marker>
  </defs>
  <metadata
     id="metadata6465">
    <rdf:RDF>
      <cc:Work
         rdf:about="">
        <dc:format>image/svg+xml</dc:format>
        <dc:type
           rdf:resource="http://purl.org/dc/dcmitype/StillImage" />
        <dc:title></dc:title>
      </cc:Work>
    </rdf:RDF>
  </metadata>
  <g
     transform="translate(-3.1116208,-268.47897)"
     id="layer1"
     inkscape:groupmode="layer"
     inkscape:label="Layer 1">
    <path
       inkscape:connector-curvature="0"
       id="path4091"
       d="m 9.9999981,289.99826 47.0000009,0"
       style="fill:none;stroke:#000000;stroke-width:0.17638887;stroke-linecap:round;stroke-linejoin:miter;stroke-miterlimit:4;stroke-dasharray:none;stroke-opacity:1;marker-end:url(#Arrow1Mend)" />
    <path
       inkscape:connector-curvature="0"
       id="path4091-5"
       d="m 9.9999998,289.99826 0,-21"
       style="fill:none;stroke:#000000;stroke-width:0.17638887;stroke-linecap:round;stroke-linejoin:miter;stroke-miterlimit:4;stroke-dasharray:none;stroke-opacity:1;marker-end:url(#Arrow1Mend-5)" />
    <path
       inkscape:connector-curvature="0"
       id="path9111"
       d="m 12,289.995 0,-16.39203"
       style="fill:none;stroke:#000000;stroke-width:0.26458332px;stroke-linecap:round;stroke-linejoin:miter;stroke-opacity:1" />
    <path
       inkscape:connector-curvature="0"
       id="path9111-4"
       d="m 14,290.00002 0,-14.80341"
       style="fill:none;stroke:#000000;stroke-width:0.26458332px;stroke-linecap:round;stroke-linejoin:miter;stroke-opacity:1" />
    <path
       inkscape:connector-curvature="0"
       id="path9111-9"
       d="M 16,289.99717 16,277.8997"
       style="fill:none;stroke:#000000;stroke-width:0.26458332px;stroke-linecap:round;stroke-linejoin:miter;stroke-opacity:1" />
    <path
       inkscape:connector-curvature="0"
       id="path9111-6"
       d="m 18,289.99826 0,-9"
       style="fill:none;stroke:#000000;stroke-width:0.26458332px;stroke-linecap:round;stroke-linejoin:miter;stroke-opacity:1" />
    <path
       inkscape:connector-curvature="0"
       id="path9111-7"
       d="m 20,290.00706 0,-5.61615"
       style="fill:none;stroke:#000000;stroke-width:0.26458332px;stroke-linecap:round;stroke-linejoin:miter;stroke-opacity:1" />
    <path
       inkscape:connector-curvature="0"
       id="path9111-91"
       d="m 22,289.98118 0,-2.26563"
       style="fill:none;stroke:#000000;stroke-width:0.26458329px;stroke-linecap:round;stroke-linejoin:miter;stroke-opacity:1" />
    <path
       inkscape:connector-curvature="0"
       id="path9111-91-7"
       d="m 25,290.00002 0,-1.40481"
       style="fill:none;stroke:#000000;stroke-width:0.26458329px;stroke-linecap:round;stroke-linejoin:miter;stroke-opacity:1" />
    <path
       inkscape:connector-curvature="0"
       id="path9111-91-5"
       d="m 27,289.71544 0,-2.71542"
       style="fill:none;stroke:#000000;stroke-width:0.26458329px;stroke-linecap:round;stroke-linejoin:miter;stroke-opacity:1" />
    <path
       inkscape:connector-curvature="0"
       id="path9111-91-6"
       d="m 29,290.00002 0,-3.27587"
       style="fill:none;stroke:#000000;stroke-width:0.26458329px;stroke-linecap:round;stroke-linejoin:miter;stroke-opacity:1" />
    <path
       inkscape:connector-curvature="0"
       id="path9111-91-76"
       d="m 31,290.00002 0,-3"
       style="fill:none;stroke:#000000;stroke-width:0.26458329px;stroke-linecap:round;stroke-linejoin:miter;stroke-opacity:1" />
    <path
       inkscape:connector-curvature="0"
       id="path9111-91-4"
       d="m 33,290.00002 0,-2.26563"
       style="fill:none;stroke:#000000;stroke-width:0.26458329px;stroke-linecap:round;stroke-linejoin:miter;stroke-opacity:1" />
    <path
       inkscape:connector-curvature="0"
       id="path9111-91-8"
       d="m 35,290.00002 0,-1"
       style="fill:none;stroke:#000000;stroke-width:0.26458329px;stroke-linecap:round;stroke-linejoin:miter;stroke-opacity:1" />
    <path
       inkscape:connector-curvature="0"
       id="path9111-91-8-1"
       d="m 37.999999,290.03221 0,-0.76769"
       style="fill:none;stroke:#000000;stroke-width:0.26458329px;stroke-linecap:round;stroke-linejoin:miter;stroke-opacity:1" />
    <path
       inkscape:connector-curvature="0"
       id="path9111-91-8-5"
       d="m 39.999999,290.02347 0,-1.65001"
       style="fill:none;stroke:#000000;stroke-width:0.26458329px;stroke-linecap:round;stroke-linejoin:miter;stroke-opacity:1" />
    <path
       inkscape:connector-curvature="0"
       id="path9111-91-8-4"
       d="m 42.000001,289.9867 0,-2.17629"
       style="fill:none;stroke:#000000;stroke-width:0.26458329px;stroke-linecap:round;stroke-linejoin:miter;stroke-opacity:1" />
    <path
       inkscape:connector-curvature="0"
       id="path9111-91-8-51"
       d="m 44,289.98119 0,-2.26563"
       style="fill:none;stroke:#000000;stroke-width:0.26458329px;stroke-linecap:round;stroke-linejoin:miter;stroke-opacity:1" />
    <path
       inkscape:connector-curvature="0"
       id="path9111-91-8-11"
       d="m 45.999999,290.01679 0,-1.73651"
       style="fill:none;stroke:#000000;stroke-width:0.26458329px;stroke-linecap:round;stroke-linejoin:miter;stroke-opacity:1" />
    <path
       inkscape:connector-curvature="0"
       id="path9111-91-8-52"
       d="m 47.999999,289.99826 0,-1"
       style="fill:none;stroke:#000000;stroke-width:0.26458329px;stroke-linecap:round;stroke-linejoin:miter;stroke-opacity:1" />
    <path
       id="path3984"
       title="abs(sin(x)/x)"
       d="m 10,273.01121 c 0.144781,-0.0121 0.289562,-0.0144 0.434343,-0.007 0.144782,0.008 0.289563,0.0251 0.434344,0.0523 0.144781,0.0272 0.289562,0.0643 0.434343,0.11109 0.144781,0.0467 0.289563,0.10322 0.434344,0.16917 0.144781,0.066 0.289562,0.14146 0.434343,0.2262 0.144781,0.0847 0.289562,0.17881 0.434344,0.28182 0.144781,0.10302 0.289562,0.21504 0.434343,0.33568 0.144781,0.12064 0.289562,0.24994 0.434343,0.38745 0.144782,0.13751 0.289563,0.28329 0.434344,0.43682 0.144781,0.15354 0.289562,0.31488 0.434343,0.48349 0.144781,0.16862 0.289563,0.34454 0.434344,0.52719 0.144781,0.18265 0.289562,0.37207 0.434343,0.56765 0.144781,0.19557 0.289563,0.39733 0.434344,0.60464 0.144781,0.2073 0.289562,0.42018 0.434343,0.63796 0.144781,0.21778 0.289562,0.44049 0.434344,0.66744 0.144781,0.22695 0.289562,0.45815 0.434343,0.69291 0.144781,0.23475 0.289562,0.47308 0.434343,0.71425 0.144782,0.24117 0.289563,0.48521 0.434344,0.73138 0.144781,0.24617 0.289562,0.49449 0.434343,0.74423 0.144781,0.24974 0.289563,0.50091 0.434344,0.75277 0.144781,0.25187 0.289562,0.50444 0.434343,0.757 0.144781,0.25256 0.289562,0.50511 0.434344,0.75695 0.144781,0.25183 0.289562,0.50295 0.434343,0.75267 0.144781,0.24972 0.289562,0.49802 0.434343,0.74426 0.144782,0.24624 0.289563,0.4904 0.434344,0.73185 0.144781,0.24144 0.289562,0.48016 0.434343,0.71555 0.144781,0.23539 0.289563,0.46744 0.434344,0.69557 0.144781,0.22814 0.289562,0.45234 0.434343,0.67209 0.144781,0.21974 0.289562,0.43501 0.434344,0.64531 0.144781,0.2103 0.289562,0.41561 0.434343,0.61549 0.144781,0.19989 0.289562,0.39432 0.434343,0.5829 0.144782,0.18859 0.289563,0.0317 0.434344,-0.14477 0.144781,-0.1765 0.289562,-0.34674 0.434343,-0.51046 0.144781,-0.16371 0.289563,-0.32086 0.434344,-0.47121 0.144781,-0.15034 0.289562,-0.29385 0.434343,-0.43035 0.144781,-0.13649 0.289562,-0.26593 0.434344,-0.3882 0.144781,-0.12226 0.289562,-0.23732 0.434343,-0.34509 0.144781,-0.10777 0.289562,-0.20821 0.434344,-0.30132 0.144781,-0.0931 0.289562,-0.17885 0.434343,-0.25726 0.144781,-0.0784 0.289562,-0.14943 0.434343,-0.21317 0.144782,-0.0637 0.289563,-0.12018 0.434344,-0.16943 0.144781,-0.0492 0.289562,-0.0913 0.434343,-0.12628 0.144781,-0.035 0.289563,-0.063 0.434344,-0.0841 0.144781,-0.0211 0.289562,-0.0354 0.434343,-0.0431 0.144781,-0.008 0.289562,-0.009 0.434344,-0.004 0.144781,0.005 0.289562,0.0168 0.434343,0.0343 0.144781,0.0175 0.289562,0.041 0.434343,0.0701 0.144782,0.0291 0.289563,0.0638 0.434344,0.10374 0.144781,0.0399 0.289562,0.0851 0.434343,0.13503 0.144781,0.0499 0.289563,0.10468 0.434344,0.16376 0.144781,0.0591 0.289562,0.12251 0.434343,0.18981 0.144781,0.0673 0.289562,0.13847 0.434344,0.21303 0.144781,0.0746 0.289562,0.15251 0.434343,0.23335 0.144781,0.0808 0.289562,0.16457 0.434343,0.25067 0.144782,0.0861 0.289563,0.17461 0.434344,0.26497 0.144781,0.0904 0.289562,0.18261 0.434343,0.27621 0.144781,0.0936 0.289563,0.18856 0.434344,0.28439 0.144781,0.0958 0.289562,0.1925 0.434343,0.28955 0.144781,0.097 0.289562,0.19445 0.434344,0.29173 0.144781,0.0973 0.289562,0.19446 0.434343,0.29104 0.144781,0.0966 0.289562,0.19257 0.434343,0.28753 0.144782,0.095 0.289563,0.18888 0.434344,0.28135 0.144781,0.0925 0.289562,-0.12499 0.434343,-0.21415 0.144782,-0.0892 0.289563,-0.17645 0.434344,-0.26153 0.144781,-0.0851 0.289562,-0.16792 0.434343,-0.24822 0.144781,-0.0803 0.289563,-0.15802 0.434344,-0.23289 0.144781,-0.0749 0.289562,-0.14687 0.434343,-0.21574 0.144781,-0.0689 0.289562,-0.13461 0.434344,-0.19699 0.144781,-0.0624 0.289562,-0.12139 0.434343,-0.17685 0.144781,-0.0555 0.289562,-0.10735 0.434343,-0.15555 0.144782,-0.0482 0.289563,-0.0927 0.434344,-0.13333 0.144781,-0.0407 0.289562,-0.0775 0.434343,-0.11042 0.144781,-0.0329 0.289563,-0.0619 0.434344,-0.087 0.144781,-0.0251 0.289562,-0.0462 0.434343,-0.0635 0.144781,-0.0172 0.289562,-0.0305 0.434344,-0.0399 0.144781,-0.009 0.289562,-0.0149 0.434343,-0.0165 0.144781,-0.002 0.289562,5e-4 0.434343,0.006 0.144782,0.006 0.289563,0.0155 0.434344,0.0286 0.144781,0.0131 0.289562,0.0299 0.434343,0.05 0.144781,0.0201 0.289563,0.0436 0.434344,0.0703 0.144781,0.0267 0.289562,0.0566 0.434343,0.0894 0.144781,0.0328 0.289562,0.0687 0.434344,0.10721 0.144781,0.0385 0.289562,0.0798 0.434343,0.12346 0.144781,0.0437 0.289562,0.0898 0.434343,0.13809 0.144782,0.0483 0.289563,0.0987 0.434344,0.15099 0.144781,0.0523 0.289562,0.1064 0.434343,0.16206 0.144781,0.0557 0.289563,0.11285 0.434344,0.17125 0.144781,0.0584 0.289562,0.11802 0.434343,0.17852 0.144781,0.0605 0.289563,0.12187 0.434344,0.18381 0.144781,0.0619 0.289562,0.12442 0.434343,0.18714 0.144781,0.0627 0.289562,0.12567 0.434344,0.18852 0.144781,0.0629 0.289562,0.12561 0.434343,0.18796 0.144781,0.0623 0.289562,0.1919 0.434343,0.13067 0.144782,-0.0612 0.289563,-0.12175 0.434344,-0.18127 0.144781,-0.0595 0.289562,-0.11803 0.434343,-0.17527 0.144781,-0.0572 0.289563,-0.11321 0.434344,-0.16764 0.144781,-0.0544 0.289562,-0.10733 0.434343,-0.15846 0.144781,-0.0511 0.289562,-0.10049 0.434344,-0.14788 0.144781,-0.0474 0.289562,-0.0928 0.434343,-0.13601"
       style="opacity:1;fill:none;fill-opacity:1;fill-rule:nonzero;stroke:#000000;stroke-width:0.26499999;stroke-linecap:round;stroke-linejoin:bevel;stroke-miterlimit:4;stroke-dasharray:0.265, 1.06;stroke-dashoffset:0;stroke-opacity:1;paint-order:stroke markers fill"
       inkscape:connector-curvature="0" />
    <path
       style="fill:none;stroke:#000000;stroke-width:0.26458332px;stroke-linecap:round;stroke-linejoin:miter;stroke-opacity:1"
       d="m 9.9742714,289.99143 0,-16.82792"
       id="path4277"
       inkscape:connector-curvature="0" />
    <g
       inkscape:label="Надписи"
       id="layer6"
       inkscape:groupmode="layer">
      <path
         inkscape:connector-curvature="0"
         id="path9315"
         d="m 12.032461,290.21575 -3.0147923,3.30426"
         style="fill:none;stroke:#000000;stroke-width:0.15000001;stroke-linecap:round;stroke-linejoin:miter;stroke-miterlimit:4;stroke-dasharray:none;stroke-opacity:1" />
      <path
         inkscape:connector-curvature="0"
         id="path9317"
         d="m 13.999876,290.1452 1.525314,3.37972"
         style="fill:none;stroke:#000000;stroke-width:0.15000001;stroke-linecap:round;stroke-linejoin:miter;stroke-miterlimit:4;stroke-dasharray:none;stroke-opacity:1" />
      <path
         inkscape:connector-curvature="0"
         id="path9319"
         d="m 21,279.00002 -3,1"
         style="fill:none;stroke:#000000;stroke-width:0.15000001;stroke-linecap:round;stroke-linejoin:miter;stroke-miterlimit:4;stroke-dasharray:none;stroke-opacity:1" />
      <path
         inkscape:connector-curvature="0"
         id="path9321-1"
         d="m 13.717644,277.99826 -1,0"
         style="fill:none;stroke:#000000;stroke-width:0.26458332px;stroke-linecap:round;stroke-linejoin:miter;stroke-opacity:1;marker-end:url(#marker9497-7)" />
      <path
         inkscape:connector-curvature="0"
         id="path9321"
         d="m 8.3001757,277.99826 0.9999998,0"
         style="fill:none;stroke:#000000;stroke-width:0.26458332px;stroke-linecap:round;stroke-linejoin:miter;stroke-opacity:1;marker-end:url(#marker9497-6)" />
      <path
         inkscape:connector-curvature="0"
         id="path10034"
         d="m 7.2625325,274.45945 1.9999999,2"
         style="fill:none;stroke:#000000;stroke-width:0.15000001;stroke-linecap:round;stroke-linejoin:miter;stroke-miterlimit:4;stroke-dasharray:none;stroke-opacity:1" />
      <text
         xml:space="preserve"
         style="font-style:normal;font-variant:normal;font-weight:normal;font-stretch:normal;font-size:2.11666656px;line-height:1.25;font-family:'Times New Roman';-inkscape-font-specification:'Times New Roman, Normal';text-align:start;letter-spacing:0px;word-spacing:0px;writing-mode:lr-tb;text-anchor:start;fill:#000000;fill-opacity:1;stroke:none;stroke-width:0.26458332"
         x="45"
         y="279.00003"
         id="text4059"><tspan
           sodipodi:role="line"
           id="tspan4057"
           x="45"
           y="279.00003"
           style="stroke-width:0.26458332" /></text>
      <text
         id="text9245"
         y="288.99826"
         x="56"
         style="font-style:normal;font-variant:normal;font-weight:normal;font-stretch:normal;font-size:2.11666656px;line-height:1.25;font-family:'Times New Roman';-inkscape-font-specification:'Times New Roman, Normal';text-align:start;letter-spacing:0px;word-spacing:0px;writing-mode:lr-tb;text-anchor:start;fill:#000000;fill-opacity:1;stroke:none;stroke-width:0.26458332"
         xml:space="preserve"><tspan
           style="stroke-width:0.26458332"
           y="288.99826"
           x="56"
           id="tspan9243"
           sodipodi:role="line">$\nu$</tspan></text>
      <text
         id="text9249"
         y="278.99826"
         x="22"
         style="font-style:normal;font-variant:normal;font-weight:normal;font-stretch:normal;font-size:2.11666656px;line-height:1.25;font-family:'Times New Roman';-inkscape-font-specification:'Times New Roman, Normal';text-align:start;letter-spacing:0px;word-spacing:0px;writing-mode:lr-tb;text-anchor:start;fill:#000000;fill-opacity:1;stroke:none;stroke-width:0.26458332"
         xml:space="preserve"><tspan
           style="stroke-width:0.26458332"
           y="278.99826"
           x="22"
           id="tspan9247"
           sodipodi:role="line">$\propto \left(\frac{\sin x}{x}\right)^2$</tspan></text>
      <text
         id="text9253"
         y="273.99826"
         x="2.9999998"
         style="font-style:normal;font-variant:normal;font-weight:normal;font-stretch:normal;font-size:2.11666656px;line-height:1.25;font-family:'Times New Roman';-inkscape-font-specification:'Times New Roman, Normal';text-align:start;letter-spacing:0px;word-spacing:0px;writing-mode:lr-tb;text-anchor:start;fill:#000000;fill-opacity:1;stroke:none;stroke-width:0.26458332"
         xml:space="preserve"><tspan
           style="stroke-width:0.26458332"
           y="273.99826"
           x="2.9999998"
           id="tspan9251"
           sodipodi:role="line">$\delta\nu$</tspan></text>
      <text
         id="text9257"
         y="269.99826"
         x="11.999999"
         style="font-style:normal;font-variant:normal;font-weight:normal;font-stretch:normal;font-size:2.11666656px;line-height:1.25;font-family:'Times New Roman';-inkscape-font-specification:'Times New Roman, Normal';text-align:start;letter-spacing:0px;word-spacing:0px;writing-mode:lr-tb;text-anchor:start;fill:#000000;fill-opacity:1;stroke:none;stroke-width:0.26458332"
         xml:space="preserve"><tspan
           style="stroke-width:0.26458332"
           y="269.99826"
           x="11.999999"
           id="tspan9255"
           sodipodi:role="line">$a_n(\nu)$</tspan></text>
      <text
         id="text9261"
         y="291.99826"
         x="7"
         style="font-style:normal;font-variant:normal;font-weight:normal;font-stretch:normal;font-size:2.11666656px;line-height:1.25;font-family:'Times New Roman';-inkscape-font-specification:'Times New Roman, Normal';text-align:start;letter-spacing:0px;word-spacing:0px;writing-mode:lr-tb;text-anchor:start;fill:#000000;fill-opacity:1;stroke:none;stroke-width:0.26458332"
         xml:space="preserve"><tspan
           style="stroke-width:0.26458332"
           y="291.99826"
           x="7"
           id="tspan9259"
           sodipodi:role="line">$0$</tspan></text>
      <text
         id="text9265"
         y="295.99826"
         x="7"
         style="font-style:normal;font-variant:normal;font-weight:normal;font-stretch:normal;font-size:2.11666656px;line-height:1.25;font-family:'Times New Roman';-inkscape-font-specification:'Times New Roman, Normal';text-align:start;letter-spacing:0px;word-spacing:0px;writing-mode:lr-tb;text-anchor:start;fill:#000000;fill-opacity:1;stroke:none;stroke-width:0.26458332"
         xml:space="preserve"><tspan
           style="stroke-width:0.26458332"
           y="295.99826"
           x="7"
           id="tspan9263"
           sodipodi:role="line">$\nu_1$</tspan></text>
      <text
         id="text9265-6"
         y="295.99826"
         x="14"
         style="font-style:normal;font-variant:normal;font-weight:normal;font-stretch:normal;font-size:2.11666656px;line-height:1.25;font-family:'Times New Roman';-inkscape-font-specification:'Times New Roman, Normal';text-align:start;letter-spacing:0px;word-spacing:0px;writing-mode:lr-tb;text-anchor:start;fill:#000000;fill-opacity:1;stroke:none;stroke-width:0.26458332"
         xml:space="preserve"><tspan
           style="stroke-width:0.26458332"
           y="295.99826"
           x="14"
           id="tspan9263-6"
           sodipodi:role="line">$\nu_2$</tspan></text>
      <text
         id="text9287"
         y="294.99826"
         x="22"
         style="font-style:normal;font-variant:normal;font-weight:normal;font-stretch:normal;font-size:2.11666656px;line-height:1.25;font-family:'Times New Roman';-inkscape-font-specification:'Times New Roman, Normal';text-align:start;letter-spacing:0px;word-spacing:0px;writing-mode:lr-tb;text-anchor:start;fill:#000000;fill-opacity:1;stroke:none;stroke-width:0.26458332"
         xml:space="preserve"><tspan
           style="stroke-width:0.26458332"
           y="294.99826"
           x="22"
           id="tspan9285"
           sodipodi:role="line">$\frac{2}{\tau}$</tspan></text>
      <text
         id="text9287-1"
         y="294.99826"
         x="35"
         style="font-style:normal;font-variant:normal;font-weight:normal;font-stretch:normal;font-size:2.11666656px;line-height:1.25;font-family:'Times New Roman';-inkscape-font-specification:'Times New Roman, Normal';text-align:start;letter-spacing:0px;word-spacing:0px;writing-mode:lr-tb;text-anchor:start;fill:#000000;fill-opacity:1;stroke:none;stroke-width:0.26458332"
         xml:space="preserve"><tspan
           style="stroke-width:0.26458332"
           y="294.99826"
           x="35"
           id="tspan9285-0"
           sodipodi:role="line">$\frac{4}{\tau}$</tspan></text>
      <text
         id="text9287-12"
         y="294.99826"
         x="48"
         style="font-style:normal;font-variant:normal;font-weight:normal;font-stretch:normal;font-size:2.11666656px;line-height:1.25;font-family:'Times New Roman';-inkscape-font-specification:'Times New Roman, Normal';text-align:start;letter-spacing:0px;word-spacing:0px;writing-mode:lr-tb;text-anchor:start;fill:#000000;fill-opacity:1;stroke:none;stroke-width:0.26458332"
         xml:space="preserve"><tspan
           style="stroke-width:0.26458332"
           y="294.99826"
           x="48"
           id="tspan9285-1"
           sodipodi:role="line">$\frac{6}{\tau}$</tspan></text>
    </g>
  </g>
</svg>
