<?xml version="1.0" encoding="UTF-8" standalone="no"?>
<!-- Created with Inkscape (http://www.inkscape.org/) -->

<svg
   xmlns:dc="http://purl.org/dc/elements/1.1/"
   xmlns:cc="http://creativecommons.org/ns#"
   xmlns:rdf="http://www.w3.org/1999/02/22-rdf-syntax-ns#"
   xmlns:svg="http://www.w3.org/2000/svg"
   xmlns="http://www.w3.org/2000/svg"
   xmlns:sodipodi="http://sodipodi.sourceforge.net/DTD/sodipodi-0.dtd"
   xmlns:inkscape="http://www.inkscape.org/namespaces/inkscape"
   width="25.921577mm"
   height="22.589457mm"
   viewBox="0 0 91.848109 80.041381"
   id="svg11781"
   version="1.1"
   inkscape:version="0.91 r13725"
   sodipodi:docname="v6-modul.svg">
  <defs
     id="defs11783">
    <marker
       inkscape:isstock="true"
       style="overflow:visible"
       id="marker12766"
       refX="0"
       refY="0"
       orient="auto"
       inkscape:stockid="Arrow1Mend">
      <path
         transform="matrix(-0.4,0,0,-0.4,-4,0)"
         style="fill:#000000;fill-opacity:1;fill-rule:evenodd;stroke:#000000;stroke-width:1pt;stroke-opacity:1"
         d="M 0,0 5,-5 -12.5,0 5,5 0,0 Z"
         id="path12768"
         inkscape:connector-curvature="0" />
    </marker>
    <marker
       inkscape:stockid="Arrow1Mend"
       orient="auto"
       refY="0"
       refX="0"
       id="Arrow1Mend"
       style="overflow:visible"
       inkscape:isstock="true"
       inkscape:collect="always">
      <path
         id="path4642"
         d="M 0,0 5,-5 -12.5,0 5,5 0,0 Z"
         style="fill:#000000;fill-opacity:1;fill-rule:evenodd;stroke:#000000;stroke-width:1pt;stroke-opacity:1"
         transform="matrix(-0.4,0,0,-0.4,-4,0)"
         inkscape:connector-curvature="0" />
    </marker>
    <clipPath
       id="clipPath12347"
       clipPathUnits="userSpaceOnUse">
      <path
         inkscape:connector-curvature="0"
         id="path12349"
         d="m 735,83 0,5398 4711,0 0,-5398 -4711,0 z" />
    </clipPath>
    <clipPath
       id="clipPath12359"
       clipPathUnits="userSpaceOnUse">
      <path
         inkscape:connector-curvature="0"
         id="path12361"
         d="m 69.375,69.375 5411.25,0 0,5411.25 -5411.25,0 0,-5411.25 z" />
    </clipPath>
    <clipPath
       id="clipPath12369"
       clipPathUnits="userSpaceOnUse">
      <path
         inkscape:connector-curvature="0"
         id="path12371"
         d="m 2983.13,2247.75 194.25,0 0,208.125 -194.25,0 0,-208.125 z" />
    </clipPath>
    <clipPath
       id="clipPath12379"
       clipPathUnits="userSpaceOnUse">
      <path
         inkscape:connector-curvature="0"
         id="path12381"
         d="m 69.375,69.375 5411.25,0 0,5411.25 -5411.25,0 0,-5411.25 z" />
    </clipPath>
    <clipPath
       id="clipPath12423"
       clipPathUnits="userSpaceOnUse">
      <path
         inkscape:connector-curvature="0"
         id="path12425"
         d="m 249.75,652.125 124.875,0 0,222 -124.875,0 0,-222 z" />
    </clipPath>
    <clipPath
       id="clipPath12433"
       clipPathUnits="userSpaceOnUse">
      <path
         inkscape:connector-curvature="0"
         id="path12435"
         d="m 69.375,69.375 5411.25,0 0,5411.25 -5411.25,0 0,-5411.25 z" />
    </clipPath>
    <clipPath
       id="clipPath12445"
       clipPathUnits="userSpaceOnUse">
      <path
         inkscape:connector-curvature="0"
         id="path12447"
         d="m 249.75,1651.13 124.875,0 0,222 -124.875,0 0,-222 z" />
    </clipPath>
    <clipPath
       id="clipPath12455"
       clipPathUnits="userSpaceOnUse">
      <path
         inkscape:connector-curvature="0"
         id="path12457"
         d="m 69.375,69.375 5411.25,0 0,5411.25 -5411.25,0 0,-5411.25 z" />
    </clipPath>
  </defs>
  <sodipodi:namedview
     id="base"
     pagecolor="#ffffff"
     bordercolor="#666666"
     borderopacity="1.0"
     inkscape:pageopacity="0.0"
     inkscape:pageshadow="2"
     inkscape:zoom="7.9195959"
     inkscape:cx="47.562496"
     inkscape:cy="51.732647"
     inkscape:document-units="px"
     inkscape:current-layer="layer1"
     showgrid="false"
     fit-margin-top="0"
     fit-margin-left="0"
     fit-margin-right="0"
     fit-margin-bottom="0" />
  <metadata
     id="metadata11786">
    <rdf:RDF>
      <cc:Work
         rdf:about="">
        <dc:format>image/svg+xml</dc:format>
        <dc:type
           rdf:resource="http://purl.org/dc/dcmitype/StillImage" />
        <dc:title />
      </cc:Work>
    </rdf:RDF>
  </metadata>
  <g
     inkscape:label="Layer 1"
     inkscape:groupmode="layer"
     id="layer1"
     transform="translate(-59.139614,-359.44644)">
    <path
       inkscape:connector-curvature="0"
       id="path12351"
       style="fill:none;stroke:#000000;stroke-width:0.625;stroke-linecap:butt;stroke-linejoin:round;stroke-miterlimit:10;stroke-dasharray:none;stroke-opacity:1"
       d="m 77.841378,402.70274 0.331766,-0.0319 0.144346,-0.008 0.144277,0.0243 0.16235,0.0844 0.162348,0.14987 0.163402,0.19708 0.16335,0.19817 0.08135,0.0794 0.08125,0.0554 0.04065,0.016 0.04064,0.007 0.0407,-0.004 0.04065,-0.0142 0.0754,-0.0577 0.07533,-0.10103 0.0754,-0.14581 0.07541,-0.18993 0.312223,-1.15665 0.161442,-0.68121 0.161457,-0.56961 0.08046,-0.19735 0.08046,-0.11822 0.04023,-0.0248 0.04022,1.5e-4 0.0403,0.0262 0.04017,0.0533 0.165565,0.51509 0.165565,0.97433 0.291652,2.4835 0.164078,1.46629 0.16408,1.18709 0.08244,0.4085 0.08244,0.24511 0.04121,0.0539 0.04121,0.005 0.02054,-0.0161 0.02054,-0.0289 0.02069,-0.0419 0.02067,-0.0548 0.158806,-0.86029 0.158808,-1.58762 0.288422,-4.13186 0.343024,-4.70375 0.07272,-0.6409 0.07257,-0.44692 0.03636,-0.14298 0.03636,-0.0865 0.03623,-0.0278 0.03636,0.0323 0.169079,0.95702 0.168943,2.225 0.299235,6.10863 0.328291,6.81297 0.15624,2.0148 0.15624,0.68065 0.163132,-0.92062 0.163133,-2.55884 0.149751,-3.54939 0.149753,-4.28904 0.16151,-4.85159 0.161511,-4.37074 0.167864,-3.28035 0.167727,-1.38431 0.146102,0.61411 0.145968,2.32523 0.157727,4.19123 0.157726,5.42582 0.162997,6.13095 0.162997,5.75383 0.159483,4.3921 0.159483,2.45672 0.03852,0.24645 0.03852,0.10168 0.01933,-0.004 0.01919,-0.0413 0.01932,-0.0783 0.01933,-0.11534 0.07718,-0.8304 0.07704,-1.40555 0.171242,-4.96415 0.171377,-6.8656 0.153806,-6.90615 0.153942,-6.65472 0.164213,-5.79333 0.16435,-3.51016 0.0373,-0.40486 0.03703,-0.24903 0.01878,-0.0651 0.01865,-0.0251 0.01852,0.0152 0.01852,0.0559 0.07448,0.62711 0.07461,1.26353 0.162861,4.8056 0.162728,7.04348 0.0765,3.81505 0.0765,3.96953 0.07677,3.99252 0.0765,3.88202 0.160159,7.18374 0.160159,5.04436 0.07813,1.4303 0.07839,0.66052 0.0196,0.0403 0.01947,-0.0105 0.0196,-0.0611 0.0196,-0.11192 0.03919,-0.37618 0.03893,-0.57705 0.08204,-1.84084 0.08191,-2.6454 0.08204,-3.35948 0.0819,-3.95466 0.07893,-4.23709 0.07893,-4.5106 0.07892,-4.62679 0.07879,-4.57999 0.08083,-4.46487 0.08055,-4.076 0.08069,-3.53072 0.08083,-2.84737 0.08015,-2.03643 0.07988,-1.16844 0.02,-0.1496 0.02,-0.0913 0.02,-0.0327 0.02,0.0262 0.04014,0.22914 0.04001,0.4641 0.146914,3.65463 0.147319,6.37403 0.0842,4.6088 0.08433,5.08819 0.0842,5.36683 0.08433,5.43122 0.07542,4.73365 0.07542,4.45514 0.07542,4.03014 0.07542,3.4704 0.160699,5.01879 0.1607,1.17361 0.153941,-2.71031 0.153807,-6.16347 0.08542,-4.64763 0.08542,-5.29731 0.08542,-5.73314 0.08542,-5.93496 0.07407,-5.11389 0.07379,-4.92248 0.07407,-4.57702 0.07392,-4.08599 0.167998,-6.79485 0.167863,-2.49079 0.152996,1.88629 0.152996,5.66361 0.08393,4.46353 0.08352,5.22156 0.08366,5.77749 0.08393,6.10756 0.07203,5.35101 0.07231,5.25957 0.07218,5.01204 0.07218,4.61475 0.08231,4.59541 0.08217,3.7193 0.08231,2.69493 0.08231,1.56078 0.01987,0.19836 0.02,0.12767 0.0196,0.0563 0.01987,-0.0151 0.03974,-0.24455 0.03973,-0.5289 0.07961,-1.89337 0.07933,-2.95182 0.07948,-3.9078 0.07933,-4.73093 0.07948,-5.38956 0.07933,-5.85921 0.0792,-6.0993 0.07907,-6.14516 0.07893,-5.97324 0.0792,-5.58841 0.07609,-4.82022 0.07596,-4.12021 0.07596,-3.28185 0.07596,-2.33226 0.04108,-0.83568 0.04108,-0.52524 0.02067,-0.14433 0.02041,-0.0649 0.01024,-0.003 0.01024,0.0174 0.01037,0.0374 0.01024,0.0573 0.08217,1.17127 0.08204,2.40342 0.07823,3.35894 0.07836,4.28781 0.07823,5.07183 0.07836,5.68322 0.0823,6.42705 0.08243,6.64307 0.0823,6.60426 0.08256,6.31194 0.07429,5.25754 0.07469,4.65058 0.07456,3.89484 0.07455,3.01394 0.0823,2.18916 0.08256,0.90555 0.08243,-0.41759 0.08243,-1.72914 0.07889,-2.82929 0.07889,-3.88013 0.07902,-4.79721 0.07889,-5.54823 0.07876,-6.0901 0.07876,-6.43275 0.07862,-6.55055 0.07876,-6.43869 0.0823,-6.36063 0.08217,-5.74734 0.0823,-4.91221 0.0823,-3.88661 0.07587,-2.54112 0.07587,-1.45723 0.0189,-0.18828 0.0189,-0.11691 0.0189,-0.045 0.0189,0.0269 0.0378,0.26905 0.03793,0.55459 0.07757,2.00708 0.07757,3.11898 0.0777,4.12726 0.07757,4.99702 0.08571,6.32451 0.08571,6.9189 0.08584,7.22701 0.08571,7.23648 0.07744,6.30911 0.07757,5.85528 0.0777,5.20153 0.07757,4.36958 0.15867,5.75249 0.15868,0.85545 0.0807,-1.51516 0.0807,-2.77448 0.0807,-3.9333 0.0807,-4.94913 0.0742,-5.29094 0.0742,-5.83338 0.0742,-6.19507 0.0742,-6.36442 0.0789,-6.74859 0.0791,-6.47792 0.079,-5.97891 0.0789,-5.26782 0.0785,-4.34084 0.0785,-3.30483 0.0784,-2.15318 0.0785,-0.92577 0.0837,0.40514 0.084,1.83204 0.0839,3.18715 0.0837,4.41631 0.0742,4.77992 0.074,5.45395 0.074,5.95957 0.074,6.28029 0.0427,3.69346 0.0427,3.69778 0.0428,3.66329 0.0425,3.59146 0.0856,6.81987 0.0854,6.10363 0.0772,4.6834 0.077,3.73715 0.0772,2.66529 0.0772,1.50389 0.1526,-0.60643 0.15259,-5.23556 0.082,-4.51224 0.082,-5.49056 0.082,-6.26013 0.082,-6.79173 0.0824,-7.09419 0.0823,-7.09852 0.0824,-6.83083 0.0823,-6.30166 0.075,-5.07046 0.0751,-4.272 0.0747,-3.33837 0.075,-2.29952 0.0398,-0.77239 0.0398,-0.45164 0.0105,-0.0623 0.0105,-0.0419 0.0105,-0.0217 0.0105,-10e-4 0.0198,0.0588 0.0198,0.14013 0.0795,1.36456 0.0795,2.60795 0.0777,3.65382 0.0776,4.62341 0.0778,5.43473 0.0776,6.06048 0.0841,7.03604 0.0841,7.2465 0.0843,7.16709 0.0841,6.80107 0.073,5.37968 0.0727,4.74123 0.073,3.9614 0.0727,3.06358 0.0839,2.29478 0.0835,0.90237 0.0836,-0.52378 0.0837,-1.92771 0.0786,-3.02321 0.0786,-4.08863 0.0786,-5.01005 0.0786,-5.75519 0.0778,-6.23592 0.0781,-6.55488 0.0777,-6.64903 0.0781,-6.51552 0.0778,-6.16369 0.0778,-5.59611 0.0781,-4.83754 0.078,-3.91407 0.0794,-2.90364 0.0795,-1.70327 0.0199,-0.2305 0.0198,-0.15095 0.0199,-0.0713 0.0198,0.008 0.0398,0.25606 0.0398,0.57244 0.0845,2.23178 0.0841,3.53383 0.0844,4.69199 0.0841,5.66036 0.0773,5.84608 0.0774,6.27015 0.0772,6.48266 0.0773,6.47629 0.0764,6.1737 0.0763,5.75288 0.0764,5.14392 0.0763,4.36737 0.16313,6.11674 0.16312,1.07109 0.0814,-1.4258 0.0814,-2.67182 0.0814,-3.81563 0.0814,-4.81416 0.0733,-5.02286 0.0728,-5.52862 0.0731,-5.86718 0.073,-6.02883 0.0866,-7.10069 0.0865,-6.77306 0.0866,-6.16072 0.0864,-5.2904 0.14475,-6.32318 0.1449,-2.56018 0.0848,0.37941 0.0848,1.75292 0.0847,3.05189 0.0848,4.22397 0.0809,4.96536 0.0809,5.68971 0.0809,6.20292 0.0808,6.48631 0.0722,5.83607 0.0721,5.7 0.0722,5.39672 0.0722,4.93588 0.0812,4.82231 0.0812,3.88189 0.0812,2.8 0.081,1.6176 0.0204,0.21322 0.0203,0.13404 0.0206,0.0546 0.0203,-0.0248 0.041,-0.28733 0.0408,-0.60113 0.0815,-2.11703 0.0818,-3.26194 0.0812,-4.25826 0.0815,-5.10591 0.0814,-5.76073 0.0811,-6.19913 0.0755,-5.93699 0.0755,-5.92372 0.0755,-5.72082 0.0753,-5.33587 0.078,-4.93803 0.0781,-4.17582 0.078,-3.27265 0.0781,-2.26016 0.0403,-0.74558 0.0406,-0.44814 0.009,-0.065 0.0105,-0.0462 0.0105,-0.0273 0.0105,-0.008 0.0105,0.0105 0.0105,0.0294 0.0105,0.0483 0.0105,0.0669 0.0809,1.20604 0.0807,2.35526 0.0805,3.40181 0.0805,4.32638 0.0806,5.08993 0.0805,5.66565 0.0828,6.2086 0.0827,6.35604 0.0827,6.25811 0.0828,5.91913 0.073,4.75177 0.0727,4.17162 0.073,3.46858 0.073,2.66374 0.0822,1.94102 0.0819,0.75506 0.0822,-0.45535 0.0819,-1.64333 0.0826,-2.77863 0.0823,-3.79851 0.0824,-4.66968 0.0823,-5.35871 0.0794,-5.62262 0.0793,-5.86868 0.0795,-5.9056 0.0791,-5.73273 0.0723,-4.88543 0.0721,-4.4335 0.0722,-3.8532 0.0719,-3.16225 0.086,-2.73752 0.0857,-1.52568 0.0214,-0.1841 0.0217,-0.10405 0.0214,-0.0238 0.0214,0.0563 0.043,0.35197 0.0431,0.66727 0.0726,1.82705 0.0726,2.65109 0.0727,3.39329 0.0726,4.0319 0.0847,5.33071 0.0844,5.81186 0.0847,6.05737 0.0847,6.05859 0.0748,5.1684 0.0747,4.81644 0.0747,4.31446 0.075,3.67817 0.16407,5.32175 0.16422,0.9842 0.15624,-3.20184 0.15637,-6.76902 0.0814,-4.646 0.0816,-5.18681 0.0816,-5.53131 0.0815,-5.66767 0.0748,-5.14229 0.0747,-4.91559 0.0751,-4.53521 0.075,-4.01269 0.16152,-6.31979 0.1615,-2.45048 0.16773,1.88832 0.16785,6.06509 0.0731,3.71346 0.073,4.2099 0.0731,4.57756 0.0728,4.80616 0.0789,5.28026 0.0788,5.19221 0.079,4.92315 0.0786,4.48274 0.16299,7.22797 0.163,3.6702 0.0199,0.17378 0.0198,0.11192 0.02,0.0499 0.0198,-0.0118 0.04,-0.21022 0.04,-0.45533 0.0797,-1.62552 0.0797,-2.52289 0.077,-3.20608 0.077,-3.84712 0.0773,-4.35612 0.077,-4.71688 0.0857,-5.46585 0.0856,-5.48723 0.0857,-5.28215 0.0857,-4.8604 0.15381,-7.06145 0.15394,-4.16433 0.0411,-0.54471 0.0411,-0.29421 0.0207,-0.0522 0.0203,0.0105 0.0205,0.0741 0.0205,0.13704 0.082,1.16667 0.0823,2.11421 0.0744,2.6634 0.0744,3.28521 0.0744,3.80167 0.0744,4.19719 0.0814,4.8842 0.0814,5.0142 0.0814,4.95698 0.0815,4.71525 0.0765,4.0599 0.0767,3.55926 0.0765,2.94368 0.0765,2.23446 0.0802,1.50122 0.0801,0.60018 0.0802,-0.3177 0.0801,-1.21937 0.0782,-2.01722 0.0784,-2.7589 0.0781,-3.40142 0.0782,-3.92368 0.0819,-4.51655 0.082,-4.76489 0.0819,-4.83186 0.0819,-4.71594 0.0789,-4.26698 0.0789,-3.84684 0.0789,-3.29456 0.0788,-2.62971 0.0808,-1.9097 0.0807,-1.05656 0.0204,-0.12609 0.0199,-0.0703 0.0204,-0.0144 0.0203,0.0415 0.0403,0.24957 0.0404,0.46937 0.15989,3.9015 0.16016,6.65064 0.0735,3.71957 0.0735,3.98197 0.0736,4.12171 0.0735,4.13524 0.0841,4.59433 0.0844,4.264 0.0841,3.76623 0.0845,3.12059 0.1507,3.61149 0.15083,0.74707 0.16071,-2.42262 0.16069,-5.35994 0.077,-3.38233 0.0769,-3.76029 0.0769,-4.01106 0.0769,-4.1263 0.0856,-4.54982 0.0853,-4.33598 0.0856,-3.94586 0.0855,-3.39586 0.14799,-4.19746 0.14773,-1.66702 0.168,1.38147 0.16787,4.59758 0.0767,2.9714 0.0765,3.38613 0.0767,3.6871 0.0765,3.86456 0.0836,4.27929 0.0836,4.16986 0.0837,3.89649 0.0836,3.47189 0.14434,4.61299 0.14448,2.44251 0.0205,0.15285 0.0207,0.10235 0.0203,0.0526 0.0207,0.003 0.0411,-0.14582 0.0412,-0.34438 0.0822,-1.26664 0.0823,-1.99018 0.1588,-5.57514 0.15908,-7.14465 0.0792,-3.84359 0.0793,-3.84455 0.0797,-3.70928 0.0791,-3.44348 0.1584,-5.60531 0.158,-3.32512 0.0381,-0.40297 0.0381,-0.24184 0.0189,-0.06 0.0189,-0.0192 0.019,0.0215 0.019,0.0621 0.076,0.64941 0.0759,1.26976 0.16448,4.62665 0.16435,6.56192 0.15651,7.13382 0.15664,6.99504 0.16476,6.16896 0.16488,4.05002 0.0744,0.96526 0.0745,0.37929 0.0746,-0.21494 0.0745,-0.79889 0.1649,-3.67018 0.16489,-5.76804 0.15799,-6.66389 0.158,-6.82881 0.15746,-6.03315 0.15759,-4.43269 0.0823,-1.4698 0.0823,-0.81527 0.0204,-0.0977 0.0207,-0.055 0.0207,-0.0118 0.0203,0.0308 0.0412,0.18938 0.0411,0.35805 0.15151,2.68991 0.15178,4.52846 0.15502,5.91398 0.1553,6.40312 0.17138,6.601 0.17137,5.07927 0.0777,1.5695 0.0774,1.03721 0.0387,0.30868 0.0387,0.16489 0.0194,0.0286 0.0193,-0.008 0.0193,-0.0437 0.0194,-0.0796 0.15868,-1.95217 0.15867,-4.00647 0.16151,-5.57405 0.16138,-6.26406 0.1484,-5.58125 0.14826,-4.71051 0.15814,-3.42929 0.15812,-1.34589 0.15692,0.88098 0.15692,2.93949 0.16786,4.93114 0.16786,5.99515 0.14813,5.4158 0.14814,4.84145 0.1711,4.11753 0.17084,1.93917 0.0193,0.0656 0.0193,0.0338 0.019,0.003 0.0193,-0.0296 0.0387,-0.15447 0.0385,-0.27907 0.0772,-0.92075 0.077,-1.37404 0.15259,-3.85104 0.15273,-4.90233 0.16407,-5.70148 0.16409,-5.30908 0.16489,-4.14308 0.16462,-2.34822 0.0374,-0.24348 0.0375,-0.13055 0.0186,-0.0227 0.0189,0.005 0.0186,0.0338 0.0188,0.0618 0.0747,0.52564 0.0751,0.95282 0.15935,3.27549 0.15907,4.55319 0.15557,5.04572 0.15531,4.9513 0.16839,4.49383 0.16827,2.91431 0.073,0.65131 0.0727,0.25322 0.0184,2.7e-4 0.0182,-0.0249 0.0182,-0.0499 0.0181,-0.075 0.0363,-0.22413 0.0366,-0.32112 0.16732,-2.62919 0.16746,-4.15903 0.15733,-4.70917 0.15731,-4.81332 0.15583,-4.21856 0.15584,-3.11006 0.078,-1.0061 0.0778,-0.59274 0.0194,-0.0811 0.0194,-0.0543 0.0196,-0.0268 0.0194,4.1e-4 0.0391,0.0819 0.039,0.18937 0.15909,1.82935 0.15907,3.28277 0.16855,4.52698 0.16853,4.88745 0.15476,4.1355 0.15448,3.24274 0.15273,1.91754 0.15258,0.4108 0.163,-1.25852 0.16313,-2.80164 0.16272,-3.89811 0.16287,-4.41037 0.15354,-4.03838 0.15339,-3.38477" />
    <path
       inkscape:connector-curvature="0"
       id="path12353"
       style="fill:none;stroke:#000000;stroke-width:0.625;stroke-linecap:butt;stroke-linejoin:round;stroke-miterlimit:10;stroke-dasharray:5,2.5;stroke-dashoffset:0;stroke-opacity:1"
       d="m 77.841378,402.70274 0.165876,-0.0118 0.16589,-0.0339 0.144346,-0.047 0.144277,-0.0626 0.324698,-0.1956 0.326752,-0.26823 0.325264,-0.33221 0.301517,-0.3613 0.312223,-0.42353 0.322899,-0.48654 0.321832,-0.52944 0.331131,-0.58624 0.291652,-0.54811 0.328157,-0.6486 0.329779,-0.68147 0.317614,-0.68174 0.288422,-0.6375 0.343024,-0.7782 0.290583,-0.67362 0.338024,-0.79754 0.299234,-0.71624 0.328292,-0.79415 0.312479,-0.76289 0.326265,-0.79997 0.299505,-0.73707 0.323021,-0.79551 0.335591,-0.82512 0.292069,-0.71582 0.315453,-0.76928 0.325994,-0.78914 0.318967,-0.76507 0.308424,-0.73273 0.342619,-0.80361 0.307749,-0.71232 0.328563,-0.74911 0.297881,-0.66808 0.32559,-0.71772 0.306261,-0.66281 0.320319,-0.67905 0.312884,-0.64967 0.327887,-0.6647 0.315587,-0.62467 0.322886,-0.62277 0.320183,-0.60112 0.294233,-0.53768 0.337078,-0.59842 0.301666,-0.51915 0.321399,-0.53661 0.307748,-0.49683 0.341674,-0.53255 0.295854,-0.44488 0.335861,-0.48643 0.305992,-0.42622 0.33505,-0.44746 0.288692,-0.37036 0.329103,-0.40432 0.31775,-0.37266 0.317616,-0.3552 0.316398,-0.33655 0.303964,-0.30746 0.328696,-0.3149 0.313288,-0.28352 0.329642,-0.28081 0.298297,-0.23887 0.329773,-0.24741 0.31586,-0.22089 0.315046,-0.20466 0.329104,-0.19749 0.303154,-0.16746 0.310452,-0.15705 0.342886,-0.15717 0.310323,-0.12754 0.31734,-0.11651 0.32275,-0.10405 0.2968,-0.0832 0.31613,-0.0757 0.31397,-0.0622 0.33558,-0.0526 0.2964,-0.0348 0.34181,-0.0268 0.30856,-0.0118 0.30517,-10e-4 0.32816,0.0105 0.32951,0.0226 0.29992,0.0306 0.31842,0.0429 0.31072,0.0517 0.33681,0.0669 0.29139,0.0667 0.33492,0.0865 0.31464,0.0905 0.31181,0.0982 0.3118,0.10654 0.31801,0.11704 0.33722,0.13269 0.30924,0.12963 0.30518,0.13473 0.32627,0.15149 0.32545,0.15852 0.2922,0.1484 0.34614,0.18288 0.28963,0.15867 0.33883,0.19194 0.32329,0.18938 0.28856,0.17381 0.32464,0.20088 0.32681,0.20749 0.32519,0.21156 0.30166,0.20059 0.31221,0.21184 0.32288,0.22331 0.32181,0.22685 0.33113,0.23739 0.29167,0.21238 0.32815,0.24252 0.32964,0.247 0.31762,0.24104 0.28843,0.22143 0.34329,0.26621 0.29045,0.22779 0.33816,0.26756 0.2991,0.23875 0.32829,0.26417 0.31261,0.25335 0.32613,0.26608 0.2995,0.24578 0.32303,0.2666 0.33559,0.27838 0.29207,0.24349 0.31546,0.26376 0.32598,0.27338 0.31897,0.26836 0.30843,0.26026 0.34261,0.28946 0.30775,0.26067 0.32871,0.2785 0.29787,0.25255 0.32559,0.27621 0.30612,0.25986 0.32032,0.27147 0.31303,0.26539 0.32775,0.27744 0.31558,0.26675 0.32303,0.27242 0.32005,0.26945 0.29423,0.24713 0.33721,0.28244 0.30153,0.25187 0.3214,0.26782 0.30774,0.25539 0.34181,0.28243 0.29573,0.24362 0.33586,0.27541 0.30625,0.24983 0.33479,0.27189 0.28882,0.23347 0.32911,0.26458 0.31788,0.25416 0.31735,0.25254 0.3164,0.25025 0.30397,0.23888 0.32883,0.25674 0.31315,0.24306 0.32965,0.25403 0.29828,0.22848 0.32977,0.25077 0.31601,0.23849 0.31504,0.23604 0.32911,0.24469 0.30328,0.22374 0.31032,0.22724 0.34276,0.24916 0.31031,0.22346 0.31734,0.2267 0.32289,0.22861 0.29666,0.2083 0.31627,0.22022 0.31382,0.21656 0.33573,0.22968 0.29627,0.20074 0.34194,0.22942 0.30843,0.20506 0.30531,0.201 0.32815,0.21413 0.32952,0.21264 0.29976,0.19153 0.31844,0.20168 0.31085,0.1948 0.33667,0.20871 0.29167,0.17882 0.33478,0.20331 0.31463,0.18896 0.31167,0.18519 0.31181,0.18329 0.31815,0.18504 0.33709,0.19383 0.30923,0.17572 0.30532,0.17151 0.32612,0.18125 0.32559,0.1787 0.30693,0.16664" />
    <path
       inkscape:connector-curvature="0"
       id="path12363"
       style="fill:none;stroke:#000000;stroke-width:0.5;stroke-linecap:butt;stroke-linejoin:round;stroke-miterlimit:10;stroke-dasharray:none;stroke-opacity:1;marker-end:url(#Arrow1Mend)"
       d="m 77.841378,402.70274 67.540622,0"
       sodipodi:nodetypes="cc" />
    <path
       inkscape:connector-curvature="0"
       id="path12415"
       style="fill:none;stroke:#000000;stroke-width:0.5;stroke-linecap:butt;stroke-linejoin:round;stroke-miterlimit:10;stroke-dasharray:none;stroke-opacity:1;marker-end:url(#marker12766)"
       d="m 77.841378,438.8524 0,-72.63306" />
    <text
       xml:space="preserve"
       style="color:#000000;font-style:normal;font-variant:normal;font-weight:normal;font-stretch:normal;font-size:12.5px;line-height:125%;font-family:'Times New Roman';-inkscape-font-specification:'Times New Roman, ';text-indent:0;text-align:start;text-decoration:none;text-decoration-line:none;text-decoration-style:solid;text-decoration-color:#000000;letter-spacing:0px;word-spacing:0px;text-transform:none;direction:ltr;block-progression:tb;writing-mode:lr-tb;baseline-shift:baseline;text-anchor:start;white-space:normal;clip-rule:nonzero;display:inline;overflow:visible;visibility:visible;opacity:1;isolation:auto;mix-blend-mode:normal;color-interpolation:sRGB;color-interpolation-filters:linearRGB;solid-color:#000000;solid-opacity:1;fill:#000000;fill-opacity:1;fill-rule:nonzero;stroke:none;stroke-width:0.5;stroke-linecap:butt;stroke-linejoin:miter;stroke-miterlimit:4;stroke-dasharray:none;stroke-dashoffset:0;stroke-opacity:1;color-rendering:auto;image-rendering:auto;shape-rendering:auto;text-rendering:auto;enable-background:accumulate"
       x="125.49084"
       y="371.22055"
       id="text12884"
       sodipodi:linespacing="125%"><tspan
         sodipodi:role="line"
         id="tspan12886"
         x="125.49084"
         y="371.22055"
         style="font-style:normal;font-variant:normal;font-weight:500;font-stretch:normal;font-family:'CMU Serif';-inkscape-font-specification:'CMU Serif Medium'"><tspan
   style="font-style:italic"
   id="tspan12938">f</tspan><tspan
   style="font-style:normal;font-variant:normal;font-weight:500;font-stretch:normal;font-size:64.99999762%;font-family:'CMU Serif';-inkscape-font-specification:'CMU Serif Medium';baseline-shift:sub"
   id="tspan12936">0</tspan>(<tspan
   style="font-style:italic"
   id="tspan12940">t</tspan>)</tspan></text>
    <path
       style="opacity:1;fill:#000000;fill-opacity:1;fill-rule:nonzero;stroke:#000000;stroke-width:0.5;stroke-linecap:butt;stroke-linejoin:round;stroke-miterlimit:10;stroke-dasharray:none;stroke-dashoffset:0;stroke-opacity:1"
       d="m 116.79889,373.16089 7.47177,-4.31383"
       id="path12942"
       inkscape:connector-curvature="0" />
    <text
       sodipodi:linespacing="125%"
       id="text12958"
       y="406.5759"
       x="146.32523"
       style="color:#000000;font-style:normal;font-variant:normal;font-weight:normal;font-stretch:normal;font-size:12.5px;line-height:125%;font-family:'Times New Roman';-inkscape-font-specification:'Times New Roman, ';text-indent:0;text-align:start;text-decoration:none;text-decoration-line:none;text-decoration-style:solid;text-decoration-color:#000000;letter-spacing:0px;word-spacing:0px;text-transform:none;direction:ltr;block-progression:tb;writing-mode:lr-tb;baseline-shift:baseline;text-anchor:start;white-space:normal;clip-rule:nonzero;display:inline;overflow:visible;visibility:visible;opacity:1;isolation:auto;mix-blend-mode:normal;color-interpolation:sRGB;color-interpolation-filters:linearRGB;solid-color:#000000;solid-opacity:1;fill:#000000;fill-opacity:1;fill-rule:nonzero;stroke:none;stroke-width:0.5;stroke-linecap:butt;stroke-linejoin:miter;stroke-miterlimit:4;stroke-dasharray:none;stroke-dashoffset:0;stroke-opacity:1;color-rendering:auto;image-rendering:auto;shape-rendering:auto;text-rendering:auto;enable-background:accumulate"
       xml:space="preserve"><tspan
         style="font-style:normal;font-variant:normal;font-weight:500;font-stretch:normal;font-family:'CMU Serif';-inkscape-font-specification:'CMU Serif Medium'"
         y="406.5759"
         x="146.32523"
         id="tspan12960"
         sodipodi:role="line"><tspan
           id="tspan12962"
           style="font-style:italic">t</tspan></tspan></text>
    <text
       sodipodi:linespacing="125%"
       id="text12968"
       y="368.82144"
       x="59.452114"
       style="color:#000000;font-style:normal;font-variant:normal;font-weight:normal;font-stretch:normal;font-size:12.5px;line-height:125%;font-family:'Times New Roman';-inkscape-font-specification:'Times New Roman, ';text-indent:0;text-align:start;text-decoration:none;text-decoration-line:none;text-decoration-style:solid;text-decoration-color:#000000;letter-spacing:0px;word-spacing:0px;text-transform:none;direction:ltr;block-progression:tb;writing-mode:lr-tb;baseline-shift:baseline;text-anchor:start;white-space:normal;clip-rule:nonzero;display:inline;overflow:visible;visibility:visible;opacity:1;isolation:auto;mix-blend-mode:normal;color-interpolation:sRGB;color-interpolation-filters:linearRGB;solid-color:#000000;solid-opacity:1;fill:#000000;fill-opacity:1;fill-rule:nonzero;stroke:none;stroke-width:0.5;stroke-linecap:butt;stroke-linejoin:miter;stroke-miterlimit:4;stroke-dasharray:none;stroke-dashoffset:0;stroke-opacity:1;color-rendering:auto;image-rendering:auto;shape-rendering:auto;text-rendering:auto;enable-background:accumulate"
       xml:space="preserve"><tspan
         style="font-style:normal;font-variant:normal;font-weight:500;font-stretch:normal;font-family:'CMU Serif';-inkscape-font-specification:'CMU Serif Medium'"
         y="368.82144"
         x="59.452114"
         id="tspan12970"
         sodipodi:role="line"><tspan
   id="tspan12972"
   style="font-style:italic;-inkscape-font-specification:'CMU Serif Medium Italic';font-family:'CMU Serif';font-weight:500;font-stretch:normal;font-variant:normal">f</tspan>(<tspan
   id="tspan12976"
   style="font-style:italic">t</tspan>)</tspan></text>
  </g>
</svg>
