<?xml version="1.0" encoding="UTF-8" standalone="no"?>
<!-- Created with Inkscape (http://www.inkscape.org/) -->

<svg
   xmlns:dc="http://purl.org/dc/elements/1.1/"
   xmlns:cc="http://creativecommons.org/ns#"
   xmlns:rdf="http://www.w3.org/1999/02/22-rdf-syntax-ns#"
   xmlns:svg="http://www.w3.org/2000/svg"
   xmlns="http://www.w3.org/2000/svg"
   xmlns:sodipodi="http://sodipodi.sourceforge.net/DTD/sodipodi-0.dtd"
   xmlns:inkscape="http://www.inkscape.org/namespaces/inkscape"
   id="svg2"
   version="1.1"
   inkscape:version="0.91 r13725"
   xml:space="preserve"
   width="333.41562"
   height="181.15776"
   viewBox="0 0 333.41562 181.15776"
   sodipodi:docname="v6-synthes.svg"><metadata
     id="metadata8"><rdf:RDF><cc:Work
         rdf:about=""><dc:format>image/svg+xml</dc:format><dc:type
           rdf:resource="http://purl.org/dc/dcmitype/StillImage" /><dc:title></dc:title></cc:Work></rdf:RDF></metadata><defs
     id="defs6"><marker
       inkscape:stockid="Arrow1Mend"
       orient="auto"
       refY="0"
       refX="0"
       id="marker5122"
       style="overflow:visible"
       inkscape:isstock="true"><path
         id="path5124"
         d="M 0,0 5,-5 -12.5,0 5,5 0,0 Z"
         style="fill:#000000;fill-opacity:1;fill-rule:evenodd;stroke:#000000;stroke-width:1pt;stroke-opacity:1"
         transform="matrix(-0.4,0,0,-0.4,-4,0)"
         inkscape:connector-curvature="0" /></marker><marker
       inkscape:isstock="true"
       style="overflow:visible"
       id="marker5040"
       refX="0"
       refY="0"
       orient="auto"
       inkscape:stockid="Arrow1Mend"
       inkscape:collect="always"><path
         transform="matrix(-0.4,0,0,-0.4,-4,0)"
         style="fill:#000000;fill-opacity:1;fill-rule:evenodd;stroke:#000000;stroke-width:1pt;stroke-opacity:1"
         d="M 0,0 5,-5 -12.5,0 5,5 0,0 Z"
         id="path5042"
         inkscape:connector-curvature="0" /></marker><marker
       inkscape:stockid="Arrow1Mend"
       orient="auto"
       refY="0"
       refX="0"
       id="Arrow1Mend"
       style="overflow:visible"
       inkscape:isstock="true"
       inkscape:collect="always"><path
         id="path4573"
         d="M 0,0 5,-5 -12.5,0 5,5 0,0 Z"
         style="fill:#000000;fill-opacity:1;fill-rule:evenodd;stroke:#000000;stroke-width:1pt;stroke-opacity:1"
         transform="matrix(-0.4,0,0,-0.4,-4,0)"
         inkscape:connector-curvature="0" /></marker><marker
       inkscape:stockid="Arrow1Mstart"
       orient="auto"
       refY="0"
       refX="0"
       id="Arrow1Mstart"
       style="overflow:visible"
       inkscape:isstock="true"><path
         id="path4570"
         d="M 0,0 5,-5 -12.5,0 5,5 0,0 Z"
         style="fill:#000000;fill-opacity:1;fill-rule:evenodd;stroke:#000000;stroke-width:1pt;stroke-opacity:1"
         transform="matrix(0.4,0,0,0.4,4,0)"
         inkscape:connector-curvature="0" /></marker><clipPath
       clipPathUnits="userSpaceOnUse"
       id="clipPath20"><path
         d="m 117,60 0,3660 5368,0 0,-3660 -5368,0 z"
         id="path22"
         inkscape:connector-curvature="0" /></clipPath><clipPath
       clipPathUnits="userSpaceOnUse"
       id="clipPath34"><path
         d="m 47.0352,50.6797 5455.93,0 0,3668.64 -5455.93,0 0,-3668.64 z"
         id="path36"
         inkscape:connector-curvature="0" /></clipPath><clipPath
       clipPathUnits="userSpaceOnUse"
       id="clipPath52"><path
         d="m 4063.73,1536.95 131.695,0 0,141.102 -131.695,0 0,-141.102 z"
         id="path54"
         inkscape:connector-curvature="0" /></clipPath><clipPath
       clipPathUnits="userSpaceOnUse"
       id="clipPath62"><path
         d="m 47.0352,50.6797 5455.93,0 0,3668.64 -5455.93,0 0,-3668.64 z"
         id="path64"
         inkscape:connector-curvature="0" /></clipPath><clipPath
       clipPathUnits="userSpaceOnUse"
       id="clipPath72"><path
         d="m 56.4414,1678.05 65.8477,0 0,122.289 -65.8477,0 0,-122.289 z"
         id="path74"
         inkscape:connector-curvature="0" /></clipPath><clipPath
       clipPathUnits="userSpaceOnUse"
       id="clipPath82"><path
         d="m 47.0352,50.6797 5455.93,0 0,3668.64 -5455.93,0 0,-3668.64 z"
         id="path84"
         inkscape:connector-curvature="0" /></clipPath><clipPath
       clipPathUnits="userSpaceOnUse"
       id="clipPath94"><path
         d="m 1392.2,1678.05 65.8477,0 0,122.289 -65.8477,0 0,-122.289 z"
         id="path96"
         inkscape:connector-curvature="0" /></clipPath><clipPath
       clipPathUnits="userSpaceOnUse"
       id="clipPath104"><path
         d="m 47.0352,50.6797 5455.93,0 0,3668.64 -5455.93,0 0,-3668.64 z"
         id="path106"
         inkscape:connector-curvature="0" /></clipPath><clipPath
       clipPathUnits="userSpaceOnUse"
       id="clipPath170"><path
         d="m 2558.64,398.73 65.8477,0 0,122.285 -65.8477,0 0,-122.285 z"
         id="path172"
         inkscape:connector-curvature="0" /></clipPath><clipPath
       clipPathUnits="userSpaceOnUse"
       id="clipPath180"><path
         d="m 47.0352,50.6797 5455.93,0 0,3668.64 -5455.93,0 0,-3668.64 z"
         id="path182"
         inkscape:connector-curvature="0" /></clipPath><clipPath
       clipPathUnits="userSpaceOnUse"
       id="clipPath192"><path
         d="m 2473.98,1113.64 65.8477,0 0,122.289 -65.8477,0 0,-122.289 z"
         id="path194"
         inkscape:connector-curvature="0" /></clipPath><clipPath
       clipPathUnits="userSpaceOnUse"
       id="clipPath202"><path
         d="m 47.0352,50.6797 5455.93,0 0,3668.64 -5455.93,0 0,-3668.64 z"
         id="path204"
         inkscape:connector-curvature="0" /></clipPath></defs><sodipodi:namedview
     pagecolor="#ffffff"
     bordercolor="#666666"
     borderopacity="1"
     objecttolerance="10"
     gridtolerance="10"
     guidetolerance="10"
     inkscape:pageopacity="0"
     inkscape:pageshadow="2"
     inkscape:window-width="640"
     inkscape:window-height="480"
     id="namedview4"
     showgrid="false"
     fit-margin-top="0"
     fit-margin-left="0"
     fit-margin-right="0"
     fit-margin-bottom="0"
     inkscape:zoom="3.4811411"
     inkscape:cx="138.11181"
     inkscape:cy="108.44897"
     inkscape:current-layer="g10" /><g
     id="g10"
     inkscape:groupmode="layer"
     inkscape:label="ink_ext_XXXXXX"
     transform="matrix(1.25,0,0,-1.25,-107.74506,295.2442)"><path
       inkscape:connector-curvature="0"
       id="path24"
       style="fill:none;stroke:#000000;stroke-width:0.5;stroke-linecap:butt;stroke-linejoin:round;stroke-miterlimit:10;stroke-dasharray:2, 1;stroke-dashoffset:0;stroke-opacity:1"
       d="m 86.375932,225.75127 0.41743,-0.0236 0.36334,-0.0594 0.40846,-0.10951 0.41122,-0.15634 0.4092,-0.20096 0.37947,-0.22714 0.39292,-0.2758 0.40631,-0.32891 0.40503,-0.37167 0.41654,-0.42773 0.36692,-0.41482 0.41311,-0.50921 0.41481,-0.55567 0.39982,-0.5778 0.36289,-0.56009 0.43172,-0.70943 0.36563,-0.63716 0.42537,-0.78355 0.37645,-0.73008 0.41311,-0.84033 0.39332,-0.83811 0.41048,-0.91334 0.37689,-0.87278 0.40647,-0.97786 0.4223,-1.05456 0.36755,-0.95021 0.39705,-1.05862 0.41008,-1.12904 0.40126,-1.13789 0.3883,-1.13163 0.43098,-1.29165 0.38741,-1.19098 0.41352,-1.30272 0.37471,-1.20721 0.409638,-1.34844 0.38556,-1.29497 0.40299,-1.38014 0.39391,-1.37425 0.41238,-1.46495 0.39719,-1.43472 0.40632,-1.49039 0.40288,-1.50072 0.3701,-1.39748 0.42433,-1.62276 0.37948,-1.47012 0.40461,-1.58516 0.38712,-1.53317 0.4301,-1.72048 0.37227,-1.5033 0.42264,-1.72121 0.38508,-1.58074 0.42135,-1.74223 0.36344,-1.51252 0.41411,-1.73265 0.39982,-1.68177 0.39967,-1.6884 0.39827,-1.6884 0.3825,-1.62719 0.41351,-1.76362 0.39406,-1.68287 1.60275,-6.85501 0.39653,-1.69246 0.41407,-1.76399 0.3815,-1.62018 0.39063,-1.65375 0.43138,-1.81856 0.39044,-1.63825 0.39941,-1.66665 0.40617,-1.68434 0.37342,-1.53797 0.39794,-1.62756 0.39494,-1.60248 0.42245,-1.69836 0.37287,-1.48413 0.43009,-1.69467 0.3883,-1.51215 0.38379,-1.47896 0.41315,-1.57004 0.41466,-1.55467 0.377,-1.39438 0.401,-1.4585 0.39103,-1.40086 0.42389,-1.49261 0.36666,-1.26839 0.42131,-1.42981 0.3962,-1.31691 0.39214,-1.27686 0.39251,-1.25065 0.39989,-1.24589 0.42463,-1.28752 0.38881,-1.14984 0.38439,-1.10545 0.41023,-1.1484 0.40986,-1.11064 0.3674,-0.96673 0.43571,-1.10677 0.36444,-0.89387 0.42611,-1.00751 0.40691,-0.923 0.36333,-0.79117 0.40839,-0.852691 0.41134,-0.8178 0.40912,-0.77318 0.37958,-0.67986 0.39288,-0.66629 0.40617,-0.64829 0.40543,-0.60424 0.41614,-0.57742 0.36703,-0.47172 0.41318,-0.48871 0.41466,-0.44579 0.39989,-0.38598 0.36297,-0.31386 0.43165,-0.32754 0.36555,-0.23794 0.42537,-0.23132 0.37663,-0.16405 0.41318,-0.13554 0.39325,-0.0861 0.41023,-0.0447 0.377,-7.1e-4 0.40654,0.0431 0.42204,0.0919 0.36777,0.11999 0.39731,0.17024 0.40986,0.22138 0.40137,0.26013 0.38808,0.2931 0.4309,0.37249 0.38771,0.37706 0.41319,0.44638 0.37478,0.44332 0.40986,0.52673 0.38549,0.53524 0.40285,0.60047 0.39435,0.62713 0.41208,0.69815 0.39731,0.71253 0.40616,0.76858 0.40285,0.80223 0.37035,0.771051 0.4239,0.9241 0.37958,0.8619 0.40506,0.95523 0.3866,0.94892 0.43017,1.09265 0.3722,0.97841 0.42278,1.14678 0.38512,1.07724 0.42131,1.21307 0.36334,1.07521 0.41429,1.25596 0.39989,1.24375 0.39953,1.27296 0.39841,1.29659 0.38254,1.27156 0.41318,1.4023 0.39436,1.36286 0.41466,1.46049 0.37552,1.34486 0.41503,1.51019 0.39731,1.46916 0.39657,1.48696 0.41429,1.57447 0.38143,1.46864 0.39066,1.52137 0.43128,1.69983 0.39029,1.55529 0.39952,1.60581 0.40617,1.64747 0.37331,1.5269 0.39804,1.63973 0.39473,1.63788 0.42278,1.76289 0.37294,1.56377 0.4298,1.81414 0.38844,1.64305 0.38402,1.63124 0.41318,1.75957 0.41466,1.76989 1.59293,6.8126 0.36629,1.56672 0.4213,1.79607 0.3962,1.68472 0.39214,1.66296 0.39251,1.65816 0.40026,1.68398 0.42426,1.77579 0.38882,1.61871 0.38438,1.58774 0.4106,1.68508 0.40949,1.66849 0.36777,1.48487 0.43534,1.74223 0.36444,1.44357 0.42611,1.67033 0.40728,1.57521 0.36297,1.38973 0.40875,1.54312 0.41097,1.53096 0.40949,1.50108 0.37922,1.37019 0.39287,1.39601 0.40654,1.41849 0.40506,1.38752 0.41651,1.39895 0.36703,1.20758 0.41281,1.33074 0.41504,1.30529 0.39952,1.22712 0.36297,1.08775 0.43164,1.25957 0.36592,1.0376 0.425,1.17218 0.37663,1.00589 0.41356,1.06857 0.39324,0.98266 0.41023,0.98819 0.377,0.87388 0.40617,0.90596 0.42242,0.90007 0.3674,0.74851 0.3973,0.77212 0.41023,0.75699 0.401,0.70059 0.38845,0.63937 0.43091,0.66481 0.38733,0.55715 0.41356,0.55235 0.37515,0.46165 0.40949,0.46275 0.38549,0.39528 0.40285,0.37057 0.39362,0.32042 0.41281,0.29093 0.39694,0.23672 0.40654,0.19801 0.40284,0.15228 0.36999,0.10066 0.42426,0.0697 0.37958,0.0206 0.40432,-0.021 0.38734,-0.0619 0.43017,-0.11652 0.3722,-0.14196 0.42279,-0.20649 0.38512,-0.23008 0.42094,-0.29756 0.3637,-0.29535 0.41429,-0.37906 0.39953,-0.40928 0.39989,-0.45133 0.39805,-0.49114 0.3829,-0.51106 0.41319,-0.59475 0.39435,-0.6073 0.41466,-0.68177 0.37552,-0.65449 0.41503,-0.76364 0.39731,-0.77137 0.3962,-0.80715 0.41429,-0.8831 0.38143,-0.84918 0.39103,-0.90412 0.43091,-1.03907 0.39066,-0.97639 0.39952,-1.03354 0.40617,-1.0859 0.37331,-1.02875 0.39805,-1.12867 0.39472,-1.15154 0.42278,-1.26584 0.37257,-1.14527 0.43017,-1.35433 0.38845,-1.25072 0.38364,-1.26363 0.41319,-1.38752 0.41466,-1.42144 0.37737,-1.31747 0.40063,-1.42291 0.39103,-1.41186 0.42389,-1.55529 0.36666,-1.3654 0.42131,-1.59069 0.3962,-1.51473 0.39213,-1.51952 0.39251,-1.53723 0.39989,-1.58515 0.42463,-1.69762 0.38882,-1.57152 0.38438,-1.56414 0.4106,-1.68508 0.40949,-1.69357 0.36777,-1.52984 0.43571,-1.82299 0.36408,-1.5328 0.42647,-1.80086 0.40654,-1.72528 0.36334,-1.54496 0.40838,-1.74187 0.41134,-1.75699 1.58812,-6.79121 0.40506,-1.72896 0.41614,-1.77432 0.3674,-1.55861 0.41282,-1.74887 0.41466,-1.74814 0.39989,-1.67733 0.36297,-1.51474 0.43201,-1.79053 0.36556,-1.50626 0.425,-1.73928 0.37663,-1.52727 0.41318,-1.66075 0.39325,-1.56598 0.41023,-1.61724 0.377,-1.46864 0.40653,-1.56598 0.42242,-1.6047 0.36777,-1.37875 0.39694,-1.4683 0.41023,-1.4942 0.401,-1.43774 0.38844,-1.36761 0.43091,-1.49076 0.38734,-1.31389 0.41355,-1.37465 0.37478,-1.21982 0.40987,-1.30496 0.38549,-1.19936 0.40284,-1.22329 0.39399,-1.1658 0.41207,-1.18727 0.39731,-1.11064 0.40617,-1.10157 0.40285,-1.05796 0.37035,-0.94095 0.42389,-1.04095 0.37995,-0.89704 0.4047,-0.91979 0.38696,-0.84461 0.43017,-0.896191 0.3722,-0.74063 0.42242,-0.7991 0.38549,-0.69063 0.42131,-0.71282 0.36334,-0.5789 0.41392,-0.61832 0.39989,-0.55612 0.39989,-0.51363 0.39805,-0.47068 0.38254,-0.41283 0.41355,-0.40258 0.39398,-0.34136 0.41466,-0.31427 0.37553,-0.24457 0.41503,-0.22614 0.39767,-0.17269 0.3962,-0.12978 0.4143,-0.0894 0.38143,-0.0412 0.39066,-0.001 0.43127,0.0473 0.39066,0.0863 0.39916,0.13151 0.40654,0.17802 0.3733,0.2028 0.39768,0.25811 0.39509,0.29828 0.42242,0.36485 0.37293,0.36184 0.43017,0.46304 0.38808,0.45962 0.38401,0.49347 0.41319,0.57341 0.41466,0.61975 0.37737,0.60191 0.40063,0.67842 0.39066,0.70103 0.42426,0.80183 0.36666,0.72909 0.42094,0.877601 0.39657,0.8629 0.39214,0.8907 0.3925,0.92687 0.3999,0.98088 0.42463,1.07868 0.38918,1.02322 0.38365,1.04191 0.4106,1.14781 0.40986,1.17937 0.3674,1.0873 0.4357,1.32182 0.36445,1.13398 0.42648,1.35721 0.40653,1.32569 0.36334,1.20802 0.40876,1.38531 0.41096,1.42222 0.40913,1.44176 0.37921,1.35938 0.39288,1.4297 0.40654,1.50153 0.40506,1.51868 0.41687,1.58442 0.36666,1.41296 0.41319,1.6095 0.41503,1.63457 0.39952,1.59216 0.36297,1.45905 0.43165,1.75072 0.36555,1.49482 0.42537,1.75219 0.37663,1.56193 0.41318,1.72343 0.39325,1.65042 0.41023,1.73007 0.377,1.59548 0.40617,1.72638 0.42278,1.79902 0.36777,1.56857 1.59624,6.82882 0.43091,1.84143 0.38734,1.65152 0.41355,1.7592 0.37516,1.58885 0.40949,1.7308 0.38549,1.62166 0.40285,1.68656 0.39398,1.63936 0.41245,1.70536 0.3973,1.63052 0.40617,1.65411 0.40285,1.62645 0.37035,1.48081 0.42426,1.68066 0.37959,1.48671 0.40432,1.56782 0.38697,1.48229 0.43017,1.6235 0.3722,1.38642 0.42278,1.55049 0.38512,1.39084 0.42131,1.49593 0.36334,1.26842 0.41429,1.41923 0.39989,1.34364 0.39953,1.31525 0.39804,1.28243 0.38291,1.20464 0.41318,1.27174 0.39436,1.1814 0.41466,1.21016 0.37552,1.06562 0.41503,1.14416 0.39731,1.06157 0.39657,1.02506 0.41429,1.03391 0.38143,0.91813 0.39066,0.90633 0.43128,0.9598 0.39029,0.83111 0.39952,0.8123 0.40617,0.78687 0.37331,0.6873 0.39804,0.69506 0.39509,0.65006 0.42242,0.65191 0.37294,0.53761 0.4298,0.57558 0.38844,0.47787 0.38439,0.43436 0.41281,0.4233 0.41429,0.37942 0.37774,0.3053 0.40026,0.28245 0.3914,0.23377 0.42353,0.20686 0.36702,0.13975 0.42131,0.11504 0.39583,0.0645 0.39657,0.021" /><path
       inkscape:connector-curvature="0"
       id="path26"
       style="fill:none;stroke:#b3b3b3;stroke-width:0.75;stroke-linecap:butt;stroke-linejoin:round;stroke-miterlimit:10;stroke-dasharray:none;stroke-dashoffset:0;stroke-opacity:1"
       d="m 86.375932,208.57006 0.10428,0.009 0.10445,0.0265 0.10443,0.0443 0.10427,0.0619 0.1816,0.14712 0.18174,0.19579 0.40846,0.5966 0.41122,0.77027 0.4092,0.86246 0.37947,0.81156 0.39292,0.77949 0.40631,0.66703 0.2025,0.25885 0.20253,0.20095 0.10413,0.0793 0.10412,0.0619 0.10417,0.0439 0.10412,0.0262 0.18348,0.001 0.18344,-0.0557 0.20656,-0.12979 0.20655,-0.19801 0.41481,-0.58664 0.39982,-0.75811 0.36289,-0.79645 0.43172,-0.99556 0.36563,-0.80972 0.42537,-0.81342 0.37645,-0.53649 0.20655,-0.2017 0.20656,-0.12831 0.19673,-0.0498 0.19659,0.0229 0.20526,0.1025 0.20522,0.18031 0.18839,0.23267 0.1885,0.29203 0.40647,0.80751 0.4223,1.03207 0.36755,0.98081 0.39705,1.05567 0.41008,0.98487 0.40126,0.76142 0.19415,0.27139 0.19415,0.198 0.10774,0.0756 0.10775,0.0502 0.10774,0.024 0.10775,-0.003 0.0969,-0.0258 0.0968,-0.0472 0.0968,-0.0697 0.0969,-0.0915 0.20667,-0.26769 0.20685,-0.36209 0.37471,-0.87647 0.409638,-1.22159 0.38556,-1.30972 0.40299,-1.41849 0.39391,-1.30862 0.41238,-1.14747 0.19861,-0.43178 0.19858,-0.33407 0.10155,-0.12906 0.10169,-0.0992 0.10154,-0.0682 0.10154,-0.0358 0.10069,-0.003 0.10066,0.031 0.10069,0.0649 0.10084,0.0996 0.18503,0.2736 0.18507,0.38974 0.42433,1.31636 0.37948,1.62055 0.40461,2.0763 0.81722,4.59103 0.37227,1.88309 0.42264,1.64968 0.19256,0.50737 0.19252,0.31858 0.10546,0.0859 0.10527,0.0184 0.10531,-0.0527 0.10531,-0.12684 0.1817,-0.40302 0.18174,-0.64859 0.41411,-2.45572 0.39982,-3.73373 0.39967,-5.09471 0.39827,-6.3893 0.3825,-7.27204 0.41351,-8.93389 0.39406,-9.32695 0.41481,-10.3804 0.37545,-9.61899 0.41499,-10.55113 0.3975,-9.71743 0.39653,-9.02718 0.41407,-8.45015 0.3815,-6.70737 0.39063,-5.66689 0.43138,-4.75887 0.39044,-2.944471 0.39941,-1.72944 0.10155,-0.24616 0.10154,-0.17213 0.10154,-0.10095 0.10154,-0.033 0.0933,0.0275 0.0933,0.0801 0.0933,0.12975 0.0935,0.17718 0.39794,1.21997 0.39494,1.78515 0.42245,2.282641 0.37287,2.12177 0.43009,2.33983 0.3883,1.837 0.38379,1.43387 0.41315,1.02565 0.20715,0.2976 0.20751,0.15122 0.0945,0.0207 0.0938,-0.008 0.0945,-0.0369 0.0942,-0.0648 0.2005,-0.22541 0.2005,-0.33716 0.39103,-0.93034 0.42389,-1.30898 0.36666,-1.26908 0.42131,-1.47391 0.3962,-1.27569 0.39214,-1.05231 0.39251,-0.76382 0.19976,-0.26084 0.20013,-0.1678 0.21231,-0.0759 0.21232,0.0287 0.19422,0.11549 0.19459,0.19576 0.38439,0.59715 0.41023,0.88697 0.40986,1.04686 0.3674,0.98977 0.43571,1.12491 0.36444,0.81928 0.42611,0.73502 0.20345,0.24657 0.20346,0.17212 0.18166,0.088 0.18167,0.0256 0.10228,-0.0128 0.10192,-0.0323 0.10228,-0.0512 0.10191,-0.0704 0.20567,-0.19531 0.20567,-0.26287 0.40912,-0.69409 0.37958,-0.79291 0.39288,-0.89763 0.40617,-0.92569 0.40543,-0.83399 0.41614,-0.68502 0.18351,-0.22887 0.18352,-0.17787 0.10338,-0.0766 0.10302,-0.0591 0.10339,-0.0412 0.10339,-0.0233 0.20752,0.008 0.20714,0.0801 0.19976,0.14303 0.20013,0.20394 0.36297,0.50874 0.43165,0.78815 0.36555,0.76194 0.42537,0.9126 0.37663,0.75891 0.41318,0.70305 0.39325,0.48322 0.20493,0.16434 0.2053,0.099 0.18869,0.0308 0.18831,-0.0274 0.20308,-0.0936 0.20346,-0.1583 0.21084,-0.22887 0.2112,-0.28893 0.36777,-0.62252 0.39731,-0.79465 0.40986,-0.87974 0.40137,-0.83727 0.38808,-0.71342 0.4309,-0.60423 0.19386,-0.18868 0.19385,-0.13148 0.20678,-0.0725 0.20641,-7.4e-4 0.18757,0.0618 0.18721,0.11999 0.20493,0.19631 0.20493,0.2591 0.38549,0.63823 0.40285,0.8272 0.39435,0.8959 0.41208,0.94313 0.39731,0.82761 0.40616,0.68185 0.20124,0.25423 0.20161,0.18938 0.0923,0.0638 0.0927,0.0482 0.0927,0.0326 0.0927,0.0167 0.10598,-2.6e-4 0.10597,-0.0223 0.10634,-0.0434 0.10561,-0.0645 0.18979,-0.16751 0.18979,-0.23204 0.40506,-0.69093 0.3866,-0.86562 0.43017,-1.10994 0.3722,-1.00275 0.42278,-1.07768 0.38512,-0.83252 0.42131,-0.65002 0.18167,-0.17615 0.18167,-0.10545 0.20715,-0.0298 0.20714,0.07 0.19976,0.16276 0.20013,0.25523 0.39953,0.77101 0.39841,1.06757 0.38254,1.23037 0.41318,1.44537 0.39436,1.36415 0.41466,1.27915 0.37552,0.90124 0.20752,0.35575 0.20751,0.23724 0.0993,0.0684 0.0993,0.0372 0.0993,0.005 0.0993,-0.0271 0.19828,-0.15325 0.19829,-0.28749 0.41429,-1.02857 0.38143,-1.42302 0.39066,-1.8481 0.43128,-2.34677 0.39029,-2.22158 0.39952,-2.154731 0.40617,-1.83312 0.37331,-1.15331 0.0997,-0.19631 0.0993,-0.14288 0.0997,-0.086 0.0993,-0.0268 0.0986,0.0361 0.099,0.10025 0.099,0.16781 0.0982,0.23765 0.42278,1.85602 0.37294,2.843511 0.4298,4.7498 0.38844,5.62844 0.38402,6.75172 0.41318,8.42774 0.41466,9.45748 0.37737,9.23551 0.40026,10.18314 0.39103,10.01794 0.42427,10.60349 0.36629,8.69016 0.4213,9.1389 0.3962,7.54194 0.39214,6.29713 0.39251,5.02943 0.40026,3.77577 0.42426,2.53795 0.19459,0.68546 0.19423,0.4056 0.0964,0.10251 0.096,0.0413 0.096,-0.0177 0.096,-0.0737 0.2053,-0.33259 0.2053,-0.54719 0.40949,-1.60949 0.36777,-1.85765 0.43534,-2.44466 0.36444,-2.0516 0.42611,-2.19503 0.40728,-1.7227 0.36297,-1.13162 0.20456,-0.44727 0.20419,-0.30493 0.10302,-0.0999 0.10265,-0.0634 0.10302,-0.0284 0.10228,0.006 0.10265,0.0406 0.10228,0.0726 0.10228,0.10471 0.10228,0.13459 0.18979,0.32485 0.18943,0.41334 0.39287,1.08553 0.40654,1.34365 0.40506,1.42513 0.41651,1.41259 0.36703,1.09328 0.41281,0.96532 0.20752,0.35435 0.20752,0.25848 0.0997,0.0892 0.10007,0.0656 0.10006,0.0424 0.0997,0.0192 0.18167,-0.0247 0.1813,-0.0988 0.216,-0.20944 0.21564,-0.30088 0.36592,-0.68952 0.425,-1.01289 0.37663,-0.99852 0.41356,-1.10286 0.39324,-0.96201 0.41023,-0.823 0.377,-0.5317 0.20309,-0.184 0.20308,-0.10656 0.21121,-0.028 0.21121,0.0557 0.18388,0.11467 0.18352,0.1733 0.3973,0.55309 0.41023,0.77654 0.401,0.88605 0.38845,0.89601 0.43091,0.94468 0.38733,0.72455 0.41356,0.573 0.18721,0.17736 0.18794,0.12057 0.20419,0.0645 0.2053,-0.006 0.19238,-0.0704 0.19311,-0.13053 0.20124,-0.19763 0.20161,-0.25516 0.39362,-0.64011 0.41281,-0.81489 0.39694,-0.85029 0.40654,-0.8536 0.40284,-0.7522 0.36999,-0.54793 0.21194,-0.23377 0.21232,-0.16851 0.18979,-0.0907 0.18979,-0.0328 0.10117,0.007 0.10118,0.0232 0.10117,0.0398 0.1008,0.056 0.19386,0.15192 0.19348,0.20685 0.43017,0.63347 0.3722,0.69874 0.42279,0.88863 0.38512,0.82411 0.42094,0.83111 0.3637,0.59365 0.20715,0.26733 0.20714,0.20722 0.20014,0.13791 0.19939,0.0726 0.20013,0.006 0.19976,-0.0619 0.19902,-0.12795 0.19903,-0.19174 0.3829,-0.53133 0.41319,-0.77285 0.39435,-0.86283 0.41466,-0.95684 0.37552,-0.83148 0.41503,-0.79461 0.39731,-0.56452 0.19829,-0.19063 0.19791,-0.12279 0.20752,-0.0513 0.20677,0.0291 0.1909,0.0988 0.19053,0.16666 0.39103,0.54056 0.43091,0.8654 0.39066,0.95869 0.39952,1.06673 0.40617,1.0752 0.37331,0.89011 0.39805,0.75663 0.19717,0.27655 0.19755,0.20095 0.1056,0.0734 0.10561,0.049 0.1056,0.024 0.10597,-0.001 0.0931,-0.0232 0.0934,-0.0435 0.093,-0.0638 0.0931,-0.0841 0.21527,-0.27064 0.2149,-0.37352 0.38845,-0.91002 0.38364,-1.14453 0.41319,-1.40227 0.41466,-1.45869 0.37737,-1.24814 0.40063,-1.11392 0.1957,-0.42772 0.19533,-0.33333 0.10597,-0.13754 0.10597,-0.10509 0.10598,-0.0708 0.10597,-0.0354 0.0916,-0.001 0.0919,0.0262 0.0916,0.0542 0.0916,0.083 0.21047,0.29941 0.21084,0.45021 0.3962,1.23893 0.39213,1.67476 0.39251,2.01472 0.39989,2.24924 0.42463,2.3816 0.38882,1.95831 0.38438,1.5022 0.2053,0.55419 0.2053,0.34071 0.10228,0.0811 0.10228,0.0173 0.10228,-0.0498 0.10265,-0.1202 0.18352,-0.40044 0.18425,-0.65117 0.43571,-2.61465 0.36408,-3.40741 0.42647,-5.42323 0.40654,-6.57588 0.36334,-6.93097 0.40838,-8.81921 0.41134,-9.73661 0.40912,-10.25172 0.37959,-9.72149 0.39287,-9.99177 0.40654,-9.94346 0.40506,-9.21707 0.41614,-8.48172 0.3674,-6.45085 0.41282,-5.97526 0.41466,-4.54887 0.39989,-2.999931 0.36297,-1.59792 0.10819,-0.281 0.10745,-0.19661 0.10819,-0.11626 0.10818,-0.0386 0.0912,0.025 0.0912,0.0756 0.0916,0.12386 0.0916,0.16925 0.21268,0.55526 0.21232,0.75401 0.37663,1.71141 0.41318,2.229221 0.39325,2.23758 0.41023,2.23338 0.377,1.7967 0.40653,1.52863 0.42242,1.03948 0.18388,0.26474 0.18389,0.14908 0.0993,0.0333 0.099,4.4e-4 0.0993,-0.0313 0.0993,-0.062 0.20493,-0.22268 0.2053,-0.33963 0.401,-0.95279 0.38844,-1.19217 0.43091,-1.48977 0.38734,-1.35404 0.41355,-1.32915 0.37478,-1.00176 0.40987,-0.79118 0.19274,-0.24616 0.19275,-0.16003 0.20124,-0.0742 0.2016,0.0202 0.19681,0.10818 0.19718,0.19115 0.41207,0.63963 0.39731,0.8612 0.40617,1.03745 0.40285,1.08431 0.37035,0.95726 0.42389,0.95522 0.37995,0.65346 0.20198,0.25324 0.20272,0.17961 0.0964,0.059 0.0967,0.0416 0.0971,0.0235 0.0967,0.006 0.10745,-0.0138 0.10745,-0.0357 0.10746,-0.0569 0.10781,-0.0773 0.1861,-0.18079 0.1861,-0.23621 0.42242,-0.71094 0.38549,-0.80445 0.42131,-0.96386 0.36334,-0.8276 0.41392,-0.85501 0.39989,-0.66341 0.19976,-0.25265 0.20013,-0.19241 0.0993,-0.0722 0.0997,-0.0559 0.0993,-0.0392 0.0997,-0.0225 0.1909,0.004 0.19164,0.0652 0.20677,0.13769 0.20678,0.20324 0.39398,0.54977 0.41466,0.75792 0.37553,0.78211 0.41503,0.89069 0.39767,0.79985 0.3962,0.67318 0.4143,0.50442 0.1909,0.14952 0.19053,0.0929 0.19533,0.0347 0.19533,-0.0281 0.21564,-0.10269 0.21563,-0.17485 0.39066,-0.48514 0.39916,-0.68096 0.40654,-0.82027 0.3733,-0.80198 0.39768,-0.83067 0.39509,-0.72562 0.42242,-0.59273 0.18647,-0.18422 0.18646,-0.13104 0.10782,-0.0504 0.10708,-0.0308 0.10782,-0.0114 0.10745,0.008 0.0971,0.0243 0.0967,0.0399 0.0975,0.0555 0.0967,0.0711 0.19201,0.18525 0.192,0.24067 0.41319,0.68258 0.41466,0.857 0.37737,0.85987 0.40063,0.91651 0.39066,0.8168 0.42426,0.71242 0.18352,0.23204 0.18314,0.17857 0.10524,0.0766 0.1056,0.0566 0.10487,0.0367 0.10523,0.016 0.099,-0.004 0.0993,-0.0225 0.099,-0.0413 0.0993,-0.0597 0.1957,-0.17212 0.19644,-0.24097 0.3925,-0.67045 0.3999,-0.89535 0.42463,-1.09667 0.38918,-1.04711 0.38365,-0.98029 0.4106,-0.8903 0.40986,-0.63303 0.18388,-0.18001 0.18352,-0.10818 0.10929,-0.0281 0.10856,-0.001 0.10893,0.0264 0.10892,0.0542 0.18241,0.15295 0.18204,0.22961 0.42648,0.81953 0.40653,1.10028 0.36334,1.17274 0.40876,1.42723 0.41096,1.42218 0.40913,1.25728 0.37921,0.90394 0.19681,0.33432 0.19607,0.22828 0.10191,0.0732 0.10154,0.0406 0.10154,0.008 0.10155,-0.0264 0.20234,-0.15612 0.20272,-0.29613 0.41687,-1.04412 0.36666,-1.37034 0.41319,-1.95798 0.41503,-2.26148 0.39952,-2.27331 0.36297,-1.964911 0.43165,-1.96535 0.18277,-0.6424 0.18278,-0.49704 0.10634,-0.21331 0.10634,-0.15225 0.10672,-0.0877 0.10597,-0.0187 0.0945,0.0434 0.0938,0.10225 0.0942,0.16408 0.0942,0.22729 0.41318,1.79625 0.39325,2.999931 0.41023,4.53276 0.377,5.41753 0.40617,7.11602 0.42278,8.63272 0.36777,8.36236 0.39694,9.68056 0.40986,10.41617 0.40137,10.27975 0.38807,9.72775 0.43091,10.21043 0.38734,8.37121 0.41355,7.85573 0.37516,5.99772 0.40949,5.2267 0.38549,3.61058 0.40285,2.44318 0.1968,0.72418 0.19718,0.4351 0.10302,0.11873 0.10339,0.0479 0.10302,-0.0199 0.10302,-0.0844 0.19865,-0.33186 0.19865,-0.5317 0.40617,-1.5918 0.40285,-2.04533 0.37035,-2.07999 0.42426,-2.38713 0.37959,-1.95426 0.40432,-1.73707 0.38697,-1.22049 0.21527,-0.46644 0.2149,-0.30936 0.0931,-0.0852 0.0931,-0.0553 0.0934,-0.0265 0.0927,0.002 0.1056,0.0361 0.10634,0.0715 0.10524,0.10508 0.1056,0.13754 0.19238,0.32854 0.19274,0.41961 0.42131,1.17513 0.36334,1.20611 0.41429,1.4561 0.39989,1.3595 0.39953,1.19246 0.39804,0.92698 0.19164,0.33112 0.19127,0.25036 0.10302,0.0999 0.10375,0.0752 0.10339,0.0502 0.10302,0.0251 0.0986,7.4e-4 0.0986,-0.0214 0.0986,-0.0435 0.0986,-0.0649 0.20714,-0.20353 0.20752,-0.28835 0.37552,-0.70685 0.41503,-0.98745 0.39731,-1.05456 0.39657,-1.05788 0.41429,-1.00994 0.38143,-0.76363 0.19533,-0.309 0.19533,-0.24483 0.21564,-0.19137 0.21564,-0.10472 0.19533,-0.0188 0.19496,0.0531 0.19976,0.12611 0.19976,0.19432 0.40617,0.58443 0.37331,0.71459 0.39804,0.87831 0.39509,0.91186 0.42242,0.92587 0.37294,0.70243 0.4298,0.6025 0.19422,0.18326 0.19422,0.12278 0.19201,0.0594 0.19238,-0.003 0.10302,-0.0273 0.10301,-0.045 0.10339,-0.0623 0.10339,-0.0796 0.20752,-0.20796 0.20677,-0.26844 0.37774,-0.61983 0.40026,-0.79202 0.3914,-0.83664 0.42353,-0.89085 0.36702,-0.68841 0.42131,-0.62426 0.19792,-0.2146 0.19791,-0.15671 0.0993,-0.0557 0.099,-0.0398 0.0993,-0.0243 0.099,-0.008" /><path
       inkscape:connector-curvature="0"
       id="path28"
       style="fill:none;stroke:#000000;stroke-width:0.5;stroke-linecap:butt;stroke-linejoin:round;stroke-miterlimit:10;stroke-dasharray:none;stroke-opacity:1"
       d="m 86.375932,210.5092 0.41743,0.43252 0.36334,0.74925 0.10209,0.18621 0.10214,0.15007 0.10213,0.10472 0.1021,0.052 0.10268,-0.005 0.10288,-0.0616 0.10283,-0.11431 0.10283,-0.15966 0.20453,-0.40596 0.20467,-0.43105 0.18968,-0.32153 0.18979,-0.17035 0.0982,-0.014 0.0983,0.0391 0.0982,0.0896 0.0982,0.13495 0.20308,0.38348 0.20323,0.43804 0.2025,0.37721 0.20253,0.21792 0.10413,0.0291 0.10412,-0.031 0.10417,-0.0896 0.10412,-0.14233 0.18348,-0.34624 0.18344,-0.40302 0.20656,-0.41408 0.20655,-0.26327 0.10369,-0.0509 0.10372,0.0107 0.10372,0.0712 0.10368,0.12685 0.19991,0.36762 0.19991,0.44837 0.18145,0.38126 0.18144,0.27323 0.1079,0.0856 0.10789,0.0192 0.10804,-0.0487 0.10789,-0.11431 0.18274,-0.316 0.18289,-0.41113 0.21261,-0.48192 0.21276,-0.35288 0.0941,-0.0863 0.0942,-0.0343 0.0942,0.0192 0.094,0.0726 0.20655,0.32227 0.20656,0.47087 0.19673,0.47049 0.19659,0.37426 0.10253,0.12426 0.10273,0.0623 0.10254,-0.004 0.10268,-0.0704 0.18839,-0.28576 0.1885,-0.43068 0.20323,-0.51695 0.20324,-0.43805 0.10556,-0.15597 0.10561,-0.0903 0.10557,-0.0173 0.10556,0.0572 0.18378,0.26475 0.18377,0.4244 0.19847,0.53392 0.19858,0.4823 0.10257,0.18694 0.10239,0.12647 0.10258,0.0561 0.10254,-0.0184 0.20065,-0.24557 0.20061,-0.46791 0.3883,-1.07779 0.10774,-0.22788 0.10775,-0.15965 0.10774,-0.0789 0.10775,0.009 0.1937,0.23488 0.19371,0.46754 0.41352,1.24003 0.0936,0.21866 0.0937,0.16482 0.0937,0.10066 0.0936,0.0299 0.102418,-0.0513 0.1024,-0.13679 0.10242,-0.2146 0.1024,-0.27876 0.38556,-1.27875 0.2015,-0.52248 0.20149,-0.22603 0.0985,0.0217 0.0984,0.11099 0.0985,0.19469 0.0985,0.26769 0.41238,1.50257 0.19861,0.60618 0.19858,0.30052 0.10155,0.003 0.10169,-0.10435 0.10154,-0.20722 0.10154,-0.29793 0.40288,-1.65595 0.18503,-0.68436 0.18507,-0.40892 0.10615,-0.0671 0.10601,0.0671 0.10601,0.20059 0.10616,0.32226 0.18968,0.81194 0.1898,0.95795 0.20223,0.93694 0.20238,0.59918 0.0968,0.11025 0.0968,-0.0214 0.0968,-0.15486 0.0968,-0.28318 0.21505,-1.00958 0.21505,-1.29902 0.18606,-1.07152 0.18621,-0.75921 0.0528,-0.12906 0.0528,-0.0844 0.0529,-0.0376 0.0528,0.0118 0.10571,0.17257 0.10561,0.36614 0.19256,1.0966 0.19252,1.44946 0.21073,1.60249 0.21062,1.16223 0.0454,0.15192 0.0454,0.10914 0.0454,0.0638 0.0454,0.0173 0.091,-0.11136 0.0907,-0.30825 0.20715,-1.38089 0.20696,-2.06892 0.19991,-2.1766 0.19991,-1.77616 0.1,-0.56194 0.1,-0.26659 0.0499,-0.008 0.0499,0.0793 0.0501,0.17035 0.0499,0.2618 0.19906,1.92586 0.19921,3.09657 0.3825,6.75065 0.10327,1.30825 0.10343,0.80456 0.026,0.10509 0.0258,0.0627 0.0258,0.0181 0.0258,-0.0288 0.0517,-0.20465 0.0518,-0.41297 0.19703,-3.68322 0.19703,-7.29268 0.10372,-5.29492 0.10369,-6.23223 0.10372,-7.07182 0.10368,-7.7794 0.0939,-7.51871 0.0937,-7.83214 0.0939,-7.99916 0.0939,-8.01466 0.10372,-8.692 0.10387,-8.32697 0.10368,-7.77793 0.10372,-7.06824 0.19877,-11.1072 0.19873,-7.48413 0.19821,-3.802501 0.19832,-0.56994 0.20696,1.98479 0.20711,3.476541 0.3815,6.47809 0.19533,1.94345 0.1953,0.57684 0.2156,-0.84981 0.21578,-1.94588 0.39044,-4.07244 0.1998,-1.34468 0.19961,-0.44955 0.20309,0.47662 0.20308,1.20529 0.37342,2.84248 0.19891,1.13631 0.19903,0.52297 0.0493,0.0216 0.0493,-0.0212 0.0495,-0.0632 0.0493,-0.10298 0.0987,-0.3163 0.0988,-0.44159 0.42245,-2.48271 0.18651,-0.88871 0.18636,-0.48281 0.10759,-0.0574 0.10745,0.10497 0.1076,0.25538 0.10745,0.38141 0.3883,1.88136 0.19197,0.81655 0.19182,0.4845 0.10313,0.086 0.10358,-0.0419 0.10313,-0.16334 0.10331,-0.2712 0.20715,-0.77908 0.20751,-0.89808 0.18832,-0.71382 0.18868,-0.45471 0.10044,-0.10199 0.10006,0.002 0.10007,0.10468 0.10043,0.19808 0.1957,0.59601 0.19533,0.73801 0.21195,0.75029 0.21194,0.49704 0.0916,0.0998 0.0916,0.0226 0.0919,-0.0545 0.0916,-0.12805 0.21047,-0.52094 0.21084,-0.70276 0.19792,-0.64656 0.19828,-0.47101 0.0978,-0.13179 0.0979,-0.0537 0.0978,0.0271 0.0986,0.10468 0.19607,0.40792 0.19644,0.57817 0.19976,0.61529 0.20013,0.48669 0.10634,0.16261 0.10597,0.0813 0.10598,-0.005 0.10634,-0.0894 0.19422,-0.35564 0.19459,-0.52024 0.19238,-0.55077 0.19201,-0.45818 0.10228,-0.16895 0.10302,-0.10125 0.10228,-0.0274 0.10265,0.0478 0.20493,0.2983 0.20493,0.49188 0.18351,0.49605 0.18389,0.43731 0.10892,0.19255 0.10893,0.12444 0.10893,0.048 0.10893,-0.0317 0.18203,-0.21924 0.18241,-0.38083 0.21305,-0.53896 0.21306,-0.49045 0.10191,-0.17485 0.10154,-0.11998 0.10154,-0.0576 0.10192,0.008 0.18166,0.17198 0.18167,0.33675 0.40839,0.95597 0.10265,0.19214 0.10302,0.14402 0.10265,0.086 0.10302,0.0236 0.10228,-0.0409 0.10228,-0.10096 0.10265,-0.15439 0.10191,-0.19704 0.37958,-0.85947 0.0982,-0.18868 0.0982,-0.15051 0.0982,-0.10269 0.0982,-0.0493 0.10154,0.009 0.10154,0.0683 0.10155,0.12315 0.10154,0.16921 0.20271,0.42735 0.20272,0.45125 0.10376,0.20225 0.10412,0.16305 0.10413,0.11235 0.10413,0.0544 0.0919,-0.003 0.0916,-0.0507 0.0916,-0.0954 0.0919,-0.13425 0.2064,-0.40545 0.20678,-0.45298 0.20752,-0.37953 0.20714,-0.20151 0.10007,-0.0148 0.0997,0.0402 0.10007,0.0933 0.10006,0.13971 0.1813,0.34207 0.18167,0.39192 0.21564,0.41729 0.21601,0.24874 0.0916,0.0345 0.0912,-0.0111 0.0916,-0.0565 0.0912,-0.0985 0.21269,-0.35833 0.21268,-0.44956 0.18832,-0.37071 0.18831,-0.25697 0.10302,-0.0709 0.10339,-0.0138 0.10339,0.0444 0.10338,0.099 0.19644,0.31238 0.19681,0.40664 0.20493,0.4161 0.2053,0.29801 0.0942,0.0739 0.0945,0.0271 0.0942,-0.0212 0.0942,-0.068 0.20308,-0.28518 0.20346,-0.40718 0.21084,-0.43772 0.2112,-0.33056 0.0923,-0.0846 0.0919,-0.0413 0.0916,0.004 0.0919,0.0504 0.19866,0.2479 0.19865,0.383 0.20456,0.43568 0.2053,0.36065 0.10007,0.1187 0.10043,0.069 0.10044,0.0148 0.10043,-0.0402 0.19385,-0.22242 0.19423,-0.36412 0.21563,-0.46408 0.21527,-0.39505 0.0971,-0.12216 0.0967,-0.0759 0.0971,-0.0256 0.0967,0.0269 0.20678,0.22165 0.20641,0.39063 0.18757,0.41238 0.18721,0.37245 0.10265,0.15616 0.10228,0.10759 0.10265,0.0515 0.10228,-0.007 0.19275,-0.17142 0.19274,-0.33919 0.40285,-0.87617 0.0986,-0.16822 0.0986,-0.12588 0.0982,-0.0756 0.099,-0.0202 0.10265,0.0399 0.10302,0.10026 0.10339,0.15339 0.10302,0.1966 0.39731,0.89634 0.10154,0.18997 0.10117,0.14605 0.10191,0.0926 0.10154,0.0323 0.10081,-0.0298 0.10043,-0.0902 0.10081,-0.14506 0.1008,-0.18997 0.37035,-0.87141 0.21195,-0.40748 0.21195,-0.18521 0.0949,0.007 0.0949,0.0638 0.0953,0.11726 0.0945,0.16434 0.20234,0.46305 0.20272,0.51408 0.19312,0.41552 0.19348,0.23823 0.10782,0.031 0.10745,-0.0465 0.10745,-0.12113 0.10745,-0.18753 0.1861,-0.44089 0.1861,-0.50224 0.21157,-0.50468 0.21121,-0.29557 0.0964,-0.0382 0.096,0.0278 0.0967,0.0933 0.096,0.15325 0.21047,0.49877 0.21084,0.60527 0.18167,0.47702 0.18167,0.3264 0.10376,0.0887 0.10339,0.009 0.0517,-0.0266 0.0517,-0.0473 0.0517,-0.0665 0.0521,-0.085 0.19976,-0.47518 0.20013,-0.61113 0.19977,-0.59357 0.19976,-0.42245 0.0997,-0.10889 0.0993,-0.0291 0.0997,0.0537 0.0997,0.13455 0.1909,0.45368 0.19164,0.62064 0.20641,0.69498 0.20677,0.53351 0.0495,0.085 0.0491,0.0653 0.0495,0.0444 0.0491,0.0226 0.0986,-0.0222 0.0986,-0.1115 0.20714,-0.49491 0.20752,-0.73528 0.18794,-0.71064 0.18758,-0.58694 0.10376,-0.21822 0.10376,-0.11998 0.10375,-0.0111 0.10376,0.10096 0.19866,0.48311 0.19865,0.76411 0.19828,0.85958 0.19829,0.74092 0.10376,0.27223 0.10338,0.16404 0.10339,0.0419 0.10376,-0.087 0.19053,-0.48108 0.1909,-0.80917 0.39066,-1.89319 0.10782,-0.38182 0.10782,-0.25468 0.10782,-0.10369 0.10782,0.0601 0.19533,0.52127 0.19496,0.95766 0.39952,2.35484 0.10154,0.45641 0.10192,0.32466 0.0506,0.10372 0.0506,0.0614 0.0506,0.017 0.051,-0.0284 0.18684,-0.49532 0.18647,-1.04021 0.39804,-3.0125 0.19755,-1.16017 0.19718,-0.46754 0.21157,0.48554 0.21121,1.47863 0.37294,3.91916 0.2149,1.93571 0.2149,0.84287 0.19422,-0.57226 0.19422,-1.92225 0.38402,-6.5164 0.20641,-3.465741 0.20677,-1.98121 0.20715,0.66113 0.20751,4.223661 0.18869,7.33033 0.18868,10.58733 0.0997,6.7938 0.10043,7.46378 0.10007,7.99031 0.10006,8.35388 0.1957,16.67384 0.0978,8.17432 0.0975,7.84282 0.10598,7.95013 0.10597,7.20972 0.10597,6.32957 0.10635,5.34617 0.18277,6.7691 0.18352,3.63343 0.0528,0.50184 0.0528,0.28097 0.0524,0.0748 0.0528,-0.11615 0.10523,-0.73413 0.10523,-1.27764 0.3962,-6.95051 0.19607,-3.04937 0.19607,-1.91628 0.0491,-0.26548 0.0491,-0.17699 0.0491,-0.09 0.0487,-0.004 0.0982,0.23414 0.0982,0.52359 0.2005,1.73818 0.19976,2.17143 0.21232,2.13862 0.21194,1.42882 0.0484,0.19026 0.0487,0.13385 0.0487,0.0774 0.0487,0.0214 0.0971,-0.12021 0.0971,-0.3219 0.19237,-1.10507 0.19201,-1.46127 0.2053,-1.54939 0.2053,-1.14969 0.10228,-0.33591 0.10265,-0.15228 0.051,-0.006 0.0513,0.0398 0.051,0.0837 0.0513,0.12611 0.18389,0.74704 0.18388,1.05456 0.21785,1.31709 0.21749,1.02359 0.0912,0.26917 0.0916,0.1556 0.0908,0.0372 0.0908,-0.0796 0.21343,-0.59181 0.21268,-0.97934 0.20383,-1.02359 0.20345,-0.84033 0.0908,-0.2581 0.0908,-0.16704 0.0908,-0.0701 0.0905,0.0295 0.20456,0.40007 0.20419,0.74704 0.41097,1.67992 0.10265,0.28909 0.10228,0.19505 0.10228,0.0896 0.10228,-0.0195 0.18979,-0.30715 0.18943,-0.58222 0.39287,-1.44283 0.10191,-0.28945 0.10155,-0.21497 0.10154,-0.12684 0.10154,-0.0328 0.20235,0.21239 0.20271,0.51585 0.41651,1.3713 0.18351,0.42735 0.18352,0.18068 0.10302,-0.021 0.10376,-0.1073 0.10301,-0.18547 0.10302,-0.24889 0.41504,-1.24704 0.19976,-0.45759 0.19976,-0.19874 0.0912,0.01 0.0905,0.0715 0.0908,0.12942 0.0905,0.1792 0.43164,1.18141 0.18315,0.42698 0.18277,0.24594 0.10635,0.038 0.10634,-0.0424 0.10597,-0.1191 0.10634,-0.18621 0.18832,-0.448 0.18831,-0.50811 0.20678,-0.4904 0.20678,-0.29462 0.0982,-0.0468 0.0982,0.0177 0.0982,0.0815 0.0986,0.13864 0.20493,0.43141 0.2053,0.52065 0.18832,0.43694 0.18868,0.29682 0.10154,0.0778 0.10155,0.0122 0.10191,-0.0527 0.10117,-0.11431 0.21121,-0.39417 0.21121,-0.50589 0.18388,-0.41925 0.18352,-0.30493 0.0997,-0.0937 0.0993,-0.035 0.0993,0.0247 0.099,0.0826 0.2053,0.32706 0.20493,0.45759 0.2005,0.45575 0.2005,0.3466 0.0975,0.10103 0.0967,0.0483 0.0971,-0.007 0.0971,-0.0612 0.21527,-0.30641 0.21564,-0.45833 0.19385,-0.42957 0.19348,-0.34033 0.10339,-0.11615 0.10339,-0.059 0.10339,0.001 0.10339,0.0616 0.18721,0.24815 0.18794,0.37241 0.20419,0.44948 0.2053,0.37758 0.0964,0.12279 0.096,0.0771 0.0967,0.0262 0.0964,-0.0251 0.20124,-0.20981 0.20161,-0.36983 0.19681,-0.42515 0.19681,-0.38126 0.10338,-0.1497 0.10302,-0.1014 0.10339,-0.0461 0.10302,0.0122 0.19829,0.18031 0.19865,0.34402 0.20308,0.42994 0.20346,0.39749 0.1008,0.15155 0.1008,0.10766 0.10044,0.0564 0.1008,0.002 0.0923,-0.0468 0.0927,-0.0903 0.0923,-0.12906 0.0927,-0.16039 0.42426,-0.8643 0.0949,-0.15524 0.0949,-0.11983 0.0949,-0.0771 0.0949,-0.0302 0.10117,0.0217 0.10118,0.076 0.10117,0.125 0.1008,0.16556 0.38734,0.79387 0.10782,0.19469 0.10745,0.15449 0.10708,0.10325 0.10782,0.0435 0.0931,-0.0129 0.0931,-0.0594 0.0931,-0.10251 0.0931,-0.14012 0.21121,-0.41297 0.21158,-0.44579 0.19237,-0.32817 0.19275,-0.1722 0.10523,-0.0118 0.10561,0.049 0.10486,0.10619 0.10524,0.15634 0.18203,0.35287 0.18167,0.39306 0.20715,0.39086 0.20714,0.22861 0.0997,0.031 0.10044,-0.0243 0.0993,-0.0789 0.10007,-0.12832 0.20013,-0.36947 0.19976,-0.43841 0.19902,-0.39528 0.19903,-0.25294 0.096,-0.0502 0.0953,0.002 0.0956,0.0535 0.096,0.1025 0.20678,0.3573 0.20641,0.45943 0.19717,0.41851 0.19718,0.29424 0.10339,0.0778 0.10376,0.0162 0.10375,-0.0468 0.10376,-0.1073 0.18758,-0.32116 0.18794,-0.42219 0.20715,-0.47013 0.20788,-0.34882 0.0993,-0.0933 0.0993,-0.0361 0.0993,0.024 0.0993,0.083 0.19829,0.31858 0.19791,0.4528 0.20752,0.49446 0.20677,0.38311 0.0953,0.10767 0.0956,0.0542 0.0953,-0.004 0.0953,-0.0608 0.19533,-0.28834 0.1957,-0.44579 0.21564,-0.54682 0.21527,-0.44764 0.0978,-0.13163 0.0979,-0.0737 0.0975,-0.0111 0.0975,0.0524 0.19976,0.29166 0.19976,0.47382 0.20309,0.54682 0.20308,0.47049 0.0934,0.15413 0.0934,0.10103 0.0931,0.0424 0.0934,-0.0199 0.19902,-0.24225 0.19903,-0.46238 0.39472,-1.09475 0.1056,-0.22198 0.10561,-0.15671 0.1056,-0.0789 0.10597,0.006 0.18647,0.21459 0.1861,0.4351 0.43017,1.28723 0.0971,0.22714 0.0971,0.16924 0.0971,0.10066 0.0971,0.024 0.096,-0.0542 0.0956,-0.12869 0.0964,-0.19727 0.0956,-0.25516 0.41319,-1.36171 0.10375,-0.29166 0.10339,-0.22713 0.0524,-0.0833 0.0517,-0.0608 0.0517,-0.0376 0.0517,-0.0133 0.0945,0.0402 0.0942,0.12168 0.0945,0.1969 0.0942,0.26217 0.40063,1.46421 0.1957,0.60398 0.19533,0.31231 0.10597,0.0122 0.10597,-0.10435 0.10598,-0.21645 0.10597,-0.31489 0.36666,-1.50994 0.21047,-0.79608 0.21084,-0.44468 0.099,-0.0409 0.099,0.0767 0.0993,0.19211 0.099,0.2983 0.39213,1.82409 0.19607,0.90596 0.19644,0.58739 0.10007,0.11946 0.10006,-0.021 0.10007,-0.16335 0.0997,-0.30051 0.21232,-1.00884 0.21231,-1.28391 0.1946,-1.11208 0.19422,-0.7581 0.048,-0.10546 0.0484,-0.0678 0.048,-0.0284 0.048,0.0122 0.0956,0.14676 0.0964,0.30825 0.2053,1.13015 0.2053,1.54165 0.20456,1.55713 0.20493,1.14121 0.0458,0.15929 0.0462,0.11579 0.0458,0.0701 0.0458,0.0221 0.0462,-0.0269 0.0462,-0.0774 0.0458,-0.12795 0.0462,-0.17773 0.21786,-1.46532 0.21785,-2.20572 0.18204,-1.98154 0.18204,-1.6449 0.10671,-0.63568 0.10634,-0.30457 0.0535,-0.0118 0.0532,0.0892 0.0535,0.19211 0.0532,0.29646 0.20346,2.05491 0.20308,3.24038 0.36334,6.40921 0.10228,1.29608 0.10191,0.80567 0.0258,0.1084 0.0255,0.0671 0.0255,0.024 0.0255,-0.0214 0.051,-0.18621 0.051,-0.38827 0.20567,-3.82849 0.20567,-7.75802 0.10228,-5.32847 0.10228,-6.23297 0.10265,-7.0401 0.10191,-7.7182 0.0949,-7.62638 0.0953,-7.93464 0.18942,-16.18307 0.0982,-8.21118 0.0982,-7.87564 0.0982,-7.38413 0.0982,-6.75575 0.20309,-11.51999 0.20345,-7.74803 0.20235,-3.898291 0.20271,-0.53134 0.20789,2.05883 0.20825,3.528271 0.3674,6.24373 0.20641,2.05923 0.20641,0.53237 0.20751,-0.89173 0.20715,-1.88582 0.39989,-4.15223 0.18167,-1.22543 0.1813,-0.48801 0.21564,0.40719 0.21637,1.25326 0.36556,2.78905 0.21268,1.22156 0.21232,0.51924 0.0473,0.007 0.0469,-0.032 0.0473,-0.0694 0.0469,-0.10498 0.0942,-0.30984 0.0942,-0.42245 0.41318,-2.42925 0.19681,-0.94659 0.19644,-0.49565 0.10265,-0.0438 0.10302,0.10442 0.10228,0.24067 0.10228,0.35693 0.377,1.81826 0.20345,0.8838 0.20308,0.52098 0.10561,0.0846 0.1056,-0.0493 0.10561,-0.17544 0.1056,-0.28647 0.18388,-0.69136 0.18389,-0.79708 0.19828,-0.78111 0.19866,-0.51537 0.10228,-0.12068 0.10265,-0.0111 0.10228,0.0961 0.10302,0.19557 0.20013,0.60552 0.20087,0.75718 0.19422,0.6924 0.19422,0.48941 0.0539,0.0833 0.0539,0.0576 0.0535,0.0311 0.0539,0.004 0.0539,-0.0229 0.0539,-0.0488 0.0543,-0.0739 0.0535,-0.0971 0.19348,-0.50686 0.19386,-0.64929 0.20677,-0.67351 0.20678,-0.47762 0.0938,-0.11592 0.0934,-0.0444 0.0938,0.0295 0.0938,0.10025 0.20494,0.42795 0.20493,0.6088 0.19274,0.58956 0.19275,0.46522 0.10043,0.15598 0.10081,0.083 0.1008,0.005 0.1008,-0.0718 0.19681,-0.33672 0.19718,-0.51652 0.20604,-0.59213 0.20603,-0.48698 0.0993,-0.15715 0.0993,-0.0929 0.0993,-0.0236 0.0993,0.0465 0.20346,0.29414 0.20271,0.48524 0.20161,0.54243 0.20124,0.46305 0.0927,0.15269 0.0923,0.10225 0.0931,0.0473 0.0923,-0.0105 0.21231,-0.22987 0.21158,-0.44981 0.19016,-0.48252 0.18979,-0.44291 0.10081,-0.18422 0.10117,-0.13222 0.10154,-0.0717 0.10118,-0.007 0.19311,0.16261 0.19385,0.3542 0.43017,0.99928 0.0931,0.16752 0.0931,0.12735 0.0931,0.0794 0.0931,0.0281 0.10561,-0.0319 0.1056,-0.0975 0.1056,-0.15468 0.10561,-0.20151 0.38549,-0.87141 0.10487,-0.20037 0.1056,-0.15542 0.10523,-0.0989 0.10561,-0.036 0.0908,0.0212 0.0905,0.0683 0.0912,0.11176 0.0908,0.14879 0.41392,0.89416 0.19976,0.35663 0.20013,0.17762 0.10007,0.006 0.0997,-0.0506 0.10007,-0.10373 0.10006,-0.15021 0.19902,-0.3951 0.19903,-0.43697 0.1909,-0.35664 0.19164,-0.21117 0.10338,-0.0347 0.10339,0.0249 0.10339,0.0827 0.10339,0.13425 0.19718,0.36338 0.1968,0.42533 0.20752,0.39812 0.20714,0.24184 0.0942,0.0385 0.0938,-0.0101 0.0938,-0.0579 0.0938,-0.10199 0.20788,-0.35 0.20715,-0.43845 0.19865,-0.39163 0.19902,-0.26386 0.099,-0.0621 0.099,-0.009 0.0993,0.0441 0.099,0.0946 0.20715,0.33057 0.20715,0.43052 0.1909,0.384 0.19053,0.28012 0.0978,0.0813 0.0975,0.0312 0.0975,-0.0209 0.0978,-0.0707 0.21564,-0.30984 0.21563,-0.439 0.19533,-0.40099 0.19533,-0.30347 0.0997,-0.0919 0.0997,-0.0409 0.10006,0.0134 0.0997,0.067 0.20345,0.27957 0.20309,0.40619 0.18646,0.39406 0.18684,0.32392 0.0993,0.11796 0.0997,0.069 0.0993,0.016 0.0993,-0.0382 0.19754,-0.22485 0.19755,-0.37146 0.21158,-0.45501 0.21084,-0.38915 0.0934,-0.12043 0.0931,-0.0784 0.0934,-0.032 0.0931,0.0167 0.2149,0.21405 0.21527,0.40125 0.19386,0.42706 0.19422,0.38215 0.0964,0.14328 0.0956,0.10056 0.096,0.0517 0.096,-2.9e-4 0.20641,-0.17456 0.20678,-0.36655 0.20715,-0.46279 0.20751,-0.43211 0.0942,-0.15295 0.0945,-0.11235 0.0945,-0.0653 0.0942,-0.0142 0.10006,0.0423 0.10007,0.0988 0.10006,0.14923 0.10044,0.18996 0.39066,0.88351 0.10634,0.20151 0.10598,0.15439 0.10597,0.0964 0.10597,0.0305 0.0916,-0.0288 0.0919,-0.0786 0.0916,-0.12459 0.0916,-0.16434 0.42094,-0.9796 0.19828,-0.36943 0.19829,-0.17226 0.0978,0.004 0.0978,0.065 0.0982,0.12202 0.0982,0.17238 0.19607,0.45128 0.19643,0.49922 0.20013,0.43108 0.19977,0.24111 0.10597,0.0259 0.10634,-0.0496 0.10597,-0.12242 0.10635,-0.18625 0.19459,-0.46378 0.19459,-0.52485 0.19201,-0.45401 0.19164,-0.2813 0.10302,-0.0527 0.10228,0.0219 0.10265,0.0964 0.10265,0.16449 0.20493,0.48767 0.20493,0.58823 0.18388,0.48529 0.18352,0.33355 0.10929,0.0934 0.10856,0.004 0.10893,-0.0867 0.10892,-0.17212 0.18241,-0.44321 0.18204,-0.55567 0.21305,-0.63694 0.21343,-0.44491 0.10154,-0.10239 0.10154,-0.018 0.051,0.0236 0.051,0.0448 0.051,0.0658 0.0506,0.086 0.18167,0.44678 0.18167,0.59244 0.20419,0.68716 0.20457,0.53163 0.0513,0.0902 0.0513,0.0691 0.0513,0.0461 0.0513,0.0224 0.10301,-0.0284 0.10265,-0.12515 0.20457,-0.50441 0.20456,-0.73112 0.18979,-0.71629 0.18942,-0.58233 0.0986,-0.20047 0.0982,-0.11176 0.0982,-0.0138 0.0978,0.0864 0.20345,0.47662 0.20309,0.77547 0.20234,0.87761 0.20272,0.75231 0.10412,0.26803 0.10413,0.15785 0.1045,0.033 0.10412,-0.0971 0.18315,-0.47215 0.18351,-0.77547 0.41319,-1.98751 0.10376,-0.35317 0.10375,-0.23234 0.10339,-0.0916 0.10413,0.0604 0.19976,0.53797 0.19976,0.9914 0.36297,2.16195 0.10782,0.51331 0.10819,0.37219 0.0535,0.12201 0.0543,0.0743 0.0539,0.0246 0.0539,-0.0263 0.18277,-0.47245 0.18278,-0.99933 0.42537,-3.20143 0.18831,-1.07289 0.18832,-0.43182 0.20641,0.45859 0.20677,1.41311 0.39325,4.1178 0.20493,1.83139 0.2053,0.83425 0.18868,-0.47113 0.18832,-1.74987 0.40617,-6.81252 0.21121,-3.523671 0.21157,-1.93479 0.18352,0.56604 0.18425,3.336721 0.19828,7.12477 0.19866,10.76598 0.10228,6.83786 0.10265,7.5585 0.10228,8.12933 0.10265,8.52718 0.10043,8.54525 0.10044,8.56 0.10006,8.38965 0.10044,8.03936 0.0971,7.29047 0.0967,6.6758 0.0975,5.95163 0.0967,5.14264 0.21564,8.28935 0.21527,3.97377 0.0487,0.34513 0.0484,0.16519 0.0244,0.0181 0.024,-0.0221 0.024,-0.0612 0.0244,-0.0988 0.0971,-0.73266 0.0964,-1.18399 0.41355,-7.25028 0.18721,-2.86685 0.18795,-1.81635 0.051,-0.27913 0.0513,-0.18289 0.051,-0.087 0.0517,0.006 0.10191,0.27285 0.10265,0.58296 0.19275,1.71458 0.19274,2.09585 0.20124,2.04311 0.20161,1.42108 0.0986,0.37499 0.0982,0.14491 0.0495,-0.0133 0.0495,-0.0686 0.0491,-0.12168 0.0491,-0.17109 0.20641,-1.15818 0.20604,-1.57151 0.19865,-1.49076 0.19865,-1.10692 0.10155,-0.33518 0.10154,-0.1556 0.0506,-0.008 0.051,0.0361 0.0506,0.08 0.051,0.12168 0.20161,0.82742 0.20124,1.17661 0.18536,1.11614 0.18499,0.90485 0.10597,0.3503 0.10598,0.19911 0.10597,0.0395 0.10634,-0.11873 0.18943,-0.55678 0.19016,-0.86355 0.40432,-1.89121 0.0967,-0.29572 0.0971,-0.19468 0.0967,-0.0848 0.0964,0.028 0.21527,0.43289 0.2149,0.80604 0.3722,1.53095 0.1056,0.31231 0.10634,0.2135 0.10524,0.10213 0.1056,-0.014 0.19238,-0.30752 0.19274,-0.59107 0.42131,-1.52948 0.0908,-0.24409 0.0912,-0.18179 0.0908,-0.11098 0.0905,-0.035 0.0521,0.014 0.0517,0.0383 0.0517,0.0619 0.0517,0.0841 0.10339,0.22788 0.10376,0.2924 0.39989,1.32262 0.0997,0.27065 0.10006,0.20906 0.0997,0.1357 0.10007,0.0542 0.0997,-0.0288 0.0993,-0.10914 0.0997,-0.18068 0.0993,-0.23967 0.38291,-1.15523 0.20677,-0.50589 0.20641,-0.24225 0.0986,-0.003 0.0986,0.0712 0.0986,0.13938 0.0986,0.19801 0.20714,0.54682 0.20752,0.59328 0.18794,0.4421 0.18758,0.25148 0.10376,0.0358 0.10375,-0.0409 0.10376,-0.11393 0.10376,-0.1781 0.19865,-0.47123 0.19866,-0.53576 0.19828,-0.46497 0.19829,-0.2817 0.10375,-0.0494 0.10339,0.0221 0.10339,0.0922 0.10376,0.1545 0.19053,0.40892 0.1909,0.4845 0.19533,0.45649 0.19533,0.30825 0.10745,0.0785 0.10819,0.005 0.10782,-0.0682 0.10782,-0.13569 0.19533,-0.38016 0.19496,-0.46902 0.19976,-0.45316 0.19976,-0.31305 0.10154,-0.0789 0.10191,-0.0166 0.10118,0.0454 0.10154,0.10472 0.18684,0.32005 0.18647,0.42035 0.19902,0.45206 0.19902,0.34587 0.0986,0.10398 0.099,0.0498 0.0986,-0.007 0.099,-0.0638 0.21084,-0.30162 0.21158,-0.448 0.18647,-0.41556 0.18647,-0.33849 0.10745,-0.12979 0.10745,-0.0697 0.10782,-0.004 0.10708,0.0608 0.19422,0.25737 0.19422,0.38827 0.19201,0.42182 0.19238,0.35951 0.10302,0.13717 0.10301,0.0852 0.10339,0.0269 0.10339,-0.0321 0.20752,-0.23045 0.20677,-0.3927 0.18906,-0.40781 0.18868,-0.35988 0.10007,-0.14306 0.10006,-0.0974 0.10007,-0.0446 0.10006,0.01 0.1957,0.17183 0.1957,0.33296 0.21158,0.44763 0.21195,0.41298 0.0919,0.13716 0.0916,0.10067 0.0916,0.059 0.0919,0.014 0.10524,-0.0406 0.10523,-0.0977 0.10524,-0.14786 0.1056,-0.18768 0.39583,-0.81083 0.39657,-0.39417" /><path
       inkscape:connector-curvature="0"
       id="path38"
       style="fill:none;stroke:#000000;stroke-width:0.5;stroke-linecap:butt;stroke-linejoin:round;stroke-miterlimit:10;stroke-dasharray:none;stroke-opacity:1"
       d="m 111.01522,158.63335 0,-0.90191" /><path
       inkscape:connector-curvature="0"
       id="path40"
       style="fill:none;stroke:#000000;stroke-width:0.5;stroke-linecap:butt;stroke-linejoin:round;stroke-miterlimit:10;stroke-dasharray:none;stroke-opacity:1"
       d="m 160.29383,158.63335 0,-0.90191" /><path
       inkscape:connector-curvature="0"
       id="path42"
       style="fill:none;stroke:#000000;stroke-width:0.5;stroke-linecap:butt;stroke-linejoin:round;stroke-miterlimit:10;stroke-dasharray:none;stroke-opacity:1"
       d="m 209.5721,158.63335 0,-0.90191" /><path
       inkscape:connector-curvature="0"
       id="path44"
       style="fill:none;stroke:#000000;stroke-width:0.5;stroke-linecap:butt;stroke-linejoin:round;stroke-miterlimit:10;stroke-dasharray:none;stroke-opacity:1"
       d="m 258.85075,158.63335 0,-0.90191" /><path
       inkscape:connector-curvature="0"
       id="path46"
       style="fill:none;stroke:#000000;stroke-width:0.5;stroke-linecap:butt;stroke-linejoin:round;stroke-miterlimit:10;stroke-dasharray:none;stroke-opacity:1;marker-end:url(#marker5040)"
       d="m 86.375932,158.63335 197.114138,0" /><path
       inkscape:connector-curvature="0"
       id="path88"
       style="fill:none;stroke:#000000;stroke-width:0.5;stroke-linecap:butt;stroke-linejoin:round;stroke-miterlimit:10;stroke-dasharray:none;stroke-opacity:1"
       d="m 135.6545,158.63335 0,-2.13309" /><path
       inkscape:connector-curvature="0"
       id="path110"
       style="fill:none;stroke:#000000;stroke-width:0.5;stroke-linecap:butt;stroke-linejoin:round;stroke-miterlimit:10;stroke-dasharray:none;stroke-opacity:1"
       d="m 184.93315,158.63335 0,-2.13309" /><path
       inkscape:connector-curvature="0"
       id="path114"
       style="fill:none;stroke:#000000;stroke-width:0.5;stroke-linecap:butt;stroke-linejoin:round;stroke-miterlimit:10;stroke-dasharray:none;stroke-opacity:1"
       d="m 234.21143,158.63335 0,-2.13309" /><path
       inkscape:connector-curvature="0"
       id="path122"
       style="fill:none;stroke:#000000;stroke-width:0.5;stroke-linecap:butt;stroke-linejoin:round;stroke-miterlimit:10;stroke-dasharray:none;stroke-opacity:1"
       d="m 184.93315,95.375559 -0.90317,0" /><path
       inkscape:connector-curvature="0"
       id="path124"
       style="fill:none;stroke:#000000;stroke-width:0.5;stroke-linecap:butt;stroke-linejoin:round;stroke-miterlimit:10;stroke-dasharray:none;stroke-opacity:1"
       d="m 184.93315,100.64692 -0.90317,0" /><path
       inkscape:connector-curvature="0"
       id="path126"
       style="fill:none;stroke:#000000;stroke-width:0.5;stroke-linecap:butt;stroke-linejoin:round;stroke-miterlimit:10;stroke-dasharray:none;stroke-opacity:1"
       d="m 184.93315,111.18993 -0.90317,0" /><path
       inkscape:connector-curvature="0"
       id="path128"
       style="fill:none;stroke:#000000;stroke-width:0.5;stroke-linecap:butt;stroke-linejoin:round;stroke-miterlimit:10;stroke-dasharray:none;stroke-opacity:1"
       d="m 184.93315,116.46144 -0.90317,0" /><path
       inkscape:connector-curvature="0"
       id="path130"
       style="fill:none;stroke:#000000;stroke-width:0.5;stroke-linecap:butt;stroke-linejoin:round;stroke-miterlimit:10;stroke-dasharray:none;stroke-opacity:1"
       d="m 184.93315,121.73291 -0.90317,0" /><path
       inkscape:connector-curvature="0"
       id="path132"
       style="fill:none;stroke:#000000;stroke-width:0.5;stroke-linecap:butt;stroke-linejoin:round;stroke-miterlimit:10;stroke-dasharray:none;stroke-opacity:1"
       d="m 184.93315,127.00431 -0.90317,0" /><path
       inkscape:connector-curvature="0"
       id="path134"
       style="fill:none;stroke:#000000;stroke-width:0.5;stroke-linecap:butt;stroke-linejoin:round;stroke-miterlimit:10;stroke-dasharray:none;stroke-opacity:1"
       d="m 184.93315,137.54732 -0.90317,0" /><path
       inkscape:connector-curvature="0"
       id="path136"
       style="fill:none;stroke:#000000;stroke-width:0.5;stroke-linecap:butt;stroke-linejoin:round;stroke-miterlimit:10;stroke-dasharray:none;stroke-opacity:1"
       d="m 184.93315,142.81864 -0.90317,0" /><path
       inkscape:connector-curvature="0"
       id="path138"
       style="fill:none;stroke:#000000;stroke-width:0.5;stroke-linecap:butt;stroke-linejoin:round;stroke-miterlimit:10;stroke-dasharray:none;stroke-opacity:1"
       d="m 184.93315,148.09034 -0.90317,0" /><path
       inkscape:connector-curvature="0"
       id="path140"
       style="fill:none;stroke:#000000;stroke-width:0.5;stroke-linecap:butt;stroke-linejoin:round;stroke-miterlimit:10;stroke-dasharray:none;stroke-opacity:1"
       d="m 184.93315,153.36166 -0.90317,0" /><path
       inkscape:connector-curvature="0"
       id="path142"
       style="fill:none;stroke:#000000;stroke-width:0.5;stroke-linecap:butt;stroke-linejoin:round;stroke-miterlimit:10;stroke-dasharray:none;stroke-opacity:1"
       d="m 184.93315,163.90467 -0.90317,0" /><path
       inkscape:connector-curvature="0"
       id="path144"
       style="fill:none;stroke:#000000;stroke-width:0.5;stroke-linecap:butt;stroke-linejoin:round;stroke-miterlimit:10;stroke-dasharray:none;stroke-opacity:1"
       d="m 184.93315,169.176 -0.90317,0" /><path
       inkscape:connector-curvature="0"
       id="path146"
       style="fill:none;stroke:#000000;stroke-width:0.5;stroke-linecap:butt;stroke-linejoin:round;stroke-miterlimit:10;stroke-dasharray:none;stroke-opacity:1"
       d="m 184.93315,174.44769 -0.90317,0" /><path
       inkscape:connector-curvature="0"
       id="path148"
       style="fill:none;stroke:#000000;stroke-width:0.5;stroke-linecap:butt;stroke-linejoin:round;stroke-miterlimit:10;stroke-dasharray:none;stroke-opacity:1"
       d="m 184.93315,179.71901 -0.90317,0" /><path
       inkscape:connector-curvature="0"
       id="path150"
       style="fill:none;stroke:#000000;stroke-width:0.5;stroke-linecap:butt;stroke-linejoin:round;stroke-miterlimit:10;stroke-dasharray:none;stroke-opacity:1"
       d="m 184.93315,190.26203 -0.90317,0" /><path
       inkscape:connector-curvature="0"
       id="path152"
       style="fill:none;stroke:#000000;stroke-width:0.5;stroke-linecap:butt;stroke-linejoin:round;stroke-miterlimit:10;stroke-dasharray:none;stroke-opacity:1"
       d="m 184.93315,195.53335 -0.90317,0" /><path
       inkscape:connector-curvature="0"
       id="path154"
       style="fill:none;stroke:#000000;stroke-width:0.5;stroke-linecap:butt;stroke-linejoin:round;stroke-miterlimit:10;stroke-dasharray:none;stroke-opacity:1"
       d="m 184.93315,200.80504 -0.90317,0" /><path
       inkscape:connector-curvature="0"
       id="path156"
       style="fill:none;stroke:#000000;stroke-width:0.5;stroke-linecap:butt;stroke-linejoin:round;stroke-miterlimit:10;stroke-dasharray:none;stroke-opacity:1"
       d="m 184.93315,206.07636 -0.90317,0" /><path
       inkscape:connector-curvature="0"
       id="path158"
       style="fill:none;stroke:#000000;stroke-width:0.5;stroke-linecap:butt;stroke-linejoin:round;stroke-miterlimit:10;stroke-dasharray:none;stroke-opacity:1"
       d="m 184.93315,216.61938 -0.90317,0" /><path
       inkscape:connector-curvature="0"
       id="path160"
       style="fill:none;stroke:#000000;stroke-width:0.5;stroke-linecap:butt;stroke-linejoin:round;stroke-miterlimit:10;stroke-dasharray:none;stroke-opacity:1"
       d="m 184.93315,221.8907 -0.90317,0" /><path
       inkscape:connector-curvature="0"
       id="path162"
       style="fill:none;stroke:#000000;stroke-width:0.5;stroke-linecap:butt;stroke-linejoin:round;stroke-miterlimit:10;stroke-dasharray:none;stroke-opacity:1;marker-end:url(#marker5122)"
       d="m 184.93315,91.519199 0,139.919571"
       sodipodi:nodetypes="cc" /><path
       inkscape:connector-curvature="0"
       id="path164"
       style="fill:none;stroke:#000000;stroke-width:0.5;stroke-linecap:butt;stroke-linejoin:round;stroke-miterlimit:10;stroke-dasharray:none;stroke-opacity:1"
       d="m 184.93315,105.91843 -2.13608,0" /><path
       inkscape:connector-curvature="0"
       id="path186"
       style="fill:none;stroke:#000000;stroke-width:0.5;stroke-linecap:butt;stroke-linejoin:round;stroke-miterlimit:10;stroke-dasharray:none;stroke-opacity:1"
       d="m 184.93315,132.276 -2.13608,0" /><path
       inkscape:connector-curvature="0"
       id="path208"
       style="fill:none;stroke:#000000;stroke-width:0.5;stroke-linecap:butt;stroke-linejoin:round;stroke-miterlimit:10;stroke-dasharray:none;stroke-opacity:1"
       d="m 184.93315,158.63335 -2.13608,0" /><path
       inkscape:connector-curvature="0"
       id="path210"
       style="fill:none;stroke:#000000;stroke-width:0.5;stroke-linecap:butt;stroke-linejoin:round;stroke-miterlimit:10;stroke-dasharray:none;stroke-opacity:1"
       d="m 184.93315,184.9907 -2.13608,0" /><path
       inkscape:connector-curvature="0"
       id="path214"
       style="fill:none;stroke:#000000;stroke-width:0.5;stroke-linecap:butt;stroke-linejoin:round;stroke-miterlimit:10;stroke-dasharray:none;stroke-opacity:1"
       d="m 184.93315,211.34769 -2.13608,0" /><text
       xml:space="preserve"
       style="color:#000000;font-style:normal;font-variant:normal;font-weight:normal;font-stretch:normal;font-size:10px;line-height:125%;font-family:'Times New Roman';-inkscape-font-specification:'Times New Roman, ';text-indent:0;text-align:start;text-decoration:none;text-decoration-line:none;text-decoration-style:solid;text-decoration-color:#000000;letter-spacing:0px;word-spacing:0px;text-transform:none;direction:ltr;block-progression:tb;writing-mode:lr-tb;baseline-shift:baseline;text-anchor:start;white-space:normal;clip-rule:nonzero;display:inline;overflow:visible;visibility:visible;opacity:1;isolation:auto;mix-blend-mode:normal;color-interpolation:sRGB;color-interpolation-filters:linearRGB;solid-color:#000000;solid-opacity:1;fill:#000000;fill-opacity:1;fill-rule:nonzero;stroke:none;stroke-width:0.5;stroke-linecap:butt;stroke-linejoin:miter;stroke-miterlimit:4;stroke-dasharray:none;stroke-dashoffset:0;stroke-opacity:1;color-rendering:auto;image-rendering:auto;shape-rendering:auto;text-rendering:auto;enable-background:accumulate"
       x="224.52408"
       y="-147.07822"
       id="text4540"
       sodipodi:linespacing="125%"
       transform="scale(1,-1)"><tspan
         sodipodi:role="line"
         id="tspan4542"
         x="224.52408"
         y="-147.07822"
         style="font-style:normal;font-variant:normal;font-weight:500;font-stretch:normal;font-family:'CMU Serif';-inkscape-font-specification:'CMU Serif Medium'"><tspan
   style="font-style:italic"
   id="tspan4544">T</tspan>/2</tspan></text>
<text
       transform="scale(1,-1)"
       sodipodi:linespacing="125%"
       id="text4546"
       y="-147.07822"
       x="120.52372"
       style="color:#000000;font-style:normal;font-variant:normal;font-weight:normal;font-stretch:normal;font-size:10px;line-height:125%;font-family:'Times New Roman';-inkscape-font-specification:'Times New Roman, ';text-indent:0;text-align:start;text-decoration:none;text-decoration-line:none;text-decoration-style:solid;text-decoration-color:#000000;letter-spacing:0px;word-spacing:0px;text-transform:none;direction:ltr;block-progression:tb;writing-mode:lr-tb;baseline-shift:baseline;text-anchor:start;white-space:normal;clip-rule:nonzero;display:inline;overflow:visible;visibility:visible;opacity:1;isolation:auto;mix-blend-mode:normal;color-interpolation:sRGB;color-interpolation-filters:linearRGB;solid-color:#000000;solid-opacity:1;fill:#000000;fill-opacity:1;fill-rule:nonzero;stroke:none;stroke-width:0.5;stroke-linecap:butt;stroke-linejoin:miter;stroke-miterlimit:4;stroke-dasharray:none;stroke-dashoffset:0;stroke-opacity:1;color-rendering:auto;image-rendering:auto;shape-rendering:auto;text-rendering:auto;enable-background:accumulate"
       xml:space="preserve"><tspan
         style="font-style:normal;font-variant:normal;font-weight:500;font-stretch:normal;font-family:'CMU Serif';-inkscape-font-specification:'CMU Serif Medium'"
         y="-147.07822"
         x="120.52372"
         id="tspan4548"
         sodipodi:role="line"><tspan
   id="tspan4550"
   style="font-style:italic"><tspan
   style="font-style:normal"
   id="tspan4552"></tspan>T</tspan>/2</tspan></text>
<path
       style="opacity:1;fill:none;fill-opacity:1;fill-rule:nonzero;stroke:#000000;stroke-width:0.25;stroke-linecap:butt;stroke-linejoin:round;stroke-miterlimit:10;stroke-dasharray:none;stroke-dashoffset:0;stroke-opacity:1"
       d="m 208.65,221.325 10.0519,0"
       id="path4554"
       inkscape:connector-curvature="0"
       sodipodi:nodetypes="cc" /><path
       inkscape:connector-curvature="0"
       id="path4556"
       d="m 207.35,206.275 10.54757,0"
       style="opacity:1;fill:none;fill-opacity:1;fill-rule:nonzero;stroke:#000000;stroke-width:0.25;stroke-linecap:butt;stroke-linejoin:round;stroke-miterlimit:10;stroke-dasharray:none;stroke-dashoffset:0;stroke-opacity:1"
       sodipodi:nodetypes="cc" /><path
       inkscape:connector-curvature="0"
       id="path4558"
       d="m 216.72093,220.77806 0,-14.28775"
       style="opacity:1;fill:none;fill-opacity:1;fill-rule:nonzero;stroke:#000000;stroke-width:0.25;stroke-linecap:butt;stroke-linejoin:round;stroke-miterlimit:10;stroke-dasharray:none;stroke-dashoffset:0;stroke-opacity:1;marker-start:url(#Arrow1Mstart);marker-end:url(#Arrow1Mend)"
       sodipodi:nodetypes="cc" /><text
       xml:space="preserve"
       style="color:#000000;font-style:normal;font-variant:normal;font-weight:normal;font-stretch:normal;font-size:10px;line-height:125%;font-family:'Times New Roman';-inkscape-font-specification:'Times New Roman, ';text-indent:0;text-align:start;text-decoration:none;text-decoration-line:none;text-decoration-style:solid;text-decoration-color:#000000;letter-spacing:0px;word-spacing:0px;text-transform:none;direction:ltr;block-progression:tb;writing-mode:lr-tb;baseline-shift:baseline;text-anchor:start;white-space:normal;clip-rule:nonzero;display:inline;overflow:visible;visibility:visible;opacity:1;isolation:auto;mix-blend-mode:normal;color-interpolation:sRGB;color-interpolation-filters:linearRGB;solid-color:#000000;solid-opacity:1;fill:#000000;fill-opacity:1;fill-rule:nonzero;stroke:none;stroke-width:0.5;stroke-linecap:butt;stroke-linejoin:miter;stroke-miterlimit:4;stroke-dasharray:none;stroke-dashoffset:0;stroke-opacity:1;color-rendering:auto;image-rendering:auto;shape-rendering:auto;text-rendering:auto;enable-background:accumulate"
       x="219.29376"
       y="-210.68126"
       id="text5016"
       sodipodi:linespacing="125%"
       transform="scale(1,-1)"><tspan
         sodipodi:role="line"
         id="tspan5018"
         x="219.29376"
         y="-210.68126"><tspan
   style="font-size:51.99999809%;baseline-shift:sub"
   id="tspan5020"></tspan></tspan></text>
<text
       xml:space="preserve"
       style="color:#000000;font-style:normal;font-variant:normal;font-weight:normal;font-stretch:normal;font-size:10px;line-height:125%;font-family:'Times New Roman';-inkscape-font-specification:'Times New Roman, ';text-indent:0;text-align:start;text-decoration:none;text-decoration-line:none;text-decoration-style:solid;text-decoration-color:#000000;letter-spacing:0px;word-spacing:0px;text-transform:none;direction:ltr;block-progression:tb;writing-mode:lr-tb;baseline-shift:baseline;text-anchor:start;white-space:normal;clip-rule:nonzero;display:inline;overflow:visible;visibility:visible;opacity:1;isolation:auto;mix-blend-mode:normal;color-interpolation:sRGB;color-interpolation-filters:linearRGB;solid-color:#000000;solid-opacity:1;fill:#000000;fill-opacity:1;fill-rule:nonzero;stroke:none;stroke-width:0.5;stroke-linecap:butt;stroke-linejoin:miter;stroke-miterlimit:4;stroke-dasharray:none;stroke-dashoffset:0;stroke-opacity:1;color-rendering:auto;image-rendering:auto;shape-rendering:auto;text-rendering:auto;enable-background:accumulate"
       x="171.81924"
       y="-182.36443"
       id="text5022"
       sodipodi:linespacing="125%"
       transform="scale(1,-1)"><tspan
         sodipodi:role="line"
         id="tspan5024"
         x="171.81924"
         y="-182.36443"
         style="font-style:normal;font-variant:normal;font-weight:500;font-stretch:normal;font-size:8px;font-family:'CMU Serif';-inkscape-font-specification:'CMU Serif Medium'">0,5</tspan></text>
<text
       transform="scale(1,-1)"
       sodipodi:linespacing="125%"
       id="text5026"
       y="-129.44933"
       x="165.6577"
       style="color:#000000;font-style:normal;font-variant:normal;font-weight:normal;font-stretch:normal;font-size:10px;line-height:125%;font-family:'Times New Roman';-inkscape-font-specification:'Times New Roman, ';text-indent:0;text-align:start;text-decoration:none;text-decoration-line:none;text-decoration-style:solid;text-decoration-color:#000000;letter-spacing:0px;word-spacing:0px;text-transform:none;direction:ltr;block-progression:tb;writing-mode:lr-tb;baseline-shift:baseline;text-anchor:start;white-space:normal;clip-rule:nonzero;display:inline;overflow:visible;visibility:visible;opacity:1;isolation:auto;mix-blend-mode:normal;color-interpolation:sRGB;color-interpolation-filters:linearRGB;solid-color:#000000;solid-opacity:1;fill:#000000;fill-opacity:1;fill-rule:nonzero;stroke:none;stroke-width:0.5;stroke-linecap:butt;stroke-linejoin:miter;stroke-miterlimit:4;stroke-dasharray:none;stroke-dashoffset:0;stroke-opacity:1;color-rendering:auto;image-rendering:auto;shape-rendering:auto;text-rendering:auto;enable-background:accumulate"
       xml:space="preserve"><tspan
         style="font-style:normal;font-variant:normal;font-weight:500;font-stretch:normal;font-size:8px;font-family:'CMU Serif';-inkscape-font-specification:'CMU Serif Medium'"
         y="-129.44933"
         x="165.6577"
         id="tspan5028"
         sodipodi:role="line">0,5</tspan></text>
<text
       xml:space="preserve"
       style="color:#000000;font-style:normal;font-variant:normal;font-weight:normal;font-stretch:normal;font-size:10px;line-height:125%;font-family:'Times New Roman';-inkscape-font-specification:'Times New Roman, ';text-indent:0;text-align:start;text-decoration:none;text-decoration-line:none;text-decoration-style:solid;text-decoration-color:#000000;letter-spacing:0px;word-spacing:0px;text-transform:none;direction:ltr;block-progression:tb;writing-mode:lr-tb;baseline-shift:baseline;text-anchor:start;white-space:normal;clip-rule:nonzero;display:inline;overflow:visible;visibility:visible;opacity:1;isolation:auto;mix-blend-mode:normal;color-interpolation:sRGB;color-interpolation-filters:linearRGB;solid-color:#000000;solid-opacity:1;fill:#000000;fill-opacity:1;fill-rule:nonzero;stroke:none;stroke-width:0.5;stroke-linecap:butt;stroke-linejoin:miter;stroke-miterlimit:4;stroke-dasharray:none;stroke-dashoffset:0;stroke-opacity:1;color-rendering:auto;image-rendering:auto;shape-rendering:auto;text-rendering:auto;enable-background:accumulate"
       x="171.93416"
       y="-103.96423"
       id="text5030"
       sodipodi:linespacing="125%"
       transform="scale(1,-1)"><tspan
         sodipodi:role="line"
         id="tspan5032"
         x="171.93416"
         y="-103.96423"
         style="font-style:normal;font-variant:normal;font-weight:500;font-stretch:normal;font-size:8px;font-family:'CMU Serif';-inkscape-font-specification:'CMU Serif Medium'">1</tspan></text>
<path
       style="opacity:1;fill:none;fill-opacity:1;fill-rule:nonzero;stroke:#000000;stroke-width:0.75;stroke-linecap:butt;stroke-linejoin:round;stroke-miterlimit:10;stroke-dasharray:3, 1.5;stroke-dashoffset:0;stroke-opacity:1"
       d="m 297.14395,213.03359 22.06173,0"
       id="path5074"
       inkscape:connector-curvature="0" /><path
       inkscape:connector-curvature="0"
       id="path5076"
       d="m 297.14395,200.23359 22.06173,0"
       style="opacity:1;fill:#999999;fill-opacity:1;fill-rule:nonzero;stroke:#999999;stroke-width:0.75;stroke-linecap:butt;stroke-linejoin:round;stroke-miterlimit:10;stroke-dasharray:none;stroke-dashoffset:0;stroke-opacity:1" /><path
       style="opacity:1;fill:none;fill-opacity:1;fill-rule:nonzero;stroke:#000000;stroke-width:0.75;stroke-linecap:butt;stroke-linejoin:round;stroke-miterlimit:10;stroke-dasharray:none;stroke-dashoffset:0;stroke-opacity:1"
       d="m 297.14395,187.43359 22.06173,0"
       id="path5078"
       inkscape:connector-curvature="0" /><text
       xml:space="preserve"
       style="color:#000000;font-style:normal;font-variant:normal;font-weight:normal;font-stretch:normal;font-size:10px;line-height:125%;font-family:'Times New Roman';-inkscape-font-specification:'Times New Roman, ';text-indent:0;text-align:start;text-decoration:none;text-decoration-line:none;text-decoration-style:solid;text-decoration-color:#000000;letter-spacing:0px;word-spacing:0px;text-transform:none;direction:ltr;block-progression:tb;writing-mode:lr-tb;baseline-shift:baseline;text-anchor:start;white-space:normal;clip-rule:nonzero;display:inline;overflow:visible;visibility:visible;opacity:1;isolation:auto;mix-blend-mode:normal;color-interpolation:sRGB;color-interpolation-filters:linearRGB;solid-color:#000000;solid-opacity:1;fill:#000000;fill-opacity:1;fill-rule:nonzero;stroke:none;stroke-width:0.5;stroke-linecap:butt;stroke-linejoin:miter;stroke-miterlimit:4;stroke-dasharray:none;stroke-dashoffset:0;stroke-opacity:1;color-rendering:auto;image-rendering:auto;shape-rendering:auto;text-rendering:auto;enable-background:accumulate"
       x="324.03168"
       y="-210.50568"
       id="text5080"
       sodipodi:linespacing="125%"
       transform="scale(1,-1)"><tspan
         sodipodi:role="line"
         id="tspan5082"
         x="324.03168"
         y="-210.50568"
         style="font-style:italic;font-variant:normal;font-weight:500;font-stretch:normal;font-family:'CMU Serif';-inkscape-font-specification:'CMU Serif Medium Italic'">k <tspan
   style="font-style:normal"
   id="tspan5102">= 1</tspan></tspan></text>
<text
       transform="scale(1,-1)"
       sodipodi:linespacing="125%"
       id="text5104"
       y="-197.70563"
       x="324.03168"
       style="color:#000000;font-style:normal;font-variant:normal;font-weight:normal;font-stretch:normal;font-size:10px;line-height:125%;font-family:'Times New Roman';-inkscape-font-specification:'Times New Roman, ';text-indent:0;text-align:start;text-decoration:none;text-decoration-line:none;text-decoration-style:solid;text-decoration-color:#000000;letter-spacing:0px;word-spacing:0px;text-transform:none;direction:ltr;block-progression:tb;writing-mode:lr-tb;baseline-shift:baseline;text-anchor:start;white-space:normal;clip-rule:nonzero;display:inline;overflow:visible;visibility:visible;opacity:1;isolation:auto;mix-blend-mode:normal;color-interpolation:sRGB;color-interpolation-filters:linearRGB;solid-color:#000000;solid-opacity:1;fill:#000000;fill-opacity:1;fill-rule:nonzero;stroke:none;stroke-width:0.5;stroke-linecap:butt;stroke-linejoin:miter;stroke-miterlimit:4;stroke-dasharray:none;stroke-dashoffset:0;stroke-opacity:1;color-rendering:auto;image-rendering:auto;shape-rendering:auto;text-rendering:auto;enable-background:accumulate"
       xml:space="preserve"><tspan
         style="font-style:italic;font-variant:normal;font-weight:500;font-stretch:normal;font-family:'CMU Serif';-inkscape-font-specification:'CMU Serif Medium Italic'"
         y="-197.70563"
         x="324.03168"
         id="tspan5106"
         sodipodi:role="line">k <tspan
   id="tspan5108"
   style="font-style:normal">= 6</tspan></tspan></text>
<text
       xml:space="preserve"
       style="color:#000000;font-style:normal;font-variant:normal;font-weight:normal;font-stretch:normal;font-size:10px;line-height:125%;font-family:'Times New Roman';-inkscape-font-specification:'Times New Roman, ';text-indent:0;text-align:start;text-decoration:none;text-decoration-line:none;text-decoration-style:solid;text-decoration-color:#000000;letter-spacing:0px;word-spacing:0px;text-transform:none;direction:ltr;block-progression:tb;writing-mode:lr-tb;baseline-shift:baseline;text-anchor:start;white-space:normal;clip-rule:nonzero;display:inline;overflow:visible;visibility:visible;opacity:1;isolation:auto;mix-blend-mode:normal;color-interpolation:sRGB;color-interpolation-filters:linearRGB;solid-color:#000000;solid-opacity:1;fill:#000000;fill-opacity:1;fill-rule:nonzero;stroke:none;stroke-width:0.5;stroke-linecap:butt;stroke-linejoin:miter;stroke-miterlimit:4;stroke-dasharray:none;stroke-dashoffset:0;stroke-opacity:1;color-rendering:auto;image-rendering:auto;shape-rendering:auto;text-rendering:auto;enable-background:accumulate"
       x="324.03168"
       y="-184.90558"
       id="text5110"
       sodipodi:linespacing="125%"
       transform="scale(1,-1)"><tspan
         sodipodi:role="line"
         id="tspan5112"
         x="324.03168"
         y="-184.90558"
         style="font-style:italic;font-variant:normal;font-weight:500;font-stretch:normal;font-family:'CMU Serif';-inkscape-font-specification:'CMU Serif Medium Italic'">k <tspan
   style="font-style:normal"
   id="tspan5114">= 20</tspan></tspan></text>
<text
       xml:space="preserve"
       style="color:#000000;font-style:normal;font-variant:normal;font-weight:normal;font-stretch:normal;font-size:10px;line-height:125%;font-family:'Times New Roman';-inkscape-font-specification:'Times New Roman, ';text-indent:0;text-align:start;text-decoration:none;text-decoration-line:none;text-decoration-style:solid;text-decoration-color:#000000;letter-spacing:0px;word-spacing:0px;text-transform:none;direction:ltr;block-progression:tb;writing-mode:lr-tb;baseline-shift:baseline;text-anchor:start;white-space:normal;clip-rule:nonzero;display:inline;overflow:visible;visibility:visible;opacity:1;isolation:auto;mix-blend-mode:normal;color-interpolation:sRGB;color-interpolation-filters:linearRGB;solid-color:#000000;solid-opacity:1;fill:#000000;fill-opacity:1;fill-rule:nonzero;stroke:none;stroke-width:0.5;stroke-linecap:butt;stroke-linejoin:miter;stroke-miterlimit:4;stroke-dasharray:none;stroke-dashoffset:0;stroke-opacity:1;color-rendering:auto;image-rendering:auto;shape-rendering:auto;text-rendering:auto;enable-background:accumulate"
       x="281.5343"
       y="-149.41101"
       id="text5162"
       sodipodi:linespacing="125%"
       transform="scale(1,-1)"><tspan
         sodipodi:role="line"
         id="tspan5164"
         x="281.5343"
         y="-149.41101"
         style="font-style:italic;font-variant:normal;font-weight:500;font-stretch:normal;font-family:'CMU Serif';-inkscape-font-specification:'CMU Serif Medium Italic'">t</tspan></text>
<text
       transform="scale(1,-1)"
       sodipodi:linespacing="125%"
       id="text5166"
       y="-228.69536"
       x="187.54213"
       style="color:#000000;font-style:normal;font-variant:normal;font-weight:normal;font-stretch:normal;font-size:10px;line-height:125%;font-family:'Times New Roman';-inkscape-font-specification:'Times New Roman, ';text-indent:0;text-align:start;text-decoration:none;text-decoration-line:none;text-decoration-style:solid;text-decoration-color:#000000;letter-spacing:0px;word-spacing:0px;text-transform:none;direction:ltr;block-progression:tb;writing-mode:lr-tb;baseline-shift:baseline;text-anchor:start;white-space:normal;clip-rule:nonzero;display:inline;overflow:visible;visibility:visible;opacity:1;isolation:auto;mix-blend-mode:normal;color-interpolation:sRGB;color-interpolation-filters:linearRGB;solid-color:#000000;solid-opacity:1;fill:#000000;fill-opacity:1;fill-rule:nonzero;stroke:none;stroke-width:0.5;stroke-linecap:butt;stroke-linejoin:miter;stroke-miterlimit:4;stroke-dasharray:none;stroke-dashoffset:0;stroke-opacity:1;color-rendering:auto;image-rendering:auto;shape-rendering:auto;text-rendering:auto;enable-background:accumulate"
       xml:space="preserve"><tspan
         style="font-style:italic;font-variant:normal;font-weight:500;font-stretch:normal;font-family:'CMU Serif';-inkscape-font-specification:'CMU Serif Medium Italic'"
         y="-228.69536"
         x="187.54213"
         id="tspan5168"
         sodipodi:role="line">f<tspan
   style="font-style:normal"
   id="tspan5174">(</tspan>t<tspan
   style="font-style:normal"
   id="tspan5172">)</tspan></tspan></text>
</g></svg>