<?xml version="1.0" encoding="UTF-8" standalone="no"?>
<svg
   xmlns:dc="http://purl.org/dc/elements/1.1/"
   xmlns:cc="http://creativecommons.org/ns#"
   xmlns:rdf="http://www.w3.org/1999/02/22-rdf-syntax-ns#"
   xmlns:svg="http://www.w3.org/2000/svg"
   xmlns="http://www.w3.org/2000/svg"
   viewBox="0 0 233.77333 304.62668"
   height="304.62668"
   width="233.77333"
   xml:space="preserve"
   id="svg2"
   version="1.1"><metadata
     id="metadata8"><rdf:RDF><cc:Work
         rdf:about=""><dc:format>image/svg+xml</dc:format><dc:type
           rdf:resource="http://purl.org/dc/dcmitype/StillImage" /></cc:Work></rdf:RDF></metadata><defs
     id="defs6" /><g
     transform="matrix(1.3333333,0,0,-1.3333333,0,304.62667)"
     id="g10"><g
       transform="scale(0.1)"
       id="g12"><path
         id="path14"
         style="fill:none;stroke:#231f20;stroke-width:10.0010004;stroke-linecap:butt;stroke-linejoin:miter;stroke-miterlimit:2.61310005;stroke-dasharray:none;stroke-opacity:1"
         d="M 960.625,892.461 C 1242.09,874.074 1457.73,764.777 1457.73,636.086 m -11.34,-55.168 C 1391.91,460.383 1151.31,372.539 876.641,372.539 c -220.18,0 -426.735,57.207 -522.075,146.074 M 300.09,605.43 c 0,8.175 -4.543,19.414 -4.543,28.605 0,144.024 261.039,261.492 581.094,261.492 9.086,0 18.164,0 27.246,0 m 60.644,26.719 C 1292.85,902.48 1538.44,775.676 1538.44,626.77 c 0,-27.922 -12.91,-59.329 -28.44,-84.922 M 297.566,482.52 c -51.699,43.039 -82.722,94.226 -82.722,144.25 0,164.031 297.289,297.812 661.797,297.812 7.757,0 20.683,0 28.437,0 M 1455.72,482.52 C 1339.39,388.293 1117.05,328.957 876.641,328.957 c -204.223,0 -398.11,43.047 -522.203,115.164 m 726.502,589.599 c 388.14,-44.13 667.34,-214.099 667.34,-406.95 0,-230.442 -391.56,-418.391 -871.639,-418.391 C 396.563,208.379 5,396.328 5,626.77 c 0,230.437 391.563,418.39 871.641,418.39 13.632,0 34.043,0 47.675,0 m 64.688,-3.28 c 3.398,0 27.246,-1.63 30.646,-1.63 m 728.63,-608.687 c 0,-1.641 0,-6.543 0,-8.172 C 1748.28,192.949 1356.72,5 876.641,5 396.563,5 5,192.949 5,423.391 c 0,1.629 0,4.89 0,6.531" /><path
         id="path16"
         style="fill:none;stroke:#231f20;stroke-width:5;stroke-linecap:butt;stroke-linejoin:miter;stroke-miterlimit:2.61310005;stroke-dasharray:none;stroke-opacity:1"
         d="M 702.301,1418.51 V 546.867 M 818.523,1621.89 v -217.91 l 0.008,-653.726 M 1109.08,1447.56 V 575.93" /><path
         id="path18"
         style="fill:#ffffff;fill-opacity:1;fill-rule:evenodd;stroke:none"
         d="m 876.641,1675.64 c 208.029,0 377.719,-76.35 377.719,-169.97 0,-93.62 -169.69,-169.97 -377.719,-169.97 -208.032,0 -377.703,76.35 -377.703,169.97 0,93.62 169.671,169.97 377.703,169.97 v 0" /><path
         id="path20"
         style="fill:none;stroke:#231f20;stroke-width:10.0010004;stroke-linecap:butt;stroke-linejoin:miter;stroke-miterlimit:2.61310005;stroke-dasharray:none;stroke-opacity:1"
         d="m 876.641,1675.64 c 208.029,0 377.719,-76.35 377.719,-169.97 0,-93.62 -169.69,-169.97 -377.719,-169.97 -208.032,0 -377.703,76.35 -377.703,169.97 0,93.62 169.671,169.97 377.703,169.97 z" /><path
         id="path22"
         style="fill:#231f20;fill-opacity:1;fill-rule:evenodd;stroke:none"
         d="m 702.313,575.93 c 16.007,0 29.054,-6.535 29.054,-14.532 0,-8 -13.047,-14.531 -29.054,-14.531 -16.004,0 -29.055,6.531 -29.055,14.531 0,7.997 13.051,14.532 29.055,14.532 v 0" /><path
         id="path24"
         style="fill:#231f20;fill-opacity:1;fill-rule:evenodd;stroke:none"
         d="m 818.531,779.309 c 16.004,0 29.059,-6.524 29.059,-14.532 0,-8 -13.055,-14.523 -29.059,-14.523 -16.004,0 -29.054,6.523 -29.054,14.523 0,8.008 13.05,14.532 29.054,14.532 v 0" /><path
         id="path26"
         style="fill:#231f20;fill-opacity:1;fill-rule:evenodd;stroke:none"
         d="m 1109.08,604.98 c 16,0 29.05,-6.531 29.05,-14.531 0,-7.996 -13.05,-14.519 -29.05,-14.519 -16.01,0 -29.06,6.523 -29.06,14.519 0,8 13.05,14.531 29.06,14.531 v 0" /><path
         id="path28"
         style="fill:#231f20;fill-opacity:1;fill-rule:evenodd;stroke:none"
         d="m 1109.08,1476.62 c 16,0 29.05,-6.53 29.05,-14.53 0,-8 -13.05,-14.53 -29.05,-14.53 -16.01,0 -29.06,6.53 -29.06,14.53 0,8 13.05,14.53 29.06,14.53 v 0" /><path
         id="path30"
         style="fill:#231f20;fill-opacity:1;fill-rule:evenodd;stroke:none"
         d="m 702.313,1447.56 c 16.007,0 29.054,-6.52 29.054,-14.52 0,-8 -13.047,-14.53 -29.054,-14.53 -16.004,0 -29.055,6.53 -29.055,14.53 0,8 13.051,14.52 29.055,14.52 v 0" /><path
         id="path32"
         style="fill:#231f20;fill-opacity:1;fill-rule:evenodd;stroke:none"
         d="m 121.195,2284.73 c 7.418,0 13.469,-6.05 13.469,-13.47 0,-7.41 -6.051,-13.46 -13.469,-13.46 -7.41,0 -13.461,6.05 -13.461,13.46 0,7.42 6.051,13.47 13.461,13.47 v 0" /><path
         id="path34"
         style="fill:#231f20;fill-opacity:1;fill-rule:evenodd;stroke:none"
         d="m 121.195,2114.65 c 7.418,0 13.469,-6.05 13.469,-13.47 0,-7.41 -6.051,-13.46 -13.469,-13.46 -7.41,0 -13.461,6.05 -13.461,13.46 0,7.42 6.051,13.47 13.461,13.47 v 0" /><path
         id="path36"
         style="fill:#231f20;fill-opacity:1;fill-rule:evenodd;stroke:none"
         d="m 818.531,1650.95 c 16.004,0 29.059,-6.53 29.059,-14.54 0,-7.99 -13.055,-14.52 -29.059,-14.52 -16.004,0 -29.054,6.53 -29.054,14.52 0,8.01 13.05,14.54 29.054,14.54 v 0" /><path
         id="path38"
         style="fill:#231f20;fill-opacity:1;fill-rule:evenodd;stroke:none"
         d="m 1137.85,982.98 c 0.16,0 0.28,-0.128 0.28,-0.292 0,-0.157 -0.12,-0.286 -0.28,-0.286 -0.17,0 -0.29,0.129 -0.29,0.286 0,0.164 0.12,0.292 0.29,0.292 v 0" /><path
         id="path40"
         style="fill:none;stroke:#231f20;stroke-width:5;stroke-linecap:butt;stroke-linejoin:miter;stroke-miterlimit:2.61310005;stroke-dasharray:none;stroke-opacity:1"
         d="M 876.621,2096.93 H 121.195" /><path
         id="path42"
         style="fill:#231f20;fill-opacity:1;fill-rule:evenodd;stroke:none"
         d="m 876.641,1534.73 c 15.996,0 29.062,-6.53 29.062,-14.53 0,-8 -13.066,-14.53 -29.062,-14.53 -16,0 -29.051,6.53 -29.051,14.53 0,8 13.051,14.53 29.051,14.53 v 0" /><path
         id="path44"
         style="fill:none;stroke:#231f20;stroke-width:10.0010004;stroke-linecap:butt;stroke-linejoin:miter;stroke-miterlimit:2.61310005;stroke-dasharray:none;stroke-opacity:1"
         d="M 5,430.656 V 634.035 M 1748.28,430.656 v 203.379" /><path
         id="path46"
         style="fill:none;stroke:#231f20;stroke-width:5;stroke-linecap:butt;stroke-linejoin:miter;stroke-miterlimit:2.61310005;stroke-dasharray:none;stroke-opacity:1"
         d="m 1510.31,401.367 v 204.531 m -52.6,-233.359 V 575.93 m 53.52,30.898 -111.62,56.258 -63.63,33.215 M 1457.71,575.93 1283.4,663.086 m 58.12,-29.051 v -87.168 l -29.06,-29.054 -29.06,29.054 v 116.219 m 0,0 V 546.867 m 174.31,29.063 c 21.8,0 42.47,12.937 52,32.226 m -172.82,87.684 c -22.93,0 -43.8,-13.621 -53.12,-34.512 m 171.62,-287.723 c 4.26,-1.367 9.2,-2.218 13.79,-2.218 18.91,0 35.92,12.422 41.54,30.304" /><path
         id="path48"
         style="fill:#ffffff;fill-opacity:1;fill-rule:evenodd;stroke:none"
         d="m 1312.44,517.813 c -15.99,0 -29.04,-6.524 -29.04,-14.52 0,-8.008 13.05,-14.531 29.04,-14.531 16.02,0 29.06,6.523 29.06,14.531 0,7.996 -13.04,14.52 -29.06,14.52 v 0" /><path
         id="path50"
         style="fill:none;stroke:#231f20;stroke-width:5;stroke-linecap:butt;stroke-linejoin:miter;stroke-miterlimit:2.61310005;stroke-dasharray:none;stroke-opacity:1"
         d="m 1312.44,517.813 c -15.99,0 -29.04,-6.524 -29.04,-14.52 0,-8.008 13.05,-14.531 29.04,-14.531 16.02,0 29.06,6.523 29.06,14.531 0,7.996 -13.04,14.52 -29.06,14.52 z" /><path
         id="path52"
         style="fill:none;stroke:#231f20;stroke-width:5;stroke-linecap:butt;stroke-linejoin:miter;stroke-miterlimit:2.61310005;stroke-dasharray:none;stroke-opacity:1"
         d="m 1283.4,546.867 29.04,-29.054 29.06,29.054 M 297.48,401.211 V 605.82 M 353.668,372.539 V 575.93 m -58.105,29.05 116.214,58.106 65.024,32.902 M 353.668,575.93 528,663.086 m -58.121,-29.051 v -87.168 l 29.051,-29.054 29.054,29.054 v 116.219 m 0,0 L 528,546.867 M 353.668,575.93 c -21.789,0 -42.445,12.937 -51.98,32.226 m 174.73,87.449 c 21.789,0 42.445,-12.937 51.977,-32.234 M 352.934,374.758 c -4.258,-1.367 -9.2,-2.219 -13.793,-2.219 -18.727,0 -35.582,12.09 -41.364,29.797" /><path
         id="path54"
         style="fill:#ffffff;fill-opacity:1;fill-rule:evenodd;stroke:none"
         d="m 498.941,517.813 c 16.004,0 29.059,-6.524 29.059,-14.52 0,-8.008 -13.055,-14.531 -29.059,-14.531 -16.003,0 -29.054,6.523 -29.054,14.531 0,7.996 13.051,14.52 29.054,14.52 v 0" /><path
         id="path56"
         style="fill:none;stroke:#231f20;stroke-width:5;stroke-linecap:butt;stroke-linejoin:miter;stroke-miterlimit:2.61310005;stroke-dasharray:none;stroke-opacity:1"
         d="m 498.941,517.813 c 16.004,0 29.059,-6.524 29.059,-14.52 0,-8.008 -13.055,-14.531 -29.059,-14.531 -16.003,0 -29.054,6.523 -29.054,14.531 0,7.996 13.051,14.52 29.054,14.52 z" /><path
         id="path58"
         style="fill:none;stroke:#231f20;stroke-width:5;stroke-linecap:butt;stroke-linejoin:miter;stroke-miterlimit:2.61310005;stroke-dasharray:none;stroke-opacity:1"
         d="m 528,546.867 -29.059,-29.054 -29.054,29.054 m 610.133,435.821 v 174.332 m -58.11,-174.332 v 101.692 m 58.11,72.64 -116.211,-145.27 m 66.621,165.81 c 5.33,5.33 12.93,8.51 20.55,8.51 15.99,0 29.04,-13.05 29.04,-29.05 M 905.703,1011.75 c 0,16 13.047,29.05 29.043,29.05 16.016,0 29.063,-13.05 29.063,-29.05 m 68.441,167.82 -121.586,-150.64 m 53.145,-17.18 V 895.527 l -29.063,-29.05 -29.043,29.05 v 116.223 m 29.043,-145.273 c 16.016,0 29.063,-6.536 29.063,-14.532 0,-8 -13.047,-14.531 -29.063,-14.531 -15.996,0 -29.043,6.531 -29.043,14.531 0,7.996 13.047,14.532 29.043,14.532 z m 145.274,117.769 v -0.055 c 0,-8 -13.05,-14.523 -29.04,-14.523 -15.78,0 -28.83,6.418 -29.07,14.297 M 876.621,1515.84 v 290.55 m 0,174.33 v 116.21 m 0,0 -755.426,174.33" /><path
         id="path60"
         style="fill:none;stroke:#231f20;stroke-width:10.0010004;stroke-linecap:butt;stroke-linejoin:miter;stroke-miterlimit:2.61310005;stroke-dasharray:none;stroke-opacity:1"
         d="m 876.621,1980.72 c 48.008,0 87.168,-39.16 87.168,-87.17 0,-48.01 -39.16,-87.16 -87.168,-87.16 -48.012,0 -87.168,39.15 -87.168,87.16 0,48.01 39.156,87.17 87.168,87.17 z" /><path
         id="path62"
         style="fill:#231f20;fill-opacity:1;fill-rule:evenodd;stroke:none"
         d="m 876.621,1908.48 c 8.219,0 14.922,-6.71 14.922,-14.93 0,-8.22 -6.703,-14.92 -14.922,-14.92 -8.223,0 -14.926,6.7 -14.926,14.92 0,8.22 6.703,14.93 14.926,14.93 v 0" /><path
         id="path64"
         style="fill:none;stroke:#231f20;stroke-width:10.0010004;stroke-linecap:butt;stroke-linejoin:miter;stroke-miterlimit:2.61310005;stroke-dasharray:none;stroke-opacity:1"
         d="m 876.621,1893.55 33.516,33.52" /><path
         id="path66"
         style="fill:#231f20;fill-opacity:1;fill-rule:evenodd;stroke:none"
         d="m 940.273,1957.2 -70.277,-50.22 c 15.293,1.92 21.977,-4.77 20.043,-20.06 l 50.234,70.28 v 0" /><path
         id="path68"
         style="fill:#231f20;fill-opacity:1;fill-rule:nonzero;stroke:none"
         d="m 934.063,551.445 19.316,9.375 h 1.934 v -67.031 c 0,-4.473 0.187,-7.246 0.558,-8.348 0.367,-1.093 1.141,-1.945 2.305,-2.531 1.172,-0.586 3.543,-0.918 7.137,-0.996 v -2.187 h -29.688 v 2.187 c 3.672,0.078 6.055,0.402 7.129,0.969 1.074,0.566 1.816,1.336 2.234,2.293 0.422,0.957 0.637,3.828 0.637,8.613 v 42.813 c 0,5.793 -0.195,9.503 -0.586,11.152 -0.273,1.25 -0.769,2.168 -1.484,2.754 -0.723,0.586 -1.59,0.879 -2.598,0.879 -1.445,0 -3.445,-0.606 -6.016,-1.817 l -0.878,1.875" /><path
         id="path70"
         style="fill:#231f20;fill-opacity:1;fill-rule:nonzero;stroke:none"
         d="m 900.781,294.102 c 2.285,5.332 5.164,9.453 8.645,12.363 3.484,2.902 7.82,4.355 13.015,4.355 6.414,0 11.329,-2.07 14.754,-6.211 2.602,-3.086 3.899,-6.386 3.899,-9.902 0,-5.781 -3.653,-11.758 -10.938,-17.93 4.883,-1.914 8.582,-4.648 11.094,-8.203 2.5,-3.554 3.75,-7.734 3.75,-12.539 0,-6.875 -2.195,-12.832 -6.582,-17.871 -5.723,-6.562 -14.004,-9.844 -24.863,-9.844 -5.371,0 -9.024,0.664 -10.957,2.012 -1.946,1.328 -2.91,2.773 -2.91,4.309 0,1.14 0.457,2.136 1.375,3.007 0.917,0.868 2.023,1.297 3.324,1.297 0.972,0 1.968,-0.156 2.988,-0.468 0.664,-0.196 2.176,-0.918 4.52,-2.149 2.343,-1.23 3.964,-1.973 4.875,-2.207 1.445,-0.43 2.988,-0.644 4.636,-0.644 3.985,0 7.461,1.543 10.41,4.609 2.957,3.086 4.434,6.719 4.434,10.93 0,3.074 -0.684,6.074 -2.031,8.992 -1.016,2.18 -2.11,3.828 -3.313,4.961 -1.668,1.562 -3.953,2.969 -6.863,4.238 -2.898,1.262 -5.859,1.895 -8.887,1.895 h -1.855 v 1.718 c 3.078,0.391 6.164,1.504 9.258,3.352 3.093,1.844 5.339,4.051 6.75,6.641 1.394,2.585 2.097,5.429 2.097,8.523 0,4.035 -1.269,7.297 -3.816,9.785 -2.551,2.481 -5.727,3.731 -9.516,3.731 -6.121,0 -11.226,-3.231 -15.34,-9.688 l -1.953,0.938" /><path
         id="path72"
         style="fill:#231f20;fill-opacity:1;fill-rule:nonzero;stroke:none"
         d="m 535.781,753.945 v -8.281 h -10.625 v -20.937 h -9.687 v 20.937 h -33.594 v 7.461 l 36.824,52.695 h 6.457 v -51.875 z m -20.312,0 v 39.395 l -27.864,-39.395 h 27.864" /><path
         id="path74"
         style="fill:#231f20;fill-opacity:1;fill-rule:nonzero;stroke:none"
         d="m 1257.03,564.258 -4.57,-10 h -23.91 l -5.23,-10.613 c 10.4,-1.524 18.62,-5.383 24.67,-11.563 5.19,-5.324 7.79,-11.574 7.79,-18.781 0,-4.18 -0.85,-8.055 -2.55,-11.61 -1.69,-3.566 -3.83,-6.593 -6.41,-9.101 -2.56,-2.5 -5.43,-4.524 -8.6,-6.047 -4.48,-2.148 -9.08,-3.223 -13.81,-3.223 -4.75,0 -8.22,0.813 -10.39,2.434 -2.16,1.617 -3.24,3.406 -3.24,5.359 0,1.094 0.45,2.063 1.34,2.903 0.9,0.839 2.02,1.257 3.39,1.257 1.01,0 1.89,-0.156 2.64,-0.468 0.76,-0.313 2.06,-1.114 3.88,-2.403 2.93,-2.031 5.9,-3.086 8.91,-3.144 4.57,0 8.58,1.73 12.04,5.195 3.46,3.469 5.18,7.688 5.18,12.668 0,4.813 -1.54,9.305 -4.61,13.484 -3.09,4.161 -7.35,7.383 -12.78,9.661 -4.25,1.765 -10.05,2.781 -17.39,3.054 l 15.21,30.938 h 28.44" /><path
         id="path76"
         style="fill:#231f20;fill-opacity:1;fill-rule:nonzero;stroke:none"
         d="m 980.781,1178.95 v -8.29 h -10.625 v -20.93 h -9.687 v 20.93 h -33.594 v 7.47 l 36.824,52.69 h 6.457 v -51.87 z m -20.312,0 v 39.39 l -27.864,-39.39 h 27.864" /><path
         id="path78"
         style="fill:#231f20;fill-opacity:1;fill-rule:nonzero;stroke:none"
         d="m 1032.03,869.258 -4.57,-10 h -23.91 l -5.23,-10.613 c 10.4,-1.524 18.62,-5.383 24.67,-11.563 5.19,-5.324 7.79,-11.574 7.79,-18.781 0,-4.18 -0.85,-8.055 -2.55,-11.61 -1.69,-3.566 -3.83,-6.593 -6.41,-9.101 -2.56,-2.5 -5.43,-4.524 -8.6,-6.047 -4.48,-2.148 -9.08,-3.223 -13.806,-3.223 -4.758,0 -8.223,0.813 -10.391,2.434 -2.16,1.617 -3.242,3.406 -3.242,5.359 0,1.094 0.449,2.063 1.34,2.903 0.899,0.839 2.02,1.257 3.387,1.257 1.008,0 1.894,-0.156 2.644,-0.468 0.754,-0.313 2.055,-1.114 3.879,-2.403 2.93,-2.031 5.899,-3.086 8.909,-3.144 4.57,0 8.58,1.73 12.04,5.195 3.46,3.469 5.18,7.688 5.18,12.668 0,4.813 -1.54,9.305 -4.61,13.484 -3.09,4.161 -7.35,7.383 -12.78,9.661 -4.25,1.765 -10.047,2.781 -17.391,3.054 l 15.211,30.938 h 28.44" /><path
         id="path80"
         style="fill:#231f20;fill-opacity:1;fill-rule:nonzero;stroke:none"
         d="m 1590.78,513.945 v -8.281 h -10.62 v -20.937 h -9.69 v 20.937 h -33.59 v 7.461 l 36.82,52.695 h 6.46 v -51.875 z m -20.31,0 v 39.395 l -27.86,-39.395 h 27.86" /><path
         id="path82"
         style="fill:#231f20;fill-opacity:1;fill-rule:nonzero;stroke:none"
         d="m 597.031,549.258 -4.57,-10 h -23.914 l -5.227,-10.613 c 10.403,-1.524 18.621,-5.383 24.672,-11.563 5.192,-5.324 7.789,-11.574 7.789,-18.781 0,-4.18 -0.847,-8.055 -2.551,-11.61 -1.691,-3.566 -3.828,-6.593 -6.406,-9.101 -2.57,-2.5 -5.437,-4.524 -8.601,-6.047 -4.485,-2.148 -9.086,-3.223 -13.809,-3.223 -4.758,0 -8.223,0.813 -10.387,2.434 -2.164,1.617 -3.246,3.406 -3.246,5.359 0,1.094 0.449,2.063 1.34,2.903 0.899,0.839 2.02,1.257 3.383,1.257 1.012,0 1.894,-0.156 2.648,-0.468 0.758,-0.313 2.055,-1.114 3.879,-2.403 2.93,-2.031 5.899,-3.086 8.907,-3.144 4.57,0 8.582,1.73 12.042,5.195 3.458,3.469 5.188,7.688 5.188,12.668 0,4.813 -1.543,9.305 -4.621,13.484 -3.086,4.161 -7.348,7.383 -12.777,9.661 -4.254,1.765 -10.051,2.781 -17.391,3.054 l 15.215,30.938 h 28.437" /></g></g></svg>