<?xml version="1.0" encoding="UTF-8" standalone="no"?>
<!-- Created with Inkscape (http://www.inkscape.org/) -->

<svg
   xmlns:dc="http://purl.org/dc/elements/1.1/"
   xmlns:cc="http://creativecommons.org/ns#"
   xmlns:rdf="http://www.w3.org/1999/02/22-rdf-syntax-ns#"
   xmlns:svg="http://www.w3.org/2000/svg"
   xmlns="http://www.w3.org/2000/svg"
   xmlns:sodipodi="http://sodipodi.sourceforge.net/DTD/sodipodi-0.dtd"
   xmlns:inkscape="http://www.inkscape.org/namespaces/inkscape"
   id="svg2"
   version="1.1"
   inkscape:version="0.91 r13725"
   xml:space="preserve"
   width="126.04855mm"
   height="68.40062mm"
   viewBox="0 0 446.62871 242.3644"
   sodipodi:docname="erf1.svg"><metadata
     id="metadata8"><rdf:RDF><cc:Work
         rdf:about=""><dc:format>image/svg+xml</dc:format><dc:type
           rdf:resource="http://purl.org/dc/dcmitype/StillImage" /><dc:title></dc:title></cc:Work></rdf:RDF></metadata><defs
     id="defs6"><clipPath
       clipPathUnits="userSpaceOnUse"
       id="clipPath20"><path
         d="M 0,0 612,0 612,792 0,792 0,0 Z"
         id="path22"
         inkscape:connector-curvature="0" /></clipPath><clipPath
       clipPathUnits="userSpaceOnUse"
       id="clipPath28"><path
         d="M 0,792 0,0 612,0 612,792 0,792 Z"
         id="path30"
         inkscape:connector-curvature="0" /></clipPath><clipPath
       clipPathUnits="userSpaceOnUse"
       id="clipPath38"><path
         d="m 54,738 612,0 0,-684 -612,0 0,684 z"
         id="path40"
         inkscape:connector-curvature="0" /></clipPath><clipPath
       clipPathUnits="userSpaceOnUse"
       id="clipPath44"><path
         d="m 64,733 386,0 0,-387 -386,0 0,387 z"
         id="path46"
         inkscape:connector-curvature="0" /></clipPath><clipPath
       clipPathUnits="userSpaceOnUse"
       id="clipPath110"><path
         d="m 98,725.96 349.49,0 0,-343.96 -349.49,0 0,343.96 z"
         id="path112"
         inkscape:connector-curvature="0" /></clipPath><clipPath
       clipPathUnits="userSpaceOnUse"
       id="clipPath120"><path
         d="m 64,733 0,-387 386,0 0,387 -386,0 z"
         id="path122"
         inkscape:connector-curvature="0" /></clipPath><clipPath
       clipPathUnits="userSpaceOnUse"
       id="clipPath128"><path
         d="m 266,361 13,0 0,-15 -13,0 0,15 z"
         id="path130"
         inkscape:connector-curvature="0" /></clipPath><clipPath
       clipPathUnits="userSpaceOnUse"
       id="clipPath138"><path
         d="m 64,733 0,-387 386,0 0,387 -386,0 z"
         id="path140"
         inkscape:connector-curvature="0" /></clipPath><clipPath
       clipPathUnits="userSpaceOnUse"
       id="clipPath174"><path
         d="m 64,561 8,0 0,-15 -8,0 0,15 z"
         id="path176"
         inkscape:connector-curvature="0" /></clipPath><clipPath
       clipPathUnits="userSpaceOnUse"
       id="clipPath182"><path
         d="m 64,733 0,-387 386,0 0,387 -386,0 z"
         id="path184"
         inkscape:connector-curvature="0" /></clipPath><clipPath
       clipPathUnits="userSpaceOnUse"
       id="clipPath254"><path
         d="m 54,738 0,-684 612,0 0,684 -612,0 z"
         id="path256"
         inkscape:connector-curvature="0" /></clipPath><clipPath
       clipPathUnits="userSpaceOnUse"
       id="clipPath262"><path
         d="m 54,738 0,-792 612,0 0,792 -612,0 z"
         id="path264"
         inkscape:connector-curvature="0" /></clipPath><clipPath
       id="clipPath4410"
       clipPathUnits="userSpaceOnUse"><path
         inkscape:connector-curvature="0"
         id="path4412"
         d="M 0,0 612,0 612,792 0,792 0,0 Z" /></clipPath><clipPath
       id="clipPath4418"
       clipPathUnits="userSpaceOnUse"><path
         inkscape:connector-curvature="0"
         id="path4420"
         d="M 0,792 0,0 612,0 612,792 0,792 Z" /></clipPath><clipPath
       id="clipPath4428"
       clipPathUnits="userSpaceOnUse"><path
         inkscape:connector-curvature="0"
         id="path4430"
         d="m 54,738 612,0 0,-684 -612,0 0,684 z" /></clipPath><clipPath
       id="clipPath4434"
       clipPathUnits="userSpaceOnUse"><path
         inkscape:connector-curvature="0"
         id="path4436"
         d="m 64,733 402,0 0,-390 -402,0 0,390 z" /></clipPath><clipPath
       id="clipPath4494"
       clipPathUnits="userSpaceOnUse"><path
         inkscape:connector-curvature="0"
         id="path4496"
         d="m 120,724 343.5,0 0,-343 -343.5,0 0,343 z" /></clipPath><clipPath
       id="clipPath4504"
       clipPathUnits="userSpaceOnUse"><path
         inkscape:connector-curvature="0"
         id="path4506"
         d="m 64,733 0,-390 402,0 0,390 -402,0 z" /></clipPath><clipPath
       id="clipPath4512"
       clipPathUnits="userSpaceOnUse"><path
         inkscape:connector-curvature="0"
         id="path4514"
         d="m 285,359 13,0 0,-15 -13,0 0,15 z" /></clipPath><clipPath
       id="clipPath4522"
       clipPathUnits="userSpaceOnUse"><path
         inkscape:connector-curvature="0"
         id="path4524"
         d="m 64,733 0,-390 402,0 0,390 -402,0 z" /></clipPath><clipPath
       id="clipPath4576"
       clipPathUnits="userSpaceOnUse"><path
         inkscape:connector-curvature="0"
         id="path4578"
         d="m 65,559 8,0 0,-15 -8,0 0,15 z" /></clipPath><clipPath
       id="clipPath4584"
       clipPathUnits="userSpaceOnUse"><path
         inkscape:connector-curvature="0"
         id="path4586"
         d="m 64,733 0,-390 402,0 0,390 -402,0 z" /></clipPath><clipPath
       id="clipPath4650"
       clipPathUnits="userSpaceOnUse"><path
         inkscape:connector-curvature="0"
         id="path4652"
         d="m 54,738 0,-684 612,0 0,684 -612,0 z" /></clipPath><clipPath
       id="clipPath4658"
       clipPathUnits="userSpaceOnUse"><path
         inkscape:connector-curvature="0"
         id="path4660"
         d="m 54,738 0,-792 612,0 0,792 -612,0 z" /></clipPath></defs><sodipodi:namedview
     pagecolor="#ffffff"
     bordercolor="#666666"
     borderopacity="1"
     objecttolerance="10"
     gridtolerance="10"
     guidetolerance="10"
     inkscape:pageopacity="0"
     inkscape:pageshadow="2"
     inkscape:window-width="640"
     inkscape:window-height="480"
     id="namedview4"
     showgrid="false"
     units="mm"
     fit-margin-top="0"
     fit-margin-left="0"
     fit-margin-right="0"
     fit-margin-bottom="0"
     inkscape:zoom="1.9636364"
     inkscape:cx="273.23184"
     inkscape:cy="118.84461"
     inkscape:current-layer="g10" /><g
     id="g10"
     inkscape:groupmode="layer"
     inkscape:label="erf1"
     transform="matrix(1.25,0,0,-1.25,-37.835109,735.17593)"><g
       id="g12" /><path
       d="m 44.471422,417.48699 0,156.13722"
       style="fill:none;stroke:#a5a5a5;stroke-width:0.2;stroke-linecap:butt;stroke-linejoin:round;stroke-miterlimit:10;stroke-dasharray:none;stroke-opacity:1"
       id="path48"
       inkscape:connector-curvature="0" /><path
       d="m 84.137675,417.48699 0,156.13722"
       style="fill:none;stroke:#a5a5a5;stroke-width:0.2;stroke-linecap:butt;stroke-linejoin:round;stroke-miterlimit:10;stroke-dasharray:none;stroke-opacity:1"
       id="path50"
       inkscape:connector-curvature="0" /><path
       d="m 123.80851,417.48699 0,156.13722"
       style="fill:none;stroke:#a5a5a5;stroke-width:0.2;stroke-linecap:butt;stroke-linejoin:round;stroke-miterlimit:10;stroke-dasharray:none;stroke-opacity:1"
       id="path52"
       inkscape:connector-curvature="0" /><path
       d="m 163.47476,417.48699 0,156.13722"
       style="fill:none;stroke:#a5a5a5;stroke-width:0.2;stroke-linecap:butt;stroke-linejoin:round;stroke-miterlimit:10;stroke-dasharray:none;stroke-opacity:1"
       id="path54"
       inkscape:connector-curvature="0" /><path
       d="m 203.14101,417.48699 0,156.13722"
       style="fill:none;stroke:#a5a5a5;stroke-width:0.2;stroke-linecap:butt;stroke-linejoin:round;stroke-miterlimit:10;stroke-dasharray:none;stroke-opacity:1"
       id="path56"
       inkscape:connector-curvature="0" /><path
       d="m 64.304549,417.48699 0,156.13722"
       style="fill:none;stroke:#e9e9e9;stroke-width:0.2;stroke-linecap:butt;stroke-linejoin:round;stroke-miterlimit:10;stroke-dasharray:none;stroke-opacity:1"
       id="path58"
       inkscape:connector-curvature="0" /><path
       d="m 103.97538,417.48699 0,156.13722"
       style="fill:none;stroke:#e9e9e9;stroke-width:0.2;stroke-linecap:butt;stroke-linejoin:round;stroke-miterlimit:10;stroke-dasharray:none;stroke-opacity:1"
       id="path60"
       inkscape:connector-curvature="0" /><path
       d="m 143.64163,417.48699 0,156.13722"
       style="fill:none;stroke:#e9e9e9;stroke-width:0.2;stroke-linecap:butt;stroke-linejoin:round;stroke-miterlimit:10;stroke-dasharray:none;stroke-opacity:1"
       id="path62"
       inkscape:connector-curvature="0" /><path
       d="m 183.30789,417.48699 0,156.13722"
       style="fill:none;stroke:#e9e9e9;stroke-width:0.2;stroke-linecap:butt;stroke-linejoin:round;stroke-miterlimit:10;stroke-dasharray:none;stroke-opacity:1"
       id="path64"
       inkscape:connector-curvature="0" /><path
       d="m 44.471422,417.48699 158.669588,0"
       style="fill:none;stroke:#a5a5a5;stroke-width:0.2;stroke-linecap:butt;stroke-linejoin:round;stroke-miterlimit:10;stroke-dasharray:none;stroke-opacity:1"
       id="path66"
       inkscape:connector-curvature="0" /><path
       d="m 44.471422,433.10255 158.669588,0"
       style="fill:none;stroke:#a5a5a5;stroke-width:0.2;stroke-linecap:butt;stroke-linejoin:round;stroke-miterlimit:10;stroke-dasharray:none;stroke-opacity:1"
       id="path68"
       inkscape:connector-curvature="0" /><path
       d="m 44.471422,448.7181 158.669588,0"
       style="fill:none;stroke:#a5a5a5;stroke-width:0.2;stroke-linecap:butt;stroke-linejoin:round;stroke-miterlimit:10;stroke-dasharray:none;stroke-opacity:1"
       id="path70"
       inkscape:connector-curvature="0" /><path
       d="m 44.471422,464.32907 158.669588,0"
       style="fill:none;stroke:#a5a5a5;stroke-width:0.2;stroke-linecap:butt;stroke-linejoin:round;stroke-miterlimit:10;stroke-dasharray:none;stroke-opacity:1"
       id="path72"
       inkscape:connector-curvature="0" /><path
       d="m 44.471422,479.94463 158.669588,0"
       style="fill:none;stroke:#a5a5a5;stroke-width:0.2;stroke-linecap:butt;stroke-linejoin:round;stroke-miterlimit:10;stroke-dasharray:none;stroke-opacity:1"
       id="path74"
       inkscape:connector-curvature="0" /><path
       d="m 44.471422,495.56018 158.669588,0"
       style="fill:none;stroke:#a5a5a5;stroke-width:0.2;stroke-linecap:butt;stroke-linejoin:round;stroke-miterlimit:10;stroke-dasharray:none;stroke-opacity:1"
       id="path76"
       inkscape:connector-curvature="0" /><path
       d="m 44.471422,511.17573 158.669588,0"
       style="fill:none;stroke:#a5a5a5;stroke-width:0.2;stroke-linecap:butt;stroke-linejoin:round;stroke-miterlimit:10;stroke-dasharray:none;stroke-opacity:1"
       id="path78"
       inkscape:connector-curvature="0" /><path
       d="m 44.471422,526.79129 158.669588,0"
       style="fill:none;stroke:#a5a5a5;stroke-width:0.2;stroke-linecap:butt;stroke-linejoin:round;stroke-miterlimit:10;stroke-dasharray:none;stroke-opacity:1"
       id="path80"
       inkscape:connector-curvature="0" /><path
       d="m 44.471422,542.40226 158.669588,0"
       style="fill:none;stroke:#a5a5a5;stroke-width:0.2;stroke-linecap:butt;stroke-linejoin:round;stroke-miterlimit:10;stroke-dasharray:none;stroke-opacity:1"
       id="path82"
       inkscape:connector-curvature="0" /><path
       d="m 44.471422,558.01781 158.669588,0"
       style="fill:none;stroke:#a5a5a5;stroke-width:0.2;stroke-linecap:butt;stroke-linejoin:round;stroke-miterlimit:10;stroke-dasharray:none;stroke-opacity:1"
       id="path84"
       inkscape:connector-curvature="0" /><path
       d="m 44.471422,573.63337 158.669588,0"
       style="fill:none;stroke:#a5a5a5;stroke-width:0.2;stroke-linecap:butt;stroke-linejoin:round;stroke-miterlimit:10;stroke-dasharray:none;stroke-opacity:1"
       id="path86"
       inkscape:connector-curvature="0" /><path
       d="m 44.471422,425.29477 158.669588,0"
       style="fill:none;stroke:#e9e9e9;stroke-width:0.2;stroke-linecap:butt;stroke-linejoin:round;stroke-miterlimit:10;stroke-dasharray:none;stroke-opacity:1"
       id="path88"
       inkscape:connector-curvature="0" /><path
       d="m 44.471422,440.91032 158.669588,0"
       style="fill:none;stroke:#e9e9e9;stroke-width:0.2;stroke-linecap:butt;stroke-linejoin:round;stroke-miterlimit:10;stroke-dasharray:none;stroke-opacity:1"
       id="path90"
       inkscape:connector-curvature="0" /><path
       d="m 44.471422,456.5213 158.669588,0"
       style="fill:none;stroke:#e9e9e9;stroke-width:0.2;stroke-linecap:butt;stroke-linejoin:round;stroke-miterlimit:10;stroke-dasharray:none;stroke-opacity:1"
       id="path92"
       inkscape:connector-curvature="0" /><path
       d="m 44.471422,472.13685 158.669588,0"
       style="fill:none;stroke:#e9e9e9;stroke-width:0.2;stroke-linecap:butt;stroke-linejoin:round;stroke-miterlimit:10;stroke-dasharray:none;stroke-opacity:1"
       id="path94"
       inkscape:connector-curvature="0" /><path
       d="m 44.471422,487.7524 158.669588,0"
       style="fill:none;stroke:#e9e9e9;stroke-width:0.2;stroke-linecap:butt;stroke-linejoin:round;stroke-miterlimit:10;stroke-dasharray:none;stroke-opacity:1"
       id="path96"
       inkscape:connector-curvature="0" /><path
       d="m 44.471422,503.36796 158.669588,0"
       style="fill:none;stroke:#e9e9e9;stroke-width:0.2;stroke-linecap:butt;stroke-linejoin:round;stroke-miterlimit:10;stroke-dasharray:none;stroke-opacity:1"
       id="path98"
       inkscape:connector-curvature="0" /><path
       d="m 44.471422,518.98351 158.669588,0"
       style="fill:none;stroke:#e9e9e9;stroke-width:0.2;stroke-linecap:butt;stroke-linejoin:round;stroke-miterlimit:10;stroke-dasharray:none;stroke-opacity:1"
       id="path100"
       inkscape:connector-curvature="0" /><path
       d="m 44.471422,534.59448 158.669588,0"
       style="fill:none;stroke:#e9e9e9;stroke-width:0.2;stroke-linecap:butt;stroke-linejoin:round;stroke-miterlimit:10;stroke-dasharray:none;stroke-opacity:1"
       id="path102"
       inkscape:connector-curvature="0" /><path
       d="m 44.471422,550.21004 158.669588,0"
       style="fill:none;stroke:#e9e9e9;stroke-width:0.2;stroke-linecap:butt;stroke-linejoin:round;stroke-miterlimit:10;stroke-dasharray:none;stroke-opacity:1"
       id="path104"
       inkscape:connector-curvature="0" /><path
       d="m 44.471422,565.82559 158.669588,0"
       style="fill:none;stroke:#e9e9e9;stroke-width:0.2;stroke-linecap:butt;stroke-linejoin:round;stroke-miterlimit:10;stroke-dasharray:none;stroke-opacity:1"
       id="path106"
       inkscape:connector-curvature="0" /><g
       id="g108"
       clip-path="url(#clipPath110)"
       transform="matrix(0.45793411,0,0,0.45793411,-0.86405469,242.09823)"
       style="stroke-width:0.43674406"><path
         d="m 99,383 1.82,5.72 1.59,4.98 1.78,5.59 1.79,5.62 1.79,5.59 1.66,5.16 1.71,5.34 1.77,5.51 1.77,5.47 1.82,5.61 1.6,4.91 1.8,5.52 1.81,5.5 1.75,5.28 1.58,4.77 1.88,5.64 1.6,4.74 1.86,5.48 1.64,4.82 1.8,5.24 1.72,4.95 1.79,5.12 1.64,4.67 1.78,4.98 1.84,5.13 1.6,4.42 1.74,4.72 1.79,4.83 1.75,4.67 1.69,4.46 1.88,4.9 1.69,4.34 1.81,4.58 1.63,4.09 1.79,4.41 1.68,4.1 1.76,4.22 1.72,4.07 1.8,4.19 1.73,3.97 1.77,3.99 1.76,3.9 1.62,3.52 1.85,3.97 1.66,3.49 1.76,3.65 1.69,3.43 1.88,3.74 1.62,3.17 1.85,3.53 1.68,3.15 1.83,3.38 1.59,2.85 1.81,3.19 1.74,3.01 1.75,2.94 1.73,2.86 1.67,2.69 1.81,2.84 1.72,2.64 1.81,2.72 1.64,2.39 1.81,2.59 1.73,2.41 1.73,2.35 1.81,2.38 1.66,2.14 1.71,2.13 1.88,2.3 1.7,2.01 1.75,2 1.77,1.98 1.63,1.77 1.73,1.84 1.73,1.76 1.84,1.83 1.63,1.57 1.88,1.75 1.69,1.53 1.68,1.47 1.8,1.53 1.81,1.49 1.64,1.3 1.75,1.34 1.71,1.27 1.85,1.33 1.6,1.11 1.84,1.23 1.72,1.11 1.72,1.07 1.71,1.03 1.75,1.01 1.85,1.03 1.69,0.91 1.68,0.87 1.79,0.89 1.79,0.86 1.6,0.73 1.9,0.85 1.59,0.67 1.86,0.76 1.78,0.7 1.59,0.59 1.78,0.65 1.79,0.62 1.79,0.59 1.65,0.52 1.72,0.53 1.77,0.51 1.77,0.5 1.82,0.48 1.6,0.41 1.8,0.44 1.81,0.42 1.74,0.38 1.59,0.34 1.88,0.38 1.6,0.31 1.85,0.34 1.65,0.29 1.8,0.3 1.72,0.28 1.79,0.27 1.64,0.23 1.78,0.25 1.84,0.24 1.6,0.2 1.73,0.2 1.79,0.2 1.76,0.19 1.69,0.17 1.88,0.18 1.69,0.15 1.8,0.16 1.64,0.13 1.79,0.14 1.68,0.12 1.76,0.12 1.72,0.11 1.8,0.11 1.73,0.1 1.77,0.1 1.76,0.09 1.62,0.08 1.85,0.09 1.65,0.07 1.77,0.07 1.69,0.07 1.88,0.07 1.62,0.05 1.84,0.06 1.68,0.05 1.84,0.06 1.59,0.04 1.81,0.04 1.74,0.05 1.74,0.03 1.74,0.04 1.67,0.03 1.81,0.04 1.72,0.03 1.81,0.03 1.63,0.02 1.82,0.03 1.73,0.02 1.73,0.02 1.81,0.02 1.66,0.02 1.71,0.02 1.88,0.01 1.7,0.02 1.75,0.01 1.77,0.02 1.63,0.01 1.73,0.01 1.73,0.01 1.84,0.01 1.63,0.01 1.87,0.01 1.7,0.01 1.67,0.01 1.81,0 1.81,0.01 1.64,0.01 1.75,0 1.71,0.01 1.85,0 1.6,0.01 1.84,0 1.72,0 1.71,0.01 1.72,0 1.74,0 1.86,0.01 1.69,0 1.68,0 1.79,0 1.79,0.01 1.68,0"
         style="fill:none;stroke:#000000;stroke-width:1.74697626;stroke-linecap:butt;stroke-linejoin:round;stroke-miterlimit:10;stroke-dasharray:none;stroke-opacity:1"
         id="path114"
         inkscape:connector-curvature="0" /></g><path
       inkscape:connector-curvature="0"
       id="path124"
       style="fill:none;stroke:#000000;stroke-width:0.40000001;stroke-linecap:butt;stroke-linejoin:round;stroke-miterlimit:10;stroke-dasharray:none;stroke-opacity:1"
       d="m 44.471422,417.48699 158.669588,0" /><path
       inkscape:connector-curvature="0"
       id="path142"
       style="fill:none;stroke:#000000;stroke-width:0.2;stroke-linecap:square;stroke-linejoin:miter;stroke-miterlimit:10;stroke-dasharray:none;stroke-opacity:1"
       d="m 44.471422,417.48699 0,-1.81341" /><path
       inkscape:connector-curvature="0"
       id="path144"
       style="fill:#000000;fill-opacity:1;fill-rule:nonzero;stroke:none;stroke-width:0.2"
       d="m 43.349484,411.0347 c 0,0 0,0.77849 0.228967,1.34175 0,0 0.233546,0.55868 0.627369,0.83344 0,0 0.302237,0.21981 0.622791,0.21981 0,0 0.522045,0 0.938765,-0.53578 0,0 0.522045,-0.65943 0.522045,-1.79053 0,0 0,-0.79222 -0.228967,-1.34174 0,0 -0.228967,-0.5541 -0.581577,-0.80139 0,0 -0.357188,-0.25186 -0.686901,-0.25186 0,0 -0.650266,0 -1.080724,0.76475 0,0 -0.361768,0.65026 -0.361768,1.56155 z m 0.654845,-0.087 c 0,0 0,-0.93877 0.228967,-1.5295 0,0 0.196912,-0.50373 0.572418,-0.50373 0,0 0.183174,0 0.375506,0.16485 0,0 0.192332,0.16486 0.293078,0.54495 0,0 0.155697,0.57699 0.155697,1.63024 0,0 0,0.77391 -0.164856,1.29595 0,0 -0.114483,0.38467 -0.306816,0.54495 0,0 -0.13738,0.11448 -0.334292,0.11448 0,0 -0.224387,0 -0.402982,-0.21065 0,0 -0.242705,-0.27934 -0.329712,-0.87465 0,0 -0.08701,-0.5999 -0.08701,-1.17689 z" /><path
       inkscape:connector-curvature="0"
       id="path146"
       style="fill:none;stroke:#000000;stroke-width:0.2;stroke-linecap:square;stroke-linejoin:miter;stroke-miterlimit:10;stroke-dasharray:none;stroke-opacity:1"
       d="m 84.137675,417.48699 0,-1.81341" /><path
       inkscape:connector-curvature="0"
       id="path148"
       style="fill:#000000;fill-opacity:1;fill-rule:nonzero;stroke:none;stroke-width:0.2"
       d="m 83.290497,412.88476 1.099042,0.54494 0.114483,0 0,-3.84207 c 0,0 0,-0.38008 0.03205,-0.47625 0,0 0.03206,-0.0962 0.132801,-0.14654 0,0 0.100746,-0.0504 0.407562,-0.0549 l 0,-0.12364 -1.708094,0 0,0.12364 c 0,0 0.320553,0.005 0.41214,0.0549 0,0 0.09617,0.0504 0.132801,0.1328 0,0 0.03205,0.0824 0.03205,0.48999 l 0,2.45453 c 0,0 0,0.49915 -0.02748,0.63653 0,0 -0.02748,0.10532 -0.08701,0.15569 0,0 -0.06411,0.0504 -0.146539,0.0504 0,0 -0.132801,0 -0.343451,-0.10075 l -0.05037,0.10075 z" /><path
       inkscape:connector-curvature="0"
       id="path150"
       style="fill:none;stroke:#000000;stroke-width:0.2;stroke-linecap:square;stroke-linejoin:miter;stroke-miterlimit:10;stroke-dasharray:none;stroke-opacity:1"
       d="m 123.80851,417.48699 0,-1.81341" /><path
       inkscape:connector-curvature="0"
       id="path152"
       style="fill:#000000;fill-opacity:1;fill-rule:nonzero;stroke:none;stroke-width:0.2"
       d="m 125.47081,409.6609 -0.31598,-0.87465 -2.68349,0 0,0.12364 c 0,0 1.18147,1.08072 1.6623,1.76762 0,0 0.48541,0.68691 0.48541,1.25016 0,0 0,0.43046 -0.2656,0.7098 0,0 -0.2656,0.27934 -0.63653,0.27934 0,0 -0.32971,0 -0.59989,-0.19691 0,0 -0.26561,-0.19691 -0.39383,-0.577 l -0.12364,0 c 0,0 0.087,0.62279 0.43046,0.95251 0,0 0.34803,0.33429 0.86549,0.33429 0,0 0.55868,0 0.92503,-0.35719 0,0 0.37093,-0.35719 0.37093,-0.83802 0,0 0,-0.34345 -0.16028,-0.69148 0,0 -0.24728,-0.54494 -0.80596,-1.14484 0,0 -0.83344,-0.91586 -1.04409,-1.10362 l 1.18605,0 c 0,0 0.36634,0 0.51288,0.0229 0,0 0.14654,0.0275 0.26103,0.1099 0,0 0.11906,0.0824 0.20607,0.23355 l 0.12364,0 z" /><path
       inkscape:connector-curvature="0"
       id="path154"
       style="fill:none;stroke:#000000;stroke-width:0.2;stroke-linecap:square;stroke-linejoin:miter;stroke-miterlimit:10;stroke-dasharray:none;stroke-opacity:1"
       d="m 163.47476,417.48699 0,-1.81341" /><path
       inkscape:connector-curvature="0"
       id="path156"
       style="fill:#000000;fill-opacity:1;fill-rule:nonzero;stroke:none;stroke-width:0.2"
       d="m 162.05516,412.47262 c 0,0 0.19234,0.45793 0.48999,0.70521 0,0 0.29308,0.25187 0.73728,0.25187 0,0 0.54494,0 0.83802,-0.35719 0,0 0.22438,-0.2656 0.22438,-0.56326 0,0 0,-0.50373 -0.62279,-1.03035 0,0 0.41214,-0.16486 0.62737,-0.47167 0,0 0.21523,-0.30224 0.21523,-0.71896 0,0 0,-0.58616 -0.37092,-1.01661 0,0 -0.49457,-0.56326 -1.4196,-0.56326 0,0 -0.46251,0 -0.62737,0.11448 0,0 -0.16486,0.11448 -0.16486,0.24271 0,0 0,0.10074 0.0779,0.16943 0,0 0.0778,0.0733 0.18776,0.0733 0,0 0.087,0 0.16943,-0.0275 0,0 0.0595,-0.0137 0.26102,-0.11906 0,0 0.20607,-0.10532 0.27476,-0.12364 0,0 0.13281,-0.0366 0.26561,-0.0366 0,0 0.34345,0 0.59989,0.2656 0,0 0.25186,0.2656 0.25186,0.62279 0,0 0,0.26102 -0.11448,0.51288 0,0 -0.0916,0.19234 -0.19233,0.2885 0,0 -0.14196,0.1328 -0.3984,0.24271 0,0 -0.25187,0.10532 -0.50831,0.10532 l -0.10991,0 0,0.10991 c 0,0 0.26561,0.0275 0.53121,0.18317 0,0 0.2656,0.16028 0.38466,0.38009 0,0 0.12364,0.22438 0.12364,0.48541 0,0 0,0.34345 -0.21522,0.55867 0,0 -0.21523,0.21523 -0.53579,0.21523 0,0 -0.52204,0 -0.87465,-0.55868 l -0.10533,0.0595 z" /><path
       inkscape:connector-curvature="0"
       id="path158"
       style="fill:none;stroke:#000000;stroke-width:0.2;stroke-linecap:square;stroke-linejoin:miter;stroke-miterlimit:10;stroke-dasharray:none;stroke-opacity:1"
       d="m 203.14101,417.48699 0,-1.81341" /><path
       inkscape:connector-curvature="0"
       id="path160"
       style="fill:#000000;fill-opacity:1;fill-rule:nonzero;stroke:none;stroke-width:0.2"
       d="m 204.7392,410.46228 0,-0.47167 -0.61363,0 0,-1.20436 -0.54952,0 0,1.20436 -1.9279,0 0,0.42588 2.11107,3.01321 0.36635,0 0,-2.96742 0.61363,0 z m -1.16315,0 0,2.25762 -1.59819,-2.25762 1.59819,0 z" /><path
       inkscape:connector-curvature="0"
       id="path162"
       style="fill:none;stroke:#000000;stroke-width:0.2;stroke-linecap:square;stroke-linejoin:miter;stroke-miterlimit:10;stroke-dasharray:none;stroke-opacity:1"
       d="m 64.304549,417.48699 0,-0.90671" /><path
       inkscape:connector-curvature="0"
       id="path164"
       style="fill:none;stroke:#000000;stroke-width:0.2;stroke-linecap:square;stroke-linejoin:miter;stroke-miterlimit:10;stroke-dasharray:none;stroke-opacity:1"
       d="m 103.97538,417.48699 0,-0.90671" /><path
       inkscape:connector-curvature="0"
       id="path166"
       style="fill:none;stroke:#000000;stroke-width:0.2;stroke-linecap:square;stroke-linejoin:miter;stroke-miterlimit:10;stroke-dasharray:none;stroke-opacity:1"
       d="m 143.64163,417.48699 0,-0.90671" /><path
       inkscape:connector-curvature="0"
       id="path168"
       style="fill:none;stroke:#000000;stroke-width:0.2;stroke-linecap:square;stroke-linejoin:miter;stroke-miterlimit:10;stroke-dasharray:none;stroke-opacity:1"
       d="m 183.30789,417.48699 0,-0.90671" /><path
       inkscape:connector-curvature="0"
       id="path170"
       style="fill:none;stroke:#000000;stroke-width:0.40000001;stroke-linecap:butt;stroke-linejoin:round;stroke-miterlimit:10;stroke-dasharray:none;stroke-opacity:1"
       d="m 44.471422,417.48699 0,156.13722" /><path
       inkscape:connector-curvature="0"
       id="path186"
       style="fill:none;stroke:#000000;stroke-width:0.2;stroke-linecap:square;stroke-linejoin:miter;stroke-miterlimit:10;stroke-dasharray:none;stroke-opacity:1"
       d="m 44.471422,417.48699 -1.813419,0" /><path
       inkscape:connector-curvature="0"
       id="path188"
       style="fill:#000000;fill-opacity:1;fill-rule:nonzero;stroke:none;stroke-width:0.2"
       d="m 37.170143,416.98785 c 0,0 0,0.77848 0.228967,1.34174 0,0 0.233546,0.55868 0.627369,0.83344 0,0 0.302237,0.21981 0.622791,0.21981 0,0 0.522045,0 0.938765,-0.53578 0,0 0.522045,-0.65943 0.522045,-1.79052 0,0 0,-0.79223 -0.228968,-1.34175 0,0 -0.228967,-0.5541 -0.581576,-0.80139 0,0 -0.357188,-0.25186 -0.686901,-0.25186 0,0 -0.650266,0 -1.080725,0.76475 0,0 -0.361767,0.65027 -0.361767,1.56156 z m 0.654845,-0.087 c 0,0 0,-0.93877 0.228967,-1.5295 0,0 0.196912,-0.50373 0.572418,-0.50373 0,0 0.183174,0 0.375506,0.16486 0,0 0.192332,0.16485 0.293078,0.54494 0,0 0.155697,0.577 0.155697,1.63024 0,0 0,0.77391 -0.164856,1.29596 0,0 -0.114483,0.38466 -0.306816,0.54494 0,0 -0.13738,0.11448 -0.334292,0.11448 0,0 -0.224387,0 -0.402982,-0.21065 0,0 -0.242705,-0.27934 -0.329712,-0.87465 0,0 -0.08701,-0.59989 -0.08701,-1.17689 z" /><path
       inkscape:connector-curvature="0"
       id="path190"
       style="fill:none;stroke:#000000;stroke-width:0.2;stroke-linecap:square;stroke-linejoin:miter;stroke-miterlimit:10;stroke-dasharray:none;stroke-opacity:1"
       d="m 44.471422,433.10255 -1.813419,0" /><path
       inkscape:connector-curvature="0"
       id="path192"
       style="fill:#000000;fill-opacity:1;fill-rule:nonzero;stroke:none;stroke-width:0.2"
       d="m 32.132867,433.01554 c 0,0 0,0.77849 0.228967,1.34175 0,0 0.233547,0.55868 0.62737,0.83344 0,0 0.302237,0.21981 0.62279,0.21981 0,0 0.522045,0 0.938765,-0.53579 0,0 0.522045,-0.65942 0.522045,-1.79052 0,0 0,-0.79223 -0.228967,-1.34175 0,0 -0.228967,-0.5541 -0.581576,-0.80138 0,0 -0.357189,-0.25187 -0.686901,-0.25187 0,0 -0.650267,0 -1.080725,0.76475 0,0 -0.361768,0.65027 -0.361768,1.56156 z m 0.654846,-0.087 c 0,0 0,-0.93876 0.228967,-1.5295 0,0 0.196912,-0.50373 0.572418,-0.50373 0,0 0.183173,0 0.375506,0.16486 0,0 0.192332,0.16486 0.293078,0.54494 0,0 0.155697,0.577 0.155697,1.63025 0,0 0,0.77391 -0.164856,1.29595 0,0 -0.114484,0.38467 -0.306816,0.54494 0,0 -0.13738,0.11449 -0.334292,0.11449 0,0 -0.224388,0 -0.402982,-0.21065 0,0 -0.242705,-0.27934 -0.329712,-0.87466 0,0 -0.08701,-0.59989 -0.08701,-1.17689 z m 3.388713,-1.51118 c 0,0 0.155697,0 0.261022,-0.1099 0,0 0.109904,-0.10991 0.109904,-0.26103 0,0 0,-0.15569 -0.109904,-0.2656 0,0 -0.105325,-0.10532 -0.261022,-0.10532 0,0 -0.160277,0 -0.265602,0.10532 0,0 -0.109904,0.10991 -0.109904,0.2656 0,0 0,0.1557 0.109904,0.2656 0,0 0.105325,0.10533 0.265602,0.10533 z m 1.66688,3.44824 1.099042,0.54495 0.114483,0 0,-3.84207 c 0,0 0,-0.38009 0.03205,-0.47625 0,0 0.03206,-0.0962 0.132801,-0.14654 0,0 0.100746,-0.0504 0.407562,-0.0549 l 0,-0.12365 -1.708095,0 0,0.12365 c 0,0 0.320554,0.005 0.412141,0.0549 0,0 0.09617,0.0504 0.132801,0.1328 0,0 0.03205,0.0824 0.03205,0.48999 l 0,2.45452 c 0,0 0,0.49915 -0.02748,0.63653 0,0 -0.02748,0.10533 -0.08701,0.1557 0,0 -0.06411,0.0504 -0.146539,0.0504 0,0 -0.132801,0 -0.343451,-0.10074 l -0.05037,0.10074 z" /><path
       inkscape:connector-curvature="0"
       id="path194"
       style="fill:none;stroke:#000000;stroke-width:0.2;stroke-linecap:square;stroke-linejoin:miter;stroke-miterlimit:10;stroke-dasharray:none;stroke-opacity:1"
       d="m 44.471422,448.7181 -1.813419,0" /><path
       inkscape:connector-curvature="0"
       id="path196"
       style="fill:#000000;fill-opacity:1;fill-rule:nonzero;stroke:none;stroke-width:0.2"
       d="m 32.132867,448.5853 c 0,0 0,0.77849 0.228967,1.34175 0,0 0.233547,0.55868 0.62737,0.83344 0,0 0.302237,0.2198 0.62279,0.2198 0,0 0.522045,0 0.938765,-0.53578 0,0 0.522045,-0.65942 0.522045,-1.79052 0,0 0,-0.79223 -0.228967,-1.34175 0,0 -0.228967,-0.5541 -0.581576,-0.80138 0,0 -0.357189,-0.25187 -0.686901,-0.25187 0,0 -0.650267,0 -1.080725,0.76475 0,0 -0.361768,0.65027 -0.361768,1.56156 z m 0.654846,-0.087 c 0,0 0,-0.93876 0.228967,-1.5295 0,0 0.196912,-0.50373 0.572418,-0.50373 0,0 0.183173,0 0.375506,0.16486 0,0 0.192332,0.16486 0.293078,0.54494 0,0 0.155697,0.577 0.155697,1.63025 0,0 0,0.77391 -0.164856,1.29595 0,0 -0.114484,0.38467 -0.306816,0.54494 0,0 -0.13738,0.11449 -0.334292,0.11449 0,0 -0.224388,0 -0.402982,-0.21065 0,0 -0.242705,-0.27934 -0.329712,-0.87466 0,0 -0.08701,-0.59989 -0.08701,-1.17689 z m 3.388713,-1.51118 c 0,0 0.155697,0 0.261022,-0.1099 0,0 0.109904,-0.10991 0.109904,-0.26103 0,0 0,-0.15569 -0.109904,-0.2656 0,0 -0.105325,-0.10532 -0.261022,-0.10532 0,0 -0.160277,0 -0.265602,0.10532 0,0 -0.109904,0.10991 -0.109904,0.2656 0,0 0,0.1557 0.109904,0.2656 0,0 0.105325,0.10533 0.265602,0.10533 z m 4.006923,0.22439 -0.315975,-0.87466 -2.683493,0 0,0.12365 c 0,0 1.18147,1.08072 1.6623,1.76762 0,0 0.485411,0.6869 0.485411,1.25016 0,0 0,0.43046 -0.265602,0.7098 0,0 -0.265602,0.27934 -0.636529,0.27934 0,0 -0.329712,0 -0.599893,-0.19691 0,0 -0.265602,-0.19691 -0.393824,-0.577 l -0.123642,0 c 0,0 0.08701,0.62279 0.430458,0.9525 0,0 0.34803,0.33429 0.865496,0.33429 0,0 0.558679,0 0.925027,-0.35718 0,0 0.370926,-0.35719 0.370926,-0.83802 0,0 0,-0.34345 -0.160277,-0.69148 0,0 -0.247284,-0.54495 -0.805964,-1.14484 0,0 -0.83344,-0.91587 -1.04409,-1.10362 l 1.18605,0 c 0,0 0.366347,0 0.512886,0.0229 0,0 0.146539,0.0275 0.261022,0.1099 0,0 0.119063,0.0824 0.206071,0.23355 l 0.123642,0 z" /><path
       inkscape:connector-curvature="0"
       id="path198"
       style="fill:none;stroke:#000000;stroke-width:0.2;stroke-linecap:square;stroke-linejoin:miter;stroke-miterlimit:10;stroke-dasharray:none;stroke-opacity:1"
       d="m 44.471422,464.32907 -1.813419,0" /><path
       inkscape:connector-curvature="0"
       id="path200"
       style="fill:#000000;fill-opacity:1;fill-rule:nonzero;stroke:none;stroke-width:0.2"
       d="m 32.132867,464.15506 c 0,0 0,0.77849 0.228967,1.34175 0,0 0.233547,0.55868 0.62737,0.83344 0,0 0.302237,0.2198 0.62279,0.2198 0,0 0.522045,0 0.938765,-0.53578 0,0 0.522045,-0.65942 0.522045,-1.79052 0,0 0,-0.79223 -0.228967,-1.34175 0,0 -0.228967,-0.5541 -0.581576,-0.80138 0,0 -0.357189,-0.25187 -0.686901,-0.25187 0,0 -0.650267,0 -1.080725,0.76475 0,0 -0.361768,0.65027 -0.361768,1.56156 z m 0.654846,-0.087 c 0,0 0,-0.93876 0.228967,-1.5295 0,0 0.196912,-0.50373 0.572418,-0.50373 0,0 0.183173,0 0.375506,0.16486 0,0 0.192332,0.16486 0.293078,0.54494 0,0 0.155697,0.577 0.155697,1.63025 0,0 0,0.77391 -0.164856,1.29595 0,0 -0.114484,0.38467 -0.306816,0.54494 0,0 -0.13738,0.11449 -0.334292,0.11449 0,0 -0.224388,0 -0.402982,-0.21065 0,0 -0.242705,-0.27934 -0.329712,-0.87466 0,0 -0.08701,-0.59989 -0.08701,-1.17689 z m 3.388713,-1.51118 c 0,0 0.155697,0 0.261022,-0.1099 0,0 0.109904,-0.10991 0.109904,-0.26103 0,0 0,-0.15569 -0.109904,-0.2656 0,0 -0.105325,-0.10532 -0.261022,-0.10532 0,0 -0.160277,0 -0.265602,0.10532 0,0 -0.109904,0.10991 -0.109904,0.2656 0,0 0,0.1557 0.109904,0.2656 0,0 0.105325,0.10533 0.265602,0.10533 z m 1.208946,3.0361 c 0,0 0.192332,0.45794 0.489989,0.70522 0,0 0.293078,0.25186 0.737274,0.25186 0,0 0.544942,0 0.838019,-0.35718 0,0 0.224388,-0.26561 0.224388,-0.56326 0,0 0,-0.50373 -0.62279,-1.03035 0,0 0.41214,-0.16486 0.627369,-0.47168 0,0 0.215229,-0.30223 0.215229,-0.71895 0,0 0,-0.58616 -0.370926,-1.01662 0,0 -0.494569,-0.56326 -1.419596,-0.56326 0,0 -0.462513,0 -0.62737,0.11449 0,0 -0.164856,0.11448 -0.164856,0.2427 0,0 0,0.10075 0.07785,0.16944 0,0 0.07785,0.0733 0.187753,0.0733 0,0 0.08701,0 0.169436,-0.0275 0,0 0.05953,-0.0137 0.261022,-0.11906 0,0 0.20607,-0.10533 0.27476,-0.12364 0,0 0.132801,-0.0366 0.265602,-0.0366 0,0 0.343451,0 0.599894,0.2656 0,0 0.251864,0.26561 0.251864,0.62279 0,0 0,0.26103 -0.114484,0.51289 0,0 -0.09159,0.19233 -0.192332,0.2885 0,0 -0.14196,0.1328 -0.398403,0.2427 0,0 -0.251864,0.10533 -0.508307,0.10533 l -0.109904,0 0,0.1099 c 0,0 0.265602,0.0275 0.531204,0.18318 0,0 0.265601,0.16027 0.384664,0.38008 0,0 0.123642,0.22439 0.123642,0.48541 0,0 0,0.34345 -0.215229,0.55868 0,0 -0.215229,0.21523 -0.535782,0.21523 0,0 -0.522045,0 -0.874655,-0.55868 l -0.105324,0.0595 z" /><path
       inkscape:connector-curvature="0"
       id="path202"
       style="fill:none;stroke:#000000;stroke-width:0.2;stroke-linecap:square;stroke-linejoin:miter;stroke-miterlimit:10;stroke-dasharray:none;stroke-opacity:1"
       d="m 44.471422,479.94463 -1.813419,0" /><path
       inkscape:connector-curvature="0"
       id="path204"
       style="fill:#000000;fill-opacity:1;fill-rule:nonzero;stroke:none;stroke-width:0.2"
       d="m 32.132867,479.72482 c 0,0 0,0.77849 0.228967,1.34175 0,0 0.233547,0.55868 0.62737,0.83344 0,0 0.302237,0.2198 0.62279,0.2198 0,0 0.522045,0 0.938765,-0.53578 0,0 0.522045,-0.65942 0.522045,-1.79052 0,0 0,-0.79223 -0.228967,-1.34175 0,0 -0.228967,-0.5541 -0.581576,-0.80138 0,0 -0.357189,-0.25187 -0.686901,-0.25187 0,0 -0.650267,0 -1.080725,0.76475 0,0 -0.361768,0.65027 -0.361768,1.56156 z m 0.654846,-0.087 c 0,0 0,-0.93876 0.228967,-1.5295 0,0 0.196912,-0.50373 0.572418,-0.50373 0,0 0.183173,0 0.375506,0.16486 0,0 0.192332,0.16486 0.293078,0.54494 0,0 0.155697,0.577 0.155697,1.63025 0,0 0,0.77391 -0.164856,1.29595 0,0 -0.114484,0.38467 -0.306816,0.54494 0,0 -0.13738,0.11449 -0.334292,0.11449 0,0 -0.224388,0 -0.402982,-0.21065 0,0 -0.242705,-0.27934 -0.329712,-0.87466 0,0 -0.08701,-0.59989 -0.08701,-1.17689 z m 3.388713,-1.51118 c 0,0 0.155697,0 0.261022,-0.10991 0,0 0.109904,-0.1099 0.109904,-0.26102 0,0 0,-0.1557 -0.109904,-0.2656 0,0 -0.105325,-0.10532 -0.261022,-0.10532 0,0 -0.160277,0 -0.265602,0.10532 0,0 -0.109904,0.1099 -0.109904,0.2656 0,0 0,0.1557 0.109904,0.2656 0,0 0.105325,0.10533 0.265602,0.10533 z m 4.052716,1.02577 0,-0.47167 -0.613631,0 0,-1.20437 -0.549521,0 0,1.20437 -1.927903,0 0,0.42588 2.111076,3.0132 0.366348,0 0,-2.96741 0.613631,0 z m -1.163152,0 0,2.25762 -1.59819,-2.25762 1.59819,0 z" /><path
       inkscape:connector-curvature="0"
       id="path206"
       style="fill:none;stroke:#000000;stroke-width:0.2;stroke-linecap:square;stroke-linejoin:miter;stroke-miterlimit:10;stroke-dasharray:none;stroke-opacity:1"
       d="m 44.471422,495.56018 -1.813419,0" /><path
       inkscape:connector-curvature="0"
       id="path208"
       style="fill:#000000;fill-opacity:1;fill-rule:nonzero;stroke:none;stroke-width:0.2"
       d="m 32.132867,495.29458 c 0,0 0,0.77849 0.228967,1.34175 0,0 0.233547,0.55868 0.62737,0.83344 0,0 0.302237,0.2198 0.62279,0.2198 0,0 0.522045,0 0.938765,-0.53578 0,0 0.522045,-0.65942 0.522045,-1.79052 0,0 0,-0.79223 -0.228967,-1.34175 0,0 -0.228967,-0.5541 -0.581576,-0.80138 0,0 -0.357189,-0.25187 -0.686901,-0.25187 0,0 -0.650267,0 -1.080725,0.76475 0,0 -0.361768,0.65027 -0.361768,1.56156 z m 0.654846,-0.087 c 0,0 0,-0.93876 0.228967,-1.5295 0,0 0.196912,-0.50373 0.572418,-0.50373 0,0 0.183173,0 0.375506,0.16486 0,0 0.192332,0.16486 0.293078,0.54494 0,0 0.155697,0.577 0.155697,1.63025 0,0 0,0.77391 -0.164856,1.29595 0,0 -0.114484,0.38467 -0.306816,0.54494 0,0 -0.13738,0.11449 -0.334292,0.11449 0,0 -0.224388,0 -0.402982,-0.21065 0,0 -0.242705,-0.27934 -0.329712,-0.87466 0,0 -0.08701,-0.59989 -0.08701,-1.17689 z m 3.388713,-1.51118 c 0,0 0.155697,0 0.261022,-0.10991 0,0 0.109904,-0.1099 0.109904,-0.26102 0,0 0,-0.1557 -0.109904,-0.2656 0,0 -0.105325,-0.10532 -0.261022,-0.10532 0,0 -0.160277,0 -0.265602,0.10532 0,0 -0.109904,0.1099 -0.109904,0.2656 0,0 0,0.1557 0.109904,0.2656 0,0 0.105325,0.10533 0.265602,0.10533 z m 3.842067,3.9016 -0.265602,-0.57242 -1.369223,0 -0.297657,-0.60905 c 0,0 0.883813,-0.13738 1.410437,-0.66401 0,0 0.439617,-0.45335 0.439617,-1.07614 0,0 0,-0.35719 -0.14196,-0.65943 0,0 -0.14196,-0.30681 -0.366347,-0.52204 0,0 -0.219809,-0.21065 -0.48999,-0.34345 0,0 -0.389244,-0.18318 -0.796805,-0.18318 0,0 -0.407562,0 -0.590735,0.13738 0,0 -0.187753,0.14196 -0.187753,0.30682 0,0 0,0.0916 0.07785,0.16486 0,0 0.07785,0.0687 0.192332,0.0687 0,0 0.08701,0 0.151118,-0.0229 0,0 0.06411,-0.0275 0.224388,-0.14196 0,0 0.256443,-0.16944 0.512886,-0.16944 0,0 0.393823,0 0.686901,0.29766 0,0 0.293078,0.29766 0.293078,0.72354 0,0 0,0.40756 -0.265602,0.76475 0,0 -0.265601,0.36177 -0.728115,0.5541 0,0 -0.366347,0.15112 -0.993717,0.17859 l 0.870075,1.76763 1.634825,0 z" /><path
       inkscape:connector-curvature="0"
       id="path210"
       style="fill:none;stroke:#000000;stroke-width:0.2;stroke-linecap:square;stroke-linejoin:miter;stroke-miterlimit:10;stroke-dasharray:none;stroke-opacity:1"
       d="m 44.471422,511.17573 -1.813419,0" /><path
       inkscape:connector-curvature="0"
       id="path212"
       style="fill:#000000;fill-opacity:1;fill-rule:nonzero;stroke:none;stroke-width:0.2"
       d="m 32.132867,510.86434 c 0,0 0,0.77849 0.228967,1.34175 0,0 0.233547,0.55868 0.62737,0.83344 0,0 0.302237,0.2198 0.62279,0.2198 0,0 0.522045,0 0.938765,-0.53578 0,0 0.522045,-0.65942 0.522045,-1.79052 0,0 0,-0.79223 -0.228967,-1.34175 0,0 -0.228967,-0.5541 -0.581576,-0.80138 0,0 -0.357189,-0.25187 -0.686901,-0.25187 0,0 -0.650267,0 -1.080725,0.76475 0,0 -0.361768,0.65027 -0.361768,1.56156 z m 0.654846,-0.087 c 0,0 0,-0.93876 0.228967,-1.5295 0,0 0.196912,-0.50373 0.572418,-0.50373 0,0 0.183173,0 0.375506,0.16486 0,0 0.192332,0.16486 0.293078,0.54494 0,0 0.155697,0.577 0.155697,1.63025 0,0 0,0.77391 -0.164856,1.29595 0,0 -0.114484,0.38467 -0.306816,0.54494 0,0 -0.13738,0.11449 -0.334292,0.11449 0,0 -0.224388,0 -0.402982,-0.21065 0,0 -0.242705,-0.27934 -0.329712,-0.87466 0,0 -0.08701,-0.59989 -0.08701,-1.17689 z m 3.388713,-1.51118 c 0,0 0.155697,0 0.261022,-0.10991 0,0 0.109904,-0.1099 0.109904,-0.26102 0,0 0,-0.1557 -0.109904,-0.2656 0,0 -0.105325,-0.10532 -0.261022,-0.10532 0,0 -0.160277,0 -0.265602,0.10532 0,0 -0.109904,0.1099 -0.109904,0.2656 0,0 0,0.1557 0.109904,0.2656 0,0 0.105325,0.10533 0.265602,0.10533 z m 3.933654,3.99318 0,-0.12822 c 0,0 -0.444197,-0.0412 -0.723536,-0.17401 0,0 -0.27934,-0.1328 -0.549521,-0.40756 0,0 -0.274761,-0.27019 -0.453355,-0.60448 0,0 -0.178594,-0.32971 -0.297657,-0.78764 0,0 0.476251,0.32971 0.966241,0.32971 0,0 0.462513,0 0.805964,-0.37551 0,0 0.34345,-0.3755 0.34345,-0.96624 0,0 0,-0.57242 -0.34345,-1.04409 0,0 -0.412141,-0.56326 -1.099042,-0.56326 0,0 -0.467093,0 -0.796805,0.30682 0,0 -0.636529,0.59989 -0.636529,1.5524 0,0 0,0.61363 0.247285,1.16315 0,0 0.247284,0.54952 0.700639,0.9754 0,0 0.453355,0.43046 0.870075,0.57699 0,0 0.41672,0.14654 0.773908,0.14654 l 0.192333,0 z m -2.083601,-2.34462 c 0,0 -0.06411,-0.45793 -0.06411,-0.73727 0,0 0,-0.32514 0.123642,-0.70064 0,0 0.119063,-0.37551 0.34803,-0.59532 0,0 0.174015,-0.16027 0.421299,-0.16027 0,0 0.288499,0 0.522045,0.27934 0,0 0.233546,0.27476 0.233546,0.78306 0,0 0,0.57242 -0.228967,0.98914 0,0 -0.228967,0.4213 -0.654845,0.4213 0,0 -0.128222,0 -0.270182,-0.055 0,0 -0.141959,-0.0549 -0.430458,-0.22439 z" /><path
       inkscape:connector-curvature="0"
       id="path214"
       style="fill:none;stroke:#000000;stroke-width:0.2;stroke-linecap:square;stroke-linejoin:miter;stroke-miterlimit:10;stroke-dasharray:none;stroke-opacity:1"
       d="m 44.471422,526.79129 -1.813419,0" /><path
       inkscape:connector-curvature="0"
       id="path216"
       style="fill:#000000;fill-opacity:1;fill-rule:nonzero;stroke:none;stroke-width:0.2"
       d="m 32.132867,526.4341 c 0,0 0,0.77849 0.228967,1.34175 0,0 0.233547,0.55867 0.62737,0.83344 0,0 0.302237,0.2198 0.62279,0.2198 0,0 0.522045,0 0.938765,-0.53578 0,0 0.522045,-0.65942 0.522045,-1.79052 0,0 0,-0.79223 -0.228967,-1.34175 0,0 -0.228967,-0.5541 -0.581576,-0.80138 0,0 -0.357189,-0.25187 -0.686901,-0.25187 0,0 -0.650267,0 -1.080725,0.76475 0,0 -0.361768,0.65027 -0.361768,1.56156 z m 0.654846,-0.087 c 0,0 0,-0.93876 0.228967,-1.5295 0,0 0.196912,-0.50373 0.572418,-0.50373 0,0 0.183173,0 0.375506,0.16486 0,0 0.192332,0.16486 0.293078,0.54494 0,0 0.155697,0.577 0.155697,1.63025 0,0 0,0.77391 -0.164856,1.29595 0,0 -0.114484,0.38466 -0.306816,0.54494 0,0 -0.13738,0.11449 -0.334292,0.11449 0,0 -0.224388,0 -0.402982,-0.21065 0,0 -0.242705,-0.27934 -0.329712,-0.87466 0,0 -0.08701,-0.59989 -0.08701,-1.17689 z m 3.388713,-1.51118 c 0,0 0.155697,0 0.261022,-0.10991 0,0 0.109904,-0.1099 0.109904,-0.26102 0,0 0,-0.1557 -0.109904,-0.2656 0,0 -0.105325,-0.10533 -0.261022,-0.10533 0,0 -0.160277,0 -0.265602,0.10533 0,0 -0.109904,0.1099 -0.109904,0.2656 0,0 0,0.1557 0.109904,0.2656 0,0 0.105325,0.10533 0.265602,0.10533 z m 1.552396,3.9016 2.43163,0 0,-0.12822 -1.515762,-4.51524 -0.375506,0 1.360065,4.08936 -1.25016,0 c 0,0 -0.380086,0 -0.535783,-0.0824 0,0 -0.288499,-0.16028 -0.457934,-0.48083 l -0.09617,0.0366 0.439617,1.08073 z" /><path
       inkscape:connector-curvature="0"
       id="path218"
       style="fill:none;stroke:#000000;stroke-width:0.2;stroke-linecap:square;stroke-linejoin:miter;stroke-miterlimit:10;stroke-dasharray:none;stroke-opacity:1"
       d="m 44.471422,542.40226 -1.813419,0" /><path
       inkscape:connector-curvature="0"
       id="path220"
       style="fill:#000000;fill-opacity:1;fill-rule:nonzero;stroke:none;stroke-width:0.2"
       d="m 32.132867,542.00386 c 0,0 0,0.77849 0.228967,1.34174 0,0 0.233547,0.55868 0.62737,0.83345 0,0 0.302237,0.2198 0.62279,0.2198 0,0 0.522045,0 0.938765,-0.53578 0,0 0.522045,-0.65942 0.522045,-1.79052 0,0 0,-0.79223 -0.228967,-1.34175 0,0 -0.228967,-0.5541 -0.581576,-0.80138 0,0 -0.357189,-0.25187 -0.686901,-0.25187 0,0 -0.650267,0 -1.080725,0.76475 0,0 -0.361768,0.65027 -0.361768,1.56156 z m 0.654846,-0.087 c 0,0 0,-0.93876 0.228967,-1.5295 0,0 0.196912,-0.50373 0.572418,-0.50373 0,0 0.183173,0 0.375506,0.16486 0,0 0.192332,0.16486 0.293078,0.54494 0,0 0.155697,0.577 0.155697,1.63025 0,0 0,0.7739 -0.164856,1.29595 0,0 -0.114484,0.38466 -0.306816,0.54494 0,0 -0.13738,0.11449 -0.334292,0.11449 0,0 -0.224388,0 -0.402982,-0.21065 0,0 -0.242705,-0.27934 -0.329712,-0.87466 0,0 -0.08701,-0.59989 -0.08701,-1.17689 z m 3.388713,-1.51118 c 0,0 0.155697,0 0.261022,-0.10991 0,0 0.109904,-0.1099 0.109904,-0.26102 0,0 0,-0.1557 -0.109904,-0.2656 0,0 -0.105325,-0.10533 -0.261022,-0.10533 0,0 -0.160277,0 -0.265602,0.10533 0,0 -0.109904,0.1099 -0.109904,0.2656 0,0 0,0.1557 0.109904,0.2656 0,0 0.105325,0.10533 0.265602,0.10533 z m 2.175187,1.6394 c 0,0 -0.540363,0.4442 -0.69606,0.7098 0,0 -0.155698,0.27018 -0.155698,0.55868 0,0 0,0.43962 0.343451,0.76475 0,0 0.34345,0.32055 0.906709,0.32055 0,0 0.549521,0 0.888392,-0.30223 0,0 0.334292,-0.29766 0.334292,-0.67775 0,0 0,-0.25644 -0.183173,-0.52204 0,0 -0.178595,-0.2656 -0.751012,-0.62279 0,0 0.586155,-0.45794 0.778488,-0.71438 0,0 0.256443,-0.34345 0.256443,-0.72353 0,0 0,-0.48083 -0.366348,-0.81971 0,0 -0.361767,-0.33887 -0.957082,-0.33887 0,0 -0.650266,0 -1.016614,0.39841 0,0 -0.283919,0.32971 -0.283919,0.71895 0,0 0,0.29766 0.201491,0.59532 0,0 0.206071,0.29765 0.70064,0.65484 z m 0.526624,0.35719 c 0,0 0.402982,0.36635 0.508307,0.577 0,0 0.109904,0.21065 0.109904,0.47625 0,0 0,0.34803 -0.196912,0.54952 0,0 -0.196912,0.20149 -0.540362,0.20149 0,0 -0.343451,0 -0.55868,-0.20149 0,0 -0.215229,-0.20149 -0.215229,-0.46251 0,0 0,-0.17402 0.08701,-0.34803 0,0 0.09159,-0.17402 0.256443,-0.3343 l 0.549521,-0.45793 z m -0.370927,-0.48541 c 0,0 -0.27934,-0.22897 -0.412141,-0.50831 0,0 -0.1328,-0.27934 -0.1328,-0.59989 0,0 0,-0.43046 0.238125,-0.69148 0,0 0.233547,-0.26102 0.599894,-0.26102 0,0 0.366347,0 0.581576,0.20149 0,0 0.219809,0.20607 0.219809,0.49915 0,0 0,0.2427 -0.128222,0.43503 0,0 -0.238126,0.35261 -0.966241,0.92503 z" /><path
       inkscape:connector-curvature="0"
       id="path222"
       style="fill:none;stroke:#000000;stroke-width:0.2;stroke-linecap:square;stroke-linejoin:miter;stroke-miterlimit:10;stroke-dasharray:none;stroke-opacity:1"
       d="m 44.471422,558.01781 -1.813419,0" /><path
       inkscape:connector-curvature="0"
       id="path224"
       style="fill:#000000;fill-opacity:1;fill-rule:nonzero;stroke:none;stroke-width:0.2"
       d="m 32.132867,557.57362 c 0,0 0,0.77849 0.228967,1.34174 0,0 0.233547,0.55868 0.62737,0.83344 0,0 0.302237,0.21981 0.62279,0.21981 0,0 0.522045,0 0.938765,-0.53578 0,0 0.522045,-0.65942 0.522045,-1.79052 0,0 0,-0.79223 -0.228967,-1.34175 0,0 -0.228967,-0.5541 -0.581576,-0.80138 0,0 -0.357189,-0.25187 -0.686901,-0.25187 0,0 -0.650267,0 -1.080725,0.76475 0,0 -0.361768,0.65027 -0.361768,1.56156 z m 0.654846,-0.087 c 0,0 0,-0.93876 0.228967,-1.5295 0,0 0.196912,-0.50373 0.572418,-0.50373 0,0 0.183173,0 0.375506,0.16486 0,0 0.192332,0.16486 0.293078,0.54494 0,0 0.155697,0.577 0.155697,1.63025 0,0 0,0.7739 -0.164856,1.29595 0,0 -0.114484,0.38466 -0.306816,0.54494 0,0 -0.13738,0.11448 -0.334292,0.11448 0,0 -0.224388,0 -0.402982,-0.21064 0,0 -0.242705,-0.27934 -0.329712,-0.87466 0,0 -0.08701,-0.59989 -0.08701,-1.17689 z m 3.388713,-1.51118 c 0,0 0.155697,0 0.261022,-0.10991 0,0 0.109904,-0.1099 0.109904,-0.26102 0,0 0,-0.1557 -0.109904,-0.2656 0,0 -0.105325,-0.10533 -0.261022,-0.10533 0,0 -0.160277,0 -0.265602,0.10533 0,0 -0.109904,0.1099 -0.109904,0.2656 0,0 0,0.1557 0.109904,0.2656 0,0 0.105325,0.10533 0.265602,0.10533 z m 1.222684,-0.74186 0,0.11907 c 0,0 0.435037,0.009 0.810543,0.20607 0,0 0.375506,0.19691 0.728115,0.6869 0,0 0.34803,0.48999 0.48541,1.07614 0,0 -0.531203,-0.33429 -0.952503,-0.33429 0,0 -0.48083,0 -0.824281,0.36635 0,0 -0.343451,0.36635 -0.343451,0.98456 0,0 0,0.59531 0.343451,1.06698 0,0 0.407561,0.56326 1.076145,0.56326 0,0 0.563259,0 0.957082,-0.46251 0,0 0.494569,-0.57242 0.494569,-1.4196 0,0 0,-0.75559 -0.370926,-1.41043 0,0 -0.375506,-0.65485 -1.039511,-1.08531 0,0 -0.544941,-0.35719 -1.18147,-0.35719 l -0.183173,0 z m 2.074441,2.34005 c 0,0 0.06411,0.43504 0.06411,0.69148 0,0 0,0.32971 -0.109904,0.70522 0,0 -0.114484,0.3755 -0.315975,0.57699 0,0 -0.20607,0.20149 -0.462513,0.20149 0,0 -0.297657,0 -0.526625,-0.27018 0,0 -0.224387,-0.27018 -0.224387,-0.7968 0,0 0,-0.7098 0.302236,-1.10362 0,0 0.219809,-0.29308 0.535783,-0.29308 0,0 0.155698,0 0.366347,0.0779 0,0 0.21065,0.0733 0.370927,0.21065 z" /><path
       inkscape:connector-curvature="0"
       id="path226"
       style="fill:none;stroke:#000000;stroke-width:0.2;stroke-linecap:square;stroke-linejoin:miter;stroke-miterlimit:10;stroke-dasharray:none;stroke-opacity:1"
       d="m 44.471422,573.63337 -1.813419,0" /><path
       inkscape:connector-curvature="0"
       id="path228"
       style="fill:#000000;fill-opacity:1;fill-rule:nonzero;stroke:none;stroke-width:0.2"
       d="m 37.728822,574.99343 1.099042,0.54494 0.114484,0 0,-3.84206 c 0,0 0,-0.38009 0.03205,-0.47626 0,0 0.03206,-0.0962 0.132801,-0.14653 0,0 0.100745,-0.0504 0.407561,-0.055 l 0,-0.12364 -1.708094,0 0,0.12364 c 0,0 0.320554,0.005 0.412141,0.055 0,0 0.09617,0.0504 0.132801,0.1328 0,0 0.03205,0.0824 0.03205,0.48999 l 0,2.45452 c 0,0 0,0.49915 -0.02748,0.63653 0,0 -0.02748,0.10533 -0.08701,0.1557 0,0 -0.06411,0.0504 -0.146539,0.0504 0,0 -0.1328,0 -0.34345,-0.10074 l -0.05037,0.10074 z" /><path
       inkscape:connector-curvature="0"
       id="path230"
       style="fill:none;stroke:#000000;stroke-width:0.2;stroke-linecap:square;stroke-linejoin:miter;stroke-miterlimit:10;stroke-dasharray:none;stroke-opacity:1"
       d="m 44.471422,425.29477 -0.906709,0" /><path
       inkscape:connector-curvature="0"
       id="path232"
       style="fill:none;stroke:#000000;stroke-width:0.2;stroke-linecap:square;stroke-linejoin:miter;stroke-miterlimit:10;stroke-dasharray:none;stroke-opacity:1"
       d="m 44.471422,440.91032 -0.906709,0" /><path
       inkscape:connector-curvature="0"
       id="path234"
       style="fill:none;stroke:#000000;stroke-width:0.2;stroke-linecap:square;stroke-linejoin:miter;stroke-miterlimit:10;stroke-dasharray:none;stroke-opacity:1"
       d="m 44.471422,456.5213 -0.906709,0" /><path
       inkscape:connector-curvature="0"
       id="path236"
       style="fill:none;stroke:#000000;stroke-width:0.2;stroke-linecap:square;stroke-linejoin:miter;stroke-miterlimit:10;stroke-dasharray:none;stroke-opacity:1"
       d="m 44.471422,472.13685 -0.906709,0" /><path
       inkscape:connector-curvature="0"
       id="path238"
       style="fill:none;stroke:#000000;stroke-width:0.2;stroke-linecap:square;stroke-linejoin:miter;stroke-miterlimit:10;stroke-dasharray:none;stroke-opacity:1"
       d="m 44.471422,487.7524 -0.906709,0" /><path
       inkscape:connector-curvature="0"
       id="path240"
       style="fill:none;stroke:#000000;stroke-width:0.2;stroke-linecap:square;stroke-linejoin:miter;stroke-miterlimit:10;stroke-dasharray:none;stroke-opacity:1"
       d="m 44.471422,503.36796 -0.906709,0" /><path
       inkscape:connector-curvature="0"
       id="path242"
       style="fill:none;stroke:#000000;stroke-width:0.2;stroke-linecap:square;stroke-linejoin:miter;stroke-miterlimit:10;stroke-dasharray:none;stroke-opacity:1"
       d="m 44.471422,518.98351 -0.906709,0" /><path
       inkscape:connector-curvature="0"
       id="path244"
       style="fill:none;stroke:#000000;stroke-width:0.2;stroke-linecap:square;stroke-linejoin:miter;stroke-miterlimit:10;stroke-dasharray:none;stroke-opacity:1"
       d="m 44.471422,534.59448 -0.906709,0" /><path
       inkscape:connector-curvature="0"
       id="path246"
       style="fill:none;stroke:#000000;stroke-width:0.2;stroke-linecap:square;stroke-linejoin:miter;stroke-miterlimit:10;stroke-dasharray:none;stroke-opacity:1"
       d="m 44.471422,550.21004 -0.906709,0" /><path
       inkscape:connector-curvature="0"
       id="path248"
       style="fill:none;stroke:#000000;stroke-width:0.2;stroke-linecap:square;stroke-linejoin:miter;stroke-miterlimit:10;stroke-dasharray:none;stroke-opacity:1"
       d="m 44.471422,565.82559 -0.906709,0" /><path
       d="m 229.93268,417.44686 0,156.61347"
       style="fill:none;stroke:#a5a5a5;stroke-width:0.2;stroke-linecap:butt;stroke-linejoin:round;stroke-miterlimit:10;stroke-dasharray:none;stroke-opacity:1"
       id="path4438"
       inkscape:connector-curvature="0" /><path
       d="m 252.20659,417.44686 0,156.61347"
       style="fill:none;stroke:#a5a5a5;stroke-width:0.2;stroke-linecap:butt;stroke-linejoin:round;stroke-miterlimit:10;stroke-dasharray:none;stroke-opacity:1"
       id="path4440"
       inkscape:connector-curvature="0" /><path
       d="m 274.48509,417.44686 0,156.61347"
       style="fill:none;stroke:#a5a5a5;stroke-width:0.2;stroke-linecap:butt;stroke-linejoin:round;stroke-miterlimit:10;stroke-dasharray:none;stroke-opacity:1"
       id="path4442"
       inkscape:connector-curvature="0" /><path
       d="m 296.759,417.44686 0,156.61347"
       style="fill:none;stroke:#a5a5a5;stroke-width:0.2;stroke-linecap:butt;stroke-linejoin:round;stroke-miterlimit:10;stroke-dasharray:none;stroke-opacity:1"
       id="path4444"
       inkscape:connector-curvature="0" /><path
       d="m 319.03292,417.44686 0,156.61347"
       style="fill:none;stroke:#a5a5a5;stroke-width:0.2;stroke-linecap:butt;stroke-linejoin:round;stroke-miterlimit:10;stroke-dasharray:none;stroke-opacity:1"
       id="path4446"
       inkscape:connector-curvature="0" /><path
       d="m 341.30683,417.44686 0,156.61347"
       style="fill:none;stroke:#a5a5a5;stroke-width:0.2;stroke-linecap:butt;stroke-linejoin:round;stroke-miterlimit:10;stroke-dasharray:none;stroke-opacity:1"
       id="path4448"
       inkscape:connector-curvature="0" /><path
       d="m 363.58533,417.44686 0,156.61347"
       style="fill:none;stroke:#a5a5a5;stroke-width:0.2;stroke-linecap:butt;stroke-linejoin:round;stroke-miterlimit:10;stroke-dasharray:none;stroke-opacity:1"
       id="path4450"
       inkscape:connector-curvature="0" /><path
       d="m 385.85924,417.44686 0,156.61347"
       style="fill:none;stroke:#a5a5a5;stroke-width:0.2;stroke-linecap:butt;stroke-linejoin:round;stroke-miterlimit:10;stroke-dasharray:none;stroke-opacity:1"
       id="path4452"
       inkscape:connector-curvature="0" /><path
       d="m 241.06963,417.44686 0,156.61347"
       style="fill:none;stroke:#e9e9e9;stroke-width:0.2;stroke-linecap:butt;stroke-linejoin:round;stroke-miterlimit:10;stroke-dasharray:none;stroke-opacity:1"
       id="path4454"
       inkscape:connector-curvature="0" /><path
       d="m 263.34355,417.44686 0,156.61347"
       style="fill:none;stroke:#e9e9e9;stroke-width:0.2;stroke-linecap:butt;stroke-linejoin:round;stroke-miterlimit:10;stroke-dasharray:none;stroke-opacity:1"
       id="path4456"
       inkscape:connector-curvature="0" /><path
       d="m 285.62204,417.44686 0,156.61347"
       style="fill:none;stroke:#e9e9e9;stroke-width:0.2;stroke-linecap:butt;stroke-linejoin:round;stroke-miterlimit:10;stroke-dasharray:none;stroke-opacity:1"
       id="path4458"
       inkscape:connector-curvature="0" /><path
       d="m 307.89596,417.44686 0,156.61347"
       style="fill:none;stroke:#e9e9e9;stroke-width:0.2;stroke-linecap:butt;stroke-linejoin:round;stroke-miterlimit:10;stroke-dasharray:none;stroke-opacity:1"
       id="path4460"
       inkscape:connector-curvature="0" /><path
       d="m 330.16987,417.44686 0,156.61347"
       style="fill:none;stroke:#e9e9e9;stroke-width:0.2;stroke-linecap:butt;stroke-linejoin:round;stroke-miterlimit:10;stroke-dasharray:none;stroke-opacity:1"
       id="path4462"
       inkscape:connector-curvature="0" /><path
       d="m 352.44379,417.44686 0,156.61347"
       style="fill:none;stroke:#e9e9e9;stroke-width:0.2;stroke-linecap:butt;stroke-linejoin:round;stroke-miterlimit:10;stroke-dasharray:none;stroke-opacity:1"
       id="path4464"
       inkscape:connector-curvature="0" /><path
       d="m 374.72228,417.44686 0,156.61347"
       style="fill:none;stroke:#e9e9e9;stroke-width:0.2;stroke-linecap:butt;stroke-linejoin:round;stroke-miterlimit:10;stroke-dasharray:none;stroke-opacity:1"
       id="path4466"
       inkscape:connector-curvature="0" /><path
       d="m 229.93268,439.74367 155.92656,0"
       style="fill:none;stroke:#a5a5a5;stroke-width:0.2;stroke-linecap:butt;stroke-linejoin:round;stroke-miterlimit:10;stroke-dasharray:none;stroke-opacity:1"
       id="path4468"
       inkscape:connector-curvature="0" /><path
       d="m 229.93268,466.60609 155.92656,0"
       style="fill:none;stroke:#a5a5a5;stroke-width:0.2;stroke-linecap:butt;stroke-linejoin:round;stroke-miterlimit:10;stroke-dasharray:none;stroke-opacity:1"
       id="path4470"
       inkscape:connector-curvature="0" /><path
       d="m 229.93268,493.4685 155.92656,0"
       style="fill:none;stroke:#a5a5a5;stroke-width:0.2;stroke-linecap:butt;stroke-linejoin:round;stroke-miterlimit:10;stroke-dasharray:none;stroke-opacity:1"
       id="path4472"
       inkscape:connector-curvature="0" /><path
       d="m 229.93268,520.33092 155.92656,0"
       style="fill:none;stroke:#a5a5a5;stroke-width:0.2;stroke-linecap:butt;stroke-linejoin:round;stroke-miterlimit:10;stroke-dasharray:none;stroke-opacity:1"
       id="path4474"
       inkscape:connector-curvature="0" /><path
       d="m 229.93268,547.19333 155.92656,0"
       style="fill:none;stroke:#a5a5a5;stroke-width:0.2;stroke-linecap:butt;stroke-linejoin:round;stroke-miterlimit:10;stroke-dasharray:none;stroke-opacity:1"
       id="path4476"
       inkscape:connector-curvature="0" /><path
       d="m 229.93268,574.06033 155.92656,0"
       style="fill:none;stroke:#a5a5a5;stroke-width:0.2;stroke-linecap:butt;stroke-linejoin:round;stroke-miterlimit:10;stroke-dasharray:none;stroke-opacity:1"
       id="path4478"
       inkscape:connector-curvature="0" /><path
       d="m 229.93268,453.17488 155.92656,0"
       style="fill:none;stroke:#e9e9e9;stroke-width:0.2;stroke-linecap:butt;stroke-linejoin:round;stroke-miterlimit:10;stroke-dasharray:none;stroke-opacity:1"
       id="path4480"
       inkscape:connector-curvature="0" /><path
       d="m 229.93268,453.17488 155.92656,0"
       style="fill:none;stroke:#e9e9e9;stroke-width:0.2;stroke-linecap:butt;stroke-linejoin:round;stroke-miterlimit:10;stroke-dasharray:none;stroke-opacity:1"
       id="path4482"
       inkscape:connector-curvature="0" /><path
       d="m 229.93268,480.0373 155.92656,0"
       style="fill:none;stroke:#e9e9e9;stroke-width:0.2;stroke-linecap:butt;stroke-linejoin:round;stroke-miterlimit:10;stroke-dasharray:none;stroke-opacity:1"
       id="path4484"
       inkscape:connector-curvature="0" /><path
       d="m 229.93268,506.89971 155.92656,0"
       style="fill:none;stroke:#e9e9e9;stroke-width:0.2;stroke-linecap:butt;stroke-linejoin:round;stroke-miterlimit:10;stroke-dasharray:none;stroke-opacity:1"
       id="path4486"
       inkscape:connector-curvature="0" /><path
       d="m 229.93268,533.76213 155.92656,0"
       style="fill:none;stroke:#e9e9e9;stroke-width:0.2;stroke-linecap:butt;stroke-linejoin:round;stroke-miterlimit:10;stroke-dasharray:none;stroke-opacity:1"
       id="path4488"
       inkscape:connector-curvature="0" /><path
       d="m 229.93268,560.62454 155.92656,0"
       style="fill:none;stroke:#e9e9e9;stroke-width:0.2;stroke-linecap:butt;stroke-linejoin:round;stroke-miterlimit:10;stroke-dasharray:none;stroke-opacity:1"
       id="path4490"
       inkscape:connector-curvature="0" /><path
       inkscape:connector-curvature="0"
       id="path4498"
       style="fill:none;stroke:#000000;stroke-width:0.80000001;stroke-linecap:butt;stroke-linejoin:round;stroke-miterlimit:10;stroke-dasharray:none;stroke-opacity:1"
       d="m 229.93268,574.06033 0.8197,-0.17402 0.71438,-0.1557 0.80138,-0.17859 0.80597,-0.18775 0.80596,-0.18776 0.74643,-0.18317 0.76933,-0.19233 0.79681,-0.20149 0.7968,-0.20607 0.8197,-0.21981 0.71896,-0.19691 0.81054,-0.22897 0.81513,-0.23355 0.78306,-0.23354 0.71438,-0.21523 0.84718,-0.26102 0.71896,-0.22439 0.83344,-0.2656 0.74185,-0.24271 0.81054,-0.27476 0.77391,-0.26102 0.80597,-0.28392 0.73727,-0.26102 0.7968,-0.29308 0.83344,-0.30682 0.71896,-0.27018 0.77849,-0.30223 0.80596,-0.31598 0.78765,-0.31597 0.76475,-0.3114 0.84718,-0.34803 0.76017,-0.32055 0.81054,-0.35261 0.73728,-0.32056 0.80138,-0.35718 0.76017,-0.34345 0.79223,-0.36177 0.77391,-0.36177 0.80596,-0.38467 0.78307,-0.38008 0.7968,-0.38924 0.79223,-0.39383 0.72353,-0.37092 0.83344,-0.42588 0.74644,-0.38925 0.7968,-0.4213 0.76017,-0.41214 0.8426,-0.45793 0.7327,-0.40756 0.82886,-0.4671 0.75559,-0.43045 0.82886,-0.47626 0.71438,-0.42129 0.81054,-0.48084 0.78765,-0.47167 0.78306,-0.48083 0.78307,-0.48541 0.75101,-0.46709 0.81055,-0.51747 0.77391,-0.49915 0.81512,-0.52662 0.73727,-0.48999 0.81512,-0.54036 0.77849,-0.5312 0.77849,-0.53121 0.81512,-0.56326 0.75101,-0.52662 0.76475,-0.54494 0.84718,-0.60448 0.76475,-0.55868 0.78765,-0.57699 0.79681,-0.59074 0.73269,-0.54952 0.78307,-0.59531 0.77391,-0.59532 0.82886,-0.64568 0.73269,-0.57242 0.84718,-0.67317 0.76017,-0.60905 0.75559,-0.61363 0.81054,-0.664 0.81513,-0.67317 0.73727,-0.61821 0.78765,-0.664 0.76933,-0.65485 0.83344,-0.71895 0.71895,-0.62737 0.82886,-0.72354 0.77391,-0.69148 0.77391,-0.69148 0.76933,-0.69606 0.78307,-0.71896 0.83344,-0.76475 0.76475,-0.7098 0.75559,-0.70979 0.80596,-0.76475 0.80597,-0.76933 0.71895,-0.69606 0.85634,-0.83344 0.71438,-0.70522 0.83802,-0.82886 0.80138,-0.79681 0.7098,-0.71895 0.80596,-0.81513 0.80597,-0.82886 0.80138,-0.83344 0.74644,-0.77849 0.7739,-0.81054 0.79681,-0.84718 0.79223,-0.84717 0.8197,-0.88382 0.71895,-0.78307 0.81513,-0.88839 0.81512,-0.90213 0.78307,-0.87465 0.71437,-0.79681 0.84718,-0.96166 0.71438,-0.8197 0.83802,-0.95708 0.73727,-0.85634 0.81055,-0.94334 0.7739,-0.91129 0.80597,-0.95251 0.74185,-0.88381 0.79681,-0.95708 0.82886,-1.00288 0.72353,-0.88381 0.77849,-0.95708 0.80597,-0.99372 0.78764,-0.97998 0.76017,-0.95708 0.84718,-1.07157 0.76017,-0.96624 0.81512,-1.03951 0.7327,-0.9525 0.80596,-1.04409 0.75559,-0.98914 0.79223,-1.04409 0.77391,-1.02577 0.81054,-1.08072 0.77849,-1.04867 0.79681,-1.07615 0.79222,-1.07614 0.72812,-0.9983 0.83344,-1.14941 0.74643,-1.03494 0.79223,-1.1082 0.76017,-1.06698 0.84717,-1.19521 0.72812,-1.04409 0.82886,-1.18605 0.76017,-1.08988 0.82428,-1.20437 0.71438,-1.03951 0.81512,-1.19521 0.78307,-1.15857 0.78765,-1.16773 0.77848,-1.16774 0.75102,-1.13109 0.81512,-1.22727 0.77391,-1.18147 0.81512,-1.24558 0.73727,-1.13567 0.81055,-1.2639 0.78307,-1.21353 0.77848,-1.22268 0.81513,-1.27764 0.74643,-1.19063 0.76933,-1.22268 0.84718,-1.35549 0.76475,-1.23642 0.78306,-1.27305 0.79681,-1.30054 0.73727,-1.19978 0.77849,-1.29138 0.77849,-1.28221 0.82886,-1.38296 0.73269,-1.22727 0.8426,-1.41959 0.76475,-1.29138 0.75101,-1.28679 0.81055,-1.38754 0.81512,-1.40128 0.74185,-1.27764 0.78765,-1.36922 0.76475,-1.34175 0.83344,-1.46081 0.72354,-1.27305 0.82428,-1.46539 0.77849,-1.38754 0.76933,-1.38297 0.76932,-1.38754 0.78765,-1.41959 0.83344,-1.51576 0.76475,-1.40128 0.75559,-1.38296 0.80597,-1.48829 0.80138,-1.49286 0.76017,-1.41502" /><path
       inkscape:connector-curvature="0"
       id="path4508"
       style="fill:none;stroke:#000000;stroke-width:0.40000001;stroke-linecap:butt;stroke-linejoin:round;stroke-miterlimit:10;stroke-dasharray:none;stroke-opacity:1"
       d="m 229.93268,417.44686 155.92656,0" /><path
       inkscape:connector-curvature="0"
       id="path4526"
       style="fill:none;stroke:#000000;stroke-width:0.2;stroke-linecap:square;stroke-linejoin:miter;stroke-miterlimit:10;stroke-dasharray:none;stroke-opacity:1"
       d="m 229.93268,417.44686 0,-1.85921" /><path
       inkscape:connector-curvature="0"
       id="path4528"
       style="fill:#000000;fill-opacity:1;fill-rule:nonzero;stroke:none;stroke-width:0.2"
       d="m 228.81074,411.4525 c 0,0 0,0.77849 0.22897,1.34175 0,0 0.23354,0.55868 0.62737,0.83344 0,0 0.30223,0.21981 0.62279,0.21981 0,0 0.52204,0 0.93876,-0.53578 0,0 0.52205,-0.65943 0.52205,-1.79053 0,0 0,-0.79222 -0.22897,-1.34174 0,0 -0.22897,-0.5541 -0.58158,-0.80139 0,0 -0.35719,-0.25186 -0.6869,-0.25186 0,0 -0.65027,0 -1.08072,0.76475 0,0 -0.36177,0.65027 -0.36177,1.56155 z m 0.65484,-0.087 c 0,0 0,-0.93877 0.22897,-1.5295 0,0 0.19691,-0.50373 0.57242,-0.50373 0,0 0.18317,0 0.37551,0.16486 0,0 0.19233,0.16485 0.29307,0.54494 0,0 0.1557,0.57699 0.1557,1.63024 0,0 0,0.77391 -0.16486,1.29596 0,0 -0.11448,0.38466 -0.30681,0.54494 0,0 -0.13738,0.11448 -0.33429,0.11448 0,0 -0.22439,0 -0.40299,-0.21065 0,0 -0.2427,-0.27934 -0.32971,-0.87465 0,0 -0.087,-0.5999 -0.087,-1.17689 z" /><path
       inkscape:connector-curvature="0"
       id="path4530"
       style="fill:none;stroke:#000000;stroke-width:0.2;stroke-linecap:square;stroke-linejoin:miter;stroke-miterlimit:10;stroke-dasharray:none;stroke-opacity:1"
       d="m 252.20659,417.44686 0,-1.85921" /><path
       inkscape:connector-curvature="0"
       id="path4532"
       style="fill:#000000;fill-opacity:1;fill-rule:nonzero;stroke:none;stroke-width:0.2"
       d="m 251.35026,413.30256 1.09904,0.54494 0.11448,0 0,-3.84207 c 0,0 0,-0.38008 0.0321,-0.47625 0,0 0.032,-0.0962 0.1328,-0.14654 0,0 0.10074,-0.0504 0.40756,-0.0549 l 0,-0.12364 -1.7081,0 0,0.12364 c 0,0 0.32056,0.005 0.41215,0.0549 0,0 0.0962,0.0504 0.1328,0.1328 0,0 0.032,0.0824 0.032,0.48999 l 0,2.45453 c 0,0 0,0.49915 -0.0275,0.63653 0,0 -0.0275,0.10532 -0.087,0.1557 0,0 -0.0641,0.0504 -0.14654,0.0504 0,0 -0.1328,0 -0.34345,-0.10075 l -0.0504,0.10075 z" /><path
       inkscape:connector-curvature="0"
       id="path4534"
       style="fill:none;stroke:#000000;stroke-width:0.2;stroke-linecap:square;stroke-linejoin:miter;stroke-miterlimit:10;stroke-dasharray:none;stroke-opacity:1"
       d="m 274.48509,417.44686 0,-1.85921" /><path
       inkscape:connector-curvature="0"
       id="path4536"
       style="fill:#000000;fill-opacity:1;fill-rule:nonzero;stroke:none;stroke-width:0.2"
       d="m 276.12907,410.0787 -0.31597,-0.87465 -2.6835,0 0,0.12364 c 0,0 1.18147,1.08072 1.6623,1.76763 0,0 0.48541,0.6869 0.48541,1.25016 0,0 0,0.43045 -0.2656,0.70979 0,0 -0.2656,0.27934 -0.63653,0.27934 0,0 -0.32971,0 -0.59989,-0.19691 0,0 -0.2656,-0.19691 -0.39382,-0.577 l -0.12365,0 c 0,0 0.087,0.6228 0.43046,0.95251 0,0 0.34803,0.33429 0.8655,0.33429 0,0 0.55868,0 0.92502,-0.35719 0,0 0.37093,-0.35719 0.37093,-0.83802 0,0 0,-0.34345 -0.16028,-0.69148 0,0 -0.24728,-0.54494 -0.80596,-1.14483 0,0 -0.83344,-0.91587 -1.04409,-1.10363 l 1.18605,0 c 0,0 0.36635,0 0.51289,0.0229 0,0 0.14653,0.0275 0.26102,0.10991 0,0 0.11906,0.0824 0.20607,0.23354 l 0.12364,0 z" /><path
       inkscape:connector-curvature="0"
       id="path4538"
       style="fill:none;stroke:#000000;stroke-width:0.2;stroke-linecap:square;stroke-linejoin:miter;stroke-miterlimit:10;stroke-dasharray:none;stroke-opacity:1"
       d="m 296.759,417.44686 0,-1.85921" /><path
       inkscape:connector-curvature="0"
       id="path4540"
       style="fill:#000000;fill-opacity:1;fill-rule:nonzero;stroke:none;stroke-width:0.2"
       d="m 295.31193,412.89042 c 0,0 0.19233,0.45793 0.48999,0.70522 0,0 0.29308,0.25186 0.73727,0.25186 0,0 0.54495,0 0.83802,-0.35719 0,0 0.22439,-0.2656 0.22439,-0.56326 0,0 0,-0.50373 -0.62279,-1.03035 0,0 0.41214,-0.16486 0.62737,-0.47167 0,0 0.21523,-0.30224 0.21523,-0.71896 0,0 0,-0.58615 -0.37093,-1.01661 0,0 -0.49457,-0.56326 -1.41959,-0.56326 0,0 -0.46252,0 -0.62737,0.11448 0,0 -0.16486,0.11449 -0.16486,0.24271 0,0 0,0.10074 0.0779,0.16943 0,0 0.0779,0.0733 0.18775,0.0733 0,0 0.087,0 0.16944,-0.0275 0,0 0.0595,-0.0137 0.26102,-0.11907 0,0 0.20607,-0.10532 0.27476,-0.12364 0,0 0.1328,-0.0366 0.2656,-0.0366 0,0 0.34345,0 0.5999,0.2656 0,0 0.25186,0.2656 0.25186,0.62279 0,0 0,0.26102 -0.11448,0.51289 0,0 -0.0916,0.19233 -0.19234,0.28849 0,0 -0.14196,0.1328 -0.3984,0.24271 0,0 -0.25186,0.10532 -0.50831,0.10532 l -0.1099,0 0,0.10991 c 0,0 0.2656,0.0275 0.5312,0.18317 0,0 0.26561,0.16028 0.38467,0.38009 0,0 0.12364,0.22438 0.12364,0.48541 0,0 0,0.34345 -0.21523,0.55868 0,0 -0.21523,0.21523 -0.53578,0.21523 0,0 -0.52205,0 -0.87465,-0.55868 l -0.10533,0.0595 z" /><path
       inkscape:connector-curvature="0"
       id="path4542"
       style="fill:none;stroke:#000000;stroke-width:0.2;stroke-linecap:square;stroke-linejoin:miter;stroke-miterlimit:10;stroke-dasharray:none;stroke-opacity:1"
       d="m 319.03292,417.44686 0,-1.85921" /><path
       inkscape:connector-curvature="0"
       id="path4544"
       style="fill:#000000;fill-opacity:1;fill-rule:nonzero;stroke:none;stroke-width:0.2"
       d="m 320.59447,410.88009 0,-0.47168 -0.61363,0 0,-1.20436 -0.54952,0 0,1.20436 -1.9279,0 0,0.42588 2.11107,3.01321 0.36635,0 0,-2.96741 0.61363,0 z m -1.16315,0 0,2.25761 -1.59819,-2.25761 1.59819,0 z" /><path
       inkscape:connector-curvature="0"
       id="path4546"
       style="fill:none;stroke:#000000;stroke-width:0.2;stroke-linecap:square;stroke-linejoin:miter;stroke-miterlimit:10;stroke-dasharray:none;stroke-opacity:1"
       d="m 341.30683,417.44686 0,-1.85921" /><path
       inkscape:connector-curvature="0"
       id="path4548"
       style="fill:#000000;fill-opacity:1;fill-rule:nonzero;stroke:none;stroke-width:0.2"
       d="m 342.82259,413.75591 -0.2656,-0.57241 -1.36922,0 -0.29766,-0.60906 c 0,0 0.88381,-0.13738 1.41044,-0.664 0,0 0.43962,-0.45336 0.43962,-1.07615 0,0 0,-0.35719 -0.14196,-0.65942 0,0 -0.14196,-0.30682 -0.36635,-0.52205 0,0 -0.21981,-0.21065 -0.48999,-0.34345 0,0 -0.38924,-0.18317 -0.79681,-0.18317 0,0 -0.40756,0 -0.59073,0.13738 0,0 -0.18775,0.14196 -0.18775,0.30682 0,0 0,0.0916 0.0779,0.16485 0,0 0.0778,0.0687 0.19233,0.0687 0,0 0.087,0 0.15112,-0.0229 0,0 0.0641,-0.0275 0.22438,-0.14195 0,0 0.25645,-0.16944 0.51289,-0.16944 0,0 0.39382,0 0.6869,0.29766 0,0 0.29308,0.29765 0.29308,0.72353 0,0 0,0.40756 -0.2656,0.76475 0,0 -0.26561,0.36177 -0.72812,0.5541 0,0 -0.36635,0.15112 -0.99372,0.1786 l 0.87008,1.76762 1.63482,0 z" /><path
       inkscape:connector-curvature="0"
       id="path4550"
       style="fill:none;stroke:#000000;stroke-width:0.2;stroke-linecap:square;stroke-linejoin:miter;stroke-miterlimit:10;stroke-dasharray:none;stroke-opacity:1"
       d="m 363.58533,417.44686 0,-1.85921" /><path
       inkscape:connector-curvature="0"
       id="path4552"
       style="fill:#000000;fill-opacity:1;fill-rule:nonzero;stroke:none;stroke-width:0.2"
       d="m 364.89502,413.8475 0,-0.12822 c 0,0 -0.4442,-0.0412 -0.72354,-0.17402 0,0 -0.27934,-0.1328 -0.54952,-0.40756 0,0 -0.27476,-0.27018 -0.45335,-0.60447 0,0 -0.1786,-0.32971 -0.29766,-0.78765 0,0 0.47625,0.32971 0.96624,0.32971 0,0 0.46251,0 0.80596,-0.3755 0,0 0.34346,-0.37551 0.34346,-0.96624 0,0 0,-0.57242 -0.34346,-1.04409 0,0 -0.41214,-0.56326 -1.09904,-0.56326 0,0 -0.46709,0 -0.7968,0.30681 0,0 -0.63653,0.5999 -0.63653,1.5524 0,0 0,0.61363 0.24728,1.16315 0,0 0.24729,0.54953 0.70064,0.9754 0,0 0.45336,0.43046 0.87008,0.577 0,0 0.41672,0.14654 0.77391,0.14654 l 0.19233,0 z m -2.0836,-2.34462 c 0,0 -0.0641,-0.45794 -0.0641,-0.73728 0,0 0,-0.32513 0.12364,-0.70064 0,0 0.11906,-0.3755 0.34803,-0.59531 0,0 0.17401,-0.16028 0.4213,-0.16028 0,0 0.2885,0 0.52204,0.27934 0,0 0.23355,0.27476 0.23355,0.78307 0,0 0,0.57242 -0.22897,0.98914 0,0 -0.22896,0.4213 -0.65484,0.4213 0,0 -0.12822,0 -0.27018,-0.055 0,0 -0.14196,-0.055 -0.43046,-0.22438 z" /><path
       inkscape:connector-curvature="0"
       id="path4554"
       style="fill:none;stroke:#000000;stroke-width:0.2;stroke-linecap:square;stroke-linejoin:miter;stroke-miterlimit:10;stroke-dasharray:none;stroke-opacity:1"
       d="m 385.85924,417.44686 0,-1.85921" /><path
       inkscape:connector-curvature="0"
       id="path4556"
       style="fill:#000000;fill-opacity:1;fill-rule:nonzero;stroke:none;stroke-width:0.2"
       d="m 384.95253,413.75591 2.43163,0 0,-0.12822 -1.51576,-4.51523 -0.37551,0 1.36007,4.08935 -1.25016,0 c 0,0 -0.38009,0 -0.53578,-0.0824 0,0 -0.2885,-0.16027 -0.45794,-0.48083 l -0.0962,0.0366 0.43961,1.08072 z" /><path
       inkscape:connector-curvature="0"
       id="path4558"
       style="fill:none;stroke:#000000;stroke-width:0.2;stroke-linecap:square;stroke-linejoin:miter;stroke-miterlimit:10;stroke-dasharray:none;stroke-opacity:1"
       d="m 241.06963,417.44686 0,-0.9296" /><path
       inkscape:connector-curvature="0"
       id="path4560"
       style="fill:none;stroke:#000000;stroke-width:0.2;stroke-linecap:square;stroke-linejoin:miter;stroke-miterlimit:10;stroke-dasharray:none;stroke-opacity:1"
       d="m 263.34355,417.44686 0,-0.9296" /><path
       inkscape:connector-curvature="0"
       id="path4562"
       style="fill:none;stroke:#000000;stroke-width:0.2;stroke-linecap:square;stroke-linejoin:miter;stroke-miterlimit:10;stroke-dasharray:none;stroke-opacity:1"
       d="m 285.62204,417.44686 0,-0.9296" /><path
       inkscape:connector-curvature="0"
       id="path4564"
       style="fill:none;stroke:#000000;stroke-width:0.2;stroke-linecap:square;stroke-linejoin:miter;stroke-miterlimit:10;stroke-dasharray:none;stroke-opacity:1"
       d="m 307.89596,417.44686 0,-0.9296" /><path
       inkscape:connector-curvature="0"
       id="path4566"
       style="fill:none;stroke:#000000;stroke-width:0.2;stroke-linecap:square;stroke-linejoin:miter;stroke-miterlimit:10;stroke-dasharray:none;stroke-opacity:1"
       d="m 330.16987,417.44686 0,-0.9296" /><path
       inkscape:connector-curvature="0"
       id="path4568"
       style="fill:none;stroke:#000000;stroke-width:0.2;stroke-linecap:square;stroke-linejoin:miter;stroke-miterlimit:10;stroke-dasharray:none;stroke-opacity:1"
       d="m 352.44379,417.44686 0,-0.9296" /><path
       inkscape:connector-curvature="0"
       id="path4570"
       style="fill:none;stroke:#000000;stroke-width:0.2;stroke-linecap:square;stroke-linejoin:miter;stroke-miterlimit:10;stroke-dasharray:none;stroke-opacity:1"
       d="m 374.72228,417.44686 0,-0.9296" /><path
       inkscape:connector-curvature="0"
       id="path4572"
       style="fill:none;stroke:#000000;stroke-width:0.40000001;stroke-linecap:butt;stroke-linejoin:round;stroke-miterlimit:10;stroke-dasharray:none;stroke-opacity:1"
       d="m 229.93268,417.44686 0,156.61347" /><g
       clip-path="url(#clipPath4576)"
       id="g4574"
       transform="matrix(0.45793411,0,0,0.45793411,174.52265,243.4319)" /><path
       inkscape:connector-curvature="0"
       id="path4588"
       style="fill:none;stroke:#000000;stroke-width:0.2;stroke-linecap:square;stroke-linejoin:miter;stroke-miterlimit:10;stroke-dasharray:none;stroke-opacity:1"
       d="m 229.93268,439.74367 -1.85922,0" /><path
       inkscape:connector-curvature="0"
       id="path4590"
       style="fill:#000000;fill-opacity:1;fill-rule:nonzero;stroke:none;stroke-width:0.2"
       d="m 211.96792,440.32067 1.09904,0.54494 0.11449,0 0,-3.84206 c 0,0 0,-0.38009 0.032,-0.47626 0,0 0.0321,-0.0962 0.1328,-0.14654 0,0 0.10075,-0.0504 0.40757,-0.055 l 0,-0.12364 -1.7081,0 0,0.12364 c 0,0 0.32055,0.005 0.41214,0.055 0,0 0.0962,0.0504 0.1328,0.13281 0,0 0.0321,0.0824 0.0321,0.48999 l 0,2.45452 c 0,0 0,0.49915 -0.0275,0.63653 0,0 -0.0275,0.10533 -0.087,0.1557 0,0 -0.0641,0.0504 -0.14653,0.0504 0,0 -0.13281,0 -0.34346,-0.10074 l -0.0504,0.10074 z m 2.87583,-1.85005 c 0,0 0,0.77848 0.22897,1.34174 0,0 0.23354,0.55868 0.62737,0.83344 0,0 0.30223,0.21981 0.62279,0.21981 0,0 0.52204,0 0.93876,-0.53578 0,0 0.52205,-0.65943 0.52205,-1.79052 0,0 0,-0.79223 -0.22897,-1.34175 0,0 -0.22897,-0.5541 -0.58158,-0.80138 0,0 -0.35719,-0.25187 -0.6869,-0.25187 0,0 -0.65027,0 -1.08072,0.76475 0,0 -0.36177,0.65027 -0.36177,1.56156 z m 0.65484,-0.087 c 0,0 0,-0.93877 0.22897,-1.5295 0,0 0.19691,-0.50373 0.57242,-0.50373 0,0 0.18317,0 0.3755,0.16486 0,0 0.19234,0.16485 0.29308,0.54494 0,0 0.1557,0.577 0.1557,1.63025 0,0 0,0.7739 -0.16486,1.29595 0,0 -0.11448,0.38466 -0.30681,0.54494 0,0 -0.13738,0.11448 -0.33429,0.11448 0,0 -0.22439,0 -0.40299,-0.21065 0,0 -0.2427,-0.27934 -0.32971,-0.87465 0,0 -0.087,-0.59989 -0.087,-1.17689 z" /><path
       inkscape:connector-curvature="0"
       id="path4592"
       style="fill:#000000;fill-opacity:1;fill-rule:nonzero;stroke:none;stroke-width:0.2"
       d="m 219.16207,440.86561 1.39212,0 0,-0.40756 -1.39212,0 0,0.40756 z" /><path
       inkscape:connector-curvature="0"
       id="path4594"
       style="fill:#000000;fill-opacity:1;fill-rule:nonzero;stroke:none;stroke-width:0.2"
       d="m 221.87762,442.71109 0.88381,0.43045 0.087,0 0,-3.06815 c 0,0 0,-0.3114 0.0275,-0.38467 0,0 0.0229,-0.0733 0.10533,-0.11448 0,0 0.0824,-0.0412 0.32513,-0.0458 l 0,-0.10074 -1.36464,0 0,0.10074 c 0,0 0.25644,0.005 0.32971,0.0458 0,0 0.0778,0.0412 0.10532,0.10532 0,0 0.0275,0.0641 0.0275,0.39383 l 0,1.95995 c 0,0 0,0.39841 -0.0183,0.50831 0,0 -0.0229,0.0824 -0.0733,0.12822 0,0 -0.0504,0.0412 -0.12364,0.0412 0,0 -0.0962,0 -0.27018,-0.087 l -0.0412,0.087 z m 2.3034,-1.48829 c 0,0 0,0.62279 0.18318,1.07615 0,0 0.18775,0.44877 0.50373,0.66858 0,0 0.2427,0.17401 0.49914,0.17401 0,0 0.41672,0 0.75102,-0.43045 0,0 0.41672,-0.52205 0.41672,-1.42876 0,0 0,-0.63195 -0.18318,-1.07614 0,0 -0.18317,-0.4442 -0.46709,-0.64111 0,0 -0.27934,-0.20149 -0.54494,-0.20149 0,0 -0.52205,0 -0.8655,0.61363 0,0 -0.29308,0.51747 -0.29308,1.24558 z m 0.52205,-0.0641 c 0,0 0,-0.75101 0.18317,-1.22268 0,0 0.16028,-0.40299 0.45794,-0.40299 0,0 0.14654,0 0.30223,0.1328 0,0 0.1557,0.12823 0.23813,0.43504 0,0 0.11906,0.45794 0.11906,1.30054 0,0 0,0.62279 -0.12822,1.03951 0,0 -0.0916,0.30681 -0.25186,0.43503 0,0 -0.10533,0.087 -0.26103,0.087 0,0 -0.17859,0 -0.32513,-0.16486 0,0 -0.19233,-0.2198 -0.2656,-0.69606 0,0 -0.0687,-0.47625 -0.0687,-0.94334 z" /><path
       inkscape:connector-curvature="0"
       id="path4596"
       style="fill:none;stroke:#000000;stroke-width:0.2;stroke-linecap:square;stroke-linejoin:miter;stroke-miterlimit:10;stroke-dasharray:none;stroke-opacity:1"
       d="m 229.93268,466.60609 -1.85922,0" /><path
       inkscape:connector-curvature="0"
       id="path4598"
       style="fill:#000000;fill-opacity:1;fill-rule:nonzero;stroke:none;stroke-width:0.2"
       d="m 214.71553,467.33878 1.09904,0.54494 0.11448,0 0,-3.84206 c 0,0 0,-0.38009 0.0321,-0.47625 0,0 0.032,-0.0962 0.1328,-0.14654 0,0 0.10074,-0.0504 0.40756,-0.055 l 0,-0.12365 -1.70809,0 0,0.12365 c 0,0 0.32055,0.005 0.41214,0.055 0,0 0.0962,0.0504 0.1328,0.1328 0,0 0.032,0.0824 0.032,0.48999 l 0,2.45452 c 0,0 0,0.49915 -0.0275,0.63653 0,0 -0.0275,0.10533 -0.087,0.1557 0,0 -0.0641,0.0504 -0.14654,0.0504 0,0 -0.1328,0 -0.34345,-0.10074 l -0.0504,0.10074 z m 2.87582,-1.85005 c 0,0 0,0.77849 0.22897,1.34175 0,0 0.23355,0.55868 0.62737,0.83344 0,0 0.30224,0.2198 0.62279,0.2198 0,0 0.52205,0 0.93877,-0.53578 0,0 0.52204,-0.65942 0.52204,-1.79052 0,0 0,-0.79223 -0.22897,-1.34175 0,0 -0.22896,-0.5541 -0.58157,-0.80138 0,0 -0.35719,-0.25187 -0.6869,-0.25187 0,0 -0.65027,0 -1.08073,0.76475 0,0 -0.36177,0.65027 -0.36177,1.56156 z m 0.65485,-0.087 c 0,0 0,-0.93876 0.22897,-1.5295 0,0 0.19691,-0.50373 0.57241,-0.50373 0,0 0.18318,0 0.37551,0.16486 0,0 0.19233,0.16486 0.29308,0.54494 0,0 0.15569,0.577 0.15569,1.63025 0,0 0,0.77391 -0.16485,1.29595 0,0 -0.11448,0.38467 -0.30682,0.54494 0,0 -0.13738,0.11449 -0.33429,0.11449 0,0 -0.22439,0 -0.40298,-0.21065 0,0 -0.24271,-0.27934 -0.32971,-0.87466 0,0 -0.087,-0.59989 -0.087,-1.17689 z" /><path
       inkscape:connector-curvature="0"
       id="path4600"
       style="fill:#000000;fill-opacity:1;fill-rule:nonzero;stroke:none;stroke-width:0.2"
       d="m 221.90967,467.88372 1.39212,0 0,-0.40756 -1.39212,0 0,0.40756 z" /><path
       inkscape:connector-curvature="0"
       id="path4602"
       style="fill:#000000;fill-opacity:1;fill-rule:nonzero;stroke:none;stroke-width:0.2"
       d="m 225.03278,468.27755 c 0,0 -0.43046,0.35719 -0.5541,0.57242 0,0 -0.12822,0.21522 -0.12822,0.44419 0,0 0,0.34803 0.27476,0.60905 0,0 0.27934,0.25645 0.72812,0.25645 0,0 0.44419,0 0.70979,-0.23813 0,0 0.27019,-0.2427 0.27019,-0.54036 0,0 0,-0.21065 -0.14654,-0.4213 0,0 -0.14654,-0.21065 -0.60448,-0.49457 0,0 0.47168,-0.36635 0.62279,-0.58158 0,0 0.20607,-0.27018 0.20607,-0.57241 0,0 0,-0.38467 -0.29307,-0.65943 0,0 -0.29308,-0.27018 -0.76475,-0.27018 0,0 -0.52205,0 -0.81055,0.32055 0,0 -0.22896,0.26561 -0.22896,0.57242 0,0 0,0.24271 0.16485,0.48083 0,0 0.16028,0.23813 0.5541,0.52205 z m 0.4213,0.2885 c 0,0 0.32056,0.29307 0.40756,0.45793 0,0 0.087,0.16944 0.087,0.37551 0,0 0,0.2885 -0.16028,0.44419 0,0 -0.15569,0.16028 -0.42588,0.16028 0,0 -0.27476,0 -0.44419,-0.16028 0,0 -0.17402,-0.15569 -0.17402,-0.37092 0,0 0,-0.13738 0.0687,-0.27476 0,0 0.0687,-0.14196 0.20607,-0.27019 l 0.43504,-0.36176 z M 225.161,468.1768 c 0,0 -0.22438,-0.18317 -0.32971,-0.40756 0,0 -0.10532,-0.21981 -0.10532,-0.48083 0,0 0,-0.34803 0.18775,-0.5541 0,0 0.18775,-0.21065 0.48083,-0.21065 0,0 0.2885,0 0.46251,0.16486 0,0 0.17402,0.16485 0.17402,0.40298 0,0 0,0.19233 -0.0962,0.34345 0,0 -0.19691,0.28392 -0.77391,0.74185 z" /><path
       inkscape:connector-curvature="0"
       id="path4604"
       style="fill:none;stroke:#000000;stroke-width:0.2;stroke-linecap:square;stroke-linejoin:miter;stroke-miterlimit:10;stroke-dasharray:none;stroke-opacity:1"
       d="m 229.93268,493.4685 -1.85922,0" /><path
       inkscape:connector-curvature="0"
       id="path4606"
       style="fill:#000000;fill-opacity:1;fill-rule:nonzero;stroke:none;stroke-width:0.2"
       d="m 214.71553,494.3569 1.09904,0.54494 0.11448,0 0,-3.84207 c 0,0 0,-0.38009 0.0321,-0.47625 0,0 0.032,-0.0962 0.1328,-0.14654 0,0 0.10074,-0.0504 0.40756,-0.055 l 0,-0.12364 -1.70809,0 0,0.12364 c 0,0 0.32055,0.005 0.41214,0.055 0,0 0.0962,0.0504 0.1328,0.1328 0,0 0.032,0.0824 0.032,0.48999 l 0,2.45453 c 0,0 0,0.49914 -0.0275,0.63653 0,0 -0.0275,0.10532 -0.087,0.15569 0,0 -0.0641,0.0504 -0.14654,0.0504 0,0 -0.1328,0 -0.34345,-0.10075 l -0.0504,0.10075 z m 2.87582,-1.85006 c 0,0 0,0.77849 0.22897,1.34175 0,0 0.23355,0.55868 0.62737,0.83344 0,0 0.30224,0.21981 0.62279,0.21981 0,0 0.52205,0 0.93877,-0.53579 0,0 0.52204,-0.65942 0.52204,-1.79052 0,0 0,-0.79222 -0.22897,-1.34175 0,0 -0.22896,-0.5541 -0.58157,-0.80138 0,0 -0.35719,-0.25186 -0.6869,-0.25186 0,0 -0.65027,0 -1.08073,0.76475 0,0 -0.36177,0.65026 -0.36177,1.56155 z m 0.65485,-0.087 c 0,0 0,-0.93876 0.22897,-1.5295 0,0 0.19691,-0.50372 0.57241,-0.50372 0,0 0.18318,0 0.37551,0.16485 0,0 0.19233,0.16486 0.29308,0.54494 0,0 0.15569,0.577 0.15569,1.63025 0,0 0,0.77391 -0.16485,1.29595 0,0 -0.11448,0.38467 -0.30682,0.54495 0,0 -0.13738,0.11448 -0.33429,0.11448 0,0 -0.22439,0 -0.40298,-0.21065 0,0 -0.24271,-0.27934 -0.32971,-0.87466 0,0 -0.087,-0.59989 -0.087,-1.17689 z" /><path
       inkscape:connector-curvature="0"
       id="path4608"
       style="fill:#000000;fill-opacity:1;fill-rule:nonzero;stroke:none;stroke-width:0.2"
       d="m 221.90967,494.90184 1.39212,0 0,-0.40756 -1.39212,0 0,0.40756 z" /><path
       inkscape:connector-curvature="0"
       id="path4610"
       style="fill:#000000;fill-opacity:1;fill-rule:nonzero;stroke:none;stroke-width:0.2"
       d="m 226.44322,497.17777 0,-0.10075 c 0,0 -0.35261,-0.0366 -0.577,-0.13738 0,0 -0.22439,-0.10532 -0.44419,-0.32513 0,0 -0.21981,-0.21523 -0.36177,-0.48541 0,0 -0.14196,-0.27018 -0.24271,-0.63195 0,0 0.38467,0.2656 0.77849,0.2656 0,0 0.37093,0 0.64569,-0.30223 0,0 0.27018,-0.30224 0.27018,-0.77391 0,0 0,-0.45794 -0.27018,-0.82886 0,0 -0.33887,-0.45794 -0.87924,-0.45794 0,0 -0.3755,0 -0.63652,0.25187 0,0 -0.50831,0.47625 -0.50831,1.24558 0,0 0,0.48541 0.19691,0.92502 0,0 0.19691,0.43962 0.5541,0.77849 0,0 0.36177,0.33887 0.69606,0.45794 0,0 0.33429,0.11906 0.62737,0.11906 l 0.15112,0 z m -1.67146,-1.87295 c 0,0 -0.0458,-0.36635 -0.0458,-0.59074 0,0 0,-0.25644 0.0962,-0.55868 0,0 0.0962,-0.30681 0.27934,-0.47625 0,0 0.13738,-0.12822 0.33887,-0.12822 0,0 0.22897,0 0.41214,0.21981 0,0 0.18776,0.22439 0.18776,0.63195 0,0 0,0.45793 -0.18318,0.78765 0,0 -0.18317,0.33429 -0.51746,0.33429 0,0 -0.10075,0 -0.21981,-0.0412 0,0 -0.11906,-0.0458 -0.34803,-0.17859 z" /><path
       inkscape:connector-curvature="0"
       id="path4612"
       style="fill:none;stroke:#000000;stroke-width:0.2;stroke-linecap:square;stroke-linejoin:miter;stroke-miterlimit:10;stroke-dasharray:none;stroke-opacity:1"
       d="m 229.93268,520.33092 -1.85922,0" /><path
       inkscape:connector-curvature="0"
       id="path4614"
       style="fill:#000000;fill-opacity:1;fill-rule:nonzero;stroke:none;stroke-width:0.2"
       d="m 214.71553,520.91707 1.09904,0.54495 0.11448,0 0,-3.84207 c 0,0 0,-0.38009 0.0321,-0.47625 0,0 0.032,-0.0962 0.1328,-0.14654 0,0 0.10074,-0.0504 0.40756,-0.0549 l 0,-0.12365 -1.70809,0 0,0.12365 c 0,0 0.32055,0.005 0.41214,0.0549 0,0 0.0962,0.0504 0.1328,0.1328 0,0 0.032,0.0824 0.032,0.48999 l 0,2.45453 c 0,0 0,0.49914 -0.0275,0.63652 0,0 -0.0275,0.10533 -0.087,0.1557 0,0 -0.0641,0.0504 -0.14654,0.0504 0,0 -0.1328,0 -0.34345,-0.10074 l -0.0504,0.10074 z m 2.87582,-1.85005 c 0,0 0,0.77849 0.22897,1.34175 0,0 0.23355,0.55868 0.62737,0.83344 0,0 0.30224,0.21981 0.62279,0.21981 0,0 0.52205,0 0.93877,-0.53579 0,0 0.52204,-0.65942 0.52204,-1.79052 0,0 0,-0.79223 -0.22897,-1.34175 0,0 -0.22896,-0.5541 -0.58157,-0.80138 0,0 -0.35719,-0.25187 -0.6869,-0.25187 0,0 -0.65027,0 -1.08073,0.76475 0,0 -0.36177,0.65027 -0.36177,1.56156 z m 0.65485,-0.087 c 0,0 0,-0.93876 0.22897,-1.5295 0,0 0.19691,-0.50372 0.57241,-0.50372 0,0 0.18318,0 0.37551,0.16485 0,0 0.19233,0.16486 0.29308,0.54494 0,0 0.15569,0.577 0.15569,1.63025 0,0 0,0.77391 -0.16485,1.29595 0,0 -0.11448,0.38467 -0.30682,0.54494 0,0 -0.13738,0.11449 -0.33429,0.11449 0,0 -0.22439,0 -0.40298,-0.21065 0,0 -0.24271,-0.27934 -0.32971,-0.87466 0,0 -0.087,-0.59989 -0.087,-1.17689 z" /><path
       inkscape:connector-curvature="0"
       id="path4616"
       style="fill:#000000;fill-opacity:1;fill-rule:nonzero;stroke:none;stroke-width:0.2"
       d="m 221.90967,521.46202 1.39212,0 0,-0.40757 -1.39212,0 0,0.40757 z" /><path
       inkscape:connector-curvature="0"
       id="path4618"
       style="fill:#000000;fill-opacity:1;fill-rule:nonzero;stroke:none;stroke-width:0.2"
       d="m 226.53481,521.37043 0,-0.38925 -0.48541,0 0,-0.95708 -0.4442,0 0,0.95708 -1.53866,0 0,0.34346 1.68978,2.41331 0.29308,0 0,-2.36752 0.48541,0 z m -0.92961,0 0,1.80426 -1.27306,-1.80426 1.27306,0 z" /><path
       inkscape:connector-curvature="0"
       id="path4620"
       style="fill:none;stroke:#000000;stroke-width:0.2;stroke-linecap:square;stroke-linejoin:miter;stroke-miterlimit:10;stroke-dasharray:none;stroke-opacity:1"
       d="m 229.93268,547.19333 -1.85922,0" /><path
       inkscape:connector-curvature="0"
       id="path4622"
       style="fill:#000000;fill-opacity:1;fill-rule:nonzero;stroke:none;stroke-width:0.2"
       d="m 214.71553,547.93519 1.09904,0.54494 0.11448,0 0,-3.84207 c 0,0 0,-0.38008 0.0321,-0.47625 0,0 0.032,-0.0962 0.1328,-0.14654 0,0 0.10074,-0.0504 0.40756,-0.0549 l 0,-0.12364 -1.70809,0 0,0.12364 c 0,0 0.32055,0.005 0.41214,0.0549 0,0 0.0962,0.0504 0.1328,0.1328 0,0 0.032,0.0824 0.032,0.48999 l 0,2.45453 c 0,0 0,0.49915 -0.0275,0.63653 0,0 -0.0275,0.10532 -0.087,0.15569 0,0 -0.0641,0.0504 -0.14654,0.0504 0,0 -0.1328,0 -0.34345,-0.10075 l -0.0504,0.10075 z m 2.87582,-1.85006 c 0,0 0,0.77849 0.22897,1.34175 0,0 0.23355,0.55868 0.62737,0.83344 0,0 0.30224,0.21981 0.62279,0.21981 0,0 0.52205,0 0.93877,-0.53578 0,0 0.52204,-0.65943 0.52204,-1.79053 0,0 0,-0.79222 -0.22897,-1.34174 0,0 -0.22896,-0.5541 -0.58157,-0.80139 0,0 -0.35719,-0.25186 -0.6869,-0.25186 0,0 -0.65027,0 -1.08073,0.76475 0,0 -0.36177,0.65026 -0.36177,1.56155 z m 0.65485,-0.087 c 0,0 0,-0.93877 0.22897,-1.5295 0,0 0.19691,-0.50373 0.57241,-0.50373 0,0 0.18318,0 0.37551,0.16485 0,0 0.19233,0.16486 0.29308,0.54495 0,0 0.15569,0.57699 0.15569,1.63024 0,0 0,0.77391 -0.16485,1.29595 0,0 -0.11448,0.38467 -0.30682,0.54495 0,0 -0.13738,0.11448 -0.33429,0.11448 0,0 -0.22439,0 -0.40298,-0.21065 0,0 -0.24271,-0.27934 -0.32971,-0.87465 0,0 -0.087,-0.5999 -0.087,-1.17689 z" /><path
       inkscape:connector-curvature="0"
       id="path4624"
       style="fill:#000000;fill-opacity:1;fill-rule:nonzero;stroke:none;stroke-width:0.2"
       d="m 221.90967,548.48013 1.39212,0 0,-0.40756 -1.39212,0 0,0.40756 z" /><path
       inkscape:connector-curvature="0"
       id="path4626"
       style="fill:#000000;fill-opacity:1;fill-rule:nonzero;stroke:none;stroke-width:0.2"
       d="m 226.49817,547.74285 -0.25186,-0.70064 -2.14313,0 0,0.10075 c 0,0 0.94334,0.8655 1.32801,1.41044 0,0 0.38924,0.54952 0.38924,0.99829 0,0 0,0.34345 -0.21523,0.57242 0,0 -0.21065,0.22439 -0.50831,0.22439 0,0 -0.2656,0 -0.48083,-0.1557 0,0 -0.21523,-0.16028 -0.31597,-0.46709 l -0.10075,0 c 0,0 0.0733,0.49915 0.34803,0.76475 0,0 0.27476,0.2656 0.69148,0.2656 0,0 0.4442,0 0.74186,-0.28392 0,0 0.29765,-0.27934 0.29765,-0.66858 0,0 0,-0.27934 -0.1328,-0.55868 0,0 -0.19691,-0.42588 -0.64111,-0.91587 0,0 -0.664,-0.72812 -0.83801,-0.87923 l 0.9525,0 c 0,0 0.29308,0 0.40756,0.0229 0,0 0.11448,0.0183 0.21065,0.087 0,0 0.0962,0.0641 0.16028,0.18317 l 0.10074,0 z" /><path
       inkscape:connector-curvature="0"
       id="path4628"
       style="fill:none;stroke:#000000;stroke-width:0.2;stroke-linecap:square;stroke-linejoin:miter;stroke-miterlimit:10;stroke-dasharray:none;stroke-opacity:1"
       d="m 229.93268,574.06033 -1.85922,0" /><path
       inkscape:connector-curvature="0"
       id="path4630"
       style="fill:#000000;fill-opacity:1;fill-rule:nonzero;stroke:none;stroke-width:0.2"
       d="m 217.92107,574.49536 1.09904,0.54495 0.11448,0 0,-3.84207 c 0,0 0,-0.38009 0.0321,-0.47625 0,0 0.032,-0.0962 0.1328,-0.14654 0,0 0.10074,-0.0504 0.40756,-0.055 l 0,-0.12365 -1.7081,0 0,0.12365 c 0,0 0.32056,0.005 0.41215,0.055 0,0 0.0962,0.0504 0.1328,0.1328 0,0 0.032,0.0824 0.032,0.48999 l 0,2.45453 c 0,0 0,0.49914 -0.0275,0.63652 0,0 -0.0275,0.10533 -0.087,0.1557 0,0 -0.0641,0.0504 -0.14654,0.0504 0,0 -0.1328,0 -0.34345,-0.10074 l -0.0504,0.10074 z m 2.87582,-1.85005 c 0,0 0,0.77849 0.22897,1.34175 0,0 0.23355,0.55868 0.62737,0.83344 0,0 0.30224,0.21981 0.62279,0.21981 0,0 0.52204,0 0.93876,-0.53579 0,0 0.52205,-0.65942 0.52205,-1.79052 0,0 0,-0.79222 -0.22897,-1.34175 0,0 -0.22897,-0.5541 -0.58157,-0.80138 0,0 -0.35719,-0.25186 -0.68691,-0.25186 0,0 -0.65026,0 -1.08072,0.76475 0,0 -0.36177,0.65026 -0.36177,1.56155 z m 0.65485,-0.087 c 0,0 0,-0.93876 0.22896,-1.5295 0,0 0.19692,-0.50372 0.57242,-0.50372 0,0 0.18318,0 0.37551,0.16485 0,0 0.19233,0.16486 0.29308,0.54494 0,0 0.15569,0.577 0.15569,1.63025 0,0 0,0.77391 -0.16485,1.29595 0,0 -0.11449,0.38467 -0.30682,0.54494 0,0 -0.13738,0.11449 -0.33429,0.11449 0,0 -0.22439,0 -0.40298,-0.21065 0,0 -0.24271,-0.27934 -0.32971,-0.87466 0,0 -0.087,-0.59989 -0.087,-1.17689 z" /><path
       inkscape:connector-curvature="0"
       id="path4632"
       style="fill:#000000;fill-opacity:1;fill-rule:nonzero;stroke:none;stroke-width:0.2"
       d="m 224.18102,575.3975 c 0,0 0,0.62279 0.18318,1.07614 0,0 0.18775,0.44878 0.50373,0.66858 0,0 0.2427,0.17402 0.49914,0.17402 0,0 0.41672,0 0.75102,-0.43046 0,0 0.41672,-0.52204 0.41672,-1.42875 0,0 0,-0.63195 -0.18318,-1.07615 0,0 -0.18317,-0.44419 -0.46709,-0.64111 0,0 -0.27934,-0.20149 -0.54494,-0.20149 0,0 -0.52205,0 -0.8655,0.61363 0,0 -0.29308,0.51747 -0.29308,1.24559 z m 0.52205,-0.0641 c 0,0 0,-0.75101 0.18317,-1.22268 0,0 0.16028,-0.40298 0.45794,-0.40298 0,0 0.14654,0 0.30223,0.1328 0,0 0.1557,0.12822 0.23813,0.43504 0,0 0.11906,0.45793 0.11906,1.30053 0,0 0,0.62279 -0.12822,1.03951 0,0 -0.0916,0.30682 -0.25186,0.43504 0,0 -0.10533,0.087 -0.26103,0.087 0,0 -0.17859,0 -0.32513,-0.16485 0,0 -0.19233,-0.21981 -0.2656,-0.69606 0,0 -0.0687,-0.47625 -0.0687,-0.94335 z" /><path
       inkscape:connector-curvature="0"
       id="path4634"
       style="fill:none;stroke:#000000;stroke-width:0.2;stroke-linecap:square;stroke-linejoin:miter;stroke-miterlimit:10;stroke-dasharray:none;stroke-opacity:1"
       d="m 229.93268,453.17488 -0.92961,0" /><path
       inkscape:connector-curvature="0"
       id="path4636"
       style="fill:none;stroke:#000000;stroke-width:0.2;stroke-linecap:square;stroke-linejoin:miter;stroke-miterlimit:10;stroke-dasharray:none;stroke-opacity:1"
       d="m 229.93268,453.17488 -0.92961,0" /><path
       inkscape:connector-curvature="0"
       id="path4638"
       style="fill:none;stroke:#000000;stroke-width:0.2;stroke-linecap:square;stroke-linejoin:miter;stroke-miterlimit:10;stroke-dasharray:none;stroke-opacity:1"
       d="m 229.93268,480.0373 -0.92961,0" /><path
       inkscape:connector-curvature="0"
       id="path4640"
       style="fill:none;stroke:#000000;stroke-width:0.2;stroke-linecap:square;stroke-linejoin:miter;stroke-miterlimit:10;stroke-dasharray:none;stroke-opacity:1"
       d="m 229.93268,506.89971 -0.92961,0" /><path
       inkscape:connector-curvature="0"
       id="path4642"
       style="fill:none;stroke:#000000;stroke-width:0.2;stroke-linecap:square;stroke-linejoin:miter;stroke-miterlimit:10;stroke-dasharray:none;stroke-opacity:1"
       d="m 229.93268,533.76213 -0.92961,0" /><path
       inkscape:connector-curvature="0"
       id="path4644"
       style="fill:none;stroke:#000000;stroke-width:0.2;stroke-linecap:square;stroke-linejoin:miter;stroke-miterlimit:10;stroke-dasharray:none;stroke-opacity:1"
       d="m 229.93268,560.62454 -0.92961,0" /><text
       xml:space="preserve"
       style="color:#000000;font-style:normal;font-variant:normal;font-weight:normal;font-stretch:normal;font-size:10px;line-height:125%;font-family:'Times New Roman';-inkscape-font-specification:'Times New Roman, ';text-indent:0;text-align:start;text-decoration:none;text-decoration-line:none;text-decoration-style:solid;text-decoration-color:#000000;letter-spacing:0px;word-spacing:0px;text-transform:none;direction:ltr;block-progression:tb;writing-mode:lr-tb;baseline-shift:baseline;text-anchor:start;white-space:normal;clip-rule:nonzero;display:inline;overflow:visible;visibility:visible;opacity:1;isolation:auto;mix-blend-mode:normal;color-interpolation:sRGB;color-interpolation-filters:linearRGB;solid-color:#000000;solid-opacity:1;fill:#000000;fill-opacity:1;fill-rule:nonzero;stroke:none;stroke-width:0.5;stroke-linecap:butt;stroke-linejoin:miter;stroke-miterlimit:4;stroke-dasharray:none;stroke-dashoffset:0;stroke-opacity:1;color-rendering:auto;image-rendering:auto;shape-rendering:auto;text-rendering:auto;enable-background:accumulate"
       x="117.5037"
       y="-396.40744"
       id="text6322"
       sodipodi:linespacing="125%"
       transform="scale(1,-1)"><tspan
         sodipodi:role="line"
         id="tspan6324"
         x="117.5037"
         y="-396.40744">$\delta/\sigma$</tspan></text>
<text
       transform="scale(1,-1)"
       sodipodi:linespacing="125%"
       id="text6326"
       y="-396.0593"
       x="303.28149"
       style="color:#000000;font-style:normal;font-variant:normal;font-weight:normal;font-stretch:normal;font-size:10px;line-height:125%;font-family:'Times New Roman';-inkscape-font-specification:'Times New Roman, ';text-indent:0;text-align:start;text-decoration:none;text-decoration-line:none;text-decoration-style:solid;text-decoration-color:#000000;letter-spacing:0px;word-spacing:0px;text-transform:none;direction:ltr;block-progression:tb;writing-mode:lr-tb;baseline-shift:baseline;text-anchor:start;white-space:normal;clip-rule:nonzero;display:inline;overflow:visible;visibility:visible;opacity:1;isolation:auto;mix-blend-mode:normal;color-interpolation:sRGB;color-interpolation-filters:linearRGB;solid-color:#000000;solid-opacity:1;fill:#000000;fill-opacity:1;fill-rule:nonzero;stroke:none;stroke-width:0.5;stroke-linecap:butt;stroke-linejoin:miter;stroke-miterlimit:4;stroke-dasharray:none;stroke-dashoffset:0;stroke-opacity:1;color-rendering:auto;image-rendering:auto;shape-rendering:auto;text-rendering:auto;enable-background:accumulate"
       xml:space="preserve"><tspan
         y="-396.0593"
         x="303.28149"
         id="tspan6328"
         sodipodi:role="line">$\delta/\sigma$</tspan></text>
<text
       xml:space="preserve"
       style="color:#000000;font-style:normal;font-variant:normal;font-weight:normal;font-stretch:normal;font-size:10px;line-height:125%;font-family:'Times New Roman';-inkscape-font-specification:'Times New Roman, ';text-indent:0;text-align:start;text-decoration:none;text-decoration-line:none;text-decoration-style:solid;text-decoration-color:#000000;letter-spacing:0px;word-spacing:0px;text-transform:none;direction:ltr;block-progression:tb;writing-mode:lr-tb;baseline-shift:baseline;text-anchor:start;white-space:normal;clip-rule:nonzero;display:inline;overflow:visible;visibility:visible;opacity:1;isolation:auto;mix-blend-mode:normal;color-interpolation:sRGB;color-interpolation-filters:linearRGB;solid-color:#000000;solid-opacity:1;fill:#000000;fill-opacity:1;fill-rule:nonzero;stroke:none;stroke-width:0.5;stroke-linecap:butt;stroke-linejoin:miter;stroke-miterlimit:4;stroke-dasharray:none;stroke-dashoffset:0;stroke-opacity:1;color-rendering:auto;image-rendering:auto;shape-rendering:auto;text-rendering:auto;enable-background:accumulate"
       x="29.740744"
       y="-580.96301"
       id="text6330"
       sodipodi:linespacing="125%"
       transform="scale(1,-1)"><tspan
         sodipodi:role="line"
         id="tspan6332"
         x="29.740744"
         y="-580.96301">$\mathrm{erf}\left(\frac{\delta}{\sqrt{2}\sigma}\right)$</tspan></text>
<text
       transform="scale(1,-1)"
       sodipodi:linespacing="125%"
       id="text6334"
       y="-580.96301"
       x="215.34102"
       style="color:#000000;font-style:normal;font-variant:normal;font-weight:normal;font-stretch:normal;font-size:10px;line-height:125%;font-family:'Times New Roman';-inkscape-font-specification:'Times New Roman, ';text-indent:0;text-align:start;text-decoration:none;text-decoration-line:none;text-decoration-style:solid;text-decoration-color:#000000;letter-spacing:0px;word-spacing:0px;text-transform:none;direction:ltr;block-progression:tb;writing-mode:lr-tb;baseline-shift:baseline;text-anchor:start;white-space:normal;clip-rule:nonzero;display:inline;overflow:visible;visibility:visible;opacity:1;isolation:auto;mix-blend-mode:normal;color-interpolation:sRGB;color-interpolation-filters:linearRGB;solid-color:#000000;solid-opacity:1;fill:#000000;fill-opacity:1;fill-rule:nonzero;stroke:none;stroke-width:0.5;stroke-linecap:butt;stroke-linejoin:miter;stroke-miterlimit:4;stroke-dasharray:none;stroke-dashoffset:0;stroke-opacity:1;color-rendering:auto;image-rendering:auto;shape-rendering:auto;text-rendering:auto;enable-background:accumulate"
       xml:space="preserve"><tspan
         y="-580.96301"
         x="215.34102"
         sodipodi:role="line"
         id="tspan6382">$1-\mathrm{erf}\left(\frac{\delta}{\sqrt{2}\sigma}\right)$</tspan></text>
</g></svg>