<?xml version="1.0" encoding="UTF-8" standalone="no"?>
<!-- Created with Inkscape (http://www.inkscape.org/) -->

<svg
   xmlns:dc="http://purl.org/dc/elements/1.1/"
   xmlns:cc="http://creativecommons.org/ns#"
   xmlns:rdf="http://www.w3.org/1999/02/22-rdf-syntax-ns#"
   xmlns:svg="http://www.w3.org/2000/svg"
   xmlns="http://www.w3.org/2000/svg"
   xmlns:sodipodi="http://sodipodi.sourceforge.net/DTD/sodipodi-0.dtd"
   xmlns:inkscape="http://www.inkscape.org/namespaces/inkscape"
   id="svg2"
   version="1.1"
   inkscape:version="0.91 r13725"
   xml:space="preserve"
   width="266.99548"
   height="187.37416"
   viewBox="0 0 266.99548 187.37416"
   sodipodi:docname="gauss.svg"><metadata
     id="metadata8"><rdf:RDF><cc:Work
         rdf:about=""><dc:format>image/svg+xml</dc:format><dc:type
           rdf:resource="http://purl.org/dc/dcmitype/StillImage" /><dc:title></dc:title></cc:Work></rdf:RDF></metadata><defs
     id="defs6"><clipPath
       clipPathUnits="userSpaceOnUse"
       id="clipPath20"><path
         d="M 0,0 612,0 612,792 0,792 0,0 Z"
         id="path22"
         inkscape:connector-curvature="0" /></clipPath><clipPath
       clipPathUnits="userSpaceOnUse"
       id="clipPath28"><path
         d="M 0,792 0,0 612,0 612,792 0,792 Z"
         id="path30"
         inkscape:connector-curvature="0" /></clipPath><clipPath
       clipPathUnits="userSpaceOnUse"
       id="clipPath38"><path
         d="m 54,738 612,0 0,-684 -612,0 0,684 z"
         id="path40"
         inkscape:connector-curvature="0" /></clipPath><clipPath
       clipPathUnits="userSpaceOnUse"
       id="clipPath44"><path
         d="m 64,733 494,0 0,-390 -494,0 0,390 z"
         id="path46"
         inkscape:connector-curvature="0" /></clipPath><clipPath
       clipPathUnits="userSpaceOnUse"
       id="clipPath162"><path
         d="m 72.5,734 483,0 0,-353 -483,0 0,353 z"
         id="path164"
         inkscape:connector-curvature="0" /></clipPath><clipPath
       clipPathUnits="userSpaceOnUse"
       id="clipPath172"><path
         d="m 64,733 0,-390 494,0 0,390 -494,0 z"
         id="path174"
         inkscape:connector-curvature="0" /></clipPath><clipPath
       clipPathUnits="userSpaceOnUse"
       id="clipPath180"><path
         d="m 307,359 13,0 0,-15 -13,0 0,15 z"
         id="path182"
         inkscape:connector-curvature="0" /></clipPath><clipPath
       clipPathUnits="userSpaceOnUse"
       id="clipPath190"><path
         d="m 64,733 0,-390 494,0 0,390 -494,0 z"
         id="path192"
         inkscape:connector-curvature="0" /></clipPath><clipPath
       clipPathUnits="userSpaceOnUse"
       id="clipPath198"><path
         d="m 65,375 8,0 0,-16 -8,0 0,16 z"
         id="path200"
         inkscape:connector-curvature="0" /></clipPath><clipPath
       clipPathUnits="userSpaceOnUse"
       id="clipPath208"><path
         d="m 64,733 494,0 0,-390 -494,0 0,390 z"
         id="path210"
         inkscape:connector-curvature="0" /></clipPath><clipPath
       clipPathUnits="userSpaceOnUse"
       id="clipPath218"><path
         d="m 125,375 8,0 0,-16 -8,0 0,16 z"
         id="path220"
         inkscape:connector-curvature="0" /></clipPath><clipPath
       clipPathUnits="userSpaceOnUse"
       id="clipPath228"><path
         d="m 64,733 494,0 0,-390 -494,0 0,390 z"
         id="path230"
         inkscape:connector-curvature="0" /></clipPath><clipPath
       clipPathUnits="userSpaceOnUse"
       id="clipPath238"><path
         d="m 185,375 8,0 0,-16 -8,0 0,16 z"
         id="path240"
         inkscape:connector-curvature="0" /></clipPath><clipPath
       clipPathUnits="userSpaceOnUse"
       id="clipPath248"><path
         d="m 64,733 494,0 0,-390 -494,0 0,390 z"
         id="path250"
         inkscape:connector-curvature="0" /></clipPath><clipPath
       clipPathUnits="userSpaceOnUse"
       id="clipPath258"><path
         d="m 245,375 8,0 0,-16 -8,0 0,16 z"
         id="path260"
         inkscape:connector-curvature="0" /></clipPath><clipPath
       clipPathUnits="userSpaceOnUse"
       id="clipPath268"><path
         d="m 64,733 494,0 0,-390 -494,0 0,390 z"
         id="path270"
         inkscape:connector-curvature="0" /></clipPath><clipPath
       clipPathUnits="userSpaceOnUse"
       id="clipPath314"><path
         d="m 268,564 8,0 0,-15 -8,0 0,15 z"
         id="path316"
         inkscape:connector-curvature="0" /></clipPath><clipPath
       clipPathUnits="userSpaceOnUse"
       id="clipPath322"><path
         d="m 64,733 0,-390 494,0 0,390 -494,0 z"
         id="path324"
         inkscape:connector-curvature="0" /></clipPath><clipPath
       clipPathUnits="userSpaceOnUse"
       id="clipPath422"><path
         d="m 54,738 0,-684 612,0 0,684 -612,0 z"
         id="path424"
         inkscape:connector-curvature="0" /></clipPath><clipPath
       clipPathUnits="userSpaceOnUse"
       id="clipPath430"><path
         d="m 54,738 0,-792 612,0 0,792 -612,0 z"
         id="path432"
         inkscape:connector-curvature="0" /></clipPath></defs><sodipodi:namedview
     pagecolor="#ffffff"
     bordercolor="#666666"
     borderopacity="1"
     objecttolerance="10"
     gridtolerance="10"
     guidetolerance="10"
     inkscape:pageopacity="0"
     inkscape:pageshadow="2"
     inkscape:window-width="640"
     inkscape:window-height="480"
     id="namedview4"
     showgrid="false"
     fit-margin-top="0"
     fit-margin-left="0"
     fit-margin-right="0"
     fit-margin-bottom="0"
     inkscape:zoom="2.7770012"
     inkscape:cx="146.89312"
     inkscape:cy="118.44776"
     inkscape:current-layer="g10" /><g
     id="g10"
     inkscape:groupmode="layer"
     inkscape:label="gauss"
     transform="matrix(1.25,0,0,-1.25,-273.11892,784.76967)"><g
       id="g12" /><path
       d="m 221.91903,484.71553 0,131.71666"
       style="fill:none;stroke:#a5a5a5;stroke-width:0.25;stroke-linecap:butt;stroke-linejoin:round;stroke-miterlimit:10;stroke-dasharray:none;stroke-opacity:1"
       id="path48"
       inkscape:connector-curvature="0" /><path
       d="m 244.37074,484.71553 0,131.71666"
       style="fill:none;stroke:#a5a5a5;stroke-width:0.25;stroke-linecap:butt;stroke-linejoin:round;stroke-miterlimit:10;stroke-dasharray:none;stroke-opacity:1"
       id="path50"
       inkscape:connector-curvature="0" /><path
       d="m 266.82244,484.71553 0,131.71666"
       style="fill:none;stroke:#a5a5a5;stroke-width:0.25;stroke-linecap:butt;stroke-linejoin:round;stroke-miterlimit:10;stroke-dasharray:none;stroke-opacity:1"
       id="path52"
       inkscape:connector-curvature="0" /><path
       d="m 289.27413,484.71553 0,131.71666"
       style="fill:none;stroke:#a5a5a5;stroke-width:0.25;stroke-linecap:butt;stroke-linejoin:round;stroke-miterlimit:10;stroke-dasharray:none;stroke-opacity:1"
       id="path54"
       inkscape:connector-curvature="0" /><path
       d="m 311.72584,484.71553 0,131.71666"
       style="fill:none;stroke:#a5a5a5;stroke-width:0.25;stroke-linecap:butt;stroke-linejoin:round;stroke-miterlimit:10;stroke-dasharray:none;stroke-opacity:1"
       id="path56"
       inkscape:connector-curvature="0" /><path
       d="m 334.17754,484.71553 0,131.71666"
       style="fill:none;stroke:#a5a5a5;stroke-width:0.25;stroke-linecap:butt;stroke-linejoin:round;stroke-miterlimit:10;stroke-dasharray:none;stroke-opacity:1"
       id="path58"
       inkscape:connector-curvature="0" /><path
       d="m 356.62924,484.71553 0,131.71666"
       style="fill:none;stroke:#a5a5a5;stroke-width:0.25;stroke-linecap:butt;stroke-linejoin:round;stroke-miterlimit:10;stroke-dasharray:none;stroke-opacity:1"
       id="path60"
       inkscape:connector-curvature="0" /><path
       d="m 379.08094,484.71553 0,131.71666"
       style="fill:none;stroke:#a5a5a5;stroke-width:0.25;stroke-linecap:butt;stroke-linejoin:round;stroke-miterlimit:10;stroke-dasharray:none;stroke-opacity:1"
       id="path62"
       inkscape:connector-curvature="0" /><path
       d="m 401.53265,484.71553 0,131.71666"
       style="fill:none;stroke:#a5a5a5;stroke-width:0.25;stroke-linecap:butt;stroke-linejoin:round;stroke-miterlimit:10;stroke-dasharray:none;stroke-opacity:1"
       id="path64"
       inkscape:connector-curvature="0" /><path
       d="m 233.14488,484.71553 0,131.71666"
       style="fill:none;stroke:#e9e9e9;stroke-width:0.25;stroke-linecap:butt;stroke-linejoin:round;stroke-miterlimit:10;stroke-dasharray:none;stroke-opacity:1"
       id="path66"
       inkscape:connector-curvature="0" /><path
       d="m 255.59659,484.71553 0,131.71666"
       style="fill:none;stroke:#e9e9e9;stroke-width:0.25;stroke-linecap:butt;stroke-linejoin:round;stroke-miterlimit:10;stroke-dasharray:none;stroke-opacity:1"
       id="path68"
       inkscape:connector-curvature="0" /><path
       d="m 278.04829,484.71553 0,131.71666"
       style="fill:none;stroke:#e9e9e9;stroke-width:0.25;stroke-linecap:butt;stroke-linejoin:round;stroke-miterlimit:10;stroke-dasharray:none;stroke-opacity:1"
       id="path70"
       inkscape:connector-curvature="0" /><path
       d="m 300.49998,484.71553 0,131.71666"
       style="fill:none;stroke:#e9e9e9;stroke-width:0.25;stroke-linecap:butt;stroke-linejoin:round;stroke-miterlimit:10;stroke-dasharray:none;stroke-opacity:1"
       id="path72"
       inkscape:connector-curvature="0" /><path
       d="m 322.95169,484.71553 0,131.71666"
       style="fill:none;stroke:#e9e9e9;stroke-width:0.25;stroke-linecap:butt;stroke-linejoin:round;stroke-miterlimit:10;stroke-dasharray:none;stroke-opacity:1"
       id="path74"
       inkscape:connector-curvature="0" /><path
       d="m 345.40339,484.71553 0,131.71666"
       style="fill:none;stroke:#e9e9e9;stroke-width:0.25;stroke-linecap:butt;stroke-linejoin:round;stroke-miterlimit:10;stroke-dasharray:none;stroke-opacity:1"
       id="path76"
       inkscape:connector-curvature="0" /><path
       d="m 367.85509,484.71553 0,131.71666"
       style="fill:none;stroke:#e9e9e9;stroke-width:0.25;stroke-linecap:butt;stroke-linejoin:round;stroke-miterlimit:10;stroke-dasharray:none;stroke-opacity:1"
       id="path78"
       inkscape:connector-curvature="0" /><path
       d="m 390.3068,484.71553 0,131.71666"
       style="fill:none;stroke:#e9e9e9;stroke-width:0.25;stroke-linecap:butt;stroke-linejoin:round;stroke-miterlimit:10;stroke-dasharray:none;stroke-opacity:1"
       id="path80"
       inkscape:connector-curvature="0" /><path
       d="m 221.91903,501.84244 179.61362,0"
       style="fill:none;stroke:#a5a5a5;stroke-width:0.25;stroke-linecap:butt;stroke-linejoin:round;stroke-miterlimit:10;stroke-dasharray:none;stroke-opacity:1"
       id="path82"
       inkscape:connector-curvature="0" /><path
       d="m 221.91903,518.26586 179.61362,0"
       style="fill:none;stroke:#a5a5a5;stroke-width:0.25;stroke-linecap:butt;stroke-linejoin:round;stroke-miterlimit:10;stroke-dasharray:none;stroke-opacity:1"
       id="path84"
       inkscape:connector-curvature="0" /><path
       d="m 221.91903,534.68928 179.61362,0"
       style="fill:none;stroke:#a5a5a5;stroke-width:0.25;stroke-linecap:butt;stroke-linejoin:round;stroke-miterlimit:10;stroke-dasharray:none;stroke-opacity:1"
       id="path86"
       inkscape:connector-curvature="0" /><path
       d="m 221.91903,551.10895 179.61362,0"
       style="fill:none;stroke:#a5a5a5;stroke-width:0.25;stroke-linecap:butt;stroke-linejoin:round;stroke-miterlimit:10;stroke-dasharray:none;stroke-opacity:1"
       id="path88"
       inkscape:connector-curvature="0" /><path
       d="m 221.91903,567.53237 179.61362,0"
       style="fill:none;stroke:#a5a5a5;stroke-width:0.25;stroke-linecap:butt;stroke-linejoin:round;stroke-miterlimit:10;stroke-dasharray:none;stroke-opacity:1"
       id="path90"
       inkscape:connector-curvature="0" /><path
       d="m 221.91903,583.9558 179.61362,0"
       style="fill:none;stroke:#a5a5a5;stroke-width:0.25;stroke-linecap:butt;stroke-linejoin:round;stroke-miterlimit:10;stroke-dasharray:none;stroke-opacity:1"
       id="path92"
       inkscape:connector-curvature="0" /><path
       d="m 221.91903,600.37922 179.61362,0"
       style="fill:none;stroke:#a5a5a5;stroke-width:0.25;stroke-linecap:butt;stroke-linejoin:round;stroke-miterlimit:10;stroke-dasharray:none;stroke-opacity:1"
       id="path94"
       inkscape:connector-curvature="0" /><path
       d="m 221.91903,488.70445 179.61362,0"
       style="fill:none;stroke:#e9e9e9;stroke-width:0.25;stroke-linecap:butt;stroke-linejoin:round;stroke-miterlimit:10;stroke-dasharray:none;stroke-opacity:1"
       id="path96"
       inkscape:connector-curvature="0" /><path
       d="m 221.91903,491.98988 179.61362,0"
       style="fill:none;stroke:#e9e9e9;stroke-width:0.25;stroke-linecap:butt;stroke-linejoin:round;stroke-miterlimit:10;stroke-dasharray:none;stroke-opacity:1"
       id="path98"
       inkscape:connector-curvature="0" /><path
       d="m 221.91903,495.27531 179.61362,0"
       style="fill:none;stroke:#e9e9e9;stroke-width:0.25;stroke-linecap:butt;stroke-linejoin:round;stroke-miterlimit:10;stroke-dasharray:none;stroke-opacity:1"
       id="path100"
       inkscape:connector-curvature="0" /><path
       d="m 221.91903,498.557 179.61362,0"
       style="fill:none;stroke:#e9e9e9;stroke-width:0.25;stroke-linecap:butt;stroke-linejoin:round;stroke-miterlimit:10;stroke-dasharray:none;stroke-opacity:1"
       id="path102"
       inkscape:connector-curvature="0" /><path
       d="m 221.91903,505.12787 179.61362,0"
       style="fill:none;stroke:#e9e9e9;stroke-width:0.25;stroke-linecap:butt;stroke-linejoin:round;stroke-miterlimit:10;stroke-dasharray:none;stroke-opacity:1"
       id="path104"
       inkscape:connector-curvature="0" /><path
       d="m 221.91903,508.4133 179.61362,0"
       style="fill:none;stroke:#e9e9e9;stroke-width:0.25;stroke-linecap:butt;stroke-linejoin:round;stroke-miterlimit:10;stroke-dasharray:none;stroke-opacity:1"
       id="path106"
       inkscape:connector-curvature="0" /><path
       d="m 221.91903,511.69499 179.61362,0"
       style="fill:none;stroke:#e9e9e9;stroke-width:0.25;stroke-linecap:butt;stroke-linejoin:round;stroke-miterlimit:10;stroke-dasharray:none;stroke-opacity:1"
       id="path108"
       inkscape:connector-curvature="0" /><path
       d="m 221.91903,514.98042 179.61362,0"
       style="fill:none;stroke:#e9e9e9;stroke-width:0.25;stroke-linecap:butt;stroke-linejoin:round;stroke-miterlimit:10;stroke-dasharray:none;stroke-opacity:1"
       id="path110"
       inkscape:connector-curvature="0" /><path
       d="m 221.91903,521.55129 179.61362,0"
       style="fill:none;stroke:#e9e9e9;stroke-width:0.25;stroke-linecap:butt;stroke-linejoin:round;stroke-miterlimit:10;stroke-dasharray:none;stroke-opacity:1"
       id="path112"
       inkscape:connector-curvature="0" /><path
       d="m 221.91903,524.83298 179.61362,0"
       style="fill:none;stroke:#e9e9e9;stroke-width:0.25;stroke-linecap:butt;stroke-linejoin:round;stroke-miterlimit:10;stroke-dasharray:none;stroke-opacity:1"
       id="path114"
       inkscape:connector-curvature="0" /><path
       d="m 221.91903,528.11841 179.61362,0"
       style="fill:none;stroke:#e9e9e9;stroke-width:0.25;stroke-linecap:butt;stroke-linejoin:round;stroke-miterlimit:10;stroke-dasharray:none;stroke-opacity:1"
       id="path116"
       inkscape:connector-curvature="0" /><path
       d="m 221.91903,531.40384 179.61362,0"
       style="fill:none;stroke:#e9e9e9;stroke-width:0.25;stroke-linecap:butt;stroke-linejoin:round;stroke-miterlimit:10;stroke-dasharray:none;stroke-opacity:1"
       id="path118"
       inkscape:connector-curvature="0" /><path
       d="m 221.91903,537.97097 179.61362,0"
       style="fill:none;stroke:#e9e9e9;stroke-width:0.25;stroke-linecap:butt;stroke-linejoin:round;stroke-miterlimit:10;stroke-dasharray:none;stroke-opacity:1"
       id="path120"
       inkscape:connector-curvature="0" /><path
       d="m 221.91903,541.2564 179.61362,0"
       style="fill:none;stroke:#e9e9e9;stroke-width:0.25;stroke-linecap:butt;stroke-linejoin:round;stroke-miterlimit:10;stroke-dasharray:none;stroke-opacity:1"
       id="path122"
       inkscape:connector-curvature="0" /><path
       d="m 221.91903,544.54183 179.61362,0"
       style="fill:none;stroke:#e9e9e9;stroke-width:0.25;stroke-linecap:butt;stroke-linejoin:round;stroke-miterlimit:10;stroke-dasharray:none;stroke-opacity:1"
       id="path124"
       inkscape:connector-curvature="0" /><path
       d="m 221.91903,547.82726 179.61362,0"
       style="fill:none;stroke:#e9e9e9;stroke-width:0.25;stroke-linecap:butt;stroke-linejoin:round;stroke-miterlimit:10;stroke-dasharray:none;stroke-opacity:1"
       id="path126"
       inkscape:connector-curvature="0" /><path
       d="m 221.91903,554.39439 179.61362,0"
       style="fill:none;stroke:#e9e9e9;stroke-width:0.25;stroke-linecap:butt;stroke-linejoin:round;stroke-miterlimit:10;stroke-dasharray:none;stroke-opacity:1"
       id="path128"
       inkscape:connector-curvature="0" /><path
       d="m 221.91903,557.67982 179.61362,0"
       style="fill:none;stroke:#e9e9e9;stroke-width:0.25;stroke-linecap:butt;stroke-linejoin:round;stroke-miterlimit:10;stroke-dasharray:none;stroke-opacity:1"
       id="path130"
       inkscape:connector-curvature="0" /><path
       d="m 221.91903,560.96525 179.61362,0"
       style="fill:none;stroke:#e9e9e9;stroke-width:0.25;stroke-linecap:butt;stroke-linejoin:round;stroke-miterlimit:10;stroke-dasharray:none;stroke-opacity:1"
       id="path132"
       inkscape:connector-curvature="0" /><path
       d="m 221.91903,564.25068 179.61362,0"
       style="fill:none;stroke:#e9e9e9;stroke-width:0.25;stroke-linecap:butt;stroke-linejoin:round;stroke-miterlimit:10;stroke-dasharray:none;stroke-opacity:1"
       id="path134"
       inkscape:connector-curvature="0" /><path
       d="m 221.91903,570.81781 179.61362,0"
       style="fill:none;stroke:#e9e9e9;stroke-width:0.25;stroke-linecap:butt;stroke-linejoin:round;stroke-miterlimit:10;stroke-dasharray:none;stroke-opacity:1"
       id="path136"
       inkscape:connector-curvature="0" /><path
       d="m 221.91903,574.10324 179.61362,0"
       style="fill:none;stroke:#e9e9e9;stroke-width:0.25;stroke-linecap:butt;stroke-linejoin:round;stroke-miterlimit:10;stroke-dasharray:none;stroke-opacity:1"
       id="path138"
       inkscape:connector-curvature="0" /><path
       d="m 221.91903,577.38867 179.61362,0"
       style="fill:none;stroke:#e9e9e9;stroke-width:0.25;stroke-linecap:butt;stroke-linejoin:round;stroke-miterlimit:10;stroke-dasharray:none;stroke-opacity:1"
       id="path140"
       inkscape:connector-curvature="0" /><path
       d="m 221.91903,580.67036 179.61362,0"
       style="fill:none;stroke:#e9e9e9;stroke-width:0.25;stroke-linecap:butt;stroke-linejoin:round;stroke-miterlimit:10;stroke-dasharray:none;stroke-opacity:1"
       id="path142"
       inkscape:connector-curvature="0" /><path
       d="m 221.91903,587.24123 179.61362,0"
       style="fill:none;stroke:#e9e9e9;stroke-width:0.25;stroke-linecap:butt;stroke-linejoin:round;stroke-miterlimit:10;stroke-dasharray:none;stroke-opacity:1"
       id="path144"
       inkscape:connector-curvature="0" /><path
       d="m 221.91903,590.52666 179.61362,0"
       style="fill:none;stroke:#e9e9e9;stroke-width:0.25;stroke-linecap:butt;stroke-linejoin:round;stroke-miterlimit:10;stroke-dasharray:none;stroke-opacity:1"
       id="path146"
       inkscape:connector-curvature="0" /><path
       d="m 221.91903,593.80835 179.61362,0"
       style="fill:none;stroke:#e9e9e9;stroke-width:0.25;stroke-linecap:butt;stroke-linejoin:round;stroke-miterlimit:10;stroke-dasharray:none;stroke-opacity:1"
       id="path148"
       inkscape:connector-curvature="0" /><path
       d="m 221.91903,597.09378 179.61362,0"
       style="fill:none;stroke:#e9e9e9;stroke-width:0.25;stroke-linecap:butt;stroke-linejoin:round;stroke-miterlimit:10;stroke-dasharray:none;stroke-opacity:1"
       id="path150"
       inkscape:connector-curvature="0" /><path
       d="m 221.91903,603.66465 179.61362,0"
       style="fill:none;stroke:#e9e9e9;stroke-width:0.25;stroke-linecap:butt;stroke-linejoin:round;stroke-miterlimit:10;stroke-dasharray:none;stroke-opacity:1"
       id="path152"
       inkscape:connector-curvature="0" /><path
       d="m 221.91903,606.94634 179.61362,0"
       style="fill:none;stroke:#e9e9e9;stroke-width:0.25;stroke-linecap:butt;stroke-linejoin:round;stroke-miterlimit:10;stroke-dasharray:none;stroke-opacity:1"
       id="path154"
       inkscape:connector-curvature="0" /><path
       d="m 221.91903,610.23177 179.61362,0"
       style="fill:none;stroke:#e9e9e9;stroke-width:0.25;stroke-linecap:butt;stroke-linejoin:round;stroke-miterlimit:10;stroke-dasharray:none;stroke-opacity:1"
       id="path156"
       inkscape:connector-curvature="0" /><path
       d="m 221.91903,613.5172 179.61362,0"
       style="fill:none;stroke:#e9e9e9;stroke-width:0.25;stroke-linecap:butt;stroke-linejoin:round;stroke-miterlimit:10;stroke-dasharray:none;stroke-opacity:1"
       id="path158"
       inkscape:connector-curvature="0" /><g
       id="g160"
       clip-path="url(#clipPath162)"
       transform="matrix(0.37419504,0,0,0.37419504,194.41569,342.52142)"
       style="stroke-width:1.33620155"><path
         d="m 73.5,382 2.52,0.02 2.2,0.02 2.47,0.03 2.48,0.03 2.48,0.04 2.29,0.04 2.38,0.05 2.45,0.06 2.45,0.06 2.52,0.08 2.22,0.07 2.5,0.1 2.5,0.12 2.42,0.12 2.19,0.13 2.61,0.17 2.21,0.17 2.57,0.21 2.28,0.22 2.5,0.26 2.38,0.29 2.48,0.33 2.27,0.34 2.46,0.41 2.55,0.48 2.23,0.46 2.4,0.55 2.48,0.63 2.42,0.69 2.35,0.73 2.6,0.91 2.35,0.89 2.5,1.05 2.26,1.04 2.48,1.24 2.33,1.28 2.43,1.45 2.38,1.55 2.5,1.76 2.4,1.85 2.45,2.04 2.44,2.19 2.24,2.17 2.56,2.67 2.3,2.57 2.44,2.93 2.34,3 2.6,3.57 2.25,3.29 2.56,3.98 2.33,3.85 2.54,4.46 2.2,4.07 2.5,4.88 2.42,4.96 2.42,5.22 2.4,5.45 2.32,5.48 2.5,6.17 2.38,6.13 2.5,6.72 2.27,6.29 2.51,7.2 2.41,7.12 2.39,7.32 2.51,7.85 2.3,7.4 2.36,7.75 2.61,8.72 2.36,8.04 2.42,8.32 2.45,8.56 2.26,7.94 2.4,8.49 2.39,8.45 2.56,9.03 2.25,7.93 2.6,9.08 2.35,8.09 2.32,7.89 2.49,8.31 2.51,8.14 2.28,7.2 2.42,7.39 2.37,6.94 2.56,7.18 2.22,5.9 2.54,6.39 2.4,5.59 2.37,5.13 2.37,4.7 2.42,4.33 2.57,4.04 2.35,3.21 2.32,2.67 2.48,2.3 2.48,1.72 2.22,1.04 2.63,0.62 2.21,0 2.57,-0.6 2.46,-1.17 2.2,-1.54 2.47,-2.27 2.48,-2.85 2.48,-3.4 2.29,-3.62 2.37,-4.22 2.46,-4.85 2.45,-5.3 2.52,-5.9 2.22,-5.57 2.49,-6.63 2.51,-7.04 2.42,-7.1 2.19,-6.7 2.61,-8.24 2.21,-7.18 2.57,-8.56 2.28,-7.73 2.5,-8.61 2.37,-8.3 2.48,-8.73 2.28,-8.05 2.46,-8.7 2.55,-9.01 2.22,-7.81 2.4,-8.37 2.48,-8.56 2.43,-8.25 2.35,-7.85 2.6,-8.56 2.34,-7.51 2.5,-7.83 2.27,-6.91 2.47,-7.34 2.34,-6.69 2.43,-6.77 2.38,-6.38 2.5,-6.42 2.4,-5.94 2.45,-5.82 2.44,-5.5 2.24,-4.84 2.56,-5.27 2.29,-4.48 2.45,-4.53 2.34,-4.11 2.6,-4.29 2.25,-3.5 2.56,-3.74 2.32,-3.19 2.55,-3.27 2.2,-2.64 2.5,-2.81 2.42,-2.52 2.41,-2.34 2.41,-2.16 2.31,-1.93 2.5,-1.92 2.39,-1.69 2.5,-1.63 2.27,-1.36 2.51,-1.38 2.4,-1.2 2.4,-1.1 2.5,-1.05 2.31,-0.87 2.36,-0.82 2.61,-0.82 2.36,-0.67 2.41,-0.61 2.46,-0.57 2.26,-0.47 2.4,-0.45 2.39,-0.4 2.55,-0.38 2.26,-0.31 2.6,-0.31 2.34,-0.25 2.33,-0.22 2.49,-0.21 2.51,-0.18 2.28,-0.15 2.42,-0.14 2.37,-0.13 2.56,-0.11 2.21,-0.09 2.55,-0.09 2.39,-0.07 2.38,-0.06 2.37,-0.06 2.42,-0.05 2.56,-0.04 2.35,-0.04 2.33,-0.03 2.48,-0.03 2.47,-0.02 2.34,-0.02"
         style="fill:none;stroke:#000000;stroke-width:1.33620155;stroke-linecap:butt;stroke-linejoin:round;stroke-miterlimit:10;stroke-dasharray:none;stroke-opacity:1"
         id="path166"
         inkscape:connector-curvature="0" /></g><path
       inkscape:connector-curvature="0"
       id="path176"
       style="fill:none;stroke:#000000;stroke-width:0.25;stroke-linecap:butt;stroke-linejoin:round;stroke-miterlimit:10;stroke-dasharray:none;stroke-opacity:1"
       d="m 221.91903,484.71553 179.61362,0" /><path
       inkscape:connector-curvature="0"
       id="path194"
       style="fill:none;stroke:#000000;stroke-width:0.25;stroke-linecap:square;stroke-linejoin:miter;stroke-miterlimit:10;stroke-dasharray:none;stroke-opacity:1"
       d="m 221.91903,484.71553 0,-1.69136" /><path
       d="m 222.19968,479.51796 -3.70454,0 0,0.29188 3.70454,0 0,-0.29188 z"
       style="fill:#000000;fill-opacity:1;fill-rule:nonzero;stroke:none;stroke-width:0.25"
       id="path202"
       inkscape:connector-curvature="0" /><path
       inkscape:connector-curvature="0"
       id="path212"
       style="fill:#000000;fill-opacity:1;fill-rule:nonzero;stroke:none;stroke-width:0.25"
       d="m 225.09221,479.34958 0,-0.38543 -0.50143,0 0,-0.98413 -0.44903,0 0,0.98413 -1.57536,0 0,0.348 1.72504,2.4622 0.29935,0 0,-2.42477 0.50143,0 z m -0.95046,0 0,1.84477 -1.30594,-1.84477 1.30594,0 z" /><path
       inkscape:connector-curvature="0"
       id="path214"
       style="fill:none;stroke:#000000;stroke-width:0.25;stroke-linecap:square;stroke-linejoin:miter;stroke-miterlimit:10;stroke-dasharray:none;stroke-opacity:1"
       d="m 244.37074,484.71553 0,-1.69136" /><path
       d="m 244.65138,479.51796 -3.70453,0 0,0.29188 3.70453,0 0,-0.29188 z"
       style="fill:#000000;fill-opacity:1;fill-rule:nonzero;stroke:none;stroke-width:0.25"
       id="path222"
       inkscape:connector-curvature="0" /><path
       inkscape:connector-curvature="0"
       id="path232"
       style="fill:#000000;fill-opacity:1;fill-rule:nonzero;stroke:none;stroke-width:0.25"
       d="m 245.22016,480.99229 c 0,0 0.15716,0.3742 0.40039,0.57627 0,0 0.23948,0.20579 0.60245,0.20579 0,0 0.44529,0 0.68478,-0.29186 0,0 0.18335,-0.21704 0.18335,-0.46026 0,0 0,-0.41162 -0.5089,-0.84194 0,0 0.33678,-0.13471 0.51264,-0.38542 0,0 0.17588,-0.24698 0.17588,-0.58749 0,0 0,-0.47897 -0.3031,-0.83071 0,0 -0.40414,-0.46026 -1.16,-0.46026 0,0 -0.37794,0 -0.51265,0.0935 0,0 -0.13471,0.0935 -0.13471,0.19832 0,0 0,0.0824 0.0636,0.13846 0,0 0.0636,0.0598 0.15341,0.0598 0,0 0.0711,0 0.13846,-0.0224 0,0 0.0487,-0.0113 0.21329,-0.0973 0,0 0.16839,-0.0861 0.22452,-0.10103 0,0 0.10851,-0.03 0.21703,-0.03 0,0 0.28065,0 0.4902,0.21704 0,0 0.20581,0.21703 0.20581,0.50891 0,0 0,0.21329 -0.0936,0.41909 0,0 -0.0748,0.15717 -0.15716,0.23575 0,0 -0.116,0.10852 -0.32554,0.19832 0,0 -0.20581,0.0861 -0.41536,0.0861 l -0.0898,0 0,0.0898 c 0,0 0.21703,0.0224 0.43407,0.14968 0,0 0.21703,0.13096 0.31432,0.31058 0,0 0.10104,0.18336 0.10104,0.39665 0,0 0,0.28064 -0.17588,0.45652 0,0 -0.17587,0.17586 -0.43781,0.17586 0,0 -0.42658,0 -0.71471,-0.45651 l -0.0861,0.0487 z" /><path
       inkscape:connector-curvature="0"
       id="path234"
       style="fill:none;stroke:#000000;stroke-width:0.25;stroke-linecap:square;stroke-linejoin:miter;stroke-miterlimit:10;stroke-dasharray:none;stroke-opacity:1"
       d="m 266.82244,484.71553 0,-1.69136" /><path
       d="m 267.10308,479.51796 -3.70453,0 0,0.29188 3.70453,0 0,-0.29188 z"
       style="fill:#000000;fill-opacity:1;fill-rule:nonzero;stroke:none;stroke-width:0.25"
       id="path242"
       inkscape:connector-curvature="0" /><path
       inkscape:connector-curvature="0"
       id="path252"
       style="fill:#000000;fill-opacity:1;fill-rule:nonzero;stroke:none;stroke-width:0.25"
       d="m 269.95819,478.69474 -0.25819,-0.71472 -2.19279,0 0,0.10103 c 0,0 0.96543,0.8831 1.35833,1.44439 0,0 0.39665,0.5613 0.39665,1.02156 0,0 0,0.35175 -0.21703,0.58001 0,0 -0.21704,0.22825 -0.52014,0.22825 0,0 -0.26941,0 -0.49019,-0.16091 0,0 -0.21703,-0.1609 -0.32181,-0.47148 l -0.10103,0 c 0,0 0.0711,0.50891 0.35174,0.77833 0,0 0.28439,0.27315 0.70724,0.27315 0,0 0.45651,0 0.75586,-0.29186 0,0 0.3031,-0.29188 0.3031,-0.68478 0,0 0,-0.28065 -0.13096,-0.56503 0,0 -0.20207,-0.4453 -0.65859,-0.93549 0,0 -0.68103,-0.7484 -0.85317,-0.90181 l 0.96917,0 c 0,0 0.29936,0 0.4191,0.0187 0,0 0.11974,0.0224 0.21329,0.0898 0,0 0.0973,0.0674 0.16839,0.19085 l 0.10103,0 z" /><path
       inkscape:connector-curvature="0"
       id="path254"
       style="fill:none;stroke:#000000;stroke-width:0.25;stroke-linecap:square;stroke-linejoin:miter;stroke-miterlimit:10;stroke-dasharray:none;stroke-opacity:1"
       d="m 289.27413,484.71553 0,-1.69136" /><path
       d="m 289.55479,479.51796 -3.70454,0 0,0.29188 3.70454,0 0,-0.29188 z"
       style="fill:#000000;fill-opacity:1;fill-rule:nonzero;stroke:none;stroke-width:0.25"
       id="path262"
       inkscape:connector-curvature="0" /><path
       inkscape:connector-curvature="0"
       id="path272"
       style="fill:#000000;fill-opacity:1;fill-rule:nonzero;stroke:none;stroke-width:0.25"
       d="m 290.49776,481.32906 0.89806,0.44529 0.0935,0 0,-3.13949 c 0,0 0,-0.31058 0.0261,-0.38916 0,0 0.0262,-0.0785 0.10852,-0.11974 0,0 0.0823,-0.0411 0.33303,-0.0449 l 0,-0.10103 -1.39575,0 0,0.10103 c 0,0 0.26195,0.004 0.33678,0.0449 0,0 0.0786,0.0411 0.10851,0.10852 0,0 0.0262,0.0674 0.0262,0.40038 l 0,2.00569 c 0,0 0,0.40787 -0.0224,0.52013 0,0 -0.0224,0.0861 -0.0711,0.12722 0,0 -0.0524,0.0411 -0.11975,0.0411 0,0 -0.10851,0 -0.28065,-0.0823 l -0.0411,0.0823 z" /><path
       inkscape:connector-curvature="0"
       id="path274"
       style="fill:none;stroke:#000000;stroke-width:0.25;stroke-linecap:square;stroke-linejoin:miter;stroke-miterlimit:10;stroke-dasharray:none;stroke-opacity:1"
       d="m 311.72584,484.71553 0,-1.69136" /><path
       inkscape:connector-curvature="0"
       id="path276"
       style="fill:#000000;fill-opacity:1;fill-rule:nonzero;stroke:none;stroke-width:0.25"
       d="m 310.62197,479.81732 c 0,0 0,0.63613 0.18709,1.09639 0,0 0.19084,0.45652 0.51265,0.68104 0,0 0.24697,0.1796 0.50891,0.1796 0,0 0.42658,0 0.76709,-0.4378 0,0 0.42659,-0.53884 0.42659,-1.46311 0,0 0,-0.64735 -0.18709,-1.09639 0,0 -0.1871,-0.45277 -0.47524,-0.65483 0,0 -0.29186,-0.20581 -0.56129,-0.20581 0,0 -0.53136,0 -0.8831,0.6249 0,0 -0.29561,0.53136 -0.29561,1.27601 z m 0.53509,-0.0711 c 0,0 0,-0.7671 0.1871,-1.24981 0,0 0.16091,-0.41162 0.46774,-0.41162 0,0 0.14969,0 0.30685,0.13471 0,0 0.15716,0.13471 0.23948,0.44529 0,0 0.12722,0.4715 0.12722,1.33214 0,0 0,0.63239 -0.1347,1.05897 0,0 -0.0935,0.31433 -0.25071,0.4453 0,0 -0.11226,0.0935 -0.27317,0.0935 0,0 -0.18335,0 -0.32929,-0.17214 0,0 -0.19832,-0.22826 -0.26942,-0.71471 0,0 -0.0711,-0.4902 -0.0711,-0.96168 z" /><path
       inkscape:connector-curvature="0"
       id="path278"
       style="fill:none;stroke:#000000;stroke-width:0.25;stroke-linecap:square;stroke-linejoin:miter;stroke-miterlimit:10;stroke-dasharray:none;stroke-opacity:1"
       d="m 334.17754,484.71553 0,-1.69136" /><path
       inkscape:connector-curvature="0"
       id="path280"
       style="fill:#000000;fill-opacity:1;fill-rule:nonzero;stroke:none;stroke-width:0.25"
       d="m 333.53019,481.32906 0.89806,0.44529 0.0936,0 0,-3.13949 c 0,0 0,-0.31058 0.0261,-0.38916 0,0 0.0262,-0.0785 0.10851,-0.11974 0,0 0.0823,-0.0411 0.33304,-0.0449 l 0,-0.10103 -1.39575,0 0,0.10103 c 0,0 0.26194,0.004 0.33677,0.0449 0,0 0.0786,0.0411 0.10852,0.10852 0,0 0.0262,0.0674 0.0262,0.40038 l 0,2.00569 c 0,0 0,0.40787 -0.0224,0.52013 0,0 -0.0224,0.0861 -0.0711,0.12722 0,0 -0.0524,0.0411 -0.11975,0.0411 0,0 -0.10851,0 -0.28064,-0.0823 l -0.0411,0.0823 z" /><path
       inkscape:connector-curvature="0"
       id="path282"
       style="fill:none;stroke:#000000;stroke-width:0.25;stroke-linecap:square;stroke-linejoin:miter;stroke-miterlimit:10;stroke-dasharray:none;stroke-opacity:1"
       d="m 356.62924,484.71553 0,-1.69136" /><path
       inkscape:connector-curvature="0"
       id="path284"
       style="fill:#000000;fill-opacity:1;fill-rule:nonzero;stroke:none;stroke-width:0.25"
       d="m 357.89403,478.69474 -0.2582,-0.71472 -2.19278,0 0,0.10103 c 0,0 0.96542,0.8831 1.35833,1.44439 0,0 0.39664,0.5613 0.39664,1.02156 0,0 0,0.35175 -0.21703,0.58001 0,0 -0.21704,0.22825 -0.52013,0.22825 0,0 -0.26942,0 -0.4902,-0.16091 0,0 -0.21703,-0.1609 -0.32181,-0.47148 l -0.10103,0 c 0,0 0.0711,0.50891 0.35175,0.77833 0,0 0.28438,0.27315 0.70723,0.27315 0,0 0.45651,0 0.75587,-0.29186 0,0 0.3031,-0.29188 0.3031,-0.68478 0,0 0,-0.28065 -0.13097,-0.56503 0,0 -0.20206,-0.4453 -0.65859,-0.93549 0,0 -0.68103,-0.7484 -0.85316,-0.90181 l 0.96916,0 c 0,0 0.29936,0 0.4191,0.0187 0,0 0.11974,0.0224 0.2133,0.0898 0,0 0.0973,0.0674 0.16839,0.19085 l 0.10103,0 z" /><path
       inkscape:connector-curvature="0"
       id="path286"
       style="fill:none;stroke:#000000;stroke-width:0.25;stroke-linecap:square;stroke-linejoin:miter;stroke-miterlimit:10;stroke-dasharray:none;stroke-opacity:1"
       d="m 379.08094,484.71553 0,-1.69136" /><path
       inkscape:connector-curvature="0"
       id="path288"
       style="fill:#000000;fill-opacity:1;fill-rule:nonzero;stroke:none;stroke-width:0.25"
       d="m 378.0594,480.99229 c 0,0 0.15716,0.3742 0.40039,0.57627 0,0 0.23948,0.20579 0.60245,0.20579 0,0 0.44529,0 0.68478,-0.29186 0,0 0.18335,-0.21704 0.18335,-0.46026 0,0 0,-0.41162 -0.5089,-0.84194 0,0 0.33678,-0.13471 0.51264,-0.38542 0,0 0.17588,-0.24698 0.17588,-0.58749 0,0 0,-0.47897 -0.3031,-0.83071 0,0 -0.40414,-0.46026 -1.16,-0.46026 0,0 -0.37794,0 -0.51265,0.0935 0,0 -0.13471,0.0935 -0.13471,0.19832 0,0 0,0.0824 0.0636,0.13846 0,0 0.0636,0.0598 0.15341,0.0598 0,0 0.0711,0 0.13846,-0.0224 0,0 0.0487,-0.0113 0.21329,-0.0973 0,0 0.16839,-0.0861 0.22452,-0.10103 0,0 0.10852,-0.03 0.21703,-0.03 0,0 0.28065,0 0.4902,0.21704 0,0 0.2058,0.21703 0.2058,0.50891 0,0 0,0.21329 -0.0935,0.41909 0,0 -0.0748,0.15717 -0.15715,0.23575 0,0 -0.11601,0.10852 -0.32555,0.19832 0,0 -0.20581,0.0861 -0.41536,0.0861 l -0.0898,0 0,0.0898 c 0,0 0.21703,0.0224 0.43407,0.14968 0,0 0.21703,0.13096 0.31432,0.31058 0,0 0.10103,0.18336 0.10103,0.39665 0,0 0,0.28064 -0.17587,0.45652 0,0 -0.17587,0.17586 -0.43781,0.17586 0,0 -0.42658,0 -0.71471,-0.45651 l -0.0861,0.0487 z" /><path
       inkscape:connector-curvature="0"
       id="path290"
       style="fill:none;stroke:#000000;stroke-width:0.25;stroke-linecap:square;stroke-linejoin:miter;stroke-miterlimit:10;stroke-dasharray:none;stroke-opacity:1"
       d="m 401.53265,484.71553 0,-1.69136" /><path
       inkscape:connector-curvature="0"
       id="path292"
       style="fill:#000000;fill-opacity:1;fill-rule:nonzero;stroke:none;stroke-width:0.25"
       d="m 402.83486,479.34958 0,-0.38543 -0.50143,0 0,-0.98413 -0.44903,0 0,0.98413 -1.57536,0 0,0.348 1.72503,2.4622 0.29936,0 0,-2.42477 0.50143,0 z m -0.95046,0 0,1.84477 -1.30595,-1.84477 1.30595,0 z" /><path
       inkscape:connector-curvature="0"
       id="path294"
       style="fill:none;stroke:#000000;stroke-width:0.25;stroke-linecap:square;stroke-linejoin:miter;stroke-miterlimit:10;stroke-dasharray:none;stroke-opacity:1"
       d="m 233.14488,484.71553 0,-0.84568" /><path
       inkscape:connector-curvature="0"
       id="path296"
       style="fill:none;stroke:#000000;stroke-width:0.25;stroke-linecap:square;stroke-linejoin:miter;stroke-miterlimit:10;stroke-dasharray:none;stroke-opacity:1"
       d="m 255.59659,484.71553 0,-0.84568" /><path
       inkscape:connector-curvature="0"
       id="path298"
       style="fill:none;stroke:#000000;stroke-width:0.25;stroke-linecap:square;stroke-linejoin:miter;stroke-miterlimit:10;stroke-dasharray:none;stroke-opacity:1"
       d="m 278.04829,484.71553 0,-0.84568" /><path
       inkscape:connector-curvature="0"
       id="path300"
       style="fill:none;stroke:#000000;stroke-width:0.25;stroke-linecap:square;stroke-linejoin:miter;stroke-miterlimit:10;stroke-dasharray:none;stroke-opacity:1"
       d="m 300.49998,484.71553 0,-0.84568" /><path
       inkscape:connector-curvature="0"
       id="path302"
       style="fill:none;stroke:#000000;stroke-width:0.25;stroke-linecap:square;stroke-linejoin:miter;stroke-miterlimit:10;stroke-dasharray:none;stroke-opacity:1"
       d="m 322.95169,484.71553 0,-0.84568" /><path
       inkscape:connector-curvature="0"
       id="path304"
       style="fill:none;stroke:#000000;stroke-width:0.25;stroke-linecap:square;stroke-linejoin:miter;stroke-miterlimit:10;stroke-dasharray:none;stroke-opacity:1"
       d="m 345.40339,484.71553 0,-0.84568" /><path
       inkscape:connector-curvature="0"
       id="path306"
       style="fill:none;stroke:#000000;stroke-width:0.25;stroke-linecap:square;stroke-linejoin:miter;stroke-miterlimit:10;stroke-dasharray:none;stroke-opacity:1"
       d="m 367.85509,484.71553 0,-0.84568" /><path
       inkscape:connector-curvature="0"
       id="path308"
       style="fill:none;stroke:#000000;stroke-width:0.25;stroke-linecap:square;stroke-linejoin:miter;stroke-miterlimit:10;stroke-dasharray:none;stroke-opacity:1"
       d="m 390.3068,484.71553 0,-0.84568" /><path
       inkscape:connector-curvature="0"
       id="path310"
       style="fill:none;stroke:#000000;stroke-width:0.25;stroke-linecap:butt;stroke-linejoin:round;stroke-miterlimit:10;stroke-dasharray:none;stroke-opacity:1"
       d="m 311.72584,484.71553 0,131.71666" /><path
       inkscape:connector-curvature="0"
       id="path326"
       style="fill:none;stroke:#000000;stroke-width:0.25;stroke-linecap:square;stroke-linejoin:miter;stroke-miterlimit:10;stroke-dasharray:none;stroke-opacity:1"
       d="m 311.72584,501.84244 -1.69137,0" /><path
       inkscape:connector-curvature="0"
       id="path328"
       style="fill:#000000;fill-opacity:1;fill-rule:nonzero;stroke:none;stroke-width:0.25"
       d="m 299.39611,501.52063 c 0,0 0,0.63613 0.1871,1.09639 0,0 0.19084,0.45652 0.51265,0.68103 0,0 0.24697,0.17962 0.5089,0.17962 0,0 0.42659,0 0.7671,-0.43781 0,0 0.42659,-0.53884 0.42659,-1.4631 0,0 0,-0.64736 -0.1871,-1.09639 0,0 -0.18709,-0.45278 -0.47523,-0.65484 0,0 -0.29187,-0.20581 -0.56129,-0.20581 0,0 -0.53136,0 -0.8831,0.62491 0,0 -0.29562,0.53136 -0.29562,1.276 z m 0.5351,-0.0711 c 0,0 0,-0.7671 0.1871,-1.24982 0,0 0.1609,-0.41161 0.46774,-0.41161 0,0 0.14969,0 0.30685,0.13471 0,0 0.15715,0.13471 0.23948,0.44529 0,0 0.12723,0.47148 0.12723,1.33213 0,0 0,0.6324 -0.13471,1.05897 0,0 -0.0936,0.31433 -0.25071,0.44529 0,0 -0.11226,0.0935 -0.27317,0.0935 0,0 -0.18335,0 -0.32929,-0.17212 0,0 -0.19832,-0.22826 -0.26942,-0.71472 0,0 -0.0711,-0.49019 -0.0711,-0.96167 z m 2.76905,-1.23485 c 0,0 0.12722,0 0.21329,-0.0898 0,0 0.0898,-0.0898 0.0898,-0.2133 0,0 0,-0.12722 -0.0898,-0.21703 0,0 -0.0861,-0.0861 -0.21329,-0.0861 0,0 -0.13097,0 -0.21704,0.0861 0,0 -0.0898,0.0898 -0.0898,0.21703 0,0 0,0.12723 0.0898,0.21704 0,0 0.0861,0.0861 0.21704,0.0861 z m 0.90555,1.30594 c 0,0 0,0.63613 0.1871,1.09639 0,0 0.19084,0.45652 0.51265,0.68103 0,0 0.24696,0.17962 0.5089,0.17962 0,0 0.42658,0 0.7671,-0.43781 0,0 0.42658,-0.53884 0.42658,-1.4631 0,0 0,-0.64736 -0.1871,-1.09639 0,0 -0.18709,-0.45278 -0.47522,-0.65484 0,0 -0.29188,-0.20581 -0.5613,-0.20581 0,0 -0.53135,0 -0.8831,0.62491 0,0 -0.29561,0.53136 -0.29561,1.276 z m 0.5351,-0.0711 c 0,0 0,-0.76709 0.1871,-1.24981 0,0 0.1609,-0.41161 0.46774,-0.41161 0,0 0.14968,0 0.30684,0.13471 0,0 0.15716,0.13471 0.23949,0.44529 0,0 0.12722,0.47148 0.12722,1.33213 0,0 0,0.63239 -0.13471,1.05897 0,0 -0.0935,0.31433 -0.25071,0.44529 0,0 -0.11225,0.0935 -0.27316,0.0935 0,0 -0.18335,0 -0.3293,-0.17212 0,0 -0.19832,-0.22826 -0.26941,-0.71472 0,0 -0.0711,-0.49019 -0.0711,-0.96168 z m 4.50531,1.9533 -0.21703,-0.46774 -1.11885,0 -0.24322,-0.49769 c 0,0 0.72219,-0.11226 1.15252,-0.54258 0,0 0.35922,-0.37045 0.35922,-0.87935 0,0 0,-0.29188 -0.116,-0.53884 0,0 -0.116,-0.25072 -0.29936,-0.42659 0,0 -0.17961,-0.17213 -0.40038,-0.28065 0,0 -0.31807,-0.14967 -0.6511,-0.14967 0,0 -0.33304,0 -0.48271,0.11226 0,0 -0.15343,0.116 -0.15343,0.2507 0,0 0,0.0748 0.0636,0.13472 0,0 0.0636,0.0561 0.15717,0.0561 0,0 0.0711,0 0.12348,-0.0187 0,0 0.0524,-0.0224 0.18336,-0.116 0,0 0.20955,-0.13845 0.41909,-0.13845 0,0 0.32181,0 0.5613,0.24322 0,0 0.23949,0.24323 0.23949,0.59123 0,0 0,0.33303 -0.21704,0.62491 0,0 -0.21703,0.29562 -0.59497,0.45277 0,0 -0.29935,0.12349 -0.812,0.14594 l 0.71096,1.44439 1.33588,0 z" /><path
       inkscape:connector-curvature="0"
       id="path330"
       style="fill:none;stroke:#000000;stroke-width:0.25;stroke-linecap:square;stroke-linejoin:miter;stroke-miterlimit:10;stroke-dasharray:none;stroke-opacity:1"
       d="m 311.72584,518.26586 -1.69137,0" /><path
       inkscape:connector-curvature="0"
       id="path332"
       style="fill:#000000;fill-opacity:1;fill-rule:nonzero;stroke:none;stroke-width:0.25"
       d="m 299.39611,517.98522 c 0,0 0,0.63612 0.1871,1.09639 0,0 0.19084,0.45652 0.51265,0.68103 0,0 0.24697,0.17961 0.5089,0.17961 0,0 0.42659,0 0.7671,-0.43781 0,0 0.42659,-0.53883 0.42659,-1.4631 0,0 0,-0.64736 -0.1871,-1.09639 0,0 -0.18709,-0.45278 -0.47523,-0.65484 0,0 -0.29187,-0.2058 -0.56129,-0.2058 0,0 -0.53136,0 -0.8831,0.6249 0,0 -0.29562,0.53135 -0.29562,1.27601 z m 0.5351,-0.0711 c 0,0 0,-0.7671 0.1871,-1.2498 0,0 0.1609,-0.41162 0.46774,-0.41162 0,0 0.14969,0 0.30685,0.13471 0,0 0.15715,0.1347 0.23948,0.44529 0,0 0.12723,0.47148 0.12723,1.33213 0,0 0,0.6324 -0.13471,1.05898 0,0 -0.0936,0.31432 -0.25071,0.44529 0,0 -0.11226,0.0935 -0.27317,0.0935 0,0 -0.18335,0 -0.32929,-0.17213 0,0 -0.19832,-0.22826 -0.26942,-0.71471 0,0 -0.0711,-0.4902 -0.0711,-0.96169 z m 2.76905,-1.23484 c 0,0 0.12722,0 0.21329,-0.0898 0,0 0.0898,-0.0898 0.0898,-0.21329 0,0 0,-0.12722 -0.0898,-0.21703 0,0 -0.0861,-0.0861 -0.21329,-0.0861 0,0 -0.13097,0 -0.21704,0.0861 0,0 -0.0898,0.0898 -0.0898,0.21703 0,0 0,0.12723 0.0898,0.21704 0,0 0.0861,0.0861 0.21704,0.0861 z m 1.36207,2.81769 0.89807,0.44529 0.0935,0 0,-3.13949 c 0,0 0,-0.31059 0.0261,-0.38917 0,0 0.0262,-0.0786 0.10852,-0.11974 0,0 0.0824,-0.0411 0.33303,-0.0449 l 0,-0.10104 -1.39574,0 0,0.10104 c 0,0 0.26193,0.004 0.33678,0.0449 0,0 0.0785,0.0411 0.10851,0.10851 0,0 0.0262,0.0674 0.0262,0.4004 l 0,2.00568 c 0,0 0,0.40788 -0.0224,0.52013 0,0 -0.0224,0.0861 -0.0711,0.12723 0,0 -0.0524,0.0411 -0.11974,0.0411 0,0 -0.10851,0 -0.28065,-0.0824 l -0.0411,0.0824 z m 2.34995,-1.51175 c 0,0 0,0.63613 0.18709,1.09639 0,0 0.19084,0.45652 0.51265,0.68104 0,0 0.24696,0.17961 0.50891,0.17961 0,0 0.42657,0 0.76709,-0.43781 0,0 0.42658,-0.53884 0.42658,-1.4631 0,0 0,-0.64736 -0.18709,-1.09639 0,0 -0.1871,-0.45278 -0.47523,-0.65485 0,0 -0.29187,-0.2058 -0.5613,-0.2058 0,0 -0.53135,0 -0.8831,0.62491 0,0 -0.2956,0.53135 -0.2956,1.276 z m 0.53509,-0.0711 c 0,0 0,-0.7671 0.1871,-1.24981 0,0 0.16091,-0.41161 0.46774,-0.41161 0,0 0.14968,0 0.30684,0.13471 0,0 0.15717,0.1347 0.23949,0.44529 0,0 0.12722,0.47148 0.12722,1.33213 0,0 0,0.6324 -0.13471,1.05897 0,0 -0.0935,0.31433 -0.25071,0.44529 0,0 -0.11225,0.0935 -0.27316,0.0935 0,0 -0.18335,0 -0.32929,-0.17212 0,0 -0.19832,-0.22826 -0.26942,-0.71472 0,0 -0.0711,-0.49019 -0.0711,-0.96168 z" /><path
       inkscape:connector-curvature="0"
       id="path334"
       style="fill:none;stroke:#000000;stroke-width:0.25;stroke-linecap:square;stroke-linejoin:miter;stroke-miterlimit:10;stroke-dasharray:none;stroke-opacity:1"
       d="m 311.72584,534.68928 -1.69137,0" /><path
       inkscape:connector-curvature="0"
       id="path336"
       style="fill:#000000;fill-opacity:1;fill-rule:nonzero;stroke:none;stroke-width:0.25"
       d="m 299.39611,534.44979 c 0,0 0,0.63614 0.1871,1.0964 0,0 0.19084,0.45651 0.51265,0.68103 0,0 0.24697,0.17962 0.5089,0.17962 0,0 0.42659,0 0.7671,-0.43781 0,0 0.42659,-0.53884 0.42659,-1.4631 0,0 0,-0.64736 -0.1871,-1.09639 0,0 -0.18709,-0.45278 -0.47523,-0.65485 0,0 -0.29187,-0.20581 -0.56129,-0.20581 0,0 -0.53136,0 -0.8831,0.62491 0,0 -0.29562,0.53135 -0.29562,1.276 z m 0.5351,-0.0711 c 0,0 0,-0.7671 0.1871,-1.24981 0,0 0.1609,-0.41161 0.46774,-0.41161 0,0 0.14969,0 0.30685,0.13471 0,0 0.15715,0.13471 0.23948,0.4453 0,0 0.12723,0.47148 0.12723,1.33213 0,0 0,0.63238 -0.13471,1.05897 0,0 -0.0936,0.31432 -0.25071,0.44529 0,0 -0.11226,0.0935 -0.27317,0.0935 0,0 -0.18335,0 -0.32929,-0.17213 0,0 -0.19832,-0.22826 -0.26942,-0.71471 0,0 -0.0711,-0.49019 -0.0711,-0.96169 z m 2.76905,-1.23484 c 0,0 0.12722,0 0.21329,-0.0898 0,0 0.0898,-0.0898 0.0898,-0.21329 0,0 0,-0.12722 -0.0898,-0.21703 0,0 -0.0861,-0.0861 -0.21329,-0.0861 0,0 -0.13097,0 -0.21704,0.0861 0,0 -0.0898,0.0898 -0.0898,0.21703 0,0 0,0.12723 0.0898,0.21703 0,0 0.0861,0.0861 0.21704,0.0861 z m 1.36207,2.8177 0.89807,0.44529 0.0935,0 0,-3.13951 c 0,0 0,-0.31057 0.0261,-0.38915 0,0 0.0262,-0.0786 0.10852,-0.11975 0,0 0.0824,-0.0411 0.33303,-0.0449 l 0,-0.10104 -1.39574,0 0,0.10104 c 0,0 0.26193,0.004 0.33678,0.0449 0,0 0.0785,0.0411 0.10851,0.10852 0,0 0.0262,0.0674 0.0262,0.40038 l 0,2.00569 c 0,0 0,0.40787 -0.0224,0.52013 0,0 -0.0224,0.0861 -0.0711,0.12723 0,0 -0.0524,0.0411 -0.11974,0.0411 0,0 -0.10851,0 -0.28065,-0.0823 l -0.0411,0.0823 z m 4.58389,0.37045 -0.21703,-0.46775 -1.11885,0 -0.24322,-0.49768 c 0,0 0.72219,-0.11226 1.15252,-0.54258 0,0 0.35922,-0.37045 0.35922,-0.87936 0,0 0,-0.29187 -0.116,-0.53884 0,0 -0.116,-0.25071 -0.29936,-0.42658 0,0 -0.17961,-0.17213 -0.40038,-0.28065 0,0 -0.31807,-0.14968 -0.6511,-0.14968 0,0 -0.33304,0 -0.48271,0.11226 0,0 -0.15343,0.116 -0.15343,0.25071 0,0 0,0.0748 0.0636,0.13471 0,0 0.0636,0.0561 0.15717,0.0561 0,0 0.0711,0 0.12348,-0.0187 0,0 0.0524,-0.0224 0.18336,-0.116 0,0 0.20955,-0.13845 0.41909,-0.13845 0,0 0.32181,0 0.5613,0.24323 0,0 0.23949,0.24322 0.23949,0.59122 0,0 0,0.33304 -0.21704,0.62491 0,0 -0.21703,0.29561 -0.59497,0.45278 0,0 -0.29935,0.12348 -0.812,0.14593 l 0.71096,1.4444 1.33588,0 z" /><path
       inkscape:connector-curvature="0"
       id="path338"
       style="fill:none;stroke:#000000;stroke-width:0.25;stroke-linecap:square;stroke-linejoin:miter;stroke-miterlimit:10;stroke-dasharray:none;stroke-opacity:1"
       d="m 311.72584,551.10895 -1.69137,0" /><path
       inkscape:connector-curvature="0"
       id="path340"
       style="fill:#000000;fill-opacity:1;fill-rule:nonzero;stroke:none;stroke-width:0.25"
       d="m 299.39611,550.91437 c 0,0 0,0.63614 0.1871,1.09639 0,0 0.19084,0.45652 0.51265,0.68104 0,0 0.24697,0.17962 0.5089,0.17962 0,0 0.42659,0 0.7671,-0.43781 0,0 0.42659,-0.53885 0.42659,-1.4631 0,0 0,-0.64736 -0.1871,-1.0964 0,0 -0.18709,-0.45277 -0.47523,-0.65484 0,0 -0.29187,-0.20581 -0.56129,-0.20581 0,0 -0.53136,0 -0.8831,0.62491 0,0 -0.29562,0.53136 -0.29562,1.276 z m 0.5351,-0.0711 c 0,0 0,-0.7671 0.1871,-1.24982 0,0 0.1609,-0.4116 0.46774,-0.4116 0,0 0.14969,0 0.30685,0.1347 0,0 0.15715,0.13471 0.23948,0.4453 0,0 0.12723,0.47148 0.12723,1.33213 0,0 0,0.63239 -0.13471,1.05897 0,0 -0.0936,0.31432 -0.25071,0.4453 0,0 -0.11226,0.0935 -0.27317,0.0935 0,0 -0.18335,0 -0.32929,-0.17213 0,0 -0.19832,-0.22825 -0.26942,-0.71471 0,0 -0.0711,-0.4902 -0.0711,-0.96168 z m 2.76905,-1.23484 c 0,0 0.12722,0 0.21329,-0.0898 0,0 0.0898,-0.0898 0.0898,-0.21329 0,0 0,-0.12723 -0.0898,-0.21704 0,0 -0.0861,-0.0861 -0.21329,-0.0861 0,0 -0.13097,0 -0.21704,0.0861 0,0 -0.0898,0.0898 -0.0898,0.21704 0,0 0,0.12722 0.0898,0.21703 0,0 0.0861,0.0861 0.21704,0.0861 z m 3.27421,0.18335 -0.2582,-0.71471 -2.19278,0 0,0.10103 c 0,0 0.96542,0.8831 1.35833,1.4444 0,0 0.39664,0.56129 0.39664,1.02155 0,0 0,0.35174 -0.21703,0.58 0,0 -0.21703,0.22825 -0.52013,0.22825 0,0 -0.26943,0 -0.4902,-0.16089 0,0 -0.21703,-0.16091 -0.32181,-0.47149 l -0.10102,0 c 0,0 0.0711,0.5089 0.35174,0.77833 0,0 0.28438,0.27316 0.70722,0.27316 0,0 0.45652,0 0.75588,-0.29188 0,0 0.3031,-0.29187 0.3031,-0.68478 0,0 0,-0.28064 -0.13097,-0.56503 0,0 -0.20206,-0.44529 -0.65858,-0.93548 0,0 -0.68104,-0.74839 -0.85317,-0.90181 l 0.96917,0 c 0,0 0.29935,0 0.41909,0.0187 0,0 0.11974,0.0224 0.21329,0.0898 0,0 0.0973,0.0674 0.16839,0.19083 l 0.10104,0 z m 0.43781,1.12258 c 0,0 0,0.63614 0.18709,1.09639 0,0 0.19084,0.45652 0.51265,0.68104 0,0 0.24696,0.17962 0.50891,0.17962 0,0 0.42657,0 0.76709,-0.43781 0,0 0.42658,-0.53885 0.42658,-1.4631 0,0 0,-0.64736 -0.18709,-1.0964 0,0 -0.1871,-0.45277 -0.47523,-0.65484 0,0 -0.29187,-0.20581 -0.5613,-0.20581 0,0 -0.53135,0 -0.8831,0.62491 0,0 -0.2956,0.53136 -0.2956,1.276 z m 0.53509,-0.0711 c 0,0 0,-0.7671 0.1871,-1.24982 0,0 0.16091,-0.4116 0.46774,-0.4116 0,0 0.14968,0 0.30684,0.1347 0,0 0.15717,0.13471 0.23949,0.4453 0,0 0.12722,0.47148 0.12722,1.33213 0,0 0,0.63239 -0.13471,1.05897 0,0 -0.0935,0.31432 -0.25071,0.44529 0,0 -0.11225,0.0936 -0.27316,0.0936 0,0 -0.18335,0 -0.32929,-0.17213 0,0 -0.19832,-0.22825 -0.26942,-0.71471 0,0 -0.0711,-0.4902 -0.0711,-0.96168 z" /><path
       inkscape:connector-curvature="0"
       id="path342"
       style="fill:none;stroke:#000000;stroke-width:0.25;stroke-linecap:square;stroke-linejoin:miter;stroke-miterlimit:10;stroke-dasharray:none;stroke-opacity:1"
       d="m 311.72584,567.53237 -1.69137,0" /><path
       inkscape:connector-curvature="0"
       id="path344"
       style="fill:#000000;fill-opacity:1;fill-rule:nonzero;stroke:none;stroke-width:0.25"
       d="m 299.39611,567.37896 c 0,0 0,0.63613 0.1871,1.09639 0,0 0.19084,0.45652 0.51265,0.68104 0,0 0.24697,0.17961 0.5089,0.17961 0,0 0.42659,0 0.7671,-0.43781 0,0 0.42659,-0.53884 0.42659,-1.46311 0,0 0,-0.64735 -0.1871,-1.09639 0,0 -0.18709,-0.45277 -0.47523,-0.65483 0,0 -0.29187,-0.20581 -0.56129,-0.20581 0,0 -0.53136,0 -0.8831,0.6249 0,0 -0.29562,0.53136 -0.29562,1.27601 z m 0.5351,-0.0711 c 0,0 0,-0.7671 0.1871,-1.24981 0,0 0.1609,-0.41162 0.46774,-0.41162 0,0 0.14969,0 0.30685,0.13471 0,0 0.15715,0.13472 0.23948,0.44529 0,0 0.12723,0.4715 0.12723,1.33214 0,0 0,0.63239 -0.13471,1.05897 0,0 -0.0936,0.31433 -0.25071,0.4453 0,0 -0.11226,0.0935 -0.27317,0.0935 0,0 -0.18335,0 -0.32929,-0.17214 0,0 -0.19832,-0.22826 -0.26942,-0.71471 0,0 -0.0711,-0.4902 -0.0711,-0.96168 z m 2.76905,-1.23484 c 0,0 0.12722,0 0.21329,-0.0898 0,0 0.0898,-0.0898 0.0898,-0.21329 0,0 0,-0.12723 -0.0898,-0.21704 0,0 -0.0861,-0.0861 -0.21329,-0.0861 0,0 -0.13097,0 -0.21704,0.0861 0,0 -0.0898,0.0898 -0.0898,0.21704 0,0 0,0.12722 0.0898,0.21703 0,0 0.0861,0.0861 0.21704,0.0861 z m 3.27421,0.18336 -0.2582,-0.71472 -2.19278,0 0,0.10103 c 0,0 0.96542,0.8831 1.35833,1.44439 0,0 0.39664,0.5613 0.39664,1.02155 0,0 0,0.35175 -0.21703,0.58001 0,0 -0.21703,0.22826 -0.52013,0.22826 0,0 -0.26943,0 -0.4902,-0.16091 0,0 -0.21703,-0.1609 -0.32181,-0.47148 l -0.10102,0 c 0,0 0.0711,0.5089 0.35174,0.77833 0,0 0.28438,0.27315 0.70722,0.27315 0,0 0.45652,0 0.75588,-0.29186 0,0 0.3031,-0.29188 0.3031,-0.68478 0,0 0,-0.28065 -0.13097,-0.56504 0,0 -0.20206,-0.44529 -0.65858,-0.93548 0,0 -0.68104,-0.7484 -0.85317,-0.90181 l 0.96917,0 c 0,0 0.29935,0 0.41909,0.0187 0,0 0.11974,0.0224 0.21329,0.0898 0,0 0.0973,0.0674 0.16839,0.19085 l 0.10104,0 z m 2.67175,3.00478 -0.21703,-0.46775 -1.11885,0 -0.24322,-0.49767 c 0,0 0.72219,-0.11226 1.15252,-0.54259 0,0 0.35922,-0.37045 0.35922,-0.87936 0,0 0,-0.29187 -0.116,-0.53884 0,0 -0.116,-0.25071 -0.29936,-0.42658 0,0 -0.17961,-0.17213 -0.40038,-0.28064 0,0 -0.31807,-0.14968 -0.6511,-0.14968 0,0 -0.33304,0 -0.48271,0.11226 0,0 -0.15343,0.116 -0.15343,0.25071 0,0 0,0.0748 0.0636,0.13471 0,0 0.0636,0.0561 0.15717,0.0561 0,0 0.0711,0 0.12348,-0.0187 0,0 0.0524,-0.0224 0.18336,-0.11601 0,0 0.20955,-0.13845 0.41909,-0.13845 0,0 0.32181,0 0.5613,0.24323 0,0 0.23949,0.24323 0.23949,0.59123 0,0 0,0.33303 -0.21704,0.6249 0,0 -0.21703,0.29562 -0.59497,0.45278 0,0 -0.29935,0.12349 -0.812,0.14594 l 0.71096,1.44439 1.33588,0 z" /><path
       inkscape:connector-curvature="0"
       id="path346"
       style="fill:none;stroke:#000000;stroke-width:0.25;stroke-linecap:square;stroke-linejoin:miter;stroke-miterlimit:10;stroke-dasharray:none;stroke-opacity:1"
       d="m 311.72584,583.9558 -1.69137,0" /><path
       inkscape:connector-curvature="0"
       id="path348"
       style="fill:#000000;fill-opacity:1;fill-rule:nonzero;stroke:none;stroke-width:0.25"
       d="m 299.39611,583.84354 c 0,0 0,0.63613 0.1871,1.09639 0,0 0.19084,0.45652 0.51265,0.68103 0,0 0.24697,0.17962 0.5089,0.17962 0,0 0.42659,0 0.7671,-0.43781 0,0 0.42659,-0.53884 0.42659,-1.4631 0,0 0,-0.64736 -0.1871,-1.09639 0,0 -0.18709,-0.45278 -0.47523,-0.65484 0,0 -0.29187,-0.20581 -0.56129,-0.20581 0,0 -0.53136,0 -0.8831,0.62491 0,0 -0.29562,0.53135 -0.29562,1.276 z m 0.5351,-0.0711 c 0,0 0,-0.7671 0.1871,-1.24981 0,0 0.1609,-0.41162 0.46774,-0.41162 0,0 0.14969,0 0.30685,0.13472 0,0 0.15715,0.13471 0.23948,0.44529 0,0 0.12723,0.47148 0.12723,1.33214 0,0 0,0.63238 -0.13471,1.05896 0,0 -0.0936,0.31433 -0.25071,0.44529 0,0 -0.11226,0.0936 -0.27317,0.0936 0,0 -0.18335,0 -0.32929,-0.17212 0,0 -0.19832,-0.22826 -0.26942,-0.71472 0,0 -0.0711,-0.49019 -0.0711,-0.96168 z m 2.76905,-1.23484 c 0,0 0.12722,0 0.21329,-0.0898 0,0 0.0898,-0.0898 0.0898,-0.21329 0,0 0,-0.12723 -0.0898,-0.21703 0,0 -0.0861,-0.0861 -0.21329,-0.0861 0,0 -0.13097,0 -0.21704,0.0861 0,0 -0.0898,0.0898 -0.0898,0.21703 0,0 0,0.12723 0.0898,0.21704 0,0 0.0861,0.0861 0.21704,0.0861 z m 0.98787,2.48091 c 0,0 0.15717,0.3742 0.40039,0.57626 0,0 0.23949,0.20581 0.60245,0.20581 0,0 0.4453,0 0.68478,-0.29187 0,0 0.18336,-0.21704 0.18336,-0.46026 0,0 0,-0.41162 -0.50891,-0.84195 0,0 0.33677,-0.1347 0.51265,-0.38541 0,0 0.17588,-0.24697 0.17588,-0.58748 0,0 0,-0.47898 -0.3031,-0.83072 0,0 -0.40414,-0.46026 -1.16001,-0.46026 0,0 -0.37794,0 -0.51265,0.0936 0,0 -0.1347,0.0935 -0.1347,0.19832 0,0 0,0.0823 0.0636,0.13845 0,0 0.0636,0.0598 0.15342,0.0598 0,0 0.0711,0 0.13845,-0.0224 0,0 0.0487,-0.0113 0.21329,-0.0973 0,0 0.16839,-0.0861 0.22452,-0.10104 0,0 0.10852,-0.03 0.21703,-0.03 0,0 0.28065,0 0.4902,0.21704 0,0 0.20581,0.21703 0.20581,0.5089 0,0 0,0.21329 -0.0935,0.4191 0,0 -0.0748,0.15715 -0.15717,0.23574 0,0 -0.116,0.10851 -0.32555,0.19832 0,0 -0.2058,0.0861 -0.41535,0.0861 l -0.0898,0 0,0.0898 c 0,0 0.21703,0.0224 0.43406,0.14968 0,0 0.21704,0.13097 0.31432,0.31059 0,0 0.10103,0.18335 0.10103,0.39664 0,0 0,0.28065 -0.17586,0.45651 0,0 -0.17588,0.17588 -0.43781,0.17588 0,0 -0.42659,0 -0.71472,-0.45652 l -0.0861,0.0487 z m 2.72415,-1.17497 c 0,0 0,0.63613 0.18709,1.09639 0,0 0.19084,0.45652 0.51265,0.68103 0,0 0.24696,0.17962 0.50891,0.17962 0,0 0.42657,0 0.76709,-0.43781 0,0 0.42658,-0.53884 0.42658,-1.4631 0,0 0,-0.64736 -0.18709,-1.09639 0,0 -0.1871,-0.45278 -0.47523,-0.65484 0,0 -0.29187,-0.20581 -0.5613,-0.20581 0,0 -0.53135,0 -0.8831,0.62491 0,0 -0.2956,0.53135 -0.2956,1.276 z m 0.53509,-0.0711 c 0,0 0,-0.7671 0.1871,-1.24981 0,0 0.16091,-0.41162 0.46774,-0.41162 0,0 0.14968,0 0.30684,0.13472 0,0 0.15717,0.13471 0.23949,0.44529 0,0 0.12722,0.47148 0.12722,1.33214 0,0 0,0.63238 -0.13471,1.05896 0,0 -0.0935,0.31433 -0.25071,0.44529 0,0 -0.11225,0.0936 -0.27316,0.0936 0,0 -0.18335,0 -0.32929,-0.17213 0,0 -0.19832,-0.22826 -0.26942,-0.71471 0,0 -0.0711,-0.49019 -0.0711,-0.96168 z" /><path
       inkscape:connector-curvature="0"
       id="path350"
       style="fill:none;stroke:#000000;stroke-width:0.25;stroke-linecap:square;stroke-linejoin:miter;stroke-miterlimit:10;stroke-dasharray:none;stroke-opacity:1"
       d="m 311.72584,600.37922 -1.69137,0" /><path
       inkscape:connector-curvature="0"
       id="path352"
       style="fill:#000000;fill-opacity:1;fill-rule:nonzero;stroke:none;stroke-width:0.25"
       d="m 299.39611,600.30813 c 0,0 0,0.63612 0.1871,1.09638 0,0 0.19084,0.45653 0.51265,0.68104 0,0 0.24697,0.17961 0.5089,0.17961 0,0 0.42659,0 0.7671,-0.43781 0,0 0.42659,-0.53884 0.42659,-1.4631 0,0 0,-0.64736 -0.1871,-1.09639 0,0 -0.18709,-0.45278 -0.47523,-0.65484 0,0 -0.29187,-0.20581 -0.56129,-0.20581 0,0 -0.53136,0 -0.8831,0.62491 0,0 -0.29562,0.53136 -0.29562,1.27601 z m 0.5351,-0.0711 c 0,0 0,-0.7671 0.1871,-1.24981 0,0 0.1609,-0.41162 0.46774,-0.41162 0,0 0.14969,0 0.30685,0.13471 0,0 0.15715,0.13471 0.23948,0.44529 0,0 0.12723,0.47148 0.12723,1.33213 0,0 0,0.6324 -0.13471,1.05898 0,0 -0.0936,0.31432 -0.25071,0.44529 0,0 -0.11226,0.0935 -0.27317,0.0935 0,0 -0.18335,0 -0.32929,-0.17212 0,0 -0.19832,-0.22826 -0.26942,-0.71472 0,0 -0.0711,-0.49019 -0.0711,-0.96167 z m 2.76905,-1.23485 c 0,0 0.12722,0 0.21329,-0.0898 0,0 0.0898,-0.0898 0.0898,-0.21329 0,0 0,-0.12722 -0.0898,-0.21703 0,0 -0.0861,-0.0861 -0.21329,-0.0861 0,0 -0.13097,0 -0.21704,0.0861 0,0 -0.0898,0.0898 -0.0898,0.21703 0,0 0,0.12723 0.0898,0.21704 0,0 0.0861,0.0861 0.21704,0.0861 z m 0.98787,2.48091 c 0,0 0.15717,0.37419 0.40039,0.57626 0,0 0.23949,0.20581 0.60245,0.20581 0,0 0.4453,0 0.68478,-0.29187 0,0 0.18336,-0.21703 0.18336,-0.46026 0,0 0,-0.41161 -0.50891,-0.84194 0,0 0.33677,-0.13471 0.51265,-0.38542 0,0 0.17588,-0.24697 0.17588,-0.58749 0,0 0,-0.47896 -0.3031,-0.83071 0,0 -0.40414,-0.46026 -1.16001,-0.46026 0,0 -0.37794,0 -0.51265,0.0935 0,0 -0.1347,0.0936 -0.1347,0.19832 0,0 0,0.0823 0.0636,0.13845 0,0 0.0636,0.0599 0.15342,0.0599 0,0 0.0711,0 0.13845,-0.0224 0,0 0.0487,-0.0113 0.21329,-0.0973 0,0 0.16839,-0.0861 0.22452,-0.10104 0,0 0.10852,-0.03 0.21703,-0.03 0,0 0.28065,0 0.4902,0.21703 0,0 0.20581,0.21704 0.20581,0.5089 0,0 0,0.2133 -0.0935,0.4191 0,0 -0.0748,0.15717 -0.15717,0.23575 0,0 -0.116,0.10851 -0.32555,0.19832 0,0 -0.2058,0.0861 -0.41535,0.0861 l -0.0898,0 0,0.0898 c 0,0 0.21703,0.0224 0.43406,0.14967 0,0 0.21704,0.13097 0.31432,0.31059 0,0 0.10103,0.18335 0.10103,0.39664 0,0 0,0.28065 -0.17586,0.45652 0,0 -0.17588,0.17587 -0.43781,0.17587 0,0 -0.42659,0 -0.71472,-0.45652 l -0.0861,0.0487 z m 4.95809,0.70723 -0.21703,-0.46774 -1.11885,0 -0.24322,-0.49768 c 0,0 0.72219,-0.11226 1.15252,-0.54258 0,0 0.35922,-0.37046 0.35922,-0.87936 0,0 0,-0.29188 -0.116,-0.53884 0,0 -0.116,-0.25071 -0.29936,-0.42659 0,0 -0.17961,-0.17212 -0.40038,-0.28064 0,0 -0.31807,-0.14968 -0.6511,-0.14968 0,0 -0.33304,0 -0.48271,0.11226 0,0 -0.15343,0.116 -0.15343,0.25071 0,0 0,0.0748 0.0636,0.13471 0,0 0.0636,0.0561 0.15717,0.0561 0,0 0.0711,0 0.12348,-0.0187 0,0 0.0524,-0.0224 0.18336,-0.116 0,0 0.20955,-0.13845 0.41909,-0.13845 0,0 0.32181,0 0.5613,0.24322 0,0 0.23949,0.24323 0.23949,0.59124 0,0 0,0.33303 -0.21704,0.6249 0,0 -0.21703,0.29561 -0.59497,0.45277 0,0 -0.29935,0.12349 -0.812,0.14595 l 0.71096,1.44439 1.33588,0 z" /><path
       inkscape:connector-curvature="0"
       id="path354"
       style="fill:none;stroke:#000000;stroke-width:0.25;stroke-linecap:square;stroke-linejoin:miter;stroke-miterlimit:10;stroke-dasharray:none;stroke-opacity:1"
       d="m 311.72584,488.70445 -0.84568,0" /><path
       inkscape:connector-curvature="0"
       id="path356"
       style="fill:none;stroke:#000000;stroke-width:0.25;stroke-linecap:square;stroke-linejoin:miter;stroke-miterlimit:10;stroke-dasharray:none;stroke-opacity:1"
       d="m 311.72584,491.98988 -0.84568,0" /><path
       inkscape:connector-curvature="0"
       id="path358"
       style="fill:none;stroke:#000000;stroke-width:0.25;stroke-linecap:square;stroke-linejoin:miter;stroke-miterlimit:10;stroke-dasharray:none;stroke-opacity:1"
       d="m 311.72584,495.27531 -0.84568,0" /><path
       inkscape:connector-curvature="0"
       id="path360"
       style="fill:none;stroke:#000000;stroke-width:0.25;stroke-linecap:square;stroke-linejoin:miter;stroke-miterlimit:10;stroke-dasharray:none;stroke-opacity:1"
       d="m 311.72584,498.557 -0.84568,0" /><path
       inkscape:connector-curvature="0"
       id="path362"
       style="fill:none;stroke:#000000;stroke-width:0.25;stroke-linecap:square;stroke-linejoin:miter;stroke-miterlimit:10;stroke-dasharray:none;stroke-opacity:1"
       d="m 311.72584,505.12787 -0.84568,0" /><path
       inkscape:connector-curvature="0"
       id="path364"
       style="fill:none;stroke:#000000;stroke-width:0.25;stroke-linecap:square;stroke-linejoin:miter;stroke-miterlimit:10;stroke-dasharray:none;stroke-opacity:1"
       d="m 311.72584,508.4133 -0.84568,0" /><path
       inkscape:connector-curvature="0"
       id="path366"
       style="fill:none;stroke:#000000;stroke-width:0.25;stroke-linecap:square;stroke-linejoin:miter;stroke-miterlimit:10;stroke-dasharray:none;stroke-opacity:1"
       d="m 311.72584,511.69499 -0.84568,0" /><path
       inkscape:connector-curvature="0"
       id="path368"
       style="fill:none;stroke:#000000;stroke-width:0.25;stroke-linecap:square;stroke-linejoin:miter;stroke-miterlimit:10;stroke-dasharray:none;stroke-opacity:1"
       d="m 311.72584,514.98042 -0.84568,0" /><path
       inkscape:connector-curvature="0"
       id="path370"
       style="fill:none;stroke:#000000;stroke-width:0.25;stroke-linecap:square;stroke-linejoin:miter;stroke-miterlimit:10;stroke-dasharray:none;stroke-opacity:1"
       d="m 311.72584,521.55129 -0.84568,0" /><path
       inkscape:connector-curvature="0"
       id="path372"
       style="fill:none;stroke:#000000;stroke-width:0.25;stroke-linecap:square;stroke-linejoin:miter;stroke-miterlimit:10;stroke-dasharray:none;stroke-opacity:1"
       d="m 311.72584,524.83298 -0.84568,0" /><path
       inkscape:connector-curvature="0"
       id="path374"
       style="fill:none;stroke:#000000;stroke-width:0.25;stroke-linecap:square;stroke-linejoin:miter;stroke-miterlimit:10;stroke-dasharray:none;stroke-opacity:1"
       d="m 311.72584,528.11841 -0.84568,0" /><path
       inkscape:connector-curvature="0"
       id="path376"
       style="fill:none;stroke:#000000;stroke-width:0.25;stroke-linecap:square;stroke-linejoin:miter;stroke-miterlimit:10;stroke-dasharray:none;stroke-opacity:1"
       d="m 311.72584,531.40384 -0.84568,0" /><path
       inkscape:connector-curvature="0"
       id="path378"
       style="fill:none;stroke:#000000;stroke-width:0.25;stroke-linecap:square;stroke-linejoin:miter;stroke-miterlimit:10;stroke-dasharray:none;stroke-opacity:1"
       d="m 311.72584,537.97097 -0.84568,0" /><path
       inkscape:connector-curvature="0"
       id="path380"
       style="fill:none;stroke:#000000;stroke-width:0.25;stroke-linecap:square;stroke-linejoin:miter;stroke-miterlimit:10;stroke-dasharray:none;stroke-opacity:1"
       d="m 311.72584,541.2564 -0.84568,0" /><path
       inkscape:connector-curvature="0"
       id="path382"
       style="fill:none;stroke:#000000;stroke-width:0.25;stroke-linecap:square;stroke-linejoin:miter;stroke-miterlimit:10;stroke-dasharray:none;stroke-opacity:1"
       d="m 311.72584,544.54183 -0.84568,0" /><path
       inkscape:connector-curvature="0"
       id="path384"
       style="fill:none;stroke:#000000;stroke-width:0.25;stroke-linecap:square;stroke-linejoin:miter;stroke-miterlimit:10;stroke-dasharray:none;stroke-opacity:1"
       d="m 311.72584,547.82726 -0.84568,0" /><path
       inkscape:connector-curvature="0"
       id="path386"
       style="fill:none;stroke:#000000;stroke-width:0.25;stroke-linecap:square;stroke-linejoin:miter;stroke-miterlimit:10;stroke-dasharray:none;stroke-opacity:1"
       d="m 311.72584,554.39439 -0.84568,0" /><path
       inkscape:connector-curvature="0"
       id="path388"
       style="fill:none;stroke:#000000;stroke-width:0.25;stroke-linecap:square;stroke-linejoin:miter;stroke-miterlimit:10;stroke-dasharray:none;stroke-opacity:1"
       d="m 311.72584,557.67982 -0.84568,0" /><path
       inkscape:connector-curvature="0"
       id="path390"
       style="fill:none;stroke:#000000;stroke-width:0.25;stroke-linecap:square;stroke-linejoin:miter;stroke-miterlimit:10;stroke-dasharray:none;stroke-opacity:1"
       d="m 311.72584,560.96525 -0.84568,0" /><path
       inkscape:connector-curvature="0"
       id="path392"
       style="fill:none;stroke:#000000;stroke-width:0.25;stroke-linecap:square;stroke-linejoin:miter;stroke-miterlimit:10;stroke-dasharray:none;stroke-opacity:1"
       d="m 311.72584,564.25068 -0.84568,0" /><path
       inkscape:connector-curvature="0"
       id="path394"
       style="fill:none;stroke:#000000;stroke-width:0.25;stroke-linecap:square;stroke-linejoin:miter;stroke-miterlimit:10;stroke-dasharray:none;stroke-opacity:1"
       d="m 311.72584,570.81781 -0.84568,0" /><path
       inkscape:connector-curvature="0"
       id="path396"
       style="fill:none;stroke:#000000;stroke-width:0.25;stroke-linecap:square;stroke-linejoin:miter;stroke-miterlimit:10;stroke-dasharray:none;stroke-opacity:1"
       d="m 311.72584,574.10324 -0.84568,0" /><path
       inkscape:connector-curvature="0"
       id="path398"
       style="fill:none;stroke:#000000;stroke-width:0.25;stroke-linecap:square;stroke-linejoin:miter;stroke-miterlimit:10;stroke-dasharray:none;stroke-opacity:1"
       d="m 311.72584,577.38867 -0.84568,0" /><path
       inkscape:connector-curvature="0"
       id="path400"
       style="fill:none;stroke:#000000;stroke-width:0.25;stroke-linecap:square;stroke-linejoin:miter;stroke-miterlimit:10;stroke-dasharray:none;stroke-opacity:1"
       d="m 311.72584,580.67036 -0.84568,0" /><path
       inkscape:connector-curvature="0"
       id="path402"
       style="fill:none;stroke:#000000;stroke-width:0.25;stroke-linecap:square;stroke-linejoin:miter;stroke-miterlimit:10;stroke-dasharray:none;stroke-opacity:1"
       d="m 311.72584,587.24123 -0.84568,0" /><path
       inkscape:connector-curvature="0"
       id="path404"
       style="fill:none;stroke:#000000;stroke-width:0.25;stroke-linecap:square;stroke-linejoin:miter;stroke-miterlimit:10;stroke-dasharray:none;stroke-opacity:1"
       d="m 311.72584,590.52666 -0.84568,0" /><path
       inkscape:connector-curvature="0"
       id="path406"
       style="fill:none;stroke:#000000;stroke-width:0.25;stroke-linecap:square;stroke-linejoin:miter;stroke-miterlimit:10;stroke-dasharray:none;stroke-opacity:1"
       d="m 311.72584,593.80835 -0.84568,0" /><path
       inkscape:connector-curvature="0"
       id="path408"
       style="fill:none;stroke:#000000;stroke-width:0.25;stroke-linecap:square;stroke-linejoin:miter;stroke-miterlimit:10;stroke-dasharray:none;stroke-opacity:1"
       d="m 311.72584,597.09378 -0.84568,0" /><path
       inkscape:connector-curvature="0"
       id="path410"
       style="fill:none;stroke:#000000;stroke-width:0.25;stroke-linecap:square;stroke-linejoin:miter;stroke-miterlimit:10;stroke-dasharray:none;stroke-opacity:1"
       d="m 311.72584,603.66465 -0.84568,0" /><path
       inkscape:connector-curvature="0"
       id="path412"
       style="fill:none;stroke:#000000;stroke-width:0.25;stroke-linecap:square;stroke-linejoin:miter;stroke-miterlimit:10;stroke-dasharray:none;stroke-opacity:1"
       d="m 311.72584,606.94634 -0.84568,0" /><path
       inkscape:connector-curvature="0"
       id="path414"
       style="fill:none;stroke:#000000;stroke-width:0.25;stroke-linecap:square;stroke-linejoin:miter;stroke-miterlimit:10;stroke-dasharray:none;stroke-opacity:1"
       d="m 311.72584,610.23177 -0.84568,0" /><path
       inkscape:connector-curvature="0"
       id="path416"
       style="fill:none;stroke:#000000;stroke-width:0.25;stroke-linecap:square;stroke-linejoin:miter;stroke-miterlimit:10;stroke-dasharray:none;stroke-opacity:1"
       d="m 311.72584,613.5172 -0.84568,0" /><text
       xml:space="preserve"
       style="color:#000000;font-style:normal;font-variant:normal;font-weight:normal;font-stretch:normal;font-size:10px;line-height:125%;font-family:'Times New Roman';-inkscape-font-specification:'Times New Roman, ';text-indent:0;text-align:start;text-decoration:none;text-decoration-line:none;text-decoration-style:solid;text-decoration-color:#000000;letter-spacing:0px;word-spacing:0px;text-transform:none;direction:ltr;block-progression:tb;writing-mode:lr-tb;baseline-shift:baseline;text-anchor:start;white-space:normal;clip-rule:nonzero;display:inline;overflow:visible;visibility:visible;opacity:1;isolation:auto;mix-blend-mode:normal;color-interpolation:sRGB;color-interpolation-filters:linearRGB;solid-color:#000000;solid-opacity:1;fill:#000000;fill-opacity:1;fill-rule:nonzero;stroke:none;stroke-width:0.5;stroke-linecap:butt;stroke-linejoin:miter;stroke-miterlimit:4;stroke-dasharray:none;stroke-dashoffset:0;stroke-opacity:1;color-rendering:auto;image-rendering:auto;shape-rendering:auto;text-rendering:auto;enable-background:accumulate"
       x="405.53821"
       y="-482.51889"
       id="text5756"
       sodipodi:linespacing="125%"
       transform="scale(1,-1)"><tspan
         sodipodi:role="line"
         id="tspan5758"
         x="405.53821"
         y="-482.51889">$\dfrac{x-\overline{x}}{\sigma}$</tspan></text>
<text
       transform="scale(1,-1)"
       sodipodi:linespacing="125%"
       id="text5760"
       y="-620.638"
       x="304.71002"
       style="color:#000000;font-style:normal;font-variant:normal;font-weight:normal;font-stretch:normal;font-size:10px;line-height:125%;font-family:'Times New Roman';-inkscape-font-specification:'Times New Roman, ';text-indent:0;text-align:start;text-decoration:none;text-decoration-line:none;text-decoration-style:solid;text-decoration-color:#000000;letter-spacing:0px;word-spacing:0px;text-transform:none;direction:ltr;block-progression:tb;writing-mode:lr-tb;baseline-shift:baseline;text-anchor:start;white-space:normal;clip-rule:nonzero;display:inline;overflow:visible;visibility:visible;opacity:1;isolation:auto;mix-blend-mode:normal;color-interpolation:sRGB;color-interpolation-filters:linearRGB;solid-color:#000000;solid-opacity:1;fill:#000000;fill-opacity:1;fill-rule:nonzero;stroke:none;stroke-width:0.5;stroke-linecap:butt;stroke-linejoin:miter;stroke-miterlimit:4;stroke-dasharray:none;stroke-dashoffset:0;stroke-opacity:1;color-rendering:auto;image-rendering:auto;shape-rendering:auto;text-rendering:auto;enable-background:accumulate"
       xml:space="preserve"><tspan
         y="-620.638"
         x="304.71002"
         id="tspan5762"
         sodipodi:role="line">$\sigma \cdot w_{\mathcal{N}}(x)$</tspan></text>
</g></svg>