<?xml version="1.0" encoding="UTF-8" standalone="no"?>
<!-- Created with Inkscape (http://www.inkscape.org/) -->

<svg
   xmlns:dc="http://purl.org/dc/elements/1.1/"
   xmlns:cc="http://creativecommons.org/ns#"
   xmlns:rdf="http://www.w3.org/1999/02/22-rdf-syntax-ns#"
   xmlns:svg="http://www.w3.org/2000/svg"
   xmlns="http://www.w3.org/2000/svg"
   xmlns:sodipodi="http://sodipodi.sourceforge.net/DTD/sodipodi-0.dtd"
   xmlns:inkscape="http://www.inkscape.org/namespaces/inkscape"
   width="9cm"
   height="5cm"
   viewBox="0 0 90 49.999999"
   version="1.1"
   id="svg4952"
   inkscape:version="0.92.3 (2405546, 2018-03-11)"
   sodipodi:docname="14.svg">
  <sodipodi:namedview
     id="base"
     pagecolor="#ffffff"
     bordercolor="#666666"
     borderopacity="1.0"
     inkscape:pageopacity="0.0"
     inkscape:pageshadow="2"
     inkscape:zoom="3.0883392"
     inkscape:cx="133.50585"
     inkscape:cy="102.65187"
     inkscape:document-units="mm"
     inkscape:current-layer="layer2"
     showgrid="true"
     units="cm"
     inkscape:window-width="1920"
     inkscape:window-height="1003"
     inkscape:window-x="-9"
     inkscape:window-y="-9"
     inkscape:window-maximized="1"
     inkscape:snap-text-baseline="true">
    <inkscape:grid
       spacingy="1"
       spacingx="1"
       units="mm"
       id="grid5497"
       type="xygrid" />
  </sodipodi:namedview>
  <defs
     id="defs4946" />
  <metadata
     id="metadata4949">
    <rdf:RDF>
      <cc:Work
         rdf:about="">
        <dc:format>image/svg+xml</dc:format>
        <dc:type
           rdf:resource="http://purl.org/dc/dcmitype/StillImage" />
        <dc:title></dc:title>
      </cc:Work>
    </rdf:RDF>
  </metadata>
  <g
     transform="translate(0,-247.00002)"
     id="layer1"
     inkscape:groupmode="layer"
     inkscape:label="Layer 1">
    <path
       style="fill:none;stroke:#000000;stroke-width:0.40000001;stroke-linecap:butt;stroke-linejoin:miter;stroke-miterlimit:4;stroke-dasharray:0.4, 0.4;stroke-dashoffset:0;stroke-opacity:1"
       d="m 65,247.00002 v 40"
       id="path4522"
       inkscape:connector-curvature="0" />
    <path
       style="fill:none;stroke:#000000;stroke-width:0.40000001;stroke-linecap:butt;stroke-linejoin:miter;stroke-miterlimit:4;stroke-dasharray:0.4, 0.4;stroke-dashoffset:0;stroke-opacity:1"
       d="m 40,247.00002 v 40"
       id="path4522-9"
       inkscape:connector-curvature="0" />
    <path
       style="fill:none;stroke:#000000;stroke-width:0.40000001;stroke-linecap:butt;stroke-linejoin:miter;stroke-miterlimit:4;stroke-dasharray:0.4, 0.4;stroke-dashoffset:0;stroke-opacity:1"
       d="M 15,257.00002 H 90"
       id="path4522-5"
       inkscape:connector-curvature="0" />
    <path
       style="fill:none;stroke:#000000;stroke-width:0.40000001;stroke-linecap:butt;stroke-linejoin:miter;stroke-miterlimit:4;stroke-dasharray:0.4, 0.4;stroke-dashoffset:0;stroke-opacity:1"
       d="M 14.999999,267.00002 H 90"
       id="path4522-5-4"
       inkscape:connector-curvature="0" />
    <path
       style="fill:none;stroke:#000000;stroke-width:0.40000001;stroke-linecap:butt;stroke-linejoin:miter;stroke-miterlimit:4;stroke-dasharray:0.4, 0.4;stroke-dashoffset:0;stroke-opacity:1"
       d="M 15,277.00002 H 90.000001"
       id="path4522-5-5"
       inkscape:connector-curvature="0" />
    <path
       style="fill:none;stroke:#000000;stroke-width:0.40000001;stroke-linecap:round;stroke-linejoin:miter;stroke-miterlimit:4;stroke-dasharray:none;stroke-opacity:1"
       d="m 90,247.00002 v 40"
       id="path4528"
       inkscape:connector-curvature="0" />
    <path
       style="fill:none;stroke:#000000;stroke-width:0.40000001;stroke-linecap:round;stroke-linejoin:miter;stroke-miterlimit:4;stroke-dasharray:none;stroke-opacity:1"
       d="m 15,247.00002 v 40"
       id="path4528-7"
       inkscape:connector-curvature="0" />
    <path
       style="fill:none;stroke:#000000;stroke-width:0.40000001;stroke-linecap:round;stroke-linejoin:miter;stroke-miterlimit:4;stroke-dasharray:none;stroke-opacity:1"
       d="M 15,247.00002 H 90"
       id="path4528-9"
       inkscape:connector-curvature="0" />
    <path
       style="fill:none;stroke:#000000;stroke-width:0.40000001;stroke-linecap:round;stroke-linejoin:miter;stroke-miterlimit:4;stroke-dasharray:none;stroke-opacity:1"
       d="M 15,287.00002 H 90.000001"
       id="path4528-9-8"
       inkscape:connector-curvature="0" />
    <path
       id="path4076"
       title="(sin((1+0.15)*x)-exp(-0.05*x)*sin(x))*0.65"
       d=" M 15.0 267.00002 C 15.2525252525 266.381025411 15.5050505051 265.595478397 15.7575757576 265.542396585 C 16.0101010101 265.489314773 16.2626262626 266.232545099 16.5151515152 267.579957181 C 16.7676767677 268.927369262 17.0202020202 270.810606374 17.2727272727 272.025255842 C 17.5252525253 273.239905311 17.7777777778 273.664339438 18.0303030303 272.642186495 C 18.2828282828 271.620033553 18.5353535354 269.129889162 18.7878787879 266.173527777 C 19.0404040404 263.217166391 19.2929292929 259.916543225 19.5454545455 258.055258709 C 19.797979798 256.193974194 20.0505050505 255.907526324 20.303030303 257.697412488 C 20.5555555556 259.487298653 20.8080808081 263.340183146 21.0606060606 267.596649524 C 21.3131313131 271.853115902 21.5656565657 276.346118489 21.8181818182 278.801741133 C 22.0707070707 281.257363776 22.3232323232 281.528619597 22.5757575758 279.217581525 C 22.8282828283 276.906543452 23.0808080808 272.055120626 23.3333333333 266.830755756 C 23.5858585859 261.606390886 23.8383838384 256.211641089 24.0909090909 253.292240159 C 24.3434343434 250.372839228 24.595959596 250.082796018 24.8484848485 252.733807447 C 25.101010101 255.384818877 25.3535353535 260.911241651 25.6060606061 266.775522568 C 25.8585858586 272.639803484 26.1111111111 278.613747629 26.3636363636 281.814284916 C 26.6161616162 285.014822203 26.8686868687 285.28679358 27.1212121212 282.414984607 C 27.3737373737 279.543175635 27.6262626263 273.613426648 27.8787878788 267.412765362 C 28.1313131313 261.212104077 28.3838383838 254.984795216 28.6363636364 251.712698584 C 28.8888888889 248.440601952 29.1414141414 248.273423856 29.3939393939 251.29989481 C 29.6464646465 254.326365763 29.898989899 260.442861341 30.1515151515 266.71387834 C 30.404040404 272.984895339 30.6565656566 279.158939482 30.9090909091 282.288320381 C 31.1616161616 285.417701279 31.4141414141 285.364886334 31.6666666667 282.209121329 C 31.9191919192 279.053356325 32.1717171717 272.91448721 32.4242424242 266.794938989 C 32.6767676768 260.675390768 32.9292929293 254.826032779 33.1818181818 252.040187616 C 33.4343434343 249.254342453 33.6868686869 249.651046787 33.9393939394 252.937924404 C 34.1919191919 256.224802022 34.4444444444 262.266815127 34.696969697 268.058730191 C 34.9494949495 273.850645256 35.202020202 279.148967673 35.4545454545 281.41743743 C 35.7070707071 283.685907187 35.9595959596 282.829506042 36.2121212121 279.395765282 C 36.4646464646 275.962024523 36.7171717172 270.100359531 36.9696969697 264.769036544 C 37.2222222222 259.437713558 37.4747474747 254.867217947 37.7272727273 253.254109131 C 37.9797979798 251.641000315 38.2323232323 253.051835163 38.4848484848 256.65040721 C 38.7373737374 260.248979258 38.9898989899 265.872378293 39.2424242424 270.648309297 C 39.4949494949 275.424240301 39.7474747475 279.139811842 40.0 280.00002 C 40.2525252525 280.860228158 40.505050505 278.830176494 40.7575757576 275.055974219 C 41.0101010101 271.281771944 41.2626262626 265.938645264 41.5151515152 261.781175421 C 41.7676767677 257.623705577 42.0202020202 254.843544046 42.2727272727 254.792388626 C 42.5252525253 254.741233206 42.7777777778 257.420426957 43.0303030303 261.36722485 C 43.2828282828 265.314022743 43.5353535354 270.342516173 43.7878787879 273.843392468 C 44.0404040404 277.344268763 44.2929292929 279.149954227 44.5454545455 278.375359249 C 44.797979798 277.600764271 45.0505050505 274.278707849 45.303030303 270.180062049 C 45.5555555556 266.081416249 45.8080808081 261.400597637 46.0606060606 258.575891027 C 46.3131313131 255.751184418 46.5656565657 254.923926958 46.8181818182 256.50550899 C 47.0707070707 258.087091022 47.3232323232 262.011121231 47.5757575758 266.221863057 C 47.8282828283 270.432604883 48.0808080808 274.72986607 48.3333333333 276.871946424 C 48.5858585859 279.014026777 48.8383838384 278.887418541 49.0909090909 276.547794854 C 49.3434343434 274.208171167 49.595959596 269.753837569 49.8484848485 265.488834875 C 50.101010101 261.223832182 50.3535353535 257.350881633 50.6060606061 255.888961879 C 50.8585858586 254.427042125 51.1111111111 255.460716185 51.3636363636 258.485140413 C 51.6161616162 261.509564641 51.8686868687 266.397089374 52.1212121212 270.643085371 C 52.3737373737 274.889081368 52.6262626263 278.29196772 52.8787878788 279.08224864 C 53.1313131313 279.87252956 53.3838383838 277.995284918 53.6363636364 274.377651359 C 53.8888888889 270.760017801 54.1414141414 265.555674523 54.3939393939 261.413526227 C 54.6464646465 257.271377931 54.898989899 254.38789993 55.1515151515 254.25628473 C 55.404040404 254.124669529 55.6565656566 256.769880373 55.9090909091 260.876382215 C 56.1616161616 264.982884057 56.4141414141 270.37486025 56.6666666667 274.321304618 C 56.9191919192 278.267748987 57.1717171717 280.581405179 57.4242424242 280.071250266 C 57.6767676768 279.561095354 57.9292929293 276.232062648 58.1818181818 271.748792431 C 58.4343434343 267.265522213 58.6868686869 261.821657215 58.9393939394 258.1649877 C 59.1919191919 254.508318185 59.4444444444 252.812776425 59.696969697 253.943592071 C 59.9494949495 255.074407717 60.202020202 258.997192839 60.4545454545 263.741616481 C 60.7070707071 268.486040123 60.9595959596 273.845219751 61.2121212121 277.12049145 C 61.4646464646 280.395763149 61.7171717172 281.430461675 61.9696969697 279.705134493 C 62.2222222222 277.979807311 62.4747474747 273.55745606 62.7272727273 268.667546376 C 62.9797979798 263.777636691 63.2323232323 258.635557885 63.4848484848 255.826625301 C 63.7373737374 253.017692718 63.9898989899 252.677666529 64.2424242424 254.965236843 C 64.494949495 257.252807157 64.7474747475 262.077618849 65.0 267.00002 C 65.2525252525 271.922421151 65.505050505 276.723283744 65.7575757576 278.991222025 C 66.0101010101 281.259160306 66.2626262626 280.882527216 66.5151515152 278.072181977 C 66.7676767677 275.261836737 67.0202020202 270.133791579 67.2727272727 265.28713747 C 67.5252525253 260.440483361 67.7777777778 256.093380384 68.0303030303 254.427946033 C 68.2828282828 252.762511682 68.5353535354 253.863605156 68.7878787879 257.149181551 C 69.0404040404 260.434757946 69.2929292929 265.765288491 69.5454545455 270.434277036 C 69.797979798 275.10326558 70.0505050505 278.898081935 70.303030303 279.914719768 C 70.5555555556 280.931357601 70.8080808081 279.113807775 71.0606060606 275.409139455 C 71.3131313131 271.704471135 71.5656565657 266.273149608 71.8181818182 261.876251208 C 72.0707070707 257.479352808 72.3232323232 254.319633004 72.5757575758 253.981568666 C 72.8282828283 253.643504327 73.0808080808 256.152859594 73.3333333333 260.21181496 C 73.5858585859 264.270770327 73.8383838384 269.700923606 74.0909090909 273.739705455 C 74.3434343434 277.778487303 74.595959596 280.237080762 74.8484848485 279.8838932 C 75.101010101 279.530705639 75.3535353535 276.370914656 75.6060606061 272.030723393 C 75.8585858586 267.690532129 76.1111111111 262.362896405 76.3636363636 258.759124615 C 76.6161616162 255.155352825 76.8686868687 253.446597907 77.1212121212 254.486665419 C 77.3737373737 255.52673293 77.6262626263 259.279513829 77.8787878788 263.820545307 C 78.1313131313 268.361576785 78.3838383838 273.487064685 78.6363636364 276.588705113 C 78.8888888889 279.690345541 79.1414141414 280.617984913 79.3939393939 278.91187861 C 79.6464646465 277.205772308 79.898989899 272.932254499 80.1515151515 268.276783934 C 80.404040404 263.621313368 80.6565656566 258.794541015 80.9090909091 256.251791238 C 81.1616161616 253.70904146 81.4141414141 253.576570532 81.6666666667 255.912418049 C 81.9191919192 258.248265567 82.1717171717 262.957246243 82.4242424242 267.636453165 C 82.6767676768 272.315660087 82.9292929293 276.751755537 83.1818181818 278.689776881 C 83.4343434343 280.627798224 83.6868686869 279.967804492 83.9393939394 277.052621626 C 84.1919191919 274.137438761 84.4444444444 269.089104537 84.696969697 264.479187098 C 84.9494949495 259.869269658 85.202020202 255.909521519 85.4545454545 254.610619579 C 85.7070707071 253.31171764 85.9595959596 254.745386987 86.2121212121 258.17698834 C 86.4646464646 261.608589693 86.7171717172 266.891800735 86.9696969697 271.339234533 C 87.2222222222 275.786668332 87.4747474747 279.192438957 87.7272727273 279.829746893 C 87.9797979798 280.467054829 88.2323232323 278.293742578 88.4848484848 274.419377418 C 88.7373737374 270.545012257 88.9898989899 265.137129052 89.2424242424 260.943309168 C 89.4949494949 256.749489284 89.7474747475 253.965556185 90.0 254.00002"
       style="opacity:1;fill:none;fill-opacity:1;stroke:#000000;stroke-width:0.6;stroke-linecap:round;stroke-linejoin:round;stroke-miterlimit:4;stroke-dasharray:none;stroke-dashoffset:0;stroke-opacity:1;paint-order:markers fill stroke" />
    <g
       inkscape:groupmode="layer"
       id="layer2"
       inkscape:label="Надписи">
      <text
         xml:space="preserve"
         style="font-style:normal;font-variant:normal;font-weight:normal;font-stretch:normal;font-size:2.82222223px;line-height:1.25;font-family:'Times New Roman';-inkscape-font-specification:'Times New Roman, Normal';font-variant-ligatures:normal;font-variant-caps:normal;font-variant-numeric:normal;font-feature-settings:normal;text-align:start;letter-spacing:0px;word-spacing:0px;writing-mode:lr-tb;text-anchor:start;fill:#000000;fill-opacity:1;stroke:none;stroke-width:0.26458332"
         x="14"
         y="291.00003"
         id="text4906"><tspan
           sodipodi:role="line"
           id="tspan4904"
           x="14"
           y="291.00003"
           style="stroke-width:0.26458332">$0$</tspan></text>
      <text
         xml:space="preserve"
         style="font-style:normal;font-variant:normal;font-weight:normal;font-stretch:normal;font-size:2.82222223px;line-height:1.25;font-family:'Times New Roman';-inkscape-font-specification:'Times New Roman, Normal';font-variant-ligatures:normal;font-variant-caps:normal;font-variant-numeric:normal;font-feature-settings:normal;text-align:start;letter-spacing:0px;word-spacing:0px;writing-mode:lr-tb;text-anchor:start;fill:#000000;fill-opacity:1;stroke:none;stroke-width:0.26458332"
         x="39"
         y="291.00003"
         id="text4914"><tspan
           sodipodi:role="line"
           id="tspan4912"
           x="39"
           y="291.00003"
           style="stroke-width:0.26458332">$5$</tspan></text>
      <text
         xml:space="preserve"
         style="font-style:normal;font-variant:normal;font-weight:normal;font-stretch:normal;font-size:2.82222223px;line-height:1.25;font-family:'Times New Roman';-inkscape-font-specification:'Times New Roman, Normal';font-variant-ligatures:normal;font-variant-caps:normal;font-variant-numeric:normal;font-feature-settings:normal;text-align:start;letter-spacing:0px;word-spacing:0px;writing-mode:lr-tb;text-anchor:start;fill:#000000;fill-opacity:1;stroke:none;stroke-width:0.26458332"
         x="64"
         y="291.00003"
         id="text4918"><tspan
           sodipodi:role="line"
           id="tspan4916"
           x="64"
           y="291.00003"
           style="stroke-width:0.26458332">$10$</tspan></text>
      <text
         xml:space="preserve"
         style="font-style:normal;font-variant:normal;font-weight:normal;font-stretch:normal;font-size:2.82222223px;line-height:1.25;font-family:'Times New Roman';-inkscape-font-specification:'Times New Roman, Normal';font-variant-ligatures:normal;font-variant-caps:normal;font-variant-numeric:normal;font-feature-settings:normal;text-align:start;letter-spacing:0px;word-spacing:0px;writing-mode:lr-tb;text-anchor:start;fill:#000000;fill-opacity:1;stroke:none;stroke-width:0.26458332"
         x="89"
         y="291.00003"
         id="text4922"><tspan
           sodipodi:role="line"
           id="tspan4920"
           x="89"
           y="291.00003"
           style="stroke-width:0.26458332">$15$</tspan></text>
      <text
         xml:space="preserve"
         style="font-style:normal;font-variant:normal;font-weight:normal;font-stretch:normal;font-size:2.82222223px;line-height:1.25;font-family:'Times New Roman';-inkscape-font-specification:'Times New Roman, Normal';font-variant-ligatures:normal;font-variant-caps:normal;font-variant-numeric:normal;font-feature-settings:normal;text-align:start;letter-spacing:0px;word-spacing:0px;writing-mode:lr-tb;text-anchor:start;fill:#000000;fill-opacity:1;stroke:none;stroke-width:0.26458332"
         x="9"
         y="287.00003"
         id="text4926"><tspan
           sodipodi:role="line"
           id="tspan4924"
           x="9"
           y="287.00003"
           style="stroke-width:0.26458332">$-1$</tspan></text>
      <text
         xml:space="preserve"
         style="font-style:normal;font-variant:normal;font-weight:normal;font-stretch:normal;font-size:2.82222223px;line-height:1.25;font-family:'Times New Roman';-inkscape-font-specification:'Times New Roman, Normal';font-variant-ligatures:normal;font-variant-caps:normal;font-variant-numeric:normal;font-feature-settings:normal;text-align:start;letter-spacing:0px;word-spacing:0px;writing-mode:lr-tb;text-anchor:start;fill:#000000;fill-opacity:1;stroke:none;stroke-width:0.26458332"
         x="11"
         y="268.00003"
         id="text4930"><tspan
           sodipodi:role="line"
           id="tspan4928"
           x="11"
           y="268.00003"
           style="stroke-width:0.26458332">$0$</tspan></text>
      <text
         xml:space="preserve"
         style="font-style:normal;font-variant:normal;font-weight:normal;font-stretch:normal;font-size:2.82222223px;line-height:1.25;font-family:'Times New Roman';-inkscape-font-specification:'Times New Roman, Normal';font-variant-ligatures:normal;font-variant-caps:normal;font-variant-numeric:normal;font-feature-settings:normal;text-align:start;letter-spacing:0px;word-spacing:0px;writing-mode:lr-tb;text-anchor:start;fill:#000000;fill-opacity:1;stroke:none;stroke-width:0.26458332"
         x="12"
         y="248.00002"
         id="text4934"><tspan
           sodipodi:role="line"
           id="tspan4932"
           x="12"
           y="248.00002"
           style="stroke-width:0.26458332">$1$</tspan></text>
      <text
         xml:space="preserve"
         style="font-style:normal;font-variant:normal;font-weight:normal;font-stretch:normal;font-size:2.82222223px;line-height:1.25;font-family:'Times New Roman';-inkscape-font-specification:'Times New Roman, Normal';font-variant-ligatures:normal;font-variant-caps:normal;font-variant-numeric:normal;font-feature-settings:normal;text-align:start;letter-spacing:0px;word-spacing:0px;writing-mode:lr-tb;text-anchor:start;fill:#000000;fill-opacity:1;stroke:none;stroke-width:0.26458332"
         x="1.0000039"
         y="267.00003"
         id="text4938"><tspan
           sodipodi:role="line"
           id="tspan4936"
           x="1.0000039"
           y="267.00003"
           style="stroke-width:0.26458332">$u(x)$</tspan></text>
      <path
         style="fill:none;stroke:#000000;stroke-width:0.69999999;stroke-linecap:round;stroke-linejoin:miter;stroke-miterlimit:4;stroke-dasharray:none;stroke-opacity:1"
         d="M 1.000004,269.00004 H 7.0000038"
         id="path4940"
         inkscape:connector-curvature="0" />
      <text
         xml:space="preserve"
         style="font-style:normal;font-variant:normal;font-weight:normal;font-stretch:normal;font-size:2.82222223px;line-height:1.25;font-family:'Times New Roman';-inkscape-font-specification:'Times New Roman, Normal';font-variant-ligatures:normal;font-variant-caps:normal;font-variant-numeric:normal;font-feature-settings:normal;text-align:start;letter-spacing:0px;word-spacing:0px;writing-mode:lr-tb;text-anchor:start;fill:#000000;fill-opacity:1;stroke:none;stroke-width:0.26458332"
         x="52"
         y="295.00003"
         id="text4944"><tspan
           sodipodi:role="line"
           id="tspan4942"
           x="52"
           y="295.00003"
           style="stroke-width:0.26458332">$x$</tspan></text>
      <text
         xml:space="preserve"
         style="font-style:normal;font-variant:normal;font-weight:normal;font-stretch:normal;font-size:2.82222223px;line-height:1.25;font-family:'Times New Roman';-inkscape-font-specification:'Times New Roman, Normal';font-variant-ligatures:normal;font-variant-caps:normal;font-variant-numeric:normal;font-feature-settings:normal;text-align:start;letter-spacing:0px;word-spacing:0px;writing-mode:lr-tb;text-anchor:start;fill:#000000;fill-opacity:1;stroke:none;stroke-width:0.26458332"
         x="6"
         y="278.00003"
         id="text4926-7"><tspan
           sodipodi:role="line"
           id="tspan4924-5"
           x="6"
           y="278.00003"
           style="stroke-width:0.26458332">$-0.5$</tspan></text>
      <text
         xml:space="preserve"
         style="font-style:normal;font-variant:normal;font-weight:normal;font-stretch:normal;font-size:2.82222223px;line-height:1.25;font-family:'Times New Roman';-inkscape-font-specification:'Times New Roman, Normal';font-variant-ligatures:normal;font-variant-caps:normal;font-variant-numeric:normal;font-feature-settings:normal;text-align:start;letter-spacing:0px;word-spacing:0px;writing-mode:lr-tb;text-anchor:start;fill:#000000;fill-opacity:1;stroke:none;stroke-width:0.26458332"
         x="9"
         y="258.00003"
         id="text4926-4"><tspan
           sodipodi:role="line"
           id="tspan4924-2"
           x="9"
           y="258.00003"
           style="stroke-width:0.26458332">$0.5$</tspan></text>
    </g>
  </g>
</svg>
